%
M48
M72
T01C0.0276
T02C0.0360
T03C0.0400
T04C0.0551
T05C0.1100
T06C0.1181
T07C0.1220
%
T01
X9260Y32393
X11760Y33393
X17260Y34943
X19260Y34943
X20760Y34943
X22260Y34943
X23760Y34943
X28760Y34943
X30260Y34943
X32260Y34943
X34260Y34943
X35760Y34943
X41260Y34943
X43260Y34943
X44260Y34943
X46260Y34943
X47760Y34943
X52760Y34943
X54260Y34943
X55760Y34943
X57760Y34943
X59260Y34943
X66260Y34943
X68260Y34943
X69760Y34943
X71760Y34943
X73260Y34943
X75760Y34943
X76760Y34943
X78760Y34943
X80260Y34943
X81760Y34943
X83760Y34943
X89260Y34943
X91260Y34943
X92760Y34943
X93760Y34943
X95760Y34943
X98260Y34943
X100260Y34943
X101260Y34943
X104260Y34943
X105260Y34943
X107260Y34943
X113260Y34943
X115260Y34943
X116760Y34943
X119760Y34943
X121260Y34943
X123260Y34943
X125260Y34943
X126760Y34943
X128260Y34943
X129760Y34943
X131760Y34943
X134260Y34943
X136760Y34943
X138760Y34943
X140260Y34943
X141760Y34943
X143760Y34943
X146260Y34943
X148260Y34943
X149760Y34943
X151260Y34943
X155260Y34943
X162760Y37443
X169260Y37943
X169760Y36443
X171560Y36043
X169760Y34893
X171560Y34593
X168760Y32893
X174260Y37893
X171760Y39443
X169760Y40443
X168760Y41943
X171260Y42943
X174260Y43393
X174260Y40393
X174260Y46393
X168260Y46443
X161760Y46943
X154760Y46443
X152260Y46443
X149760Y46443
X143260Y46943
X139760Y46943
X137260Y46943
X131260Y46443
X124760Y46443
X118760Y46943
X113760Y46943
X107260Y46443
X102260Y46443
X95760Y46943
X90760Y46943
X81760Y46443
X78760Y46443
X72260Y46943
X67760Y46943
X58760Y46443
X54260Y46443
X46760Y46443
X44260Y46443
X34760Y46443
X30260Y46443
X22760Y46443
X18260Y46443
X11760Y46943
X8760Y45893
X8760Y44393
X11760Y43943
X10260Y41893
X8760Y40393
X10260Y38393
X11760Y36443
X10760Y48893
X11760Y50443
X10260Y51393
X9760Y54893
X9260Y57893
X10260Y60393
X8760Y61893
X11760Y63893
X14760Y64393
X18260Y61893
X18260Y60893
X21260Y60393
X23260Y60393
X22260Y61893
X23760Y63893
X27260Y63893
X30260Y63893
X32260Y62893
X34260Y61393
X31260Y59893
X28760Y61893
X35260Y63393
X40760Y64393
X41760Y61893
X42760Y59893
X46260Y60393
X46760Y62393
X45760Y63393
X48760Y63893
X52760Y63393
X56260Y62393
X58760Y62393
X60260Y64393
X56260Y64393
X58760Y60393
X54760Y59893
X65260Y63393
X68260Y63893
X72260Y63893
X75760Y62893
X80260Y64393
X82260Y61893
X78260Y60393
X73760Y60393
X71260Y60393
X65760Y61393
X86260Y63893
X88260Y63893
X93260Y63893
X96260Y62393
X96760Y63893
X100260Y63393
X102760Y63893
X106260Y61893
X106760Y60393
X102260Y59893
X98260Y59893
X93260Y59893
X90260Y61393
X107760Y63893
X112760Y64393
X114760Y61893
X116260Y59893
X119760Y61393
X124260Y59893
X126260Y61893
X129260Y63393
X131260Y64393
X133760Y63393
X135760Y64393
X137760Y61893
X137260Y59943
X140760Y59393
X142260Y61893
X144760Y62893
X140760Y64893
X149260Y60893
X150260Y58893
X154260Y58393
X161260Y61893
X159760Y63393
X161760Y63893
X164760Y63393
X170260Y63393
X173260Y63393
X173760Y59893
X169260Y59893
X169760Y56893
X173760Y55393
X172260Y53393
X169260Y52893
X168260Y50443
X174260Y50393
X162260Y58893
X156760Y63893
X129760Y60393
X124260Y63893
X120260Y63393
X117760Y64393
X141260Y26893
X140260Y24393
X141260Y23393
X139260Y23393
X139260Y22393
X141260Y22393
X151260Y22393
X153260Y22393
X153260Y23393
X152260Y24393
X151260Y23393
X153260Y26893
X20260Y63893
T02
X25260Y58943
X25260Y57943
X27260Y57943
X27260Y58943
X27260Y56943
X27260Y55943
X25260Y55943
X25260Y56943
X25260Y54943
X25260Y53943
X25260Y52943
X27260Y52943
X27260Y53943
X27260Y54943
X27260Y51943
X27260Y50943
X27260Y49943
X25260Y49943
X25260Y50943
X25260Y51943
X25260Y48943
X25260Y47943
X27260Y47943
X27260Y48943
X27260Y46943
X27260Y45943
X27260Y44943
X25260Y44943
X25260Y45943
X25260Y46943
X25260Y43943
X25260Y42943
X27260Y42943
X27260Y43943
X27260Y41943
X27260Y40943
X27260Y39943
X25260Y39943
X25260Y40943
X25260Y41943
X25260Y38943
X25260Y37943
X25260Y36943
X27260Y36943
X27260Y37943
X27260Y38943
X27260Y35943
X27260Y34943
X25260Y34943
X25260Y35943
X25260Y33943
X25260Y32943
X25260Y31943
X27260Y31943
X27260Y32943
X27260Y33943
X27260Y30943
X27260Y29943
X25260Y29943
X25260Y30943
X25260Y28943
X25260Y27943
X27260Y27943
X27260Y28943
X37260Y28943
X37260Y27943
X39260Y27943
X39260Y28943
X39260Y29943
X39260Y30943
X37260Y30943
X37260Y29943
X37260Y31943
X37260Y32943
X37260Y33943
X39260Y33943
X39260Y32943
X39260Y31943
X39260Y34943
X39260Y35943
X37260Y35943
X37260Y34943
X37260Y36943
X37260Y37943
X37260Y38943
X39260Y38943
X39260Y37943
X39260Y36943
X39260Y39943
X39260Y40943
X39260Y41943
X37260Y41943
X37260Y40943
X37260Y39943
X37260Y42943
X37260Y43943
X39260Y43943
X39260Y42943
X39260Y44943
X39260Y45943
X39260Y46943
X37260Y46943
X37260Y45943
X37260Y44943
X37260Y47943
X37260Y48943
X39260Y48943
X39260Y47943
X39260Y49943
X39260Y50943
X39260Y51943
X37260Y51943
X37260Y50943
X37260Y49943
X37260Y52943
X37260Y53943
X37260Y54943
X39260Y54943
X39260Y53943
X39260Y52943
X39260Y55943
X39260Y56943
X37260Y56943
X37260Y55943
X37260Y57943
X37260Y58943
X39260Y58943
X39260Y57943
X49260Y57943
X49260Y58943
X51260Y58943
X51260Y57943
X51260Y56943
X51260Y55943
X49260Y55943
X49260Y56943
X49260Y54943
X49260Y53943
X49260Y52943
X51260Y52943
X51260Y53943
X51260Y54943
X51260Y51943
X51260Y50943
X51260Y49943
X49260Y49943
X49260Y50943
X49260Y51943
X49260Y48943
X49260Y47943
X51260Y47943
X51260Y48943
X51260Y46943
X51260Y45943
X51260Y44943
X49260Y44943
X49260Y45943
X49260Y46943
X49260Y43943
X49260Y42943
X51260Y42943
X51260Y43943
X51260Y41943
X51260Y40943
X51260Y39943
X49260Y39943
X49260Y40943
X49260Y41943
X49260Y38943
X49260Y37943
X49260Y36943
X51260Y36943
X51260Y37943
X51260Y38943
X51260Y35943
X51260Y34943
X49260Y34943
X49260Y35943
X49260Y33943
X49260Y32943
X49260Y31943
X51260Y31943
X51260Y32943
X51260Y33943
X51260Y30943
X51260Y29943
X49260Y29943
X49260Y30943
X49260Y28943
X49260Y27943
X51260Y27943
X51260Y28943
X61260Y28943
X61260Y27943
X63260Y27943
X63260Y28943
X63260Y29943
X63260Y30943
X63260Y31943
X63260Y32943
X63260Y33943
X63260Y34943
X63260Y35943
X63260Y36943
X63260Y37943
X63260Y38943
X63260Y39943
X63260Y40943
X63260Y41943
X63260Y42943
X63260Y43943
X63260Y44943
X63260Y45943
X63260Y46943
X63260Y47943
X63260Y48943
X63260Y49943
X63260Y50943
X63260Y51943
X63260Y52943
X63260Y53943
X63260Y54943
X63260Y55943
X63260Y56943
X63260Y57943
X63260Y58943
X61260Y58943
X61260Y57943
X61260Y56943
X61260Y55943
X61260Y54943
X61260Y53943
X61260Y52943
X61260Y51943
X61260Y50943
X61260Y49943
X61260Y48943
X61260Y47943
X61260Y46943
X61260Y45943
X61260Y44943
X61260Y43943
X61260Y42943
X61260Y41943
X61260Y40943
X61260Y39943
X61260Y38943
X61260Y37943
X61260Y36943
X61260Y35943
X61260Y34943
X61260Y33943
X61260Y32943
X61260Y31943
X61260Y30943
X61260Y29943
X85260Y29943
X85260Y30943
X87260Y30943
X87260Y29943
X87260Y28943
X87260Y27943
X85260Y27943
X85260Y28943
X85260Y31943
X85260Y32943
X85260Y33943
X87260Y33943
X87260Y32943
X87260Y31943
X87260Y34943
X87260Y35943
X85260Y35943
X85260Y34943
X85260Y36943
X85260Y37943
X85260Y38943
X87260Y38943
X87260Y37943
X87260Y36943
X87260Y39943
X87260Y40943
X87260Y41943
X85260Y41943
X85260Y40943
X85260Y39943
X85260Y42943
X85260Y43943
X87260Y43943
X87260Y42943
X87260Y44943
X87260Y45943
X87260Y46943
X85260Y46943
X85260Y45943
X85260Y44943
X85260Y47943
X85260Y48943
X87260Y48943
X87260Y47943
X87260Y49943
X87260Y50943
X87260Y51943
X85260Y51943
X85260Y50943
X85260Y49943
X85260Y52943
X85260Y53943
X85260Y54943
X87260Y54943
X87260Y53943
X87260Y52943
X87260Y55943
X87260Y56943
X85260Y56943
X85260Y55943
X85260Y57943
X85260Y58943
X87260Y58943
X87260Y57943
X109260Y57943
X109260Y58943
X111260Y58943
X111260Y57943
X111260Y56943
X111260Y55943
X109260Y55943
X109260Y56943
X109260Y54943
X109260Y53943
X109260Y52943
X111260Y52943
X111260Y53943
X111260Y54943
X111260Y51943
X111260Y50943
X111260Y49943
X109260Y49943
X109260Y50943
X109260Y51943
X109260Y48943
X109260Y47943
X111260Y47943
X111260Y48943
X111260Y46943
X111260Y45943
X111260Y44943
X109260Y44943
X109260Y45943
X109260Y46943
X109260Y43943
X109260Y42943
X111260Y42943
X111260Y43943
X111260Y41943
X111260Y40943
X111260Y39943
X109260Y39943
X109260Y40943
X109260Y41943
X109260Y38943
X109260Y37943
X109260Y36943
X111260Y36943
X111260Y37943
X111260Y38943
X111260Y35943
X111260Y34943
X109260Y34943
X109260Y35943
X109260Y33943
X109260Y32943
X109260Y31943
X111260Y31943
X111260Y32943
X111260Y33943
X111260Y30943
X111260Y29943
X109260Y29943
X109260Y30943
X109260Y28943
X109260Y27943
X111260Y27943
X111260Y28943
X133260Y28943
X133260Y27943
X135260Y27943
X135260Y28943
X135260Y29943
X135260Y30943
X135260Y31943
X135260Y32943
X135260Y33943
X135260Y34943
X135260Y35943
X135260Y36943
X135260Y37943
X135260Y38943
X135260Y39943
X135260Y40943
X135260Y41943
X135260Y42943
X135260Y43943
X135260Y44943
X135260Y45943
X135260Y46943
X135260Y47943
X135260Y48943
X135260Y49943
X135260Y50943
X135260Y51943
X135260Y52943
X135260Y53943
X135260Y54943
X135260Y55943
X135260Y56943
X135260Y57943
X135260Y58943
X133260Y58943
X133260Y57943
X133260Y56943
X133260Y55943
X133260Y54943
X133260Y53943
X133260Y52943
X133260Y51943
X133260Y50943
X133260Y49943
X133260Y48943
X133260Y47943
X133260Y46943
X133260Y45943
X133260Y44943
X133260Y43943
X133260Y42943
X133260Y41943
X133260Y40943
X133260Y39943
X133260Y38943
X133260Y37943
X133260Y36943
X133260Y35943
X133260Y34943
X133260Y33943
X133260Y32943
X133260Y31943
X133260Y30943
X133260Y29943
X145260Y29943
X145260Y30943
X147260Y30943
X147260Y29943
X147260Y28943
X147260Y27943
X145260Y27943
X145260Y28943
X145260Y31943
X145260Y32943
X145260Y33943
X147260Y33943
X147260Y32943
X147260Y31943
X147260Y34943
X147260Y35943
X145260Y35943
X145260Y34943
X145260Y36943
X145260Y37943
X145260Y38943
X147260Y38943
X147260Y37943
X147260Y36943
X147260Y39943
X147260Y40943
X147260Y41943
X145260Y41943
X145260Y40943
X145260Y39943
X145260Y42943
X145260Y43943
X147260Y43943
X147260Y42943
X147260Y44943
X147260Y45943
X147260Y46943
X145260Y46943
X145260Y45943
X145260Y44943
X145260Y47943
X145260Y48943
X147260Y48943
X147260Y47943
X147260Y49943
X147260Y50943
X147260Y51943
X145260Y51943
X145260Y50943
X145260Y49943
X145260Y52943
X145260Y53943
X145260Y54943
X147260Y54943
X147260Y53943
X147260Y52943
X147260Y55943
X147260Y56943
X145260Y56943
X145260Y55943
X145260Y57943
X145260Y58943
X147260Y58943
X147260Y57943
X157260Y57943
X157260Y58943
X159260Y58943
X159260Y57943
X159260Y56943
X159260Y55943
X157260Y55943
X157260Y56943
X157260Y54943
X157260Y53943
X157260Y52943
X159260Y52943
X159260Y53943
X159260Y54943
X159260Y51943
X159260Y50943
X159260Y49943
X157260Y49943
X157260Y50943
X157260Y51943
X157260Y48943
X157260Y47943
X159260Y47943
X159260Y48943
X159260Y46943
X159260Y45943
X159260Y44943
X157260Y44943
X157260Y45943
X157260Y46943
X157260Y43943
X157260Y42943
X159260Y42943
X159260Y43943
X159260Y41943
X159260Y40943
X159260Y39943
X157260Y39943
X157260Y40943
X157260Y41943
X157260Y38943
X157260Y37943
X157260Y36943
X159260Y36943
X159260Y37943
X159260Y38943
X159260Y35943
X159260Y34943
X157260Y34943
X157260Y35943
X157260Y33943
X157260Y32943
X157260Y31943
X159260Y31943
X159260Y32943
X159260Y33943
X159260Y30943
X159260Y29943
X157260Y29943
X157260Y30943
X157260Y28943
X157260Y27943
X159260Y27943
X159260Y28943
X165260Y28943
X165260Y27943
X167260Y27943
X167260Y28943
X167260Y29943
X167260Y30943
X165260Y30943
X165260Y29943
X165260Y31943
X165260Y32943
X165260Y33943
X167260Y33943
X167260Y32943
X167260Y31943
X167260Y34943
X167260Y35943
X165260Y35943
X165260Y34943
X165260Y36943
X165260Y37943
X165260Y38943
X167260Y38943
X167260Y37943
X167260Y36943
X167260Y39943
X167260Y40943
X167260Y41943
X165260Y41943
X165260Y40943
X165260Y39943
X165260Y42943
X165260Y43943
X167260Y43943
X167260Y42943
X167260Y44943
X167260Y45943
X167260Y46943
X165260Y46943
X165260Y45943
X165260Y44943
X165260Y47943
X165260Y48943
X167260Y48943
X167260Y47943
X167260Y49943
X167260Y50943
X167260Y51943
X165260Y51943
X165260Y50943
X165260Y49943
X165260Y52943
X165260Y53943
X165260Y54943
X167260Y54943
X167260Y53943
X167260Y52943
X167260Y55943
X167260Y56943
X165260Y56943
X165260Y55943
X165260Y57943
X165260Y58943
X167260Y58943
X167260Y57943
X15260Y57943
X15260Y58943
X13260Y58943
X13260Y57943
X13260Y56943
X13260Y55943
X15260Y55943
X15260Y56943
X15260Y54943
X15260Y53943
X15260Y52943
X13260Y52943
X13260Y53943
X13260Y54943
X13260Y51943
X13260Y50943
X13260Y49943
X15260Y49943
X15260Y50943
X15260Y51943
X15260Y48943
X15260Y47943
X13260Y47943
X13260Y48943
X13260Y46943
X13260Y45943
X13260Y44943
X15260Y44943
X15260Y45943
X15260Y46943
X15260Y43943
X15260Y42943
X13260Y42943
X13260Y43943
X13260Y41943
X13260Y40943
X13260Y39943
X15260Y39943
X15260Y40943
X15260Y41943
X15260Y38943
X15260Y37943
X15260Y36943
X13260Y36943
X13260Y37943
X13260Y38943
X13260Y35943
X13260Y34943
X15260Y34943
X15260Y35943
X15260Y33943
X15260Y32943
X15260Y31943
X13260Y31943
X13260Y32943
X13260Y33943
X13260Y30943
X13260Y29943
X15260Y29943
X15260Y30943
X15260Y28943
X15260Y27943
X13260Y27943
X13260Y28943
T03
X153260Y33943
X153260Y34943
T04
X170983Y31526
X172636Y31526
X172636Y29361
X170983Y29361
T05
X166380Y25723
X158140Y25723
X146380Y25723
X134140Y25723
X110140Y25723
X86140Y25723
X62140Y25723
X50140Y25723
X38140Y25723
X26140Y25723
X14140Y25723
X14140Y61163
X26140Y61163
X38140Y61163
X50140Y61163
X62140Y61163
X86140Y61163
X110140Y61163
X134140Y61163
X146380Y61163
X158140Y61163
X166380Y61163
T06
X169132Y31345
X174487Y31345
T07
X10260Y19343
X16260Y19343
X42260Y19343
X74260Y19343
X106260Y19343
X138260Y19343
X166260Y19343
X172260Y19343
X172260Y67543
X166260Y67543
X138260Y67543
X106260Y67543
X74260Y67543
X42260Y67543
X16260Y67543
X10260Y67543
M30
