G75*
%MOIN*%
%OFA0B0*%
%FSLAX24Y24*%
%IPPOS*%
%LPD*%
%AMOC8*
5,1,8,0,0,1.08239X$1,22.5*
%
%ADD10R,0.4332X0.4178*%
%ADD11R,0.0500X0.0930*%
%ADD12C,0.1300*%
%ADD13R,0.0907X0.0907*%
%ADD14C,0.1261*%
%ADD15OC8,0.0640*%
%ADD16C,0.1180*%
%ADD17R,0.0316X0.0434*%
%ADD18R,0.0434X0.0316*%
%ADD19R,0.0395X0.0395*%
%ADD20R,0.0592X0.0356*%
%ADD21R,0.0710X0.1655*%
%ADD22C,0.0680*%
%ADD23C,0.0516*%
D10*
X171310Y048743D03*
D11*
X171310Y045463D03*
X171980Y045463D03*
X172650Y045463D03*
X170640Y045463D03*
X169970Y045463D03*
D12*
X010260Y019343D03*
X016260Y019343D03*
X042260Y019343D03*
X074260Y019343D03*
X106260Y019343D03*
X138260Y019343D03*
X166260Y019343D03*
X172260Y019343D03*
X172260Y067543D03*
X166260Y067543D03*
X138260Y067543D03*
X106260Y067543D03*
X074260Y067543D03*
X042260Y067543D03*
X016260Y067543D03*
X010260Y067543D03*
D13*
X170983Y031526D03*
X172636Y031526D03*
X172636Y029361D03*
X170983Y029361D03*
D14*
X169132Y031345D03*
X174487Y031345D03*
D15*
X167260Y030943D03*
X167260Y029943D03*
X165260Y029943D03*
X165260Y030943D03*
X165260Y031943D03*
X165260Y032943D03*
X165260Y033943D03*
X167260Y033943D03*
X167260Y032943D03*
X167260Y031943D03*
X167260Y034943D03*
X167260Y035943D03*
X165260Y035943D03*
X165260Y034943D03*
X165260Y036943D03*
X165260Y037943D03*
X165260Y038943D03*
X167260Y038943D03*
X167260Y037943D03*
X167260Y036943D03*
X167260Y039943D03*
X167260Y040943D03*
X167260Y041943D03*
X165260Y041943D03*
X165260Y040943D03*
X165260Y039943D03*
X165260Y042943D03*
X165260Y043943D03*
X167260Y043943D03*
X167260Y042943D03*
X167260Y044943D03*
X167260Y045943D03*
X167260Y046943D03*
X165260Y046943D03*
X165260Y045943D03*
X165260Y044943D03*
X165260Y047943D03*
X165260Y048943D03*
X167260Y048943D03*
X167260Y047943D03*
X167260Y049943D03*
X167260Y050943D03*
X167260Y051943D03*
X165260Y051943D03*
X165260Y050943D03*
X165260Y049943D03*
X165260Y052943D03*
X165260Y053943D03*
X165260Y054943D03*
X167260Y054943D03*
X167260Y053943D03*
X167260Y052943D03*
X167260Y055943D03*
X167260Y056943D03*
X165260Y056943D03*
X165260Y055943D03*
X165260Y057943D03*
X165260Y058943D03*
X167260Y058943D03*
X167260Y057943D03*
X159260Y057943D03*
X159260Y058943D03*
X157260Y058943D03*
X157260Y057943D03*
X157260Y056943D03*
X157260Y055943D03*
X159260Y055943D03*
X159260Y056943D03*
X159260Y054943D03*
X159260Y053943D03*
X159260Y052943D03*
X157260Y052943D03*
X157260Y053943D03*
X157260Y054943D03*
X157260Y051943D03*
X157260Y050943D03*
X157260Y049943D03*
X159260Y049943D03*
X159260Y050943D03*
X159260Y051943D03*
X159260Y048943D03*
X159260Y047943D03*
X157260Y047943D03*
X157260Y048943D03*
X157260Y046943D03*
X157260Y045943D03*
X157260Y044943D03*
X159260Y044943D03*
X159260Y045943D03*
X159260Y046943D03*
X159260Y043943D03*
X159260Y042943D03*
X157260Y042943D03*
X157260Y043943D03*
X157260Y041943D03*
X157260Y040943D03*
X157260Y039943D03*
X159260Y039943D03*
X159260Y040943D03*
X159260Y041943D03*
X159260Y038943D03*
X159260Y037943D03*
X159260Y036943D03*
X157260Y036943D03*
X157260Y037943D03*
X157260Y038943D03*
X157260Y035943D03*
X157260Y034943D03*
X159260Y034943D03*
X159260Y035943D03*
X159260Y033943D03*
X159260Y032943D03*
X159260Y031943D03*
X157260Y031943D03*
X157260Y032943D03*
X157260Y033943D03*
X157260Y030943D03*
X157260Y029943D03*
X159260Y029943D03*
X159260Y030943D03*
X159260Y028943D03*
X159260Y027943D03*
X157260Y027943D03*
X157260Y028943D03*
X165260Y028943D03*
X165260Y027943D03*
X167260Y027943D03*
X167260Y028943D03*
X147260Y028943D03*
X147260Y027943D03*
X145260Y027943D03*
X145260Y028943D03*
X145260Y029943D03*
X145260Y030943D03*
X147260Y030943D03*
X147260Y029943D03*
X147260Y031943D03*
X147260Y032943D03*
X147260Y033943D03*
X145260Y033943D03*
X145260Y032943D03*
X145260Y031943D03*
X145260Y034943D03*
X145260Y035943D03*
X147260Y035943D03*
X147260Y034943D03*
X147260Y036943D03*
X147260Y037943D03*
X147260Y038943D03*
X145260Y038943D03*
X145260Y037943D03*
X145260Y036943D03*
X145260Y039943D03*
X145260Y040943D03*
X145260Y041943D03*
X147260Y041943D03*
X147260Y040943D03*
X147260Y039943D03*
X147260Y042943D03*
X147260Y043943D03*
X145260Y043943D03*
X145260Y042943D03*
X145260Y044943D03*
X145260Y045943D03*
X145260Y046943D03*
X147260Y046943D03*
X147260Y045943D03*
X147260Y044943D03*
X147260Y047943D03*
X147260Y048943D03*
X145260Y048943D03*
X145260Y047943D03*
X145260Y049943D03*
X145260Y050943D03*
X145260Y051943D03*
X147260Y051943D03*
X147260Y050943D03*
X147260Y049943D03*
X147260Y052943D03*
X147260Y053943D03*
X147260Y054943D03*
X145260Y054943D03*
X145260Y053943D03*
X145260Y052943D03*
X145260Y055943D03*
X145260Y056943D03*
X147260Y056943D03*
X147260Y055943D03*
X147260Y057943D03*
X147260Y058943D03*
X145260Y058943D03*
X145260Y057943D03*
X135260Y057943D03*
X135260Y058943D03*
X133260Y058943D03*
X133260Y057943D03*
X133260Y056943D03*
X133260Y055943D03*
X133260Y054943D03*
X133260Y053943D03*
X133260Y052943D03*
X133260Y051943D03*
X133260Y050943D03*
X133260Y049943D03*
X133260Y048943D03*
X133260Y047943D03*
X133260Y046943D03*
X133260Y045943D03*
X133260Y044943D03*
X133260Y043943D03*
X133260Y042943D03*
X133260Y041943D03*
X133260Y040943D03*
X133260Y039943D03*
X133260Y038943D03*
X133260Y037943D03*
X133260Y036943D03*
X133260Y035943D03*
X133260Y034943D03*
X133260Y033943D03*
X133260Y032943D03*
X133260Y031943D03*
X133260Y030943D03*
X133260Y029943D03*
X133260Y028943D03*
X133260Y027943D03*
X135260Y027943D03*
X135260Y028943D03*
X135260Y029943D03*
X135260Y030943D03*
X135260Y031943D03*
X135260Y032943D03*
X135260Y033943D03*
X135260Y034943D03*
X135260Y035943D03*
X135260Y036943D03*
X135260Y037943D03*
X135260Y038943D03*
X135260Y039943D03*
X135260Y040943D03*
X135260Y041943D03*
X135260Y042943D03*
X135260Y043943D03*
X135260Y044943D03*
X135260Y045943D03*
X135260Y046943D03*
X135260Y047943D03*
X135260Y048943D03*
X135260Y049943D03*
X135260Y050943D03*
X135260Y051943D03*
X135260Y052943D03*
X135260Y053943D03*
X135260Y054943D03*
X135260Y055943D03*
X135260Y056943D03*
X111260Y056943D03*
X111260Y055943D03*
X109260Y055943D03*
X109260Y056943D03*
X109260Y057943D03*
X109260Y058943D03*
X111260Y058943D03*
X111260Y057943D03*
X111260Y054943D03*
X111260Y053943D03*
X111260Y052943D03*
X109260Y052943D03*
X109260Y053943D03*
X109260Y054943D03*
X109260Y051943D03*
X109260Y050943D03*
X109260Y049943D03*
X111260Y049943D03*
X111260Y050943D03*
X111260Y051943D03*
X111260Y048943D03*
X111260Y047943D03*
X109260Y047943D03*
X109260Y048943D03*
X109260Y046943D03*
X109260Y045943D03*
X109260Y044943D03*
X111260Y044943D03*
X111260Y045943D03*
X111260Y046943D03*
X111260Y043943D03*
X111260Y042943D03*
X109260Y042943D03*
X109260Y043943D03*
X109260Y041943D03*
X109260Y040943D03*
X109260Y039943D03*
X111260Y039943D03*
X111260Y040943D03*
X111260Y041943D03*
X111260Y038943D03*
X111260Y037943D03*
X111260Y036943D03*
X109260Y036943D03*
X109260Y037943D03*
X109260Y038943D03*
X109260Y035943D03*
X109260Y034943D03*
X111260Y034943D03*
X111260Y035943D03*
X111260Y033943D03*
X111260Y032943D03*
X111260Y031943D03*
X109260Y031943D03*
X109260Y032943D03*
X109260Y033943D03*
X109260Y030943D03*
X109260Y029943D03*
X111260Y029943D03*
X111260Y030943D03*
X111260Y028943D03*
X111260Y027943D03*
X109260Y027943D03*
X109260Y028943D03*
X087260Y028943D03*
X087260Y027943D03*
X085260Y027943D03*
X085260Y028943D03*
X085260Y029943D03*
X085260Y030943D03*
X087260Y030943D03*
X087260Y029943D03*
X087260Y031943D03*
X087260Y032943D03*
X087260Y033943D03*
X085260Y033943D03*
X085260Y032943D03*
X085260Y031943D03*
X085260Y034943D03*
X085260Y035943D03*
X087260Y035943D03*
X087260Y034943D03*
X087260Y036943D03*
X087260Y037943D03*
X087260Y038943D03*
X085260Y038943D03*
X085260Y037943D03*
X085260Y036943D03*
X085260Y039943D03*
X085260Y040943D03*
X085260Y041943D03*
X087260Y041943D03*
X087260Y040943D03*
X087260Y039943D03*
X087260Y042943D03*
X087260Y043943D03*
X085260Y043943D03*
X085260Y042943D03*
X085260Y044943D03*
X085260Y045943D03*
X085260Y046943D03*
X087260Y046943D03*
X087260Y045943D03*
X087260Y044943D03*
X087260Y047943D03*
X087260Y048943D03*
X085260Y048943D03*
X085260Y047943D03*
X085260Y049943D03*
X085260Y050943D03*
X085260Y051943D03*
X087260Y051943D03*
X087260Y050943D03*
X087260Y049943D03*
X087260Y052943D03*
X087260Y053943D03*
X087260Y054943D03*
X085260Y054943D03*
X085260Y053943D03*
X085260Y052943D03*
X085260Y055943D03*
X085260Y056943D03*
X087260Y056943D03*
X087260Y055943D03*
X087260Y057943D03*
X087260Y058943D03*
X085260Y058943D03*
X085260Y057943D03*
X063260Y057943D03*
X063260Y058943D03*
X061260Y058943D03*
X061260Y057943D03*
X061260Y056943D03*
X061260Y055943D03*
X061260Y054943D03*
X061260Y053943D03*
X061260Y052943D03*
X061260Y051943D03*
X061260Y050943D03*
X061260Y049943D03*
X061260Y048943D03*
X061260Y047943D03*
X061260Y046943D03*
X061260Y045943D03*
X061260Y044943D03*
X061260Y043943D03*
X061260Y042943D03*
X061260Y041943D03*
X061260Y040943D03*
X061260Y039943D03*
X061260Y038943D03*
X061260Y037943D03*
X061260Y036943D03*
X061260Y035943D03*
X061260Y034943D03*
X061260Y033943D03*
X061260Y032943D03*
X061260Y031943D03*
X061260Y030943D03*
X061260Y029943D03*
X061260Y028943D03*
X061260Y027943D03*
X063260Y027943D03*
X063260Y028943D03*
X063260Y029943D03*
X063260Y030943D03*
X063260Y031943D03*
X063260Y032943D03*
X063260Y033943D03*
X063260Y034943D03*
X063260Y035943D03*
X063260Y036943D03*
X063260Y037943D03*
X063260Y038943D03*
X063260Y039943D03*
X063260Y040943D03*
X063260Y041943D03*
X063260Y042943D03*
X063260Y043943D03*
X063260Y044943D03*
X063260Y045943D03*
X063260Y046943D03*
X063260Y047943D03*
X063260Y048943D03*
X063260Y049943D03*
X063260Y050943D03*
X063260Y051943D03*
X063260Y052943D03*
X063260Y053943D03*
X063260Y054943D03*
X063260Y055943D03*
X063260Y056943D03*
X051260Y056943D03*
X051260Y055943D03*
X049260Y055943D03*
X049260Y056943D03*
X049260Y057943D03*
X049260Y058943D03*
X051260Y058943D03*
X051260Y057943D03*
X051260Y054943D03*
X051260Y053943D03*
X051260Y052943D03*
X049260Y052943D03*
X049260Y053943D03*
X049260Y054943D03*
X049260Y051943D03*
X049260Y050943D03*
X049260Y049943D03*
X051260Y049943D03*
X051260Y050943D03*
X051260Y051943D03*
X051260Y048943D03*
X051260Y047943D03*
X049260Y047943D03*
X049260Y048943D03*
X049260Y046943D03*
X049260Y045943D03*
X049260Y044943D03*
X051260Y044943D03*
X051260Y045943D03*
X051260Y046943D03*
X051260Y043943D03*
X051260Y042943D03*
X049260Y042943D03*
X049260Y043943D03*
X049260Y041943D03*
X049260Y040943D03*
X049260Y039943D03*
X051260Y039943D03*
X051260Y040943D03*
X051260Y041943D03*
X051260Y038943D03*
X051260Y037943D03*
X051260Y036943D03*
X049260Y036943D03*
X049260Y037943D03*
X049260Y038943D03*
X049260Y035943D03*
X049260Y034943D03*
X051260Y034943D03*
X051260Y035943D03*
X051260Y033943D03*
X051260Y032943D03*
X051260Y031943D03*
X049260Y031943D03*
X049260Y032943D03*
X049260Y033943D03*
X049260Y030943D03*
X049260Y029943D03*
X051260Y029943D03*
X051260Y030943D03*
X051260Y028943D03*
X051260Y027943D03*
X049260Y027943D03*
X049260Y028943D03*
X039260Y028943D03*
X039260Y027943D03*
X037260Y027943D03*
X037260Y028943D03*
X037260Y029943D03*
X037260Y030943D03*
X039260Y030943D03*
X039260Y029943D03*
X039260Y031943D03*
X039260Y032943D03*
X039260Y033943D03*
X037260Y033943D03*
X037260Y032943D03*
X037260Y031943D03*
X037260Y034943D03*
X037260Y035943D03*
X039260Y035943D03*
X039260Y034943D03*
X039260Y036943D03*
X039260Y037943D03*
X039260Y038943D03*
X037260Y038943D03*
X037260Y037943D03*
X037260Y036943D03*
X037260Y039943D03*
X037260Y040943D03*
X037260Y041943D03*
X039260Y041943D03*
X039260Y040943D03*
X039260Y039943D03*
X039260Y042943D03*
X039260Y043943D03*
X037260Y043943D03*
X037260Y042943D03*
X037260Y044943D03*
X037260Y045943D03*
X037260Y046943D03*
X039260Y046943D03*
X039260Y045943D03*
X039260Y044943D03*
X039260Y047943D03*
X039260Y048943D03*
X037260Y048943D03*
X037260Y047943D03*
X037260Y049943D03*
X037260Y050943D03*
X037260Y051943D03*
X039260Y051943D03*
X039260Y050943D03*
X039260Y049943D03*
X039260Y052943D03*
X039260Y053943D03*
X039260Y054943D03*
X037260Y054943D03*
X037260Y053943D03*
X037260Y052943D03*
X037260Y055943D03*
X037260Y056943D03*
X039260Y056943D03*
X039260Y055943D03*
X039260Y057943D03*
X039260Y058943D03*
X037260Y058943D03*
X037260Y057943D03*
X027260Y057943D03*
X027260Y058943D03*
X025260Y058943D03*
X025260Y057943D03*
X025260Y056943D03*
X025260Y055943D03*
X027260Y055943D03*
X027260Y056943D03*
X027260Y054943D03*
X027260Y053943D03*
X027260Y052943D03*
X025260Y052943D03*
X025260Y053943D03*
X025260Y054943D03*
X025260Y051943D03*
X025260Y050943D03*
X025260Y049943D03*
X027260Y049943D03*
X027260Y050943D03*
X027260Y051943D03*
X027260Y048943D03*
X027260Y047943D03*
X025260Y047943D03*
X025260Y048943D03*
X025260Y046943D03*
X025260Y045943D03*
X025260Y044943D03*
X027260Y044943D03*
X027260Y045943D03*
X027260Y046943D03*
X027260Y043943D03*
X027260Y042943D03*
X025260Y042943D03*
X025260Y043943D03*
X025260Y041943D03*
X025260Y040943D03*
X025260Y039943D03*
X027260Y039943D03*
X027260Y040943D03*
X027260Y041943D03*
X027260Y038943D03*
X027260Y037943D03*
X027260Y036943D03*
X025260Y036943D03*
X025260Y037943D03*
X025260Y038943D03*
X025260Y035943D03*
X025260Y034943D03*
X027260Y034943D03*
X027260Y035943D03*
X027260Y033943D03*
X027260Y032943D03*
X027260Y031943D03*
X025260Y031943D03*
X025260Y032943D03*
X025260Y033943D03*
X025260Y030943D03*
X025260Y029943D03*
X027260Y029943D03*
X027260Y030943D03*
X027260Y028943D03*
X027260Y027943D03*
X025260Y027943D03*
X025260Y028943D03*
X015260Y028943D03*
X015260Y027943D03*
X013260Y027943D03*
X013260Y028943D03*
X013260Y029943D03*
X013260Y030943D03*
X015260Y030943D03*
X015260Y029943D03*
X015260Y031943D03*
X015260Y032943D03*
X015260Y033943D03*
X013260Y033943D03*
X013260Y032943D03*
X013260Y031943D03*
X013260Y034943D03*
X013260Y035943D03*
X015260Y035943D03*
X015260Y034943D03*
X015260Y036943D03*
X015260Y037943D03*
X015260Y038943D03*
X013260Y038943D03*
X013260Y037943D03*
X013260Y036943D03*
X013260Y039943D03*
X013260Y040943D03*
X013260Y041943D03*
X015260Y041943D03*
X015260Y040943D03*
X015260Y039943D03*
X015260Y042943D03*
X015260Y043943D03*
X013260Y043943D03*
X013260Y042943D03*
X013260Y044943D03*
X013260Y045943D03*
X013260Y046943D03*
X015260Y046943D03*
X015260Y045943D03*
X015260Y044943D03*
X015260Y047943D03*
X015260Y048943D03*
X013260Y048943D03*
X013260Y047943D03*
X013260Y049943D03*
X013260Y050943D03*
X013260Y051943D03*
X015260Y051943D03*
X015260Y050943D03*
X015260Y049943D03*
X015260Y052943D03*
X015260Y053943D03*
X015260Y054943D03*
X013260Y054943D03*
X013260Y053943D03*
X013260Y052943D03*
X013260Y055943D03*
X013260Y056943D03*
X015260Y056943D03*
X015260Y055943D03*
X015260Y057943D03*
X015260Y058943D03*
X013260Y058943D03*
X013260Y057943D03*
D16*
X014140Y061163D03*
X026140Y061163D03*
X038140Y061163D03*
X050140Y061163D03*
X062140Y061163D03*
X086140Y061163D03*
X110140Y061163D03*
X134140Y061163D03*
X146380Y061163D03*
X158140Y061163D03*
X166380Y061163D03*
X166380Y025723D03*
X158140Y025723D03*
X146380Y025723D03*
X134140Y025723D03*
X110140Y025723D03*
X086140Y025723D03*
X062140Y025723D03*
X050140Y025723D03*
X038140Y025723D03*
X026140Y025723D03*
X014140Y025723D03*
D17*
X168964Y044493D03*
X169555Y044493D03*
D18*
X169060Y045448D03*
X169060Y046039D03*
D19*
X170610Y044339D03*
X170610Y043748D03*
X171610Y043748D03*
X171610Y044339D03*
D20*
X172660Y044317D03*
X172660Y043569D03*
X170610Y035667D03*
X170610Y034919D03*
D21*
X152260Y025791D03*
X152260Y022996D03*
X140260Y022996D03*
X140260Y025791D03*
D22*
X152960Y033943D02*
X153560Y033943D01*
X153560Y034943D02*
X152960Y034943D01*
D23*
X151260Y034943D03*
X149760Y034943D03*
X148260Y034943D03*
X146260Y034943D03*
X143760Y034943D03*
X141760Y034943D03*
X140260Y034943D03*
X138760Y034943D03*
X136760Y034943D03*
X134260Y034943D03*
X131760Y034943D03*
X129760Y034943D03*
X128260Y034943D03*
X126760Y034943D03*
X125260Y034943D03*
X123260Y034943D03*
X121260Y034943D03*
X119760Y034943D03*
X116760Y034943D03*
X115260Y034943D03*
X113260Y034943D03*
X107260Y034943D03*
X105260Y034943D03*
X104260Y034943D03*
X101260Y034943D03*
X100260Y034943D03*
X098260Y034943D03*
X095760Y034943D03*
X093760Y034943D03*
X092760Y034943D03*
X091260Y034943D03*
X089260Y034943D03*
X083760Y034943D03*
X081760Y034943D03*
X080260Y034943D03*
X078760Y034943D03*
X076760Y034943D03*
X075760Y034943D03*
X073260Y034943D03*
X071760Y034943D03*
X069760Y034943D03*
X068260Y034943D03*
X066260Y034943D03*
X059260Y034943D03*
X057760Y034943D03*
X055760Y034943D03*
X054260Y034943D03*
X052760Y034943D03*
X047760Y034943D03*
X046260Y034943D03*
X044260Y034943D03*
X043260Y034943D03*
X041260Y034943D03*
X035760Y034943D03*
X034260Y034943D03*
X032260Y034943D03*
X030260Y034943D03*
X028760Y034943D03*
X023760Y034943D03*
X022260Y034943D03*
X020760Y034943D03*
X019260Y034943D03*
X017260Y034943D03*
X011760Y036443D03*
X010260Y038393D03*
X008760Y040393D03*
X010260Y041893D03*
X011760Y043943D03*
X008760Y044393D03*
X008760Y045893D03*
X011760Y046943D03*
X010760Y048893D03*
X011760Y050443D03*
X010260Y051393D03*
X009760Y054893D03*
X009260Y057893D03*
X010260Y060393D03*
X008760Y061893D03*
X011760Y063893D03*
X014760Y064393D03*
X018260Y061893D03*
X018260Y060893D03*
X021260Y060393D03*
X023260Y060393D03*
X022260Y061893D03*
X023760Y063893D03*
X027260Y063893D03*
X030260Y063893D03*
X032260Y062893D03*
X034260Y061393D03*
X031260Y059893D03*
X028760Y061893D03*
X035260Y063393D03*
X040760Y064393D03*
X041760Y061893D03*
X042760Y059893D03*
X046260Y060393D03*
X046760Y062393D03*
X045760Y063393D03*
X048760Y063893D03*
X052760Y063393D03*
X056260Y062393D03*
X058760Y062393D03*
X060260Y064393D03*
X056260Y064393D03*
X058760Y060393D03*
X054760Y059893D03*
X065260Y063393D03*
X068260Y063893D03*
X072260Y063893D03*
X075760Y062893D03*
X080260Y064393D03*
X082260Y061893D03*
X078260Y060393D03*
X073760Y060393D03*
X071260Y060393D03*
X065760Y061393D03*
X086260Y063893D03*
X088260Y063893D03*
X093260Y063893D03*
X096260Y062393D03*
X096760Y063893D03*
X100260Y063393D03*
X102760Y063893D03*
X106260Y061893D03*
X106760Y060393D03*
X102260Y059893D03*
X098260Y059893D03*
X093260Y059893D03*
X090260Y061393D03*
X107760Y063893D03*
X112760Y064393D03*
X114760Y061893D03*
X116260Y059893D03*
X119760Y061393D03*
X124260Y059893D03*
X126260Y061893D03*
X129260Y063393D03*
X131260Y064393D03*
X133760Y063393D03*
X135760Y064393D03*
X137760Y061893D03*
X137260Y059943D03*
X140760Y059393D03*
X142260Y061893D03*
X144760Y062893D03*
X140760Y064893D03*
X149260Y060893D03*
X150260Y058893D03*
X154260Y058393D03*
X161260Y061893D03*
X159760Y063393D03*
X161760Y063893D03*
X164760Y063393D03*
X170260Y063393D03*
X173260Y063393D03*
X173760Y059893D03*
X169260Y059893D03*
X169760Y056893D03*
X173760Y055393D03*
X172260Y053393D03*
X169260Y052893D03*
X168260Y050443D03*
X174260Y050393D03*
X174260Y046393D03*
X168260Y046443D03*
X161760Y046943D03*
X154760Y046443D03*
X152260Y046443D03*
X149760Y046443D03*
X143260Y046943D03*
X139760Y046943D03*
X137260Y046943D03*
X131260Y046443D03*
X124760Y046443D03*
X118760Y046943D03*
X113760Y046943D03*
X107260Y046443D03*
X102260Y046443D03*
X095760Y046943D03*
X090760Y046943D03*
X081760Y046443D03*
X078760Y046443D03*
X072260Y046943D03*
X067760Y046943D03*
X058760Y046443D03*
X054260Y046443D03*
X046760Y046443D03*
X044260Y046443D03*
X034760Y046443D03*
X030260Y046443D03*
X022760Y046443D03*
X018260Y046443D03*
X011760Y033393D03*
X009260Y032393D03*
X020260Y063893D03*
X117760Y064393D03*
X120260Y063393D03*
X124260Y063893D03*
X129760Y060393D03*
X156760Y063893D03*
X162260Y058893D03*
X171260Y042943D03*
X168760Y041943D03*
X169760Y040443D03*
X171760Y039443D03*
X174260Y040393D03*
X174260Y037893D03*
X171560Y036043D03*
X169760Y036443D03*
X169760Y034893D03*
X171560Y034593D03*
X168760Y032893D03*
X162760Y037443D03*
X169260Y037943D03*
X174260Y043393D03*
X155260Y034943D03*
X153260Y026893D03*
X152260Y024393D03*
X153260Y023393D03*
X151260Y023393D03*
X151260Y022393D03*
X153260Y022393D03*
X141260Y022393D03*
X139260Y022393D03*
X139260Y023393D03*
X140260Y024393D03*
X141260Y023393D03*
X141260Y026893D03*
M02*
