%
M48
M72
T01C0.0276
T02C0.0360
T03C0.0400
T04C0.0551
T05C0.1100
T06C0.1181
T07C0.1220
%
T01
X17500Y4950
X17500Y5950
X18500Y6950
X19500Y5950
X19500Y4950
X19500Y9450
X20000Y17500
X18500Y17500
X17000Y17500
X15000Y17500
X12500Y17500
X10000Y17500
X8000Y17500
X6500Y17500
X5000Y17500
X9500Y29000
X15500Y29500
X18000Y29500
X21500Y29500
X28000Y29000
X30500Y29000
X33000Y29000
X40000Y29500
X46500Y29000
X46500Y33000
X47500Y35450
X50500Y35950
X52000Y37950
X48000Y39450
X47500Y42450
X48500Y45950
X51500Y45950
X52000Y42450
X43000Y45950
X40000Y46450
X39500Y44450
X38000Y45950
X35000Y46450
X32500Y40950
X28500Y41450
X27500Y43450
X23000Y45450
X20500Y44450
X19000Y41950
X16000Y44450
X15500Y42500
X12000Y45950
X14000Y46950
X9500Y46950
X7500Y45950
X8000Y42950
X4500Y44450
X19000Y47450
X40500Y41450
X52500Y32950
X52500Y28950
X52500Y25950
X49500Y25500
X47000Y24500
X48000Y23000
X50000Y22000
X52500Y22950
X52500Y20450
X49800Y18600
X49800Y17150
X48000Y17450
X48000Y19000
X47500Y20500
X47000Y15450
X41000Y20000
X33500Y17500
X29500Y17500
X28000Y17500
X26500Y17500
X24500Y17500
X22000Y17500
X31500Y9450
X30500Y6950
X29500Y5950
X29500Y4950
X31500Y4950
X31500Y5950
T02
X11500Y10500
X11500Y11500
X11500Y12500
X11500Y13500
X11500Y14500
X11500Y15500
X11500Y16500
X11500Y17500
X11500Y18500
X11500Y19500
X11500Y20500
X11500Y21500
X11500Y22500
X11500Y23500
X11500Y24500
X11500Y25500
X11500Y26500
X11500Y27500
X11500Y28500
X11500Y29500
X11500Y30500
X11500Y31500
X11500Y32500
X11500Y33500
X11500Y34500
X11500Y35500
X11500Y36500
X11500Y37500
X11500Y38500
X11500Y39500
X11500Y40500
X11500Y41500
X13500Y41500
X13500Y40500
X13500Y39500
X13500Y38500
X13500Y37500
X13500Y36500
X13500Y35500
X13500Y34500
X13500Y33500
X13500Y32500
X13500Y31500
X13500Y30500
X13500Y29500
X13500Y28500
X13500Y27500
X13500Y26500
X13500Y25500
X13500Y24500
X13500Y23500
X13500Y22500
X13500Y21500
X13500Y20500
X13500Y19500
X13500Y18500
X13500Y17500
X13500Y16500
X13500Y15500
X13500Y14500
X13500Y13500
X13500Y12500
X13500Y11500
X13500Y10500
X23500Y10500
X23500Y11500
X23500Y12500
X23500Y13500
X23500Y14500
X23500Y15500
X23500Y16500
X23500Y17500
X23500Y18500
X23500Y19500
X23500Y20500
X23500Y21500
X23500Y22500
X23500Y23500
X23500Y24500
X23500Y25500
X23500Y26500
X23500Y27500
X23500Y28500
X23500Y29500
X23500Y30500
X23500Y31500
X23500Y32500
X23500Y33500
X23500Y34500
X23500Y35500
X23500Y36500
X23500Y37500
X23500Y38500
X23500Y39500
X23500Y40500
X23500Y41500
X25500Y41500
X25500Y40500
X25500Y39500
X25500Y38500
X25500Y37500
X25500Y36500
X25500Y35500
X25500Y34500
X25500Y33500
X25500Y32500
X25500Y31500
X25500Y30500
X25500Y29500
X25500Y28500
X25500Y27500
X25500Y26500
X25500Y25500
X25500Y24500
X25500Y23500
X25500Y22500
X25500Y21500
X25500Y20500
X25500Y19500
X25500Y18500
X25500Y17500
X25500Y16500
X25500Y15500
X25500Y14500
X25500Y13500
X25500Y12500
X25500Y11500
X25500Y10500
X35500Y10500
X35500Y11500
X35500Y12500
X35500Y13500
X35500Y14500
X35500Y15500
X35500Y16500
X35500Y17500
X35500Y18500
X35500Y19500
X35500Y20500
X35500Y21500
X35500Y22500
X35500Y23500
X35500Y24500
X35500Y25500
X35500Y26500
X35500Y27500
X35500Y28500
X35500Y29500
X35500Y30500
X35500Y31500
X35500Y32500
X35500Y33500
X35500Y34500
X35500Y35500
X35500Y36500
X35500Y37500
X35500Y38500
X35500Y39500
X35500Y40500
X35500Y41500
X37500Y41500
X37500Y40500
X37500Y39500
X37500Y38500
X37500Y37500
X37500Y36500
X37500Y35500
X37500Y34500
X37500Y33500
X37500Y32500
X37500Y31500
X37500Y30500
X37500Y29500
X37500Y28500
X37500Y27500
X37500Y26500
X37500Y25500
X37500Y24500
X37500Y23500
X37500Y22500
X37500Y21500
X37500Y20500
X37500Y19500
X37500Y18500
X37500Y17500
X37500Y16500
X37500Y15500
X37500Y14500
X37500Y13500
X37500Y12500
X37500Y11500
X37500Y10500
X43500Y10500
X43500Y11500
X43500Y12500
X43500Y13500
X43500Y14500
X43500Y15500
X43500Y16500
X43500Y17500
X43500Y18500
X43500Y19500
X43500Y20500
X43500Y21500
X43500Y22500
X43500Y23500
X43500Y24500
X43500Y25500
X43500Y26500
X43500Y27500
X43500Y28500
X43500Y29500
X43500Y30500
X43500Y31500
X43500Y32500
X43500Y33500
X43500Y34500
X43500Y35500
X43500Y36500
X43500Y37500
X43500Y38500
X43500Y39500
X43500Y40500
X43500Y41500
X45500Y41500
X45500Y40500
X45500Y39500
X45500Y38500
X45500Y37500
X45500Y36500
X45500Y35500
X45500Y34500
X45500Y33500
X45500Y32500
X45500Y31500
X45500Y30500
X45500Y29500
X45500Y28500
X45500Y27500
X45500Y26500
X45500Y25500
X45500Y24500
X45500Y23500
X45500Y22500
X45500Y21500
X45500Y20500
X45500Y19500
X45500Y18500
X45500Y17500
X45500Y16500
X45500Y15500
X45500Y14500
X45500Y13500
X45500Y12500
X45500Y11500
X45500Y10500
T03
X31500Y16500
X31500Y17500
T04
X49223Y14083
X50877Y14083
X50877Y11917
X49223Y11917
T05
X44620Y8280
X36380Y8280
X24620Y8280
X12380Y8280
X12380Y43720
X24620Y43720
X36380Y43720
X44620Y43720
T06
X47373Y13902
X52727Y13902
T07
X50500Y1950
X44500Y1950
X16500Y1950
X16500Y50150
X44500Y50150
X50500Y50150
M30
