G75*
%MOIN*%
%OFA0B0*%
%FSLAX24Y24*%
%IPPOS*%
%LPD*%
%AMOC8*
5,1,8,0,0,1.08239X$1,22.5*
%
%ADD10C,0.0827*%
%ADD11C,0.0560*%
%ADD12C,0.0600*%
%ADD13C,0.0436*%
%ADD14C,0.0160*%
D10*
X049223Y011917D03*
X050877Y011917D03*
X050877Y014083D03*
X049223Y014083D03*
D11*
X045500Y014500D03*
X045500Y015500D03*
X045500Y016500D03*
X045500Y017500D03*
X045500Y018500D03*
X045500Y019500D03*
X045500Y020500D03*
X045500Y021500D03*
X045500Y022500D03*
X045500Y023500D03*
X045500Y024500D03*
X045500Y025500D03*
X045500Y026500D03*
X045500Y027500D03*
X045500Y028500D03*
X045500Y029500D03*
X045500Y030500D03*
X045500Y031500D03*
X045500Y032500D03*
X045500Y033500D03*
X045500Y034500D03*
X045500Y035500D03*
X045500Y036500D03*
X045500Y037500D03*
X045500Y038500D03*
X045500Y039500D03*
X045500Y040500D03*
X045500Y041500D03*
X043500Y041500D03*
X043500Y040500D03*
X043500Y039500D03*
X043500Y038500D03*
X043500Y037500D03*
X043500Y036500D03*
X043500Y035500D03*
X043500Y034500D03*
X043500Y033500D03*
X043500Y032500D03*
X043500Y031500D03*
X043500Y030500D03*
X043500Y029500D03*
X043500Y028500D03*
X043500Y027500D03*
X043500Y026500D03*
X043500Y025500D03*
X043500Y024500D03*
X043500Y023500D03*
X043500Y022500D03*
X043500Y021500D03*
X043500Y020500D03*
X043500Y019500D03*
X043500Y018500D03*
X043500Y017500D03*
X043500Y016500D03*
X043500Y015500D03*
X043500Y014500D03*
X043500Y013500D03*
X043500Y012500D03*
X043500Y011500D03*
X043500Y010500D03*
X045500Y010500D03*
X045500Y011500D03*
X045500Y012500D03*
X045500Y013500D03*
X037500Y013500D03*
X037500Y012500D03*
X037500Y011500D03*
X037500Y010500D03*
X035500Y010500D03*
X035500Y011500D03*
X035500Y012500D03*
X035500Y013500D03*
X035500Y014500D03*
X035500Y015500D03*
X035500Y016500D03*
X035500Y017500D03*
X035500Y018500D03*
X035500Y019500D03*
X035500Y020500D03*
X035500Y021500D03*
X035500Y022500D03*
X035500Y023500D03*
X035500Y024500D03*
X035500Y025500D03*
X035500Y026500D03*
X035500Y027500D03*
X035500Y028500D03*
X035500Y029500D03*
X035500Y030500D03*
X035500Y031500D03*
X035500Y032500D03*
X035500Y033500D03*
X035500Y034500D03*
X035500Y035500D03*
X035500Y036500D03*
X035500Y037500D03*
X035500Y038500D03*
X035500Y039500D03*
X035500Y040500D03*
X035500Y041500D03*
X037500Y041500D03*
X037500Y040500D03*
X037500Y039500D03*
X037500Y038500D03*
X037500Y037500D03*
X037500Y036500D03*
X037500Y035500D03*
X037500Y034500D03*
X037500Y033500D03*
X037500Y032500D03*
X037500Y031500D03*
X037500Y030500D03*
X037500Y029500D03*
X037500Y028500D03*
X037500Y027500D03*
X037500Y026500D03*
X037500Y025500D03*
X037500Y024500D03*
X037500Y023500D03*
X037500Y022500D03*
X037500Y021500D03*
X037500Y020500D03*
X037500Y019500D03*
X037500Y018500D03*
X037500Y017500D03*
X037500Y016500D03*
X037500Y015500D03*
X037500Y014500D03*
X025500Y014500D03*
X025500Y015500D03*
X025500Y016500D03*
X025500Y017500D03*
X025500Y018500D03*
X025500Y019500D03*
X025500Y020500D03*
X025500Y021500D03*
X025500Y022500D03*
X025500Y023500D03*
X025500Y024500D03*
X025500Y025500D03*
X025500Y026500D03*
X025500Y027500D03*
X025500Y028500D03*
X025500Y029500D03*
X025500Y030500D03*
X025500Y031500D03*
X025500Y032500D03*
X025500Y033500D03*
X025500Y034500D03*
X025500Y035500D03*
X025500Y036500D03*
X025500Y037500D03*
X025500Y038500D03*
X025500Y039500D03*
X025500Y040500D03*
X025500Y041500D03*
X023500Y041500D03*
X023500Y040500D03*
X023500Y039500D03*
X023500Y038500D03*
X023500Y037500D03*
X023500Y036500D03*
X023500Y035500D03*
X023500Y034500D03*
X023500Y033500D03*
X023500Y032500D03*
X023500Y031500D03*
X023500Y030500D03*
X023500Y029500D03*
X023500Y028500D03*
X023500Y027500D03*
X023500Y026500D03*
X023500Y025500D03*
X023500Y024500D03*
X023500Y023500D03*
X023500Y022500D03*
X023500Y021500D03*
X023500Y020500D03*
X023500Y019500D03*
X023500Y018500D03*
X023500Y017500D03*
X023500Y016500D03*
X023500Y015500D03*
X023500Y014500D03*
X023500Y013500D03*
X023500Y012500D03*
X023500Y011500D03*
X023500Y010500D03*
X025500Y010500D03*
X025500Y011500D03*
X025500Y012500D03*
X025500Y013500D03*
X013500Y013500D03*
X013500Y012500D03*
X013500Y011500D03*
X013500Y010500D03*
X011500Y010500D03*
X011500Y011500D03*
X011500Y012500D03*
X011500Y013500D03*
X011500Y014500D03*
X011500Y015500D03*
X011500Y016500D03*
X011500Y017500D03*
X011500Y018500D03*
X011500Y019500D03*
X011500Y020500D03*
X011500Y021500D03*
X011500Y022500D03*
X011500Y023500D03*
X011500Y024500D03*
X011500Y025500D03*
X011500Y026500D03*
X011500Y027500D03*
X011500Y028500D03*
X011500Y029500D03*
X011500Y030500D03*
X011500Y031500D03*
X011500Y032500D03*
X011500Y033500D03*
X011500Y034500D03*
X011500Y035500D03*
X011500Y036500D03*
X011500Y037500D03*
X011500Y038500D03*
X011500Y039500D03*
X011500Y040500D03*
X011500Y041500D03*
X013500Y041500D03*
X013500Y040500D03*
X013500Y039500D03*
X013500Y038500D03*
X013500Y037500D03*
X013500Y036500D03*
X013500Y035500D03*
X013500Y034500D03*
X013500Y033500D03*
X013500Y032500D03*
X013500Y031500D03*
X013500Y030500D03*
X013500Y029500D03*
X013500Y028500D03*
X013500Y027500D03*
X013500Y026500D03*
X013500Y025500D03*
X013500Y024500D03*
X013500Y023500D03*
X013500Y022500D03*
X013500Y021500D03*
X013500Y020500D03*
X013500Y019500D03*
X013500Y018500D03*
X013500Y017500D03*
X013500Y016500D03*
X013500Y015500D03*
X013500Y014500D03*
D12*
X031500Y016500D03*
X031500Y017500D03*
D13*
X029500Y017500D03*
X028000Y017500D03*
X026500Y017500D03*
X024500Y017500D03*
X022000Y017500D03*
X020000Y017500D03*
X018500Y017500D03*
X017000Y017500D03*
X015000Y017500D03*
X012500Y017500D03*
X010000Y017500D03*
X008000Y017500D03*
X006500Y017500D03*
X005000Y017500D03*
X009500Y029000D03*
X015500Y029500D03*
X018000Y029500D03*
X021500Y029500D03*
X028000Y029000D03*
X030500Y029000D03*
X033000Y029000D03*
X040000Y029500D03*
X046500Y029000D03*
X046500Y033000D03*
X047500Y035450D03*
X050500Y035950D03*
X052000Y037950D03*
X048000Y039450D03*
X047500Y042450D03*
X048500Y045950D03*
X051500Y045950D03*
X052000Y042450D03*
X043000Y045950D03*
X040000Y046450D03*
X039500Y044450D03*
X038000Y045950D03*
X035000Y046450D03*
X032500Y040950D03*
X028500Y041450D03*
X027500Y043450D03*
X023000Y045450D03*
X020500Y044450D03*
X019000Y041950D03*
X016000Y044450D03*
X015500Y042500D03*
X012000Y045950D03*
X014000Y046950D03*
X009500Y046950D03*
X007500Y045950D03*
X008000Y042950D03*
X004500Y044450D03*
X019000Y047450D03*
X040500Y041450D03*
X052500Y032950D03*
X052500Y028950D03*
X052500Y025950D03*
X049500Y025500D03*
X047000Y024500D03*
X048000Y023000D03*
X050000Y022000D03*
X052500Y022950D03*
X052500Y020450D03*
X049800Y018600D03*
X049800Y017150D03*
X048000Y017450D03*
X048000Y019000D03*
X047500Y020500D03*
X047000Y015450D03*
X041000Y020000D03*
X033500Y017500D03*
X031500Y009450D03*
X030500Y006950D03*
X029500Y005950D03*
X029500Y004950D03*
X031500Y004950D03*
X031500Y005950D03*
X019500Y005950D03*
X019500Y004950D03*
X017500Y004950D03*
X017500Y005950D03*
X018500Y006950D03*
X019500Y009450D03*
D14*
X001005Y012950D02*
X001005Y003950D01*
X052995Y003950D01*
X052995Y012865D01*
X052868Y012831D01*
X052586Y012831D01*
X052314Y012904D01*
X052149Y012999D01*
X047944Y012995D01*
X047786Y012904D01*
X047514Y012831D01*
X047232Y012831D01*
X046960Y012904D01*
X046804Y012994D01*
X045773Y012993D01*
X045817Y012975D01*
X045975Y012817D01*
X046060Y012611D01*
X046060Y012389D01*
X045975Y012183D01*
X045817Y012025D01*
X045611Y011940D01*
X045389Y011940D01*
X045183Y012025D01*
X045025Y012183D01*
X044940Y012389D01*
X044940Y012611D01*
X045025Y012817D01*
X045183Y012975D01*
X045226Y012993D01*
X043777Y012991D01*
X043817Y012975D01*
X043975Y012817D01*
X044060Y012611D01*
X044060Y012389D01*
X043975Y012183D01*
X043817Y012025D01*
X043611Y011940D01*
X043389Y011940D01*
X043183Y012025D01*
X043025Y012183D01*
X042940Y012389D01*
X042940Y012611D01*
X043025Y012817D01*
X043183Y012975D01*
X043221Y012991D01*
X037791Y012986D01*
X037817Y012975D01*
X037975Y012817D01*
X038060Y012611D01*
X038060Y012389D01*
X037975Y012183D01*
X037817Y012025D01*
X037611Y011940D01*
X037389Y011940D01*
X037183Y012025D01*
X037025Y012183D01*
X036940Y012389D01*
X036940Y012611D01*
X037025Y012817D01*
X037183Y012975D01*
X037207Y012985D01*
X036994Y012985D01*
X036704Y012695D01*
X036572Y012640D01*
X036048Y012640D01*
X036060Y012611D01*
X036060Y012389D01*
X035975Y012183D01*
X035817Y012025D01*
X035611Y011940D01*
X035389Y011940D01*
X035183Y012025D01*
X035025Y012183D01*
X034940Y012389D01*
X034940Y012611D01*
X034952Y012640D01*
X026048Y012640D01*
X026060Y012611D01*
X026060Y012389D01*
X025975Y012183D01*
X025817Y012025D01*
X025611Y011940D01*
X025389Y011940D01*
X025183Y012025D01*
X025025Y012183D01*
X024940Y012389D01*
X024940Y012611D01*
X024952Y012640D01*
X024928Y012640D01*
X024796Y012695D01*
X024518Y012973D01*
X023820Y012972D01*
X023975Y012817D01*
X024060Y012611D01*
X024060Y012389D01*
X023975Y012183D01*
X023817Y012025D01*
X023611Y011940D01*
X023389Y011940D01*
X023183Y012025D01*
X023025Y012183D01*
X022940Y012389D01*
X022940Y012611D01*
X023025Y012817D01*
X023180Y012972D01*
X013829Y012963D01*
X013975Y012817D01*
X014060Y012611D01*
X014060Y012389D01*
X013975Y012183D01*
X013817Y012025D01*
X013611Y011940D01*
X013389Y011940D01*
X013183Y012025D01*
X013025Y012183D01*
X012940Y012389D01*
X012940Y012611D01*
X013025Y012817D01*
X013170Y012962D01*
X012971Y012962D01*
X012704Y012695D01*
X012572Y012640D01*
X012428Y012640D01*
X012296Y012695D01*
X012195Y012796D01*
X012140Y012928D01*
X012140Y012961D01*
X011831Y012961D01*
X011975Y012817D01*
X012060Y012611D01*
X012060Y012389D01*
X011975Y012183D01*
X011817Y012025D01*
X011611Y011940D01*
X011389Y011940D01*
X011183Y012025D01*
X011025Y012183D01*
X010940Y012389D01*
X010940Y012611D01*
X011025Y012817D01*
X011168Y012960D01*
X001005Y012950D01*
X001005Y012863D02*
X011071Y012863D01*
X010979Y012705D02*
X001005Y012705D01*
X001005Y012546D02*
X010940Y012546D01*
X010940Y012388D02*
X001005Y012388D01*
X001005Y012229D02*
X011006Y012229D01*
X011138Y012071D02*
X001005Y012071D01*
X001005Y011912D02*
X048530Y011912D01*
X048530Y011779D02*
X048530Y012055D01*
X048635Y012310D01*
X048830Y012505D01*
X049085Y012611D01*
X049361Y012611D01*
X049616Y012505D01*
X049811Y012310D01*
X049917Y012055D01*
X049917Y011779D01*
X049811Y011525D01*
X049616Y011329D01*
X049361Y011224D01*
X049085Y011224D01*
X048830Y011329D01*
X048635Y011525D01*
X048530Y011779D01*
X048541Y011754D02*
X001005Y011754D01*
X001005Y011595D02*
X048606Y011595D01*
X048723Y011437D02*
X001005Y011437D01*
X001005Y011278D02*
X048955Y011278D01*
X049492Y011278D02*
X052995Y011278D01*
X052995Y011120D02*
X001005Y011120D01*
X001005Y010961D02*
X011169Y010961D01*
X011183Y010975D02*
X011025Y010817D01*
X010940Y010611D01*
X010940Y010389D01*
X011025Y010183D01*
X011183Y010025D01*
X011389Y009940D01*
X011611Y009940D01*
X011817Y010025D01*
X011975Y010183D01*
X012060Y010389D01*
X012060Y010611D01*
X011975Y010817D01*
X011817Y010975D01*
X011611Y011060D01*
X011389Y011060D01*
X011183Y010975D01*
X011019Y010803D02*
X001005Y010803D01*
X001005Y010644D02*
X010954Y010644D01*
X010940Y010486D02*
X001005Y010486D01*
X001005Y010327D02*
X010966Y010327D01*
X011040Y010169D02*
X001005Y010169D01*
X001005Y010010D02*
X011220Y010010D01*
X011780Y010010D02*
X013220Y010010D01*
X013183Y010025D02*
X013389Y009940D01*
X013611Y009940D01*
X013817Y010025D01*
X013975Y010183D01*
X014060Y010389D01*
X014060Y010611D01*
X013975Y010817D01*
X013817Y010975D01*
X013611Y011060D01*
X013389Y011060D01*
X013183Y010975D01*
X013025Y010817D01*
X012940Y010611D01*
X012940Y010389D01*
X013025Y010183D01*
X013183Y010025D01*
X013040Y010169D02*
X011960Y010169D01*
X012034Y010327D02*
X012966Y010327D01*
X012940Y010486D02*
X012060Y010486D01*
X012046Y010644D02*
X012954Y010644D01*
X013019Y010803D02*
X011981Y010803D01*
X011831Y010961D02*
X013169Y010961D01*
X013831Y010961D02*
X023169Y010961D01*
X023183Y010975D02*
X023025Y010817D01*
X022940Y010611D01*
X022940Y010389D01*
X023025Y010183D01*
X023183Y010025D01*
X023389Y009940D01*
X023611Y009940D01*
X023817Y010025D01*
X023975Y010183D01*
X024060Y010389D01*
X024060Y010611D01*
X023975Y010817D01*
X023817Y010975D01*
X023611Y011060D01*
X023389Y011060D01*
X023183Y010975D01*
X023019Y010803D02*
X013981Y010803D01*
X014046Y010644D02*
X022954Y010644D01*
X022940Y010486D02*
X014060Y010486D01*
X014034Y010327D02*
X022966Y010327D01*
X023040Y010169D02*
X013960Y010169D01*
X013780Y010010D02*
X023220Y010010D01*
X023780Y010010D02*
X025220Y010010D01*
X025183Y010025D02*
X025389Y009940D01*
X025611Y009940D01*
X025817Y010025D01*
X025975Y010183D01*
X026060Y010389D01*
X026060Y010611D01*
X025975Y010817D01*
X025817Y010975D01*
X025611Y011060D01*
X025389Y011060D01*
X025183Y010975D01*
X025025Y010817D01*
X024940Y010611D01*
X024940Y010389D01*
X025025Y010183D01*
X025183Y010025D01*
X025040Y010169D02*
X023960Y010169D01*
X024034Y010327D02*
X024966Y010327D01*
X024940Y010486D02*
X024060Y010486D01*
X024046Y010644D02*
X024954Y010644D01*
X025019Y010803D02*
X023981Y010803D01*
X023831Y010961D02*
X025169Y010961D01*
X025831Y010961D02*
X035169Y010961D01*
X035183Y010975D02*
X035025Y010817D01*
X034940Y010611D01*
X034940Y010389D01*
X035025Y010183D01*
X035183Y010025D01*
X035389Y009940D01*
X035611Y009940D01*
X035817Y010025D01*
X035975Y010183D01*
X036060Y010389D01*
X036060Y010611D01*
X035975Y010817D01*
X035817Y010975D01*
X035611Y011060D01*
X035389Y011060D01*
X035183Y010975D01*
X035019Y010803D02*
X025981Y010803D01*
X026046Y010644D02*
X034954Y010644D01*
X034940Y010486D02*
X026060Y010486D01*
X026034Y010327D02*
X034966Y010327D01*
X035040Y010169D02*
X025960Y010169D01*
X025780Y010010D02*
X035220Y010010D01*
X035780Y010010D02*
X037220Y010010D01*
X037183Y010025D02*
X037389Y009940D01*
X037611Y009940D01*
X037817Y010025D01*
X037975Y010183D01*
X038060Y010389D01*
X038060Y010611D01*
X037975Y010817D01*
X037817Y010975D01*
X037611Y011060D01*
X037389Y011060D01*
X037183Y010975D01*
X037025Y010817D01*
X036940Y010611D01*
X036940Y010389D01*
X037025Y010183D01*
X037183Y010025D01*
X037040Y010169D02*
X035960Y010169D01*
X036034Y010327D02*
X036966Y010327D01*
X036940Y010486D02*
X036060Y010486D01*
X036046Y010644D02*
X036954Y010644D01*
X037019Y010803D02*
X035981Y010803D01*
X035831Y010961D02*
X037169Y010961D01*
X037831Y010961D02*
X043169Y010961D01*
X043183Y010975D02*
X043025Y010817D01*
X042940Y010611D01*
X042940Y010389D01*
X043025Y010183D01*
X043183Y010025D01*
X043389Y009940D01*
X043611Y009940D01*
X043817Y010025D01*
X043975Y010183D01*
X044060Y010389D01*
X044060Y010611D01*
X043975Y010817D01*
X043817Y010975D01*
X043611Y011060D01*
X043389Y011060D01*
X043183Y010975D01*
X043019Y010803D02*
X037981Y010803D01*
X038046Y010644D02*
X042954Y010644D01*
X042940Y010486D02*
X038060Y010486D01*
X038034Y010327D02*
X042966Y010327D01*
X043040Y010169D02*
X037960Y010169D01*
X037780Y010010D02*
X043220Y010010D01*
X043780Y010010D02*
X045220Y010010D01*
X045183Y010025D02*
X045389Y009940D01*
X045611Y009940D01*
X045817Y010025D01*
X045975Y010183D01*
X046060Y010389D01*
X046060Y010611D01*
X045975Y010817D01*
X045817Y010975D01*
X045611Y011060D01*
X045389Y011060D01*
X045183Y010975D01*
X045025Y010817D01*
X044940Y010611D01*
X044940Y010389D01*
X045025Y010183D01*
X045183Y010025D01*
X045040Y010169D02*
X043960Y010169D01*
X044034Y010327D02*
X044966Y010327D01*
X044940Y010486D02*
X044060Y010486D01*
X044046Y010644D02*
X044954Y010644D01*
X045019Y010803D02*
X043981Y010803D01*
X043831Y010961D02*
X045169Y010961D01*
X045831Y010961D02*
X052995Y010961D01*
X052995Y010803D02*
X045981Y010803D01*
X046046Y010644D02*
X052995Y010644D01*
X052995Y010486D02*
X046060Y010486D01*
X046034Y010327D02*
X052995Y010327D01*
X052995Y010169D02*
X045960Y010169D01*
X045780Y010010D02*
X052995Y010010D01*
X052995Y009852D02*
X019802Y009852D01*
X019782Y009872D02*
X019599Y009948D01*
X019401Y009948D01*
X019218Y009872D01*
X019078Y009732D01*
X019002Y009549D01*
X019002Y009351D01*
X019078Y009168D01*
X019218Y009028D01*
X019401Y008952D01*
X019599Y008952D01*
X019782Y009028D01*
X019922Y009168D01*
X019998Y009351D01*
X019998Y009549D01*
X019922Y009732D01*
X019782Y009872D01*
X019938Y009693D02*
X052995Y009693D01*
X052995Y009535D02*
X019998Y009535D01*
X019998Y009376D02*
X052995Y009376D01*
X052995Y009218D02*
X045056Y009218D01*
X045018Y009240D02*
X045252Y009104D01*
X045444Y008912D01*
X045580Y008678D01*
X045650Y008416D01*
X045650Y008144D01*
X045580Y007882D01*
X045444Y007648D01*
X045252Y007456D01*
X045018Y007320D01*
X044756Y007250D01*
X044484Y007250D01*
X044222Y007320D01*
X043988Y007456D01*
X043796Y007648D01*
X043660Y007882D01*
X043590Y008144D01*
X043590Y008416D01*
X043660Y008678D01*
X043796Y008912D01*
X043988Y009104D01*
X044222Y009240D01*
X044484Y009310D01*
X044756Y009310D01*
X045018Y009240D01*
X045298Y009059D02*
X052995Y009059D01*
X052995Y008901D02*
X045451Y008901D01*
X045543Y008742D02*
X052995Y008742D01*
X052995Y008584D02*
X045605Y008584D01*
X045647Y008425D02*
X052995Y008425D01*
X052995Y008267D02*
X045650Y008267D01*
X045640Y008108D02*
X052995Y008108D01*
X052995Y007950D02*
X045598Y007950D01*
X045527Y007791D02*
X052995Y007791D01*
X052995Y007633D02*
X045429Y007633D01*
X045271Y007474D02*
X052995Y007474D01*
X052995Y007316D02*
X045000Y007316D01*
X044240Y007316D02*
X036760Y007316D01*
X036778Y007320D02*
X037012Y007456D01*
X037204Y007648D01*
X037340Y007882D01*
X037410Y008144D01*
X037410Y008416D01*
X037340Y008678D01*
X037204Y008912D01*
X037012Y009104D01*
X036778Y009240D01*
X036516Y009310D01*
X036244Y009310D01*
X035982Y009240D01*
X035748Y009104D01*
X035556Y008912D01*
X035420Y008678D01*
X035350Y008416D01*
X035350Y008144D01*
X035420Y007882D01*
X035556Y007648D01*
X035748Y007456D01*
X035982Y007320D01*
X036244Y007250D01*
X036516Y007250D01*
X036778Y007320D01*
X037031Y007474D02*
X043969Y007474D01*
X043811Y007633D02*
X037189Y007633D01*
X037287Y007791D02*
X043713Y007791D01*
X043642Y007950D02*
X037358Y007950D01*
X037400Y008108D02*
X043600Y008108D01*
X043590Y008267D02*
X037410Y008267D01*
X037407Y008425D02*
X043593Y008425D01*
X043635Y008584D02*
X037365Y008584D01*
X037303Y008742D02*
X043697Y008742D01*
X043789Y008901D02*
X037211Y008901D01*
X037058Y009059D02*
X043942Y009059D01*
X044184Y009218D02*
X036816Y009218D01*
X035944Y009218D02*
X025056Y009218D01*
X025018Y009240D02*
X024756Y009310D01*
X024484Y009310D01*
X024222Y009240D01*
X023988Y009104D01*
X023796Y008912D01*
X023660Y008678D01*
X023590Y008416D01*
X023590Y008144D01*
X023660Y007882D01*
X023796Y007648D01*
X023988Y007456D01*
X024222Y007320D01*
X024484Y007250D01*
X024756Y007250D01*
X025018Y007320D01*
X025252Y007456D01*
X025444Y007648D01*
X025580Y007882D01*
X025650Y008144D01*
X025650Y008416D01*
X025580Y008678D01*
X025444Y008912D01*
X025252Y009104D01*
X025018Y009240D01*
X025298Y009059D02*
X035702Y009059D01*
X035549Y008901D02*
X025451Y008901D01*
X025543Y008742D02*
X035457Y008742D01*
X035395Y008584D02*
X025605Y008584D01*
X025647Y008425D02*
X035353Y008425D01*
X035350Y008267D02*
X025650Y008267D01*
X025640Y008108D02*
X035360Y008108D01*
X035402Y007950D02*
X025598Y007950D01*
X025527Y007791D02*
X035473Y007791D01*
X035571Y007633D02*
X025429Y007633D01*
X025271Y007474D02*
X035729Y007474D01*
X036000Y007316D02*
X030838Y007316D01*
X030782Y007372D02*
X030599Y007448D01*
X030401Y007448D01*
X030218Y007372D01*
X030078Y007232D01*
X030002Y007049D01*
X030002Y006851D01*
X030078Y006668D01*
X030218Y006528D01*
X030401Y006452D01*
X030599Y006452D01*
X030782Y006528D01*
X030922Y006668D01*
X030998Y006851D01*
X030998Y007049D01*
X030922Y007232D01*
X030782Y007372D01*
X030953Y007157D02*
X052995Y007157D01*
X052995Y006999D02*
X030998Y006999D01*
X030993Y006840D02*
X052995Y006840D01*
X052995Y006682D02*
X030928Y006682D01*
X030770Y006523D02*
X052995Y006523D01*
X052995Y006365D02*
X031789Y006365D01*
X031782Y006372D02*
X031599Y006448D01*
X031401Y006448D01*
X031218Y006372D01*
X031078Y006232D01*
X031002Y006049D01*
X031002Y005851D01*
X031078Y005668D01*
X031218Y005528D01*
X031401Y005452D01*
X031599Y005452D01*
X031782Y005528D01*
X031922Y005668D01*
X031998Y005851D01*
X031998Y006049D01*
X031922Y006232D01*
X031782Y006372D01*
X031933Y006206D02*
X052995Y006206D01*
X052995Y006048D02*
X031998Y006048D01*
X031998Y005889D02*
X052995Y005889D01*
X052995Y005731D02*
X031948Y005731D01*
X031826Y005572D02*
X052995Y005572D01*
X052995Y005414D02*
X031682Y005414D01*
X031599Y005448D02*
X031782Y005372D01*
X031922Y005232D01*
X031998Y005049D01*
X031998Y004851D01*
X031922Y004668D01*
X031782Y004528D01*
X031599Y004452D01*
X031401Y004452D01*
X031218Y004528D01*
X031078Y004668D01*
X031002Y004851D01*
X031002Y005049D01*
X031078Y005232D01*
X031218Y005372D01*
X031401Y005448D01*
X031599Y005448D01*
X031318Y005414D02*
X029682Y005414D01*
X029599Y005448D02*
X029401Y005448D01*
X029218Y005372D01*
X029078Y005232D01*
X029002Y005049D01*
X029002Y004851D01*
X029078Y004668D01*
X029218Y004528D01*
X029401Y004452D01*
X029599Y004452D01*
X029782Y004528D01*
X029922Y004668D01*
X029998Y004851D01*
X029998Y005049D01*
X029922Y005232D01*
X029782Y005372D01*
X029599Y005448D01*
X029599Y005452D02*
X029782Y005528D01*
X029922Y005668D01*
X029998Y005851D01*
X029998Y006049D01*
X029922Y006232D01*
X029782Y006372D01*
X029599Y006448D01*
X029401Y006448D01*
X029218Y006372D01*
X029078Y006232D01*
X029002Y006049D01*
X029002Y005851D01*
X029078Y005668D01*
X029218Y005528D01*
X029401Y005452D01*
X029599Y005452D01*
X029826Y005572D02*
X031174Y005572D01*
X031052Y005731D02*
X029948Y005731D01*
X029998Y005889D02*
X031002Y005889D01*
X031002Y006048D02*
X029998Y006048D01*
X029933Y006206D02*
X031067Y006206D01*
X031211Y006365D02*
X029789Y006365D01*
X030072Y006682D02*
X018928Y006682D01*
X018922Y006668D02*
X018998Y006851D01*
X018998Y007049D01*
X018922Y007232D01*
X018782Y007372D01*
X018599Y007448D01*
X018401Y007448D01*
X018218Y007372D01*
X018078Y007232D01*
X018002Y007049D01*
X018002Y006851D01*
X018078Y006668D01*
X018218Y006528D01*
X018401Y006452D01*
X018599Y006452D01*
X018782Y006528D01*
X018922Y006668D01*
X018993Y006840D02*
X030007Y006840D01*
X030002Y006999D02*
X018998Y006999D01*
X018953Y007157D02*
X030047Y007157D01*
X030162Y007316D02*
X025000Y007316D01*
X024240Y007316D02*
X018838Y007316D01*
X018162Y007316D02*
X012760Y007316D01*
X012778Y007320D02*
X013012Y007456D01*
X013204Y007648D01*
X013340Y007882D01*
X013410Y008144D01*
X013410Y008416D01*
X013340Y008678D01*
X013204Y008912D01*
X013012Y009104D01*
X012778Y009240D01*
X012516Y009310D01*
X012244Y009310D01*
X011982Y009240D01*
X011748Y009104D01*
X011556Y008912D01*
X011420Y008678D01*
X011350Y008416D01*
X011350Y008144D01*
X011420Y007882D01*
X011556Y007648D01*
X011748Y007456D01*
X011982Y007320D01*
X012244Y007250D01*
X012516Y007250D01*
X012778Y007320D01*
X013031Y007474D02*
X023969Y007474D01*
X023811Y007633D02*
X013189Y007633D01*
X013287Y007791D02*
X023713Y007791D01*
X023642Y007950D02*
X013358Y007950D01*
X013400Y008108D02*
X023600Y008108D01*
X023590Y008267D02*
X013410Y008267D01*
X013407Y008425D02*
X023593Y008425D01*
X023635Y008584D02*
X013365Y008584D01*
X013303Y008742D02*
X023697Y008742D01*
X023789Y008901D02*
X013211Y008901D01*
X013058Y009059D02*
X019187Y009059D01*
X019057Y009218D02*
X012816Y009218D01*
X011944Y009218D02*
X001005Y009218D01*
X001005Y009376D02*
X019002Y009376D01*
X019002Y009535D02*
X001005Y009535D01*
X001005Y009693D02*
X019062Y009693D01*
X019198Y009852D02*
X001005Y009852D01*
X001005Y009059D02*
X011702Y009059D01*
X011549Y008901D02*
X001005Y008901D01*
X001005Y008742D02*
X011457Y008742D01*
X011395Y008584D02*
X001005Y008584D01*
X001005Y008425D02*
X011353Y008425D01*
X011350Y008267D02*
X001005Y008267D01*
X001005Y008108D02*
X011360Y008108D01*
X011402Y007950D02*
X001005Y007950D01*
X001005Y007791D02*
X011473Y007791D01*
X011571Y007633D02*
X001005Y007633D01*
X001005Y007474D02*
X011729Y007474D01*
X012000Y007316D02*
X001005Y007316D01*
X001005Y007157D02*
X018047Y007157D01*
X018002Y006999D02*
X001005Y006999D01*
X001005Y006840D02*
X018007Y006840D01*
X018072Y006682D02*
X001005Y006682D01*
X001005Y006523D02*
X018230Y006523D01*
X017922Y006232D02*
X017782Y006372D01*
X017599Y006448D01*
X017401Y006448D01*
X017218Y006372D01*
X017078Y006232D01*
X017002Y006049D01*
X017002Y005851D01*
X017078Y005668D01*
X017218Y005528D01*
X017401Y005452D01*
X017599Y005452D01*
X017782Y005528D01*
X017922Y005668D01*
X017998Y005851D01*
X017998Y006049D01*
X017922Y006232D01*
X017933Y006206D02*
X019067Y006206D01*
X019078Y006232D02*
X019002Y006049D01*
X019002Y005851D01*
X019078Y005668D01*
X019218Y005528D01*
X019401Y005452D01*
X019599Y005452D01*
X019782Y005528D01*
X019922Y005668D01*
X019998Y005851D01*
X019998Y006049D01*
X019922Y006232D01*
X019782Y006372D01*
X019599Y006448D01*
X019401Y006448D01*
X019218Y006372D01*
X019078Y006232D01*
X019211Y006365D02*
X017789Y006365D01*
X017998Y006048D02*
X019002Y006048D01*
X019002Y005889D02*
X017998Y005889D01*
X017948Y005731D02*
X019052Y005731D01*
X019174Y005572D02*
X017826Y005572D01*
X017782Y005372D02*
X017599Y005448D01*
X017401Y005448D01*
X017218Y005372D01*
X017078Y005232D01*
X017002Y005049D01*
X017002Y004851D01*
X017078Y004668D01*
X017218Y004528D01*
X017401Y004452D01*
X017599Y004452D01*
X017782Y004528D01*
X017922Y004668D01*
X017998Y004851D01*
X017998Y005049D01*
X017922Y005232D01*
X017782Y005372D01*
X017682Y005414D02*
X019318Y005414D01*
X019401Y005448D02*
X019218Y005372D01*
X019078Y005232D01*
X019002Y005049D01*
X019002Y004851D01*
X019078Y004668D01*
X019218Y004528D01*
X019401Y004452D01*
X019599Y004452D01*
X019782Y004528D01*
X019922Y004668D01*
X019998Y004851D01*
X019998Y005049D01*
X019922Y005232D01*
X019782Y005372D01*
X019599Y005448D01*
X019401Y005448D01*
X019682Y005414D02*
X029318Y005414D01*
X029174Y005572D02*
X019826Y005572D01*
X019948Y005731D02*
X029052Y005731D01*
X029002Y005889D02*
X019998Y005889D01*
X019998Y006048D02*
X029002Y006048D01*
X029067Y006206D02*
X019933Y006206D01*
X019789Y006365D02*
X029211Y006365D01*
X030230Y006523D02*
X018770Y006523D01*
X019101Y005255D02*
X017899Y005255D01*
X017978Y005097D02*
X019022Y005097D01*
X019002Y004938D02*
X017998Y004938D01*
X017968Y004780D02*
X019032Y004780D01*
X019125Y004621D02*
X017875Y004621D01*
X017624Y004463D02*
X019376Y004463D01*
X019624Y004463D02*
X029376Y004463D01*
X029624Y004463D02*
X031376Y004463D01*
X031624Y004463D02*
X052995Y004463D01*
X052995Y004621D02*
X031875Y004621D01*
X031968Y004780D02*
X052995Y004780D01*
X052995Y004938D02*
X031998Y004938D01*
X031978Y005097D02*
X052995Y005097D01*
X052995Y005255D02*
X031899Y005255D01*
X031101Y005255D02*
X029899Y005255D01*
X029978Y005097D02*
X031022Y005097D01*
X031002Y004938D02*
X029998Y004938D01*
X029968Y004780D02*
X031032Y004780D01*
X031125Y004621D02*
X029875Y004621D01*
X029125Y004621D02*
X019875Y004621D01*
X019968Y004780D02*
X029032Y004780D01*
X029002Y004938D02*
X019998Y004938D01*
X019978Y005097D02*
X029022Y005097D01*
X029101Y005255D02*
X019899Y005255D01*
X017318Y005414D02*
X001005Y005414D01*
X001005Y005572D02*
X017174Y005572D01*
X017052Y005731D02*
X001005Y005731D01*
X001005Y005889D02*
X017002Y005889D01*
X017002Y006048D02*
X001005Y006048D01*
X001005Y006206D02*
X017067Y006206D01*
X017211Y006365D02*
X001005Y006365D01*
X001005Y005255D02*
X017101Y005255D01*
X017022Y005097D02*
X001005Y005097D01*
X001005Y004938D02*
X017002Y004938D01*
X017032Y004780D02*
X001005Y004780D01*
X001005Y004621D02*
X017125Y004621D01*
X017376Y004463D02*
X001005Y004463D01*
X001005Y004304D02*
X052995Y004304D01*
X052995Y004146D02*
X001005Y004146D01*
X001005Y003987D02*
X052995Y003987D01*
X052995Y011437D02*
X049723Y011437D01*
X049840Y011595D02*
X052995Y011595D01*
X052995Y011754D02*
X049906Y011754D01*
X049917Y011912D02*
X052995Y011912D01*
X052995Y012071D02*
X049910Y012071D01*
X049845Y012229D02*
X052995Y012229D01*
X052995Y012388D02*
X049734Y012388D01*
X049517Y012546D02*
X052995Y012546D01*
X052995Y012705D02*
X046021Y012705D01*
X046060Y012546D02*
X048929Y012546D01*
X048713Y012388D02*
X046060Y012388D01*
X045994Y012229D02*
X048602Y012229D01*
X048536Y012071D02*
X045862Y012071D01*
X045138Y012071D02*
X043862Y012071D01*
X043994Y012229D02*
X045006Y012229D01*
X044940Y012388D02*
X044060Y012388D01*
X044060Y012546D02*
X044940Y012546D01*
X044979Y012705D02*
X044021Y012705D01*
X043929Y012863D02*
X045071Y012863D01*
X045929Y012863D02*
X047112Y012863D01*
X047633Y012863D02*
X052467Y012863D01*
X052988Y012863D02*
X052995Y012863D01*
X051804Y013359D02*
X051730Y013488D01*
X051657Y013761D01*
X051657Y014043D01*
X051730Y014315D01*
X051871Y014559D01*
X052070Y014758D01*
X052314Y014899D01*
X052586Y014972D01*
X052868Y014972D01*
X052995Y014938D01*
X052995Y047950D01*
X001005Y047950D01*
X001005Y013310D01*
X011033Y013320D01*
X011000Y013401D01*
X011000Y013599D01*
X011076Y013783D01*
X011217Y013924D01*
X011401Y014000D01*
X011599Y014000D01*
X011783Y013924D01*
X011907Y013800D01*
X012276Y013800D01*
X012246Y013830D01*
X012200Y013940D01*
X012200Y014060D01*
X012246Y014170D01*
X012276Y014200D01*
X011907Y014200D01*
X011783Y014076D01*
X011599Y014000D01*
X011401Y014000D01*
X011217Y014076D01*
X011076Y014217D01*
X011000Y014401D01*
X011000Y014599D01*
X011076Y014783D01*
X011217Y014924D01*
X011401Y015000D01*
X011599Y015000D01*
X011783Y014924D01*
X011907Y014800D01*
X012276Y014800D01*
X012246Y014830D01*
X012200Y014940D01*
X012200Y015060D01*
X012246Y015170D01*
X012276Y015200D01*
X011907Y015200D01*
X011783Y015076D01*
X011599Y015000D01*
X011401Y015000D01*
X011217Y015076D01*
X011076Y015217D01*
X011000Y015401D01*
X011000Y015599D01*
X011076Y015783D01*
X011217Y015924D01*
X011401Y016000D01*
X011599Y016000D01*
X011783Y015924D01*
X011907Y015800D01*
X012376Y015800D01*
X012746Y016170D01*
X012776Y016200D01*
X011907Y016200D01*
X011783Y016076D01*
X011599Y016000D01*
X011401Y016000D01*
X011217Y016076D01*
X011076Y016217D01*
X011000Y016401D01*
X011000Y016599D01*
X011076Y016783D01*
X011217Y016924D01*
X011401Y017000D01*
X011599Y017000D01*
X011783Y016924D01*
X011907Y016800D01*
X013093Y016800D01*
X013217Y016924D01*
X013401Y017000D01*
X013599Y017000D01*
X013783Y016924D01*
X013907Y016800D01*
X023093Y016800D01*
X023217Y016924D01*
X023401Y017000D01*
X023599Y017000D01*
X023783Y016924D01*
X023907Y016800D01*
X025093Y016800D01*
X025217Y016924D01*
X025401Y017000D01*
X025599Y017000D01*
X025783Y016924D01*
X025907Y016800D01*
X031065Y016800D01*
X031205Y016941D01*
X031397Y017020D01*
X031603Y017020D01*
X031795Y016941D01*
X031935Y016800D01*
X035093Y016800D01*
X035217Y016924D01*
X035401Y017000D01*
X035599Y017000D01*
X035783Y016924D01*
X035907Y016800D01*
X037093Y016800D01*
X037217Y016924D01*
X037401Y017000D01*
X037599Y017000D01*
X037783Y016924D01*
X037924Y016783D01*
X038000Y016599D01*
X038000Y016401D01*
X037958Y016300D01*
X043042Y016300D01*
X043000Y016401D01*
X043000Y016599D01*
X043076Y016783D01*
X043217Y016924D01*
X043401Y017000D01*
X043599Y017000D01*
X043783Y016924D01*
X043924Y016783D01*
X044000Y016599D01*
X044000Y016401D01*
X043958Y016300D01*
X044560Y016300D01*
X044670Y016254D01*
X044754Y016170D01*
X045109Y015816D01*
X045217Y015924D01*
X045401Y016000D01*
X045599Y016000D01*
X045783Y016076D01*
X045924Y016217D01*
X046000Y016401D01*
X046000Y016599D01*
X045924Y016783D01*
X045783Y016924D01*
X045599Y017000D01*
X045401Y017000D01*
X045217Y016924D01*
X045076Y016783D01*
X045000Y016599D01*
X045000Y016401D01*
X045076Y016217D01*
X045217Y016076D01*
X045401Y016000D01*
X045599Y016000D01*
X045783Y015924D01*
X045924Y015783D01*
X046000Y015599D01*
X046000Y015401D01*
X045924Y015217D01*
X045783Y015076D01*
X045599Y015000D01*
X045401Y015000D01*
X045217Y015076D01*
X045093Y015200D01*
X044940Y015200D01*
X044830Y015246D01*
X044376Y015700D01*
X043958Y015700D01*
X044000Y015599D01*
X044000Y015401D01*
X043958Y015300D01*
X044560Y015300D01*
X044670Y015254D01*
X044754Y015170D01*
X044754Y015170D01*
X045109Y014816D01*
X045217Y014924D01*
X045401Y015000D01*
X045599Y015000D01*
X045783Y014924D01*
X045924Y014783D01*
X046000Y014599D01*
X046000Y014401D01*
X045924Y014217D01*
X045783Y014076D01*
X045599Y014000D01*
X045401Y014000D01*
X045217Y014076D01*
X045093Y014200D01*
X044940Y014200D01*
X044830Y014246D01*
X044746Y014330D01*
X044746Y014330D01*
X044376Y014700D01*
X043958Y014700D01*
X044000Y014599D01*
X044000Y014401D01*
X043958Y014300D01*
X044560Y014300D01*
X044670Y014254D01*
X045109Y013816D01*
X045217Y013924D01*
X045401Y014000D01*
X045599Y014000D01*
X045783Y013924D01*
X045924Y013783D01*
X046000Y013599D01*
X046000Y013401D01*
X045980Y013353D01*
X046453Y013354D01*
X046375Y013488D01*
X046302Y013761D01*
X046302Y014043D01*
X046375Y014315D01*
X046516Y014559D01*
X046716Y014758D01*
X046960Y014899D01*
X047232Y014972D01*
X047514Y014972D01*
X047786Y014899D01*
X048030Y014758D01*
X048229Y014559D01*
X048370Y014315D01*
X048443Y014043D01*
X048443Y013761D01*
X048370Y013488D01*
X048294Y013356D01*
X051804Y013359D01*
X051727Y013497D02*
X048373Y013497D01*
X048415Y013656D02*
X051685Y013656D01*
X051657Y013814D02*
X048443Y013814D01*
X048443Y013973D02*
X051657Y013973D01*
X051680Y014131D02*
X048420Y014131D01*
X048377Y014290D02*
X051723Y014290D01*
X051806Y014448D02*
X048294Y014448D01*
X048182Y014607D02*
X051918Y014607D01*
X052082Y014765D02*
X048018Y014765D01*
X047695Y014924D02*
X052405Y014924D01*
X052995Y015082D02*
X045789Y015082D01*
X045784Y014924D02*
X047051Y014924D01*
X046727Y014765D02*
X045931Y014765D01*
X045997Y014607D02*
X046564Y014607D01*
X046452Y014448D02*
X046000Y014448D01*
X045954Y014290D02*
X046368Y014290D01*
X046326Y014131D02*
X045838Y014131D01*
X045666Y013973D02*
X046302Y013973D01*
X046302Y013814D02*
X045893Y013814D01*
X045977Y013656D02*
X046330Y013656D01*
X046373Y013497D02*
X046000Y013497D01*
X045500Y013500D02*
X045000Y013500D01*
X044500Y014000D01*
X037000Y014000D01*
X036500Y013500D01*
X035500Y013500D01*
X035500Y013450D01*
X025500Y013500D01*
X025000Y013500D01*
X024500Y014000D01*
X013000Y014000D01*
X012500Y013500D01*
X011500Y013500D01*
X011000Y013497D02*
X001005Y013497D01*
X001005Y013339D02*
X011026Y013339D01*
X011023Y013656D02*
X001005Y013656D01*
X001005Y013814D02*
X011107Y013814D01*
X011334Y013973D02*
X001005Y013973D01*
X001005Y014131D02*
X011162Y014131D01*
X011046Y014290D02*
X001005Y014290D01*
X001005Y014448D02*
X011000Y014448D01*
X011003Y014607D02*
X001005Y014607D01*
X001005Y014765D02*
X011069Y014765D01*
X011216Y014924D02*
X001005Y014924D01*
X001005Y015082D02*
X011211Y015082D01*
X011066Y015241D02*
X001005Y015241D01*
X001005Y015399D02*
X011001Y015399D01*
X011000Y015558D02*
X001005Y015558D01*
X001005Y015716D02*
X011048Y015716D01*
X011167Y015875D02*
X001005Y015875D01*
X001005Y016033D02*
X011321Y016033D01*
X011101Y016192D02*
X001005Y016192D01*
X001005Y016350D02*
X011021Y016350D01*
X011000Y016509D02*
X001005Y016509D01*
X001005Y016667D02*
X011028Y016667D01*
X011118Y016826D02*
X001005Y016826D01*
X001005Y016984D02*
X011362Y016984D01*
X011638Y016984D02*
X013362Y016984D01*
X013638Y016984D02*
X023362Y016984D01*
X023638Y016984D02*
X025362Y016984D01*
X025638Y016984D02*
X031310Y016984D01*
X031090Y016826D02*
X025882Y016826D01*
X025500Y016500D02*
X023500Y016500D01*
X013500Y016500D01*
X011500Y016500D01*
X011679Y016033D02*
X012609Y016033D01*
X012767Y016192D02*
X011899Y016192D01*
X011833Y015875D02*
X012450Y015875D01*
X012500Y015500D02*
X013000Y016000D01*
X024500Y016000D01*
X025000Y015500D01*
X025500Y015500D01*
X035500Y015500D01*
X036000Y015500D01*
X036500Y016000D01*
X044500Y016000D01*
X045000Y015500D01*
X045500Y015500D01*
X045952Y015716D02*
X052995Y015716D01*
X052995Y015558D02*
X046000Y015558D01*
X045999Y015399D02*
X052995Y015399D01*
X052995Y015241D02*
X045934Y015241D01*
X045833Y015875D02*
X052995Y015875D01*
X052995Y016033D02*
X045679Y016033D01*
X045899Y016192D02*
X052995Y016192D01*
X052995Y016350D02*
X045979Y016350D01*
X046000Y016509D02*
X052995Y016509D01*
X052995Y016667D02*
X045972Y016667D01*
X045882Y016826D02*
X052995Y016826D01*
X052995Y016984D02*
X045638Y016984D01*
X045362Y016984D02*
X043638Y016984D01*
X043362Y016984D02*
X037638Y016984D01*
X037362Y016984D02*
X035638Y016984D01*
X035362Y016984D02*
X031690Y016984D01*
X031910Y016826D02*
X035118Y016826D01*
X035500Y016500D02*
X031500Y016500D01*
X025500Y016500D01*
X025118Y016826D02*
X023882Y016826D01*
X023118Y016826D02*
X013882Y016826D01*
X013118Y016826D02*
X011882Y016826D01*
X011599Y018000D02*
X011783Y018076D01*
X011924Y018217D01*
X012000Y018401D01*
X012000Y018599D01*
X011924Y018783D01*
X011783Y018924D01*
X011599Y019000D01*
X011783Y019076D01*
X011907Y019200D01*
X012276Y019200D01*
X012246Y019170D01*
X012200Y019060D01*
X012200Y018940D01*
X012246Y018830D01*
X012330Y018746D01*
X012440Y018700D01*
X012560Y018700D01*
X012670Y018746D01*
X013109Y019184D01*
X013217Y019076D01*
X013401Y019000D01*
X013599Y019000D01*
X013783Y019076D01*
X013907Y019200D01*
X023093Y019200D01*
X023217Y019076D01*
X023401Y019000D01*
X023599Y019000D01*
X023783Y019076D01*
X023907Y019200D01*
X024376Y019200D01*
X024746Y018830D01*
X024830Y018746D01*
X024940Y018700D01*
X025042Y018700D01*
X025000Y018599D01*
X025000Y018401D01*
X025076Y018217D01*
X025217Y018076D01*
X025401Y018000D01*
X025599Y018000D01*
X025783Y018076D01*
X025924Y018217D01*
X026000Y018401D01*
X026000Y018599D01*
X025958Y018700D01*
X035042Y018700D01*
X035000Y018599D01*
X035000Y018401D01*
X035076Y018217D01*
X035217Y018076D01*
X035401Y018000D01*
X035599Y018000D01*
X035783Y018076D01*
X035924Y018217D01*
X036000Y018401D01*
X036000Y018599D01*
X035958Y018700D01*
X036560Y018700D01*
X036670Y018746D01*
X036754Y018830D01*
X036754Y018830D01*
X037109Y019184D01*
X037217Y019076D01*
X037401Y019000D01*
X037217Y018924D01*
X037076Y018783D01*
X037000Y018599D01*
X037000Y018401D01*
X037076Y018217D01*
X037217Y018076D01*
X037401Y018000D01*
X037599Y018000D01*
X037783Y018076D01*
X037924Y018217D01*
X038000Y018401D01*
X038000Y018599D01*
X037924Y018783D01*
X037783Y018924D01*
X037599Y019000D01*
X037401Y019000D01*
X037599Y019000D01*
X037783Y019076D01*
X037924Y019217D01*
X038000Y019401D01*
X038000Y019599D01*
X037924Y019783D01*
X037783Y019924D01*
X037599Y020000D01*
X037783Y020076D01*
X037924Y020217D01*
X038000Y020401D01*
X038000Y020599D01*
X037924Y020783D01*
X037783Y020924D01*
X037599Y021000D01*
X037783Y021076D01*
X037924Y021217D01*
X038000Y021401D01*
X038000Y021599D01*
X037924Y021783D01*
X037783Y021924D01*
X037599Y022000D01*
X037783Y022076D01*
X037924Y022217D01*
X038000Y022401D01*
X038000Y022599D01*
X037924Y022783D01*
X037783Y022924D01*
X037599Y023000D01*
X037783Y023076D01*
X037924Y023217D01*
X038000Y023401D01*
X038000Y023599D01*
X037924Y023783D01*
X037783Y023924D01*
X037599Y024000D01*
X037783Y024076D01*
X037924Y024217D01*
X038000Y024401D01*
X038000Y024599D01*
X037924Y024783D01*
X037783Y024924D01*
X037599Y025000D01*
X037783Y025076D01*
X037924Y025217D01*
X038000Y025401D01*
X038000Y025599D01*
X037924Y025783D01*
X037783Y025924D01*
X037599Y026000D01*
X037783Y026076D01*
X037924Y026217D01*
X038000Y026401D01*
X038000Y026599D01*
X037924Y026783D01*
X037783Y026924D01*
X037599Y027000D01*
X037783Y027076D01*
X037924Y027217D01*
X038000Y027401D01*
X038000Y027599D01*
X037924Y027783D01*
X037783Y027924D01*
X037599Y028000D01*
X037401Y028000D01*
X037217Y027924D01*
X037076Y027783D01*
X037000Y027599D01*
X037000Y027401D01*
X037076Y027217D01*
X037217Y027076D01*
X037401Y027000D01*
X037599Y027000D01*
X037401Y027000D01*
X037217Y026924D01*
X037093Y026800D01*
X036940Y026800D01*
X036830Y026754D01*
X036746Y026670D01*
X036376Y026300D01*
X035958Y026300D01*
X036000Y026401D01*
X036000Y026599D01*
X035924Y026783D01*
X035783Y026924D01*
X035599Y027000D01*
X035401Y027000D01*
X035217Y026924D01*
X035093Y026800D01*
X025907Y026800D01*
X025783Y026924D01*
X025599Y027000D01*
X025401Y027000D01*
X025217Y026924D01*
X025109Y026816D01*
X024754Y027170D01*
X024670Y027254D01*
X024560Y027300D01*
X023958Y027300D01*
X024000Y027401D01*
X024000Y027599D01*
X023924Y027783D01*
X023783Y027924D01*
X023599Y028000D01*
X023401Y028000D01*
X023217Y027924D01*
X023076Y027783D01*
X023000Y027599D01*
X023000Y027401D01*
X023042Y027300D01*
X013958Y027300D01*
X014000Y027401D01*
X014000Y027599D01*
X013924Y027783D01*
X013783Y027924D01*
X013599Y028000D01*
X013401Y028000D01*
X013217Y027924D01*
X013076Y027783D01*
X013000Y027599D01*
X013000Y027401D01*
X013042Y027300D01*
X012940Y027300D01*
X012830Y027254D01*
X012746Y027170D01*
X012376Y026800D01*
X011907Y026800D01*
X011783Y026924D01*
X011599Y027000D01*
X011401Y027000D01*
X011217Y026924D01*
X011076Y026783D01*
X011000Y026599D01*
X011000Y026401D01*
X011076Y026217D01*
X011217Y026076D01*
X011401Y026000D01*
X011217Y025924D01*
X011076Y025783D01*
X011000Y025599D01*
X011000Y025401D01*
X011076Y025217D01*
X011217Y025076D01*
X011401Y025000D01*
X011217Y024924D01*
X011076Y024783D01*
X011000Y024599D01*
X011000Y024401D01*
X011076Y024217D01*
X011217Y024076D01*
X011401Y024000D01*
X011217Y023924D01*
X011076Y023783D01*
X011000Y023599D01*
X011000Y023401D01*
X011076Y023217D01*
X011217Y023076D01*
X011401Y023000D01*
X011217Y022924D01*
X011076Y022783D01*
X011000Y022599D01*
X011000Y022401D01*
X011076Y022217D01*
X011217Y022076D01*
X011401Y022000D01*
X011217Y021924D01*
X011076Y021783D01*
X011000Y021599D01*
X011000Y021401D01*
X011076Y021217D01*
X011217Y021076D01*
X011401Y021000D01*
X011217Y020924D01*
X011076Y020783D01*
X011000Y020599D01*
X011000Y020401D01*
X011076Y020217D01*
X011217Y020076D01*
X011401Y020000D01*
X011217Y019924D01*
X011076Y019783D01*
X011000Y019599D01*
X011000Y019401D01*
X011076Y019217D01*
X011217Y019076D01*
X011401Y019000D01*
X011599Y019000D01*
X011401Y019000D01*
X011217Y018924D01*
X011076Y018783D01*
X011000Y018599D01*
X011000Y018401D01*
X011076Y018217D01*
X011217Y018076D01*
X011401Y018000D01*
X011599Y018000D01*
X011801Y018094D02*
X013199Y018094D01*
X013217Y018076D02*
X013401Y018000D01*
X013599Y018000D01*
X013783Y018076D01*
X013924Y018217D01*
X014000Y018401D01*
X014000Y018599D01*
X013924Y018783D01*
X013783Y018924D01*
X013599Y019000D01*
X013401Y019000D01*
X013217Y018924D01*
X013076Y018783D01*
X013000Y018599D01*
X013000Y018401D01*
X013076Y018217D01*
X013217Y018076D01*
X013062Y018252D02*
X011938Y018252D01*
X012000Y018411D02*
X013000Y018411D01*
X013000Y018569D02*
X012000Y018569D01*
X011947Y018728D02*
X012374Y018728D01*
X012222Y018886D02*
X011821Y018886D01*
X011707Y019045D02*
X012200Y019045D01*
X012500Y019000D02*
X013000Y019500D01*
X013500Y019500D01*
X023500Y019500D01*
X024500Y019500D01*
X025000Y019000D01*
X036500Y019000D01*
X037000Y019500D01*
X037500Y019500D01*
X037967Y019679D02*
X040702Y019679D01*
X040752Y019629D02*
X040629Y019752D01*
X040562Y019913D01*
X040562Y020087D01*
X040629Y020248D01*
X040752Y020371D01*
X040913Y020438D01*
X041087Y020438D01*
X041248Y020371D01*
X041371Y020248D01*
X041438Y020087D01*
X041438Y019913D01*
X041371Y019752D01*
X041248Y019629D01*
X041087Y019562D01*
X040913Y019562D01*
X040752Y019629D01*
X040594Y019837D02*
X037870Y019837D01*
X037610Y019996D02*
X040562Y019996D01*
X040590Y020154D02*
X037861Y020154D01*
X037964Y020313D02*
X040693Y020313D01*
X041307Y020313D02*
X043036Y020313D01*
X043000Y020401D02*
X043076Y020217D01*
X043217Y020076D01*
X043401Y020000D01*
X043217Y019924D01*
X043076Y019783D01*
X043000Y019599D01*
X043000Y019401D01*
X043076Y019217D01*
X043217Y019076D01*
X043401Y019000D01*
X043217Y018924D01*
X043076Y018783D01*
X043000Y018599D01*
X043000Y018401D01*
X043076Y018217D01*
X043217Y018076D01*
X043401Y018000D01*
X043599Y018000D01*
X043783Y018076D01*
X043924Y018217D01*
X044000Y018401D01*
X044000Y018599D01*
X043924Y018783D01*
X043783Y018924D01*
X043599Y019000D01*
X043401Y019000D01*
X043599Y019000D01*
X043783Y019076D01*
X043924Y019217D01*
X044000Y019401D01*
X044000Y019599D01*
X043924Y019783D01*
X043783Y019924D01*
X043599Y020000D01*
X043401Y020000D01*
X043599Y020000D01*
X043783Y020076D01*
X043924Y020217D01*
X044000Y020401D01*
X044000Y020599D01*
X043924Y020783D01*
X043783Y020924D01*
X043599Y021000D01*
X043401Y021000D01*
X043217Y020924D01*
X043076Y020783D01*
X043000Y020599D01*
X043000Y020401D01*
X043000Y020471D02*
X038000Y020471D01*
X037988Y020630D02*
X043012Y020630D01*
X043081Y020788D02*
X037919Y020788D01*
X037729Y020947D02*
X043271Y020947D01*
X043401Y021000D02*
X043599Y021000D01*
X043783Y021076D01*
X043924Y021217D01*
X044000Y021401D01*
X044000Y021599D01*
X043924Y021783D01*
X043783Y021924D01*
X043599Y022000D01*
X043401Y022000D01*
X043217Y021924D01*
X043076Y021783D01*
X043000Y021599D01*
X043000Y021401D01*
X043076Y021217D01*
X043217Y021076D01*
X043401Y021000D01*
X043188Y021105D02*
X037812Y021105D01*
X037943Y021264D02*
X043057Y021264D01*
X043000Y021422D02*
X038000Y021422D01*
X038000Y021581D02*
X043000Y021581D01*
X043058Y021739D02*
X037942Y021739D01*
X037810Y021898D02*
X043190Y021898D01*
X043265Y022056D02*
X037735Y022056D01*
X037599Y022000D02*
X037401Y022000D01*
X037217Y022076D01*
X037109Y022184D01*
X036670Y021746D01*
X036560Y021700D01*
X035958Y021700D01*
X036000Y021599D01*
X036000Y021401D01*
X035958Y021300D01*
X036376Y021300D01*
X036746Y021670D01*
X036830Y021754D01*
X036940Y021800D01*
X037093Y021800D01*
X037217Y021924D01*
X037401Y022000D01*
X037599Y022000D01*
X037265Y022056D02*
X036980Y022056D01*
X036822Y021898D02*
X037190Y021898D01*
X036815Y021739D02*
X036654Y021739D01*
X036656Y021581D02*
X036000Y021581D01*
X036000Y021422D02*
X036498Y021422D01*
X036500Y021000D02*
X037000Y021500D01*
X037500Y021500D01*
X037109Y021184D02*
X036670Y020746D01*
X036560Y020700D01*
X035958Y020700D01*
X036000Y020599D01*
X036000Y020401D01*
X035958Y020300D01*
X036376Y020300D01*
X036746Y020670D01*
X036830Y020754D01*
X036940Y020800D01*
X037093Y020800D01*
X037217Y020924D01*
X037401Y021000D01*
X037599Y021000D01*
X037401Y021000D01*
X037217Y021076D01*
X037109Y021184D01*
X037188Y021105D02*
X037029Y021105D01*
X036871Y020947D02*
X037271Y020947D01*
X036911Y020788D02*
X036712Y020788D01*
X036705Y020630D02*
X035988Y020630D01*
X036000Y020471D02*
X036547Y020471D01*
X036388Y020313D02*
X035964Y020313D01*
X035500Y020500D02*
X025500Y020500D01*
X025000Y020500D01*
X024500Y021000D01*
X013000Y021000D01*
X012500Y020500D01*
X011500Y020500D01*
X011036Y020313D02*
X001005Y020313D01*
X001005Y020471D02*
X011000Y020471D01*
X011012Y020630D02*
X001005Y020630D01*
X001005Y020788D02*
X011081Y020788D01*
X011271Y020947D02*
X001005Y020947D01*
X001005Y021105D02*
X011188Y021105D01*
X011057Y021264D02*
X001005Y021264D01*
X001005Y021422D02*
X011000Y021422D01*
X011000Y021581D02*
X001005Y021581D01*
X001005Y021739D02*
X011058Y021739D01*
X011190Y021898D02*
X001005Y021898D01*
X001005Y022056D02*
X011265Y022056D01*
X011401Y022000D02*
X011599Y022000D01*
X011783Y021924D01*
X011907Y021800D01*
X012276Y021800D01*
X012246Y021830D01*
X012200Y021940D01*
X012200Y022060D01*
X012246Y022170D01*
X012276Y022200D01*
X011907Y022200D01*
X011783Y022076D01*
X011599Y022000D01*
X011401Y022000D01*
X011735Y022056D02*
X012200Y022056D01*
X012218Y021898D02*
X011810Y021898D01*
X011500Y021500D02*
X012500Y021500D01*
X013000Y022000D01*
X024500Y022000D01*
X025000Y021500D01*
X025500Y021500D01*
X035500Y021450D01*
X035500Y021500D01*
X035958Y022300D02*
X036000Y022401D01*
X036000Y022599D01*
X035958Y022700D01*
X036560Y022700D01*
X036670Y022746D01*
X037109Y023184D01*
X037217Y023076D01*
X037401Y023000D01*
X037599Y023000D01*
X037401Y023000D01*
X037217Y022924D01*
X037093Y022800D01*
X036940Y022800D01*
X036830Y022754D01*
X036746Y022670D01*
X036376Y022300D01*
X035958Y022300D01*
X035989Y022373D02*
X036449Y022373D01*
X036607Y022532D02*
X036000Y022532D01*
X035962Y022690D02*
X036766Y022690D01*
X036773Y022849D02*
X037141Y022849D01*
X036931Y023007D02*
X037384Y023007D01*
X037616Y023007D02*
X043384Y023007D01*
X043401Y023000D02*
X043217Y022924D01*
X043076Y022783D01*
X043000Y022599D01*
X043000Y022401D01*
X043076Y022217D01*
X043217Y022076D01*
X043401Y022000D01*
X043599Y022000D01*
X043783Y022076D01*
X043924Y022217D01*
X044000Y022401D01*
X044000Y022599D01*
X043924Y022783D01*
X043783Y022924D01*
X043599Y023000D01*
X043401Y023000D01*
X043599Y023000D01*
X043783Y023076D01*
X043924Y023217D01*
X044000Y023401D01*
X044000Y023599D01*
X043924Y023783D01*
X043783Y023924D01*
X043599Y024000D01*
X043401Y024000D01*
X043217Y023924D01*
X043076Y023783D01*
X043000Y023599D01*
X043000Y023401D01*
X043076Y023217D01*
X043217Y023076D01*
X043401Y023000D01*
X043616Y023007D02*
X045384Y023007D01*
X045401Y023000D02*
X045217Y022924D01*
X045076Y022783D01*
X045000Y022599D01*
X045000Y022401D01*
X045076Y022217D01*
X045217Y022076D01*
X045401Y022000D01*
X045217Y021924D01*
X045076Y021783D01*
X045000Y021599D01*
X045000Y021401D01*
X045076Y021217D01*
X045217Y021076D01*
X045401Y021000D01*
X045217Y020924D01*
X045076Y020783D01*
X045000Y020599D01*
X045000Y020401D01*
X045076Y020217D01*
X045217Y020076D01*
X045401Y020000D01*
X045217Y019924D01*
X045076Y019783D01*
X045000Y019599D01*
X045000Y019401D01*
X045076Y019217D01*
X045217Y019076D01*
X045401Y019000D01*
X045217Y018924D01*
X045076Y018783D01*
X045000Y018599D01*
X045000Y018401D01*
X045076Y018217D01*
X045217Y018076D01*
X045401Y018000D01*
X045599Y018000D01*
X045783Y018076D01*
X045924Y018217D01*
X046000Y018401D01*
X046000Y018599D01*
X045924Y018783D01*
X045783Y018924D01*
X045599Y019000D01*
X045401Y019000D01*
X045599Y019000D01*
X045783Y019076D01*
X045924Y019217D01*
X046000Y019401D01*
X046000Y019599D01*
X045924Y019783D01*
X045783Y019924D01*
X045599Y020000D01*
X045401Y020000D01*
X045599Y020000D01*
X045783Y020076D01*
X045924Y020217D01*
X046000Y020401D01*
X046000Y020599D01*
X045924Y020783D01*
X045783Y020924D01*
X045599Y021000D01*
X045401Y021000D01*
X045599Y021000D01*
X045783Y021076D01*
X045924Y021217D01*
X046000Y021401D01*
X046000Y021599D01*
X045924Y021783D01*
X045783Y021924D01*
X045599Y022000D01*
X045401Y022000D01*
X045599Y022000D01*
X045783Y022076D01*
X045924Y022217D01*
X046000Y022401D01*
X046000Y022599D01*
X045924Y022783D01*
X045783Y022924D01*
X045599Y023000D01*
X045401Y023000D01*
X045599Y023000D01*
X045783Y023076D01*
X045924Y023217D01*
X046000Y023401D01*
X046000Y023599D01*
X045924Y023783D01*
X045783Y023924D01*
X045599Y024000D01*
X045401Y024000D01*
X045217Y023924D01*
X045076Y023783D01*
X045000Y023599D01*
X045000Y023401D01*
X045076Y023217D01*
X045217Y023076D01*
X045401Y023000D01*
X045616Y023007D02*
X047562Y023007D01*
X047562Y023087D02*
X047562Y022913D01*
X047629Y022752D01*
X047752Y022629D01*
X047913Y022562D01*
X048087Y022562D01*
X048248Y022629D01*
X048371Y022752D01*
X048438Y022913D01*
X048438Y023087D01*
X048371Y023248D01*
X048248Y023371D01*
X048087Y023438D01*
X047913Y023438D01*
X047752Y023371D01*
X047629Y023248D01*
X047562Y023087D01*
X047595Y023166D02*
X045873Y023166D01*
X045968Y023324D02*
X047705Y023324D01*
X047589Y022849D02*
X045859Y022849D01*
X045962Y022690D02*
X047691Y022690D01*
X048309Y022690D02*
X052995Y022690D01*
X052995Y022532D02*
X046000Y022532D01*
X045989Y022373D02*
X049757Y022373D01*
X049752Y022371D02*
X049629Y022248D01*
X049562Y022087D01*
X049562Y021913D01*
X049629Y021752D01*
X049752Y021629D01*
X049913Y021562D01*
X050087Y021562D01*
X050248Y021629D01*
X050371Y021752D01*
X050438Y021913D01*
X050438Y022087D01*
X050371Y022248D01*
X050248Y022371D01*
X050087Y022438D01*
X049913Y022438D01*
X049752Y022371D01*
X049615Y022215D02*
X045922Y022215D01*
X045735Y022056D02*
X049562Y022056D01*
X049569Y021898D02*
X045810Y021898D01*
X045942Y021739D02*
X049642Y021739D01*
X049869Y021581D02*
X046000Y021581D01*
X046000Y021422D02*
X052995Y021422D01*
X052995Y021264D02*
X045943Y021264D01*
X045812Y021105D02*
X052995Y021105D01*
X052995Y020947D02*
X045729Y020947D01*
X045919Y020788D02*
X047169Y020788D01*
X047129Y020748D02*
X047062Y020587D01*
X047062Y020413D01*
X047129Y020252D01*
X047252Y020129D01*
X047413Y020062D01*
X047587Y020062D01*
X047748Y020129D01*
X047871Y020252D01*
X047938Y020413D01*
X047938Y020587D01*
X047871Y020748D01*
X047748Y020871D01*
X047587Y020938D01*
X047413Y020938D01*
X047252Y020871D01*
X047129Y020748D01*
X047080Y020630D02*
X045988Y020630D01*
X046000Y020471D02*
X047062Y020471D01*
X047104Y020313D02*
X045964Y020313D01*
X045861Y020154D02*
X047227Y020154D01*
X047773Y020154D02*
X052995Y020154D01*
X052995Y019996D02*
X045610Y019996D01*
X045390Y019996D02*
X043610Y019996D01*
X043390Y019996D02*
X041438Y019996D01*
X041410Y020154D02*
X043139Y020154D01*
X043130Y019837D02*
X041406Y019837D01*
X041298Y019679D02*
X043033Y019679D01*
X043000Y019520D02*
X038000Y019520D01*
X037984Y019362D02*
X043016Y019362D01*
X043090Y019203D02*
X037910Y019203D01*
X037707Y019045D02*
X043293Y019045D01*
X043179Y018886D02*
X037821Y018886D01*
X037947Y018728D02*
X043053Y018728D01*
X043000Y018569D02*
X038000Y018569D01*
X038000Y018411D02*
X043000Y018411D01*
X043062Y018252D02*
X037938Y018252D01*
X037801Y018094D02*
X043199Y018094D01*
X043801Y018094D02*
X045199Y018094D01*
X045062Y018252D02*
X043938Y018252D01*
X044000Y018411D02*
X045000Y018411D01*
X045000Y018569D02*
X044000Y018569D01*
X043947Y018728D02*
X045053Y018728D01*
X045179Y018886D02*
X043821Y018886D01*
X043707Y019045D02*
X045293Y019045D01*
X045090Y019203D02*
X043910Y019203D01*
X043984Y019362D02*
X045016Y019362D01*
X045000Y019520D02*
X044000Y019520D01*
X043967Y019679D02*
X045033Y019679D01*
X045130Y019837D02*
X043870Y019837D01*
X043861Y020154D02*
X045139Y020154D01*
X045036Y020313D02*
X043964Y020313D01*
X044000Y020471D02*
X045000Y020471D01*
X045012Y020630D02*
X043988Y020630D01*
X043919Y020788D02*
X045081Y020788D01*
X045271Y020947D02*
X043729Y020947D01*
X043812Y021105D02*
X045188Y021105D01*
X045057Y021264D02*
X043943Y021264D01*
X044000Y021422D02*
X045000Y021422D01*
X045000Y021581D02*
X044000Y021581D01*
X043942Y021739D02*
X045058Y021739D01*
X045190Y021898D02*
X043810Y021898D01*
X043735Y022056D02*
X045265Y022056D01*
X045078Y022215D02*
X043922Y022215D01*
X043989Y022373D02*
X045011Y022373D01*
X045000Y022532D02*
X044000Y022532D01*
X043962Y022690D02*
X045038Y022690D01*
X045141Y022849D02*
X043859Y022849D01*
X043873Y023166D02*
X045127Y023166D01*
X045032Y023324D02*
X043968Y023324D01*
X044000Y023483D02*
X045000Y023483D01*
X045017Y023641D02*
X043983Y023641D01*
X043908Y023800D02*
X045092Y023800D01*
X045299Y023958D02*
X043701Y023958D01*
X043599Y024000D02*
X043783Y024076D01*
X043924Y024217D01*
X044000Y024401D01*
X044000Y024599D01*
X043924Y024783D01*
X043783Y024924D01*
X043599Y025000D01*
X043401Y025000D01*
X043217Y024924D01*
X043076Y024783D01*
X043000Y024599D01*
X043000Y024401D01*
X043076Y024217D01*
X043217Y024076D01*
X043401Y024000D01*
X043599Y024000D01*
X043824Y024117D02*
X045176Y024117D01*
X045217Y024076D02*
X045401Y024000D01*
X045599Y024000D01*
X045783Y024076D01*
X045924Y024217D01*
X046000Y024401D01*
X046000Y024599D01*
X045924Y024783D01*
X045783Y024924D01*
X045599Y025000D01*
X045401Y025000D01*
X045217Y024924D01*
X045076Y024783D01*
X045000Y024599D01*
X045000Y024401D01*
X045076Y024217D01*
X045217Y024076D01*
X045052Y024275D02*
X043948Y024275D01*
X044000Y024434D02*
X045000Y024434D01*
X045000Y024592D02*
X044000Y024592D01*
X043937Y024751D02*
X045063Y024751D01*
X045202Y024909D02*
X043798Y024909D01*
X043763Y025068D02*
X045237Y025068D01*
X045217Y025076D02*
X045401Y025000D01*
X045599Y025000D01*
X045783Y025076D01*
X045924Y025217D01*
X046000Y025401D01*
X046000Y025599D01*
X045924Y025783D01*
X045783Y025924D01*
X045599Y026000D01*
X045401Y026000D01*
X045217Y025924D01*
X045076Y025783D01*
X045000Y025599D01*
X045000Y025401D01*
X045076Y025217D01*
X045217Y025076D01*
X045072Y025226D02*
X043928Y025226D01*
X043924Y025217D02*
X044000Y025401D01*
X044000Y025599D01*
X043924Y025783D01*
X043783Y025924D01*
X043599Y026000D01*
X043401Y026000D01*
X043217Y025924D01*
X043076Y025783D01*
X043000Y025599D01*
X043000Y025401D01*
X043076Y025217D01*
X043217Y025076D01*
X043401Y025000D01*
X043599Y025000D01*
X043783Y025076D01*
X043924Y025217D01*
X043993Y025385D02*
X045007Y025385D01*
X045000Y025543D02*
X044000Y025543D01*
X043958Y025702D02*
X045042Y025702D01*
X045153Y025860D02*
X043847Y025860D01*
X043783Y026076D02*
X043924Y026217D01*
X044000Y026401D01*
X044000Y026599D01*
X043924Y026783D01*
X043783Y026924D01*
X043599Y027000D01*
X043401Y027000D01*
X043217Y026924D01*
X043076Y026783D01*
X043000Y026599D01*
X043000Y026401D01*
X043076Y026217D01*
X043217Y026076D01*
X043401Y026000D01*
X043599Y026000D01*
X043783Y026076D01*
X043884Y026177D02*
X045116Y026177D01*
X045076Y026217D02*
X045217Y026076D01*
X045401Y026000D01*
X045599Y026000D01*
X045783Y026076D01*
X045924Y026217D01*
X046000Y026401D01*
X046000Y026599D01*
X045924Y026783D01*
X045783Y026924D01*
X045599Y027000D01*
X045401Y027000D01*
X045217Y026924D01*
X045076Y026783D01*
X045000Y026599D01*
X045000Y026401D01*
X045076Y026217D01*
X045027Y026336D02*
X043973Y026336D01*
X044000Y026494D02*
X045000Y026494D01*
X045022Y026653D02*
X043978Y026653D01*
X043896Y026811D02*
X045104Y026811D01*
X045327Y026970D02*
X043673Y026970D01*
X043599Y027000D02*
X043783Y027076D01*
X043924Y027217D01*
X044000Y027401D01*
X044000Y027599D01*
X043924Y027783D01*
X043783Y027924D01*
X043599Y028000D01*
X043401Y028000D01*
X043217Y027924D01*
X043076Y027783D01*
X043000Y027599D01*
X043000Y027401D01*
X043076Y027217D01*
X043217Y027076D01*
X043401Y027000D01*
X043599Y027000D01*
X043835Y027128D02*
X045165Y027128D01*
X045217Y027076D02*
X045401Y027000D01*
X045599Y027000D01*
X045783Y027076D01*
X045924Y027217D01*
X046000Y027401D01*
X046000Y027599D01*
X045924Y027783D01*
X045783Y027924D01*
X045599Y028000D01*
X045401Y028000D01*
X045217Y027924D01*
X045076Y027783D01*
X045000Y027599D01*
X045000Y027401D01*
X045076Y027217D01*
X045217Y027076D01*
X045047Y027287D02*
X043953Y027287D01*
X044000Y027445D02*
X045000Y027445D01*
X045002Y027604D02*
X043998Y027604D01*
X043933Y027762D02*
X045067Y027762D01*
X045213Y027921D02*
X043787Y027921D01*
X043783Y028076D02*
X043924Y028217D01*
X044000Y028401D01*
X044000Y028599D01*
X043924Y028783D01*
X043783Y028924D01*
X043599Y029000D01*
X043401Y029000D01*
X043217Y028924D01*
X043076Y028783D01*
X043000Y028599D01*
X043000Y028401D01*
X043076Y028217D01*
X043217Y028076D01*
X043401Y028000D01*
X043599Y028000D01*
X043783Y028076D01*
X043786Y028079D02*
X045214Y028079D01*
X045217Y028076D02*
X045401Y028000D01*
X045599Y028000D01*
X045783Y028076D01*
X045924Y028217D01*
X046000Y028401D01*
X046000Y028599D01*
X045924Y028783D01*
X045783Y028924D01*
X045599Y029000D01*
X045401Y029000D01*
X045217Y028924D01*
X045076Y028783D01*
X045000Y028599D01*
X045000Y028401D01*
X045076Y028217D01*
X045217Y028076D01*
X045068Y028238D02*
X043932Y028238D01*
X043998Y028396D02*
X045002Y028396D01*
X045000Y028555D02*
X044000Y028555D01*
X043953Y028713D02*
X045047Y028713D01*
X045164Y028872D02*
X043836Y028872D01*
X043783Y029076D02*
X043924Y029217D01*
X044000Y029401D01*
X044000Y029599D01*
X043924Y029783D01*
X043783Y029924D01*
X043599Y030000D01*
X043401Y030000D01*
X043217Y029924D01*
X043076Y029783D01*
X043000Y029599D01*
X043000Y029401D01*
X043076Y029217D01*
X043217Y029076D01*
X043401Y029000D01*
X043599Y029000D01*
X043783Y029076D01*
X043672Y029030D02*
X045328Y029030D01*
X045401Y029000D02*
X045599Y029000D01*
X045783Y029076D01*
X045924Y029217D01*
X046000Y029401D01*
X046000Y029599D01*
X045924Y029783D01*
X045783Y029924D01*
X045599Y030000D01*
X045401Y030000D01*
X045217Y029924D01*
X045076Y029783D01*
X045000Y029599D01*
X045000Y029401D01*
X045076Y029217D01*
X045217Y029076D01*
X045401Y029000D01*
X045672Y029030D02*
X046062Y029030D01*
X046062Y029087D02*
X046062Y028913D01*
X046129Y028752D01*
X046252Y028629D01*
X046413Y028562D01*
X046587Y028562D01*
X046748Y028629D01*
X046871Y028752D01*
X046938Y028913D01*
X046938Y029087D01*
X046871Y029248D01*
X046748Y029371D01*
X046587Y029438D01*
X046413Y029438D01*
X046252Y029371D01*
X046129Y029248D01*
X046062Y029087D01*
X046104Y029189D02*
X045896Y029189D01*
X045978Y029347D02*
X046228Y029347D01*
X046000Y029506D02*
X052995Y029506D01*
X052995Y029664D02*
X045973Y029664D01*
X045885Y029823D02*
X052995Y029823D01*
X052995Y029981D02*
X045645Y029981D01*
X045599Y030000D02*
X045783Y030076D01*
X045924Y030217D01*
X046000Y030401D01*
X046000Y030599D01*
X045924Y030783D01*
X045783Y030924D01*
X045599Y031000D01*
X045401Y031000D01*
X045217Y030924D01*
X045076Y030783D01*
X045000Y030599D01*
X045000Y030401D01*
X045076Y030217D01*
X045217Y030076D01*
X045401Y030000D01*
X045599Y030000D01*
X045355Y029981D02*
X043645Y029981D01*
X043599Y030000D02*
X043783Y030076D01*
X043924Y030217D01*
X044000Y030401D01*
X044000Y030599D01*
X043924Y030783D01*
X043783Y030924D01*
X043599Y031000D01*
X043401Y031000D01*
X043217Y030924D01*
X043076Y030783D01*
X043000Y030599D01*
X043000Y030401D01*
X043076Y030217D01*
X043217Y030076D01*
X043401Y030000D01*
X043599Y030000D01*
X043355Y029981D02*
X037645Y029981D01*
X037599Y030000D02*
X037401Y030000D01*
X037217Y029924D01*
X037076Y029783D01*
X037000Y029599D01*
X037000Y029401D01*
X037076Y029217D01*
X037217Y029076D01*
X037401Y029000D01*
X037217Y028924D01*
X037076Y028783D01*
X037000Y028599D01*
X037000Y028401D01*
X037076Y028217D01*
X037217Y028076D01*
X037401Y028000D01*
X037599Y028000D01*
X037783Y028076D01*
X037924Y028217D01*
X038000Y028401D01*
X038000Y028599D01*
X037924Y028783D01*
X037783Y028924D01*
X037599Y029000D01*
X037401Y029000D01*
X037599Y029000D01*
X037783Y029076D01*
X037924Y029217D01*
X038000Y029401D01*
X038000Y029599D01*
X037924Y029783D01*
X037783Y029924D01*
X037599Y030000D01*
X037783Y030076D01*
X037924Y030217D01*
X038000Y030401D01*
X038000Y030599D01*
X037924Y030783D01*
X037783Y030924D01*
X037599Y031000D01*
X037401Y031000D01*
X037217Y030924D01*
X037076Y030783D01*
X037000Y030599D01*
X037000Y030401D01*
X037076Y030217D01*
X037217Y030076D01*
X037401Y030000D01*
X037599Y030000D01*
X037355Y029981D02*
X035645Y029981D01*
X035599Y030000D02*
X035401Y030000D01*
X035217Y029924D01*
X035076Y029783D01*
X035000Y029599D01*
X035000Y029401D01*
X035076Y029217D01*
X035217Y029076D01*
X035401Y029000D01*
X035217Y028924D01*
X035076Y028783D01*
X035000Y028599D01*
X035000Y028401D01*
X035076Y028217D01*
X035217Y028076D01*
X035401Y028000D01*
X035217Y027924D01*
X035076Y027783D01*
X035000Y027599D01*
X035000Y027401D01*
X035076Y027217D01*
X035217Y027076D01*
X035401Y027000D01*
X035599Y027000D01*
X035783Y027076D01*
X035924Y027217D01*
X036000Y027401D01*
X036000Y027599D01*
X035924Y027783D01*
X035783Y027924D01*
X035599Y028000D01*
X035401Y028000D01*
X035599Y028000D01*
X035783Y028076D01*
X035924Y028217D01*
X036000Y028401D01*
X036000Y028599D01*
X035924Y028783D01*
X035783Y028924D01*
X035599Y029000D01*
X035401Y029000D01*
X035599Y029000D01*
X035783Y029076D01*
X035924Y029217D01*
X036000Y029401D01*
X036000Y029599D01*
X035924Y029783D01*
X035783Y029924D01*
X035599Y030000D01*
X035783Y030076D01*
X035924Y030217D01*
X036000Y030401D01*
X036000Y030599D01*
X035924Y030783D01*
X035783Y030924D01*
X035599Y031000D01*
X035401Y031000D01*
X035217Y030924D01*
X035076Y030783D01*
X035000Y030599D01*
X035000Y030401D01*
X035076Y030217D01*
X035217Y030076D01*
X035401Y030000D01*
X035599Y030000D01*
X035355Y029981D02*
X025645Y029981D01*
X025599Y030000D02*
X025401Y030000D01*
X025217Y029924D01*
X025076Y029783D01*
X025000Y029599D01*
X025000Y029401D01*
X025076Y029217D01*
X025217Y029076D01*
X025401Y029000D01*
X025217Y028924D01*
X025076Y028783D01*
X025000Y028599D01*
X025000Y028401D01*
X025076Y028217D01*
X025217Y028076D01*
X025401Y028000D01*
X025217Y027924D01*
X025076Y027783D01*
X025000Y027599D01*
X025000Y027401D01*
X025076Y027217D01*
X025217Y027076D01*
X025401Y027000D01*
X025599Y027000D01*
X025783Y027076D01*
X025924Y027217D01*
X026000Y027401D01*
X026000Y027599D01*
X025924Y027783D01*
X025783Y027924D01*
X025599Y028000D01*
X025401Y028000D01*
X025599Y028000D01*
X025783Y028076D01*
X025924Y028217D01*
X026000Y028401D01*
X026000Y028599D01*
X025924Y028783D01*
X025783Y028924D01*
X025599Y029000D01*
X025401Y029000D01*
X025599Y029000D01*
X025783Y029076D01*
X025924Y029217D01*
X026000Y029401D01*
X026000Y029599D01*
X025924Y029783D01*
X025783Y029924D01*
X025599Y030000D01*
X025783Y030076D01*
X025924Y030217D01*
X026000Y030401D01*
X026000Y030599D01*
X025924Y030783D01*
X025783Y030924D01*
X025599Y031000D01*
X025401Y031000D01*
X025217Y030924D01*
X025076Y030783D01*
X025000Y030599D01*
X025000Y030401D01*
X025076Y030217D01*
X025217Y030076D01*
X025401Y030000D01*
X025599Y030000D01*
X025355Y029981D02*
X023645Y029981D01*
X023599Y030000D02*
X023401Y030000D01*
X023217Y029924D01*
X023076Y029783D01*
X023000Y029599D01*
X023000Y029401D01*
X023076Y029217D01*
X023217Y029076D01*
X023401Y029000D01*
X023217Y028924D01*
X023076Y028783D01*
X023000Y028599D01*
X023000Y028401D01*
X023076Y028217D01*
X023217Y028076D01*
X023401Y028000D01*
X023599Y028000D01*
X023783Y028076D01*
X023924Y028217D01*
X024000Y028401D01*
X024000Y028599D01*
X023924Y028783D01*
X023783Y028924D01*
X023599Y029000D01*
X023401Y029000D01*
X023599Y029000D01*
X023783Y029076D01*
X023924Y029217D01*
X024000Y029401D01*
X024000Y029599D01*
X023924Y029783D01*
X023783Y029924D01*
X023599Y030000D01*
X023783Y030076D01*
X023924Y030217D01*
X024000Y030401D01*
X024000Y030599D01*
X023924Y030783D01*
X023783Y030924D01*
X023599Y031000D01*
X023401Y031000D01*
X023217Y030924D01*
X023076Y030783D01*
X023000Y030599D01*
X023000Y030401D01*
X023076Y030217D01*
X023217Y030076D01*
X023401Y030000D01*
X023599Y030000D01*
X023355Y029981D02*
X013645Y029981D01*
X013599Y030000D02*
X013401Y030000D01*
X013217Y029924D01*
X013076Y029783D01*
X013000Y029599D01*
X013000Y029401D01*
X013076Y029217D01*
X013217Y029076D01*
X013401Y029000D01*
X013217Y028924D01*
X013076Y028783D01*
X013000Y028599D01*
X013000Y028401D01*
X013076Y028217D01*
X013217Y028076D01*
X013401Y028000D01*
X013599Y028000D01*
X013783Y028076D01*
X013924Y028217D01*
X014000Y028401D01*
X014000Y028599D01*
X013924Y028783D01*
X013783Y028924D01*
X013599Y029000D01*
X013401Y029000D01*
X013599Y029000D01*
X013783Y029076D01*
X013924Y029217D01*
X014000Y029401D01*
X014000Y029599D01*
X013924Y029783D01*
X013783Y029924D01*
X013599Y030000D01*
X013783Y030076D01*
X013924Y030217D01*
X014000Y030401D01*
X014000Y030599D01*
X013924Y030783D01*
X013783Y030924D01*
X013599Y031000D01*
X013401Y031000D01*
X013217Y030924D01*
X013076Y030783D01*
X013000Y030599D01*
X013000Y030401D01*
X013076Y030217D01*
X013217Y030076D01*
X013401Y030000D01*
X013599Y030000D01*
X013355Y029981D02*
X011645Y029981D01*
X011599Y030000D02*
X011401Y030000D01*
X011217Y029924D01*
X011076Y029783D01*
X011000Y029599D01*
X011000Y029401D01*
X011076Y029217D01*
X011217Y029076D01*
X011401Y029000D01*
X011217Y028924D01*
X011076Y028783D01*
X011000Y028599D01*
X011000Y028401D01*
X011076Y028217D01*
X011217Y028076D01*
X011401Y028000D01*
X011217Y027924D01*
X011076Y027783D01*
X011000Y027599D01*
X011000Y027401D01*
X011076Y027217D01*
X011217Y027076D01*
X011401Y027000D01*
X011599Y027000D01*
X011783Y027076D01*
X011924Y027217D01*
X012000Y027401D01*
X012000Y027599D01*
X011924Y027783D01*
X011783Y027924D01*
X011599Y028000D01*
X011401Y028000D01*
X011599Y028000D01*
X011783Y028076D01*
X011924Y028217D01*
X012000Y028401D01*
X012000Y028599D01*
X011924Y028783D01*
X011783Y028924D01*
X011599Y029000D01*
X011401Y029000D01*
X011599Y029000D01*
X011783Y029076D01*
X011924Y029217D01*
X012000Y029401D01*
X012000Y029599D01*
X011924Y029783D01*
X011783Y029924D01*
X011599Y030000D01*
X011783Y030076D01*
X011924Y030217D01*
X012000Y030401D01*
X012000Y030599D01*
X011924Y030783D01*
X011783Y030924D01*
X011599Y031000D01*
X011401Y031000D01*
X011217Y030924D01*
X011076Y030783D01*
X011000Y030599D01*
X011000Y030401D01*
X011076Y030217D01*
X011217Y030076D01*
X011401Y030000D01*
X011599Y030000D01*
X011355Y029981D02*
X001005Y029981D01*
X001005Y029823D02*
X011115Y029823D01*
X011027Y029664D02*
X001005Y029664D01*
X001005Y029506D02*
X011000Y029506D01*
X011022Y029347D02*
X009772Y029347D01*
X009748Y029371D02*
X009587Y029438D01*
X009413Y029438D01*
X009252Y029371D01*
X009129Y029248D01*
X009062Y029087D01*
X009062Y028913D01*
X009129Y028752D01*
X009252Y028629D01*
X009413Y028562D01*
X009587Y028562D01*
X009748Y028629D01*
X009871Y028752D01*
X009938Y028913D01*
X009938Y029087D01*
X009871Y029248D01*
X009748Y029371D01*
X009896Y029189D02*
X011104Y029189D01*
X011328Y029030D02*
X009938Y029030D01*
X009921Y028872D02*
X011164Y028872D01*
X011047Y028713D02*
X009832Y028713D01*
X009168Y028713D02*
X001005Y028713D01*
X001005Y028555D02*
X011000Y028555D01*
X011002Y028396D02*
X001005Y028396D01*
X001005Y028238D02*
X011068Y028238D01*
X011214Y028079D02*
X001005Y028079D01*
X001005Y027921D02*
X011213Y027921D01*
X011067Y027762D02*
X001005Y027762D01*
X001005Y027604D02*
X011002Y027604D01*
X011000Y027445D02*
X001005Y027445D01*
X001005Y027287D02*
X011047Y027287D01*
X011165Y027128D02*
X001005Y027128D01*
X001005Y026970D02*
X011327Y026970D01*
X011104Y026811D02*
X001005Y026811D01*
X001005Y026653D02*
X011022Y026653D01*
X011000Y026494D02*
X001005Y026494D01*
X001005Y026336D02*
X011027Y026336D01*
X011116Y026177D02*
X001005Y026177D01*
X001005Y026019D02*
X011356Y026019D01*
X011401Y026000D02*
X011599Y026000D01*
X011783Y025924D01*
X011907Y025800D01*
X012276Y025800D01*
X012246Y025830D01*
X012200Y025940D01*
X012200Y026060D01*
X012246Y026170D01*
X012276Y026200D01*
X011907Y026200D01*
X011783Y026076D01*
X011599Y026000D01*
X011401Y026000D01*
X011644Y026019D02*
X012200Y026019D01*
X012233Y025860D02*
X011847Y025860D01*
X011884Y026177D02*
X012253Y026177D01*
X012500Y026000D02*
X013000Y026500D01*
X013500Y026500D01*
X023500Y026500D01*
X024500Y026500D01*
X025000Y026000D01*
X036500Y026000D01*
X037000Y026500D01*
X037500Y026500D01*
X038000Y026494D02*
X043000Y026494D01*
X043022Y026653D02*
X037978Y026653D01*
X037896Y026811D02*
X043104Y026811D01*
X043327Y026970D02*
X037673Y026970D01*
X037835Y027128D02*
X043165Y027128D01*
X043047Y027287D02*
X037953Y027287D01*
X038000Y027445D02*
X043000Y027445D01*
X043002Y027604D02*
X037998Y027604D01*
X037933Y027762D02*
X043067Y027762D01*
X043213Y027921D02*
X037787Y027921D01*
X037786Y028079D02*
X043214Y028079D01*
X043068Y028238D02*
X037932Y028238D01*
X037998Y028396D02*
X043002Y028396D01*
X043000Y028555D02*
X038000Y028555D01*
X037953Y028713D02*
X043047Y028713D01*
X043164Y028872D02*
X037836Y028872D01*
X037672Y029030D02*
X043328Y029030D01*
X043104Y029189D02*
X040308Y029189D01*
X040248Y029129D02*
X040371Y029252D01*
X040438Y029413D01*
X040438Y029587D01*
X040371Y029748D01*
X040248Y029871D01*
X040087Y029938D01*
X039913Y029938D01*
X039752Y029871D01*
X039629Y029748D01*
X039562Y029587D01*
X039562Y029413D01*
X039629Y029252D01*
X039752Y029129D01*
X039913Y029062D01*
X040087Y029062D01*
X040248Y029129D01*
X040411Y029347D02*
X043022Y029347D01*
X043000Y029506D02*
X040438Y029506D01*
X040406Y029664D02*
X043027Y029664D01*
X043115Y029823D02*
X040297Y029823D01*
X039703Y029823D02*
X037885Y029823D01*
X037973Y029664D02*
X039594Y029664D01*
X039562Y029506D02*
X038000Y029506D01*
X037978Y029347D02*
X039589Y029347D01*
X039692Y029189D02*
X037896Y029189D01*
X037328Y029030D02*
X035672Y029030D01*
X035836Y028872D02*
X037164Y028872D01*
X037047Y028713D02*
X035953Y028713D01*
X036000Y028555D02*
X037000Y028555D01*
X037002Y028396D02*
X035998Y028396D01*
X035932Y028238D02*
X037068Y028238D01*
X037214Y028079D02*
X035786Y028079D01*
X035787Y027921D02*
X037213Y027921D01*
X037067Y027762D02*
X035933Y027762D01*
X035998Y027604D02*
X037002Y027604D01*
X037000Y027445D02*
X036000Y027445D01*
X035953Y027287D02*
X037047Y027287D01*
X037165Y027128D02*
X035835Y027128D01*
X035673Y026970D02*
X037327Y026970D01*
X037104Y026811D02*
X035896Y026811D01*
X035978Y026653D02*
X036728Y026653D01*
X036570Y026494D02*
X036000Y026494D01*
X035973Y026336D02*
X036411Y026336D01*
X036784Y025860D02*
X037153Y025860D01*
X037093Y025800D02*
X036940Y025800D01*
X036830Y025754D01*
X036746Y025670D01*
X036376Y025300D01*
X035958Y025300D01*
X036000Y025401D01*
X036000Y025599D01*
X035958Y025700D01*
X036560Y025700D01*
X036670Y025746D01*
X037109Y026184D01*
X037217Y026076D01*
X037401Y026000D01*
X037599Y026000D01*
X037401Y026000D01*
X037217Y025924D01*
X037093Y025800D01*
X036943Y026019D02*
X037356Y026019D01*
X037116Y026177D02*
X037101Y026177D01*
X037644Y026019D02*
X043356Y026019D01*
X043153Y025860D02*
X037847Y025860D01*
X037958Y025702D02*
X043042Y025702D01*
X043000Y025543D02*
X038000Y025543D01*
X037993Y025385D02*
X043007Y025385D01*
X043072Y025226D02*
X037928Y025226D01*
X037763Y025068D02*
X043237Y025068D01*
X043202Y024909D02*
X037798Y024909D01*
X037937Y024751D02*
X043063Y024751D01*
X043000Y024592D02*
X038000Y024592D01*
X038000Y024434D02*
X043000Y024434D01*
X043052Y024275D02*
X037948Y024275D01*
X037824Y024117D02*
X043176Y024117D01*
X043299Y023958D02*
X037701Y023958D01*
X037599Y024000D02*
X037401Y024000D01*
X037217Y024076D01*
X037109Y024184D01*
X036670Y023746D01*
X036560Y023700D01*
X035958Y023700D01*
X036000Y023599D01*
X036000Y023401D01*
X035958Y023300D01*
X036376Y023300D01*
X036746Y023670D01*
X036830Y023754D01*
X036940Y023800D01*
X037093Y023800D01*
X037217Y023924D01*
X037401Y024000D01*
X037599Y024000D01*
X037299Y023958D02*
X036882Y023958D01*
X036939Y023800D02*
X036724Y023800D01*
X036717Y023641D02*
X035983Y023641D01*
X036000Y023483D02*
X036558Y023483D01*
X036400Y023324D02*
X035968Y023324D01*
X035500Y023500D02*
X025500Y023500D01*
X025000Y023500D01*
X024500Y024000D01*
X013000Y024000D01*
X012500Y023500D01*
X011500Y023500D01*
X011701Y023958D02*
X012200Y023958D01*
X012200Y023940D02*
X012246Y023830D01*
X012276Y023800D01*
X011907Y023800D01*
X011783Y023924D01*
X011599Y024000D01*
X011401Y024000D01*
X011599Y024000D01*
X011783Y024076D01*
X011907Y024200D01*
X012276Y024200D01*
X012246Y024170D01*
X012200Y024060D01*
X012200Y023940D01*
X012224Y024117D02*
X011824Y024117D01*
X011500Y024500D02*
X012500Y024500D01*
X013000Y025000D01*
X024500Y025000D01*
X025000Y024500D01*
X025500Y024500D01*
X035500Y024500D01*
X035958Y024700D02*
X036560Y024700D01*
X036670Y024746D01*
X037109Y025184D01*
X037217Y025076D01*
X037401Y025000D01*
X037599Y025000D01*
X037401Y025000D01*
X037217Y024924D01*
X037093Y024800D01*
X036940Y024800D01*
X036830Y024754D01*
X036746Y024670D01*
X036376Y024300D01*
X035958Y024300D01*
X036000Y024401D01*
X036000Y024599D01*
X035958Y024700D01*
X036000Y024592D02*
X036668Y024592D01*
X036675Y024751D02*
X036826Y024751D01*
X036833Y024909D02*
X037202Y024909D01*
X037237Y025068D02*
X036992Y025068D01*
X037000Y025500D02*
X036500Y025000D01*
X025000Y025000D01*
X024500Y025500D01*
X023500Y025500D01*
X013500Y025500D01*
X013000Y025500D01*
X012500Y025000D01*
X012276Y025200D02*
X012246Y025170D01*
X012200Y025060D01*
X012200Y024940D01*
X012246Y024830D01*
X012276Y024800D01*
X011907Y024800D01*
X011783Y024924D01*
X011599Y025000D01*
X011401Y025000D01*
X011599Y025000D01*
X011783Y025076D01*
X011907Y025200D01*
X012276Y025200D01*
X012203Y025068D02*
X011763Y025068D01*
X011798Y024909D02*
X012213Y024909D01*
X012500Y025500D02*
X011500Y025500D01*
X011153Y025860D02*
X001005Y025860D01*
X001005Y025702D02*
X011042Y025702D01*
X011000Y025543D02*
X001005Y025543D01*
X001005Y025385D02*
X011007Y025385D01*
X011072Y025226D02*
X001005Y025226D01*
X001005Y025068D02*
X011237Y025068D01*
X011202Y024909D02*
X001005Y024909D01*
X001005Y024751D02*
X011063Y024751D01*
X011000Y024592D02*
X001005Y024592D01*
X001005Y024434D02*
X011000Y024434D01*
X011052Y024275D02*
X001005Y024275D01*
X001005Y024117D02*
X011176Y024117D01*
X011299Y023958D02*
X001005Y023958D01*
X001005Y023800D02*
X011092Y023800D01*
X011017Y023641D02*
X001005Y023641D01*
X001005Y023483D02*
X011000Y023483D01*
X011032Y023324D02*
X001005Y023324D01*
X001005Y023166D02*
X011127Y023166D01*
X011384Y023007D02*
X001005Y023007D01*
X001005Y022849D02*
X011141Y022849D01*
X011038Y022690D02*
X001005Y022690D01*
X001005Y022532D02*
X011000Y022532D01*
X011011Y022373D02*
X001005Y022373D01*
X001005Y022215D02*
X011078Y022215D01*
X011500Y022500D02*
X012500Y022500D01*
X013000Y023000D01*
X024500Y023000D01*
X025000Y022500D01*
X025500Y022500D01*
X035500Y022500D01*
X036500Y023000D02*
X037000Y023500D01*
X037500Y023500D01*
X037968Y023324D02*
X043032Y023324D01*
X043000Y023483D02*
X038000Y023483D01*
X037983Y023641D02*
X043017Y023641D01*
X043092Y023800D02*
X037908Y023800D01*
X037176Y024117D02*
X037041Y024117D01*
X037000Y024500D02*
X037500Y024500D01*
X037000Y024500D02*
X036500Y024000D01*
X025000Y024000D01*
X024500Y024500D01*
X023500Y024500D01*
X013500Y024500D01*
X013000Y024500D01*
X012500Y024000D01*
X013000Y023500D02*
X012500Y023000D01*
X012200Y023007D02*
X011616Y023007D01*
X011599Y023000D02*
X011401Y023000D01*
X011599Y023000D01*
X011783Y022924D01*
X011907Y022800D01*
X012276Y022800D01*
X012246Y022830D01*
X012200Y022940D01*
X012200Y023060D01*
X012246Y023170D01*
X012276Y023200D01*
X011907Y023200D01*
X011783Y023076D01*
X011599Y023000D01*
X011859Y022849D02*
X012238Y022849D01*
X012244Y023166D02*
X011873Y023166D01*
X013000Y023500D02*
X013500Y023500D01*
X023500Y023500D01*
X024500Y023500D01*
X025000Y023000D01*
X036500Y023000D01*
X037090Y023166D02*
X037127Y023166D01*
X037000Y022500D02*
X037500Y022500D01*
X037000Y022500D02*
X036500Y022000D01*
X025000Y022000D01*
X024500Y022500D01*
X023500Y022500D01*
X013500Y022500D01*
X013000Y022500D01*
X012500Y022000D01*
X013000Y021500D02*
X012500Y021000D01*
X012219Y021105D02*
X011812Y021105D01*
X011783Y021076D02*
X011907Y021200D01*
X012276Y021200D01*
X012246Y021170D01*
X012200Y021060D01*
X012200Y020940D01*
X012246Y020830D01*
X012276Y020800D01*
X011907Y020800D01*
X011783Y020924D01*
X011599Y021000D01*
X011401Y021000D01*
X011599Y021000D01*
X011783Y021076D01*
X011729Y020947D02*
X012200Y020947D01*
X012276Y020200D02*
X012246Y020170D01*
X012200Y020060D01*
X012200Y019940D01*
X012246Y019830D01*
X012276Y019800D01*
X011907Y019800D01*
X011783Y019924D01*
X011599Y020000D01*
X011401Y020000D01*
X011599Y020000D01*
X011783Y020076D01*
X011907Y020200D01*
X012276Y020200D01*
X012239Y020154D02*
X011861Y020154D01*
X011610Y019996D02*
X012200Y019996D01*
X012243Y019837D02*
X011870Y019837D01*
X011500Y019500D02*
X012500Y019500D01*
X013000Y020000D01*
X024500Y020000D01*
X025000Y019500D01*
X025500Y019500D01*
X035500Y019500D01*
X035958Y019700D02*
X036560Y019700D01*
X036670Y019746D01*
X037109Y020184D01*
X037217Y020076D01*
X037401Y020000D01*
X037599Y020000D01*
X037401Y020000D01*
X037217Y019924D01*
X037093Y019800D01*
X036940Y019800D01*
X036830Y019754D01*
X036746Y019670D01*
X036376Y019300D01*
X035958Y019300D01*
X036000Y019401D01*
X036000Y019599D01*
X035958Y019700D01*
X035967Y019679D02*
X036754Y019679D01*
X036746Y019670D02*
X036746Y019670D01*
X036761Y019837D02*
X037130Y019837D01*
X036920Y019996D02*
X037390Y019996D01*
X037139Y020154D02*
X037078Y020154D01*
X037000Y020500D02*
X037500Y020500D01*
X037000Y020500D02*
X036500Y020000D01*
X025000Y020000D01*
X024500Y020500D01*
X023500Y020500D01*
X013500Y020500D01*
X013000Y020500D01*
X012500Y020000D01*
X012969Y019045D02*
X013293Y019045D01*
X013179Y018886D02*
X012810Y018886D01*
X012626Y018728D02*
X013053Y018728D01*
X013707Y019045D02*
X023293Y019045D01*
X023401Y019000D02*
X023217Y018924D01*
X023076Y018783D01*
X023000Y018599D01*
X023000Y018401D01*
X023076Y018217D01*
X023217Y018076D01*
X023401Y018000D01*
X023599Y018000D01*
X023783Y018076D01*
X023924Y018217D01*
X024000Y018401D01*
X024000Y018599D01*
X023924Y018783D01*
X023783Y018924D01*
X023599Y019000D01*
X023401Y019000D01*
X023179Y018886D02*
X013821Y018886D01*
X013947Y018728D02*
X023053Y018728D01*
X023000Y018569D02*
X014000Y018569D01*
X014000Y018411D02*
X023000Y018411D01*
X023062Y018252D02*
X013938Y018252D01*
X013801Y018094D02*
X023199Y018094D01*
X023801Y018094D02*
X025199Y018094D01*
X025062Y018252D02*
X023938Y018252D01*
X024000Y018411D02*
X025000Y018411D01*
X025000Y018569D02*
X024000Y018569D01*
X023947Y018728D02*
X024874Y018728D01*
X024746Y018830D02*
X024746Y018830D01*
X024690Y018886D02*
X023821Y018886D01*
X023707Y019045D02*
X024531Y019045D01*
X026000Y018569D02*
X035000Y018569D01*
X035000Y018411D02*
X026000Y018411D01*
X025938Y018252D02*
X035062Y018252D01*
X035199Y018094D02*
X025801Y018094D01*
X024500Y015500D02*
X023500Y015500D01*
X013500Y015500D01*
X013000Y015500D01*
X012500Y015000D01*
X012209Y015082D02*
X011789Y015082D01*
X011784Y014924D02*
X012207Y014924D01*
X012500Y014500D02*
X011500Y014500D01*
X011838Y014131D02*
X012230Y014131D01*
X012200Y013973D02*
X011666Y013973D01*
X011893Y013814D02*
X012262Y013814D01*
X012500Y014000D02*
X013000Y014500D01*
X013500Y014500D01*
X023500Y014500D01*
X024500Y014500D01*
X025000Y014000D01*
X036500Y014000D01*
X037000Y014500D01*
X037500Y014500D01*
X043500Y014500D01*
X044000Y014448D02*
X044628Y014448D01*
X044585Y014290D02*
X044786Y014290D01*
X044793Y014131D02*
X045162Y014131D01*
X045334Y013973D02*
X044952Y013973D01*
X045000Y014500D02*
X044500Y015000D01*
X037000Y015000D01*
X036500Y014500D01*
X035500Y014500D01*
X035500Y014450D01*
X025500Y014500D01*
X025000Y014500D01*
X024500Y015000D01*
X013000Y015000D01*
X012500Y014500D01*
X012500Y015500D02*
X011500Y015500D01*
X013000Y013500D02*
X012500Y013000D01*
X012167Y012863D02*
X011929Y012863D01*
X012021Y012705D02*
X012286Y012705D01*
X012060Y012546D02*
X012940Y012546D01*
X012940Y012388D02*
X012060Y012388D01*
X011994Y012229D02*
X013006Y012229D01*
X013138Y012071D02*
X011862Y012071D01*
X012714Y012705D02*
X012979Y012705D01*
X013071Y012863D02*
X012872Y012863D01*
X013929Y012863D02*
X023071Y012863D01*
X022979Y012705D02*
X014021Y012705D01*
X014060Y012546D02*
X022940Y012546D01*
X022940Y012388D02*
X014060Y012388D01*
X013994Y012229D02*
X023006Y012229D01*
X023138Y012071D02*
X013862Y012071D01*
X013500Y013500D02*
X013000Y013500D01*
X013500Y013500D02*
X023500Y013500D01*
X024500Y013500D01*
X025000Y013000D01*
X036500Y013000D01*
X037000Y013500D01*
X037500Y013500D01*
X043500Y013500D01*
X043071Y012863D02*
X037929Y012863D01*
X038021Y012705D02*
X042979Y012705D01*
X042940Y012546D02*
X038060Y012546D01*
X038060Y012388D02*
X042940Y012388D01*
X043006Y012229D02*
X037994Y012229D01*
X037862Y012071D02*
X043138Y012071D01*
X043997Y014607D02*
X044469Y014607D01*
X045000Y014500D02*
X045500Y014500D01*
X045216Y014924D02*
X045001Y014924D01*
X044842Y015082D02*
X045211Y015082D01*
X044842Y015241D02*
X044684Y015241D01*
X044677Y015399D02*
X043999Y015399D01*
X044000Y015558D02*
X044518Y015558D01*
X044891Y016033D02*
X045321Y016033D01*
X045167Y015875D02*
X045050Y015875D01*
X045101Y016192D02*
X044733Y016192D01*
X045021Y016350D02*
X043979Y016350D01*
X044000Y016509D02*
X045000Y016509D01*
X045028Y016667D02*
X043972Y016667D01*
X043882Y016826D02*
X045118Y016826D01*
X045801Y018094D02*
X052995Y018094D01*
X052995Y018252D02*
X050071Y018252D01*
X050048Y018229D02*
X050171Y018352D01*
X050238Y018513D01*
X050238Y018687D01*
X050171Y018848D01*
X050048Y018971D01*
X049887Y019038D01*
X049713Y019038D01*
X049552Y018971D01*
X049429Y018848D01*
X049362Y018687D01*
X049362Y018513D01*
X049429Y018352D01*
X049552Y018229D01*
X049713Y018162D01*
X049887Y018162D01*
X050048Y018229D01*
X050195Y018411D02*
X052995Y018411D01*
X052995Y018569D02*
X050238Y018569D01*
X050221Y018728D02*
X052995Y018728D01*
X052995Y018886D02*
X050133Y018886D01*
X049467Y018886D02*
X048427Y018886D01*
X048438Y018913D02*
X048371Y018752D01*
X048248Y018629D01*
X048087Y018562D01*
X047913Y018562D01*
X047752Y018629D01*
X047629Y018752D01*
X047562Y018913D01*
X047562Y019087D01*
X047629Y019248D01*
X047752Y019371D01*
X047913Y019438D01*
X048087Y019438D01*
X048248Y019371D01*
X048371Y019248D01*
X048438Y019087D01*
X048438Y018913D01*
X048438Y019045D02*
X052995Y019045D01*
X052995Y019203D02*
X048390Y019203D01*
X048258Y019362D02*
X052995Y019362D01*
X052995Y019520D02*
X046000Y019520D01*
X045984Y019362D02*
X047742Y019362D01*
X047610Y019203D02*
X045910Y019203D01*
X045707Y019045D02*
X047562Y019045D01*
X047573Y018886D02*
X045821Y018886D01*
X045947Y018728D02*
X047653Y018728D01*
X047896Y018569D02*
X046000Y018569D01*
X046000Y018411D02*
X049405Y018411D01*
X049362Y018569D02*
X048104Y018569D01*
X048347Y018728D02*
X049379Y018728D01*
X049529Y018252D02*
X045938Y018252D01*
X045967Y019679D02*
X052995Y019679D01*
X052995Y019837D02*
X045870Y019837D01*
X047896Y020313D02*
X052995Y020313D01*
X052995Y020471D02*
X047938Y020471D01*
X047920Y020630D02*
X052995Y020630D01*
X052995Y020788D02*
X047831Y020788D01*
X048411Y022849D02*
X052995Y022849D01*
X052995Y023007D02*
X048438Y023007D01*
X048405Y023166D02*
X052995Y023166D01*
X052995Y023324D02*
X048295Y023324D01*
X047371Y024252D02*
X047438Y024413D01*
X047438Y024587D01*
X047371Y024748D01*
X047248Y024871D01*
X047087Y024938D01*
X046913Y024938D01*
X046752Y024871D01*
X046629Y024748D01*
X046562Y024587D01*
X046562Y024413D01*
X046629Y024252D01*
X046752Y024129D01*
X046913Y024062D01*
X047087Y024062D01*
X047248Y024129D01*
X047371Y024252D01*
X047381Y024275D02*
X052995Y024275D01*
X052995Y024117D02*
X047218Y024117D01*
X047438Y024434D02*
X052995Y024434D01*
X052995Y024592D02*
X047436Y024592D01*
X047369Y024751D02*
X052995Y024751D01*
X052995Y024909D02*
X047157Y024909D01*
X046843Y024909D02*
X045798Y024909D01*
X045763Y025068D02*
X049400Y025068D01*
X049413Y025062D02*
X049587Y025062D01*
X049748Y025129D01*
X049871Y025252D01*
X049938Y025413D01*
X049938Y025587D01*
X049871Y025748D01*
X049748Y025871D01*
X049587Y025938D01*
X049413Y025938D01*
X049252Y025871D01*
X049129Y025748D01*
X049062Y025587D01*
X049062Y025413D01*
X049129Y025252D01*
X049252Y025129D01*
X049413Y025062D01*
X049600Y025068D02*
X052995Y025068D01*
X052995Y025226D02*
X049845Y025226D01*
X049926Y025385D02*
X052995Y025385D01*
X052995Y025543D02*
X049938Y025543D01*
X049890Y025702D02*
X052995Y025702D01*
X052995Y025860D02*
X049759Y025860D01*
X049241Y025860D02*
X045847Y025860D01*
X045958Y025702D02*
X049110Y025702D01*
X049062Y025543D02*
X046000Y025543D01*
X045993Y025385D02*
X049074Y025385D01*
X049155Y025226D02*
X045928Y025226D01*
X045937Y024751D02*
X046631Y024751D01*
X046564Y024592D02*
X046000Y024592D01*
X046000Y024434D02*
X046562Y024434D01*
X046619Y024275D02*
X045948Y024275D01*
X045824Y024117D02*
X046782Y024117D01*
X045983Y023641D02*
X052995Y023641D01*
X052995Y023483D02*
X046000Y023483D01*
X045908Y023800D02*
X052995Y023800D01*
X052995Y023958D02*
X045701Y023958D01*
X045644Y026019D02*
X052995Y026019D01*
X052995Y026177D02*
X045884Y026177D01*
X045973Y026336D02*
X052995Y026336D01*
X052995Y026494D02*
X046000Y026494D01*
X045978Y026653D02*
X052995Y026653D01*
X052995Y026811D02*
X045896Y026811D01*
X045673Y026970D02*
X052995Y026970D01*
X052995Y027128D02*
X045835Y027128D01*
X045953Y027287D02*
X052995Y027287D01*
X052995Y027445D02*
X046000Y027445D01*
X045998Y027604D02*
X052995Y027604D01*
X052995Y027762D02*
X045933Y027762D01*
X045787Y027921D02*
X052995Y027921D01*
X052995Y028079D02*
X045786Y028079D01*
X045932Y028238D02*
X052995Y028238D01*
X052995Y028396D02*
X045998Y028396D01*
X046000Y028555D02*
X052995Y028555D01*
X052995Y028713D02*
X046832Y028713D01*
X046921Y028872D02*
X052995Y028872D01*
X052995Y029030D02*
X046938Y029030D01*
X046896Y029189D02*
X052995Y029189D01*
X052995Y029347D02*
X046772Y029347D01*
X046168Y028713D02*
X045953Y028713D01*
X045836Y028872D02*
X046079Y028872D01*
X045104Y029189D02*
X043896Y029189D01*
X043978Y029347D02*
X045022Y029347D01*
X045000Y029506D02*
X044000Y029506D01*
X043973Y029664D02*
X045027Y029664D01*
X045115Y029823D02*
X043885Y029823D01*
X043847Y030140D02*
X045153Y030140D01*
X045042Y030298D02*
X043958Y030298D01*
X044000Y030457D02*
X045000Y030457D01*
X045006Y030615D02*
X043994Y030615D01*
X043928Y030774D02*
X045072Y030774D01*
X045236Y030932D02*
X043764Y030932D01*
X043783Y031076D02*
X043599Y031000D01*
X043401Y031000D01*
X043217Y031076D01*
X043076Y031217D01*
X043000Y031401D01*
X043000Y031599D01*
X043076Y031783D01*
X043217Y031924D01*
X043401Y032000D01*
X043599Y032000D01*
X043783Y031924D01*
X043924Y031783D01*
X044000Y031599D01*
X044000Y031401D01*
X043924Y031217D01*
X043783Y031076D01*
X043798Y031091D02*
X045202Y031091D01*
X045217Y031076D02*
X045401Y031000D01*
X045599Y031000D01*
X045783Y031076D01*
X045924Y031217D01*
X046000Y031401D01*
X046000Y031599D01*
X045924Y031783D01*
X045783Y031924D01*
X045599Y032000D01*
X045401Y032000D01*
X045217Y031924D01*
X045076Y031783D01*
X045000Y031599D01*
X045000Y031401D01*
X045076Y031217D01*
X045217Y031076D01*
X045063Y031249D02*
X043937Y031249D01*
X044000Y031408D02*
X045000Y031408D01*
X045000Y031566D02*
X044000Y031566D01*
X043948Y031725D02*
X045052Y031725D01*
X045176Y031883D02*
X043824Y031883D01*
X043783Y032076D02*
X043599Y032000D01*
X043401Y032000D01*
X043217Y032076D01*
X043076Y032217D01*
X043000Y032401D01*
X043000Y032599D01*
X043076Y032783D01*
X043217Y032924D01*
X043401Y033000D01*
X043599Y033000D01*
X043783Y032924D01*
X043924Y032783D01*
X044000Y032599D01*
X044000Y032401D01*
X043924Y032217D01*
X043783Y032076D01*
X043700Y032042D02*
X045300Y032042D01*
X045217Y032076D02*
X045401Y032000D01*
X045599Y032000D01*
X045783Y032076D01*
X045924Y032217D01*
X046000Y032401D01*
X046000Y032599D01*
X045924Y032783D01*
X045783Y032924D01*
X045599Y033000D01*
X045401Y033000D01*
X045217Y032924D01*
X045076Y032783D01*
X045000Y032599D01*
X045000Y032401D01*
X045076Y032217D01*
X045217Y032076D01*
X045093Y032200D02*
X043907Y032200D01*
X043983Y032359D02*
X045017Y032359D01*
X045000Y032517D02*
X044000Y032517D01*
X043968Y032676D02*
X045032Y032676D01*
X045127Y032834D02*
X043873Y032834D01*
X043783Y033076D02*
X043924Y033217D01*
X044000Y033401D01*
X044000Y033599D01*
X043924Y033783D01*
X043783Y033924D01*
X043599Y034000D01*
X043401Y034000D01*
X043217Y033924D01*
X043076Y033783D01*
X043000Y033599D01*
X043000Y033401D01*
X043076Y033217D01*
X043217Y033076D01*
X043401Y033000D01*
X043599Y033000D01*
X043783Y033076D01*
X043858Y033151D02*
X045142Y033151D01*
X045076Y033217D02*
X045217Y033076D01*
X045401Y033000D01*
X045599Y033000D01*
X045783Y033076D01*
X045924Y033217D01*
X046000Y033401D01*
X046000Y033599D01*
X045924Y033783D01*
X045783Y033924D01*
X045599Y034000D01*
X045401Y034000D01*
X045217Y033924D01*
X045076Y033783D01*
X045000Y033599D01*
X045000Y033401D01*
X045076Y033217D01*
X045038Y033310D02*
X043962Y033310D01*
X044000Y033468D02*
X045000Y033468D01*
X045011Y033627D02*
X043989Y033627D01*
X043922Y033785D02*
X045078Y033785D01*
X045264Y033944D02*
X043736Y033944D01*
X043783Y034076D02*
X043924Y034217D01*
X044000Y034401D01*
X044000Y034599D01*
X043924Y034783D01*
X043783Y034924D01*
X043599Y035000D01*
X043401Y035000D01*
X043217Y034924D01*
X043076Y034783D01*
X043000Y034599D01*
X043000Y034401D01*
X043076Y034217D01*
X043217Y034076D01*
X043401Y034000D01*
X043599Y034000D01*
X043783Y034076D01*
X043809Y034102D02*
X045191Y034102D01*
X045217Y034076D02*
X045401Y034000D01*
X045599Y034000D01*
X045783Y034076D01*
X045924Y034217D01*
X046000Y034401D01*
X046000Y034599D01*
X045924Y034783D01*
X045783Y034924D01*
X045599Y035000D01*
X045401Y035000D01*
X045217Y034924D01*
X045076Y034783D01*
X045000Y034599D01*
X045000Y034401D01*
X045076Y034217D01*
X045217Y034076D01*
X045058Y034261D02*
X043942Y034261D01*
X044000Y034419D02*
X045000Y034419D01*
X045000Y034578D02*
X044000Y034578D01*
X043943Y034736D02*
X045057Y034736D01*
X045187Y034895D02*
X043813Y034895D01*
X043728Y035053D02*
X045272Y035053D01*
X045217Y035076D02*
X045401Y035000D01*
X045599Y035000D01*
X045783Y035076D01*
X045924Y035217D01*
X046000Y035401D01*
X046000Y035599D01*
X045924Y035783D01*
X045783Y035924D01*
X045599Y036000D01*
X045783Y036076D01*
X045924Y036217D01*
X046000Y036401D01*
X046000Y036599D01*
X045924Y036783D01*
X045783Y036924D01*
X045599Y037000D01*
X045783Y037076D01*
X045924Y037217D01*
X046000Y037401D01*
X046000Y037599D01*
X045924Y037783D01*
X045783Y037924D01*
X045599Y038000D01*
X045401Y038000D01*
X045217Y037924D01*
X045076Y037783D01*
X045000Y037599D01*
X045000Y037401D01*
X045076Y037217D01*
X045217Y037076D01*
X045401Y037000D01*
X045599Y037000D01*
X045401Y037000D01*
X045217Y036924D01*
X045109Y036816D01*
X044670Y037254D01*
X044560Y037300D01*
X043958Y037300D01*
X044000Y037401D01*
X044000Y037599D01*
X043924Y037783D01*
X043783Y037924D01*
X043599Y038000D01*
X043783Y038076D01*
X043924Y038217D01*
X044000Y038401D01*
X044000Y038599D01*
X043958Y038700D01*
X044376Y038700D01*
X044746Y038330D01*
X044830Y038246D01*
X044940Y038200D01*
X045093Y038200D01*
X045217Y038076D01*
X045401Y038000D01*
X045599Y038000D01*
X045783Y038076D01*
X045924Y038217D01*
X046000Y038401D01*
X046000Y038599D01*
X045924Y038783D01*
X045783Y038924D01*
X045599Y039000D01*
X045783Y039076D01*
X045924Y039217D01*
X046000Y039401D01*
X046000Y039599D01*
X045924Y039783D01*
X045783Y039924D01*
X045599Y040000D01*
X045783Y040076D01*
X045924Y040217D01*
X046000Y040401D01*
X046000Y040599D01*
X045924Y040783D01*
X045783Y040924D01*
X045599Y041000D01*
X045401Y041000D01*
X045217Y040924D01*
X045076Y040783D01*
X045000Y040599D01*
X045000Y040401D01*
X045076Y040217D01*
X045217Y040076D01*
X045401Y040000D01*
X045599Y040000D01*
X045401Y040000D01*
X045217Y039924D01*
X045109Y039816D01*
X044754Y040170D01*
X044670Y040254D01*
X044560Y040300D01*
X043958Y040300D01*
X044000Y040401D01*
X044000Y040599D01*
X043924Y040783D01*
X043783Y040924D01*
X043599Y041000D01*
X043401Y041000D01*
X043217Y040924D01*
X043076Y040783D01*
X043000Y040599D01*
X043000Y040401D01*
X043042Y040300D01*
X037958Y040300D01*
X038000Y040401D01*
X038000Y040599D01*
X037924Y040783D01*
X037783Y040924D01*
X037599Y041000D01*
X037401Y041000D01*
X037217Y040924D01*
X037093Y040800D01*
X036440Y040800D01*
X036330Y040754D01*
X036000Y040424D01*
X036000Y040599D01*
X035924Y040783D01*
X035783Y040924D01*
X035599Y041000D01*
X035401Y041000D01*
X035217Y040924D01*
X035093Y040800D01*
X025907Y040800D01*
X025783Y040924D01*
X025599Y041000D01*
X025424Y041000D01*
X025170Y041254D01*
X025060Y041300D01*
X011940Y041300D01*
X011830Y041254D01*
X011746Y041170D01*
X011576Y041000D01*
X011401Y041000D01*
X011217Y040924D01*
X011076Y040783D01*
X011000Y040599D01*
X011000Y040401D01*
X011076Y040217D01*
X011217Y040076D01*
X011401Y040000D01*
X011217Y039924D01*
X011076Y039783D01*
X011000Y039599D01*
X011000Y039401D01*
X011076Y039217D01*
X011217Y039076D01*
X011401Y039000D01*
X011217Y038924D01*
X011076Y038783D01*
X011000Y038599D01*
X011000Y038401D01*
X011076Y038217D01*
X011217Y038076D01*
X011401Y038000D01*
X011217Y037924D01*
X011076Y037783D01*
X011000Y037599D01*
X011000Y037401D01*
X011076Y037217D01*
X011217Y037076D01*
X011401Y037000D01*
X011217Y036924D01*
X011076Y036783D01*
X011000Y036599D01*
X011000Y036401D01*
X011076Y036217D01*
X011217Y036076D01*
X011401Y036000D01*
X011217Y035924D01*
X011076Y035783D01*
X011000Y035599D01*
X011000Y035401D01*
X011076Y035217D01*
X011217Y035076D01*
X011401Y035000D01*
X011217Y034924D01*
X011076Y034783D01*
X011000Y034599D01*
X011000Y034401D01*
X011076Y034217D01*
X011217Y034076D01*
X011401Y034000D01*
X011217Y033924D01*
X011076Y033783D01*
X011000Y033599D01*
X011000Y033401D01*
X011076Y033217D01*
X011217Y033076D01*
X011401Y033000D01*
X011599Y033000D01*
X011783Y033076D01*
X011907Y033200D01*
X012276Y033200D01*
X012246Y033170D01*
X012200Y033060D01*
X012200Y032940D01*
X012246Y032830D01*
X012330Y032746D01*
X012440Y032700D01*
X012560Y032700D01*
X012670Y032746D01*
X013109Y033184D01*
X013217Y033076D01*
X013401Y033000D01*
X013599Y033000D01*
X013783Y033076D01*
X013907Y033200D01*
X023093Y033200D01*
X023217Y033076D01*
X023401Y033000D01*
X023599Y033000D01*
X023783Y033076D01*
X023907Y033200D01*
X024376Y033200D01*
X024830Y032746D01*
X024940Y032700D01*
X025042Y032700D01*
X025000Y032599D01*
X025000Y032401D01*
X025076Y032217D01*
X025217Y032076D01*
X025401Y032000D01*
X025599Y032000D01*
X025783Y032076D01*
X025924Y032217D01*
X026000Y032401D01*
X026000Y032599D01*
X025958Y032700D01*
X035042Y032700D01*
X035000Y032599D01*
X035000Y032401D01*
X035076Y032217D01*
X035217Y032076D01*
X035401Y032000D01*
X035217Y031924D01*
X035076Y031783D01*
X035000Y031599D01*
X035000Y031401D01*
X035076Y031217D01*
X035217Y031076D01*
X035401Y031000D01*
X035599Y031000D01*
X035783Y031076D01*
X035924Y031217D01*
X036000Y031401D01*
X036000Y031599D01*
X035924Y031783D01*
X035783Y031924D01*
X035599Y032000D01*
X035401Y032000D01*
X035599Y032000D01*
X035783Y032076D01*
X035924Y032217D01*
X036000Y032401D01*
X036000Y032599D01*
X035958Y032700D01*
X036560Y032700D01*
X036670Y032746D01*
X037109Y033184D01*
X037217Y033076D01*
X037401Y033000D01*
X037217Y032924D01*
X037076Y032783D01*
X037000Y032599D01*
X037000Y032401D01*
X037076Y032217D01*
X037217Y032076D01*
X037401Y032000D01*
X037217Y031924D01*
X037076Y031783D01*
X037000Y031599D01*
X037000Y031401D01*
X037076Y031217D01*
X037217Y031076D01*
X037401Y031000D01*
X037599Y031000D01*
X037783Y031076D01*
X037924Y031217D01*
X038000Y031401D01*
X038000Y031599D01*
X037924Y031783D01*
X037783Y031924D01*
X037599Y032000D01*
X037401Y032000D01*
X037599Y032000D01*
X037783Y032076D01*
X037924Y032217D01*
X038000Y032401D01*
X038000Y032599D01*
X037924Y032783D01*
X037783Y032924D01*
X037599Y033000D01*
X037401Y033000D01*
X037599Y033000D01*
X037783Y033076D01*
X037924Y033217D01*
X038000Y033401D01*
X038000Y033599D01*
X037924Y033783D01*
X037783Y033924D01*
X037599Y034000D01*
X037783Y034076D01*
X037924Y034217D01*
X038000Y034401D01*
X038000Y034599D01*
X037924Y034783D01*
X037783Y034924D01*
X037599Y035000D01*
X037783Y035076D01*
X037907Y035200D01*
X043093Y035200D01*
X043217Y035076D01*
X043401Y035000D01*
X043599Y035000D01*
X043783Y035076D01*
X043924Y035217D01*
X044000Y035401D01*
X044000Y035599D01*
X043958Y035700D01*
X044376Y035700D01*
X044746Y035330D01*
X044830Y035246D01*
X044940Y035200D01*
X045093Y035200D01*
X045217Y035076D01*
X044912Y035212D02*
X043919Y035212D01*
X043987Y035370D02*
X044706Y035370D01*
X044547Y035529D02*
X044000Y035529D01*
X043964Y035687D02*
X044389Y035687D01*
X044500Y036000D02*
X045000Y035500D01*
X045500Y035500D01*
X045964Y035687D02*
X052995Y035687D01*
X052995Y035529D02*
X046000Y035529D01*
X045987Y035370D02*
X052995Y035370D01*
X052995Y035212D02*
X045919Y035212D01*
X045728Y035053D02*
X052995Y035053D01*
X052995Y034895D02*
X045813Y034895D01*
X045943Y034736D02*
X052995Y034736D01*
X052995Y034578D02*
X046000Y034578D01*
X046000Y034419D02*
X052995Y034419D01*
X052995Y034261D02*
X045942Y034261D01*
X045809Y034102D02*
X052995Y034102D01*
X052995Y033944D02*
X045736Y033944D01*
X045922Y033785D02*
X052995Y033785D01*
X052995Y033627D02*
X045989Y033627D01*
X046000Y033468D02*
X052995Y033468D01*
X052995Y033310D02*
X046810Y033310D01*
X046748Y033371D02*
X046587Y033438D01*
X046413Y033438D01*
X046252Y033371D01*
X046129Y033248D01*
X046062Y033087D01*
X046062Y032913D01*
X046129Y032752D01*
X046252Y032629D01*
X046413Y032562D01*
X046587Y032562D01*
X046748Y032629D01*
X046871Y032752D01*
X046938Y032913D01*
X046938Y033087D01*
X046871Y033248D01*
X046748Y033371D01*
X046911Y033151D02*
X052995Y033151D01*
X052995Y032993D02*
X046938Y032993D01*
X046905Y032834D02*
X052995Y032834D01*
X052995Y032676D02*
X046795Y032676D01*
X046205Y032676D02*
X045968Y032676D01*
X046000Y032517D02*
X052995Y032517D01*
X052995Y032359D02*
X045983Y032359D01*
X045907Y032200D02*
X052995Y032200D01*
X052995Y032042D02*
X045700Y032042D01*
X045824Y031883D02*
X052995Y031883D01*
X052995Y031725D02*
X045948Y031725D01*
X046000Y031566D02*
X052995Y031566D01*
X052995Y031408D02*
X046000Y031408D01*
X045937Y031249D02*
X052995Y031249D01*
X052995Y031091D02*
X045798Y031091D01*
X045764Y030932D02*
X052995Y030932D01*
X052995Y030774D02*
X045928Y030774D01*
X045994Y030615D02*
X052995Y030615D01*
X052995Y030457D02*
X046000Y030457D01*
X045958Y030298D02*
X052995Y030298D01*
X052995Y030140D02*
X045847Y030140D01*
X043153Y030140D02*
X037847Y030140D01*
X037958Y030298D02*
X043042Y030298D01*
X043000Y030457D02*
X038000Y030457D01*
X037994Y030615D02*
X043006Y030615D01*
X043072Y030774D02*
X037928Y030774D01*
X037764Y030932D02*
X043236Y030932D01*
X043202Y031091D02*
X037798Y031091D01*
X037937Y031249D02*
X043063Y031249D01*
X043000Y031408D02*
X038000Y031408D01*
X038000Y031566D02*
X043000Y031566D01*
X043052Y031725D02*
X037948Y031725D01*
X037824Y031883D02*
X043176Y031883D01*
X043300Y032042D02*
X037700Y032042D01*
X037907Y032200D02*
X043093Y032200D01*
X043017Y032359D02*
X037983Y032359D01*
X038000Y032517D02*
X043000Y032517D01*
X043032Y032676D02*
X037968Y032676D01*
X037873Y032834D02*
X043127Y032834D01*
X043383Y032993D02*
X037617Y032993D01*
X037383Y032993D02*
X036917Y032993D01*
X037075Y033151D02*
X037142Y033151D01*
X037127Y032834D02*
X036758Y032834D01*
X036500Y033000D02*
X037000Y033500D01*
X037500Y033500D01*
X037962Y033310D02*
X043038Y033310D01*
X043000Y033468D02*
X038000Y033468D01*
X037989Y033627D02*
X043011Y033627D01*
X043078Y033785D02*
X037922Y033785D01*
X037736Y033944D02*
X043264Y033944D01*
X043191Y034102D02*
X037809Y034102D01*
X037942Y034261D02*
X043058Y034261D01*
X043000Y034419D02*
X038000Y034419D01*
X038000Y034578D02*
X043000Y034578D01*
X043057Y034736D02*
X037943Y034736D01*
X037813Y034895D02*
X043187Y034895D01*
X043272Y035053D02*
X037728Y035053D01*
X037599Y035000D02*
X037401Y035000D01*
X037217Y035076D01*
X037109Y035184D01*
X036670Y034746D01*
X036560Y034700D01*
X035958Y034700D01*
X036000Y034599D01*
X036000Y034401D01*
X035958Y034300D01*
X036376Y034300D01*
X036830Y034754D01*
X036940Y034800D01*
X037093Y034800D01*
X037217Y034924D01*
X037401Y035000D01*
X037599Y035000D01*
X037272Y035053D02*
X036977Y035053D01*
X036819Y034895D02*
X037187Y034895D01*
X036812Y034736D02*
X036647Y034736D01*
X036653Y034578D02*
X036000Y034578D01*
X036000Y034419D02*
X036495Y034419D01*
X036500Y034000D02*
X037000Y034500D01*
X037500Y034500D01*
X037109Y034184D02*
X037217Y034076D01*
X037401Y034000D01*
X037599Y034000D01*
X037401Y034000D01*
X037217Y033924D01*
X037093Y033800D01*
X036940Y033800D01*
X036830Y033754D01*
X036746Y033670D01*
X036376Y033300D01*
X035958Y033300D01*
X036000Y033401D01*
X036000Y033599D01*
X035958Y033700D01*
X036560Y033700D01*
X036670Y033746D01*
X037109Y034184D01*
X037191Y034102D02*
X037026Y034102D01*
X036868Y033944D02*
X037264Y033944D01*
X036904Y033785D02*
X036709Y033785D01*
X036702Y033627D02*
X035989Y033627D01*
X036000Y033468D02*
X036544Y033468D01*
X036385Y033310D02*
X035962Y033310D01*
X035500Y033500D02*
X025500Y033500D01*
X025000Y033500D01*
X024500Y034000D01*
X013000Y034000D01*
X012500Y033500D01*
X011500Y033500D01*
X011038Y033310D02*
X001005Y033310D01*
X001005Y033468D02*
X011000Y033468D01*
X011011Y033627D02*
X001005Y033627D01*
X001005Y033785D02*
X011078Y033785D01*
X011264Y033944D02*
X001005Y033944D01*
X001005Y034102D02*
X011191Y034102D01*
X011058Y034261D02*
X001005Y034261D01*
X001005Y034419D02*
X011000Y034419D01*
X011000Y034578D02*
X001005Y034578D01*
X001005Y034736D02*
X011057Y034736D01*
X011187Y034895D02*
X001005Y034895D01*
X001005Y035053D02*
X011272Y035053D01*
X011401Y035000D02*
X011599Y035000D01*
X011783Y034924D01*
X011907Y034800D01*
X012276Y034800D01*
X012246Y034830D01*
X012200Y034940D01*
X012200Y035060D01*
X012246Y035170D01*
X012276Y035200D01*
X011907Y035200D01*
X011783Y035076D01*
X011599Y035000D01*
X011401Y035000D01*
X011728Y035053D02*
X012200Y035053D01*
X012219Y034895D02*
X011813Y034895D01*
X011500Y034500D02*
X012500Y034500D01*
X013000Y035000D01*
X024500Y035000D01*
X025000Y034500D01*
X025500Y034500D01*
X035500Y034500D01*
X035500Y035500D02*
X036500Y035500D01*
X037000Y036000D01*
X044500Y036000D01*
X044560Y036300D02*
X043958Y036300D01*
X044000Y036401D01*
X044000Y036599D01*
X043958Y036700D01*
X044376Y036700D01*
X044746Y036330D01*
X044830Y036246D01*
X044940Y036200D01*
X045093Y036200D01*
X045217Y036076D01*
X045401Y036000D01*
X045599Y036000D01*
X045401Y036000D01*
X045217Y035924D01*
X045109Y035816D01*
X044670Y036254D01*
X044560Y036300D01*
X044596Y036480D02*
X044000Y036480D01*
X043984Y036638D02*
X044438Y036638D01*
X044500Y037000D02*
X045000Y036500D01*
X045500Y036500D01*
X045967Y036321D02*
X052995Y036321D01*
X052995Y036163D02*
X045870Y036163D01*
X045609Y036004D02*
X052995Y036004D01*
X052995Y035846D02*
X045862Y035846D01*
X045391Y036004D02*
X044920Y036004D01*
X044762Y036163D02*
X045130Y036163D01*
X045138Y035846D02*
X045079Y035846D01*
X044755Y036321D02*
X043967Y036321D01*
X043500Y036500D02*
X037500Y036500D01*
X037000Y036500D01*
X036500Y036000D01*
X025000Y035950D01*
X024500Y036450D01*
X023550Y036450D01*
X023500Y036500D01*
X023450Y036450D01*
X013500Y036500D01*
X013000Y036500D01*
X012500Y036000D01*
X012200Y036004D02*
X011609Y036004D01*
X011599Y036000D02*
X011783Y036076D01*
X011907Y036200D01*
X012276Y036200D01*
X012246Y036170D01*
X012200Y036060D01*
X012200Y035940D01*
X012246Y035830D01*
X012276Y035800D01*
X011907Y035800D01*
X011783Y035924D01*
X011599Y036000D01*
X011401Y036000D01*
X011599Y036000D01*
X011391Y036004D02*
X001005Y036004D01*
X001005Y035846D02*
X011138Y035846D01*
X011036Y035687D02*
X001005Y035687D01*
X001005Y035529D02*
X011000Y035529D01*
X011013Y035370D02*
X001005Y035370D01*
X001005Y035212D02*
X011081Y035212D01*
X011500Y035500D02*
X012500Y035500D01*
X013000Y036000D01*
X024500Y036000D01*
X025000Y035500D01*
X025500Y035500D01*
X035500Y035500D01*
X035500Y036500D02*
X036500Y036500D01*
X037000Y037000D01*
X044500Y037000D01*
X044627Y037272D02*
X045053Y037272D01*
X045000Y037431D02*
X044000Y037431D01*
X044000Y037589D02*
X045000Y037589D01*
X045061Y037748D02*
X043939Y037748D01*
X043801Y037906D02*
X045199Y037906D01*
X045245Y038065D02*
X043755Y038065D01*
X043599Y038000D02*
X043401Y038000D01*
X043217Y038076D01*
X043093Y038200D01*
X037907Y038200D01*
X037783Y038076D01*
X037599Y038000D01*
X037401Y038000D01*
X037217Y038076D01*
X037109Y038184D01*
X036670Y037746D01*
X036560Y037700D01*
X035958Y037700D01*
X036000Y037599D01*
X036000Y037401D01*
X035958Y037300D01*
X036376Y037300D01*
X036746Y037670D01*
X036830Y037754D01*
X036940Y037800D01*
X037093Y037800D01*
X037217Y037924D01*
X037401Y038000D01*
X037599Y038000D01*
X037783Y037924D01*
X037924Y037783D01*
X038000Y037599D01*
X038000Y037401D01*
X037958Y037300D01*
X043042Y037300D01*
X043000Y037401D01*
X043000Y037599D01*
X043076Y037783D01*
X043217Y037924D01*
X043401Y038000D01*
X043599Y038000D01*
X043245Y038065D02*
X037755Y038065D01*
X037801Y037906D02*
X043199Y037906D01*
X043061Y037748D02*
X037939Y037748D01*
X038000Y037589D02*
X043000Y037589D01*
X043000Y037431D02*
X038000Y037431D01*
X037500Y037450D02*
X037500Y037500D01*
X037000Y037500D01*
X036500Y037000D01*
X025000Y037000D01*
X024500Y037500D01*
X023500Y037500D01*
X013500Y037500D01*
X013000Y037500D01*
X012500Y037000D01*
X012222Y037114D02*
X011821Y037114D01*
X011783Y037076D02*
X011907Y037200D01*
X012276Y037200D01*
X012246Y037170D01*
X012200Y037060D01*
X012200Y036940D01*
X012246Y036830D01*
X012276Y036800D01*
X011907Y036800D01*
X011783Y036924D01*
X011599Y037000D01*
X011401Y037000D01*
X011599Y037000D01*
X011783Y037076D01*
X011708Y036955D02*
X012200Y036955D01*
X012500Y036500D02*
X011500Y036500D01*
X011033Y036321D02*
X001005Y036321D01*
X001005Y036163D02*
X011130Y036163D01*
X011000Y036480D02*
X001005Y036480D01*
X001005Y036638D02*
X011016Y036638D01*
X011089Y036797D02*
X001005Y036797D01*
X001005Y036955D02*
X011292Y036955D01*
X011179Y037114D02*
X001005Y037114D01*
X001005Y037272D02*
X011053Y037272D01*
X011000Y037431D02*
X001005Y037431D01*
X001005Y037589D02*
X011000Y037589D01*
X011061Y037748D02*
X001005Y037748D01*
X001005Y037906D02*
X011199Y037906D01*
X011245Y038065D02*
X001005Y038065D01*
X001005Y038223D02*
X011074Y038223D01*
X011008Y038382D02*
X001005Y038382D01*
X001005Y038540D02*
X011000Y038540D01*
X011041Y038699D02*
X001005Y038699D01*
X001005Y038857D02*
X011150Y038857D01*
X011363Y039016D02*
X001005Y039016D01*
X001005Y039174D02*
X011119Y039174D01*
X011028Y039333D02*
X001005Y039333D01*
X001005Y039491D02*
X011000Y039491D01*
X011021Y039650D02*
X001005Y039650D01*
X001005Y039808D02*
X011101Y039808D01*
X011320Y039967D02*
X001005Y039967D01*
X001005Y040125D02*
X011168Y040125D01*
X011048Y040284D02*
X001005Y040284D01*
X001005Y040442D02*
X011000Y040442D01*
X011000Y040601D02*
X001005Y040601D01*
X001005Y040759D02*
X011066Y040759D01*
X011210Y040918D02*
X001005Y040918D01*
X001005Y041076D02*
X011652Y041076D01*
X011810Y041235D02*
X001005Y041235D01*
X001005Y041393D02*
X052995Y041393D01*
X052995Y041235D02*
X025190Y041235D01*
X025348Y041076D02*
X052995Y041076D01*
X052995Y040918D02*
X045790Y040918D01*
X045934Y040759D02*
X052995Y040759D01*
X052995Y040601D02*
X046000Y040601D01*
X046000Y040442D02*
X052995Y040442D01*
X052995Y040284D02*
X045952Y040284D01*
X045832Y040125D02*
X052995Y040125D01*
X052995Y039967D02*
X045680Y039967D01*
X045899Y039808D02*
X052995Y039808D01*
X052995Y039650D02*
X045979Y039650D01*
X046000Y039491D02*
X052995Y039491D01*
X052995Y039333D02*
X045972Y039333D01*
X045881Y039174D02*
X052995Y039174D01*
X052995Y039016D02*
X045637Y039016D01*
X045599Y039000D02*
X045401Y039000D01*
X045217Y039076D01*
X045093Y039200D01*
X044940Y039200D01*
X044830Y039246D01*
X044746Y039330D01*
X044746Y039330D01*
X044376Y039700D01*
X043958Y039700D01*
X044000Y039599D01*
X044000Y039401D01*
X043958Y039300D01*
X044560Y039300D01*
X044670Y039254D01*
X045109Y038816D01*
X045217Y038924D01*
X045401Y039000D01*
X045599Y039000D01*
X045363Y039016D02*
X044909Y039016D01*
X044750Y039174D02*
X045119Y039174D01*
X045150Y038857D02*
X045067Y038857D01*
X045000Y038500D02*
X045500Y038500D01*
X045000Y038500D02*
X044500Y039000D01*
X037000Y039000D01*
X036500Y038500D01*
X035500Y038500D01*
X025500Y038500D01*
X025000Y038500D01*
X024500Y039000D01*
X013000Y039000D01*
X012500Y038500D01*
X011500Y038500D01*
X011850Y038857D02*
X012234Y038857D01*
X012246Y038830D02*
X012276Y038800D01*
X011907Y038800D01*
X011783Y038924D01*
X011599Y039000D01*
X011401Y039000D01*
X011599Y039000D01*
X011783Y039076D01*
X011907Y039200D01*
X012276Y039200D01*
X012246Y039170D01*
X012200Y039060D01*
X012200Y038940D01*
X012246Y038830D01*
X012200Y039016D02*
X011637Y039016D01*
X011881Y039174D02*
X012250Y039174D01*
X012500Y039000D02*
X013000Y039500D01*
X013500Y039500D01*
X023500Y039500D01*
X024500Y039500D01*
X025000Y039000D01*
X036500Y039000D01*
X037000Y039500D01*
X037500Y039500D01*
X043500Y039500D01*
X044000Y039491D02*
X044585Y039491D01*
X044743Y039333D02*
X043972Y039333D01*
X043979Y039650D02*
X044426Y039650D01*
X044500Y040000D02*
X045000Y039500D01*
X045500Y039500D01*
X045320Y039967D02*
X044958Y039967D01*
X044799Y040125D02*
X045168Y040125D01*
X045048Y040284D02*
X044599Y040284D01*
X044754Y040170D02*
X044754Y040170D01*
X044500Y040000D02*
X036500Y040000D01*
X036000Y039500D01*
X035500Y039500D01*
X025500Y039500D01*
X025000Y039500D01*
X024500Y040000D01*
X013000Y040000D01*
X012500Y039500D01*
X011500Y039500D01*
X011680Y039967D02*
X012542Y039967D01*
X012701Y040125D02*
X011832Y040125D01*
X011783Y040076D02*
X011924Y040217D01*
X012000Y040401D01*
X012000Y040576D01*
X012124Y040700D01*
X013042Y040700D01*
X013000Y040599D01*
X013000Y040401D01*
X013042Y040300D01*
X012940Y040300D01*
X012830Y040254D01*
X012376Y039800D01*
X011907Y039800D01*
X011783Y039924D01*
X011599Y040000D01*
X011401Y040000D01*
X011599Y040000D01*
X011783Y040076D01*
X011952Y040284D02*
X012901Y040284D01*
X013000Y040442D02*
X012000Y040442D01*
X012025Y040601D02*
X013000Y040601D01*
X013500Y040500D02*
X023500Y040500D01*
X024500Y040500D01*
X025000Y040000D01*
X036000Y040000D01*
X036500Y040500D01*
X037500Y040500D01*
X037500Y040450D01*
X038000Y040442D02*
X043000Y040442D01*
X043000Y040601D02*
X038000Y040601D01*
X037934Y040759D02*
X043066Y040759D01*
X043210Y040918D02*
X037790Y040918D01*
X037210Y040918D02*
X035790Y040918D01*
X035934Y040759D02*
X036341Y040759D01*
X036176Y040601D02*
X036000Y040601D01*
X036000Y040442D02*
X036018Y040442D01*
X035500Y040500D02*
X025500Y040500D01*
X025000Y041000D01*
X012000Y041000D01*
X011500Y040500D01*
X011899Y039808D02*
X012384Y039808D01*
X013500Y040500D02*
X013550Y040450D01*
X013500Y038500D02*
X013000Y038500D01*
X012500Y038000D01*
X012276Y038200D02*
X012246Y038170D01*
X012200Y038060D01*
X012200Y037940D01*
X012246Y037830D01*
X012276Y037800D01*
X011907Y037800D01*
X011783Y037924D01*
X011599Y038000D01*
X011401Y038000D01*
X011599Y038000D01*
X011783Y038076D01*
X011907Y038200D01*
X012276Y038200D01*
X012202Y038065D02*
X011755Y038065D01*
X011801Y037906D02*
X012214Y037906D01*
X012500Y037500D02*
X011500Y037500D01*
X012500Y037500D02*
X013000Y038000D01*
X024500Y038000D01*
X025000Y037500D01*
X025500Y037500D01*
X035500Y037500D01*
X036000Y037431D02*
X036506Y037431D01*
X036665Y037589D02*
X036000Y037589D01*
X036500Y038000D02*
X037000Y038500D01*
X037500Y038500D01*
X043500Y038500D01*
X043959Y038699D02*
X044377Y038699D01*
X044536Y038540D02*
X044000Y038540D01*
X043992Y038382D02*
X044694Y038382D01*
X044885Y038223D02*
X043926Y038223D01*
X044811Y037114D02*
X045179Y037114D01*
X045292Y036955D02*
X044969Y036955D01*
X045708Y036955D02*
X052995Y036955D01*
X052995Y036797D02*
X045911Y036797D01*
X045984Y036638D02*
X052995Y036638D01*
X052995Y036480D02*
X046000Y036480D01*
X045821Y037114D02*
X052995Y037114D01*
X052995Y037272D02*
X045947Y037272D01*
X046000Y037431D02*
X052995Y037431D01*
X052995Y037589D02*
X046000Y037589D01*
X045939Y037748D02*
X052995Y037748D01*
X052995Y037906D02*
X045801Y037906D01*
X045755Y038065D02*
X052995Y038065D01*
X052995Y038223D02*
X045926Y038223D01*
X045992Y038382D02*
X052995Y038382D01*
X052995Y038540D02*
X046000Y038540D01*
X045959Y038699D02*
X052995Y038699D01*
X052995Y038857D02*
X045850Y038857D01*
X045000Y040442D02*
X044000Y040442D01*
X044000Y040601D02*
X045000Y040601D01*
X045066Y040759D02*
X043934Y040759D01*
X043790Y040918D02*
X045210Y040918D01*
X044756Y042690D02*
X044484Y042690D01*
X044222Y042760D01*
X043988Y042896D01*
X043796Y043088D01*
X043660Y043322D01*
X043590Y043584D01*
X043590Y043856D01*
X043660Y044118D01*
X043796Y044352D01*
X043988Y044544D01*
X044222Y044680D01*
X044484Y044750D01*
X044756Y044750D01*
X045018Y044680D01*
X045252Y044544D01*
X045444Y044352D01*
X045580Y044118D01*
X045650Y043856D01*
X045650Y043584D01*
X045580Y043322D01*
X045444Y043088D01*
X045252Y042896D01*
X045018Y042760D01*
X044756Y042690D01*
X045120Y042820D02*
X052995Y042820D01*
X052995Y042978D02*
X045335Y042978D01*
X045472Y043137D02*
X052995Y043137D01*
X052995Y043295D02*
X045564Y043295D01*
X045615Y043454D02*
X052995Y043454D01*
X052995Y043612D02*
X045650Y043612D01*
X045650Y043771D02*
X052995Y043771D01*
X052995Y043929D02*
X045630Y043929D01*
X045588Y044088D02*
X052995Y044088D01*
X052995Y044246D02*
X045506Y044246D01*
X045392Y044405D02*
X052995Y044405D01*
X052995Y044563D02*
X045220Y044563D01*
X044862Y044722D02*
X052995Y044722D01*
X052995Y044880D02*
X001005Y044880D01*
X001005Y044722D02*
X012138Y044722D01*
X012244Y044750D02*
X011982Y044680D01*
X011748Y044544D01*
X011556Y044352D01*
X011420Y044118D01*
X011350Y043856D01*
X011350Y043584D01*
X011420Y043322D01*
X011556Y043088D01*
X011748Y042896D01*
X011982Y042760D01*
X012244Y042690D01*
X012516Y042690D01*
X012778Y042760D01*
X013012Y042896D01*
X013204Y043088D01*
X013340Y043322D01*
X013410Y043584D01*
X013410Y043856D01*
X013340Y044118D01*
X013204Y044352D01*
X013012Y044544D01*
X012778Y044680D01*
X012516Y044750D01*
X012244Y044750D01*
X012622Y044722D02*
X024378Y044722D01*
X024484Y044750D02*
X024222Y044680D01*
X023988Y044544D01*
X023796Y044352D01*
X023660Y044118D01*
X023590Y043856D01*
X023590Y043584D01*
X023660Y043322D01*
X023796Y043088D01*
X023988Y042896D01*
X024222Y042760D01*
X024484Y042690D01*
X024756Y042690D01*
X025018Y042760D01*
X025252Y042896D01*
X025444Y043088D01*
X025580Y043322D01*
X025650Y043584D01*
X025650Y043856D01*
X025580Y044118D01*
X025444Y044352D01*
X025252Y044544D01*
X025018Y044680D01*
X024756Y044750D01*
X024484Y044750D01*
X024862Y044722D02*
X036138Y044722D01*
X036244Y044750D02*
X035982Y044680D01*
X035748Y044544D01*
X035556Y044352D01*
X035420Y044118D01*
X035350Y043856D01*
X035350Y043584D01*
X035420Y043322D01*
X035556Y043088D01*
X035748Y042896D01*
X035982Y042760D01*
X036244Y042690D01*
X036516Y042690D01*
X036778Y042760D01*
X037012Y042896D01*
X037204Y043088D01*
X037340Y043322D01*
X037410Y043584D01*
X037410Y043856D01*
X037340Y044118D01*
X037204Y044352D01*
X037012Y044544D01*
X036778Y044680D01*
X036516Y044750D01*
X036244Y044750D01*
X036622Y044722D02*
X044378Y044722D01*
X044020Y044563D02*
X036980Y044563D01*
X037152Y044405D02*
X043848Y044405D01*
X043734Y044246D02*
X037266Y044246D01*
X037348Y044088D02*
X043652Y044088D01*
X043610Y043929D02*
X037390Y043929D01*
X037410Y043771D02*
X043590Y043771D01*
X043590Y043612D02*
X037410Y043612D01*
X037375Y043454D02*
X043625Y043454D01*
X043676Y043295D02*
X037324Y043295D01*
X037232Y043137D02*
X043768Y043137D01*
X043905Y042978D02*
X037095Y042978D01*
X036880Y042820D02*
X044120Y042820D01*
X037500Y039500D02*
X037500Y039450D01*
X037245Y038065D02*
X036989Y038065D01*
X036830Y037906D02*
X037199Y037906D01*
X036823Y037748D02*
X036672Y037748D01*
X036500Y038000D02*
X025000Y038000D01*
X024500Y038500D01*
X023500Y038500D01*
X013500Y038500D01*
X013000Y037000D02*
X024500Y037000D01*
X025000Y036500D01*
X025500Y036500D01*
X035500Y036500D01*
X037000Y035500D02*
X037500Y035500D01*
X043500Y035500D01*
X043142Y033151D02*
X037858Y033151D01*
X037032Y032676D02*
X035968Y032676D01*
X036000Y032517D02*
X037000Y032517D01*
X037017Y032359D02*
X035983Y032359D01*
X035907Y032200D02*
X037093Y032200D01*
X037300Y032042D02*
X035700Y032042D01*
X035824Y031883D02*
X037176Y031883D01*
X037052Y031725D02*
X035948Y031725D01*
X036000Y031566D02*
X037000Y031566D01*
X037000Y031408D02*
X036000Y031408D01*
X035937Y031249D02*
X037063Y031249D01*
X037202Y031091D02*
X035798Y031091D01*
X035764Y030932D02*
X037236Y030932D01*
X037072Y030774D02*
X035928Y030774D01*
X035994Y030615D02*
X037006Y030615D01*
X037000Y030457D02*
X036000Y030457D01*
X035958Y030298D02*
X037042Y030298D01*
X037153Y030140D02*
X035847Y030140D01*
X035885Y029823D02*
X037115Y029823D01*
X037027Y029664D02*
X035973Y029664D01*
X036000Y029506D02*
X037000Y029506D01*
X037022Y029347D02*
X035978Y029347D01*
X035896Y029189D02*
X037104Y029189D01*
X035328Y029030D02*
X033438Y029030D01*
X033438Y029087D02*
X033371Y029248D01*
X033248Y029371D01*
X033087Y029438D01*
X032913Y029438D01*
X032752Y029371D01*
X032629Y029248D01*
X032562Y029087D01*
X032562Y028913D01*
X032629Y028752D01*
X032752Y028629D01*
X032913Y028562D01*
X033087Y028562D01*
X033248Y028629D01*
X033371Y028752D01*
X033438Y028913D01*
X033438Y029087D01*
X033396Y029189D02*
X035104Y029189D01*
X035022Y029347D02*
X033272Y029347D01*
X033421Y028872D02*
X035164Y028872D01*
X035047Y028713D02*
X033332Y028713D01*
X032728Y029347D02*
X030772Y029347D01*
X030748Y029371D02*
X030587Y029438D01*
X030413Y029438D01*
X030252Y029371D01*
X030129Y029248D01*
X030062Y029087D01*
X030062Y028913D01*
X030129Y028752D01*
X030252Y028629D01*
X030413Y028562D01*
X030587Y028562D01*
X030748Y028629D01*
X030871Y028752D01*
X030938Y028913D01*
X030938Y029087D01*
X030871Y029248D01*
X030748Y029371D01*
X030896Y029189D02*
X032604Y029189D01*
X032562Y029030D02*
X030938Y029030D01*
X030921Y028872D02*
X032579Y028872D01*
X032668Y028713D02*
X030832Y028713D01*
X030168Y028713D02*
X028332Y028713D01*
X028371Y028752D02*
X028438Y028913D01*
X028438Y029087D01*
X028371Y029248D01*
X028248Y029371D01*
X028087Y029438D01*
X027913Y029438D01*
X027752Y029371D01*
X027629Y029248D01*
X027562Y029087D01*
X027562Y028913D01*
X027629Y028752D01*
X027752Y028629D01*
X027913Y028562D01*
X028087Y028562D01*
X028248Y028629D01*
X028371Y028752D01*
X028421Y028872D02*
X030079Y028872D01*
X030062Y029030D02*
X028438Y029030D01*
X028396Y029189D02*
X030104Y029189D01*
X030228Y029347D02*
X028272Y029347D01*
X027728Y029347D02*
X025978Y029347D01*
X026000Y029506D02*
X035000Y029506D01*
X035027Y029664D02*
X025973Y029664D01*
X025885Y029823D02*
X035115Y029823D01*
X035153Y030140D02*
X025847Y030140D01*
X025958Y030298D02*
X035042Y030298D01*
X035000Y030457D02*
X026000Y030457D01*
X025994Y030615D02*
X035006Y030615D01*
X035072Y030774D02*
X025928Y030774D01*
X025764Y030932D02*
X035236Y030932D01*
X035202Y031091D02*
X025798Y031091D01*
X025783Y031076D02*
X025924Y031217D01*
X026000Y031401D01*
X026000Y031599D01*
X025924Y031783D01*
X025783Y031924D01*
X025599Y032000D01*
X025401Y032000D01*
X025217Y031924D01*
X025076Y031783D01*
X025000Y031599D01*
X025000Y031401D01*
X025076Y031217D01*
X025217Y031076D01*
X025401Y031000D01*
X025599Y031000D01*
X025783Y031076D01*
X025937Y031249D02*
X035063Y031249D01*
X035000Y031408D02*
X026000Y031408D01*
X026000Y031566D02*
X035000Y031566D01*
X035052Y031725D02*
X025948Y031725D01*
X025824Y031883D02*
X035176Y031883D01*
X035300Y032042D02*
X025700Y032042D01*
X025907Y032200D02*
X035093Y032200D01*
X035017Y032359D02*
X025983Y032359D01*
X026000Y032517D02*
X035000Y032517D01*
X035032Y032676D02*
X025968Y032676D01*
X025300Y032042D02*
X023700Y032042D01*
X023783Y032076D02*
X023599Y032000D01*
X023401Y032000D01*
X023217Y031924D01*
X023076Y031783D01*
X023000Y031599D01*
X023000Y031401D01*
X023076Y031217D01*
X023217Y031076D01*
X023401Y031000D01*
X023599Y031000D01*
X023783Y031076D01*
X023924Y031217D01*
X024000Y031401D01*
X024000Y031599D01*
X023924Y031783D01*
X023783Y031924D01*
X023599Y032000D01*
X023401Y032000D01*
X023217Y032076D01*
X023076Y032217D01*
X023000Y032401D01*
X023000Y032599D01*
X023076Y032783D01*
X023217Y032924D01*
X023401Y033000D01*
X023599Y033000D01*
X023783Y032924D01*
X023924Y032783D01*
X024000Y032599D01*
X024000Y032401D01*
X023924Y032217D01*
X023783Y032076D01*
X023907Y032200D02*
X025093Y032200D01*
X025017Y032359D02*
X023983Y032359D01*
X024000Y032517D02*
X025000Y032517D01*
X025032Y032676D02*
X023968Y032676D01*
X023873Y032834D02*
X024742Y032834D01*
X024583Y032993D02*
X023617Y032993D01*
X023383Y032993D02*
X013617Y032993D01*
X013599Y033000D02*
X013401Y033000D01*
X013217Y032924D01*
X013076Y032783D01*
X013000Y032599D01*
X013000Y032401D01*
X013076Y032217D01*
X013217Y032076D01*
X013401Y032000D01*
X013217Y031924D01*
X013076Y031783D01*
X013000Y031599D01*
X013000Y031401D01*
X013076Y031217D01*
X013217Y031076D01*
X013401Y031000D01*
X013599Y031000D01*
X013783Y031076D01*
X013924Y031217D01*
X014000Y031401D01*
X014000Y031599D01*
X013924Y031783D01*
X013783Y031924D01*
X013599Y032000D01*
X013401Y032000D01*
X013599Y032000D01*
X013783Y032076D01*
X013924Y032217D01*
X014000Y032401D01*
X014000Y032599D01*
X013924Y032783D01*
X013783Y032924D01*
X013599Y033000D01*
X013383Y032993D02*
X012917Y032993D01*
X013075Y033151D02*
X013142Y033151D01*
X013127Y032834D02*
X012758Y032834D01*
X012500Y033000D02*
X013000Y033500D01*
X013500Y033500D01*
X023500Y033500D01*
X024500Y033500D01*
X025000Y033000D01*
X036500Y033000D01*
X036500Y034000D02*
X025000Y034000D01*
X024500Y034500D01*
X023500Y034500D01*
X013500Y034500D01*
X013000Y034500D01*
X012500Y034000D01*
X012218Y034102D02*
X011809Y034102D01*
X011783Y034076D02*
X011907Y034200D01*
X012276Y034200D01*
X012246Y034170D01*
X012200Y034060D01*
X012200Y033940D01*
X012246Y033830D01*
X012276Y033800D01*
X011907Y033800D01*
X011783Y033924D01*
X011599Y034000D01*
X011401Y034000D01*
X011599Y034000D01*
X011783Y034076D01*
X011736Y033944D02*
X012200Y033944D01*
X012238Y033151D02*
X011858Y033151D01*
X011783Y032924D02*
X011599Y033000D01*
X011401Y033000D01*
X011217Y032924D01*
X011076Y032783D01*
X011000Y032599D01*
X011000Y032401D01*
X011076Y032217D01*
X011217Y032076D01*
X011401Y032000D01*
X011217Y031924D01*
X011076Y031783D01*
X011000Y031599D01*
X011000Y031401D01*
X011076Y031217D01*
X011217Y031076D01*
X011401Y031000D01*
X011599Y031000D01*
X011783Y031076D01*
X011924Y031217D01*
X012000Y031401D01*
X012000Y031599D01*
X011924Y031783D01*
X011783Y031924D01*
X011599Y032000D01*
X011401Y032000D01*
X011599Y032000D01*
X011783Y032076D01*
X011924Y032217D01*
X012000Y032401D01*
X012000Y032599D01*
X011924Y032783D01*
X011783Y032924D01*
X011873Y032834D02*
X012244Y032834D01*
X012200Y032993D02*
X011617Y032993D01*
X011383Y032993D02*
X001005Y032993D01*
X001005Y033151D02*
X011142Y033151D01*
X011127Y032834D02*
X001005Y032834D01*
X001005Y032676D02*
X011032Y032676D01*
X011000Y032517D02*
X001005Y032517D01*
X001005Y032359D02*
X011017Y032359D01*
X011093Y032200D02*
X001005Y032200D01*
X001005Y032042D02*
X011300Y032042D01*
X011176Y031883D02*
X001005Y031883D01*
X001005Y031725D02*
X011052Y031725D01*
X011000Y031566D02*
X001005Y031566D01*
X001005Y031408D02*
X011000Y031408D01*
X011063Y031249D02*
X001005Y031249D01*
X001005Y031091D02*
X011202Y031091D01*
X011236Y030932D02*
X001005Y030932D01*
X001005Y030774D02*
X011072Y030774D01*
X011006Y030615D02*
X001005Y030615D01*
X001005Y030457D02*
X011000Y030457D01*
X011042Y030298D02*
X001005Y030298D01*
X001005Y030140D02*
X011153Y030140D01*
X011764Y030932D02*
X013236Y030932D01*
X013202Y031091D02*
X011798Y031091D01*
X011937Y031249D02*
X013063Y031249D01*
X013000Y031408D02*
X012000Y031408D01*
X012000Y031566D02*
X013000Y031566D01*
X013052Y031725D02*
X011948Y031725D01*
X011824Y031883D02*
X013176Y031883D01*
X013300Y032042D02*
X011700Y032042D01*
X011907Y032200D02*
X013093Y032200D01*
X013017Y032359D02*
X011983Y032359D01*
X012000Y032517D02*
X013000Y032517D01*
X013032Y032676D02*
X011968Y032676D01*
X013700Y032042D02*
X023300Y032042D01*
X023176Y031883D02*
X013824Y031883D01*
X013948Y031725D02*
X023052Y031725D01*
X023000Y031566D02*
X014000Y031566D01*
X014000Y031408D02*
X023000Y031408D01*
X023063Y031249D02*
X013937Y031249D01*
X013798Y031091D02*
X023202Y031091D01*
X023236Y030932D02*
X013764Y030932D01*
X013928Y030774D02*
X023072Y030774D01*
X023006Y030615D02*
X013994Y030615D01*
X014000Y030457D02*
X023000Y030457D01*
X023042Y030298D02*
X013958Y030298D01*
X013847Y030140D02*
X023153Y030140D01*
X023115Y029823D02*
X021797Y029823D01*
X021748Y029871D02*
X021587Y029938D01*
X021413Y029938D01*
X021252Y029871D01*
X021129Y029748D01*
X021062Y029587D01*
X021062Y029413D01*
X021129Y029252D01*
X021252Y029129D01*
X021413Y029062D01*
X021587Y029062D01*
X021748Y029129D01*
X021871Y029252D01*
X021938Y029413D01*
X021938Y029587D01*
X021871Y029748D01*
X021748Y029871D01*
X021906Y029664D02*
X023027Y029664D01*
X023000Y029506D02*
X021938Y029506D01*
X021911Y029347D02*
X023022Y029347D01*
X023104Y029189D02*
X021808Y029189D01*
X021192Y029189D02*
X018308Y029189D01*
X018248Y029129D02*
X018371Y029252D01*
X018438Y029413D01*
X018438Y029587D01*
X018371Y029748D01*
X018248Y029871D01*
X018087Y029938D01*
X017913Y029938D01*
X017752Y029871D01*
X017629Y029748D01*
X017562Y029587D01*
X017562Y029413D01*
X017629Y029252D01*
X017752Y029129D01*
X017913Y029062D01*
X018087Y029062D01*
X018248Y029129D01*
X018411Y029347D02*
X021089Y029347D01*
X021062Y029506D02*
X018438Y029506D01*
X018406Y029664D02*
X021094Y029664D01*
X021203Y029823D02*
X018297Y029823D01*
X017703Y029823D02*
X015797Y029823D01*
X015748Y029871D02*
X015587Y029938D01*
X015413Y029938D01*
X015252Y029871D01*
X015129Y029748D01*
X015062Y029587D01*
X015062Y029413D01*
X015129Y029252D01*
X015252Y029129D01*
X015413Y029062D01*
X015587Y029062D01*
X015748Y029129D01*
X015871Y029252D01*
X015938Y029413D01*
X015938Y029587D01*
X015871Y029748D01*
X015748Y029871D01*
X015906Y029664D02*
X017594Y029664D01*
X017562Y029506D02*
X015938Y029506D01*
X015911Y029347D02*
X017589Y029347D01*
X017692Y029189D02*
X015808Y029189D01*
X015192Y029189D02*
X013896Y029189D01*
X013978Y029347D02*
X015089Y029347D01*
X015062Y029506D02*
X014000Y029506D01*
X013973Y029664D02*
X015094Y029664D01*
X015203Y029823D02*
X013885Y029823D01*
X013115Y029823D02*
X011885Y029823D01*
X011973Y029664D02*
X013027Y029664D01*
X013000Y029506D02*
X012000Y029506D01*
X011978Y029347D02*
X013022Y029347D01*
X013104Y029189D02*
X011896Y029189D01*
X011672Y029030D02*
X013328Y029030D01*
X013164Y028872D02*
X011836Y028872D01*
X011953Y028713D02*
X013047Y028713D01*
X013000Y028555D02*
X012000Y028555D01*
X011998Y028396D02*
X013002Y028396D01*
X013068Y028238D02*
X011932Y028238D01*
X011786Y028079D02*
X013214Y028079D01*
X013213Y027921D02*
X011787Y027921D01*
X011933Y027762D02*
X013067Y027762D01*
X013002Y027604D02*
X011998Y027604D01*
X012000Y027445D02*
X013000Y027445D01*
X012908Y027287D02*
X011953Y027287D01*
X011835Y027128D02*
X012704Y027128D01*
X012545Y026970D02*
X011673Y026970D01*
X011896Y026811D02*
X012387Y026811D01*
X012500Y026500D02*
X013000Y027000D01*
X024500Y027000D01*
X025000Y026500D01*
X025500Y026500D01*
X035500Y026500D01*
X035327Y026970D02*
X025673Y026970D01*
X025835Y027128D02*
X035165Y027128D01*
X035047Y027287D02*
X025953Y027287D01*
X026000Y027445D02*
X035000Y027445D01*
X035002Y027604D02*
X025998Y027604D01*
X025933Y027762D02*
X035067Y027762D01*
X035213Y027921D02*
X025787Y027921D01*
X025786Y028079D02*
X035214Y028079D01*
X035068Y028238D02*
X025932Y028238D01*
X025998Y028396D02*
X035002Y028396D01*
X035000Y028555D02*
X026000Y028555D01*
X025953Y028713D02*
X027668Y028713D01*
X027579Y028872D02*
X025836Y028872D01*
X025672Y029030D02*
X027562Y029030D01*
X027604Y029189D02*
X025896Y029189D01*
X025328Y029030D02*
X023672Y029030D01*
X023836Y028872D02*
X025164Y028872D01*
X025047Y028713D02*
X023953Y028713D01*
X024000Y028555D02*
X025000Y028555D01*
X025002Y028396D02*
X023998Y028396D01*
X023932Y028238D02*
X025068Y028238D01*
X025214Y028079D02*
X023786Y028079D01*
X023787Y027921D02*
X025213Y027921D01*
X025067Y027762D02*
X023933Y027762D01*
X023998Y027604D02*
X025002Y027604D01*
X025000Y027445D02*
X024000Y027445D01*
X024592Y027287D02*
X025047Y027287D01*
X025165Y027128D02*
X024796Y027128D01*
X024754Y027170D02*
X024754Y027170D01*
X024955Y026970D02*
X025327Y026970D01*
X025896Y026811D02*
X035104Y026811D01*
X035500Y025500D02*
X025500Y025500D01*
X025000Y025500D01*
X024500Y026000D01*
X013000Y026000D01*
X012500Y025500D01*
X012500Y026500D02*
X011500Y026500D01*
X013787Y027921D02*
X023213Y027921D01*
X023214Y028079D02*
X013786Y028079D01*
X013932Y028238D02*
X023068Y028238D01*
X023002Y028396D02*
X013998Y028396D01*
X014000Y028555D02*
X023000Y028555D01*
X023047Y028713D02*
X013953Y028713D01*
X013836Y028872D02*
X023164Y028872D01*
X023328Y029030D02*
X013672Y029030D01*
X013153Y030140D02*
X011847Y030140D01*
X011958Y030298D02*
X013042Y030298D01*
X013000Y030457D02*
X012000Y030457D01*
X011994Y030615D02*
X013006Y030615D01*
X013072Y030774D02*
X011928Y030774D01*
X013907Y032200D02*
X023093Y032200D01*
X023017Y032359D02*
X013983Y032359D01*
X014000Y032517D02*
X023000Y032517D01*
X023032Y032676D02*
X013968Y032676D01*
X013873Y032834D02*
X023127Y032834D01*
X023142Y033151D02*
X013858Y033151D01*
X012500Y035000D02*
X013000Y035500D01*
X013500Y035500D01*
X023500Y035500D01*
X024500Y035500D01*
X025000Y035000D01*
X036500Y035000D01*
X037000Y035500D01*
X035500Y039450D02*
X035500Y039500D01*
X035450Y040450D02*
X035500Y040500D01*
X035210Y040918D02*
X025790Y040918D01*
X025120Y042820D02*
X035880Y042820D01*
X035665Y042978D02*
X025335Y042978D01*
X025472Y043137D02*
X035528Y043137D01*
X035436Y043295D02*
X025564Y043295D01*
X025615Y043454D02*
X035385Y043454D01*
X035350Y043612D02*
X025650Y043612D01*
X025650Y043771D02*
X035350Y043771D01*
X035370Y043929D02*
X025630Y043929D01*
X025588Y044088D02*
X035412Y044088D01*
X035494Y044246D02*
X025506Y044246D01*
X025392Y044405D02*
X035608Y044405D01*
X035780Y044563D02*
X025220Y044563D01*
X024020Y044563D02*
X012980Y044563D01*
X013152Y044405D02*
X023848Y044405D01*
X023734Y044246D02*
X013266Y044246D01*
X013348Y044088D02*
X023652Y044088D01*
X023610Y043929D02*
X013390Y043929D01*
X013410Y043771D02*
X023590Y043771D01*
X023590Y043612D02*
X013410Y043612D01*
X013375Y043454D02*
X023625Y043454D01*
X023676Y043295D02*
X013324Y043295D01*
X013232Y043137D02*
X023768Y043137D01*
X023905Y042978D02*
X013095Y042978D01*
X012880Y042820D02*
X024120Y042820D01*
X023858Y033151D02*
X024425Y033151D01*
X023824Y031883D02*
X025176Y031883D01*
X025052Y031725D02*
X023948Y031725D01*
X024000Y031566D02*
X025000Y031566D01*
X025000Y031408D02*
X024000Y031408D01*
X023937Y031249D02*
X025063Y031249D01*
X025202Y031091D02*
X023798Y031091D01*
X023764Y030932D02*
X025236Y030932D01*
X025072Y030774D02*
X023928Y030774D01*
X023994Y030615D02*
X025006Y030615D01*
X025000Y030457D02*
X024000Y030457D01*
X023958Y030298D02*
X025042Y030298D01*
X025153Y030140D02*
X023847Y030140D01*
X023885Y029823D02*
X025115Y029823D01*
X025027Y029664D02*
X023973Y029664D01*
X024000Y029506D02*
X025000Y029506D01*
X025022Y029347D02*
X023978Y029347D01*
X023896Y029189D02*
X025104Y029189D01*
X023067Y027762D02*
X013933Y027762D01*
X013998Y027604D02*
X023002Y027604D01*
X023000Y027445D02*
X014000Y027445D01*
X009228Y029347D02*
X001005Y029347D01*
X001005Y029189D02*
X009104Y029189D01*
X009062Y029030D02*
X001005Y029030D01*
X001005Y028872D02*
X009079Y028872D01*
X011862Y035846D02*
X012239Y035846D01*
X012243Y036163D02*
X011870Y036163D01*
X012500Y036500D02*
X013000Y037000D01*
X011880Y042820D02*
X001005Y042820D01*
X001005Y042978D02*
X011665Y042978D01*
X011528Y043137D02*
X001005Y043137D01*
X001005Y043295D02*
X011436Y043295D01*
X011385Y043454D02*
X001005Y043454D01*
X001005Y043612D02*
X011350Y043612D01*
X011350Y043771D02*
X001005Y043771D01*
X001005Y043929D02*
X011370Y043929D01*
X011412Y044088D02*
X001005Y044088D01*
X001005Y044246D02*
X011494Y044246D01*
X011608Y044405D02*
X001005Y044405D01*
X001005Y044563D02*
X011780Y044563D01*
X001005Y045039D02*
X052995Y045039D01*
X052995Y045197D02*
X001005Y045197D01*
X001005Y045356D02*
X052995Y045356D01*
X052995Y045514D02*
X001005Y045514D01*
X001005Y045673D02*
X052995Y045673D01*
X052995Y045831D02*
X001005Y045831D01*
X001005Y045990D02*
X052995Y045990D01*
X052995Y046148D02*
X001005Y046148D01*
X001005Y046307D02*
X052995Y046307D01*
X052995Y046465D02*
X001005Y046465D01*
X001005Y046624D02*
X052995Y046624D01*
X052995Y046782D02*
X001005Y046782D01*
X001005Y046941D02*
X052995Y046941D01*
X052995Y047099D02*
X001005Y047099D01*
X001005Y047258D02*
X052995Y047258D01*
X052995Y047416D02*
X001005Y047416D01*
X001005Y047575D02*
X052995Y047575D01*
X052995Y047733D02*
X001005Y047733D01*
X001005Y047892D02*
X052995Y047892D01*
X052995Y042661D02*
X001005Y042661D01*
X001005Y042503D02*
X052995Y042503D01*
X052995Y042344D02*
X001005Y042344D01*
X001005Y042186D02*
X052995Y042186D01*
X052995Y042027D02*
X001005Y042027D01*
X001005Y041869D02*
X052995Y041869D01*
X052995Y041710D02*
X001005Y041710D01*
X001005Y041552D02*
X052995Y041552D01*
X046190Y033310D02*
X045962Y033310D01*
X045858Y033151D02*
X046089Y033151D01*
X046062Y032993D02*
X045617Y032993D01*
X045383Y032993D02*
X043617Y032993D01*
X045873Y032834D02*
X046095Y032834D01*
X045356Y026019D02*
X043644Y026019D01*
X043116Y026177D02*
X037884Y026177D01*
X037973Y026336D02*
X043027Y026336D01*
X043127Y023166D02*
X037873Y023166D01*
X037859Y022849D02*
X043141Y022849D01*
X043038Y022690D02*
X037962Y022690D01*
X038000Y022532D02*
X043000Y022532D01*
X043011Y022373D02*
X037989Y022373D01*
X037922Y022215D02*
X043078Y022215D01*
X043118Y016826D02*
X037882Y016826D01*
X037972Y016667D02*
X043028Y016667D01*
X043000Y016509D02*
X038000Y016509D01*
X037979Y016350D02*
X043021Y016350D01*
X043500Y015500D02*
X037500Y015500D01*
X037000Y015500D01*
X036500Y015000D01*
X025000Y015000D01*
X024500Y015500D01*
X024628Y012863D02*
X023929Y012863D01*
X024021Y012705D02*
X024786Y012705D01*
X024940Y012546D02*
X024060Y012546D01*
X024060Y012388D02*
X024940Y012388D01*
X025006Y012229D02*
X023994Y012229D01*
X023862Y012071D02*
X025138Y012071D01*
X025862Y012071D02*
X035138Y012071D01*
X035006Y012229D02*
X025994Y012229D01*
X026060Y012388D02*
X034940Y012388D01*
X034940Y012546D02*
X026060Y012546D01*
X024184Y009218D02*
X019943Y009218D01*
X019813Y009059D02*
X023942Y009059D01*
X035862Y012071D02*
X037138Y012071D01*
X037006Y012229D02*
X035994Y012229D01*
X036060Y012388D02*
X036940Y012388D01*
X036940Y012546D02*
X036060Y012546D01*
X036714Y012705D02*
X036979Y012705D01*
X037071Y012863D02*
X036872Y012863D01*
X037500Y016500D02*
X035500Y016500D01*
X035882Y016826D02*
X037118Y016826D01*
X037199Y018094D02*
X035801Y018094D01*
X035938Y018252D02*
X037062Y018252D01*
X037000Y018411D02*
X036000Y018411D01*
X036000Y018569D02*
X037000Y018569D01*
X037053Y018728D02*
X036626Y018728D01*
X036810Y018886D02*
X037179Y018886D01*
X037293Y019045D02*
X036969Y019045D01*
X036596Y019520D02*
X036000Y019520D01*
X035984Y019362D02*
X036437Y019362D01*
X036500Y021000D02*
X025000Y021000D01*
X024500Y021500D01*
X023500Y021500D01*
X013500Y021500D01*
X013000Y021500D01*
X011390Y019996D02*
X001005Y019996D01*
X001005Y020154D02*
X011139Y020154D01*
X011130Y019837D02*
X001005Y019837D01*
X001005Y019679D02*
X011033Y019679D01*
X011000Y019520D02*
X001005Y019520D01*
X001005Y019362D02*
X011016Y019362D01*
X011090Y019203D02*
X001005Y019203D01*
X001005Y019045D02*
X011293Y019045D01*
X011179Y018886D02*
X001005Y018886D01*
X001005Y018728D02*
X011053Y018728D01*
X011000Y018569D02*
X001005Y018569D01*
X001005Y018411D02*
X011000Y018411D01*
X011062Y018252D02*
X001005Y018252D01*
X001005Y018094D02*
X011199Y018094D01*
X001005Y017935D02*
X052995Y017935D01*
X052995Y017777D02*
X001005Y017777D01*
X001005Y017618D02*
X052995Y017618D01*
X052995Y017460D02*
X001005Y017460D01*
X001005Y017301D02*
X052995Y017301D01*
X052995Y017143D02*
X001005Y017143D01*
X023450Y026500D02*
X023500Y026500D01*
X036000Y025543D02*
X036619Y025543D01*
X036563Y025702D02*
X036777Y025702D01*
X037000Y025500D02*
X037500Y025500D01*
X036460Y025385D02*
X035993Y025385D01*
X036000Y024434D02*
X036509Y024434D01*
X050243Y022373D02*
X052995Y022373D01*
X052995Y022215D02*
X050385Y022215D01*
X050438Y022056D02*
X052995Y022056D01*
X052995Y021898D02*
X050431Y021898D01*
X050358Y021739D02*
X052995Y021739D01*
X052995Y021581D02*
X050131Y021581D01*
M02*
