G75*
%MOIN*%
%OFA0B0*%
%FSLAX24Y24*%
%IPPOS*%
%LPD*%
%AMOC8*
5,1,8,0,0,1.08239X$1,22.5*
%
%ADD10C,0.0060*%
%ADD11C,0.0080*%
%ADD12R,0.0380X0.0660*%
%ADD13C,0.0040*%
%ADD14C,0.0100*%
%ADD15C,0.0000*%
%ADD16C,0.0050*%
%ADD17C,0.0020*%
%ADD18C,0.0030*%
D10*
X011609Y006087D02*
X011609Y006194D01*
X011716Y006300D01*
X012036Y006300D01*
X012036Y006087D01*
X011930Y005980D01*
X011716Y005980D01*
X011609Y006087D01*
X011823Y006514D02*
X011609Y006621D01*
X011823Y006514D02*
X012036Y006300D01*
X012254Y006087D02*
X012254Y006514D01*
X012361Y006621D01*
X012681Y006621D01*
X012681Y005980D01*
X012361Y005980D01*
X012254Y006087D01*
X012898Y006087D02*
X012898Y006514D01*
X013005Y006621D01*
X013219Y006621D01*
X013325Y006514D01*
X013325Y006087D01*
X013219Y005980D01*
X013005Y005980D01*
X012898Y006087D01*
X013543Y005980D02*
X013543Y006621D01*
X013756Y006407D01*
X013970Y006621D01*
X013970Y005980D01*
X021887Y005980D02*
X022314Y006621D01*
X022531Y006621D02*
X022531Y006087D01*
X022638Y005980D01*
X022851Y005980D01*
X022958Y006087D01*
X022958Y006621D01*
X023176Y006407D02*
X023176Y005980D01*
X023176Y006300D02*
X023603Y006300D01*
X023603Y006407D02*
X023389Y006621D01*
X023176Y006407D01*
X023603Y006407D02*
X023603Y005980D01*
X023820Y005873D02*
X024247Y005873D01*
X024465Y006087D02*
X024572Y005980D01*
X024785Y005980D01*
X024892Y006087D01*
X024465Y006514D01*
X024465Y006087D01*
X024465Y006514D02*
X024572Y006621D01*
X024785Y006621D01*
X024892Y006514D01*
X024892Y006087D01*
X025109Y005980D02*
X025536Y005980D01*
X025323Y005980D02*
X025323Y006621D01*
X025536Y006407D01*
X025754Y006514D02*
X025754Y006087D01*
X025861Y005980D01*
X026181Y005980D01*
X026181Y006621D01*
X025861Y006621D01*
X025754Y006514D01*
X026398Y006514D02*
X026398Y006087D01*
X026505Y005980D01*
X026719Y005980D01*
X026825Y006087D01*
X026825Y006514D01*
X026719Y006621D01*
X026505Y006621D01*
X026398Y006514D01*
X027043Y006621D02*
X027043Y005980D01*
X027470Y005980D02*
X027470Y006621D01*
X027256Y006407D01*
X027043Y006621D01*
X022314Y005980D02*
X021887Y006621D01*
X028654Y014816D02*
X028547Y014923D01*
X028547Y015457D01*
X028867Y015457D01*
X028974Y015350D01*
X028974Y015137D01*
X028867Y015030D01*
X028547Y015030D01*
X028654Y014816D02*
X028760Y014816D01*
X029191Y015030D02*
X029512Y015030D01*
X029619Y015137D01*
X029512Y015244D01*
X029191Y015244D01*
X029191Y015350D02*
X029191Y015030D01*
X029191Y015350D02*
X029298Y015457D01*
X029512Y015457D01*
X029835Y015457D02*
X030048Y015457D01*
X029941Y015564D02*
X029941Y015137D01*
X029835Y015030D01*
X030264Y015030D02*
X030478Y015030D01*
X030371Y015030D02*
X030371Y015671D01*
X030478Y015671D01*
X030695Y015350D02*
X030802Y015457D01*
X031016Y015457D01*
X031122Y015350D01*
X031122Y015137D01*
X031016Y015030D01*
X030802Y015030D01*
X030695Y015137D01*
X030695Y015350D01*
X031340Y015244D02*
X031340Y015671D01*
X031250Y016000D02*
X031000Y016250D01*
X031000Y016750D01*
X031250Y017000D01*
X031000Y017250D01*
X031000Y017750D01*
X031250Y018000D01*
X031750Y018000D01*
X032000Y017750D01*
X032000Y017250D01*
X031750Y017000D01*
X031250Y017000D01*
X031750Y017000D02*
X032000Y016750D01*
X032000Y016250D01*
X031750Y016000D01*
X031250Y016000D01*
X031767Y015671D02*
X031767Y015244D01*
X031553Y015030D01*
X031340Y015244D01*
X032629Y015350D02*
X032629Y015030D01*
X032629Y015350D02*
X032736Y015457D01*
X032949Y015457D01*
X033056Y015350D01*
X033274Y015457D02*
X033274Y014923D01*
X033380Y014816D01*
X033487Y014816D01*
X033594Y015030D02*
X033274Y015030D01*
X033056Y015030D02*
X033056Y015671D01*
X033274Y015457D02*
X033594Y015457D01*
X033701Y015350D01*
X033701Y015137D01*
X033594Y015030D01*
X033917Y015030D02*
X034130Y015030D01*
X034024Y015030D02*
X034024Y015457D01*
X034130Y015457D01*
X034024Y015671D02*
X034024Y015777D01*
X034348Y015671D02*
X034348Y015030D01*
X034348Y015350D02*
X034775Y015350D01*
X034775Y015030D02*
X034775Y015671D01*
X032297Y018280D02*
X032083Y018280D01*
X031977Y018387D01*
X031977Y018600D01*
X032190Y018600D01*
X032404Y018387D02*
X032297Y018280D01*
X032404Y018387D02*
X032404Y018814D01*
X032297Y018921D01*
X032083Y018921D01*
X031977Y018814D01*
X031759Y018921D02*
X031332Y018280D01*
X031332Y018921D01*
X031115Y018921D02*
X030794Y018921D01*
X030688Y018814D01*
X030688Y018387D01*
X030794Y018280D01*
X031115Y018280D01*
X031115Y018921D01*
X031759Y018921D02*
X031759Y018280D01*
X028329Y015350D02*
X028223Y015457D01*
X028009Y015457D01*
X027902Y015350D01*
X027902Y015244D01*
X028329Y015244D01*
X028329Y015350D02*
X028329Y015137D01*
X028223Y015030D01*
X028009Y015030D01*
X027685Y015030D02*
X027685Y015137D01*
X027685Y015350D02*
X027685Y015777D01*
X018470Y016230D02*
X018470Y016871D01*
X018470Y016550D02*
X018043Y016550D01*
X017825Y016444D02*
X017612Y016230D01*
X017398Y016444D01*
X017398Y016871D01*
X017825Y016871D02*
X017825Y016444D01*
X018043Y016230D02*
X018043Y016871D01*
X035609Y006621D02*
X035609Y006514D01*
X036036Y006087D01*
X036036Y005980D01*
X036254Y006087D02*
X036254Y006514D01*
X036361Y006621D01*
X036681Y006621D01*
X036681Y005980D01*
X036361Y005980D01*
X036254Y006087D01*
X036036Y006621D02*
X035609Y006621D01*
X036898Y006514D02*
X036898Y006087D01*
X037005Y005980D01*
X037219Y005980D01*
X037325Y006087D01*
X037325Y006514D01*
X037219Y006621D01*
X037005Y006621D01*
X036898Y006514D01*
X037543Y006621D02*
X037543Y005980D01*
X037970Y005980D02*
X037970Y006621D01*
X037756Y006407D01*
X037543Y006621D01*
X047109Y010194D02*
X047109Y010621D01*
X047536Y010621D02*
X047536Y010194D01*
X047323Y009980D01*
X047109Y010194D01*
X047754Y010300D02*
X047754Y010087D01*
X047861Y009980D01*
X048074Y009980D01*
X048181Y010087D01*
X048181Y010300D02*
X047967Y010407D01*
X047861Y010407D01*
X047754Y010300D01*
X047754Y010621D02*
X048181Y010621D01*
X048181Y010300D01*
X048398Y009980D02*
X048825Y009980D01*
X048612Y009980D02*
X048612Y010621D01*
X048825Y010407D01*
X049043Y010300D02*
X049470Y010300D01*
X050609Y010194D02*
X050609Y010621D01*
X051036Y010621D02*
X051036Y010194D01*
X050823Y009980D01*
X050609Y010194D01*
X051254Y010300D02*
X051361Y010407D01*
X051467Y010407D01*
X051681Y010300D01*
X051681Y010621D01*
X051254Y010621D01*
X051254Y010300D02*
X051254Y010087D01*
X051361Y009980D01*
X051574Y009980D01*
X051681Y010087D01*
X051898Y009980D02*
X052325Y009980D01*
X052112Y009980D02*
X052112Y010621D01*
X052325Y010407D01*
X052543Y010300D02*
X052970Y010300D01*
X052756Y010087D02*
X052756Y010514D01*
X050847Y015830D02*
X050633Y015830D01*
X050527Y015937D01*
X050527Y016150D01*
X050740Y016150D01*
X050954Y015937D02*
X050847Y015830D01*
X050954Y015937D02*
X050954Y016364D01*
X050847Y016471D01*
X050633Y016471D01*
X050527Y016364D01*
X050309Y016471D02*
X049882Y015830D01*
X049882Y016471D01*
X049665Y016471D02*
X049665Y015830D01*
X049344Y015830D01*
X049238Y015937D01*
X049238Y016364D01*
X049344Y016471D01*
X049665Y016471D01*
X050309Y016471D02*
X050309Y015830D01*
X032500Y043450D02*
X031680Y043450D01*
X031680Y043750D01*
X031980Y044060D01*
X031910Y044150D01*
X031890Y044240D01*
X031870Y044410D01*
X031870Y046150D01*
X031650Y046150D01*
X031650Y046200D01*
X032500Y046200D01*
X032500Y046480D01*
X031920Y046480D01*
X031910Y046380D01*
X031870Y046300D01*
X031810Y046240D01*
X031720Y046200D01*
X031590Y046210D01*
X031500Y046260D01*
X031450Y046340D01*
X031370Y046340D01*
X031300Y046370D01*
X031230Y046410D01*
X031160Y046420D01*
X031110Y046380D01*
X031060Y046310D01*
X031020Y046260D01*
X030970Y046210D01*
X030870Y046200D01*
X030790Y046220D01*
X030730Y046340D01*
X030690Y046420D01*
X030640Y046510D01*
X030620Y046550D01*
X030600Y046500D01*
X030580Y046420D01*
X030550Y046360D01*
X030500Y046290D01*
X030450Y046230D01*
X030370Y046190D01*
X030280Y046200D01*
X030210Y046290D01*
X030140Y046390D01*
X030100Y046430D01*
X030070Y046430D01*
X030000Y046400D01*
X029960Y046380D01*
X029880Y046360D01*
X029820Y046350D01*
X029810Y046340D01*
X029770Y046280D01*
X029720Y046240D01*
X029650Y046210D01*
X029590Y046200D01*
X029490Y046220D01*
X029400Y046290D01*
X029360Y046380D01*
X029340Y046490D01*
X029000Y046490D01*
X029000Y046200D01*
X032500Y046200D01*
X032500Y043450D01*
X032500Y043498D02*
X031680Y043498D01*
X031690Y043498D02*
X031370Y043498D01*
X031360Y043498D02*
X030200Y043498D01*
X030198Y043498D02*
X029560Y043498D01*
X029590Y043498D02*
X029000Y043498D01*
X029000Y043450D02*
X029590Y043450D01*
X029590Y044490D01*
X029290Y044790D01*
X029340Y044850D01*
X029370Y044880D01*
X029390Y044920D01*
X029390Y046150D01*
X029790Y046150D01*
X029800Y046200D01*
X029000Y046200D01*
X029000Y043450D01*
X029000Y043556D02*
X029590Y043556D01*
X029560Y043556D02*
X030196Y043556D01*
X030200Y043556D02*
X031360Y043556D01*
X031370Y043556D02*
X031690Y043556D01*
X031680Y043556D02*
X032500Y043556D01*
X032500Y043615D02*
X031680Y043615D01*
X031690Y043615D02*
X031370Y043615D01*
X031360Y043615D02*
X030200Y043615D01*
X030194Y043615D02*
X029560Y043615D01*
X029590Y043615D02*
X029000Y043615D01*
X029000Y043673D02*
X029590Y043673D01*
X029560Y043673D02*
X030192Y043673D01*
X030200Y043673D02*
X031360Y043673D01*
X031370Y043673D02*
X031690Y043673D01*
X031680Y043673D02*
X032500Y043673D01*
X032500Y043732D02*
X031680Y043732D01*
X031688Y043732D02*
X031370Y043732D01*
X031360Y043732D02*
X030200Y043732D01*
X030190Y043732D02*
X029560Y043732D01*
X029590Y043732D02*
X029000Y043732D01*
X029000Y043790D02*
X029590Y043790D01*
X029560Y043790D02*
X030140Y043790D01*
X030200Y043760D02*
X030330Y043910D01*
X030390Y044060D01*
X030410Y044220D01*
X030420Y044820D01*
X030540Y044790D01*
X030680Y044770D01*
X030830Y044800D01*
X030970Y044870D01*
X031050Y044930D01*
X031170Y045050D01*
X031240Y045160D01*
X031280Y045280D01*
X031320Y045430D01*
X031310Y045560D01*
X031280Y045700D01*
X031210Y045840D01*
X031120Y045930D01*
X031000Y046020D01*
X030900Y046080D01*
X030760Y046120D01*
X030650Y046130D01*
X030530Y046110D01*
X030440Y046080D01*
X030440Y046200D01*
X031360Y046200D01*
X031360Y043450D01*
X030200Y043450D01*
X029560Y043450D01*
X029560Y044490D01*
X029620Y044510D01*
X029710Y044610D01*
X029780Y044700D01*
X029800Y044820D01*
X029800Y046200D01*
X030430Y046200D01*
X030430Y046120D01*
X030440Y046150D01*
X029990Y046150D01*
X029990Y044200D01*
X029980Y044150D01*
X029940Y044090D01*
X029890Y044040D01*
X030190Y043740D01*
X030200Y043450D01*
X030200Y043760D01*
X030226Y043790D02*
X031360Y043790D01*
X031370Y043790D02*
X031635Y043790D01*
X031590Y043840D02*
X031690Y043730D01*
X031690Y043450D01*
X031370Y043450D01*
X031370Y046200D01*
X031650Y046200D01*
X031650Y046150D01*
X031450Y046150D01*
X031450Y044330D01*
X031470Y044080D01*
X031520Y043940D01*
X031590Y043840D01*
X031584Y043849D02*
X031370Y043849D01*
X031360Y043849D02*
X030277Y043849D01*
X030328Y043907D02*
X031360Y043907D01*
X031370Y043907D02*
X031543Y043907D01*
X031511Y043966D02*
X031370Y043966D01*
X031360Y043966D02*
X030352Y043966D01*
X030376Y044024D02*
X031360Y044024D01*
X031370Y044024D02*
X031490Y044024D01*
X031470Y044083D02*
X031370Y044083D01*
X031360Y044083D02*
X030393Y044083D01*
X030400Y044141D02*
X031360Y044141D01*
X031370Y044141D02*
X031465Y044141D01*
X031460Y044200D02*
X031370Y044200D01*
X031360Y044200D02*
X030407Y044200D01*
X030411Y044258D02*
X031360Y044258D01*
X031370Y044258D02*
X031456Y044258D01*
X031451Y044317D02*
X031370Y044317D01*
X031360Y044317D02*
X030412Y044317D01*
X030413Y044375D02*
X031360Y044375D01*
X031370Y044375D02*
X031450Y044375D01*
X031450Y044434D02*
X031370Y044434D01*
X031360Y044434D02*
X030414Y044434D01*
X030415Y044492D02*
X031360Y044492D01*
X031370Y044492D02*
X031450Y044492D01*
X031450Y044551D02*
X031370Y044551D01*
X031360Y044551D02*
X030416Y044551D01*
X030416Y044609D02*
X031360Y044609D01*
X031370Y044609D02*
X031450Y044609D01*
X031450Y044668D02*
X031370Y044668D01*
X031360Y044668D02*
X030417Y044668D01*
X030418Y044726D02*
X031360Y044726D01*
X031370Y044726D02*
X031450Y044726D01*
X031450Y044785D02*
X031370Y044785D01*
X031360Y044785D02*
X030753Y044785D01*
X030916Y044843D02*
X031360Y044843D01*
X031370Y044843D02*
X031450Y044843D01*
X031450Y044902D02*
X031370Y044902D01*
X031360Y044902D02*
X031012Y044902D01*
X031080Y044960D02*
X031360Y044960D01*
X031370Y044960D02*
X031450Y044960D01*
X031450Y045019D02*
X031370Y045019D01*
X031360Y045019D02*
X031139Y045019D01*
X031187Y045077D02*
X031360Y045077D01*
X031370Y045077D02*
X031450Y045077D01*
X031450Y045136D02*
X031370Y045136D01*
X031360Y045136D02*
X031225Y045136D01*
X031251Y045194D02*
X031360Y045194D01*
X031370Y045194D02*
X031450Y045194D01*
X031450Y045253D02*
X031370Y045253D01*
X031360Y045253D02*
X031271Y045253D01*
X031288Y045311D02*
X031360Y045311D01*
X031370Y045311D02*
X031450Y045311D01*
X031450Y045370D02*
X031370Y045370D01*
X031360Y045370D02*
X031304Y045370D01*
X031320Y045428D02*
X031360Y045428D01*
X031370Y045428D02*
X031450Y045428D01*
X031450Y045487D02*
X031370Y045487D01*
X031360Y045487D02*
X031316Y045487D01*
X031311Y045545D02*
X031360Y045545D01*
X031370Y045545D02*
X031450Y045545D01*
X031450Y045604D02*
X031370Y045604D01*
X031360Y045604D02*
X031301Y045604D01*
X031288Y045662D02*
X031360Y045662D01*
X031370Y045662D02*
X031450Y045662D01*
X031450Y045721D02*
X031370Y045721D01*
X031360Y045721D02*
X031270Y045721D01*
X031240Y045779D02*
X031360Y045779D01*
X031370Y045779D02*
X031450Y045779D01*
X031450Y045838D02*
X031370Y045838D01*
X031360Y045838D02*
X031211Y045838D01*
X031154Y045896D02*
X031360Y045896D01*
X031370Y045896D02*
X031450Y045896D01*
X031450Y045955D02*
X031370Y045955D01*
X031360Y045955D02*
X031087Y045955D01*
X031009Y046013D02*
X031360Y046013D01*
X031370Y046013D02*
X031450Y046013D01*
X031450Y046072D02*
X031370Y046072D01*
X031360Y046072D02*
X030914Y046072D01*
X031007Y046247D02*
X031523Y046247D01*
X031471Y046306D02*
X031057Y046306D01*
X031099Y046364D02*
X031314Y046364D01*
X031400Y046520D02*
X031350Y046540D01*
X031290Y046570D01*
X031240Y046590D01*
X031180Y046610D01*
X031140Y046610D01*
X031090Y046590D01*
X031050Y046560D01*
X031000Y046520D01*
X030960Y046470D01*
X030940Y046430D01*
X030910Y046390D01*
X030870Y046450D01*
X030820Y046550D01*
X030780Y046610D01*
X030740Y046670D01*
X030700Y046720D01*
X030670Y046740D01*
X030620Y046750D01*
X030590Y046740D01*
X030560Y046720D01*
X030520Y046670D01*
X030480Y046610D01*
X030460Y046550D01*
X030440Y046510D01*
X030420Y046460D01*
X030400Y046420D01*
X030380Y046390D01*
X030360Y046370D01*
X030330Y046390D01*
X030290Y046450D01*
X030260Y046500D01*
X030220Y046550D01*
X030170Y046600D01*
X030110Y046610D01*
X030040Y046610D01*
X029980Y046590D01*
X029950Y046570D01*
X029910Y046540D01*
X029870Y046520D01*
X029830Y046520D01*
X029790Y046590D01*
X029730Y046650D01*
X029670Y046680D01*
X029620Y046690D01*
X029560Y046690D01*
X029500Y046670D01*
X029450Y046640D01*
X029410Y046600D01*
X029380Y046560D01*
X029360Y046510D01*
X029350Y046460D01*
X029000Y046460D01*
X029000Y046950D01*
X032500Y046950D01*
X032500Y046460D01*
X031910Y046440D01*
X031910Y046520D01*
X031850Y046600D01*
X031790Y046660D01*
X031720Y046680D01*
X031640Y046680D01*
X031570Y046670D01*
X031520Y046640D01*
X031480Y046600D01*
X031450Y046550D01*
X031440Y046520D01*
X031400Y046520D01*
X031447Y046540D02*
X031351Y046540D01*
X031479Y046598D02*
X031215Y046598D01*
X031110Y046598D02*
X030788Y046598D01*
X030825Y046540D02*
X031025Y046540D01*
X030969Y046481D02*
X030854Y046481D01*
X030888Y046423D02*
X030935Y046423D01*
X030747Y046306D02*
X030511Y046306D01*
X030552Y046364D02*
X030718Y046364D01*
X030689Y046423D02*
X030581Y046423D01*
X030595Y046481D02*
X030656Y046481D01*
X030625Y046540D02*
X030616Y046540D01*
X030476Y046598D02*
X030172Y046598D01*
X030228Y046540D02*
X030455Y046540D01*
X030428Y046481D02*
X030271Y046481D01*
X030308Y046423D02*
X030401Y046423D01*
X030464Y046247D02*
X030776Y046247D01*
X030440Y046189D02*
X031360Y046189D01*
X031370Y046189D02*
X031650Y046189D01*
X032500Y046189D01*
X032500Y046247D02*
X031817Y046247D01*
X031873Y046306D02*
X032500Y046306D01*
X032500Y046364D02*
X031902Y046364D01*
X031914Y046423D02*
X032500Y046423D01*
X032500Y046481D02*
X031910Y046481D01*
X031895Y046540D02*
X032500Y046540D01*
X032500Y046598D02*
X031851Y046598D01*
X031793Y046657D02*
X032500Y046657D01*
X032500Y046715D02*
X030704Y046715D01*
X030749Y046657D02*
X031548Y046657D01*
X031450Y046130D02*
X031370Y046130D01*
X031360Y046130D02*
X030440Y046130D01*
X030433Y046130D02*
X030430Y046130D01*
X030430Y046189D02*
X029800Y046189D01*
X029798Y046189D02*
X029000Y046189D01*
X029000Y046247D02*
X029455Y046247D01*
X029393Y046306D02*
X029000Y046306D01*
X029000Y046364D02*
X029367Y046364D01*
X029352Y046423D02*
X029000Y046423D01*
X029000Y046481D02*
X029354Y046481D01*
X029342Y046481D02*
X029000Y046481D01*
X029000Y046540D02*
X029372Y046540D01*
X029409Y046598D02*
X029000Y046598D01*
X029000Y046657D02*
X029478Y046657D01*
X029717Y046657D02*
X030511Y046657D01*
X030556Y046715D02*
X029000Y046715D01*
X029000Y046774D02*
X032500Y046774D01*
X032500Y046832D02*
X029000Y046832D01*
X029000Y046891D02*
X032500Y046891D01*
X032500Y046949D02*
X029000Y046949D01*
X028470Y046800D02*
X028256Y046800D01*
X028470Y046480D02*
X028043Y046480D01*
X027825Y046587D02*
X027719Y046480D01*
X027398Y046480D01*
X027398Y046907D01*
X027181Y046907D02*
X027181Y046480D01*
X027181Y046694D02*
X026967Y046907D01*
X026861Y046907D01*
X026644Y046800D02*
X026644Y046587D01*
X026537Y046480D01*
X026324Y046480D01*
X026217Y046587D01*
X026217Y046800D01*
X026324Y046907D01*
X026537Y046907D01*
X026644Y046800D01*
X025999Y046800D02*
X025999Y046587D01*
X025892Y046480D01*
X025572Y046480D01*
X025355Y046587D02*
X025248Y046480D01*
X024928Y046480D01*
X024928Y046800D01*
X025034Y046907D01*
X025248Y046907D01*
X025248Y046694D02*
X024928Y046694D01*
X024710Y046694D02*
X024497Y046907D01*
X024390Y046907D01*
X024173Y046800D02*
X024066Y046907D01*
X023746Y046907D01*
X023746Y047121D02*
X023746Y046480D01*
X024066Y046480D01*
X024173Y046587D01*
X024173Y046800D01*
X024710Y046907D02*
X024710Y046480D01*
X025248Y046694D02*
X025355Y046587D01*
X025572Y046907D02*
X025892Y046907D01*
X025999Y046800D01*
X026538Y046121D02*
X026432Y046014D01*
X026859Y045587D01*
X026752Y045480D01*
X026538Y045480D01*
X026432Y045587D01*
X026432Y046014D01*
X026538Y046121D02*
X026752Y046121D01*
X026859Y046014D01*
X026859Y045587D01*
X027074Y045587D02*
X027074Y045480D01*
X027181Y045480D01*
X027181Y045587D01*
X027074Y045587D01*
X027398Y045480D02*
X027825Y045480D01*
X027398Y045907D01*
X027398Y046014D01*
X027505Y046121D01*
X027719Y046121D01*
X027825Y046014D01*
X028043Y045907D02*
X028256Y045480D01*
X028470Y045907D01*
X029000Y045896D02*
X029390Y045896D01*
X029390Y045838D02*
X029000Y045838D01*
X029000Y045779D02*
X029390Y045779D01*
X029390Y045721D02*
X029000Y045721D01*
X029000Y045662D02*
X029390Y045662D01*
X029390Y045604D02*
X029000Y045604D01*
X029000Y045545D02*
X029390Y045545D01*
X029390Y045487D02*
X029000Y045487D01*
X029000Y045428D02*
X029390Y045428D01*
X029390Y045370D02*
X029000Y045370D01*
X029000Y045311D02*
X029390Y045311D01*
X029390Y045253D02*
X029000Y045253D01*
X029000Y045194D02*
X029390Y045194D01*
X029390Y045136D02*
X029000Y045136D01*
X029000Y045077D02*
X029390Y045077D01*
X029390Y045019D02*
X029000Y045019D01*
X029000Y044960D02*
X029390Y044960D01*
X029381Y044902D02*
X029000Y044902D01*
X029000Y044843D02*
X029334Y044843D01*
X029295Y044785D02*
X029000Y044785D01*
X029000Y044726D02*
X029354Y044726D01*
X029412Y044668D02*
X029000Y044668D01*
X029000Y044609D02*
X029471Y044609D01*
X029529Y044551D02*
X029000Y044551D01*
X029000Y044492D02*
X029588Y044492D01*
X029567Y044492D02*
X029990Y044492D01*
X029990Y044434D02*
X029560Y044434D01*
X029590Y044434D02*
X029000Y044434D01*
X029000Y044375D02*
X029590Y044375D01*
X029560Y044375D02*
X029990Y044375D01*
X029990Y044317D02*
X029560Y044317D01*
X029590Y044317D02*
X029000Y044317D01*
X029000Y044258D02*
X029590Y044258D01*
X029560Y044258D02*
X029990Y044258D01*
X029990Y044200D02*
X029560Y044200D01*
X029590Y044200D02*
X029000Y044200D01*
X029000Y044141D02*
X029590Y044141D01*
X029560Y044141D02*
X029974Y044141D01*
X029933Y044083D02*
X029560Y044083D01*
X029590Y044083D02*
X029000Y044083D01*
X029000Y044024D02*
X029590Y044024D01*
X029560Y044024D02*
X029906Y044024D01*
X029964Y043966D02*
X029560Y043966D01*
X029590Y043966D02*
X029000Y043966D01*
X029000Y043907D02*
X029590Y043907D01*
X029560Y043907D02*
X030023Y043907D01*
X030081Y043849D02*
X029560Y043849D01*
X029590Y043849D02*
X029000Y043849D01*
X029657Y044551D02*
X029990Y044551D01*
X029990Y044609D02*
X029709Y044609D01*
X029755Y044668D02*
X029990Y044668D01*
X029990Y044726D02*
X029784Y044726D01*
X029794Y044785D02*
X029990Y044785D01*
X029990Y044843D02*
X029800Y044843D01*
X029800Y044902D02*
X029990Y044902D01*
X029990Y044960D02*
X029800Y044960D01*
X029800Y045019D02*
X029990Y045019D01*
X029990Y045077D02*
X029800Y045077D01*
X029800Y045136D02*
X029990Y045136D01*
X029990Y045194D02*
X029800Y045194D01*
X029800Y045253D02*
X029990Y045253D01*
X029990Y045311D02*
X029800Y045311D01*
X029800Y045370D02*
X029990Y045370D01*
X029990Y045428D02*
X029800Y045428D01*
X029800Y045487D02*
X029990Y045487D01*
X029990Y045545D02*
X029800Y045545D01*
X029800Y045604D02*
X029990Y045604D01*
X029990Y045662D02*
X029800Y045662D01*
X029800Y045721D02*
X029990Y045721D01*
X029990Y045779D02*
X029800Y045779D01*
X029800Y045838D02*
X029990Y045838D01*
X029990Y045896D02*
X029800Y045896D01*
X029800Y045955D02*
X029990Y045955D01*
X029990Y046013D02*
X029800Y046013D01*
X029800Y046072D02*
X029990Y046072D01*
X029990Y046130D02*
X029800Y046130D01*
X029729Y046247D02*
X030243Y046247D01*
X030199Y046306D02*
X029787Y046306D01*
X029897Y046364D02*
X030158Y046364D01*
X030107Y046423D02*
X030053Y046423D01*
X030005Y046598D02*
X029782Y046598D01*
X029819Y046540D02*
X029909Y046540D01*
X029390Y046130D02*
X029000Y046130D01*
X029000Y046072D02*
X029390Y046072D01*
X029390Y046013D02*
X029000Y046013D01*
X029000Y045955D02*
X029390Y045955D01*
X028470Y046480D02*
X028470Y047121D01*
X028043Y047121D01*
X027825Y046907D02*
X027825Y046587D01*
X030419Y044785D02*
X030577Y044785D01*
X030431Y045440D02*
X030433Y045472D01*
X030439Y045503D01*
X030448Y045534D01*
X030462Y045563D01*
X030479Y045590D01*
X030499Y045614D01*
X030521Y045637D01*
X030547Y045656D01*
X030575Y045672D01*
X030604Y045684D01*
X030635Y045693D01*
X030666Y045698D01*
X030698Y045699D01*
X030730Y045696D01*
X030761Y045689D01*
X030791Y045679D01*
X030819Y045664D01*
X030846Y045647D01*
X030870Y045626D01*
X030892Y045602D01*
X030910Y045576D01*
X030925Y045548D01*
X030937Y045519D01*
X030945Y045488D01*
X030949Y045456D01*
X030949Y045424D01*
X030945Y045392D01*
X030937Y045361D01*
X030925Y045332D01*
X030910Y045304D01*
X030892Y045278D01*
X030870Y045254D01*
X030846Y045233D01*
X030820Y045216D01*
X030791Y045201D01*
X030761Y045191D01*
X030730Y045184D01*
X030698Y045181D01*
X030666Y045182D01*
X030635Y045187D01*
X030604Y045196D01*
X030575Y045208D01*
X030547Y045224D01*
X030521Y045243D01*
X030499Y045266D01*
X030479Y045290D01*
X030462Y045317D01*
X030448Y045346D01*
X030439Y045377D01*
X030433Y045408D01*
X030431Y045440D01*
X030578Y045450D02*
X030580Y045470D01*
X030586Y045489D01*
X030595Y045507D01*
X030608Y045522D01*
X030623Y045535D01*
X030641Y045544D01*
X030660Y045550D01*
X030680Y045552D01*
X030700Y045550D01*
X030719Y045544D01*
X030737Y045535D01*
X030752Y045522D01*
X030765Y045507D01*
X030774Y045489D01*
X030780Y045470D01*
X030782Y045450D01*
X030780Y045430D01*
X030774Y045411D01*
X030765Y045393D01*
X030752Y045378D01*
X030737Y045365D01*
X030719Y045356D01*
X030700Y045350D01*
X030680Y045348D01*
X030660Y045350D01*
X030641Y045356D01*
X030623Y045365D01*
X030608Y045378D01*
X030595Y045393D01*
X030586Y045411D01*
X030580Y045430D01*
X030578Y045450D01*
X030522Y045450D02*
X030524Y045475D01*
X030530Y045499D01*
X030539Y045522D01*
X030552Y045543D01*
X030568Y045562D01*
X030587Y045578D01*
X030608Y045591D01*
X030631Y045600D01*
X030655Y045606D01*
X030680Y045608D01*
X030705Y045606D01*
X030729Y045600D01*
X030752Y045591D01*
X030773Y045578D01*
X030792Y045562D01*
X030808Y045543D01*
X030821Y045522D01*
X030830Y045499D01*
X030836Y045475D01*
X030838Y045450D01*
X030836Y045425D01*
X030830Y045401D01*
X030821Y045378D01*
X030808Y045357D01*
X030792Y045338D01*
X030773Y045322D01*
X030752Y045309D01*
X030729Y045300D01*
X030705Y045294D01*
X030680Y045292D01*
X030655Y045294D01*
X030631Y045300D01*
X030608Y045309D01*
X030587Y045322D01*
X030568Y045338D01*
X030552Y045357D01*
X030539Y045378D01*
X030530Y045401D01*
X030524Y045425D01*
X030522Y045450D01*
X030636Y045450D02*
X030638Y045464D01*
X030643Y045477D01*
X030652Y045488D01*
X030663Y045497D01*
X030676Y045502D01*
X030690Y045504D01*
X030704Y045502D01*
X030717Y045497D01*
X030728Y045488D01*
X030737Y045477D01*
X030742Y045464D01*
X030744Y045450D01*
X030742Y045436D01*
X030737Y045423D01*
X030728Y045412D01*
X030717Y045403D01*
X030704Y045398D01*
X030690Y045396D01*
X030676Y045398D01*
X030663Y045403D01*
X030652Y045412D01*
X030643Y045423D01*
X030638Y045436D01*
X030636Y045450D01*
X030481Y045450D02*
X030483Y045478D01*
X030489Y045506D01*
X030498Y045533D01*
X030511Y045559D01*
X030528Y045582D01*
X030547Y045603D01*
X030569Y045621D01*
X030594Y045636D01*
X030620Y045647D01*
X030647Y045655D01*
X030676Y045659D01*
X030704Y045659D01*
X030733Y045655D01*
X030760Y045647D01*
X030786Y045636D01*
X030811Y045621D01*
X030833Y045603D01*
X030852Y045582D01*
X030869Y045559D01*
X030882Y045533D01*
X030891Y045506D01*
X030897Y045478D01*
X030899Y045450D01*
X030897Y045422D01*
X030891Y045394D01*
X030882Y045367D01*
X030869Y045341D01*
X030852Y045318D01*
X030833Y045297D01*
X030811Y045279D01*
X030786Y045264D01*
X030760Y045253D01*
X030733Y045245D01*
X030704Y045241D01*
X030676Y045241D01*
X030647Y045245D01*
X030620Y045253D01*
X030594Y045264D01*
X030569Y045279D01*
X030547Y045297D01*
X030528Y045318D01*
X030511Y045341D01*
X030498Y045367D01*
X030489Y045394D01*
X030483Y045422D01*
X030481Y045450D01*
X030678Y045450D02*
X030680Y045459D01*
X030685Y045466D01*
X030693Y045471D01*
X030702Y045472D01*
X030711Y045469D01*
X030718Y045463D01*
X030722Y045455D01*
X030722Y045445D01*
X030718Y045437D01*
X030711Y045431D01*
X030702Y045428D01*
X030693Y045429D01*
X030685Y045434D01*
X030680Y045441D01*
X030678Y045450D01*
X031870Y045428D02*
X032500Y045428D01*
X032500Y045370D02*
X031870Y045370D01*
X031870Y045311D02*
X032500Y045311D01*
X032500Y045253D02*
X031870Y045253D01*
X031870Y045194D02*
X032500Y045194D01*
X032500Y045136D02*
X031870Y045136D01*
X031870Y045077D02*
X032500Y045077D01*
X032500Y045019D02*
X031870Y045019D01*
X031870Y044960D02*
X032500Y044960D01*
X032500Y044902D02*
X031870Y044902D01*
X031870Y044843D02*
X032500Y044843D01*
X032500Y044785D02*
X031870Y044785D01*
X031870Y044726D02*
X032500Y044726D01*
X032500Y044668D02*
X031870Y044668D01*
X031870Y044609D02*
X032500Y044609D01*
X032500Y044551D02*
X031870Y044551D01*
X031870Y044492D02*
X032500Y044492D01*
X032500Y044434D02*
X031870Y044434D01*
X031874Y044375D02*
X032500Y044375D01*
X032500Y044317D02*
X031881Y044317D01*
X031888Y044258D02*
X032500Y044258D01*
X032500Y044200D02*
X031899Y044200D01*
X031917Y044141D02*
X032500Y044141D01*
X032500Y044083D02*
X031962Y044083D01*
X031945Y044024D02*
X032500Y044024D01*
X032500Y043966D02*
X031889Y043966D01*
X031832Y043907D02*
X032500Y043907D01*
X032500Y043849D02*
X031775Y043849D01*
X031719Y043790D02*
X032500Y043790D01*
X032500Y045487D02*
X031870Y045487D01*
X031870Y045545D02*
X032500Y045545D01*
X032500Y045604D02*
X031870Y045604D01*
X031870Y045662D02*
X032500Y045662D01*
X032500Y045721D02*
X031870Y045721D01*
X031870Y045779D02*
X032500Y045779D01*
X032500Y045838D02*
X031870Y045838D01*
X031870Y045896D02*
X032500Y045896D01*
X032500Y045955D02*
X031870Y045955D01*
X031870Y046013D02*
X032500Y046013D01*
X032500Y046072D02*
X031870Y046072D01*
X031870Y046130D02*
X032500Y046130D01*
X022884Y046480D02*
X022564Y046480D01*
X022457Y046587D01*
X022457Y046694D01*
X022564Y046800D01*
X022884Y046800D01*
X022884Y046480D02*
X022884Y047121D01*
X022564Y047121D01*
X022457Y047014D01*
X022457Y046907D01*
X022564Y046800D01*
X022239Y046587D02*
X022133Y046480D01*
X021812Y046480D01*
X021812Y046800D01*
X021919Y046907D01*
X022133Y046907D01*
X022133Y046694D02*
X021812Y046694D01*
X021595Y046800D02*
X021595Y046587D01*
X021488Y046480D01*
X021168Y046480D01*
X020950Y046480D02*
X020950Y047121D01*
X021168Y046907D02*
X021488Y046907D01*
X021595Y046800D01*
X022133Y046694D02*
X022239Y046587D01*
X020950Y046694D02*
X020630Y046907D01*
X020413Y046907D02*
X020093Y046907D01*
X019986Y046800D01*
X019986Y046587D01*
X020093Y046480D01*
X020413Y046480D01*
X020413Y046266D02*
X020413Y046907D01*
X020630Y046480D02*
X020950Y046694D01*
X019769Y046480D02*
X019555Y046480D01*
X019662Y046480D02*
X019662Y047121D01*
X019769Y047121D01*
X019232Y046907D02*
X019019Y046907D01*
X018912Y046800D01*
X018912Y046480D01*
X019232Y046480D01*
X019339Y046587D01*
X019232Y046694D01*
X018912Y046694D01*
X018694Y046907D02*
X018694Y046480D01*
X018267Y046480D02*
X018267Y046800D01*
X018374Y046907D01*
X018694Y046907D01*
X018050Y046800D02*
X017943Y046907D01*
X017730Y046907D01*
X017623Y046800D01*
X017623Y046694D01*
X018050Y046694D01*
X018050Y046800D02*
X018050Y046587D01*
X017943Y046480D01*
X017730Y046480D01*
D11*
X047544Y029166D02*
X051556Y029166D01*
D12*
X050890Y028870D03*
X050220Y028870D03*
X049550Y028870D03*
X048880Y028870D03*
X048210Y028870D03*
D13*
X051347Y033620D02*
X051270Y033697D01*
X051270Y033850D01*
X051347Y033927D01*
X051730Y033927D01*
X051577Y034080D02*
X051730Y034234D01*
X051270Y034234D01*
X051270Y034387D02*
X051270Y034080D01*
X051347Y033620D02*
X051730Y033620D01*
X050530Y010730D02*
X050223Y010270D01*
X050070Y010270D02*
X049763Y010270D01*
X049916Y010270D02*
X049916Y010730D01*
X050070Y010577D01*
X050223Y010730D02*
X050530Y010270D01*
X049609Y010270D02*
X049302Y010270D01*
X049456Y010270D02*
X049456Y010730D01*
X049609Y010577D01*
X032114Y007659D02*
X032114Y005336D01*
X030894Y005336D01*
X030106Y005336D02*
X028886Y005336D01*
X028886Y007659D01*
X029791Y008564D01*
X030106Y008564D01*
X030894Y008564D02*
X031209Y008564D01*
X032114Y007659D01*
X030854Y008466D02*
X030931Y008446D01*
X031006Y008423D01*
X031080Y008395D01*
X031152Y008364D01*
X031223Y008329D01*
X031292Y008291D01*
X031358Y008249D01*
X031423Y008204D01*
X031485Y008156D01*
X031545Y008104D01*
X031602Y008050D01*
X031656Y007993D01*
X031708Y007933D01*
X031756Y007871D01*
X031801Y007806D01*
X031842Y007739D01*
X031880Y007670D01*
X031915Y007599D01*
X031946Y007527D01*
X031974Y007453D01*
X031997Y007378D01*
X032017Y007302D01*
X032033Y007224D01*
X032045Y007146D01*
X032053Y007068D01*
X032057Y006989D01*
X032057Y006911D01*
X032053Y006832D01*
X032045Y006754D01*
X032033Y006676D01*
X032017Y006598D01*
X031997Y006522D01*
X031974Y006447D01*
X031946Y006373D01*
X031915Y006301D01*
X031880Y006230D01*
X031842Y006161D01*
X031801Y006094D01*
X031756Y006029D01*
X031708Y005967D01*
X031656Y005907D01*
X031602Y005850D01*
X031545Y005796D01*
X031485Y005744D01*
X031423Y005696D01*
X031358Y005651D01*
X031292Y005609D01*
X031223Y005571D01*
X031152Y005536D01*
X031080Y005505D01*
X031006Y005477D01*
X030931Y005454D01*
X030854Y005434D01*
X030146Y005434D02*
X030069Y005454D01*
X029994Y005477D01*
X029920Y005505D01*
X029848Y005536D01*
X029777Y005571D01*
X029708Y005609D01*
X029642Y005651D01*
X029577Y005696D01*
X029515Y005744D01*
X029455Y005796D01*
X029398Y005850D01*
X029344Y005907D01*
X029292Y005967D01*
X029244Y006029D01*
X029199Y006094D01*
X029158Y006161D01*
X029120Y006230D01*
X029085Y006301D01*
X029054Y006373D01*
X029026Y006447D01*
X029003Y006522D01*
X028983Y006598D01*
X028967Y006676D01*
X028955Y006754D01*
X028947Y006832D01*
X028943Y006911D01*
X028943Y006989D01*
X028947Y007068D01*
X028955Y007146D01*
X028967Y007224D01*
X028983Y007302D01*
X029003Y007378D01*
X029026Y007453D01*
X029054Y007527D01*
X029085Y007599D01*
X029120Y007670D01*
X029158Y007739D01*
X029199Y007806D01*
X029244Y007871D01*
X029292Y007933D01*
X029344Y007993D01*
X029398Y008050D01*
X029455Y008104D01*
X029515Y008156D01*
X029577Y008204D01*
X029642Y008249D01*
X029708Y008291D01*
X029777Y008329D01*
X029848Y008364D01*
X029920Y008395D01*
X029994Y008423D01*
X030069Y008446D01*
X030146Y008466D01*
X020114Y008564D02*
X020114Y006241D01*
X019209Y005336D01*
X018894Y005336D01*
X018106Y005336D02*
X017791Y005336D01*
X016886Y006241D01*
X016886Y008564D01*
X018106Y008564D01*
X018894Y008564D02*
X020114Y008564D01*
X018854Y008466D02*
X018931Y008446D01*
X019006Y008423D01*
X019080Y008395D01*
X019152Y008364D01*
X019223Y008329D01*
X019292Y008291D01*
X019358Y008249D01*
X019423Y008204D01*
X019485Y008156D01*
X019545Y008104D01*
X019602Y008050D01*
X019656Y007993D01*
X019708Y007933D01*
X019756Y007871D01*
X019801Y007806D01*
X019842Y007739D01*
X019880Y007670D01*
X019915Y007599D01*
X019946Y007527D01*
X019974Y007453D01*
X019997Y007378D01*
X020017Y007302D01*
X020033Y007224D01*
X020045Y007146D01*
X020053Y007068D01*
X020057Y006989D01*
X020057Y006911D01*
X020053Y006832D01*
X020045Y006754D01*
X020033Y006676D01*
X020017Y006598D01*
X019997Y006522D01*
X019974Y006447D01*
X019946Y006373D01*
X019915Y006301D01*
X019880Y006230D01*
X019842Y006161D01*
X019801Y006094D01*
X019756Y006029D01*
X019708Y005967D01*
X019656Y005907D01*
X019602Y005850D01*
X019545Y005796D01*
X019485Y005744D01*
X019423Y005696D01*
X019358Y005651D01*
X019292Y005609D01*
X019223Y005571D01*
X019152Y005536D01*
X019080Y005505D01*
X019006Y005477D01*
X018931Y005454D01*
X018854Y005434D01*
X018146Y005434D02*
X018069Y005454D01*
X017994Y005477D01*
X017920Y005505D01*
X017848Y005536D01*
X017777Y005571D01*
X017708Y005609D01*
X017642Y005651D01*
X017577Y005696D01*
X017515Y005744D01*
X017455Y005796D01*
X017398Y005850D01*
X017344Y005907D01*
X017292Y005967D01*
X017244Y006029D01*
X017199Y006094D01*
X017158Y006161D01*
X017120Y006230D01*
X017085Y006301D01*
X017054Y006373D01*
X017026Y006447D01*
X017003Y006522D01*
X016983Y006598D01*
X016967Y006676D01*
X016955Y006754D01*
X016947Y006832D01*
X016943Y006911D01*
X016943Y006989D01*
X016947Y007068D01*
X016955Y007146D01*
X016967Y007224D01*
X016983Y007302D01*
X017003Y007378D01*
X017026Y007453D01*
X017054Y007527D01*
X017085Y007599D01*
X017120Y007670D01*
X017158Y007739D01*
X017199Y007806D01*
X017244Y007871D01*
X017292Y007933D01*
X017344Y007993D01*
X017398Y008050D01*
X017455Y008104D01*
X017515Y008156D01*
X017577Y008204D01*
X017642Y008249D01*
X017708Y008291D01*
X017777Y008329D01*
X017848Y008364D01*
X017920Y008395D01*
X017994Y008423D01*
X018069Y008446D01*
X018146Y008466D01*
D14*
X022400Y007600D02*
X022400Y044400D01*
X022402Y044426D01*
X022407Y044452D01*
X022415Y044477D01*
X022427Y044500D01*
X022441Y044522D01*
X022459Y044541D01*
X022478Y044559D01*
X022500Y044573D01*
X022523Y044585D01*
X022548Y044593D01*
X022574Y044598D01*
X022600Y044600D01*
X023450Y044600D01*
X025750Y044600D01*
X026400Y044600D01*
X026426Y044598D01*
X026452Y044593D01*
X026477Y044585D01*
X026500Y044573D01*
X026522Y044559D01*
X026541Y044541D01*
X026559Y044522D01*
X026573Y044500D01*
X026585Y044477D01*
X026593Y044452D01*
X026598Y044426D01*
X026600Y044400D01*
X026600Y007600D01*
X026598Y007574D01*
X026593Y007548D01*
X026585Y007523D01*
X026573Y007500D01*
X026559Y007478D01*
X026541Y007459D01*
X026522Y007441D01*
X026500Y007427D01*
X026477Y007415D01*
X026452Y007407D01*
X026426Y007402D01*
X026400Y007400D01*
X025750Y007400D01*
X023450Y007400D01*
X022600Y007400D01*
X022574Y007402D01*
X022548Y007407D01*
X022523Y007415D01*
X022500Y007427D01*
X022478Y007441D01*
X022459Y007459D01*
X022441Y007478D01*
X022427Y007500D01*
X022415Y007523D01*
X022407Y007548D01*
X022402Y007574D01*
X022400Y007600D01*
X023450Y007400D02*
X023450Y008500D01*
X024050Y009250D01*
X024000Y009250D01*
X024000Y009750D01*
X023000Y009750D01*
X023000Y042250D01*
X024000Y042250D01*
X024000Y042750D01*
X024050Y042750D01*
X023450Y043500D01*
X023450Y044600D01*
X024120Y043720D02*
X024122Y043764D01*
X024128Y043808D01*
X024138Y043851D01*
X024151Y043893D01*
X024168Y043934D01*
X024189Y043973D01*
X024213Y044010D01*
X024240Y044045D01*
X024270Y044077D01*
X024303Y044107D01*
X024339Y044133D01*
X024376Y044157D01*
X024416Y044176D01*
X024457Y044193D01*
X024500Y044205D01*
X024543Y044214D01*
X024587Y044219D01*
X024631Y044220D01*
X024675Y044217D01*
X024719Y044210D01*
X024762Y044199D01*
X024804Y044185D01*
X024844Y044167D01*
X024883Y044145D01*
X024919Y044121D01*
X024953Y044093D01*
X024985Y044062D01*
X025014Y044028D01*
X025040Y043992D01*
X025062Y043954D01*
X025081Y043914D01*
X025096Y043872D01*
X025108Y043830D01*
X025116Y043786D01*
X025120Y043742D01*
X025120Y043698D01*
X025116Y043654D01*
X025108Y043610D01*
X025096Y043568D01*
X025081Y043526D01*
X025062Y043486D01*
X025040Y043448D01*
X025014Y043412D01*
X024985Y043378D01*
X024953Y043347D01*
X024919Y043319D01*
X024883Y043295D01*
X024844Y043273D01*
X024804Y043255D01*
X024762Y043241D01*
X024719Y043230D01*
X024675Y043223D01*
X024631Y043220D01*
X024587Y043221D01*
X024543Y043226D01*
X024500Y043235D01*
X024457Y043247D01*
X024416Y043264D01*
X024376Y043283D01*
X024339Y043307D01*
X024303Y043333D01*
X024270Y043363D01*
X024240Y043395D01*
X024213Y043430D01*
X024189Y043467D01*
X024168Y043506D01*
X024151Y043547D01*
X024138Y043589D01*
X024128Y043632D01*
X024122Y043676D01*
X024120Y043720D01*
X024050Y042750D02*
X025150Y042750D01*
X026000Y042750D01*
X026000Y009250D01*
X025150Y009250D01*
X024050Y009250D01*
X024120Y008280D02*
X024122Y008324D01*
X024128Y008368D01*
X024138Y008411D01*
X024151Y008453D01*
X024168Y008494D01*
X024189Y008533D01*
X024213Y008570D01*
X024240Y008605D01*
X024270Y008637D01*
X024303Y008667D01*
X024339Y008693D01*
X024376Y008717D01*
X024416Y008736D01*
X024457Y008753D01*
X024500Y008765D01*
X024543Y008774D01*
X024587Y008779D01*
X024631Y008780D01*
X024675Y008777D01*
X024719Y008770D01*
X024762Y008759D01*
X024804Y008745D01*
X024844Y008727D01*
X024883Y008705D01*
X024919Y008681D01*
X024953Y008653D01*
X024985Y008622D01*
X025014Y008588D01*
X025040Y008552D01*
X025062Y008514D01*
X025081Y008474D01*
X025096Y008432D01*
X025108Y008390D01*
X025116Y008346D01*
X025120Y008302D01*
X025120Y008258D01*
X025116Y008214D01*
X025108Y008170D01*
X025096Y008128D01*
X025081Y008086D01*
X025062Y008046D01*
X025040Y008008D01*
X025014Y007972D01*
X024985Y007938D01*
X024953Y007907D01*
X024919Y007879D01*
X024883Y007855D01*
X024844Y007833D01*
X024804Y007815D01*
X024762Y007801D01*
X024719Y007790D01*
X024675Y007783D01*
X024631Y007780D01*
X024587Y007781D01*
X024543Y007786D01*
X024500Y007795D01*
X024457Y007807D01*
X024416Y007824D01*
X024376Y007843D01*
X024339Y007867D01*
X024303Y007893D01*
X024270Y007923D01*
X024240Y007955D01*
X024213Y007990D01*
X024189Y008027D01*
X024168Y008066D01*
X024151Y008107D01*
X024138Y008149D01*
X024128Y008192D01*
X024122Y008236D01*
X024120Y008280D01*
X025150Y009250D02*
X025750Y008500D01*
X025750Y007400D01*
X042400Y007600D02*
X042400Y044400D01*
X042402Y044426D01*
X042407Y044452D01*
X042415Y044477D01*
X042427Y044500D01*
X042441Y044522D01*
X042459Y044541D01*
X042478Y044559D01*
X042500Y044573D01*
X042523Y044585D01*
X042548Y044593D01*
X042574Y044598D01*
X042600Y044600D01*
X043450Y044600D01*
X045750Y044600D01*
X046400Y044600D01*
X046426Y044598D01*
X046452Y044593D01*
X046477Y044585D01*
X046500Y044573D01*
X046522Y044559D01*
X046541Y044541D01*
X046559Y044522D01*
X046573Y044500D01*
X046585Y044477D01*
X046593Y044452D01*
X046598Y044426D01*
X046600Y044400D01*
X046600Y007600D01*
X046598Y007574D01*
X046593Y007548D01*
X046585Y007523D01*
X046573Y007500D01*
X046559Y007478D01*
X046541Y007459D01*
X046522Y007441D01*
X046500Y007427D01*
X046477Y007415D01*
X046452Y007407D01*
X046426Y007402D01*
X046400Y007400D01*
X045750Y007400D01*
X043450Y007400D01*
X042600Y007400D01*
X042574Y007402D01*
X042548Y007407D01*
X042523Y007415D01*
X042500Y007427D01*
X042478Y007441D01*
X042459Y007459D01*
X042441Y007478D01*
X042427Y007500D01*
X042415Y007523D01*
X042407Y007548D01*
X042402Y007574D01*
X042400Y007600D01*
X043450Y007400D02*
X043450Y008500D01*
X044050Y009250D01*
X044000Y009250D01*
X044000Y009750D01*
X043000Y009750D01*
X043000Y042250D01*
X044000Y042250D01*
X044000Y042750D01*
X044050Y042750D01*
X043450Y043500D01*
X043450Y044600D01*
X044120Y043720D02*
X044122Y043764D01*
X044128Y043808D01*
X044138Y043851D01*
X044151Y043893D01*
X044168Y043934D01*
X044189Y043973D01*
X044213Y044010D01*
X044240Y044045D01*
X044270Y044077D01*
X044303Y044107D01*
X044339Y044133D01*
X044376Y044157D01*
X044416Y044176D01*
X044457Y044193D01*
X044500Y044205D01*
X044543Y044214D01*
X044587Y044219D01*
X044631Y044220D01*
X044675Y044217D01*
X044719Y044210D01*
X044762Y044199D01*
X044804Y044185D01*
X044844Y044167D01*
X044883Y044145D01*
X044919Y044121D01*
X044953Y044093D01*
X044985Y044062D01*
X045014Y044028D01*
X045040Y043992D01*
X045062Y043954D01*
X045081Y043914D01*
X045096Y043872D01*
X045108Y043830D01*
X045116Y043786D01*
X045120Y043742D01*
X045120Y043698D01*
X045116Y043654D01*
X045108Y043610D01*
X045096Y043568D01*
X045081Y043526D01*
X045062Y043486D01*
X045040Y043448D01*
X045014Y043412D01*
X044985Y043378D01*
X044953Y043347D01*
X044919Y043319D01*
X044883Y043295D01*
X044844Y043273D01*
X044804Y043255D01*
X044762Y043241D01*
X044719Y043230D01*
X044675Y043223D01*
X044631Y043220D01*
X044587Y043221D01*
X044543Y043226D01*
X044500Y043235D01*
X044457Y043247D01*
X044416Y043264D01*
X044376Y043283D01*
X044339Y043307D01*
X044303Y043333D01*
X044270Y043363D01*
X044240Y043395D01*
X044213Y043430D01*
X044189Y043467D01*
X044168Y043506D01*
X044151Y043547D01*
X044138Y043589D01*
X044128Y043632D01*
X044122Y043676D01*
X044120Y043720D01*
X044050Y042750D02*
X045150Y042750D01*
X046000Y042750D01*
X046000Y009250D01*
X045150Y009250D01*
X044050Y009250D01*
X044120Y008280D02*
X044122Y008324D01*
X044128Y008368D01*
X044138Y008411D01*
X044151Y008453D01*
X044168Y008494D01*
X044189Y008533D01*
X044213Y008570D01*
X044240Y008605D01*
X044270Y008637D01*
X044303Y008667D01*
X044339Y008693D01*
X044376Y008717D01*
X044416Y008736D01*
X044457Y008753D01*
X044500Y008765D01*
X044543Y008774D01*
X044587Y008779D01*
X044631Y008780D01*
X044675Y008777D01*
X044719Y008770D01*
X044762Y008759D01*
X044804Y008745D01*
X044844Y008727D01*
X044883Y008705D01*
X044919Y008681D01*
X044953Y008653D01*
X044985Y008622D01*
X045014Y008588D01*
X045040Y008552D01*
X045062Y008514D01*
X045081Y008474D01*
X045096Y008432D01*
X045108Y008390D01*
X045116Y008346D01*
X045120Y008302D01*
X045120Y008258D01*
X045116Y008214D01*
X045108Y008170D01*
X045096Y008128D01*
X045081Y008086D01*
X045062Y008046D01*
X045040Y008008D01*
X045014Y007972D01*
X044985Y007938D01*
X044953Y007907D01*
X044919Y007879D01*
X044883Y007855D01*
X044844Y007833D01*
X044804Y007815D01*
X044762Y007801D01*
X044719Y007790D01*
X044675Y007783D01*
X044631Y007780D01*
X044587Y007781D01*
X044543Y007786D01*
X044500Y007795D01*
X044457Y007807D01*
X044416Y007824D01*
X044376Y007843D01*
X044339Y007867D01*
X044303Y007893D01*
X044270Y007923D01*
X044240Y007955D01*
X044213Y007990D01*
X044189Y008027D01*
X044168Y008066D01*
X044151Y008107D01*
X044138Y008149D01*
X044128Y008192D01*
X044122Y008236D01*
X044120Y008280D01*
X045150Y009250D02*
X045750Y008500D01*
X045750Y007400D01*
X048200Y011071D02*
X051900Y011071D01*
X051900Y014772D01*
X048200Y014772D01*
X048200Y012134D01*
X048172Y012132D01*
X048144Y012127D01*
X048117Y012117D01*
X048092Y012105D01*
X048068Y012089D01*
X048047Y012070D01*
X048028Y012049D01*
X048012Y012026D01*
X048000Y012000D01*
X047990Y011973D01*
X047985Y011945D01*
X047983Y011917D01*
X047985Y011889D01*
X047990Y011861D01*
X048000Y011834D01*
X048012Y011809D01*
X048028Y011785D01*
X048047Y011764D01*
X048068Y011745D01*
X048092Y011729D01*
X048117Y011717D01*
X048144Y011707D01*
X048172Y011702D01*
X048200Y011700D01*
X048200Y011701D02*
X048200Y011071D01*
X048160Y013512D02*
X047885Y013512D01*
X047924Y014260D02*
X047895Y014301D01*
X047863Y014340D01*
X047828Y014377D01*
X047791Y014410D01*
X047751Y014441D01*
X047709Y014468D01*
X047665Y014493D01*
X047619Y014513D01*
X047571Y014530D01*
X047523Y014544D01*
X047473Y014553D01*
X047423Y014559D01*
X047373Y014561D01*
X047323Y014559D01*
X047273Y014553D01*
X047223Y014544D01*
X047175Y014530D01*
X047127Y014513D01*
X047081Y014493D01*
X047037Y014468D01*
X046995Y014441D01*
X046955Y014410D01*
X046918Y014377D01*
X046883Y014340D01*
X046851Y014301D01*
X046822Y014260D01*
X046822Y013551D01*
X046822Y013552D02*
X046851Y013511D01*
X046883Y013472D01*
X046918Y013435D01*
X046955Y013402D01*
X046995Y013371D01*
X047037Y013344D01*
X047081Y013319D01*
X047127Y013299D01*
X047175Y013282D01*
X047223Y013268D01*
X047273Y013259D01*
X047323Y013253D01*
X047373Y013251D01*
X047423Y013253D01*
X047473Y013259D01*
X047523Y013268D01*
X047571Y013282D01*
X047619Y013299D01*
X047665Y013319D01*
X047709Y013344D01*
X047751Y013371D01*
X047791Y013402D01*
X047828Y013435D01*
X047863Y013472D01*
X047895Y013511D01*
X047924Y013552D01*
X047885Y014299D02*
X048160Y014299D01*
X051940Y014299D02*
X052215Y014299D01*
X052176Y013552D02*
X052205Y013511D01*
X052237Y013472D01*
X052272Y013435D01*
X052309Y013402D01*
X052349Y013371D01*
X052391Y013344D01*
X052435Y013319D01*
X052481Y013299D01*
X052529Y013282D01*
X052577Y013268D01*
X052627Y013259D01*
X052677Y013253D01*
X052727Y013251D01*
X052777Y013253D01*
X052827Y013259D01*
X052877Y013268D01*
X052925Y013282D01*
X052973Y013299D01*
X053019Y013319D01*
X053063Y013344D01*
X053105Y013371D01*
X053145Y013402D01*
X053182Y013435D01*
X053217Y013472D01*
X053249Y013511D01*
X053278Y013552D01*
X053278Y013551D02*
X053278Y014260D01*
X053249Y014301D01*
X053217Y014340D01*
X053182Y014377D01*
X053145Y014410D01*
X053105Y014441D01*
X053063Y014468D01*
X053019Y014493D01*
X052973Y014513D01*
X052925Y014530D01*
X052877Y014544D01*
X052827Y014553D01*
X052777Y014559D01*
X052727Y014561D01*
X052677Y014559D01*
X052627Y014553D01*
X052577Y014544D01*
X052529Y014530D01*
X052481Y014513D01*
X052435Y014493D01*
X052391Y014468D01*
X052349Y014441D01*
X052309Y014410D01*
X052272Y014377D01*
X052237Y014340D01*
X052205Y014301D01*
X052176Y014260D01*
X052215Y013512D02*
X051940Y013512D01*
X045150Y042750D02*
X045750Y043500D01*
X045750Y044600D01*
X025750Y044600D02*
X025750Y043500D01*
X025150Y042750D01*
D15*
X024070Y043720D02*
X024072Y043767D01*
X024078Y043813D01*
X024088Y043859D01*
X024101Y043903D01*
X024119Y043947D01*
X024140Y043988D01*
X024164Y044028D01*
X024192Y044066D01*
X024223Y044101D01*
X024257Y044133D01*
X024293Y044162D01*
X024332Y044188D01*
X024372Y044211D01*
X024415Y044230D01*
X024459Y044246D01*
X024504Y044258D01*
X024550Y044266D01*
X024597Y044270D01*
X024643Y044270D01*
X024690Y044266D01*
X024736Y044258D01*
X024781Y044246D01*
X024825Y044230D01*
X024868Y044211D01*
X024908Y044188D01*
X024947Y044162D01*
X024983Y044133D01*
X025017Y044101D01*
X025048Y044066D01*
X025076Y044028D01*
X025100Y043988D01*
X025121Y043947D01*
X025139Y043903D01*
X025152Y043859D01*
X025162Y043813D01*
X025168Y043767D01*
X025170Y043720D01*
X025168Y043673D01*
X025162Y043627D01*
X025152Y043581D01*
X025139Y043537D01*
X025121Y043493D01*
X025100Y043452D01*
X025076Y043412D01*
X025048Y043374D01*
X025017Y043339D01*
X024983Y043307D01*
X024947Y043278D01*
X024908Y043252D01*
X024868Y043229D01*
X024825Y043210D01*
X024781Y043194D01*
X024736Y043182D01*
X024690Y043174D01*
X024643Y043170D01*
X024597Y043170D01*
X024550Y043174D01*
X024504Y043182D01*
X024459Y043194D01*
X024415Y043210D01*
X024372Y043229D01*
X024332Y043252D01*
X024293Y043278D01*
X024257Y043307D01*
X024223Y043339D01*
X024192Y043374D01*
X024164Y043412D01*
X024140Y043452D01*
X024119Y043493D01*
X024101Y043537D01*
X024088Y043581D01*
X024078Y043627D01*
X024072Y043673D01*
X024070Y043720D01*
X015890Y050150D02*
X015892Y050199D01*
X015898Y050248D01*
X015908Y050296D01*
X015921Y050343D01*
X015939Y050389D01*
X015960Y050433D01*
X015984Y050476D01*
X016012Y050516D01*
X016043Y050555D01*
X016077Y050590D01*
X016114Y050623D01*
X016153Y050652D01*
X016195Y050678D01*
X016238Y050701D01*
X016284Y050720D01*
X016330Y050736D01*
X016378Y050748D01*
X016426Y050756D01*
X016475Y050760D01*
X016525Y050760D01*
X016574Y050756D01*
X016622Y050748D01*
X016670Y050736D01*
X016716Y050720D01*
X016762Y050701D01*
X016805Y050678D01*
X016847Y050652D01*
X016886Y050623D01*
X016923Y050590D01*
X016957Y050555D01*
X016988Y050516D01*
X017016Y050476D01*
X017040Y050433D01*
X017061Y050389D01*
X017079Y050343D01*
X017092Y050296D01*
X017102Y050248D01*
X017108Y050199D01*
X017110Y050150D01*
X017108Y050101D01*
X017102Y050052D01*
X017092Y050004D01*
X017079Y049957D01*
X017061Y049911D01*
X017040Y049867D01*
X017016Y049824D01*
X016988Y049784D01*
X016957Y049745D01*
X016923Y049710D01*
X016886Y049677D01*
X016847Y049648D01*
X016805Y049622D01*
X016762Y049599D01*
X016716Y049580D01*
X016670Y049564D01*
X016622Y049552D01*
X016574Y049544D01*
X016525Y049540D01*
X016475Y049540D01*
X016426Y049544D01*
X016378Y049552D01*
X016330Y049564D01*
X016284Y049580D01*
X016238Y049599D01*
X016195Y049622D01*
X016153Y049648D01*
X016114Y049677D01*
X016077Y049710D01*
X016043Y049745D01*
X016012Y049784D01*
X015984Y049824D01*
X015960Y049867D01*
X015939Y049911D01*
X015921Y049957D01*
X015908Y050004D01*
X015898Y050052D01*
X015892Y050101D01*
X015890Y050150D01*
X011830Y043720D02*
X011832Y043767D01*
X011838Y043813D01*
X011848Y043859D01*
X011861Y043903D01*
X011879Y043947D01*
X011900Y043988D01*
X011924Y044028D01*
X011952Y044066D01*
X011983Y044101D01*
X012017Y044133D01*
X012053Y044162D01*
X012092Y044188D01*
X012132Y044211D01*
X012175Y044230D01*
X012219Y044246D01*
X012264Y044258D01*
X012310Y044266D01*
X012357Y044270D01*
X012403Y044270D01*
X012450Y044266D01*
X012496Y044258D01*
X012541Y044246D01*
X012585Y044230D01*
X012628Y044211D01*
X012668Y044188D01*
X012707Y044162D01*
X012743Y044133D01*
X012777Y044101D01*
X012808Y044066D01*
X012836Y044028D01*
X012860Y043988D01*
X012881Y043947D01*
X012899Y043903D01*
X012912Y043859D01*
X012922Y043813D01*
X012928Y043767D01*
X012930Y043720D01*
X012928Y043673D01*
X012922Y043627D01*
X012912Y043581D01*
X012899Y043537D01*
X012881Y043493D01*
X012860Y043452D01*
X012836Y043412D01*
X012808Y043374D01*
X012777Y043339D01*
X012743Y043307D01*
X012707Y043278D01*
X012668Y043252D01*
X012628Y043229D01*
X012585Y043210D01*
X012541Y043194D01*
X012496Y043182D01*
X012450Y043174D01*
X012403Y043170D01*
X012357Y043170D01*
X012310Y043174D01*
X012264Y043182D01*
X012219Y043194D01*
X012175Y043210D01*
X012132Y043229D01*
X012092Y043252D01*
X012053Y043278D01*
X012017Y043307D01*
X011983Y043339D01*
X011952Y043374D01*
X011924Y043412D01*
X011900Y043452D01*
X011879Y043493D01*
X011861Y043537D01*
X011848Y043581D01*
X011838Y043627D01*
X011832Y043673D01*
X011830Y043720D01*
X035830Y043720D02*
X035832Y043767D01*
X035838Y043813D01*
X035848Y043859D01*
X035861Y043903D01*
X035879Y043947D01*
X035900Y043988D01*
X035924Y044028D01*
X035952Y044066D01*
X035983Y044101D01*
X036017Y044133D01*
X036053Y044162D01*
X036092Y044188D01*
X036132Y044211D01*
X036175Y044230D01*
X036219Y044246D01*
X036264Y044258D01*
X036310Y044266D01*
X036357Y044270D01*
X036403Y044270D01*
X036450Y044266D01*
X036496Y044258D01*
X036541Y044246D01*
X036585Y044230D01*
X036628Y044211D01*
X036668Y044188D01*
X036707Y044162D01*
X036743Y044133D01*
X036777Y044101D01*
X036808Y044066D01*
X036836Y044028D01*
X036860Y043988D01*
X036881Y043947D01*
X036899Y043903D01*
X036912Y043859D01*
X036922Y043813D01*
X036928Y043767D01*
X036930Y043720D01*
X036928Y043673D01*
X036922Y043627D01*
X036912Y043581D01*
X036899Y043537D01*
X036881Y043493D01*
X036860Y043452D01*
X036836Y043412D01*
X036808Y043374D01*
X036777Y043339D01*
X036743Y043307D01*
X036707Y043278D01*
X036668Y043252D01*
X036628Y043229D01*
X036585Y043210D01*
X036541Y043194D01*
X036496Y043182D01*
X036450Y043174D01*
X036403Y043170D01*
X036357Y043170D01*
X036310Y043174D01*
X036264Y043182D01*
X036219Y043194D01*
X036175Y043210D01*
X036132Y043229D01*
X036092Y043252D01*
X036053Y043278D01*
X036017Y043307D01*
X035983Y043339D01*
X035952Y043374D01*
X035924Y043412D01*
X035900Y043452D01*
X035879Y043493D01*
X035861Y043537D01*
X035848Y043581D01*
X035838Y043627D01*
X035832Y043673D01*
X035830Y043720D01*
X043890Y050150D02*
X043892Y050199D01*
X043898Y050248D01*
X043908Y050296D01*
X043921Y050343D01*
X043939Y050389D01*
X043960Y050433D01*
X043984Y050476D01*
X044012Y050516D01*
X044043Y050555D01*
X044077Y050590D01*
X044114Y050623D01*
X044153Y050652D01*
X044195Y050678D01*
X044238Y050701D01*
X044284Y050720D01*
X044330Y050736D01*
X044378Y050748D01*
X044426Y050756D01*
X044475Y050760D01*
X044525Y050760D01*
X044574Y050756D01*
X044622Y050748D01*
X044670Y050736D01*
X044716Y050720D01*
X044762Y050701D01*
X044805Y050678D01*
X044847Y050652D01*
X044886Y050623D01*
X044923Y050590D01*
X044957Y050555D01*
X044988Y050516D01*
X045016Y050476D01*
X045040Y050433D01*
X045061Y050389D01*
X045079Y050343D01*
X045092Y050296D01*
X045102Y050248D01*
X045108Y050199D01*
X045110Y050150D01*
X045108Y050101D01*
X045102Y050052D01*
X045092Y050004D01*
X045079Y049957D01*
X045061Y049911D01*
X045040Y049867D01*
X045016Y049824D01*
X044988Y049784D01*
X044957Y049745D01*
X044923Y049710D01*
X044886Y049677D01*
X044847Y049648D01*
X044805Y049622D01*
X044762Y049599D01*
X044716Y049580D01*
X044670Y049564D01*
X044622Y049552D01*
X044574Y049544D01*
X044525Y049540D01*
X044475Y049540D01*
X044426Y049544D01*
X044378Y049552D01*
X044330Y049564D01*
X044284Y049580D01*
X044238Y049599D01*
X044195Y049622D01*
X044153Y049648D01*
X044114Y049677D01*
X044077Y049710D01*
X044043Y049745D01*
X044012Y049784D01*
X043984Y049824D01*
X043960Y049867D01*
X043939Y049911D01*
X043921Y049957D01*
X043908Y050004D01*
X043898Y050052D01*
X043892Y050101D01*
X043890Y050150D01*
X044070Y043720D02*
X044072Y043767D01*
X044078Y043813D01*
X044088Y043859D01*
X044101Y043903D01*
X044119Y043947D01*
X044140Y043988D01*
X044164Y044028D01*
X044192Y044066D01*
X044223Y044101D01*
X044257Y044133D01*
X044293Y044162D01*
X044332Y044188D01*
X044372Y044211D01*
X044415Y044230D01*
X044459Y044246D01*
X044504Y044258D01*
X044550Y044266D01*
X044597Y044270D01*
X044643Y044270D01*
X044690Y044266D01*
X044736Y044258D01*
X044781Y044246D01*
X044825Y044230D01*
X044868Y044211D01*
X044908Y044188D01*
X044947Y044162D01*
X044983Y044133D01*
X045017Y044101D01*
X045048Y044066D01*
X045076Y044028D01*
X045100Y043988D01*
X045121Y043947D01*
X045139Y043903D01*
X045152Y043859D01*
X045162Y043813D01*
X045168Y043767D01*
X045170Y043720D01*
X045168Y043673D01*
X045162Y043627D01*
X045152Y043581D01*
X045139Y043537D01*
X045121Y043493D01*
X045100Y043452D01*
X045076Y043412D01*
X045048Y043374D01*
X045017Y043339D01*
X044983Y043307D01*
X044947Y043278D01*
X044908Y043252D01*
X044868Y043229D01*
X044825Y043210D01*
X044781Y043194D01*
X044736Y043182D01*
X044690Y043174D01*
X044643Y043170D01*
X044597Y043170D01*
X044550Y043174D01*
X044504Y043182D01*
X044459Y043194D01*
X044415Y043210D01*
X044372Y043229D01*
X044332Y043252D01*
X044293Y043278D01*
X044257Y043307D01*
X044223Y043339D01*
X044192Y043374D01*
X044164Y043412D01*
X044140Y043452D01*
X044119Y043493D01*
X044101Y043537D01*
X044088Y043581D01*
X044078Y043627D01*
X044072Y043673D01*
X044070Y043720D01*
X049890Y050150D02*
X049892Y050199D01*
X049898Y050248D01*
X049908Y050296D01*
X049921Y050343D01*
X049939Y050389D01*
X049960Y050433D01*
X049984Y050476D01*
X050012Y050516D01*
X050043Y050555D01*
X050077Y050590D01*
X050114Y050623D01*
X050153Y050652D01*
X050195Y050678D01*
X050238Y050701D01*
X050284Y050720D01*
X050330Y050736D01*
X050378Y050748D01*
X050426Y050756D01*
X050475Y050760D01*
X050525Y050760D01*
X050574Y050756D01*
X050622Y050748D01*
X050670Y050736D01*
X050716Y050720D01*
X050762Y050701D01*
X050805Y050678D01*
X050847Y050652D01*
X050886Y050623D01*
X050923Y050590D01*
X050957Y050555D01*
X050988Y050516D01*
X051016Y050476D01*
X051040Y050433D01*
X051061Y050389D01*
X051079Y050343D01*
X051092Y050296D01*
X051102Y050248D01*
X051108Y050199D01*
X051110Y050150D01*
X051108Y050101D01*
X051102Y050052D01*
X051092Y050004D01*
X051079Y049957D01*
X051061Y049911D01*
X051040Y049867D01*
X051016Y049824D01*
X050988Y049784D01*
X050957Y049745D01*
X050923Y049710D01*
X050886Y049677D01*
X050847Y049648D01*
X050805Y049622D01*
X050762Y049599D01*
X050716Y049580D01*
X050670Y049564D01*
X050622Y049552D01*
X050574Y049544D01*
X050525Y049540D01*
X050475Y049540D01*
X050426Y049544D01*
X050378Y049552D01*
X050330Y049564D01*
X050284Y049580D01*
X050238Y049599D01*
X050195Y049622D01*
X050153Y049648D01*
X050114Y049677D01*
X050077Y049710D01*
X050043Y049745D01*
X050012Y049784D01*
X049984Y049824D01*
X049960Y049867D01*
X049939Y049911D01*
X049921Y049957D01*
X049908Y050004D01*
X049898Y050052D01*
X049892Y050101D01*
X049890Y050150D01*
X046782Y013902D02*
X046784Y013950D01*
X046790Y013998D01*
X046800Y014045D01*
X046813Y014091D01*
X046831Y014136D01*
X046851Y014180D01*
X046876Y014222D01*
X046904Y014261D01*
X046934Y014298D01*
X046968Y014332D01*
X047005Y014364D01*
X047043Y014393D01*
X047084Y014418D01*
X047127Y014440D01*
X047172Y014458D01*
X047218Y014472D01*
X047265Y014483D01*
X047313Y014490D01*
X047361Y014493D01*
X047409Y014492D01*
X047457Y014487D01*
X047505Y014478D01*
X047551Y014466D01*
X047596Y014449D01*
X047640Y014429D01*
X047682Y014406D01*
X047722Y014379D01*
X047760Y014349D01*
X047795Y014316D01*
X047827Y014280D01*
X047857Y014242D01*
X047883Y014201D01*
X047905Y014158D01*
X047925Y014114D01*
X047940Y014069D01*
X047952Y014022D01*
X047960Y013974D01*
X047964Y013926D01*
X047964Y013878D01*
X047960Y013830D01*
X047952Y013782D01*
X047940Y013735D01*
X047925Y013690D01*
X047905Y013646D01*
X047883Y013603D01*
X047857Y013562D01*
X047827Y013524D01*
X047795Y013488D01*
X047760Y013455D01*
X047722Y013425D01*
X047682Y013398D01*
X047640Y013375D01*
X047596Y013355D01*
X047551Y013338D01*
X047505Y013326D01*
X047457Y013317D01*
X047409Y013312D01*
X047361Y013311D01*
X047313Y013314D01*
X047265Y013321D01*
X047218Y013332D01*
X047172Y013346D01*
X047127Y013364D01*
X047084Y013386D01*
X047043Y013411D01*
X047005Y013440D01*
X046968Y013472D01*
X046934Y013506D01*
X046904Y013543D01*
X046876Y013582D01*
X046851Y013624D01*
X046831Y013668D01*
X046813Y013713D01*
X046800Y013759D01*
X046790Y013806D01*
X046784Y013854D01*
X046782Y013902D01*
X044070Y008280D02*
X044072Y008327D01*
X044078Y008373D01*
X044088Y008419D01*
X044101Y008463D01*
X044119Y008507D01*
X044140Y008548D01*
X044164Y008588D01*
X044192Y008626D01*
X044223Y008661D01*
X044257Y008693D01*
X044293Y008722D01*
X044332Y008748D01*
X044372Y008771D01*
X044415Y008790D01*
X044459Y008806D01*
X044504Y008818D01*
X044550Y008826D01*
X044597Y008830D01*
X044643Y008830D01*
X044690Y008826D01*
X044736Y008818D01*
X044781Y008806D01*
X044825Y008790D01*
X044868Y008771D01*
X044908Y008748D01*
X044947Y008722D01*
X044983Y008693D01*
X045017Y008661D01*
X045048Y008626D01*
X045076Y008588D01*
X045100Y008548D01*
X045121Y008507D01*
X045139Y008463D01*
X045152Y008419D01*
X045162Y008373D01*
X045168Y008327D01*
X045170Y008280D01*
X045168Y008233D01*
X045162Y008187D01*
X045152Y008141D01*
X045139Y008097D01*
X045121Y008053D01*
X045100Y008012D01*
X045076Y007972D01*
X045048Y007934D01*
X045017Y007899D01*
X044983Y007867D01*
X044947Y007838D01*
X044908Y007812D01*
X044868Y007789D01*
X044825Y007770D01*
X044781Y007754D01*
X044736Y007742D01*
X044690Y007734D01*
X044643Y007730D01*
X044597Y007730D01*
X044550Y007734D01*
X044504Y007742D01*
X044459Y007754D01*
X044415Y007770D01*
X044372Y007789D01*
X044332Y007812D01*
X044293Y007838D01*
X044257Y007867D01*
X044223Y007899D01*
X044192Y007934D01*
X044164Y007972D01*
X044140Y008012D01*
X044119Y008053D01*
X044101Y008097D01*
X044088Y008141D01*
X044078Y008187D01*
X044072Y008233D01*
X044070Y008280D01*
X043890Y001950D02*
X043892Y001999D01*
X043898Y002048D01*
X043908Y002096D01*
X043921Y002143D01*
X043939Y002189D01*
X043960Y002233D01*
X043984Y002276D01*
X044012Y002316D01*
X044043Y002355D01*
X044077Y002390D01*
X044114Y002423D01*
X044153Y002452D01*
X044195Y002478D01*
X044238Y002501D01*
X044284Y002520D01*
X044330Y002536D01*
X044378Y002548D01*
X044426Y002556D01*
X044475Y002560D01*
X044525Y002560D01*
X044574Y002556D01*
X044622Y002548D01*
X044670Y002536D01*
X044716Y002520D01*
X044762Y002501D01*
X044805Y002478D01*
X044847Y002452D01*
X044886Y002423D01*
X044923Y002390D01*
X044957Y002355D01*
X044988Y002316D01*
X045016Y002276D01*
X045040Y002233D01*
X045061Y002189D01*
X045079Y002143D01*
X045092Y002096D01*
X045102Y002048D01*
X045108Y001999D01*
X045110Y001950D01*
X045108Y001901D01*
X045102Y001852D01*
X045092Y001804D01*
X045079Y001757D01*
X045061Y001711D01*
X045040Y001667D01*
X045016Y001624D01*
X044988Y001584D01*
X044957Y001545D01*
X044923Y001510D01*
X044886Y001477D01*
X044847Y001448D01*
X044805Y001422D01*
X044762Y001399D01*
X044716Y001380D01*
X044670Y001364D01*
X044622Y001352D01*
X044574Y001344D01*
X044525Y001340D01*
X044475Y001340D01*
X044426Y001344D01*
X044378Y001352D01*
X044330Y001364D01*
X044284Y001380D01*
X044238Y001399D01*
X044195Y001422D01*
X044153Y001448D01*
X044114Y001477D01*
X044077Y001510D01*
X044043Y001545D01*
X044012Y001584D01*
X043984Y001624D01*
X043960Y001667D01*
X043939Y001711D01*
X043921Y001757D01*
X043908Y001804D01*
X043898Y001852D01*
X043892Y001901D01*
X043890Y001950D01*
X049890Y001950D02*
X049892Y001999D01*
X049898Y002048D01*
X049908Y002096D01*
X049921Y002143D01*
X049939Y002189D01*
X049960Y002233D01*
X049984Y002276D01*
X050012Y002316D01*
X050043Y002355D01*
X050077Y002390D01*
X050114Y002423D01*
X050153Y002452D01*
X050195Y002478D01*
X050238Y002501D01*
X050284Y002520D01*
X050330Y002536D01*
X050378Y002548D01*
X050426Y002556D01*
X050475Y002560D01*
X050525Y002560D01*
X050574Y002556D01*
X050622Y002548D01*
X050670Y002536D01*
X050716Y002520D01*
X050762Y002501D01*
X050805Y002478D01*
X050847Y002452D01*
X050886Y002423D01*
X050923Y002390D01*
X050957Y002355D01*
X050988Y002316D01*
X051016Y002276D01*
X051040Y002233D01*
X051061Y002189D01*
X051079Y002143D01*
X051092Y002096D01*
X051102Y002048D01*
X051108Y001999D01*
X051110Y001950D01*
X051108Y001901D01*
X051102Y001852D01*
X051092Y001804D01*
X051079Y001757D01*
X051061Y001711D01*
X051040Y001667D01*
X051016Y001624D01*
X050988Y001584D01*
X050957Y001545D01*
X050923Y001510D01*
X050886Y001477D01*
X050847Y001448D01*
X050805Y001422D01*
X050762Y001399D01*
X050716Y001380D01*
X050670Y001364D01*
X050622Y001352D01*
X050574Y001344D01*
X050525Y001340D01*
X050475Y001340D01*
X050426Y001344D01*
X050378Y001352D01*
X050330Y001364D01*
X050284Y001380D01*
X050238Y001399D01*
X050195Y001422D01*
X050153Y001448D01*
X050114Y001477D01*
X050077Y001510D01*
X050043Y001545D01*
X050012Y001584D01*
X049984Y001624D01*
X049960Y001667D01*
X049939Y001711D01*
X049921Y001757D01*
X049908Y001804D01*
X049898Y001852D01*
X049892Y001901D01*
X049890Y001950D01*
X052136Y013902D02*
X052138Y013950D01*
X052144Y013998D01*
X052154Y014045D01*
X052167Y014091D01*
X052185Y014136D01*
X052205Y014180D01*
X052230Y014222D01*
X052258Y014261D01*
X052288Y014298D01*
X052322Y014332D01*
X052359Y014364D01*
X052397Y014393D01*
X052438Y014418D01*
X052481Y014440D01*
X052526Y014458D01*
X052572Y014472D01*
X052619Y014483D01*
X052667Y014490D01*
X052715Y014493D01*
X052763Y014492D01*
X052811Y014487D01*
X052859Y014478D01*
X052905Y014466D01*
X052950Y014449D01*
X052994Y014429D01*
X053036Y014406D01*
X053076Y014379D01*
X053114Y014349D01*
X053149Y014316D01*
X053181Y014280D01*
X053211Y014242D01*
X053237Y014201D01*
X053259Y014158D01*
X053279Y014114D01*
X053294Y014069D01*
X053306Y014022D01*
X053314Y013974D01*
X053318Y013926D01*
X053318Y013878D01*
X053314Y013830D01*
X053306Y013782D01*
X053294Y013735D01*
X053279Y013690D01*
X053259Y013646D01*
X053237Y013603D01*
X053211Y013562D01*
X053181Y013524D01*
X053149Y013488D01*
X053114Y013455D01*
X053076Y013425D01*
X053036Y013398D01*
X052994Y013375D01*
X052950Y013355D01*
X052905Y013338D01*
X052859Y013326D01*
X052811Y013317D01*
X052763Y013312D01*
X052715Y013311D01*
X052667Y013314D01*
X052619Y013321D01*
X052572Y013332D01*
X052526Y013346D01*
X052481Y013364D01*
X052438Y013386D01*
X052397Y013411D01*
X052359Y013440D01*
X052322Y013472D01*
X052288Y013506D01*
X052258Y013543D01*
X052230Y013582D01*
X052205Y013624D01*
X052185Y013668D01*
X052167Y013713D01*
X052154Y013759D01*
X052144Y013806D01*
X052138Y013854D01*
X052136Y013902D01*
X035830Y008280D02*
X035832Y008327D01*
X035838Y008373D01*
X035848Y008419D01*
X035861Y008463D01*
X035879Y008507D01*
X035900Y008548D01*
X035924Y008588D01*
X035952Y008626D01*
X035983Y008661D01*
X036017Y008693D01*
X036053Y008722D01*
X036092Y008748D01*
X036132Y008771D01*
X036175Y008790D01*
X036219Y008806D01*
X036264Y008818D01*
X036310Y008826D01*
X036357Y008830D01*
X036403Y008830D01*
X036450Y008826D01*
X036496Y008818D01*
X036541Y008806D01*
X036585Y008790D01*
X036628Y008771D01*
X036668Y008748D01*
X036707Y008722D01*
X036743Y008693D01*
X036777Y008661D01*
X036808Y008626D01*
X036836Y008588D01*
X036860Y008548D01*
X036881Y008507D01*
X036899Y008463D01*
X036912Y008419D01*
X036922Y008373D01*
X036928Y008327D01*
X036930Y008280D01*
X036928Y008233D01*
X036922Y008187D01*
X036912Y008141D01*
X036899Y008097D01*
X036881Y008053D01*
X036860Y008012D01*
X036836Y007972D01*
X036808Y007934D01*
X036777Y007899D01*
X036743Y007867D01*
X036707Y007838D01*
X036668Y007812D01*
X036628Y007789D01*
X036585Y007770D01*
X036541Y007754D01*
X036496Y007742D01*
X036450Y007734D01*
X036403Y007730D01*
X036357Y007730D01*
X036310Y007734D01*
X036264Y007742D01*
X036219Y007754D01*
X036175Y007770D01*
X036132Y007789D01*
X036092Y007812D01*
X036053Y007838D01*
X036017Y007867D01*
X035983Y007899D01*
X035952Y007934D01*
X035924Y007972D01*
X035900Y008012D01*
X035879Y008053D01*
X035861Y008097D01*
X035848Y008141D01*
X035838Y008187D01*
X035832Y008233D01*
X035830Y008280D01*
X024070Y008280D02*
X024072Y008327D01*
X024078Y008373D01*
X024088Y008419D01*
X024101Y008463D01*
X024119Y008507D01*
X024140Y008548D01*
X024164Y008588D01*
X024192Y008626D01*
X024223Y008661D01*
X024257Y008693D01*
X024293Y008722D01*
X024332Y008748D01*
X024372Y008771D01*
X024415Y008790D01*
X024459Y008806D01*
X024504Y008818D01*
X024550Y008826D01*
X024597Y008830D01*
X024643Y008830D01*
X024690Y008826D01*
X024736Y008818D01*
X024781Y008806D01*
X024825Y008790D01*
X024868Y008771D01*
X024908Y008748D01*
X024947Y008722D01*
X024983Y008693D01*
X025017Y008661D01*
X025048Y008626D01*
X025076Y008588D01*
X025100Y008548D01*
X025121Y008507D01*
X025139Y008463D01*
X025152Y008419D01*
X025162Y008373D01*
X025168Y008327D01*
X025170Y008280D01*
X025168Y008233D01*
X025162Y008187D01*
X025152Y008141D01*
X025139Y008097D01*
X025121Y008053D01*
X025100Y008012D01*
X025076Y007972D01*
X025048Y007934D01*
X025017Y007899D01*
X024983Y007867D01*
X024947Y007838D01*
X024908Y007812D01*
X024868Y007789D01*
X024825Y007770D01*
X024781Y007754D01*
X024736Y007742D01*
X024690Y007734D01*
X024643Y007730D01*
X024597Y007730D01*
X024550Y007734D01*
X024504Y007742D01*
X024459Y007754D01*
X024415Y007770D01*
X024372Y007789D01*
X024332Y007812D01*
X024293Y007838D01*
X024257Y007867D01*
X024223Y007899D01*
X024192Y007934D01*
X024164Y007972D01*
X024140Y008012D01*
X024119Y008053D01*
X024101Y008097D01*
X024088Y008141D01*
X024078Y008187D01*
X024072Y008233D01*
X024070Y008280D01*
X015890Y001950D02*
X015892Y001999D01*
X015898Y002048D01*
X015908Y002096D01*
X015921Y002143D01*
X015939Y002189D01*
X015960Y002233D01*
X015984Y002276D01*
X016012Y002316D01*
X016043Y002355D01*
X016077Y002390D01*
X016114Y002423D01*
X016153Y002452D01*
X016195Y002478D01*
X016238Y002501D01*
X016284Y002520D01*
X016330Y002536D01*
X016378Y002548D01*
X016426Y002556D01*
X016475Y002560D01*
X016525Y002560D01*
X016574Y002556D01*
X016622Y002548D01*
X016670Y002536D01*
X016716Y002520D01*
X016762Y002501D01*
X016805Y002478D01*
X016847Y002452D01*
X016886Y002423D01*
X016923Y002390D01*
X016957Y002355D01*
X016988Y002316D01*
X017016Y002276D01*
X017040Y002233D01*
X017061Y002189D01*
X017079Y002143D01*
X017092Y002096D01*
X017102Y002048D01*
X017108Y001999D01*
X017110Y001950D01*
X017108Y001901D01*
X017102Y001852D01*
X017092Y001804D01*
X017079Y001757D01*
X017061Y001711D01*
X017040Y001667D01*
X017016Y001624D01*
X016988Y001584D01*
X016957Y001545D01*
X016923Y001510D01*
X016886Y001477D01*
X016847Y001448D01*
X016805Y001422D01*
X016762Y001399D01*
X016716Y001380D01*
X016670Y001364D01*
X016622Y001352D01*
X016574Y001344D01*
X016525Y001340D01*
X016475Y001340D01*
X016426Y001344D01*
X016378Y001352D01*
X016330Y001364D01*
X016284Y001380D01*
X016238Y001399D01*
X016195Y001422D01*
X016153Y001448D01*
X016114Y001477D01*
X016077Y001510D01*
X016043Y001545D01*
X016012Y001584D01*
X015984Y001624D01*
X015960Y001667D01*
X015939Y001711D01*
X015921Y001757D01*
X015908Y001804D01*
X015898Y001852D01*
X015892Y001901D01*
X015890Y001950D01*
X011830Y008280D02*
X011832Y008327D01*
X011838Y008373D01*
X011848Y008419D01*
X011861Y008463D01*
X011879Y008507D01*
X011900Y008548D01*
X011924Y008588D01*
X011952Y008626D01*
X011983Y008661D01*
X012017Y008693D01*
X012053Y008722D01*
X012092Y008748D01*
X012132Y008771D01*
X012175Y008790D01*
X012219Y008806D01*
X012264Y008818D01*
X012310Y008826D01*
X012357Y008830D01*
X012403Y008830D01*
X012450Y008826D01*
X012496Y008818D01*
X012541Y008806D01*
X012585Y008790D01*
X012628Y008771D01*
X012668Y008748D01*
X012707Y008722D01*
X012743Y008693D01*
X012777Y008661D01*
X012808Y008626D01*
X012836Y008588D01*
X012860Y008548D01*
X012881Y008507D01*
X012899Y008463D01*
X012912Y008419D01*
X012922Y008373D01*
X012928Y008327D01*
X012930Y008280D01*
X012928Y008233D01*
X012922Y008187D01*
X012912Y008141D01*
X012899Y008097D01*
X012881Y008053D01*
X012860Y008012D01*
X012836Y007972D01*
X012808Y007934D01*
X012777Y007899D01*
X012743Y007867D01*
X012707Y007838D01*
X012668Y007812D01*
X012628Y007789D01*
X012585Y007770D01*
X012541Y007754D01*
X012496Y007742D01*
X012450Y007734D01*
X012403Y007730D01*
X012357Y007730D01*
X012310Y007734D01*
X012264Y007742D01*
X012219Y007754D01*
X012175Y007770D01*
X012132Y007789D01*
X012092Y007812D01*
X012053Y007838D01*
X012017Y007867D01*
X011983Y007899D01*
X011952Y007934D01*
X011924Y007972D01*
X011900Y008012D01*
X011879Y008053D01*
X011861Y008097D01*
X011848Y008141D01*
X011838Y008187D01*
X011832Y008233D01*
X011830Y008280D01*
D16*
X000500Y000500D02*
X000500Y051600D01*
X053500Y051600D01*
X053500Y000500D01*
X000500Y000500D01*
X023125Y009075D02*
X023350Y009075D01*
X023425Y009150D01*
X023425Y009300D01*
X023350Y009375D01*
X023125Y009375D01*
X024414Y009575D02*
X024715Y009575D01*
X024414Y009875D01*
X024414Y009950D01*
X024489Y010025D01*
X024640Y010025D01*
X024715Y009950D01*
X024875Y009950D02*
X024875Y009875D01*
X024950Y009800D01*
X024875Y009725D01*
X024875Y009650D01*
X024950Y009575D01*
X025100Y009575D01*
X025175Y009650D01*
X025025Y009800D02*
X024950Y009800D01*
X024875Y009950D02*
X024950Y010025D01*
X025100Y010025D01*
X025175Y009950D01*
X025375Y009800D02*
X025375Y009575D01*
X025600Y009575D01*
X025675Y009650D01*
X025600Y009725D01*
X025375Y009725D01*
X025375Y009800D02*
X025450Y009875D01*
X025600Y009875D01*
X026750Y009306D02*
X026750Y009006D01*
X026900Y008846D02*
X026825Y008771D01*
X026825Y008621D01*
X026900Y008546D01*
X027200Y008846D01*
X026900Y008846D01*
X026900Y008546D02*
X027200Y008546D01*
X027275Y008621D01*
X027275Y008771D01*
X027200Y008846D01*
X026825Y008386D02*
X026825Y008085D01*
X026825Y008236D02*
X027275Y008236D01*
X027125Y008085D01*
X027275Y007925D02*
X026825Y007625D01*
X026825Y007925D02*
X027275Y007625D01*
X027125Y009467D02*
X027275Y009617D01*
X027125Y009767D01*
X026825Y009767D01*
X026900Y009927D02*
X026825Y010002D01*
X026825Y010152D01*
X026900Y010227D01*
X027275Y010227D01*
X027275Y010387D02*
X026825Y010688D01*
X026825Y010387D02*
X027275Y010688D01*
X027275Y009927D02*
X026900Y009927D01*
X027050Y009767D02*
X027050Y009467D01*
X027125Y009467D02*
X026825Y009467D01*
X024725Y013025D02*
X024275Y013025D01*
X024275Y013250D01*
X024350Y013325D01*
X024650Y013325D01*
X024725Y013250D01*
X024725Y013025D01*
X024725Y013485D02*
X024725Y013636D01*
X024725Y013560D02*
X024275Y013560D01*
X024275Y013485D02*
X024275Y013636D01*
X024275Y013792D02*
X024725Y013792D01*
X024275Y014093D01*
X024725Y014093D01*
X024500Y014253D02*
X024725Y014478D01*
X024275Y014478D01*
X024275Y014713D02*
X024275Y015013D01*
X024275Y014863D02*
X024725Y014863D01*
X024575Y014713D01*
X024500Y014553D02*
X024500Y014253D01*
X024500Y015173D02*
X024500Y015399D01*
X024425Y015474D01*
X024350Y015474D01*
X024275Y015399D01*
X024275Y015249D01*
X024350Y015173D01*
X024500Y015173D01*
X024650Y015324D01*
X024725Y015474D01*
X024575Y015634D02*
X024725Y015784D01*
X024275Y015784D01*
X024275Y015634D02*
X024275Y015934D01*
X024275Y016094D02*
X024575Y016395D01*
X024650Y016395D01*
X024725Y016319D01*
X024725Y016169D01*
X024650Y016094D01*
X024275Y016094D02*
X024275Y016395D01*
X024500Y017015D02*
X024500Y017315D01*
X024350Y017475D02*
X024275Y017551D01*
X024275Y017701D01*
X024350Y017776D01*
X024650Y017776D02*
X024725Y017701D01*
X024725Y017551D01*
X024650Y017475D01*
X024350Y017475D01*
X032245Y017216D02*
X032245Y016916D01*
X032245Y017066D02*
X032695Y017066D01*
X032545Y016916D01*
X032470Y016756D02*
X032395Y016681D01*
X032395Y016455D01*
X032245Y016455D02*
X032695Y016455D01*
X032695Y016681D01*
X032620Y016756D01*
X032470Y016756D01*
X032695Y016295D02*
X032695Y016145D01*
X032695Y016220D02*
X032320Y016220D01*
X032245Y016145D01*
X032245Y016070D01*
X032320Y015995D01*
X043125Y009375D02*
X043350Y009375D01*
X043425Y009300D01*
X043425Y009150D01*
X043350Y009075D01*
X043125Y009075D01*
X044414Y009575D02*
X044715Y009575D01*
X044414Y009875D01*
X044414Y009950D01*
X044489Y010025D01*
X044640Y010025D01*
X044715Y009950D01*
X044875Y009950D02*
X044875Y009875D01*
X044950Y009800D01*
X044875Y009725D01*
X044875Y009650D01*
X044950Y009575D01*
X045100Y009575D01*
X045175Y009650D01*
X045025Y009800D02*
X044950Y009800D01*
X044875Y009950D02*
X044950Y010025D01*
X045100Y010025D01*
X045175Y009950D01*
X045375Y009800D02*
X045450Y009875D01*
X045600Y009875D01*
X045600Y009725D02*
X045375Y009725D01*
X045375Y009800D02*
X045375Y009575D01*
X045600Y009575D01*
X045675Y009650D01*
X045600Y009725D01*
X046900Y008386D02*
X047200Y008386D01*
X047275Y008311D01*
X047275Y008160D01*
X047200Y008085D01*
X047125Y008085D01*
X047050Y008160D01*
X047050Y008386D01*
X046900Y008386D02*
X046825Y008311D01*
X046825Y008160D01*
X046900Y008085D01*
X046825Y007925D02*
X047275Y007625D01*
X047275Y007925D02*
X046825Y007625D01*
X044725Y013025D02*
X044275Y013025D01*
X044275Y013250D01*
X044350Y013325D01*
X044650Y013325D01*
X044725Y013250D01*
X044725Y013025D01*
X044725Y013485D02*
X044725Y013636D01*
X044725Y013560D02*
X044275Y013560D01*
X044275Y013485D02*
X044275Y013636D01*
X044275Y013792D02*
X044725Y013792D01*
X044275Y014093D01*
X044725Y014093D01*
X044500Y014253D02*
X044725Y014478D01*
X044275Y014478D01*
X044275Y014713D02*
X044275Y015013D01*
X044275Y014863D02*
X044725Y014863D01*
X044575Y014713D01*
X044500Y014553D02*
X044500Y014253D01*
X044500Y015173D02*
X044500Y015399D01*
X044425Y015474D01*
X044350Y015474D01*
X044275Y015399D01*
X044275Y015249D01*
X044350Y015173D01*
X044500Y015173D01*
X044650Y015324D01*
X044725Y015474D01*
X044575Y015634D02*
X044725Y015784D01*
X044275Y015784D01*
X044275Y015634D02*
X044275Y015934D01*
X044275Y016094D02*
X044575Y016395D01*
X044650Y016395D01*
X044725Y016319D01*
X044725Y016169D01*
X044650Y016094D01*
X044275Y016094D02*
X044275Y016395D01*
X044500Y017015D02*
X044500Y017315D01*
X044350Y017475D02*
X044275Y017551D01*
X044275Y017701D01*
X044350Y017776D01*
X044650Y017776D02*
X044725Y017701D01*
X044725Y017551D01*
X044650Y017475D01*
X044350Y017475D01*
X048574Y026098D02*
X048574Y027102D01*
X049126Y027102D01*
X049126Y026098D01*
X048574Y026098D01*
X049574Y026098D02*
X049574Y027102D01*
X050126Y027102D01*
X050126Y026098D01*
X049574Y026098D01*
X045675Y042025D02*
X045675Y042325D01*
X045525Y042475D01*
X045375Y042325D01*
X045375Y042025D01*
X045375Y042250D02*
X045675Y042250D01*
X044925Y042325D02*
X044775Y042475D01*
X044775Y042025D01*
X044925Y042025D02*
X044625Y042025D01*
X043425Y042600D02*
X043350Y042525D01*
X043200Y042525D01*
X043125Y042600D01*
X043425Y042600D02*
X043425Y042900D01*
X043350Y042975D01*
X043200Y042975D01*
X043125Y042900D01*
X025675Y042325D02*
X025525Y042475D01*
X025375Y042325D01*
X025375Y042025D01*
X025375Y042250D02*
X025675Y042250D01*
X025675Y042325D02*
X025675Y042025D01*
X024925Y042025D02*
X024625Y042025D01*
X024775Y042025D02*
X024775Y042475D01*
X024925Y042325D01*
X023425Y042600D02*
X023350Y042525D01*
X023200Y042525D01*
X023125Y042600D01*
X023425Y042600D02*
X023425Y042900D01*
X023350Y042975D01*
X023200Y042975D01*
X023125Y042900D01*
D17*
X047015Y028763D02*
X047015Y027837D01*
X047585Y027837D01*
X047585Y028763D01*
X047015Y028763D01*
X047037Y027335D02*
X047963Y027335D01*
X047963Y026765D01*
X047037Y026765D01*
X047037Y027335D01*
X050526Y027061D02*
X050526Y025939D01*
X051274Y025939D01*
X051274Y027061D01*
X050526Y027061D01*
X049224Y018411D02*
X048476Y018411D01*
X048476Y017289D01*
X049224Y017289D01*
X049224Y018411D01*
D18*
X049298Y017929D02*
X049298Y017682D01*
X049545Y017929D01*
X049607Y017929D01*
X049668Y017867D01*
X049668Y017744D01*
X049607Y017682D01*
X049298Y017561D02*
X049298Y017314D01*
X049668Y017314D01*
X051348Y025964D02*
X051348Y026211D01*
X051348Y026332D02*
X051348Y026579D01*
X051348Y026456D02*
X051718Y026456D01*
X051595Y026332D01*
X051718Y025964D02*
X051348Y025964D01*
X050650Y026615D02*
X050589Y026553D01*
X050342Y026553D01*
X050280Y026615D01*
X050280Y026738D01*
X050342Y026800D01*
X050465Y026922D02*
X050465Y027168D01*
X050280Y027107D02*
X050650Y027107D01*
X050465Y026922D01*
X050589Y026800D02*
X050650Y026738D01*
X050650Y026615D01*
X048450Y026545D02*
X048080Y026545D01*
X048080Y026422D02*
X048080Y026668D01*
X048327Y026422D02*
X048450Y026545D01*
X048389Y026300D02*
X048450Y026238D01*
X048450Y026115D01*
X048389Y026053D01*
X048142Y026053D01*
X048080Y026115D01*
X048080Y026238D01*
X048142Y026300D01*
X047549Y026350D02*
X047549Y026720D01*
X047364Y026720D01*
X047302Y026659D01*
X047302Y026535D01*
X047364Y026473D01*
X047549Y026473D01*
X047426Y026473D02*
X047302Y026350D01*
X047181Y026412D02*
X047119Y026350D01*
X046996Y026350D01*
X046934Y026412D01*
X046934Y026473D01*
X046996Y026535D01*
X047057Y026535D01*
X046996Y026535D02*
X046934Y026597D01*
X046934Y026659D01*
X046996Y026720D01*
X047119Y026720D01*
X047181Y026659D01*
X047650Y028151D02*
X048020Y028151D01*
X048020Y028336D01*
X047959Y028398D01*
X047835Y028398D01*
X047773Y028336D01*
X047773Y028151D01*
X047773Y028274D02*
X047650Y028398D01*
X047835Y028519D02*
X047835Y028766D01*
X047650Y028704D02*
X048020Y028704D01*
X047835Y028519D01*
X031335Y006891D02*
X031397Y006829D01*
X031397Y006706D01*
X031335Y006644D01*
X031335Y006523D02*
X031397Y006461D01*
X031397Y006338D01*
X031335Y006276D01*
X031089Y006276D01*
X031027Y006338D01*
X031027Y006461D01*
X031089Y006523D01*
X031027Y006644D02*
X031274Y006891D01*
X031335Y006891D01*
X031027Y006891D02*
X031027Y006644D01*
X017974Y006979D02*
X017912Y006917D01*
X017665Y006917D01*
X017603Y006979D01*
X017603Y007103D01*
X017665Y007164D01*
X017665Y007286D02*
X017603Y007347D01*
X017603Y007471D01*
X017665Y007533D01*
X017727Y007533D01*
X017788Y007471D01*
X017788Y007409D01*
X017788Y007471D02*
X017850Y007533D01*
X017912Y007533D01*
X017974Y007471D01*
X017974Y007347D01*
X017912Y007286D01*
X017912Y007164D02*
X017974Y007103D01*
X017974Y006979D01*
M02*
