G75*
%MOIN*%
%OFA0B0*%
%FSLAX24Y24*%
%IPPOS*%
%LPD*%
%AMOC8*
5,1,8,0,0,1.08239X$1,22.5*
%
%ADD10R,0.0827X0.0827*%
%ADD11OC8,0.0560*%
%ADD12C,0.0600*%
%ADD13C,0.0436*%
%ADD14C,0.0160*%
D10*
X049223Y011917D03*
X050877Y011917D03*
X050877Y014083D03*
X049223Y014083D03*
D11*
X045500Y014500D03*
X045500Y015500D03*
X045500Y016500D03*
X045500Y017500D03*
X045500Y018500D03*
X045500Y019500D03*
X045500Y020500D03*
X045500Y021500D03*
X045500Y022500D03*
X045500Y023500D03*
X045500Y024500D03*
X045500Y025500D03*
X045500Y026500D03*
X045500Y027500D03*
X045500Y028500D03*
X045500Y029500D03*
X045500Y030500D03*
X045500Y031500D03*
X045500Y032500D03*
X045500Y033500D03*
X045500Y034500D03*
X045500Y035500D03*
X045500Y036500D03*
X045500Y037500D03*
X045500Y038500D03*
X045500Y039500D03*
X045500Y040500D03*
X045500Y041500D03*
X043500Y041500D03*
X043500Y040500D03*
X043500Y039500D03*
X043500Y038500D03*
X043500Y037500D03*
X043500Y036500D03*
X043500Y035500D03*
X043500Y034500D03*
X043500Y033500D03*
X043500Y032500D03*
X043500Y031500D03*
X043500Y030500D03*
X043500Y029500D03*
X043500Y028500D03*
X043500Y027500D03*
X043500Y026500D03*
X043500Y025500D03*
X043500Y024500D03*
X043500Y023500D03*
X043500Y022500D03*
X043500Y021500D03*
X043500Y020500D03*
X043500Y019500D03*
X043500Y018500D03*
X043500Y017500D03*
X043500Y016500D03*
X043500Y015500D03*
X043500Y014500D03*
X043500Y013500D03*
X043500Y012500D03*
X043500Y011500D03*
X043500Y010500D03*
X045500Y010500D03*
X045500Y011500D03*
X045500Y012500D03*
X045500Y013500D03*
X037500Y013500D03*
X037500Y012500D03*
X037500Y011500D03*
X037500Y010500D03*
X035500Y010500D03*
X035500Y011500D03*
X035500Y012500D03*
X035500Y013500D03*
X035500Y014500D03*
X035500Y015500D03*
X035500Y016500D03*
X035500Y017500D03*
X035500Y018500D03*
X035500Y019500D03*
X035500Y020500D03*
X035500Y021500D03*
X035500Y022500D03*
X035500Y023500D03*
X035500Y024500D03*
X035500Y025500D03*
X035500Y026500D03*
X035500Y027500D03*
X035500Y028500D03*
X035500Y029500D03*
X035500Y030500D03*
X035500Y031500D03*
X035500Y032500D03*
X035500Y033500D03*
X035500Y034500D03*
X035500Y035500D03*
X035500Y036500D03*
X035500Y037500D03*
X035500Y038500D03*
X035500Y039500D03*
X035500Y040500D03*
X035500Y041500D03*
X037500Y041500D03*
X037500Y040500D03*
X037500Y039500D03*
X037500Y038500D03*
X037500Y037500D03*
X037500Y036500D03*
X037500Y035500D03*
X037500Y034500D03*
X037500Y033500D03*
X037500Y032500D03*
X037500Y031500D03*
X037500Y030500D03*
X037500Y029500D03*
X037500Y028500D03*
X037500Y027500D03*
X037500Y026500D03*
X037500Y025500D03*
X037500Y024500D03*
X037500Y023500D03*
X037500Y022500D03*
X037500Y021500D03*
X037500Y020500D03*
X037500Y019500D03*
X037500Y018500D03*
X037500Y017500D03*
X037500Y016500D03*
X037500Y015500D03*
X037500Y014500D03*
X025500Y014500D03*
X025500Y015500D03*
X025500Y016500D03*
X025500Y017500D03*
X025500Y018500D03*
X025500Y019500D03*
X025500Y020500D03*
X025500Y021500D03*
X025500Y022500D03*
X025500Y023500D03*
X025500Y024500D03*
X025500Y025500D03*
X025500Y026500D03*
X025500Y027500D03*
X025500Y028500D03*
X025500Y029500D03*
X025500Y030500D03*
X025500Y031500D03*
X025500Y032500D03*
X025500Y033500D03*
X025500Y034500D03*
X025500Y035500D03*
X025500Y036500D03*
X025500Y037500D03*
X025500Y038500D03*
X025500Y039500D03*
X025500Y040500D03*
X025500Y041500D03*
X023500Y041500D03*
X023500Y040500D03*
X023500Y039500D03*
X023500Y038500D03*
X023500Y037500D03*
X023500Y036500D03*
X023500Y035500D03*
X023500Y034500D03*
X023500Y033500D03*
X023500Y032500D03*
X023500Y031500D03*
X023500Y030500D03*
X023500Y029500D03*
X023500Y028500D03*
X023500Y027500D03*
X023500Y026500D03*
X023500Y025500D03*
X023500Y024500D03*
X023500Y023500D03*
X023500Y022500D03*
X023500Y021500D03*
X023500Y020500D03*
X023500Y019500D03*
X023500Y018500D03*
X023500Y017500D03*
X023500Y016500D03*
X023500Y015500D03*
X023500Y014500D03*
X023500Y013500D03*
X023500Y012500D03*
X023500Y011500D03*
X023500Y010500D03*
X025500Y010500D03*
X025500Y011500D03*
X025500Y012500D03*
X025500Y013500D03*
X013500Y013500D03*
X013500Y012500D03*
X013500Y011500D03*
X013500Y010500D03*
X011500Y010500D03*
X011500Y011500D03*
X011500Y012500D03*
X011500Y013500D03*
X011500Y014500D03*
X011500Y015500D03*
X011500Y016500D03*
X011500Y017500D03*
X011500Y018500D03*
X011500Y019500D03*
X011500Y020500D03*
X011500Y021500D03*
X011500Y022500D03*
X011500Y023500D03*
X011500Y024500D03*
X011500Y025500D03*
X011500Y026500D03*
X011500Y027500D03*
X011500Y028500D03*
X011500Y029500D03*
X011500Y030500D03*
X011500Y031500D03*
X011500Y032500D03*
X011500Y033500D03*
X011500Y034500D03*
X011500Y035500D03*
X011500Y036500D03*
X011500Y037500D03*
X011500Y038500D03*
X011500Y039500D03*
X011500Y040500D03*
X011500Y041500D03*
X013500Y041500D03*
X013500Y040500D03*
X013500Y039500D03*
X013500Y038500D03*
X013500Y037500D03*
X013500Y036500D03*
X013500Y035500D03*
X013500Y034500D03*
X013500Y033500D03*
X013500Y032500D03*
X013500Y031500D03*
X013500Y030500D03*
X013500Y029500D03*
X013500Y028500D03*
X013500Y027500D03*
X013500Y026500D03*
X013500Y025500D03*
X013500Y024500D03*
X013500Y023500D03*
X013500Y022500D03*
X013500Y021500D03*
X013500Y020500D03*
X013500Y019500D03*
X013500Y018500D03*
X013500Y017500D03*
X013500Y016500D03*
X013500Y015500D03*
X013500Y014500D03*
D12*
X031200Y016500D02*
X031800Y016500D01*
X031800Y017500D02*
X031200Y017500D01*
D13*
X029500Y017500D03*
X028000Y017500D03*
X026500Y017500D03*
X024500Y017500D03*
X022000Y017500D03*
X020000Y017500D03*
X018500Y017500D03*
X017000Y017500D03*
X015000Y017500D03*
X012500Y017500D03*
X010000Y017500D03*
X008000Y017500D03*
X006500Y017500D03*
X005000Y017500D03*
X009500Y029000D03*
X015500Y029500D03*
X018000Y029500D03*
X021500Y029500D03*
X028000Y029000D03*
X030500Y029000D03*
X033000Y029000D03*
X040000Y029500D03*
X046500Y029000D03*
X046500Y033000D03*
X047500Y035450D03*
X050500Y035950D03*
X052000Y037950D03*
X048000Y039450D03*
X047500Y042450D03*
X048500Y045950D03*
X051500Y045950D03*
X052000Y042450D03*
X043000Y045950D03*
X040000Y046450D03*
X039500Y044450D03*
X038000Y045950D03*
X035000Y046450D03*
X032500Y040950D03*
X028500Y041450D03*
X027500Y043450D03*
X023000Y045450D03*
X020500Y044450D03*
X019000Y041950D03*
X016000Y044450D03*
X015500Y042500D03*
X012000Y045950D03*
X014000Y046950D03*
X009500Y046950D03*
X007500Y045950D03*
X008000Y042950D03*
X004500Y044450D03*
X019000Y047450D03*
X040500Y041450D03*
X052500Y032950D03*
X052500Y028950D03*
X052500Y025950D03*
X049500Y025500D03*
X047000Y024500D03*
X048000Y023000D03*
X050000Y022000D03*
X052500Y022950D03*
X052500Y020450D03*
X049800Y018600D03*
X049800Y017150D03*
X048000Y017450D03*
X048000Y019000D03*
X047500Y020500D03*
X047000Y015450D03*
X041000Y020000D03*
X033500Y017500D03*
X031500Y009450D03*
X030500Y006950D03*
X029500Y005950D03*
X029500Y004950D03*
X031500Y004950D03*
X031500Y005950D03*
X019500Y005950D03*
X019500Y004950D03*
X017500Y004950D03*
X017500Y005950D03*
X018500Y006950D03*
X019500Y009450D03*
D14*
X001005Y003950D02*
X001005Y047950D01*
X052995Y047950D01*
X052995Y014938D01*
X052868Y014972D01*
X052586Y014972D01*
X052314Y014899D01*
X052070Y014758D01*
X051871Y014559D01*
X051730Y014315D01*
X051657Y014043D01*
X051657Y013761D01*
X051730Y013488D01*
X051871Y013244D01*
X052070Y013045D01*
X052314Y012904D01*
X052586Y012831D01*
X052868Y012831D01*
X052995Y012865D01*
X052995Y003950D01*
X001005Y003950D01*
X001005Y003987D02*
X052995Y003987D01*
X052995Y004146D02*
X001005Y004146D01*
X001005Y004304D02*
X052995Y004304D01*
X052995Y004463D02*
X001005Y004463D01*
X001005Y004621D02*
X052995Y004621D01*
X052995Y004780D02*
X001005Y004780D01*
X001005Y004938D02*
X052995Y004938D01*
X052995Y005097D02*
X001005Y005097D01*
X001005Y005255D02*
X052995Y005255D01*
X052995Y005414D02*
X001005Y005414D01*
X001005Y005572D02*
X052995Y005572D01*
X052995Y005731D02*
X001005Y005731D01*
X001005Y005889D02*
X052995Y005889D01*
X052995Y006048D02*
X001005Y006048D01*
X001005Y006206D02*
X052995Y006206D01*
X052995Y006365D02*
X001005Y006365D01*
X001005Y006523D02*
X052995Y006523D01*
X052995Y006682D02*
X001005Y006682D01*
X001005Y006840D02*
X024431Y006840D01*
X024620Y006810D02*
X024620Y006810D01*
X025074Y006882D01*
X025074Y006882D01*
X025484Y007091D01*
X025484Y007091D01*
X025809Y007416D01*
X026018Y007826D01*
X026090Y008280D01*
X026018Y008734D01*
X026018Y008734D01*
X025809Y009144D01*
X025809Y009144D01*
X025484Y009469D01*
X025074Y009678D01*
X024620Y009750D01*
X024166Y009678D01*
X024166Y009678D01*
X023756Y009469D01*
X023431Y009144D01*
X023222Y008734D01*
X023150Y008280D01*
X023150Y008280D01*
X023222Y007826D01*
X023222Y007826D01*
X023431Y007416D01*
X023756Y007091D01*
X024166Y006882D01*
X024620Y006810D01*
X024809Y006840D02*
X044431Y006840D01*
X044620Y006810D02*
X044166Y006882D01*
X044166Y006882D01*
X043756Y007091D01*
X043756Y007091D01*
X043431Y007416D01*
X043431Y007416D01*
X043431Y007416D01*
X043222Y007826D01*
X043222Y007826D01*
X043150Y008280D01*
X043150Y008280D01*
X043222Y008734D01*
X043222Y008734D01*
X043431Y009144D01*
X043431Y009144D01*
X043756Y009469D01*
X043756Y009469D01*
X044166Y009678D01*
X044166Y009678D01*
X044620Y009750D01*
X044620Y009750D01*
X045074Y009678D01*
X045074Y009678D01*
X045484Y009469D01*
X045484Y009469D01*
X045809Y009144D01*
X045809Y009144D01*
X046018Y008734D01*
X046018Y008734D01*
X046090Y008280D01*
X046018Y007826D01*
X046018Y007826D01*
X045809Y007416D01*
X045809Y007416D01*
X045484Y007091D01*
X045484Y007091D01*
X045074Y006882D01*
X044620Y006810D01*
X044809Y006840D02*
X052995Y006840D01*
X052995Y006999D02*
X045303Y006999D01*
X045550Y007157D02*
X052995Y007157D01*
X052995Y007316D02*
X045709Y007316D01*
X045839Y007474D02*
X052995Y007474D01*
X052995Y007633D02*
X045920Y007633D01*
X046000Y007791D02*
X052995Y007791D01*
X052995Y007950D02*
X046038Y007950D01*
X046063Y008108D02*
X052995Y008108D01*
X052995Y008267D02*
X046088Y008267D01*
X046067Y008425D02*
X052995Y008425D01*
X052995Y008584D02*
X046042Y008584D01*
X046014Y008742D02*
X052995Y008742D01*
X052995Y008901D02*
X045933Y008901D01*
X045853Y009059D02*
X052995Y009059D01*
X052995Y009218D02*
X045736Y009218D01*
X045577Y009376D02*
X052995Y009376D01*
X052995Y009535D02*
X045356Y009535D01*
X044980Y009693D02*
X052995Y009693D01*
X052995Y009852D02*
X031675Y009852D01*
X031748Y009821D02*
X031587Y009888D01*
X031413Y009888D01*
X031252Y009821D01*
X031129Y009698D01*
X031062Y009537D01*
X031062Y009363D01*
X031129Y009202D01*
X031252Y009079D01*
X031413Y009012D01*
X031587Y009012D01*
X031748Y009079D01*
X031871Y009202D01*
X031938Y009363D01*
X031938Y009537D01*
X031871Y009698D01*
X031748Y009821D01*
X031873Y009693D02*
X044260Y009693D01*
X043884Y009535D02*
X031938Y009535D01*
X031938Y009376D02*
X043663Y009376D01*
X043504Y009218D02*
X036816Y009218D01*
X036778Y009240D02*
X036516Y009310D01*
X036244Y009310D01*
X035982Y009240D01*
X035748Y009104D01*
X035556Y008912D01*
X035420Y008678D01*
X035350Y008416D01*
X035350Y008144D01*
X035420Y007882D01*
X035556Y007648D01*
X035748Y007456D01*
X035982Y007320D01*
X036244Y007250D01*
X036516Y007250D01*
X036778Y007320D01*
X037012Y007456D01*
X037204Y007648D01*
X037340Y007882D01*
X037410Y008144D01*
X037410Y008416D01*
X037340Y008678D01*
X037204Y008912D01*
X037012Y009104D01*
X036778Y009240D01*
X037058Y009059D02*
X043387Y009059D01*
X043307Y008901D02*
X037211Y008901D01*
X037303Y008742D02*
X043226Y008742D01*
X043198Y008584D02*
X037365Y008584D01*
X037407Y008425D02*
X043173Y008425D01*
X043152Y008267D02*
X037410Y008267D01*
X037400Y008108D02*
X043177Y008108D01*
X043202Y007950D02*
X037358Y007950D01*
X037287Y007791D02*
X043240Y007791D01*
X043320Y007633D02*
X037189Y007633D01*
X037031Y007474D02*
X043401Y007474D01*
X043531Y007316D02*
X036760Y007316D01*
X036000Y007316D02*
X025709Y007316D01*
X025809Y007416D02*
X025809Y007416D01*
X025839Y007474D02*
X035729Y007474D01*
X035571Y007633D02*
X025920Y007633D01*
X026000Y007791D02*
X035473Y007791D01*
X035402Y007950D02*
X026038Y007950D01*
X026018Y007826D02*
X026018Y007826D01*
X026063Y008108D02*
X035360Y008108D01*
X035350Y008267D02*
X026088Y008267D01*
X026067Y008425D02*
X035353Y008425D01*
X035395Y008584D02*
X026042Y008584D01*
X026014Y008742D02*
X035457Y008742D01*
X035549Y008901D02*
X025933Y008901D01*
X025853Y009059D02*
X031300Y009059D01*
X031122Y009218D02*
X025736Y009218D01*
X025577Y009376D02*
X031062Y009376D01*
X031062Y009535D02*
X025356Y009535D01*
X025484Y009469D02*
X025484Y009469D01*
X025074Y009678D02*
X025074Y009678D01*
X024980Y009693D02*
X031127Y009693D01*
X031325Y009852D02*
X019675Y009852D01*
X019748Y009821D02*
X019587Y009888D01*
X019413Y009888D01*
X019252Y009821D01*
X019129Y009698D01*
X019062Y009537D01*
X019062Y009363D01*
X019129Y009202D01*
X019252Y009079D01*
X019413Y009012D01*
X019587Y009012D01*
X019748Y009079D01*
X019871Y009202D01*
X019938Y009363D01*
X019938Y009537D01*
X019871Y009698D01*
X019748Y009821D01*
X019873Y009693D02*
X024260Y009693D01*
X024620Y009750D02*
X024620Y009750D01*
X025124Y010169D02*
X023876Y010169D01*
X024000Y010293D02*
X023707Y010000D01*
X023293Y010000D01*
X023000Y010293D01*
X023000Y010707D01*
X023293Y011000D01*
X023707Y011000D01*
X024000Y010707D01*
X024000Y010293D01*
X024000Y010327D02*
X025000Y010327D01*
X025000Y010293D02*
X025293Y010000D01*
X025707Y010000D01*
X026000Y010293D01*
X026000Y010707D01*
X025707Y011000D01*
X025293Y011000D01*
X025000Y010707D01*
X025000Y010293D01*
X025000Y010486D02*
X024000Y010486D01*
X024000Y010644D02*
X025000Y010644D01*
X025095Y010803D02*
X023905Y010803D01*
X023746Y010961D02*
X025254Y010961D01*
X025293Y011000D02*
X025707Y011000D01*
X026000Y011293D01*
X026000Y011707D01*
X025707Y012000D01*
X025293Y012000D01*
X025000Y011707D01*
X025000Y011293D01*
X025293Y011000D01*
X025173Y011120D02*
X023827Y011120D01*
X023707Y011000D02*
X024000Y011293D01*
X024000Y011707D01*
X023707Y012000D01*
X023293Y012000D01*
X023000Y011707D01*
X023000Y011293D01*
X023293Y011000D01*
X023707Y011000D01*
X023985Y011278D02*
X025015Y011278D01*
X025000Y011437D02*
X024000Y011437D01*
X024000Y011595D02*
X025000Y011595D01*
X025046Y011754D02*
X023954Y011754D01*
X023795Y011912D02*
X025205Y011912D01*
X025293Y012000D02*
X025707Y012000D01*
X026000Y012293D01*
X026000Y012707D01*
X025707Y013000D01*
X025293Y013000D01*
X025000Y012707D01*
X025000Y012293D01*
X025293Y012000D01*
X025222Y012071D02*
X023778Y012071D01*
X023707Y012000D02*
X024000Y012293D01*
X024000Y012707D01*
X023707Y013000D01*
X023293Y013000D01*
X023000Y012707D01*
X023000Y012293D01*
X023293Y012000D01*
X023707Y012000D01*
X023936Y012229D02*
X025064Y012229D01*
X025000Y012388D02*
X024000Y012388D01*
X024000Y012546D02*
X025000Y012546D01*
X025000Y012705D02*
X024000Y012705D01*
X023844Y012863D02*
X025156Y012863D01*
X025293Y013000D02*
X025000Y013293D01*
X025000Y013707D01*
X025293Y014000D01*
X025707Y014000D01*
X026000Y013707D01*
X026000Y013293D01*
X025707Y013000D01*
X025293Y013000D01*
X025271Y013022D02*
X023729Y013022D01*
X023707Y013000D02*
X024000Y013293D01*
X024000Y013707D01*
X023707Y014000D01*
X023293Y014000D01*
X023000Y013707D01*
X023000Y013293D01*
X023293Y013000D01*
X023707Y013000D01*
X023887Y013180D02*
X025113Y013180D01*
X025000Y013339D02*
X024000Y013339D01*
X024000Y013497D02*
X025000Y013497D01*
X025000Y013656D02*
X024000Y013656D01*
X023893Y013814D02*
X025107Y013814D01*
X025265Y013973D02*
X023735Y013973D01*
X023707Y014000D02*
X024000Y014293D01*
X024000Y014707D01*
X023707Y015000D01*
X023293Y015000D01*
X023000Y014707D01*
X023000Y014293D01*
X023293Y014000D01*
X023707Y014000D01*
X023838Y014131D02*
X025162Y014131D01*
X025293Y014000D02*
X025000Y014293D01*
X025000Y014707D01*
X025293Y015000D01*
X025707Y015000D01*
X026000Y014707D01*
X026000Y014293D01*
X025707Y014000D01*
X025293Y014000D01*
X025003Y014290D02*
X023997Y014290D01*
X024000Y014448D02*
X025000Y014448D01*
X025000Y014607D02*
X024000Y014607D01*
X023942Y014765D02*
X025058Y014765D01*
X025216Y014924D02*
X023784Y014924D01*
X023707Y015000D02*
X024000Y015293D01*
X024000Y015707D01*
X023707Y016000D01*
X023293Y016000D01*
X023000Y015707D01*
X023000Y015293D01*
X023293Y015000D01*
X023707Y015000D01*
X023789Y015082D02*
X025211Y015082D01*
X025293Y015000D02*
X025707Y015000D01*
X026000Y015293D01*
X026000Y015707D01*
X025707Y016000D01*
X025293Y016000D01*
X025000Y015707D01*
X025000Y015293D01*
X025293Y015000D01*
X025052Y015241D02*
X023948Y015241D01*
X024000Y015399D02*
X025000Y015399D01*
X025000Y015558D02*
X024000Y015558D01*
X023991Y015716D02*
X025009Y015716D01*
X025167Y015875D02*
X023833Y015875D01*
X023707Y016000D02*
X024000Y016293D01*
X024000Y016707D01*
X023707Y017000D01*
X023293Y017000D01*
X023000Y016707D01*
X023000Y016293D01*
X023293Y016000D01*
X023707Y016000D01*
X023740Y016033D02*
X025260Y016033D01*
X025293Y016000D02*
X025707Y016000D01*
X026000Y016293D01*
X026000Y016707D01*
X025707Y017000D01*
X025293Y017000D01*
X025000Y016707D01*
X025000Y016293D01*
X025293Y016000D01*
X025101Y016192D02*
X023899Y016192D01*
X024000Y016350D02*
X025000Y016350D01*
X025000Y016509D02*
X024000Y016509D01*
X024000Y016667D02*
X025000Y016667D01*
X025118Y016826D02*
X023882Y016826D01*
X023723Y016984D02*
X025277Y016984D01*
X025723Y016984D02*
X031010Y016984D01*
X031097Y017020D02*
X030905Y016941D01*
X030759Y016795D01*
X030680Y016603D01*
X030680Y016397D01*
X030759Y016205D01*
X030905Y016059D01*
X031097Y015980D01*
X031903Y015980D01*
X032095Y016059D01*
X032241Y016205D01*
X032320Y016397D01*
X032320Y016603D01*
X032241Y016795D01*
X032095Y016941D01*
X031903Y017020D01*
X031097Y017020D01*
X030790Y016826D02*
X025882Y016826D01*
X026000Y016667D02*
X030706Y016667D01*
X030680Y016509D02*
X026000Y016509D01*
X026000Y016350D02*
X030699Y016350D01*
X030773Y016192D02*
X025899Y016192D01*
X025740Y016033D02*
X030969Y016033D01*
X032031Y016033D02*
X035260Y016033D01*
X035293Y016000D02*
X035000Y015707D01*
X035000Y015293D01*
X035293Y015000D01*
X035000Y014707D01*
X035000Y014293D01*
X035293Y014000D01*
X035000Y013707D01*
X035000Y013293D01*
X035293Y013000D01*
X035000Y012707D01*
X035000Y012293D01*
X035293Y012000D01*
X035000Y011707D01*
X035000Y011293D01*
X035293Y011000D01*
X035000Y010707D01*
X035000Y010293D01*
X035293Y010000D01*
X035707Y010000D01*
X036000Y010293D01*
X036000Y010707D01*
X035707Y011000D01*
X035293Y011000D01*
X035707Y011000D01*
X036000Y011293D01*
X036000Y011707D01*
X035707Y012000D01*
X035293Y012000D01*
X035707Y012000D01*
X036000Y012293D01*
X036000Y012707D01*
X035707Y013000D01*
X035293Y013000D01*
X035707Y013000D01*
X036000Y013293D01*
X036000Y013707D01*
X035707Y014000D01*
X035293Y014000D01*
X035707Y014000D01*
X036000Y014293D01*
X036000Y014707D01*
X035707Y015000D01*
X035293Y015000D01*
X035707Y015000D01*
X036000Y015293D01*
X036000Y015707D01*
X035707Y016000D01*
X035293Y016000D01*
X035707Y016000D01*
X036000Y016293D01*
X036000Y016707D01*
X035707Y017000D01*
X035293Y017000D01*
X035000Y016707D01*
X035000Y016293D01*
X035293Y016000D01*
X035167Y015875D02*
X025833Y015875D01*
X025991Y015716D02*
X035009Y015716D01*
X035000Y015558D02*
X026000Y015558D01*
X026000Y015399D02*
X035000Y015399D01*
X035052Y015241D02*
X025948Y015241D01*
X025789Y015082D02*
X035211Y015082D01*
X035216Y014924D02*
X025784Y014924D01*
X025942Y014765D02*
X035058Y014765D01*
X035000Y014607D02*
X026000Y014607D01*
X026000Y014448D02*
X035000Y014448D01*
X035003Y014290D02*
X025997Y014290D01*
X025838Y014131D02*
X035162Y014131D01*
X035265Y013973D02*
X025735Y013973D01*
X025893Y013814D02*
X035107Y013814D01*
X035000Y013656D02*
X026000Y013656D01*
X026000Y013497D02*
X035000Y013497D01*
X035000Y013339D02*
X026000Y013339D01*
X025887Y013180D02*
X035113Y013180D01*
X035271Y013022D02*
X025729Y013022D01*
X025844Y012863D02*
X035156Y012863D01*
X035000Y012705D02*
X026000Y012705D01*
X026000Y012546D02*
X035000Y012546D01*
X035000Y012388D02*
X026000Y012388D01*
X025936Y012229D02*
X035064Y012229D01*
X035222Y012071D02*
X025778Y012071D01*
X025795Y011912D02*
X035205Y011912D01*
X035046Y011754D02*
X025954Y011754D01*
X026000Y011595D02*
X035000Y011595D01*
X035000Y011437D02*
X026000Y011437D01*
X025985Y011278D02*
X035015Y011278D01*
X035173Y011120D02*
X025827Y011120D01*
X025746Y010961D02*
X035254Y010961D01*
X035095Y010803D02*
X025905Y010803D01*
X026000Y010644D02*
X035000Y010644D01*
X035000Y010486D02*
X026000Y010486D01*
X026000Y010327D02*
X035000Y010327D01*
X035124Y010169D02*
X025876Y010169D01*
X025717Y010010D02*
X035283Y010010D01*
X035717Y010010D02*
X037283Y010010D01*
X037293Y010000D02*
X037707Y010000D01*
X038000Y010293D01*
X038000Y010707D01*
X037707Y011000D01*
X037293Y011000D01*
X037000Y010707D01*
X037000Y010293D01*
X037293Y010000D01*
X037124Y010169D02*
X035876Y010169D01*
X036000Y010327D02*
X037000Y010327D01*
X037000Y010486D02*
X036000Y010486D01*
X036000Y010644D02*
X037000Y010644D01*
X037095Y010803D02*
X035905Y010803D01*
X035746Y010961D02*
X037254Y010961D01*
X037293Y011000D02*
X037707Y011000D01*
X038000Y011293D01*
X038000Y011707D01*
X037707Y012000D01*
X037293Y012000D01*
X037000Y011707D01*
X037000Y011293D01*
X037293Y011000D01*
X037173Y011120D02*
X035827Y011120D01*
X035985Y011278D02*
X037015Y011278D01*
X037000Y011437D02*
X036000Y011437D01*
X036000Y011595D02*
X037000Y011595D01*
X037046Y011754D02*
X035954Y011754D01*
X035795Y011912D02*
X037205Y011912D01*
X037293Y012000D02*
X037707Y012000D01*
X038000Y012293D01*
X038000Y012707D01*
X037707Y013000D01*
X037293Y013000D01*
X037000Y012707D01*
X037000Y012293D01*
X037293Y012000D01*
X037222Y012071D02*
X035778Y012071D01*
X035936Y012229D02*
X037064Y012229D01*
X037000Y012388D02*
X036000Y012388D01*
X036000Y012546D02*
X037000Y012546D01*
X037000Y012705D02*
X036000Y012705D01*
X035844Y012863D02*
X037156Y012863D01*
X037293Y013000D02*
X037000Y013293D01*
X037000Y013707D01*
X037293Y014000D01*
X037707Y014000D01*
X038000Y013707D01*
X038000Y013293D01*
X037707Y013000D01*
X037293Y013000D01*
X037271Y013022D02*
X035729Y013022D01*
X035887Y013180D02*
X037113Y013180D01*
X037000Y013339D02*
X036000Y013339D01*
X036000Y013497D02*
X037000Y013497D01*
X037000Y013656D02*
X036000Y013656D01*
X035893Y013814D02*
X037107Y013814D01*
X037265Y013973D02*
X035735Y013973D01*
X035838Y014131D02*
X037162Y014131D01*
X037293Y014000D02*
X037707Y014000D01*
X038000Y014293D01*
X038000Y014707D01*
X037707Y015000D01*
X037293Y015000D01*
X037000Y014707D01*
X037000Y014293D01*
X037293Y014000D01*
X037003Y014290D02*
X035997Y014290D01*
X036000Y014448D02*
X037000Y014448D01*
X037000Y014607D02*
X036000Y014607D01*
X035942Y014765D02*
X037058Y014765D01*
X037216Y014924D02*
X035784Y014924D01*
X035789Y015082D02*
X037211Y015082D01*
X037293Y015000D02*
X037707Y015000D01*
X038000Y015293D01*
X038000Y015707D01*
X037707Y016000D01*
X037293Y016000D01*
X037000Y015707D01*
X037000Y015293D01*
X037293Y015000D01*
X037052Y015241D02*
X035948Y015241D01*
X036000Y015399D02*
X037000Y015399D01*
X037000Y015558D02*
X036000Y015558D01*
X035991Y015716D02*
X037009Y015716D01*
X037167Y015875D02*
X035833Y015875D01*
X035740Y016033D02*
X037260Y016033D01*
X037293Y016000D02*
X037707Y016000D01*
X038000Y016293D01*
X038000Y016707D01*
X037707Y017000D01*
X037293Y017000D01*
X037000Y016707D01*
X037000Y016293D01*
X037293Y016000D01*
X037101Y016192D02*
X035899Y016192D01*
X036000Y016350D02*
X037000Y016350D01*
X037000Y016509D02*
X036000Y016509D01*
X036000Y016667D02*
X037000Y016667D01*
X037118Y016826D02*
X035882Y016826D01*
X035723Y016984D02*
X037277Y016984D01*
X037723Y016984D02*
X043277Y016984D01*
X043293Y017000D02*
X043000Y016707D01*
X043000Y016293D01*
X043293Y016000D01*
X043000Y015707D01*
X043000Y015293D01*
X043293Y015000D01*
X043000Y014707D01*
X043000Y014293D01*
X043293Y014000D01*
X043000Y013707D01*
X043000Y013293D01*
X043293Y013000D01*
X043000Y012707D01*
X043000Y012293D01*
X043293Y012000D01*
X043000Y011707D01*
X043000Y011293D01*
X043293Y011000D01*
X043000Y010707D01*
X043000Y010293D01*
X043293Y010000D01*
X043707Y010000D01*
X044000Y010293D01*
X044000Y010707D01*
X043707Y011000D01*
X043293Y011000D01*
X043707Y011000D01*
X044000Y011293D01*
X044000Y011707D01*
X043707Y012000D01*
X043293Y012000D01*
X043707Y012000D01*
X044000Y012293D01*
X044000Y012707D01*
X043707Y013000D01*
X043293Y013000D01*
X043707Y013000D01*
X044000Y013293D01*
X044000Y013707D01*
X043707Y014000D01*
X043293Y014000D01*
X043707Y014000D01*
X044000Y014293D01*
X044000Y014707D01*
X043707Y015000D01*
X043293Y015000D01*
X043707Y015000D01*
X044000Y015293D01*
X044000Y015707D01*
X043707Y016000D01*
X043293Y016000D01*
X043707Y016000D01*
X044000Y016293D01*
X044000Y016707D01*
X043707Y017000D01*
X043293Y017000D01*
X043118Y016826D02*
X037882Y016826D01*
X038000Y016667D02*
X043000Y016667D01*
X043000Y016509D02*
X038000Y016509D01*
X038000Y016350D02*
X043000Y016350D01*
X043101Y016192D02*
X037899Y016192D01*
X037740Y016033D02*
X043260Y016033D01*
X043167Y015875D02*
X037833Y015875D01*
X037991Y015716D02*
X043009Y015716D01*
X043000Y015558D02*
X038000Y015558D01*
X038000Y015399D02*
X043000Y015399D01*
X043052Y015241D02*
X037948Y015241D01*
X037789Y015082D02*
X043211Y015082D01*
X043216Y014924D02*
X037784Y014924D01*
X037942Y014765D02*
X043058Y014765D01*
X043000Y014607D02*
X038000Y014607D01*
X038000Y014448D02*
X043000Y014448D01*
X043003Y014290D02*
X037997Y014290D01*
X037838Y014131D02*
X043162Y014131D01*
X043265Y013973D02*
X037735Y013973D01*
X037893Y013814D02*
X043107Y013814D01*
X043000Y013656D02*
X038000Y013656D01*
X038000Y013497D02*
X043000Y013497D01*
X043000Y013339D02*
X038000Y013339D01*
X037887Y013180D02*
X043113Y013180D01*
X043271Y013022D02*
X037729Y013022D01*
X037844Y012863D02*
X043156Y012863D01*
X043000Y012705D02*
X038000Y012705D01*
X038000Y012546D02*
X043000Y012546D01*
X043000Y012388D02*
X038000Y012388D01*
X037936Y012229D02*
X043064Y012229D01*
X043222Y012071D02*
X037778Y012071D01*
X037795Y011912D02*
X043205Y011912D01*
X043046Y011754D02*
X037954Y011754D01*
X038000Y011595D02*
X043000Y011595D01*
X043000Y011437D02*
X038000Y011437D01*
X037985Y011278D02*
X043015Y011278D01*
X043173Y011120D02*
X037827Y011120D01*
X037746Y010961D02*
X043254Y010961D01*
X043095Y010803D02*
X037905Y010803D01*
X038000Y010644D02*
X043000Y010644D01*
X043000Y010486D02*
X038000Y010486D01*
X038000Y010327D02*
X043000Y010327D01*
X043124Y010169D02*
X037876Y010169D01*
X037717Y010010D02*
X043283Y010010D01*
X043717Y010010D02*
X045283Y010010D01*
X045293Y010000D02*
X045707Y010000D01*
X046000Y010293D01*
X046000Y010707D01*
X045707Y011000D01*
X045293Y011000D01*
X045000Y010707D01*
X045000Y010293D01*
X045293Y010000D01*
X045124Y010169D02*
X043876Y010169D01*
X044000Y010327D02*
X045000Y010327D01*
X045000Y010486D02*
X044000Y010486D01*
X044000Y010644D02*
X045000Y010644D01*
X045095Y010803D02*
X043905Y010803D01*
X043746Y010961D02*
X045254Y010961D01*
X045293Y011000D02*
X045707Y011000D01*
X046000Y011293D01*
X046000Y011707D01*
X045707Y012000D01*
X045293Y012000D01*
X045000Y011707D01*
X045000Y011293D01*
X045293Y011000D01*
X045173Y011120D02*
X043827Y011120D01*
X043985Y011278D02*
X045015Y011278D01*
X045000Y011437D02*
X044000Y011437D01*
X044000Y011595D02*
X045000Y011595D01*
X045046Y011754D02*
X043954Y011754D01*
X043795Y011912D02*
X045205Y011912D01*
X045293Y012000D02*
X045707Y012000D01*
X046000Y012293D01*
X046000Y012707D01*
X045707Y013000D01*
X045293Y013000D01*
X045000Y012707D01*
X045000Y012293D01*
X045293Y012000D01*
X045222Y012071D02*
X043778Y012071D01*
X043936Y012229D02*
X045064Y012229D01*
X045000Y012388D02*
X044000Y012388D01*
X044000Y012546D02*
X045000Y012546D01*
X045000Y012705D02*
X044000Y012705D01*
X043844Y012863D02*
X045156Y012863D01*
X045293Y013000D02*
X045000Y013293D01*
X045000Y013707D01*
X045293Y014000D01*
X045707Y014000D01*
X046000Y013707D01*
X046000Y013293D01*
X045707Y013000D01*
X045293Y013000D01*
X045271Y013022D02*
X043729Y013022D01*
X043887Y013180D02*
X045113Y013180D01*
X045000Y013339D02*
X044000Y013339D01*
X044000Y013497D02*
X045000Y013497D01*
X045000Y013656D02*
X044000Y013656D01*
X043893Y013814D02*
X045107Y013814D01*
X045265Y013973D02*
X043735Y013973D01*
X043838Y014131D02*
X045162Y014131D01*
X045293Y014000D02*
X045707Y014000D01*
X046000Y014293D01*
X046000Y014707D01*
X045707Y015000D01*
X045293Y015000D01*
X045000Y014707D01*
X045000Y014293D01*
X045293Y014000D01*
X045003Y014290D02*
X043997Y014290D01*
X044000Y014448D02*
X045000Y014448D01*
X045000Y014607D02*
X044000Y014607D01*
X043942Y014765D02*
X045058Y014765D01*
X045216Y014924D02*
X043784Y014924D01*
X043789Y015082D02*
X045211Y015082D01*
X045293Y015000D02*
X045707Y015000D01*
X046000Y015293D01*
X046000Y015707D01*
X045707Y016000D01*
X045293Y016000D01*
X045000Y015707D01*
X045000Y015293D01*
X045293Y015000D01*
X045052Y015241D02*
X043948Y015241D01*
X044000Y015399D02*
X045000Y015399D01*
X045000Y015558D02*
X044000Y015558D01*
X043991Y015716D02*
X045009Y015716D01*
X045167Y015875D02*
X043833Y015875D01*
X043740Y016033D02*
X045260Y016033D01*
X045293Y016000D02*
X045707Y016000D01*
X046000Y016293D01*
X046000Y016707D01*
X045707Y017000D01*
X045293Y017000D01*
X045000Y016707D01*
X045000Y016293D01*
X045293Y016000D01*
X045101Y016192D02*
X043899Y016192D01*
X044000Y016350D02*
X045000Y016350D01*
X045000Y016509D02*
X044000Y016509D01*
X044000Y016667D02*
X045000Y016667D01*
X045118Y016826D02*
X043882Y016826D01*
X043723Y016984D02*
X045277Y016984D01*
X045723Y016984D02*
X052995Y016984D01*
X052995Y016826D02*
X045882Y016826D01*
X046000Y016667D02*
X052995Y016667D01*
X052995Y016509D02*
X046000Y016509D01*
X046000Y016350D02*
X052995Y016350D01*
X052995Y016192D02*
X045899Y016192D01*
X045740Y016033D02*
X052995Y016033D01*
X052995Y015875D02*
X045833Y015875D01*
X045991Y015716D02*
X052995Y015716D01*
X052995Y015558D02*
X046000Y015558D01*
X046000Y015399D02*
X052995Y015399D01*
X052995Y015241D02*
X045948Y015241D01*
X045789Y015082D02*
X052995Y015082D01*
X052405Y014924D02*
X047695Y014924D01*
X047786Y014899D02*
X047514Y014972D01*
X047232Y014972D01*
X046960Y014899D01*
X046716Y014758D01*
X046516Y014559D01*
X046375Y014315D01*
X046302Y014043D01*
X046302Y013761D01*
X046375Y013488D01*
X046516Y013244D01*
X046716Y013045D01*
X046960Y012904D01*
X047232Y012831D01*
X047514Y012831D01*
X047786Y012904D01*
X048030Y013045D01*
X048229Y013244D01*
X048370Y013488D01*
X048443Y013761D01*
X048443Y014043D01*
X048370Y014315D01*
X048229Y014559D01*
X048030Y014758D01*
X047786Y014899D01*
X048018Y014765D02*
X052082Y014765D01*
X051918Y014607D02*
X048182Y014607D01*
X048294Y014448D02*
X051806Y014448D01*
X051723Y014290D02*
X048377Y014290D01*
X048420Y014131D02*
X051680Y014131D01*
X051657Y013973D02*
X048443Y013973D01*
X048443Y013814D02*
X051657Y013814D01*
X051685Y013656D02*
X048415Y013656D01*
X048373Y013497D02*
X051727Y013497D01*
X051816Y013339D02*
X048284Y013339D01*
X048165Y013180D02*
X051935Y013180D01*
X052110Y013022D02*
X047990Y013022D01*
X047633Y012863D02*
X052467Y012863D01*
X052988Y012863D02*
X052995Y012863D01*
X052995Y012705D02*
X046000Y012705D01*
X046000Y012546D02*
X048714Y012546D01*
X048719Y012551D02*
X048590Y012422D01*
X048590Y011413D01*
X048719Y011284D01*
X049728Y011284D01*
X049857Y011413D01*
X049857Y012422D01*
X049728Y012551D01*
X048719Y012551D01*
X048590Y012388D02*
X046000Y012388D01*
X045936Y012229D02*
X048590Y012229D01*
X048590Y012071D02*
X045778Y012071D01*
X045795Y011912D02*
X048590Y011912D01*
X048590Y011754D02*
X045954Y011754D01*
X046000Y011595D02*
X048590Y011595D01*
X048590Y011437D02*
X046000Y011437D01*
X045985Y011278D02*
X052995Y011278D01*
X052995Y011120D02*
X045827Y011120D01*
X045746Y010961D02*
X052995Y010961D01*
X052995Y010803D02*
X045905Y010803D01*
X046000Y010644D02*
X052995Y010644D01*
X052995Y010486D02*
X046000Y010486D01*
X046000Y010327D02*
X052995Y010327D01*
X052995Y010169D02*
X045876Y010169D01*
X045717Y010010D02*
X052995Y010010D01*
X052995Y011437D02*
X051510Y011437D01*
X051510Y011413D02*
X051510Y012422D01*
X051381Y012551D01*
X050372Y012551D01*
X050243Y012422D01*
X050243Y011413D01*
X050372Y011284D01*
X051381Y011284D01*
X051510Y011413D01*
X051510Y011595D02*
X052995Y011595D01*
X052995Y011754D02*
X051510Y011754D01*
X051510Y011912D02*
X052995Y011912D01*
X052995Y012071D02*
X051510Y012071D01*
X051510Y012229D02*
X052995Y012229D01*
X052995Y012388D02*
X051510Y012388D01*
X051386Y012546D02*
X052995Y012546D01*
X050368Y012546D02*
X049732Y012546D01*
X049857Y012388D02*
X050243Y012388D01*
X050243Y012229D02*
X049857Y012229D01*
X049857Y012071D02*
X050243Y012071D01*
X050243Y011912D02*
X049857Y011912D01*
X049857Y011754D02*
X050243Y011754D01*
X050243Y011595D02*
X049857Y011595D01*
X049857Y011437D02*
X050243Y011437D01*
X047112Y012863D02*
X045844Y012863D01*
X045729Y013022D02*
X046756Y013022D01*
X046580Y013180D02*
X045887Y013180D01*
X046000Y013339D02*
X046462Y013339D01*
X046373Y013497D02*
X046000Y013497D01*
X046000Y013656D02*
X046330Y013656D01*
X046302Y013814D02*
X045893Y013814D01*
X045735Y013973D02*
X046302Y013973D01*
X046326Y014131D02*
X045838Y014131D01*
X045997Y014290D02*
X046368Y014290D01*
X046452Y014448D02*
X046000Y014448D01*
X046000Y014607D02*
X046564Y014607D01*
X046727Y014765D02*
X045942Y014765D01*
X045784Y014924D02*
X047051Y014924D01*
X045707Y018000D02*
X045293Y018000D01*
X045000Y018293D01*
X045000Y018707D01*
X045293Y019000D01*
X045707Y019000D01*
X046000Y018707D01*
X046000Y018293D01*
X045707Y018000D01*
X045801Y018094D02*
X052995Y018094D01*
X052995Y018252D02*
X050071Y018252D01*
X050048Y018229D02*
X050171Y018352D01*
X050238Y018513D01*
X050238Y018687D01*
X050171Y018848D01*
X050048Y018971D01*
X049887Y019038D01*
X049713Y019038D01*
X049552Y018971D01*
X049429Y018848D01*
X049362Y018687D01*
X049362Y018513D01*
X049429Y018352D01*
X049552Y018229D01*
X049713Y018162D01*
X049887Y018162D01*
X050048Y018229D01*
X050195Y018411D02*
X052995Y018411D01*
X052995Y018569D02*
X050238Y018569D01*
X050221Y018728D02*
X052995Y018728D01*
X052995Y018886D02*
X050133Y018886D01*
X049467Y018886D02*
X048427Y018886D01*
X048438Y018913D02*
X048371Y018752D01*
X048248Y018629D01*
X048087Y018562D01*
X047913Y018562D01*
X047752Y018629D01*
X047629Y018752D01*
X047562Y018913D01*
X047562Y019087D01*
X047629Y019248D01*
X047752Y019371D01*
X047913Y019438D01*
X048087Y019438D01*
X048248Y019371D01*
X048371Y019248D01*
X048438Y019087D01*
X048438Y018913D01*
X048438Y019045D02*
X052995Y019045D01*
X052995Y019203D02*
X048390Y019203D01*
X048258Y019362D02*
X052995Y019362D01*
X052995Y019520D02*
X046000Y019520D01*
X046000Y019362D02*
X047742Y019362D01*
X047610Y019203D02*
X045910Y019203D01*
X046000Y019293D02*
X045707Y019000D01*
X045293Y019000D01*
X045000Y019293D01*
X045000Y019707D01*
X045293Y020000D01*
X045707Y020000D01*
X046000Y019707D01*
X046000Y019293D01*
X045752Y019045D02*
X047562Y019045D01*
X047573Y018886D02*
X045821Y018886D01*
X045980Y018728D02*
X047653Y018728D01*
X047896Y018569D02*
X046000Y018569D01*
X046000Y018411D02*
X049405Y018411D01*
X049362Y018569D02*
X048104Y018569D01*
X048347Y018728D02*
X049379Y018728D01*
X049529Y018252D02*
X045959Y018252D01*
X045199Y018094D02*
X043801Y018094D01*
X043707Y018000D02*
X044000Y018293D01*
X044000Y018707D01*
X043707Y019000D01*
X043293Y019000D01*
X043000Y018707D01*
X043000Y018293D01*
X043293Y018000D01*
X043707Y018000D01*
X043959Y018252D02*
X045041Y018252D01*
X045000Y018411D02*
X044000Y018411D01*
X044000Y018569D02*
X045000Y018569D01*
X045020Y018728D02*
X043980Y018728D01*
X043821Y018886D02*
X045179Y018886D01*
X045248Y019045D02*
X043752Y019045D01*
X043707Y019000D02*
X044000Y019293D01*
X044000Y019707D01*
X043707Y020000D01*
X043293Y020000D01*
X043000Y019707D01*
X043000Y019293D01*
X043293Y019000D01*
X043707Y019000D01*
X043910Y019203D02*
X045090Y019203D01*
X045000Y019362D02*
X044000Y019362D01*
X044000Y019520D02*
X045000Y019520D01*
X045000Y019679D02*
X044000Y019679D01*
X043870Y019837D02*
X045130Y019837D01*
X045288Y019996D02*
X043712Y019996D01*
X043707Y020000D02*
X044000Y020293D01*
X044000Y020707D01*
X043707Y021000D01*
X043293Y021000D01*
X043000Y020707D01*
X043000Y020293D01*
X043293Y020000D01*
X043707Y020000D01*
X043861Y020154D02*
X045139Y020154D01*
X045000Y020293D02*
X045293Y020000D01*
X045707Y020000D01*
X046000Y020293D01*
X046000Y020707D01*
X045707Y021000D01*
X045293Y021000D01*
X045000Y020707D01*
X045000Y020293D01*
X045000Y020313D02*
X044000Y020313D01*
X044000Y020471D02*
X045000Y020471D01*
X045000Y020630D02*
X044000Y020630D01*
X043919Y020788D02*
X045081Y020788D01*
X045239Y020947D02*
X043761Y020947D01*
X043707Y021000D02*
X044000Y021293D01*
X044000Y021707D01*
X043707Y022000D01*
X043293Y022000D01*
X043000Y021707D01*
X043000Y021293D01*
X043293Y021000D01*
X043707Y021000D01*
X043812Y021105D02*
X045188Y021105D01*
X045293Y021000D02*
X045707Y021000D01*
X046000Y021293D01*
X046000Y021707D01*
X045707Y022000D01*
X045293Y022000D01*
X045000Y021707D01*
X045000Y021293D01*
X045293Y021000D01*
X045029Y021264D02*
X043971Y021264D01*
X044000Y021422D02*
X045000Y021422D01*
X045000Y021581D02*
X044000Y021581D01*
X043968Y021739D02*
X045032Y021739D01*
X045190Y021898D02*
X043810Y021898D01*
X043707Y022000D02*
X044000Y022293D01*
X044000Y022707D01*
X043707Y023000D01*
X043293Y023000D01*
X043000Y022707D01*
X043000Y022293D01*
X043293Y022000D01*
X043707Y022000D01*
X043763Y022056D02*
X045237Y022056D01*
X045293Y022000D02*
X045707Y022000D01*
X046000Y022293D01*
X046000Y022707D01*
X045707Y023000D01*
X045293Y023000D01*
X045000Y022707D01*
X045000Y022293D01*
X045293Y022000D01*
X045078Y022215D02*
X043922Y022215D01*
X044000Y022373D02*
X045000Y022373D01*
X045000Y022532D02*
X044000Y022532D01*
X044000Y022690D02*
X045000Y022690D01*
X045141Y022849D02*
X043859Y022849D01*
X043707Y023000D02*
X044000Y023293D01*
X044000Y023707D01*
X043707Y024000D01*
X043293Y024000D01*
X043000Y023707D01*
X043000Y023293D01*
X043293Y023000D01*
X043707Y023000D01*
X043714Y023007D02*
X045286Y023007D01*
X045293Y023000D02*
X045707Y023000D01*
X046000Y023293D01*
X046000Y023707D01*
X045707Y024000D01*
X045293Y024000D01*
X045000Y023707D01*
X045000Y023293D01*
X045293Y023000D01*
X045127Y023166D02*
X043873Y023166D01*
X044000Y023324D02*
X045000Y023324D01*
X045000Y023483D02*
X044000Y023483D01*
X044000Y023641D02*
X045000Y023641D01*
X045092Y023800D02*
X043908Y023800D01*
X043749Y023958D02*
X045251Y023958D01*
X045293Y024000D02*
X045707Y024000D01*
X046000Y024293D01*
X046000Y024707D01*
X045707Y025000D01*
X045293Y025000D01*
X045000Y024707D01*
X045000Y024293D01*
X045293Y024000D01*
X045176Y024117D02*
X043824Y024117D01*
X043707Y024000D02*
X044000Y024293D01*
X044000Y024707D01*
X043707Y025000D01*
X043293Y025000D01*
X043000Y024707D01*
X043000Y024293D01*
X043293Y024000D01*
X043707Y024000D01*
X043982Y024275D02*
X045018Y024275D01*
X045000Y024434D02*
X044000Y024434D01*
X044000Y024592D02*
X045000Y024592D01*
X045043Y024751D02*
X043957Y024751D01*
X043798Y024909D02*
X045202Y024909D01*
X045293Y025000D02*
X045707Y025000D01*
X046000Y025293D01*
X046000Y025707D01*
X045707Y026000D01*
X045293Y026000D01*
X045000Y025707D01*
X045000Y025293D01*
X045293Y025000D01*
X045225Y025068D02*
X043775Y025068D01*
X043707Y025000D02*
X044000Y025293D01*
X044000Y025707D01*
X043707Y026000D01*
X043293Y026000D01*
X043000Y025707D01*
X043000Y025293D01*
X043293Y025000D01*
X043707Y025000D01*
X043933Y025226D02*
X045067Y025226D01*
X045000Y025385D02*
X044000Y025385D01*
X044000Y025543D02*
X045000Y025543D01*
X045000Y025702D02*
X044000Y025702D01*
X043847Y025860D02*
X045153Y025860D01*
X045293Y026000D02*
X045000Y026293D01*
X045000Y026707D01*
X045293Y027000D01*
X045707Y027000D01*
X046000Y026707D01*
X046000Y026293D01*
X045707Y026000D01*
X045293Y026000D01*
X045274Y026019D02*
X043726Y026019D01*
X043707Y026000D02*
X044000Y026293D01*
X044000Y026707D01*
X043707Y027000D01*
X043293Y027000D01*
X043000Y026707D01*
X043000Y026293D01*
X043293Y026000D01*
X043707Y026000D01*
X043884Y026177D02*
X045116Y026177D01*
X045000Y026336D02*
X044000Y026336D01*
X044000Y026494D02*
X045000Y026494D01*
X045000Y026653D02*
X044000Y026653D01*
X043896Y026811D02*
X045104Y026811D01*
X045262Y026970D02*
X043738Y026970D01*
X043707Y027000D02*
X044000Y027293D01*
X044000Y027707D01*
X043707Y028000D01*
X043293Y028000D01*
X043000Y027707D01*
X043000Y027293D01*
X043293Y027000D01*
X043707Y027000D01*
X043835Y027128D02*
X045165Y027128D01*
X045293Y027000D02*
X045707Y027000D01*
X046000Y027293D01*
X046000Y027707D01*
X045707Y028000D01*
X045293Y028000D01*
X045000Y027707D01*
X045000Y027293D01*
X045293Y027000D01*
X045006Y027287D02*
X043994Y027287D01*
X044000Y027445D02*
X045000Y027445D01*
X045000Y027604D02*
X044000Y027604D01*
X043945Y027762D02*
X045055Y027762D01*
X045213Y027921D02*
X043787Y027921D01*
X043707Y028000D02*
X043293Y028000D01*
X043000Y028293D01*
X043000Y028707D01*
X043293Y029000D01*
X043707Y029000D01*
X044000Y028707D01*
X044000Y028293D01*
X043707Y028000D01*
X043786Y028079D02*
X045214Y028079D01*
X045293Y028000D02*
X045707Y028000D01*
X046000Y028293D01*
X046000Y028707D01*
X045707Y029000D01*
X045293Y029000D01*
X045000Y028707D01*
X045000Y028293D01*
X045293Y028000D01*
X045055Y028238D02*
X043945Y028238D01*
X044000Y028396D02*
X045000Y028396D01*
X045000Y028555D02*
X044000Y028555D01*
X043994Y028713D02*
X045006Y028713D01*
X045164Y028872D02*
X043836Y028872D01*
X043707Y029000D02*
X043293Y029000D01*
X043000Y029293D01*
X043000Y029707D01*
X043293Y030000D01*
X043707Y030000D01*
X044000Y029707D01*
X044000Y029293D01*
X043707Y029000D01*
X043737Y029030D02*
X045263Y029030D01*
X045293Y029000D02*
X045707Y029000D01*
X046000Y029293D01*
X046000Y029707D01*
X045707Y030000D01*
X045293Y030000D01*
X045000Y029707D01*
X045000Y029293D01*
X045293Y029000D01*
X045104Y029189D02*
X043896Y029189D01*
X044000Y029347D02*
X045000Y029347D01*
X045000Y029506D02*
X044000Y029506D01*
X044000Y029664D02*
X045000Y029664D01*
X045115Y029823D02*
X043885Y029823D01*
X043726Y029981D02*
X045274Y029981D01*
X045293Y030000D02*
X045707Y030000D01*
X046000Y030293D01*
X046000Y030707D01*
X045707Y031000D01*
X045293Y031000D01*
X045000Y030707D01*
X045000Y030293D01*
X045293Y030000D01*
X045153Y030140D02*
X043847Y030140D01*
X043707Y030000D02*
X043293Y030000D01*
X043000Y030293D01*
X043000Y030707D01*
X043293Y031000D01*
X043707Y031000D01*
X044000Y030707D01*
X044000Y030293D01*
X043707Y030000D01*
X044000Y030298D02*
X045000Y030298D01*
X045000Y030457D02*
X044000Y030457D01*
X044000Y030615D02*
X045000Y030615D01*
X045066Y030774D02*
X043934Y030774D01*
X043775Y030932D02*
X045225Y030932D01*
X045293Y031000D02*
X045707Y031000D01*
X046000Y031293D01*
X046000Y031707D01*
X045707Y032000D01*
X045293Y032000D01*
X045000Y031707D01*
X045000Y031293D01*
X045293Y031000D01*
X045202Y031091D02*
X043798Y031091D01*
X043707Y031000D02*
X043293Y031000D01*
X043000Y031293D01*
X043000Y031707D01*
X043293Y032000D01*
X043707Y032000D01*
X044000Y031707D01*
X044000Y031293D01*
X043707Y031000D01*
X043956Y031249D02*
X045044Y031249D01*
X045000Y031408D02*
X044000Y031408D01*
X044000Y031566D02*
X045000Y031566D01*
X045017Y031725D02*
X043983Y031725D01*
X043824Y031883D02*
X045176Y031883D01*
X045293Y032000D02*
X045707Y032000D01*
X046000Y032293D01*
X046000Y032707D01*
X045707Y033000D01*
X045293Y033000D01*
X045000Y032707D01*
X045000Y032293D01*
X045293Y032000D01*
X045251Y032042D02*
X043749Y032042D01*
X043707Y032000D02*
X044000Y032293D01*
X044000Y032707D01*
X043707Y033000D01*
X043293Y033000D01*
X043000Y032707D01*
X043000Y032293D01*
X043293Y032000D01*
X043707Y032000D01*
X043907Y032200D02*
X045093Y032200D01*
X045000Y032359D02*
X044000Y032359D01*
X044000Y032517D02*
X045000Y032517D01*
X045000Y032676D02*
X044000Y032676D01*
X043873Y032834D02*
X045127Y032834D01*
X045285Y032993D02*
X043715Y032993D01*
X043707Y033000D02*
X044000Y033293D01*
X044000Y033707D01*
X043707Y034000D01*
X043293Y034000D01*
X043000Y033707D01*
X043000Y033293D01*
X043293Y033000D01*
X043707Y033000D01*
X043858Y033151D02*
X045142Y033151D01*
X045000Y033293D02*
X045000Y033707D01*
X045293Y034000D01*
X045707Y034000D01*
X046000Y033707D01*
X046000Y033293D01*
X045707Y033000D01*
X045293Y033000D01*
X045000Y033293D01*
X045000Y033310D02*
X044000Y033310D01*
X044000Y033468D02*
X045000Y033468D01*
X045000Y033627D02*
X044000Y033627D01*
X043922Y033785D02*
X045078Y033785D01*
X045236Y033944D02*
X043764Y033944D01*
X043707Y034000D02*
X044000Y034293D01*
X044000Y034707D01*
X043707Y035000D01*
X043293Y035000D01*
X043000Y034707D01*
X043000Y034293D01*
X043293Y034000D01*
X043707Y034000D01*
X043809Y034102D02*
X045191Y034102D01*
X045293Y034000D02*
X045707Y034000D01*
X046000Y034293D01*
X046000Y034707D01*
X045707Y035000D01*
X045293Y035000D01*
X045000Y034707D01*
X045000Y034293D01*
X045293Y034000D01*
X045032Y034261D02*
X043968Y034261D01*
X044000Y034419D02*
X045000Y034419D01*
X045000Y034578D02*
X044000Y034578D01*
X043971Y034736D02*
X045029Y034736D01*
X045187Y034895D02*
X043813Y034895D01*
X043707Y035000D02*
X044000Y035293D01*
X044000Y035707D01*
X043707Y036000D01*
X043293Y036000D01*
X043000Y035707D01*
X043000Y035293D01*
X043293Y035000D01*
X043707Y035000D01*
X043760Y035053D02*
X045240Y035053D01*
X045293Y035000D02*
X045707Y035000D01*
X046000Y035293D01*
X046000Y035707D01*
X045707Y036000D01*
X045293Y036000D01*
X045000Y035707D01*
X045000Y035293D01*
X045293Y035000D01*
X045081Y035212D02*
X043919Y035212D01*
X044000Y035370D02*
X045000Y035370D01*
X045000Y035529D02*
X044000Y035529D01*
X044000Y035687D02*
X045000Y035687D01*
X045138Y035846D02*
X043862Y035846D01*
X043707Y036000D02*
X044000Y036293D01*
X044000Y036707D01*
X043707Y037000D01*
X043293Y037000D01*
X043000Y036707D01*
X043000Y036293D01*
X043293Y036000D01*
X043707Y036000D01*
X043711Y036004D02*
X045289Y036004D01*
X045293Y036000D02*
X045707Y036000D01*
X046000Y036293D01*
X046000Y036707D01*
X045707Y037000D01*
X045293Y037000D01*
X045000Y036707D01*
X045000Y036293D01*
X045293Y036000D01*
X045130Y036163D02*
X043870Y036163D01*
X044000Y036321D02*
X045000Y036321D01*
X045000Y036480D02*
X044000Y036480D01*
X044000Y036638D02*
X045000Y036638D01*
X045089Y036797D02*
X043911Y036797D01*
X043752Y036955D02*
X045248Y036955D01*
X045293Y037000D02*
X045707Y037000D01*
X046000Y037293D01*
X046000Y037707D01*
X045707Y038000D01*
X045293Y038000D01*
X045000Y037707D01*
X045000Y037293D01*
X045293Y037000D01*
X045179Y037114D02*
X043821Y037114D01*
X043707Y037000D02*
X044000Y037293D01*
X044000Y037707D01*
X043707Y038000D01*
X043293Y038000D01*
X043000Y037707D01*
X043000Y037293D01*
X043293Y037000D01*
X043707Y037000D01*
X043979Y037272D02*
X045021Y037272D01*
X045000Y037431D02*
X044000Y037431D01*
X044000Y037589D02*
X045000Y037589D01*
X045040Y037748D02*
X043960Y037748D01*
X043801Y037906D02*
X045199Y037906D01*
X045293Y038000D02*
X045707Y038000D01*
X046000Y038293D01*
X046000Y038707D01*
X045707Y039000D01*
X045293Y039000D01*
X045000Y038707D01*
X045000Y038293D01*
X045293Y038000D01*
X045228Y038065D02*
X043772Y038065D01*
X043707Y038000D02*
X044000Y038293D01*
X044000Y038707D01*
X043707Y039000D01*
X043293Y039000D01*
X043000Y038707D01*
X043000Y038293D01*
X043293Y038000D01*
X043707Y038000D01*
X043930Y038223D02*
X045070Y038223D01*
X045000Y038382D02*
X044000Y038382D01*
X044000Y038540D02*
X045000Y038540D01*
X045000Y038699D02*
X044000Y038699D01*
X043850Y038857D02*
X045150Y038857D01*
X045293Y039000D02*
X045707Y039000D01*
X046000Y039293D01*
X046000Y039707D01*
X045707Y040000D01*
X045293Y040000D01*
X045000Y039707D01*
X045000Y039293D01*
X045293Y039000D01*
X045277Y039016D02*
X043723Y039016D01*
X043707Y039000D02*
X044000Y039293D01*
X044000Y039707D01*
X043707Y040000D01*
X043293Y040000D01*
X043000Y039707D01*
X043000Y039293D01*
X043293Y039000D01*
X043707Y039000D01*
X043881Y039174D02*
X045119Y039174D01*
X045000Y039333D02*
X044000Y039333D01*
X044000Y039491D02*
X045000Y039491D01*
X045000Y039650D02*
X044000Y039650D01*
X043899Y039808D02*
X045101Y039808D01*
X045259Y039967D02*
X043741Y039967D01*
X043707Y040000D02*
X044000Y040293D01*
X044000Y040707D01*
X043707Y041000D01*
X043293Y041000D01*
X043000Y040707D01*
X043000Y040293D01*
X043293Y040000D01*
X043707Y040000D01*
X043832Y040125D02*
X045168Y040125D01*
X045293Y040000D02*
X045707Y040000D01*
X046000Y040293D01*
X046000Y040707D01*
X045707Y041000D01*
X045293Y041000D01*
X045000Y040707D01*
X045000Y040293D01*
X045293Y040000D01*
X045009Y040284D02*
X043991Y040284D01*
X044000Y040442D02*
X045000Y040442D01*
X045000Y040601D02*
X044000Y040601D01*
X043948Y040759D02*
X045052Y040759D01*
X045210Y040918D02*
X043790Y040918D01*
X043210Y040918D02*
X037790Y040918D01*
X037707Y041000D02*
X037293Y041000D01*
X037000Y040707D01*
X037000Y040293D01*
X037293Y040000D01*
X037000Y039707D01*
X037000Y039293D01*
X037293Y039000D01*
X037000Y038707D01*
X037000Y038293D01*
X037293Y038000D01*
X037000Y037707D01*
X037000Y037293D01*
X037293Y037000D01*
X037000Y036707D01*
X037000Y036293D01*
X037293Y036000D01*
X037000Y035707D01*
X037000Y035293D01*
X037293Y035000D01*
X037000Y034707D01*
X037000Y034293D01*
X037293Y034000D01*
X037000Y033707D01*
X037000Y033293D01*
X037293Y033000D01*
X037000Y032707D01*
X037000Y032293D01*
X037293Y032000D01*
X037000Y031707D01*
X037000Y031293D01*
X037293Y031000D01*
X037000Y030707D01*
X037000Y030293D01*
X037293Y030000D01*
X037000Y029707D01*
X037000Y029293D01*
X037293Y029000D01*
X037000Y028707D01*
X037000Y028293D01*
X037293Y028000D01*
X037000Y027707D01*
X037000Y027293D01*
X037293Y027000D01*
X037000Y026707D01*
X037000Y026293D01*
X037293Y026000D01*
X037000Y025707D01*
X037000Y025293D01*
X037293Y025000D01*
X037000Y024707D01*
X037000Y024293D01*
X037293Y024000D01*
X037000Y023707D01*
X037000Y023293D01*
X037293Y023000D01*
X037000Y022707D01*
X037000Y022293D01*
X037293Y022000D01*
X037000Y021707D01*
X037000Y021293D01*
X037293Y021000D01*
X037000Y020707D01*
X037000Y020293D01*
X037293Y020000D01*
X037000Y019707D01*
X037000Y019293D01*
X037293Y019000D01*
X037000Y018707D01*
X037000Y018293D01*
X037293Y018000D01*
X037707Y018000D01*
X038000Y018293D01*
X038000Y018707D01*
X037707Y019000D01*
X037293Y019000D01*
X037707Y019000D01*
X038000Y019293D01*
X038000Y019707D01*
X037707Y020000D01*
X037293Y020000D01*
X037707Y020000D01*
X038000Y020293D01*
X038000Y020707D01*
X037707Y021000D01*
X037293Y021000D01*
X037707Y021000D01*
X038000Y021293D01*
X038000Y021707D01*
X037707Y022000D01*
X037293Y022000D01*
X037707Y022000D01*
X038000Y022293D01*
X038000Y022707D01*
X037707Y023000D01*
X037293Y023000D01*
X037707Y023000D01*
X038000Y023293D01*
X038000Y023707D01*
X037707Y024000D01*
X037293Y024000D01*
X037707Y024000D01*
X038000Y024293D01*
X038000Y024707D01*
X037707Y025000D01*
X037293Y025000D01*
X037707Y025000D01*
X038000Y025293D01*
X038000Y025707D01*
X037707Y026000D01*
X037293Y026000D01*
X037707Y026000D01*
X038000Y026293D01*
X038000Y026707D01*
X037707Y027000D01*
X037293Y027000D01*
X037707Y027000D01*
X038000Y027293D01*
X038000Y027707D01*
X037707Y028000D01*
X037293Y028000D01*
X037707Y028000D01*
X038000Y028293D01*
X038000Y028707D01*
X037707Y029000D01*
X037293Y029000D01*
X037707Y029000D01*
X038000Y029293D01*
X038000Y029707D01*
X037707Y030000D01*
X037293Y030000D01*
X037707Y030000D01*
X038000Y030293D01*
X038000Y030707D01*
X037707Y031000D01*
X037293Y031000D01*
X037707Y031000D01*
X038000Y031293D01*
X038000Y031707D01*
X037707Y032000D01*
X037293Y032000D01*
X037707Y032000D01*
X038000Y032293D01*
X038000Y032707D01*
X037707Y033000D01*
X037293Y033000D01*
X037707Y033000D01*
X038000Y033293D01*
X038000Y033707D01*
X037707Y034000D01*
X037293Y034000D01*
X037707Y034000D01*
X038000Y034293D01*
X038000Y034707D01*
X037707Y035000D01*
X037293Y035000D01*
X037707Y035000D01*
X038000Y035293D01*
X038000Y035707D01*
X037707Y036000D01*
X037293Y036000D01*
X037707Y036000D01*
X038000Y036293D01*
X038000Y036707D01*
X037707Y037000D01*
X037293Y037000D01*
X037707Y037000D01*
X038000Y037293D01*
X038000Y037707D01*
X037707Y038000D01*
X037293Y038000D01*
X037707Y038000D01*
X038000Y038293D01*
X038000Y038707D01*
X037707Y039000D01*
X037293Y039000D01*
X037707Y039000D01*
X038000Y039293D01*
X038000Y039707D01*
X037707Y040000D01*
X037293Y040000D01*
X037707Y040000D01*
X038000Y040293D01*
X038000Y040707D01*
X037707Y041000D01*
X037948Y040759D02*
X043052Y040759D01*
X043000Y040601D02*
X038000Y040601D01*
X038000Y040442D02*
X043000Y040442D01*
X043009Y040284D02*
X037991Y040284D01*
X037832Y040125D02*
X043168Y040125D01*
X043259Y039967D02*
X037741Y039967D01*
X037899Y039808D02*
X043101Y039808D01*
X043000Y039650D02*
X038000Y039650D01*
X038000Y039491D02*
X043000Y039491D01*
X043000Y039333D02*
X038000Y039333D01*
X037881Y039174D02*
X043119Y039174D01*
X043277Y039016D02*
X037723Y039016D01*
X037850Y038857D02*
X043150Y038857D01*
X043000Y038699D02*
X038000Y038699D01*
X038000Y038540D02*
X043000Y038540D01*
X043000Y038382D02*
X038000Y038382D01*
X037930Y038223D02*
X043070Y038223D01*
X043228Y038065D02*
X037772Y038065D01*
X037801Y037906D02*
X043199Y037906D01*
X043040Y037748D02*
X037960Y037748D01*
X038000Y037589D02*
X043000Y037589D01*
X043000Y037431D02*
X038000Y037431D01*
X037979Y037272D02*
X043021Y037272D01*
X043179Y037114D02*
X037821Y037114D01*
X037752Y036955D02*
X043248Y036955D01*
X043089Y036797D02*
X037911Y036797D01*
X038000Y036638D02*
X043000Y036638D01*
X043000Y036480D02*
X038000Y036480D01*
X038000Y036321D02*
X043000Y036321D01*
X043130Y036163D02*
X037870Y036163D01*
X037711Y036004D02*
X043289Y036004D01*
X043138Y035846D02*
X037862Y035846D01*
X038000Y035687D02*
X043000Y035687D01*
X043000Y035529D02*
X038000Y035529D01*
X038000Y035370D02*
X043000Y035370D01*
X043081Y035212D02*
X037919Y035212D01*
X037760Y035053D02*
X043240Y035053D01*
X043187Y034895D02*
X037813Y034895D01*
X037971Y034736D02*
X043029Y034736D01*
X043000Y034578D02*
X038000Y034578D01*
X038000Y034419D02*
X043000Y034419D01*
X043032Y034261D02*
X037968Y034261D01*
X037809Y034102D02*
X043191Y034102D01*
X043236Y033944D02*
X037764Y033944D01*
X037922Y033785D02*
X043078Y033785D01*
X043000Y033627D02*
X038000Y033627D01*
X038000Y033468D02*
X043000Y033468D01*
X043000Y033310D02*
X038000Y033310D01*
X037858Y033151D02*
X043142Y033151D01*
X043285Y032993D02*
X037715Y032993D01*
X037873Y032834D02*
X043127Y032834D01*
X043000Y032676D02*
X038000Y032676D01*
X038000Y032517D02*
X043000Y032517D01*
X043000Y032359D02*
X038000Y032359D01*
X037907Y032200D02*
X043093Y032200D01*
X043251Y032042D02*
X037749Y032042D01*
X037824Y031883D02*
X043176Y031883D01*
X043017Y031725D02*
X037983Y031725D01*
X038000Y031566D02*
X043000Y031566D01*
X043000Y031408D02*
X038000Y031408D01*
X037956Y031249D02*
X043044Y031249D01*
X043202Y031091D02*
X037798Y031091D01*
X037775Y030932D02*
X043225Y030932D01*
X043066Y030774D02*
X037934Y030774D01*
X038000Y030615D02*
X043000Y030615D01*
X043000Y030457D02*
X038000Y030457D01*
X038000Y030298D02*
X043000Y030298D01*
X043153Y030140D02*
X037847Y030140D01*
X037726Y029981D02*
X043274Y029981D01*
X043115Y029823D02*
X040297Y029823D01*
X040248Y029871D02*
X040087Y029938D01*
X039913Y029938D01*
X039752Y029871D01*
X039629Y029748D01*
X039562Y029587D01*
X039562Y029413D01*
X039629Y029252D01*
X039752Y029129D01*
X039913Y029062D01*
X040087Y029062D01*
X040248Y029129D01*
X040371Y029252D01*
X040438Y029413D01*
X040438Y029587D01*
X040371Y029748D01*
X040248Y029871D01*
X040406Y029664D02*
X043000Y029664D01*
X043000Y029506D02*
X040438Y029506D01*
X040411Y029347D02*
X043000Y029347D01*
X043104Y029189D02*
X040308Y029189D01*
X039692Y029189D02*
X037896Y029189D01*
X038000Y029347D02*
X039589Y029347D01*
X039562Y029506D02*
X038000Y029506D01*
X038000Y029664D02*
X039594Y029664D01*
X039703Y029823D02*
X037885Y029823D01*
X037274Y029981D02*
X035726Y029981D01*
X035707Y030000D02*
X035293Y030000D01*
X035000Y029707D01*
X035000Y029293D01*
X035293Y029000D01*
X035000Y028707D01*
X035000Y028293D01*
X035293Y028000D01*
X035000Y027707D01*
X035000Y027293D01*
X035293Y027000D01*
X035000Y026707D01*
X035000Y026293D01*
X035293Y026000D01*
X035000Y025707D01*
X035000Y025293D01*
X035293Y025000D01*
X035000Y024707D01*
X035000Y024293D01*
X035293Y024000D01*
X035000Y023707D01*
X035000Y023293D01*
X035293Y023000D01*
X035000Y022707D01*
X035000Y022293D01*
X035293Y022000D01*
X035000Y021707D01*
X035000Y021293D01*
X035293Y021000D01*
X035000Y020707D01*
X035000Y020293D01*
X035293Y020000D01*
X035000Y019707D01*
X035000Y019293D01*
X035293Y019000D01*
X035000Y018707D01*
X035000Y018293D01*
X035293Y018000D01*
X035707Y018000D01*
X036000Y018293D01*
X036000Y018707D01*
X035707Y019000D01*
X035293Y019000D01*
X035707Y019000D01*
X036000Y019293D01*
X036000Y019707D01*
X035707Y020000D01*
X035293Y020000D01*
X035707Y020000D01*
X036000Y020293D01*
X036000Y020707D01*
X035707Y021000D01*
X035293Y021000D01*
X035707Y021000D01*
X036000Y021293D01*
X036000Y021707D01*
X035707Y022000D01*
X035293Y022000D01*
X035707Y022000D01*
X036000Y022293D01*
X036000Y022707D01*
X035707Y023000D01*
X035293Y023000D01*
X035707Y023000D01*
X036000Y023293D01*
X036000Y023707D01*
X035707Y024000D01*
X035293Y024000D01*
X035707Y024000D01*
X036000Y024293D01*
X036000Y024707D01*
X035707Y025000D01*
X035293Y025000D01*
X035707Y025000D01*
X036000Y025293D01*
X036000Y025707D01*
X035707Y026000D01*
X035293Y026000D01*
X035707Y026000D01*
X036000Y026293D01*
X036000Y026707D01*
X035707Y027000D01*
X035293Y027000D01*
X035707Y027000D01*
X036000Y027293D01*
X036000Y027707D01*
X035707Y028000D01*
X035293Y028000D01*
X035707Y028000D01*
X036000Y028293D01*
X036000Y028707D01*
X035707Y029000D01*
X035293Y029000D01*
X035707Y029000D01*
X036000Y029293D01*
X036000Y029707D01*
X035707Y030000D01*
X036000Y030293D01*
X036000Y030707D01*
X035707Y031000D01*
X035293Y031000D01*
X035000Y030707D01*
X035000Y030293D01*
X035293Y030000D01*
X035707Y030000D01*
X035847Y030140D02*
X037153Y030140D01*
X037000Y030298D02*
X036000Y030298D01*
X036000Y030457D02*
X037000Y030457D01*
X037000Y030615D02*
X036000Y030615D01*
X035934Y030774D02*
X037066Y030774D01*
X037225Y030932D02*
X035775Y030932D01*
X035707Y031000D02*
X036000Y031293D01*
X036000Y031707D01*
X035707Y032000D01*
X035293Y032000D01*
X035000Y031707D01*
X035000Y031293D01*
X035293Y031000D01*
X035707Y031000D01*
X035798Y031091D02*
X037202Y031091D01*
X037044Y031249D02*
X035956Y031249D01*
X036000Y031408D02*
X037000Y031408D01*
X037000Y031566D02*
X036000Y031566D01*
X035983Y031725D02*
X037017Y031725D01*
X037176Y031883D02*
X035824Y031883D01*
X035707Y032000D02*
X036000Y032293D01*
X036000Y032707D01*
X035707Y033000D01*
X035293Y033000D01*
X035000Y032707D01*
X035000Y032293D01*
X035293Y032000D01*
X035707Y032000D01*
X035749Y032042D02*
X037251Y032042D01*
X037093Y032200D02*
X035907Y032200D01*
X036000Y032359D02*
X037000Y032359D01*
X037000Y032517D02*
X036000Y032517D01*
X036000Y032676D02*
X037000Y032676D01*
X037127Y032834D02*
X035873Y032834D01*
X035715Y032993D02*
X037285Y032993D01*
X037142Y033151D02*
X035858Y033151D01*
X036000Y033293D02*
X035707Y033000D01*
X035293Y033000D01*
X035000Y033293D01*
X035000Y033707D01*
X035293Y034000D01*
X035707Y034000D01*
X036000Y033707D01*
X036000Y033293D01*
X036000Y033310D02*
X037000Y033310D01*
X037000Y033468D02*
X036000Y033468D01*
X036000Y033627D02*
X037000Y033627D01*
X037078Y033785D02*
X035922Y033785D01*
X035764Y033944D02*
X037236Y033944D01*
X037191Y034102D02*
X035809Y034102D01*
X035707Y034000D02*
X036000Y034293D01*
X036000Y034707D01*
X035707Y035000D01*
X035293Y035000D01*
X035000Y034707D01*
X035000Y034293D01*
X035293Y034000D01*
X035707Y034000D01*
X035968Y034261D02*
X037032Y034261D01*
X037000Y034419D02*
X036000Y034419D01*
X036000Y034578D02*
X037000Y034578D01*
X037029Y034736D02*
X035971Y034736D01*
X035813Y034895D02*
X037187Y034895D01*
X037240Y035053D02*
X035760Y035053D01*
X035707Y035000D02*
X036000Y035293D01*
X036000Y035707D01*
X035707Y036000D01*
X035293Y036000D01*
X035000Y035707D01*
X035000Y035293D01*
X035293Y035000D01*
X035707Y035000D01*
X035919Y035212D02*
X037081Y035212D01*
X037000Y035370D02*
X036000Y035370D01*
X036000Y035529D02*
X037000Y035529D01*
X037000Y035687D02*
X036000Y035687D01*
X035862Y035846D02*
X037138Y035846D01*
X037289Y036004D02*
X035711Y036004D01*
X035707Y036000D02*
X036000Y036293D01*
X036000Y036707D01*
X035707Y037000D01*
X035293Y037000D01*
X035000Y036707D01*
X035000Y036293D01*
X035293Y036000D01*
X035707Y036000D01*
X035870Y036163D02*
X037130Y036163D01*
X037000Y036321D02*
X036000Y036321D01*
X036000Y036480D02*
X037000Y036480D01*
X037000Y036638D02*
X036000Y036638D01*
X035911Y036797D02*
X037089Y036797D01*
X037248Y036955D02*
X035752Y036955D01*
X035707Y037000D02*
X036000Y037293D01*
X036000Y037707D01*
X035707Y038000D01*
X035293Y038000D01*
X035000Y037707D01*
X035000Y037293D01*
X035293Y037000D01*
X035707Y037000D01*
X035821Y037114D02*
X037179Y037114D01*
X037021Y037272D02*
X035979Y037272D01*
X036000Y037431D02*
X037000Y037431D01*
X037000Y037589D02*
X036000Y037589D01*
X035960Y037748D02*
X037040Y037748D01*
X037199Y037906D02*
X035801Y037906D01*
X035707Y038000D02*
X036000Y038293D01*
X036000Y038707D01*
X035707Y039000D01*
X035293Y039000D01*
X035000Y038707D01*
X035000Y038293D01*
X035293Y038000D01*
X035707Y038000D01*
X035772Y038065D02*
X037228Y038065D01*
X037070Y038223D02*
X035930Y038223D01*
X036000Y038382D02*
X037000Y038382D01*
X037000Y038540D02*
X036000Y038540D01*
X036000Y038699D02*
X037000Y038699D01*
X037150Y038857D02*
X035850Y038857D01*
X035707Y039000D02*
X036000Y039293D01*
X036000Y039707D01*
X035707Y040000D01*
X035293Y040000D01*
X035000Y039707D01*
X035000Y039293D01*
X035293Y039000D01*
X035707Y039000D01*
X035723Y039016D02*
X037277Y039016D01*
X037119Y039174D02*
X035881Y039174D01*
X036000Y039333D02*
X037000Y039333D01*
X037000Y039491D02*
X036000Y039491D01*
X036000Y039650D02*
X037000Y039650D01*
X037101Y039808D02*
X035899Y039808D01*
X035741Y039967D02*
X037259Y039967D01*
X037168Y040125D02*
X035832Y040125D01*
X035707Y040000D02*
X036000Y040293D01*
X036000Y040707D01*
X035707Y041000D01*
X035293Y041000D01*
X035000Y040707D01*
X035000Y040293D01*
X035293Y040000D01*
X035707Y040000D01*
X035991Y040284D02*
X037009Y040284D01*
X037000Y040442D02*
X036000Y040442D01*
X036000Y040601D02*
X037000Y040601D01*
X037052Y040759D02*
X035948Y040759D01*
X035790Y040918D02*
X037210Y040918D01*
X036778Y042760D02*
X037012Y042896D01*
X037204Y043088D01*
X037340Y043322D01*
X037410Y043584D01*
X037410Y043856D01*
X037340Y044118D01*
X037204Y044352D01*
X037012Y044544D01*
X036778Y044680D01*
X036516Y044750D01*
X036244Y044750D01*
X035982Y044680D01*
X035748Y044544D01*
X035556Y044352D01*
X035420Y044118D01*
X035350Y043856D01*
X035350Y043584D01*
X035420Y043322D01*
X035556Y043088D01*
X035748Y042896D01*
X035982Y042760D01*
X036244Y042690D01*
X036516Y042690D01*
X036778Y042760D01*
X036880Y042820D02*
X043467Y042820D01*
X043431Y042856D02*
X043756Y042531D01*
X044166Y042322D01*
X044620Y042250D01*
X045074Y042322D01*
X045074Y042322D01*
X045484Y042531D01*
X045484Y042531D01*
X045809Y042856D01*
X046018Y043266D01*
X046090Y043720D01*
X046018Y044174D01*
X046018Y044174D01*
X045809Y044584D01*
X045809Y044584D01*
X045484Y044909D01*
X045074Y045118D01*
X044620Y045190D01*
X044166Y045118D01*
X044166Y045118D01*
X043756Y044909D01*
X043431Y044584D01*
X043222Y044174D01*
X043150Y043720D01*
X043150Y043720D01*
X043222Y043266D01*
X043222Y043266D01*
X043431Y042856D01*
X043431Y042856D01*
X043369Y042978D02*
X037095Y042978D01*
X037232Y043137D02*
X043288Y043137D01*
X043217Y043295D02*
X037324Y043295D01*
X037375Y043454D02*
X043192Y043454D01*
X043167Y043612D02*
X037410Y043612D01*
X037410Y043771D02*
X043158Y043771D01*
X043183Y043929D02*
X037390Y043929D01*
X037348Y044088D02*
X043208Y044088D01*
X043222Y044174D02*
X043222Y044174D01*
X043259Y044246D02*
X037266Y044246D01*
X037152Y044405D02*
X043339Y044405D01*
X043420Y044563D02*
X036980Y044563D01*
X036622Y044722D02*
X043568Y044722D01*
X043431Y044584D02*
X043431Y044584D01*
X043727Y044880D02*
X025513Y044880D01*
X025484Y044909D02*
X025484Y044909D01*
X025074Y045118D01*
X024620Y045190D01*
X024166Y045118D01*
X024166Y045118D01*
X023756Y044909D01*
X023431Y044584D01*
X023222Y044174D01*
X023150Y043720D01*
X023222Y043266D01*
X023431Y042856D01*
X023756Y042531D01*
X023756Y042531D01*
X024166Y042322D01*
X024620Y042250D01*
X025074Y042322D01*
X025074Y042322D01*
X025484Y042531D01*
X025484Y042531D01*
X025809Y042856D01*
X026018Y043266D01*
X026090Y043720D01*
X026018Y044174D01*
X026018Y044174D01*
X025809Y044584D01*
X025809Y044584D01*
X025484Y044909D01*
X025672Y044722D02*
X036138Y044722D01*
X035780Y044563D02*
X025820Y044563D01*
X025901Y044405D02*
X035608Y044405D01*
X035494Y044246D02*
X025981Y044246D01*
X026032Y044088D02*
X035412Y044088D01*
X035370Y043929D02*
X026057Y043929D01*
X026082Y043771D02*
X035350Y043771D01*
X035350Y043612D02*
X026073Y043612D01*
X026048Y043454D02*
X035385Y043454D01*
X035436Y043295D02*
X026023Y043295D01*
X026018Y043266D02*
X026018Y043266D01*
X025952Y043137D02*
X035528Y043137D01*
X035665Y042978D02*
X025871Y042978D01*
X025809Y042856D02*
X025809Y042856D01*
X025773Y042820D02*
X035880Y042820D01*
X035210Y040918D02*
X025790Y040918D01*
X025707Y041000D02*
X026000Y040707D01*
X026000Y040293D01*
X025707Y040000D01*
X025293Y040000D01*
X025000Y039707D01*
X025000Y039293D01*
X025293Y039000D01*
X025000Y038707D01*
X025000Y038293D01*
X025293Y038000D01*
X025000Y037707D01*
X025000Y037293D01*
X025293Y037000D01*
X025000Y036707D01*
X025000Y036293D01*
X025293Y036000D01*
X025000Y035707D01*
X025000Y035293D01*
X025293Y035000D01*
X025000Y034707D01*
X025000Y034293D01*
X025293Y034000D01*
X025000Y033707D01*
X025000Y033293D01*
X025293Y033000D01*
X025000Y032707D01*
X025000Y032293D01*
X025293Y032000D01*
X025000Y031707D01*
X025000Y031293D01*
X025293Y031000D01*
X025000Y030707D01*
X025000Y030293D01*
X025293Y030000D01*
X025000Y029707D01*
X025000Y029293D01*
X025293Y029000D01*
X025000Y028707D01*
X025000Y028293D01*
X025293Y028000D01*
X025000Y027707D01*
X025000Y027293D01*
X025293Y027000D01*
X025000Y026707D01*
X025000Y026293D01*
X025293Y026000D01*
X025000Y025707D01*
X025000Y025293D01*
X025293Y025000D01*
X025000Y024707D01*
X025000Y024293D01*
X025293Y024000D01*
X025000Y023707D01*
X025000Y023293D01*
X025293Y023000D01*
X025000Y022707D01*
X025000Y022293D01*
X025293Y022000D01*
X025000Y021707D01*
X025000Y021293D01*
X025293Y021000D01*
X025000Y020707D01*
X025000Y020293D01*
X025293Y020000D01*
X025000Y019707D01*
X025000Y019293D01*
X025293Y019000D01*
X025000Y018707D01*
X025000Y018293D01*
X025293Y018000D01*
X025707Y018000D01*
X026000Y018293D01*
X026000Y018707D01*
X025707Y019000D01*
X025293Y019000D01*
X025707Y019000D01*
X026000Y019293D01*
X026000Y019707D01*
X025707Y020000D01*
X025293Y020000D01*
X025707Y020000D01*
X026000Y020293D01*
X026000Y020707D01*
X025707Y021000D01*
X025293Y021000D01*
X025707Y021000D01*
X026000Y021293D01*
X026000Y021707D01*
X025707Y022000D01*
X025293Y022000D01*
X025707Y022000D01*
X026000Y022293D01*
X026000Y022707D01*
X025707Y023000D01*
X025293Y023000D01*
X025707Y023000D01*
X026000Y023293D01*
X026000Y023707D01*
X025707Y024000D01*
X025293Y024000D01*
X025707Y024000D01*
X026000Y024293D01*
X026000Y024707D01*
X025707Y025000D01*
X025293Y025000D01*
X025707Y025000D01*
X026000Y025293D01*
X026000Y025707D01*
X025707Y026000D01*
X025293Y026000D01*
X025707Y026000D01*
X026000Y026293D01*
X026000Y026707D01*
X025707Y027000D01*
X025293Y027000D01*
X025707Y027000D01*
X026000Y027293D01*
X026000Y027707D01*
X025707Y028000D01*
X025293Y028000D01*
X025707Y028000D01*
X026000Y028293D01*
X026000Y028707D01*
X025707Y029000D01*
X025293Y029000D01*
X025707Y029000D01*
X026000Y029293D01*
X026000Y029707D01*
X025707Y030000D01*
X025293Y030000D01*
X025707Y030000D01*
X026000Y030293D01*
X026000Y030707D01*
X025707Y031000D01*
X025293Y031000D01*
X025707Y031000D01*
X026000Y031293D01*
X026000Y031707D01*
X025707Y032000D01*
X025293Y032000D01*
X025707Y032000D01*
X026000Y032293D01*
X026000Y032707D01*
X025707Y033000D01*
X025293Y033000D01*
X025707Y033000D01*
X026000Y033293D01*
X026000Y033707D01*
X025707Y034000D01*
X025293Y034000D01*
X025707Y034000D01*
X026000Y034293D01*
X026000Y034707D01*
X025707Y035000D01*
X025293Y035000D01*
X025707Y035000D01*
X026000Y035293D01*
X026000Y035707D01*
X025707Y036000D01*
X025293Y036000D01*
X025707Y036000D01*
X026000Y036293D01*
X026000Y036707D01*
X025707Y037000D01*
X025293Y037000D01*
X025707Y037000D01*
X026000Y037293D01*
X026000Y037707D01*
X025707Y038000D01*
X025293Y038000D01*
X025707Y038000D01*
X026000Y038293D01*
X026000Y038707D01*
X025707Y039000D01*
X025293Y039000D01*
X025707Y039000D01*
X026000Y039293D01*
X026000Y039707D01*
X025707Y040000D01*
X025293Y040000D01*
X025000Y040293D01*
X025000Y040707D01*
X025293Y041000D01*
X025707Y041000D01*
X025948Y040759D02*
X035052Y040759D01*
X035000Y040601D02*
X026000Y040601D01*
X026000Y040442D02*
X035000Y040442D01*
X035009Y040284D02*
X025991Y040284D01*
X025832Y040125D02*
X035168Y040125D01*
X035259Y039967D02*
X025741Y039967D01*
X025899Y039808D02*
X035101Y039808D01*
X035000Y039650D02*
X026000Y039650D01*
X026000Y039491D02*
X035000Y039491D01*
X035000Y039333D02*
X026000Y039333D01*
X025881Y039174D02*
X035119Y039174D01*
X035277Y039016D02*
X025723Y039016D01*
X025850Y038857D02*
X035150Y038857D01*
X035000Y038699D02*
X026000Y038699D01*
X026000Y038540D02*
X035000Y038540D01*
X035000Y038382D02*
X026000Y038382D01*
X025930Y038223D02*
X035070Y038223D01*
X035228Y038065D02*
X025772Y038065D01*
X025801Y037906D02*
X035199Y037906D01*
X035040Y037748D02*
X025960Y037748D01*
X026000Y037589D02*
X035000Y037589D01*
X035000Y037431D02*
X026000Y037431D01*
X025979Y037272D02*
X035021Y037272D01*
X035179Y037114D02*
X025821Y037114D01*
X025752Y036955D02*
X035248Y036955D01*
X035089Y036797D02*
X025911Y036797D01*
X026000Y036638D02*
X035000Y036638D01*
X035000Y036480D02*
X026000Y036480D01*
X026000Y036321D02*
X035000Y036321D01*
X035130Y036163D02*
X025870Y036163D01*
X025711Y036004D02*
X035289Y036004D01*
X035138Y035846D02*
X025862Y035846D01*
X026000Y035687D02*
X035000Y035687D01*
X035000Y035529D02*
X026000Y035529D01*
X026000Y035370D02*
X035000Y035370D01*
X035081Y035212D02*
X025919Y035212D01*
X025760Y035053D02*
X035240Y035053D01*
X035187Y034895D02*
X025813Y034895D01*
X025971Y034736D02*
X035029Y034736D01*
X035000Y034578D02*
X026000Y034578D01*
X026000Y034419D02*
X035000Y034419D01*
X035032Y034261D02*
X025968Y034261D01*
X025809Y034102D02*
X035191Y034102D01*
X035236Y033944D02*
X025764Y033944D01*
X025922Y033785D02*
X035078Y033785D01*
X035000Y033627D02*
X026000Y033627D01*
X026000Y033468D02*
X035000Y033468D01*
X035000Y033310D02*
X026000Y033310D01*
X025858Y033151D02*
X035142Y033151D01*
X035285Y032993D02*
X025715Y032993D01*
X025873Y032834D02*
X035127Y032834D01*
X035000Y032676D02*
X026000Y032676D01*
X026000Y032517D02*
X035000Y032517D01*
X035000Y032359D02*
X026000Y032359D01*
X025907Y032200D02*
X035093Y032200D01*
X035251Y032042D02*
X025749Y032042D01*
X025824Y031883D02*
X035176Y031883D01*
X035017Y031725D02*
X025983Y031725D01*
X026000Y031566D02*
X035000Y031566D01*
X035000Y031408D02*
X026000Y031408D01*
X025956Y031249D02*
X035044Y031249D01*
X035202Y031091D02*
X025798Y031091D01*
X025775Y030932D02*
X035225Y030932D01*
X035066Y030774D02*
X025934Y030774D01*
X026000Y030615D02*
X035000Y030615D01*
X035000Y030457D02*
X026000Y030457D01*
X026000Y030298D02*
X035000Y030298D01*
X035153Y030140D02*
X025847Y030140D01*
X025726Y029981D02*
X035274Y029981D01*
X035115Y029823D02*
X025885Y029823D01*
X026000Y029664D02*
X035000Y029664D01*
X035000Y029506D02*
X026000Y029506D01*
X026000Y029347D02*
X027728Y029347D01*
X027752Y029371D02*
X027629Y029248D01*
X027562Y029087D01*
X027562Y028913D01*
X027629Y028752D01*
X027752Y028629D01*
X027913Y028562D01*
X028087Y028562D01*
X028248Y028629D01*
X028371Y028752D01*
X028438Y028913D01*
X028438Y029087D01*
X028371Y029248D01*
X028248Y029371D01*
X028087Y029438D01*
X027913Y029438D01*
X027752Y029371D01*
X027604Y029189D02*
X025896Y029189D01*
X025737Y029030D02*
X027562Y029030D01*
X027579Y028872D02*
X025836Y028872D01*
X025994Y028713D02*
X027668Y028713D01*
X028332Y028713D02*
X030168Y028713D01*
X030129Y028752D02*
X030252Y028629D01*
X030413Y028562D01*
X030587Y028562D01*
X030748Y028629D01*
X030871Y028752D01*
X030938Y028913D01*
X030938Y029087D01*
X030871Y029248D01*
X030748Y029371D01*
X030587Y029438D01*
X030413Y029438D01*
X030252Y029371D01*
X030129Y029248D01*
X030062Y029087D01*
X030062Y028913D01*
X030129Y028752D01*
X030079Y028872D02*
X028421Y028872D01*
X028438Y029030D02*
X030062Y029030D01*
X030104Y029189D02*
X028396Y029189D01*
X028272Y029347D02*
X030228Y029347D01*
X030772Y029347D02*
X032728Y029347D01*
X032752Y029371D02*
X032629Y029248D01*
X032562Y029087D01*
X032562Y028913D01*
X032629Y028752D01*
X032752Y028629D01*
X032913Y028562D01*
X033087Y028562D01*
X033248Y028629D01*
X033371Y028752D01*
X033438Y028913D01*
X033438Y029087D01*
X033371Y029248D01*
X033248Y029371D01*
X033087Y029438D01*
X032913Y029438D01*
X032752Y029371D01*
X032604Y029189D02*
X030896Y029189D01*
X030938Y029030D02*
X032562Y029030D01*
X032579Y028872D02*
X030921Y028872D01*
X030832Y028713D02*
X032668Y028713D01*
X033332Y028713D02*
X035006Y028713D01*
X035000Y028555D02*
X026000Y028555D01*
X026000Y028396D02*
X035000Y028396D01*
X035055Y028238D02*
X025945Y028238D01*
X025786Y028079D02*
X035214Y028079D01*
X035213Y027921D02*
X025787Y027921D01*
X025945Y027762D02*
X035055Y027762D01*
X035000Y027604D02*
X026000Y027604D01*
X026000Y027445D02*
X035000Y027445D01*
X035006Y027287D02*
X025994Y027287D01*
X025835Y027128D02*
X035165Y027128D01*
X035262Y026970D02*
X025738Y026970D01*
X025896Y026811D02*
X035104Y026811D01*
X035000Y026653D02*
X026000Y026653D01*
X026000Y026494D02*
X035000Y026494D01*
X035000Y026336D02*
X026000Y026336D01*
X025884Y026177D02*
X035116Y026177D01*
X035274Y026019D02*
X025726Y026019D01*
X025847Y025860D02*
X035153Y025860D01*
X035000Y025702D02*
X026000Y025702D01*
X026000Y025543D02*
X035000Y025543D01*
X035000Y025385D02*
X026000Y025385D01*
X025933Y025226D02*
X035067Y025226D01*
X035225Y025068D02*
X025775Y025068D01*
X025798Y024909D02*
X035202Y024909D01*
X035043Y024751D02*
X025957Y024751D01*
X026000Y024592D02*
X035000Y024592D01*
X035000Y024434D02*
X026000Y024434D01*
X025982Y024275D02*
X035018Y024275D01*
X035176Y024117D02*
X025824Y024117D01*
X025749Y023958D02*
X035251Y023958D01*
X035092Y023800D02*
X025908Y023800D01*
X026000Y023641D02*
X035000Y023641D01*
X035000Y023483D02*
X026000Y023483D01*
X026000Y023324D02*
X035000Y023324D01*
X035127Y023166D02*
X025873Y023166D01*
X025714Y023007D02*
X035286Y023007D01*
X035141Y022849D02*
X025859Y022849D01*
X026000Y022690D02*
X035000Y022690D01*
X035000Y022532D02*
X026000Y022532D01*
X026000Y022373D02*
X035000Y022373D01*
X035078Y022215D02*
X025922Y022215D01*
X025763Y022056D02*
X035237Y022056D01*
X035190Y021898D02*
X025810Y021898D01*
X025968Y021739D02*
X035032Y021739D01*
X035000Y021581D02*
X026000Y021581D01*
X026000Y021422D02*
X035000Y021422D01*
X035029Y021264D02*
X025971Y021264D01*
X025812Y021105D02*
X035188Y021105D01*
X035239Y020947D02*
X025761Y020947D01*
X025919Y020788D02*
X035081Y020788D01*
X035000Y020630D02*
X026000Y020630D01*
X026000Y020471D02*
X035000Y020471D01*
X035000Y020313D02*
X026000Y020313D01*
X025861Y020154D02*
X035139Y020154D01*
X035288Y019996D02*
X025712Y019996D01*
X025870Y019837D02*
X035130Y019837D01*
X035000Y019679D02*
X026000Y019679D01*
X026000Y019520D02*
X035000Y019520D01*
X035000Y019362D02*
X026000Y019362D01*
X025910Y019203D02*
X035090Y019203D01*
X035248Y019045D02*
X025752Y019045D01*
X025821Y018886D02*
X035179Y018886D01*
X035020Y018728D02*
X025980Y018728D01*
X026000Y018569D02*
X035000Y018569D01*
X035000Y018411D02*
X026000Y018411D01*
X025959Y018252D02*
X035041Y018252D01*
X035199Y018094D02*
X025801Y018094D01*
X025199Y018094D02*
X023801Y018094D01*
X023707Y018000D02*
X024000Y018293D01*
X024000Y018707D01*
X023707Y019000D01*
X023293Y019000D01*
X023000Y018707D01*
X023000Y018293D01*
X023293Y018000D01*
X023707Y018000D01*
X023959Y018252D02*
X025041Y018252D01*
X025000Y018411D02*
X024000Y018411D01*
X024000Y018569D02*
X025000Y018569D01*
X025020Y018728D02*
X023980Y018728D01*
X023821Y018886D02*
X025179Y018886D01*
X025248Y019045D02*
X023752Y019045D01*
X023707Y019000D02*
X024000Y019293D01*
X024000Y019707D01*
X023707Y020000D01*
X023293Y020000D01*
X023000Y019707D01*
X023000Y019293D01*
X023293Y019000D01*
X023707Y019000D01*
X023910Y019203D02*
X025090Y019203D01*
X025000Y019362D02*
X024000Y019362D01*
X024000Y019520D02*
X025000Y019520D01*
X025000Y019679D02*
X024000Y019679D01*
X023870Y019837D02*
X025130Y019837D01*
X025288Y019996D02*
X023712Y019996D01*
X023707Y020000D02*
X024000Y020293D01*
X024000Y020707D01*
X023707Y021000D01*
X023293Y021000D01*
X023000Y020707D01*
X023000Y020293D01*
X023293Y020000D01*
X023707Y020000D01*
X023861Y020154D02*
X025139Y020154D01*
X025000Y020313D02*
X024000Y020313D01*
X024000Y020471D02*
X025000Y020471D01*
X025000Y020630D02*
X024000Y020630D01*
X023919Y020788D02*
X025081Y020788D01*
X025239Y020947D02*
X023761Y020947D01*
X023707Y021000D02*
X024000Y021293D01*
X024000Y021707D01*
X023707Y022000D01*
X023293Y022000D01*
X023000Y021707D01*
X023000Y021293D01*
X023293Y021000D01*
X023707Y021000D01*
X023812Y021105D02*
X025188Y021105D01*
X025029Y021264D02*
X023971Y021264D01*
X024000Y021422D02*
X025000Y021422D01*
X025000Y021581D02*
X024000Y021581D01*
X023968Y021739D02*
X025032Y021739D01*
X025190Y021898D02*
X023810Y021898D01*
X023707Y022000D02*
X024000Y022293D01*
X024000Y022707D01*
X023707Y023000D01*
X023293Y023000D01*
X023000Y022707D01*
X023000Y022293D01*
X023293Y022000D01*
X023707Y022000D01*
X023763Y022056D02*
X025237Y022056D01*
X025078Y022215D02*
X023922Y022215D01*
X024000Y022373D02*
X025000Y022373D01*
X025000Y022532D02*
X024000Y022532D01*
X024000Y022690D02*
X025000Y022690D01*
X025141Y022849D02*
X023859Y022849D01*
X023707Y023000D02*
X024000Y023293D01*
X024000Y023707D01*
X023707Y024000D01*
X023293Y024000D01*
X023000Y023707D01*
X023000Y023293D01*
X023293Y023000D01*
X023707Y023000D01*
X023714Y023007D02*
X025286Y023007D01*
X025127Y023166D02*
X023873Y023166D01*
X024000Y023324D02*
X025000Y023324D01*
X025000Y023483D02*
X024000Y023483D01*
X024000Y023641D02*
X025000Y023641D01*
X025092Y023800D02*
X023908Y023800D01*
X023749Y023958D02*
X025251Y023958D01*
X025176Y024117D02*
X023824Y024117D01*
X023707Y024000D02*
X024000Y024293D01*
X024000Y024707D01*
X023707Y025000D01*
X023293Y025000D01*
X023000Y024707D01*
X023000Y024293D01*
X023293Y024000D01*
X023707Y024000D01*
X023982Y024275D02*
X025018Y024275D01*
X025000Y024434D02*
X024000Y024434D01*
X024000Y024592D02*
X025000Y024592D01*
X025043Y024751D02*
X023957Y024751D01*
X023798Y024909D02*
X025202Y024909D01*
X025225Y025068D02*
X023775Y025068D01*
X023707Y025000D02*
X024000Y025293D01*
X024000Y025707D01*
X023707Y026000D01*
X023293Y026000D01*
X023000Y025707D01*
X023000Y025293D01*
X023293Y025000D01*
X023707Y025000D01*
X023933Y025226D02*
X025067Y025226D01*
X025000Y025385D02*
X024000Y025385D01*
X024000Y025543D02*
X025000Y025543D01*
X025000Y025702D02*
X024000Y025702D01*
X023847Y025860D02*
X025153Y025860D01*
X025274Y026019D02*
X023726Y026019D01*
X023707Y026000D02*
X024000Y026293D01*
X024000Y026707D01*
X023707Y027000D01*
X023293Y027000D01*
X023000Y026707D01*
X023000Y026293D01*
X023293Y026000D01*
X023707Y026000D01*
X023884Y026177D02*
X025116Y026177D01*
X025000Y026336D02*
X024000Y026336D01*
X024000Y026494D02*
X025000Y026494D01*
X025000Y026653D02*
X024000Y026653D01*
X023896Y026811D02*
X025104Y026811D01*
X025262Y026970D02*
X023738Y026970D01*
X023707Y027000D02*
X024000Y027293D01*
X024000Y027707D01*
X023707Y028000D01*
X023293Y028000D01*
X023000Y027707D01*
X023000Y027293D01*
X023293Y027000D01*
X023707Y027000D01*
X023835Y027128D02*
X025165Y027128D01*
X025006Y027287D02*
X023994Y027287D01*
X024000Y027445D02*
X025000Y027445D01*
X025000Y027604D02*
X024000Y027604D01*
X023945Y027762D02*
X025055Y027762D01*
X025213Y027921D02*
X023787Y027921D01*
X023707Y028000D02*
X023293Y028000D01*
X023000Y028293D01*
X023000Y028707D01*
X023293Y029000D01*
X023707Y029000D01*
X024000Y028707D01*
X024000Y028293D01*
X023707Y028000D01*
X023786Y028079D02*
X025214Y028079D01*
X025055Y028238D02*
X023945Y028238D01*
X024000Y028396D02*
X025000Y028396D01*
X025000Y028555D02*
X024000Y028555D01*
X023994Y028713D02*
X025006Y028713D01*
X025164Y028872D02*
X023836Y028872D01*
X023707Y029000D02*
X023293Y029000D01*
X023000Y029293D01*
X023000Y029707D01*
X023293Y030000D01*
X023707Y030000D01*
X024000Y029707D01*
X024000Y029293D01*
X023707Y029000D01*
X023737Y029030D02*
X025263Y029030D01*
X025104Y029189D02*
X023896Y029189D01*
X024000Y029347D02*
X025000Y029347D01*
X025000Y029506D02*
X024000Y029506D01*
X024000Y029664D02*
X025000Y029664D01*
X025115Y029823D02*
X023885Y029823D01*
X023726Y029981D02*
X025274Y029981D01*
X025153Y030140D02*
X023847Y030140D01*
X023707Y030000D02*
X024000Y030293D01*
X024000Y030707D01*
X023707Y031000D01*
X023293Y031000D01*
X023000Y030707D01*
X023000Y030293D01*
X023293Y030000D01*
X023707Y030000D01*
X024000Y030298D02*
X025000Y030298D01*
X025000Y030457D02*
X024000Y030457D01*
X024000Y030615D02*
X025000Y030615D01*
X025066Y030774D02*
X023934Y030774D01*
X023775Y030932D02*
X025225Y030932D01*
X025202Y031091D02*
X023798Y031091D01*
X023707Y031000D02*
X024000Y031293D01*
X024000Y031707D01*
X023707Y032000D01*
X023293Y032000D01*
X023000Y031707D01*
X023000Y031293D01*
X023293Y031000D01*
X023707Y031000D01*
X023956Y031249D02*
X025044Y031249D01*
X025000Y031408D02*
X024000Y031408D01*
X024000Y031566D02*
X025000Y031566D01*
X025017Y031725D02*
X023983Y031725D01*
X023824Y031883D02*
X025176Y031883D01*
X025251Y032042D02*
X023749Y032042D01*
X023707Y032000D02*
X024000Y032293D01*
X024000Y032707D01*
X023707Y033000D01*
X023293Y033000D01*
X023000Y032707D01*
X023000Y032293D01*
X023293Y032000D01*
X023707Y032000D01*
X023907Y032200D02*
X025093Y032200D01*
X025000Y032359D02*
X024000Y032359D01*
X024000Y032517D02*
X025000Y032517D01*
X025000Y032676D02*
X024000Y032676D01*
X023873Y032834D02*
X025127Y032834D01*
X025285Y032993D02*
X023715Y032993D01*
X023707Y033000D02*
X024000Y033293D01*
X024000Y033707D01*
X023707Y034000D01*
X023293Y034000D01*
X023000Y033707D01*
X023000Y033293D01*
X023293Y033000D01*
X023707Y033000D01*
X023858Y033151D02*
X025142Y033151D01*
X025000Y033310D02*
X024000Y033310D01*
X024000Y033468D02*
X025000Y033468D01*
X025000Y033627D02*
X024000Y033627D01*
X023922Y033785D02*
X025078Y033785D01*
X025236Y033944D02*
X023764Y033944D01*
X023707Y034000D02*
X024000Y034293D01*
X024000Y034707D01*
X023707Y035000D01*
X023293Y035000D01*
X023000Y034707D01*
X023000Y034293D01*
X023293Y034000D01*
X023707Y034000D01*
X023809Y034102D02*
X025191Y034102D01*
X025032Y034261D02*
X023968Y034261D01*
X024000Y034419D02*
X025000Y034419D01*
X025000Y034578D02*
X024000Y034578D01*
X023971Y034736D02*
X025029Y034736D01*
X025187Y034895D02*
X023813Y034895D01*
X023707Y035000D02*
X024000Y035293D01*
X024000Y035707D01*
X023707Y036000D01*
X023293Y036000D01*
X023000Y035707D01*
X023000Y035293D01*
X023293Y035000D01*
X023707Y035000D01*
X023760Y035053D02*
X025240Y035053D01*
X025081Y035212D02*
X023919Y035212D01*
X024000Y035370D02*
X025000Y035370D01*
X025000Y035529D02*
X024000Y035529D01*
X024000Y035687D02*
X025000Y035687D01*
X025138Y035846D02*
X023862Y035846D01*
X023707Y036000D02*
X024000Y036293D01*
X024000Y036707D01*
X023707Y037000D01*
X023293Y037000D01*
X023000Y036707D01*
X023000Y036293D01*
X023293Y036000D01*
X023707Y036000D01*
X023711Y036004D02*
X025289Y036004D01*
X025130Y036163D02*
X023870Y036163D01*
X024000Y036321D02*
X025000Y036321D01*
X025000Y036480D02*
X024000Y036480D01*
X024000Y036638D02*
X025000Y036638D01*
X025089Y036797D02*
X023911Y036797D01*
X023752Y036955D02*
X025248Y036955D01*
X025179Y037114D02*
X023821Y037114D01*
X023707Y037000D02*
X024000Y037293D01*
X024000Y037707D01*
X023707Y038000D01*
X023293Y038000D01*
X023000Y037707D01*
X023000Y037293D01*
X023293Y037000D01*
X023707Y037000D01*
X023979Y037272D02*
X025021Y037272D01*
X025000Y037431D02*
X024000Y037431D01*
X024000Y037589D02*
X025000Y037589D01*
X025040Y037748D02*
X023960Y037748D01*
X023801Y037906D02*
X025199Y037906D01*
X025228Y038065D02*
X023772Y038065D01*
X023707Y038000D02*
X024000Y038293D01*
X024000Y038707D01*
X023707Y039000D01*
X023293Y039000D01*
X023000Y038707D01*
X023000Y038293D01*
X023293Y038000D01*
X023707Y038000D01*
X023930Y038223D02*
X025070Y038223D01*
X025000Y038382D02*
X024000Y038382D01*
X024000Y038540D02*
X025000Y038540D01*
X025000Y038699D02*
X024000Y038699D01*
X023850Y038857D02*
X025150Y038857D01*
X025277Y039016D02*
X023723Y039016D01*
X023707Y039000D02*
X024000Y039293D01*
X024000Y039707D01*
X023707Y040000D01*
X023293Y040000D01*
X023000Y039707D01*
X023000Y039293D01*
X023293Y039000D01*
X023707Y039000D01*
X023881Y039174D02*
X025119Y039174D01*
X025000Y039333D02*
X024000Y039333D01*
X024000Y039491D02*
X025000Y039491D01*
X025000Y039650D02*
X024000Y039650D01*
X023899Y039808D02*
X025101Y039808D01*
X025259Y039967D02*
X023741Y039967D01*
X023707Y040000D02*
X024000Y040293D01*
X024000Y040707D01*
X023707Y041000D01*
X023293Y041000D01*
X023000Y040707D01*
X023000Y040293D01*
X023293Y040000D01*
X023707Y040000D01*
X023832Y040125D02*
X025168Y040125D01*
X025009Y040284D02*
X023991Y040284D01*
X024000Y040442D02*
X025000Y040442D01*
X025000Y040601D02*
X024000Y040601D01*
X023948Y040759D02*
X025052Y040759D01*
X025210Y040918D02*
X023790Y040918D01*
X023210Y040918D02*
X013790Y040918D01*
X013707Y041000D02*
X013293Y041000D01*
X013000Y040707D01*
X013000Y040293D01*
X013293Y040000D01*
X013000Y039707D01*
X013000Y039293D01*
X013293Y039000D01*
X013000Y038707D01*
X013000Y038293D01*
X013293Y038000D01*
X013000Y037707D01*
X013000Y037293D01*
X013293Y037000D01*
X013000Y036707D01*
X013000Y036293D01*
X013293Y036000D01*
X013000Y035707D01*
X013000Y035293D01*
X013293Y035000D01*
X013000Y034707D01*
X013000Y034293D01*
X013293Y034000D01*
X013000Y033707D01*
X013000Y033293D01*
X013293Y033000D01*
X013000Y032707D01*
X013000Y032293D01*
X013293Y032000D01*
X013000Y031707D01*
X013000Y031293D01*
X013293Y031000D01*
X013000Y030707D01*
X013000Y030293D01*
X013293Y030000D01*
X013000Y029707D01*
X013000Y029293D01*
X013293Y029000D01*
X013000Y028707D01*
X013000Y028293D01*
X013293Y028000D01*
X013000Y027707D01*
X013000Y027293D01*
X013293Y027000D01*
X013000Y026707D01*
X013000Y026293D01*
X013293Y026000D01*
X013000Y025707D01*
X013000Y025293D01*
X013293Y025000D01*
X013000Y024707D01*
X013000Y024293D01*
X013293Y024000D01*
X013000Y023707D01*
X013000Y023293D01*
X013293Y023000D01*
X013000Y022707D01*
X013000Y022293D01*
X013293Y022000D01*
X013000Y021707D01*
X013000Y021293D01*
X013293Y021000D01*
X013000Y020707D01*
X013000Y020293D01*
X013293Y020000D01*
X013000Y019707D01*
X013000Y019293D01*
X013293Y019000D01*
X013000Y018707D01*
X013000Y018293D01*
X013293Y018000D01*
X013707Y018000D01*
X014000Y018293D01*
X014000Y018707D01*
X013707Y019000D01*
X013293Y019000D01*
X013707Y019000D01*
X014000Y019293D01*
X014000Y019707D01*
X013707Y020000D01*
X013293Y020000D01*
X013707Y020000D01*
X014000Y020293D01*
X014000Y020707D01*
X013707Y021000D01*
X013293Y021000D01*
X013707Y021000D01*
X014000Y021293D01*
X014000Y021707D01*
X013707Y022000D01*
X013293Y022000D01*
X013707Y022000D01*
X014000Y022293D01*
X014000Y022707D01*
X013707Y023000D01*
X013293Y023000D01*
X013707Y023000D01*
X014000Y023293D01*
X014000Y023707D01*
X013707Y024000D01*
X013293Y024000D01*
X013707Y024000D01*
X014000Y024293D01*
X014000Y024707D01*
X013707Y025000D01*
X013293Y025000D01*
X013707Y025000D01*
X014000Y025293D01*
X014000Y025707D01*
X013707Y026000D01*
X013293Y026000D01*
X013707Y026000D01*
X014000Y026293D01*
X014000Y026707D01*
X013707Y027000D01*
X013293Y027000D01*
X013707Y027000D01*
X014000Y027293D01*
X014000Y027707D01*
X013707Y028000D01*
X013293Y028000D01*
X013707Y028000D01*
X014000Y028293D01*
X014000Y028707D01*
X013707Y029000D01*
X013293Y029000D01*
X013707Y029000D01*
X014000Y029293D01*
X014000Y029707D01*
X013707Y030000D01*
X013293Y030000D01*
X013707Y030000D01*
X014000Y030293D01*
X014000Y030707D01*
X013707Y031000D01*
X013293Y031000D01*
X013707Y031000D01*
X014000Y031293D01*
X014000Y031707D01*
X013707Y032000D01*
X013293Y032000D01*
X013707Y032000D01*
X014000Y032293D01*
X014000Y032707D01*
X013707Y033000D01*
X013293Y033000D01*
X013707Y033000D01*
X014000Y033293D01*
X014000Y033707D01*
X013707Y034000D01*
X013293Y034000D01*
X013707Y034000D01*
X014000Y034293D01*
X014000Y034707D01*
X013707Y035000D01*
X013293Y035000D01*
X013707Y035000D01*
X014000Y035293D01*
X014000Y035707D01*
X013707Y036000D01*
X013293Y036000D01*
X013707Y036000D01*
X014000Y036293D01*
X014000Y036707D01*
X013707Y037000D01*
X013293Y037000D01*
X013707Y037000D01*
X014000Y037293D01*
X014000Y037707D01*
X013707Y038000D01*
X013293Y038000D01*
X013707Y038000D01*
X014000Y038293D01*
X014000Y038707D01*
X013707Y039000D01*
X013293Y039000D01*
X013707Y039000D01*
X014000Y039293D01*
X014000Y039707D01*
X013707Y040000D01*
X013293Y040000D01*
X013707Y040000D01*
X014000Y040293D01*
X014000Y040707D01*
X013707Y041000D01*
X013948Y040759D02*
X023052Y040759D01*
X023000Y040601D02*
X014000Y040601D01*
X014000Y040442D02*
X023000Y040442D01*
X023009Y040284D02*
X013991Y040284D01*
X013832Y040125D02*
X023168Y040125D01*
X023259Y039967D02*
X013741Y039967D01*
X013899Y039808D02*
X023101Y039808D01*
X023000Y039650D02*
X014000Y039650D01*
X014000Y039491D02*
X023000Y039491D01*
X023000Y039333D02*
X014000Y039333D01*
X013881Y039174D02*
X023119Y039174D01*
X023277Y039016D02*
X013723Y039016D01*
X013850Y038857D02*
X023150Y038857D01*
X023000Y038699D02*
X014000Y038699D01*
X014000Y038540D02*
X023000Y038540D01*
X023000Y038382D02*
X014000Y038382D01*
X013930Y038223D02*
X023070Y038223D01*
X023228Y038065D02*
X013772Y038065D01*
X013801Y037906D02*
X023199Y037906D01*
X023040Y037748D02*
X013960Y037748D01*
X014000Y037589D02*
X023000Y037589D01*
X023000Y037431D02*
X014000Y037431D01*
X013979Y037272D02*
X023021Y037272D01*
X023179Y037114D02*
X013821Y037114D01*
X013752Y036955D02*
X023248Y036955D01*
X023089Y036797D02*
X013911Y036797D01*
X014000Y036638D02*
X023000Y036638D01*
X023000Y036480D02*
X014000Y036480D01*
X014000Y036321D02*
X023000Y036321D01*
X023130Y036163D02*
X013870Y036163D01*
X013711Y036004D02*
X023289Y036004D01*
X023138Y035846D02*
X013862Y035846D01*
X014000Y035687D02*
X023000Y035687D01*
X023000Y035529D02*
X014000Y035529D01*
X014000Y035370D02*
X023000Y035370D01*
X023081Y035212D02*
X013919Y035212D01*
X013760Y035053D02*
X023240Y035053D01*
X023187Y034895D02*
X013813Y034895D01*
X013971Y034736D02*
X023029Y034736D01*
X023000Y034578D02*
X014000Y034578D01*
X014000Y034419D02*
X023000Y034419D01*
X023032Y034261D02*
X013968Y034261D01*
X013809Y034102D02*
X023191Y034102D01*
X023236Y033944D02*
X013764Y033944D01*
X013922Y033785D02*
X023078Y033785D01*
X023000Y033627D02*
X014000Y033627D01*
X014000Y033468D02*
X023000Y033468D01*
X023000Y033310D02*
X014000Y033310D01*
X013858Y033151D02*
X023142Y033151D01*
X023285Y032993D02*
X013715Y032993D01*
X013873Y032834D02*
X023127Y032834D01*
X023000Y032676D02*
X014000Y032676D01*
X014000Y032517D02*
X023000Y032517D01*
X023000Y032359D02*
X014000Y032359D01*
X013907Y032200D02*
X023093Y032200D01*
X023251Y032042D02*
X013749Y032042D01*
X013824Y031883D02*
X023176Y031883D01*
X023017Y031725D02*
X013983Y031725D01*
X014000Y031566D02*
X023000Y031566D01*
X023000Y031408D02*
X014000Y031408D01*
X013956Y031249D02*
X023044Y031249D01*
X023202Y031091D02*
X013798Y031091D01*
X013775Y030932D02*
X023225Y030932D01*
X023066Y030774D02*
X013934Y030774D01*
X014000Y030615D02*
X023000Y030615D01*
X023000Y030457D02*
X014000Y030457D01*
X014000Y030298D02*
X023000Y030298D01*
X023153Y030140D02*
X013847Y030140D01*
X013726Y029981D02*
X023274Y029981D01*
X023115Y029823D02*
X021797Y029823D01*
X021748Y029871D02*
X021587Y029938D01*
X021413Y029938D01*
X021252Y029871D01*
X021129Y029748D01*
X021062Y029587D01*
X021062Y029413D01*
X021129Y029252D01*
X021252Y029129D01*
X021413Y029062D01*
X021587Y029062D01*
X021748Y029129D01*
X021871Y029252D01*
X021938Y029413D01*
X021938Y029587D01*
X021871Y029748D01*
X021748Y029871D01*
X021906Y029664D02*
X023000Y029664D01*
X023000Y029506D02*
X021938Y029506D01*
X021911Y029347D02*
X023000Y029347D01*
X023104Y029189D02*
X021808Y029189D01*
X021192Y029189D02*
X018308Y029189D01*
X018248Y029129D02*
X018371Y029252D01*
X018438Y029413D01*
X018438Y029587D01*
X018371Y029748D01*
X018248Y029871D01*
X018087Y029938D01*
X017913Y029938D01*
X017752Y029871D01*
X017629Y029748D01*
X017562Y029587D01*
X017562Y029413D01*
X017629Y029252D01*
X017752Y029129D01*
X017913Y029062D01*
X018087Y029062D01*
X018248Y029129D01*
X018411Y029347D02*
X021089Y029347D01*
X021062Y029506D02*
X018438Y029506D01*
X018406Y029664D02*
X021094Y029664D01*
X021203Y029823D02*
X018297Y029823D01*
X017703Y029823D02*
X015797Y029823D01*
X015748Y029871D02*
X015587Y029938D01*
X015413Y029938D01*
X015252Y029871D01*
X015129Y029748D01*
X015062Y029587D01*
X015062Y029413D01*
X015129Y029252D01*
X015252Y029129D01*
X015413Y029062D01*
X015587Y029062D01*
X015748Y029129D01*
X015871Y029252D01*
X015938Y029413D01*
X015938Y029587D01*
X015871Y029748D01*
X015748Y029871D01*
X015906Y029664D02*
X017594Y029664D01*
X017562Y029506D02*
X015938Y029506D01*
X015911Y029347D02*
X017589Y029347D01*
X017692Y029189D02*
X015808Y029189D01*
X015192Y029189D02*
X013896Y029189D01*
X014000Y029347D02*
X015089Y029347D01*
X015062Y029506D02*
X014000Y029506D01*
X014000Y029664D02*
X015094Y029664D01*
X015203Y029823D02*
X013885Y029823D01*
X013274Y029981D02*
X011726Y029981D01*
X011707Y030000D02*
X011293Y030000D01*
X011000Y029707D01*
X011000Y029293D01*
X011293Y029000D01*
X011000Y028707D01*
X011000Y028293D01*
X011293Y028000D01*
X011000Y027707D01*
X011000Y027293D01*
X011293Y027000D01*
X011000Y026707D01*
X011000Y026293D01*
X011293Y026000D01*
X011000Y025707D01*
X011000Y025293D01*
X011293Y025000D01*
X011000Y024707D01*
X011000Y024293D01*
X011293Y024000D01*
X011000Y023707D01*
X011000Y023293D01*
X011293Y023000D01*
X011000Y022707D01*
X011000Y022293D01*
X011293Y022000D01*
X011000Y021707D01*
X011000Y021293D01*
X011293Y021000D01*
X011000Y020707D01*
X011000Y020293D01*
X011293Y020000D01*
X011000Y019707D01*
X011000Y019293D01*
X011293Y019000D01*
X011000Y018707D01*
X011000Y018293D01*
X011293Y018000D01*
X011707Y018000D01*
X012000Y018293D01*
X012000Y018707D01*
X011707Y019000D01*
X011293Y019000D01*
X011707Y019000D01*
X012000Y019293D01*
X012000Y019707D01*
X011707Y020000D01*
X011293Y020000D01*
X011707Y020000D01*
X012000Y020293D01*
X012000Y020707D01*
X011707Y021000D01*
X011293Y021000D01*
X011707Y021000D01*
X012000Y021293D01*
X012000Y021707D01*
X011707Y022000D01*
X011293Y022000D01*
X011707Y022000D01*
X012000Y022293D01*
X012000Y022707D01*
X011707Y023000D01*
X011293Y023000D01*
X011707Y023000D01*
X012000Y023293D01*
X012000Y023707D01*
X011707Y024000D01*
X011293Y024000D01*
X011707Y024000D01*
X012000Y024293D01*
X012000Y024707D01*
X011707Y025000D01*
X011293Y025000D01*
X011707Y025000D01*
X012000Y025293D01*
X012000Y025707D01*
X011707Y026000D01*
X011293Y026000D01*
X011707Y026000D01*
X012000Y026293D01*
X012000Y026707D01*
X011707Y027000D01*
X011293Y027000D01*
X011707Y027000D01*
X012000Y027293D01*
X012000Y027707D01*
X011707Y028000D01*
X011293Y028000D01*
X011707Y028000D01*
X012000Y028293D01*
X012000Y028707D01*
X011707Y029000D01*
X011293Y029000D01*
X011707Y029000D01*
X012000Y029293D01*
X012000Y029707D01*
X011707Y030000D01*
X012000Y030293D01*
X012000Y030707D01*
X011707Y031000D01*
X011293Y031000D01*
X011000Y030707D01*
X011000Y030293D01*
X011293Y030000D01*
X011707Y030000D01*
X011847Y030140D02*
X013153Y030140D01*
X013000Y030298D02*
X012000Y030298D01*
X012000Y030457D02*
X013000Y030457D01*
X013000Y030615D02*
X012000Y030615D01*
X011934Y030774D02*
X013066Y030774D01*
X013225Y030932D02*
X011775Y030932D01*
X011707Y031000D02*
X012000Y031293D01*
X012000Y031707D01*
X011707Y032000D01*
X011293Y032000D01*
X011000Y031707D01*
X011000Y031293D01*
X011293Y031000D01*
X011707Y031000D01*
X011798Y031091D02*
X013202Y031091D01*
X013044Y031249D02*
X011956Y031249D01*
X012000Y031408D02*
X013000Y031408D01*
X013000Y031566D02*
X012000Y031566D01*
X011983Y031725D02*
X013017Y031725D01*
X013176Y031883D02*
X011824Y031883D01*
X011707Y032000D02*
X012000Y032293D01*
X012000Y032707D01*
X011707Y033000D01*
X011293Y033000D01*
X011000Y032707D01*
X011000Y032293D01*
X011293Y032000D01*
X011707Y032000D01*
X011749Y032042D02*
X013251Y032042D01*
X013093Y032200D02*
X011907Y032200D01*
X012000Y032359D02*
X013000Y032359D01*
X013000Y032517D02*
X012000Y032517D01*
X012000Y032676D02*
X013000Y032676D01*
X013127Y032834D02*
X011873Y032834D01*
X011715Y032993D02*
X013285Y032993D01*
X013142Y033151D02*
X011858Y033151D01*
X012000Y033293D02*
X011707Y033000D01*
X011293Y033000D01*
X011000Y033293D01*
X011000Y033707D01*
X011293Y034000D01*
X011707Y034000D01*
X012000Y033707D01*
X012000Y033293D01*
X012000Y033310D02*
X013000Y033310D01*
X013000Y033468D02*
X012000Y033468D01*
X012000Y033627D02*
X013000Y033627D01*
X013078Y033785D02*
X011922Y033785D01*
X011764Y033944D02*
X013236Y033944D01*
X013191Y034102D02*
X011809Y034102D01*
X011707Y034000D02*
X012000Y034293D01*
X012000Y034707D01*
X011707Y035000D01*
X011293Y035000D01*
X011000Y034707D01*
X011000Y034293D01*
X011293Y034000D01*
X011707Y034000D01*
X011968Y034261D02*
X013032Y034261D01*
X013000Y034419D02*
X012000Y034419D01*
X012000Y034578D02*
X013000Y034578D01*
X013029Y034736D02*
X011971Y034736D01*
X011813Y034895D02*
X013187Y034895D01*
X013240Y035053D02*
X011760Y035053D01*
X011707Y035000D02*
X012000Y035293D01*
X012000Y035707D01*
X011707Y036000D01*
X011293Y036000D01*
X011000Y035707D01*
X011000Y035293D01*
X011293Y035000D01*
X011707Y035000D01*
X011919Y035212D02*
X013081Y035212D01*
X013000Y035370D02*
X012000Y035370D01*
X012000Y035529D02*
X013000Y035529D01*
X013000Y035687D02*
X012000Y035687D01*
X011862Y035846D02*
X013138Y035846D01*
X013289Y036004D02*
X011711Y036004D01*
X011707Y036000D02*
X012000Y036293D01*
X012000Y036707D01*
X011707Y037000D01*
X011293Y037000D01*
X011000Y036707D01*
X011000Y036293D01*
X011293Y036000D01*
X011707Y036000D01*
X011870Y036163D02*
X013130Y036163D01*
X013000Y036321D02*
X012000Y036321D01*
X012000Y036480D02*
X013000Y036480D01*
X013000Y036638D02*
X012000Y036638D01*
X011911Y036797D02*
X013089Y036797D01*
X013248Y036955D02*
X011752Y036955D01*
X011707Y037000D02*
X012000Y037293D01*
X012000Y037707D01*
X011707Y038000D01*
X011293Y038000D01*
X011000Y037707D01*
X011000Y037293D01*
X011293Y037000D01*
X011707Y037000D01*
X011821Y037114D02*
X013179Y037114D01*
X013021Y037272D02*
X011979Y037272D01*
X012000Y037431D02*
X013000Y037431D01*
X013000Y037589D02*
X012000Y037589D01*
X011960Y037748D02*
X013040Y037748D01*
X013199Y037906D02*
X011801Y037906D01*
X011707Y038000D02*
X012000Y038293D01*
X012000Y038707D01*
X011707Y039000D01*
X011293Y039000D01*
X011000Y038707D01*
X011000Y038293D01*
X011293Y038000D01*
X011707Y038000D01*
X011772Y038065D02*
X013228Y038065D01*
X013070Y038223D02*
X011930Y038223D01*
X012000Y038382D02*
X013000Y038382D01*
X013000Y038540D02*
X012000Y038540D01*
X012000Y038699D02*
X013000Y038699D01*
X013150Y038857D02*
X011850Y038857D01*
X011707Y039000D02*
X012000Y039293D01*
X012000Y039707D01*
X011707Y040000D01*
X011293Y040000D01*
X011000Y039707D01*
X011000Y039293D01*
X011293Y039000D01*
X011707Y039000D01*
X011723Y039016D02*
X013277Y039016D01*
X013119Y039174D02*
X011881Y039174D01*
X012000Y039333D02*
X013000Y039333D01*
X013000Y039491D02*
X012000Y039491D01*
X012000Y039650D02*
X013000Y039650D01*
X013101Y039808D02*
X011899Y039808D01*
X011741Y039967D02*
X013259Y039967D01*
X013168Y040125D02*
X011832Y040125D01*
X011707Y040000D02*
X012000Y040293D01*
X012000Y040707D01*
X011707Y041000D01*
X011293Y041000D01*
X011000Y040707D01*
X011000Y040293D01*
X011293Y040000D01*
X011707Y040000D01*
X011991Y040284D02*
X013009Y040284D01*
X013000Y040442D02*
X012000Y040442D01*
X012000Y040601D02*
X013000Y040601D01*
X013052Y040759D02*
X011948Y040759D01*
X011790Y040918D02*
X013210Y040918D01*
X012778Y042760D02*
X013012Y042896D01*
X013204Y043088D01*
X013340Y043322D01*
X013410Y043584D01*
X013410Y043856D01*
X013340Y044118D01*
X013204Y044352D01*
X013012Y044544D01*
X012778Y044680D01*
X012516Y044750D01*
X012244Y044750D01*
X011982Y044680D01*
X011748Y044544D01*
X011556Y044352D01*
X011420Y044118D01*
X011350Y043856D01*
X011350Y043584D01*
X011420Y043322D01*
X011556Y043088D01*
X011748Y042896D01*
X011982Y042760D01*
X012244Y042690D01*
X012516Y042690D01*
X012778Y042760D01*
X012880Y042820D02*
X023467Y042820D01*
X023431Y042856D02*
X023431Y042856D01*
X023369Y042978D02*
X013095Y042978D01*
X013232Y043137D02*
X023288Y043137D01*
X023217Y043295D02*
X013324Y043295D01*
X013375Y043454D02*
X023192Y043454D01*
X023167Y043612D02*
X013410Y043612D01*
X013410Y043771D02*
X023158Y043771D01*
X023183Y043929D02*
X013390Y043929D01*
X013348Y044088D02*
X023208Y044088D01*
X023222Y044174D02*
X023222Y044174D01*
X023259Y044246D02*
X013266Y044246D01*
X013152Y044405D02*
X023339Y044405D01*
X023420Y044563D02*
X012980Y044563D01*
X012622Y044722D02*
X023568Y044722D01*
X023431Y044584D02*
X023431Y044584D01*
X023727Y044880D02*
X001005Y044880D01*
X001005Y044722D02*
X012138Y044722D01*
X011780Y044563D02*
X001005Y044563D01*
X001005Y044405D02*
X011608Y044405D01*
X011494Y044246D02*
X001005Y044246D01*
X001005Y044088D02*
X011412Y044088D01*
X011370Y043929D02*
X001005Y043929D01*
X001005Y043771D02*
X011350Y043771D01*
X011350Y043612D02*
X001005Y043612D01*
X001005Y043454D02*
X011385Y043454D01*
X011436Y043295D02*
X001005Y043295D01*
X001005Y043137D02*
X011528Y043137D01*
X011665Y042978D02*
X001005Y042978D01*
X001005Y042820D02*
X011880Y042820D01*
X011210Y040918D02*
X001005Y040918D01*
X001005Y041076D02*
X052995Y041076D01*
X052995Y040918D02*
X045790Y040918D01*
X045948Y040759D02*
X052995Y040759D01*
X052995Y040601D02*
X046000Y040601D01*
X046000Y040442D02*
X052995Y040442D01*
X052995Y040284D02*
X045991Y040284D01*
X045832Y040125D02*
X052995Y040125D01*
X052995Y039967D02*
X045741Y039967D01*
X045899Y039808D02*
X052995Y039808D01*
X052995Y039650D02*
X046000Y039650D01*
X046000Y039491D02*
X052995Y039491D01*
X052995Y039333D02*
X046000Y039333D01*
X045881Y039174D02*
X052995Y039174D01*
X052995Y039016D02*
X045723Y039016D01*
X045850Y038857D02*
X052995Y038857D01*
X052995Y038699D02*
X046000Y038699D01*
X046000Y038540D02*
X052995Y038540D01*
X052995Y038382D02*
X046000Y038382D01*
X045930Y038223D02*
X052995Y038223D01*
X052995Y038065D02*
X045772Y038065D01*
X045801Y037906D02*
X052995Y037906D01*
X052995Y037748D02*
X045960Y037748D01*
X046000Y037589D02*
X052995Y037589D01*
X052995Y037431D02*
X046000Y037431D01*
X045979Y037272D02*
X052995Y037272D01*
X052995Y037114D02*
X045821Y037114D01*
X045752Y036955D02*
X052995Y036955D01*
X052995Y036797D02*
X045911Y036797D01*
X046000Y036638D02*
X052995Y036638D01*
X052995Y036480D02*
X046000Y036480D01*
X046000Y036321D02*
X052995Y036321D01*
X052995Y036163D02*
X045870Y036163D01*
X045711Y036004D02*
X052995Y036004D01*
X052995Y035846D02*
X045862Y035846D01*
X046000Y035687D02*
X052995Y035687D01*
X052995Y035529D02*
X046000Y035529D01*
X046000Y035370D02*
X052995Y035370D01*
X052995Y035212D02*
X045919Y035212D01*
X045760Y035053D02*
X052995Y035053D01*
X052995Y034895D02*
X045813Y034895D01*
X045971Y034736D02*
X052995Y034736D01*
X052995Y034578D02*
X046000Y034578D01*
X046000Y034419D02*
X052995Y034419D01*
X052995Y034261D02*
X045968Y034261D01*
X045809Y034102D02*
X052995Y034102D01*
X052995Y033944D02*
X045764Y033944D01*
X045922Y033785D02*
X052995Y033785D01*
X052995Y033627D02*
X046000Y033627D01*
X046000Y033468D02*
X052995Y033468D01*
X052995Y033310D02*
X046810Y033310D01*
X046748Y033371D02*
X046587Y033438D01*
X046413Y033438D01*
X046252Y033371D01*
X046129Y033248D01*
X046062Y033087D01*
X046062Y032913D01*
X046129Y032752D01*
X046252Y032629D01*
X046413Y032562D01*
X046587Y032562D01*
X046748Y032629D01*
X046871Y032752D01*
X046938Y032913D01*
X046938Y033087D01*
X046871Y033248D01*
X046748Y033371D01*
X046911Y033151D02*
X052995Y033151D01*
X052995Y032993D02*
X046938Y032993D01*
X046905Y032834D02*
X052995Y032834D01*
X052995Y032676D02*
X046795Y032676D01*
X046205Y032676D02*
X046000Y032676D01*
X046000Y032517D02*
X052995Y032517D01*
X052995Y032359D02*
X046000Y032359D01*
X045907Y032200D02*
X052995Y032200D01*
X052995Y032042D02*
X045749Y032042D01*
X045824Y031883D02*
X052995Y031883D01*
X052995Y031725D02*
X045983Y031725D01*
X046000Y031566D02*
X052995Y031566D01*
X052995Y031408D02*
X046000Y031408D01*
X045956Y031249D02*
X052995Y031249D01*
X052995Y031091D02*
X045798Y031091D01*
X045775Y030932D02*
X052995Y030932D01*
X052995Y030774D02*
X045934Y030774D01*
X046000Y030615D02*
X052995Y030615D01*
X052995Y030457D02*
X046000Y030457D01*
X046000Y030298D02*
X052995Y030298D01*
X052995Y030140D02*
X045847Y030140D01*
X045726Y029981D02*
X052995Y029981D01*
X052995Y029823D02*
X045885Y029823D01*
X046000Y029664D02*
X052995Y029664D01*
X052995Y029506D02*
X046000Y029506D01*
X046000Y029347D02*
X046228Y029347D01*
X046252Y029371D02*
X046129Y029248D01*
X046062Y029087D01*
X046062Y028913D01*
X046129Y028752D01*
X046252Y028629D01*
X046413Y028562D01*
X046587Y028562D01*
X046748Y028629D01*
X046871Y028752D01*
X046938Y028913D01*
X046938Y029087D01*
X046871Y029248D01*
X046748Y029371D01*
X046587Y029438D01*
X046413Y029438D01*
X046252Y029371D01*
X046104Y029189D02*
X045896Y029189D01*
X045737Y029030D02*
X046062Y029030D01*
X046079Y028872D02*
X045836Y028872D01*
X045994Y028713D02*
X046168Y028713D01*
X046000Y028555D02*
X052995Y028555D01*
X052995Y028713D02*
X046832Y028713D01*
X046921Y028872D02*
X052995Y028872D01*
X052995Y029030D02*
X046938Y029030D01*
X046896Y029189D02*
X052995Y029189D01*
X052995Y029347D02*
X046772Y029347D01*
X046000Y028396D02*
X052995Y028396D01*
X052995Y028238D02*
X045945Y028238D01*
X045786Y028079D02*
X052995Y028079D01*
X052995Y027921D02*
X045787Y027921D01*
X045945Y027762D02*
X052995Y027762D01*
X052995Y027604D02*
X046000Y027604D01*
X046000Y027445D02*
X052995Y027445D01*
X052995Y027287D02*
X045994Y027287D01*
X045835Y027128D02*
X052995Y027128D01*
X052995Y026970D02*
X045738Y026970D01*
X045896Y026811D02*
X052995Y026811D01*
X052995Y026653D02*
X046000Y026653D01*
X046000Y026494D02*
X052995Y026494D01*
X052995Y026336D02*
X046000Y026336D01*
X045884Y026177D02*
X052995Y026177D01*
X052995Y026019D02*
X045726Y026019D01*
X045847Y025860D02*
X049241Y025860D01*
X049252Y025871D02*
X049129Y025748D01*
X049062Y025587D01*
X049062Y025413D01*
X049129Y025252D01*
X049252Y025129D01*
X049413Y025062D01*
X049587Y025062D01*
X049748Y025129D01*
X049871Y025252D01*
X049938Y025413D01*
X049938Y025587D01*
X049871Y025748D01*
X049748Y025871D01*
X049587Y025938D01*
X049413Y025938D01*
X049252Y025871D01*
X049110Y025702D02*
X046000Y025702D01*
X046000Y025543D02*
X049062Y025543D01*
X049074Y025385D02*
X046000Y025385D01*
X045933Y025226D02*
X049155Y025226D01*
X049400Y025068D02*
X045775Y025068D01*
X045798Y024909D02*
X046843Y024909D01*
X046913Y024938D02*
X046752Y024871D01*
X046629Y024748D01*
X046562Y024587D01*
X046562Y024413D01*
X046629Y024252D01*
X046752Y024129D01*
X046913Y024062D01*
X047087Y024062D01*
X047248Y024129D01*
X047371Y024252D01*
X047438Y024413D01*
X047438Y024587D01*
X047371Y024748D01*
X047248Y024871D01*
X047087Y024938D01*
X046913Y024938D01*
X047157Y024909D02*
X052995Y024909D01*
X052995Y024751D02*
X047369Y024751D01*
X047436Y024592D02*
X052995Y024592D01*
X052995Y024434D02*
X047438Y024434D01*
X047381Y024275D02*
X052995Y024275D01*
X052995Y024117D02*
X047218Y024117D01*
X046782Y024117D02*
X045824Y024117D01*
X045749Y023958D02*
X052995Y023958D01*
X052995Y023800D02*
X045908Y023800D01*
X046000Y023641D02*
X052995Y023641D01*
X052995Y023483D02*
X046000Y023483D01*
X046000Y023324D02*
X047705Y023324D01*
X047752Y023371D02*
X047629Y023248D01*
X047562Y023087D01*
X047562Y022913D01*
X047629Y022752D01*
X047752Y022629D01*
X047913Y022562D01*
X048087Y022562D01*
X048248Y022629D01*
X048371Y022752D01*
X048438Y022913D01*
X048438Y023087D01*
X048371Y023248D01*
X048248Y023371D01*
X048087Y023438D01*
X047913Y023438D01*
X047752Y023371D01*
X047595Y023166D02*
X045873Y023166D01*
X045714Y023007D02*
X047562Y023007D01*
X047589Y022849D02*
X045859Y022849D01*
X046000Y022690D02*
X047691Y022690D01*
X048309Y022690D02*
X052995Y022690D01*
X052995Y022532D02*
X046000Y022532D01*
X046000Y022373D02*
X049757Y022373D01*
X049752Y022371D02*
X049629Y022248D01*
X049562Y022087D01*
X049562Y021913D01*
X049629Y021752D01*
X049752Y021629D01*
X049913Y021562D01*
X050087Y021562D01*
X050248Y021629D01*
X050371Y021752D01*
X050438Y021913D01*
X050438Y022087D01*
X050371Y022248D01*
X050248Y022371D01*
X050087Y022438D01*
X049913Y022438D01*
X049752Y022371D01*
X049615Y022215D02*
X045922Y022215D01*
X045763Y022056D02*
X049562Y022056D01*
X049569Y021898D02*
X045810Y021898D01*
X045968Y021739D02*
X049642Y021739D01*
X049869Y021581D02*
X046000Y021581D01*
X046000Y021422D02*
X052995Y021422D01*
X052995Y021264D02*
X045971Y021264D01*
X045812Y021105D02*
X052995Y021105D01*
X052995Y020947D02*
X045761Y020947D01*
X045919Y020788D02*
X047169Y020788D01*
X047129Y020748D02*
X047062Y020587D01*
X047062Y020413D01*
X047129Y020252D01*
X047252Y020129D01*
X047413Y020062D01*
X047587Y020062D01*
X047748Y020129D01*
X047871Y020252D01*
X047938Y020413D01*
X047938Y020587D01*
X047871Y020748D01*
X047748Y020871D01*
X047587Y020938D01*
X047413Y020938D01*
X047252Y020871D01*
X047129Y020748D01*
X047080Y020630D02*
X046000Y020630D01*
X046000Y020471D02*
X047062Y020471D01*
X047104Y020313D02*
X046000Y020313D01*
X045861Y020154D02*
X047227Y020154D01*
X047773Y020154D02*
X052995Y020154D01*
X052995Y019996D02*
X045712Y019996D01*
X045870Y019837D02*
X052995Y019837D01*
X052995Y019679D02*
X046000Y019679D01*
X047896Y020313D02*
X052995Y020313D01*
X052995Y020471D02*
X047938Y020471D01*
X047920Y020630D02*
X052995Y020630D01*
X052995Y020788D02*
X047831Y020788D01*
X048411Y022849D02*
X052995Y022849D01*
X052995Y023007D02*
X048438Y023007D01*
X048405Y023166D02*
X052995Y023166D01*
X052995Y023324D02*
X048295Y023324D01*
X050243Y022373D02*
X052995Y022373D01*
X052995Y022215D02*
X050385Y022215D01*
X050438Y022056D02*
X052995Y022056D01*
X052995Y021898D02*
X050431Y021898D01*
X050358Y021739D02*
X052995Y021739D01*
X052995Y021581D02*
X050131Y021581D01*
X049600Y025068D02*
X052995Y025068D01*
X052995Y025226D02*
X049845Y025226D01*
X049926Y025385D02*
X052995Y025385D01*
X052995Y025543D02*
X049938Y025543D01*
X049890Y025702D02*
X052995Y025702D01*
X052995Y025860D02*
X049759Y025860D01*
X046631Y024751D02*
X045957Y024751D01*
X046000Y024592D02*
X046564Y024592D01*
X046562Y024434D02*
X046000Y024434D01*
X045982Y024275D02*
X046619Y024275D01*
X043251Y023958D02*
X037749Y023958D01*
X037824Y024117D02*
X043176Y024117D01*
X043018Y024275D02*
X037982Y024275D01*
X038000Y024434D02*
X043000Y024434D01*
X043000Y024592D02*
X038000Y024592D01*
X037957Y024751D02*
X043043Y024751D01*
X043202Y024909D02*
X037798Y024909D01*
X037775Y025068D02*
X043225Y025068D01*
X043067Y025226D02*
X037933Y025226D01*
X038000Y025385D02*
X043000Y025385D01*
X043000Y025543D02*
X038000Y025543D01*
X038000Y025702D02*
X043000Y025702D01*
X043153Y025860D02*
X037847Y025860D01*
X037726Y026019D02*
X043274Y026019D01*
X043116Y026177D02*
X037884Y026177D01*
X038000Y026336D02*
X043000Y026336D01*
X043000Y026494D02*
X038000Y026494D01*
X038000Y026653D02*
X043000Y026653D01*
X043104Y026811D02*
X037896Y026811D01*
X037738Y026970D02*
X043262Y026970D01*
X043165Y027128D02*
X037835Y027128D01*
X037994Y027287D02*
X043006Y027287D01*
X043000Y027445D02*
X038000Y027445D01*
X038000Y027604D02*
X043000Y027604D01*
X043055Y027762D02*
X037945Y027762D01*
X037787Y027921D02*
X043213Y027921D01*
X043214Y028079D02*
X037786Y028079D01*
X037945Y028238D02*
X043055Y028238D01*
X043000Y028396D02*
X038000Y028396D01*
X038000Y028555D02*
X043000Y028555D01*
X043006Y028713D02*
X037994Y028713D01*
X037836Y028872D02*
X043164Y028872D01*
X043263Y029030D02*
X037737Y029030D01*
X037263Y029030D02*
X035737Y029030D01*
X035836Y028872D02*
X037164Y028872D01*
X037006Y028713D02*
X035994Y028713D01*
X036000Y028555D02*
X037000Y028555D01*
X037000Y028396D02*
X036000Y028396D01*
X035945Y028238D02*
X037055Y028238D01*
X037214Y028079D02*
X035786Y028079D01*
X035787Y027921D02*
X037213Y027921D01*
X037055Y027762D02*
X035945Y027762D01*
X036000Y027604D02*
X037000Y027604D01*
X037000Y027445D02*
X036000Y027445D01*
X035994Y027287D02*
X037006Y027287D01*
X037165Y027128D02*
X035835Y027128D01*
X035738Y026970D02*
X037262Y026970D01*
X037104Y026811D02*
X035896Y026811D01*
X036000Y026653D02*
X037000Y026653D01*
X037000Y026494D02*
X036000Y026494D01*
X036000Y026336D02*
X037000Y026336D01*
X037116Y026177D02*
X035884Y026177D01*
X035726Y026019D02*
X037274Y026019D01*
X037153Y025860D02*
X035847Y025860D01*
X036000Y025702D02*
X037000Y025702D01*
X037000Y025543D02*
X036000Y025543D01*
X036000Y025385D02*
X037000Y025385D01*
X037067Y025226D02*
X035933Y025226D01*
X035775Y025068D02*
X037225Y025068D01*
X037202Y024909D02*
X035798Y024909D01*
X035957Y024751D02*
X037043Y024751D01*
X037000Y024592D02*
X036000Y024592D01*
X036000Y024434D02*
X037000Y024434D01*
X037018Y024275D02*
X035982Y024275D01*
X035824Y024117D02*
X037176Y024117D01*
X037251Y023958D02*
X035749Y023958D01*
X035908Y023800D02*
X037092Y023800D01*
X037000Y023641D02*
X036000Y023641D01*
X036000Y023483D02*
X037000Y023483D01*
X037000Y023324D02*
X036000Y023324D01*
X035873Y023166D02*
X037127Y023166D01*
X037286Y023007D02*
X035714Y023007D01*
X035859Y022849D02*
X037141Y022849D01*
X037000Y022690D02*
X036000Y022690D01*
X036000Y022532D02*
X037000Y022532D01*
X037000Y022373D02*
X036000Y022373D01*
X035922Y022215D02*
X037078Y022215D01*
X037237Y022056D02*
X035763Y022056D01*
X035810Y021898D02*
X037190Y021898D01*
X037032Y021739D02*
X035968Y021739D01*
X036000Y021581D02*
X037000Y021581D01*
X037000Y021422D02*
X036000Y021422D01*
X035971Y021264D02*
X037029Y021264D01*
X037188Y021105D02*
X035812Y021105D01*
X035761Y020947D02*
X037239Y020947D01*
X037081Y020788D02*
X035919Y020788D01*
X036000Y020630D02*
X037000Y020630D01*
X037000Y020471D02*
X036000Y020471D01*
X036000Y020313D02*
X037000Y020313D01*
X037139Y020154D02*
X035861Y020154D01*
X035712Y019996D02*
X037288Y019996D01*
X037130Y019837D02*
X035870Y019837D01*
X036000Y019679D02*
X037000Y019679D01*
X037000Y019520D02*
X036000Y019520D01*
X036000Y019362D02*
X037000Y019362D01*
X037090Y019203D02*
X035910Y019203D01*
X035752Y019045D02*
X037248Y019045D01*
X037179Y018886D02*
X035821Y018886D01*
X035980Y018728D02*
X037020Y018728D01*
X037000Y018569D02*
X036000Y018569D01*
X036000Y018411D02*
X037000Y018411D01*
X037041Y018252D02*
X035959Y018252D01*
X035801Y018094D02*
X037199Y018094D01*
X037801Y018094D02*
X043199Y018094D01*
X043041Y018252D02*
X037959Y018252D01*
X038000Y018411D02*
X043000Y018411D01*
X043000Y018569D02*
X038000Y018569D01*
X037980Y018728D02*
X043020Y018728D01*
X043179Y018886D02*
X037821Y018886D01*
X037752Y019045D02*
X043248Y019045D01*
X043090Y019203D02*
X037910Y019203D01*
X038000Y019362D02*
X043000Y019362D01*
X043000Y019520D02*
X038000Y019520D01*
X038000Y019679D02*
X040702Y019679D01*
X040752Y019629D02*
X040629Y019752D01*
X040562Y019913D01*
X040562Y020087D01*
X040629Y020248D01*
X040752Y020371D01*
X040913Y020438D01*
X041087Y020438D01*
X041248Y020371D01*
X041371Y020248D01*
X041438Y020087D01*
X041438Y019913D01*
X041371Y019752D01*
X041248Y019629D01*
X041087Y019562D01*
X040913Y019562D01*
X040752Y019629D01*
X040594Y019837D02*
X037870Y019837D01*
X037712Y019996D02*
X040562Y019996D01*
X040590Y020154D02*
X037861Y020154D01*
X038000Y020313D02*
X040693Y020313D01*
X041307Y020313D02*
X043000Y020313D01*
X043000Y020471D02*
X038000Y020471D01*
X038000Y020630D02*
X043000Y020630D01*
X043081Y020788D02*
X037919Y020788D01*
X037761Y020947D02*
X043239Y020947D01*
X043188Y021105D02*
X037812Y021105D01*
X037971Y021264D02*
X043029Y021264D01*
X043000Y021422D02*
X038000Y021422D01*
X038000Y021581D02*
X043000Y021581D01*
X043032Y021739D02*
X037968Y021739D01*
X037810Y021898D02*
X043190Y021898D01*
X043237Y022056D02*
X037763Y022056D01*
X037922Y022215D02*
X043078Y022215D01*
X043000Y022373D02*
X038000Y022373D01*
X038000Y022532D02*
X043000Y022532D01*
X043000Y022690D02*
X038000Y022690D01*
X037859Y022849D02*
X043141Y022849D01*
X043286Y023007D02*
X037714Y023007D01*
X037873Y023166D02*
X043127Y023166D01*
X043000Y023324D02*
X038000Y023324D01*
X038000Y023483D02*
X043000Y023483D01*
X043000Y023641D02*
X038000Y023641D01*
X037908Y023800D02*
X043092Y023800D01*
X043139Y020154D02*
X041410Y020154D01*
X041438Y019996D02*
X043288Y019996D01*
X043130Y019837D02*
X041406Y019837D01*
X041298Y019679D02*
X043000Y019679D01*
X035277Y016984D02*
X031990Y016984D01*
X032210Y016826D02*
X035118Y016826D01*
X035000Y016667D02*
X032294Y016667D01*
X032320Y016509D02*
X035000Y016509D01*
X035000Y016350D02*
X032301Y016350D01*
X032227Y016192D02*
X035101Y016192D01*
X035944Y009218D02*
X031878Y009218D01*
X031700Y009059D02*
X035702Y009059D01*
X043690Y007157D02*
X025550Y007157D01*
X025303Y006999D02*
X043937Y006999D01*
X052995Y017143D02*
X001005Y017143D01*
X001005Y017301D02*
X052995Y017301D01*
X052995Y017460D02*
X001005Y017460D01*
X001005Y017618D02*
X052995Y017618D01*
X052995Y017777D02*
X001005Y017777D01*
X001005Y017935D02*
X052995Y017935D01*
X046095Y032834D02*
X045873Y032834D01*
X045715Y032993D02*
X046062Y032993D01*
X046089Y033151D02*
X045858Y033151D01*
X046000Y033310D02*
X046190Y033310D01*
X052995Y041235D02*
X001005Y041235D01*
X001005Y041393D02*
X052995Y041393D01*
X052995Y041552D02*
X001005Y041552D01*
X001005Y041710D02*
X052995Y041710D01*
X052995Y041869D02*
X001005Y041869D01*
X001005Y042027D02*
X052995Y042027D01*
X052995Y042186D02*
X001005Y042186D01*
X001005Y042344D02*
X024122Y042344D01*
X024166Y042322D02*
X024166Y042322D01*
X023811Y042503D02*
X001005Y042503D01*
X001005Y042661D02*
X023626Y042661D01*
X024620Y042250D02*
X024620Y042250D01*
X025118Y042344D02*
X044122Y042344D01*
X044166Y042322D02*
X044166Y042322D01*
X043811Y042503D02*
X025429Y042503D01*
X025614Y042661D02*
X043626Y042661D01*
X043756Y042531D02*
X043756Y042531D01*
X044620Y042250D02*
X044620Y042250D01*
X045118Y042344D02*
X052995Y042344D01*
X052995Y042503D02*
X045429Y042503D01*
X045614Y042661D02*
X052995Y042661D01*
X052995Y042820D02*
X045773Y042820D01*
X045809Y042856D02*
X045809Y042856D01*
X045871Y042978D02*
X052995Y042978D01*
X052995Y043137D02*
X045952Y043137D01*
X046018Y043266D02*
X046018Y043266D01*
X046023Y043295D02*
X052995Y043295D01*
X052995Y043454D02*
X046048Y043454D01*
X046073Y043612D02*
X052995Y043612D01*
X052995Y043771D02*
X046082Y043771D01*
X046057Y043929D02*
X052995Y043929D01*
X052995Y044088D02*
X046032Y044088D01*
X045981Y044246D02*
X052995Y044246D01*
X052995Y044405D02*
X045901Y044405D01*
X045820Y044563D02*
X052995Y044563D01*
X052995Y044722D02*
X045672Y044722D01*
X045513Y044880D02*
X052995Y044880D01*
X052995Y045039D02*
X045230Y045039D01*
X045074Y045118D02*
X045074Y045118D01*
X044620Y045190D02*
X044620Y045190D01*
X044010Y045039D02*
X025230Y045039D01*
X025074Y045118D02*
X025074Y045118D01*
X024620Y045190D02*
X024620Y045190D01*
X024010Y045039D02*
X001005Y045039D01*
X001005Y045197D02*
X052995Y045197D01*
X052995Y045356D02*
X001005Y045356D01*
X001005Y045514D02*
X052995Y045514D01*
X052995Y045673D02*
X001005Y045673D01*
X001005Y045831D02*
X052995Y045831D01*
X052995Y045990D02*
X001005Y045990D01*
X001005Y046148D02*
X052995Y046148D01*
X052995Y046307D02*
X001005Y046307D01*
X001005Y046465D02*
X052995Y046465D01*
X052995Y046624D02*
X001005Y046624D01*
X001005Y046782D02*
X052995Y046782D01*
X052995Y046941D02*
X001005Y046941D01*
X001005Y047099D02*
X052995Y047099D01*
X052995Y047258D02*
X001005Y047258D01*
X001005Y047416D02*
X052995Y047416D01*
X052995Y047575D02*
X001005Y047575D01*
X001005Y047733D02*
X052995Y047733D01*
X052995Y047892D02*
X001005Y047892D01*
X001005Y040759D02*
X011052Y040759D01*
X011000Y040601D02*
X001005Y040601D01*
X001005Y040442D02*
X011000Y040442D01*
X011009Y040284D02*
X001005Y040284D01*
X001005Y040125D02*
X011168Y040125D01*
X011259Y039967D02*
X001005Y039967D01*
X001005Y039808D02*
X011101Y039808D01*
X011000Y039650D02*
X001005Y039650D01*
X001005Y039491D02*
X011000Y039491D01*
X011000Y039333D02*
X001005Y039333D01*
X001005Y039174D02*
X011119Y039174D01*
X011277Y039016D02*
X001005Y039016D01*
X001005Y038857D02*
X011150Y038857D01*
X011000Y038699D02*
X001005Y038699D01*
X001005Y038540D02*
X011000Y038540D01*
X011000Y038382D02*
X001005Y038382D01*
X001005Y038223D02*
X011070Y038223D01*
X011228Y038065D02*
X001005Y038065D01*
X001005Y037906D02*
X011199Y037906D01*
X011040Y037748D02*
X001005Y037748D01*
X001005Y037589D02*
X011000Y037589D01*
X011000Y037431D02*
X001005Y037431D01*
X001005Y037272D02*
X011021Y037272D01*
X011179Y037114D02*
X001005Y037114D01*
X001005Y036955D02*
X011248Y036955D01*
X011089Y036797D02*
X001005Y036797D01*
X001005Y036638D02*
X011000Y036638D01*
X011000Y036480D02*
X001005Y036480D01*
X001005Y036321D02*
X011000Y036321D01*
X011130Y036163D02*
X001005Y036163D01*
X001005Y036004D02*
X011289Y036004D01*
X011138Y035846D02*
X001005Y035846D01*
X001005Y035687D02*
X011000Y035687D01*
X011000Y035529D02*
X001005Y035529D01*
X001005Y035370D02*
X011000Y035370D01*
X011081Y035212D02*
X001005Y035212D01*
X001005Y035053D02*
X011240Y035053D01*
X011187Y034895D02*
X001005Y034895D01*
X001005Y034736D02*
X011029Y034736D01*
X011000Y034578D02*
X001005Y034578D01*
X001005Y034419D02*
X011000Y034419D01*
X011032Y034261D02*
X001005Y034261D01*
X001005Y034102D02*
X011191Y034102D01*
X011236Y033944D02*
X001005Y033944D01*
X001005Y033785D02*
X011078Y033785D01*
X011000Y033627D02*
X001005Y033627D01*
X001005Y033468D02*
X011000Y033468D01*
X011000Y033310D02*
X001005Y033310D01*
X001005Y033151D02*
X011142Y033151D01*
X011285Y032993D02*
X001005Y032993D01*
X001005Y032834D02*
X011127Y032834D01*
X011000Y032676D02*
X001005Y032676D01*
X001005Y032517D02*
X011000Y032517D01*
X011000Y032359D02*
X001005Y032359D01*
X001005Y032200D02*
X011093Y032200D01*
X011251Y032042D02*
X001005Y032042D01*
X001005Y031883D02*
X011176Y031883D01*
X011017Y031725D02*
X001005Y031725D01*
X001005Y031566D02*
X011000Y031566D01*
X011000Y031408D02*
X001005Y031408D01*
X001005Y031249D02*
X011044Y031249D01*
X011202Y031091D02*
X001005Y031091D01*
X001005Y030932D02*
X011225Y030932D01*
X011066Y030774D02*
X001005Y030774D01*
X001005Y030615D02*
X011000Y030615D01*
X011000Y030457D02*
X001005Y030457D01*
X001005Y030298D02*
X011000Y030298D01*
X011153Y030140D02*
X001005Y030140D01*
X001005Y029981D02*
X011274Y029981D01*
X011115Y029823D02*
X001005Y029823D01*
X001005Y029664D02*
X011000Y029664D01*
X011000Y029506D02*
X001005Y029506D01*
X001005Y029347D02*
X009228Y029347D01*
X009252Y029371D02*
X009129Y029248D01*
X009062Y029087D01*
X009062Y028913D01*
X009129Y028752D01*
X009252Y028629D01*
X009413Y028562D01*
X009587Y028562D01*
X009748Y028629D01*
X009871Y028752D01*
X009938Y028913D01*
X009938Y029087D01*
X009871Y029248D01*
X009748Y029371D01*
X009587Y029438D01*
X009413Y029438D01*
X009252Y029371D01*
X009104Y029189D02*
X001005Y029189D01*
X001005Y029030D02*
X009062Y029030D01*
X009079Y028872D02*
X001005Y028872D01*
X001005Y028713D02*
X009168Y028713D01*
X009832Y028713D02*
X011006Y028713D01*
X011000Y028555D02*
X001005Y028555D01*
X001005Y028396D02*
X011000Y028396D01*
X011055Y028238D02*
X001005Y028238D01*
X001005Y028079D02*
X011214Y028079D01*
X011213Y027921D02*
X001005Y027921D01*
X001005Y027762D02*
X011055Y027762D01*
X011000Y027604D02*
X001005Y027604D01*
X001005Y027445D02*
X011000Y027445D01*
X011006Y027287D02*
X001005Y027287D01*
X001005Y027128D02*
X011165Y027128D01*
X011262Y026970D02*
X001005Y026970D01*
X001005Y026811D02*
X011104Y026811D01*
X011000Y026653D02*
X001005Y026653D01*
X001005Y026494D02*
X011000Y026494D01*
X011000Y026336D02*
X001005Y026336D01*
X001005Y026177D02*
X011116Y026177D01*
X011274Y026019D02*
X001005Y026019D01*
X001005Y025860D02*
X011153Y025860D01*
X011000Y025702D02*
X001005Y025702D01*
X001005Y025543D02*
X011000Y025543D01*
X011000Y025385D02*
X001005Y025385D01*
X001005Y025226D02*
X011067Y025226D01*
X011225Y025068D02*
X001005Y025068D01*
X001005Y024909D02*
X011202Y024909D01*
X011043Y024751D02*
X001005Y024751D01*
X001005Y024592D02*
X011000Y024592D01*
X011000Y024434D02*
X001005Y024434D01*
X001005Y024275D02*
X011018Y024275D01*
X011176Y024117D02*
X001005Y024117D01*
X001005Y023958D02*
X011251Y023958D01*
X011092Y023800D02*
X001005Y023800D01*
X001005Y023641D02*
X011000Y023641D01*
X011000Y023483D02*
X001005Y023483D01*
X001005Y023324D02*
X011000Y023324D01*
X011127Y023166D02*
X001005Y023166D01*
X001005Y023007D02*
X011286Y023007D01*
X011141Y022849D02*
X001005Y022849D01*
X001005Y022690D02*
X011000Y022690D01*
X011000Y022532D02*
X001005Y022532D01*
X001005Y022373D02*
X011000Y022373D01*
X011078Y022215D02*
X001005Y022215D01*
X001005Y022056D02*
X011237Y022056D01*
X011190Y021898D02*
X001005Y021898D01*
X001005Y021739D02*
X011032Y021739D01*
X011000Y021581D02*
X001005Y021581D01*
X001005Y021422D02*
X011000Y021422D01*
X011029Y021264D02*
X001005Y021264D01*
X001005Y021105D02*
X011188Y021105D01*
X011239Y020947D02*
X001005Y020947D01*
X001005Y020788D02*
X011081Y020788D01*
X011000Y020630D02*
X001005Y020630D01*
X001005Y020471D02*
X011000Y020471D01*
X011000Y020313D02*
X001005Y020313D01*
X001005Y020154D02*
X011139Y020154D01*
X011288Y019996D02*
X001005Y019996D01*
X001005Y019837D02*
X011130Y019837D01*
X011000Y019679D02*
X001005Y019679D01*
X001005Y019520D02*
X011000Y019520D01*
X011000Y019362D02*
X001005Y019362D01*
X001005Y019203D02*
X011090Y019203D01*
X011248Y019045D02*
X001005Y019045D01*
X001005Y018886D02*
X011179Y018886D01*
X011020Y018728D02*
X001005Y018728D01*
X001005Y018569D02*
X011000Y018569D01*
X011000Y018411D02*
X001005Y018411D01*
X001005Y018252D02*
X011041Y018252D01*
X011199Y018094D02*
X001005Y018094D01*
X001005Y016984D02*
X011277Y016984D01*
X011293Y017000D02*
X011000Y016707D01*
X011000Y016293D01*
X011293Y016000D01*
X011000Y015707D01*
X011000Y015293D01*
X011293Y015000D01*
X011000Y014707D01*
X011000Y014293D01*
X011293Y014000D01*
X011000Y013707D01*
X011000Y013293D01*
X011293Y013000D01*
X011000Y012707D01*
X011000Y012293D01*
X011293Y012000D01*
X011000Y011707D01*
X011000Y011293D01*
X011293Y011000D01*
X011000Y010707D01*
X011000Y010293D01*
X011293Y010000D01*
X011707Y010000D01*
X012000Y010293D01*
X012000Y010707D01*
X011707Y011000D01*
X011293Y011000D01*
X011707Y011000D01*
X012000Y011293D01*
X012000Y011707D01*
X011707Y012000D01*
X011293Y012000D01*
X011707Y012000D01*
X012000Y012293D01*
X012000Y012707D01*
X011707Y013000D01*
X011293Y013000D01*
X011707Y013000D01*
X012000Y013293D01*
X012000Y013707D01*
X011707Y014000D01*
X011293Y014000D01*
X011707Y014000D01*
X012000Y014293D01*
X012000Y014707D01*
X011707Y015000D01*
X011293Y015000D01*
X011707Y015000D01*
X012000Y015293D01*
X012000Y015707D01*
X011707Y016000D01*
X011293Y016000D01*
X011707Y016000D01*
X012000Y016293D01*
X012000Y016707D01*
X011707Y017000D01*
X011293Y017000D01*
X011118Y016826D02*
X001005Y016826D01*
X001005Y016667D02*
X011000Y016667D01*
X011000Y016509D02*
X001005Y016509D01*
X001005Y016350D02*
X011000Y016350D01*
X011101Y016192D02*
X001005Y016192D01*
X001005Y016033D02*
X011260Y016033D01*
X011167Y015875D02*
X001005Y015875D01*
X001005Y015716D02*
X011009Y015716D01*
X011000Y015558D02*
X001005Y015558D01*
X001005Y015399D02*
X011000Y015399D01*
X011052Y015241D02*
X001005Y015241D01*
X001005Y015082D02*
X011211Y015082D01*
X011216Y014924D02*
X001005Y014924D01*
X001005Y014765D02*
X011058Y014765D01*
X011000Y014607D02*
X001005Y014607D01*
X001005Y014448D02*
X011000Y014448D01*
X011003Y014290D02*
X001005Y014290D01*
X001005Y014131D02*
X011162Y014131D01*
X011265Y013973D02*
X001005Y013973D01*
X001005Y013814D02*
X011107Y013814D01*
X011000Y013656D02*
X001005Y013656D01*
X001005Y013497D02*
X011000Y013497D01*
X011000Y013339D02*
X001005Y013339D01*
X001005Y013180D02*
X011113Y013180D01*
X011271Y013022D02*
X001005Y013022D01*
X001005Y012863D02*
X011156Y012863D01*
X011000Y012705D02*
X001005Y012705D01*
X001005Y012546D02*
X011000Y012546D01*
X011000Y012388D02*
X001005Y012388D01*
X001005Y012229D02*
X011064Y012229D01*
X011222Y012071D02*
X001005Y012071D01*
X001005Y011912D02*
X011205Y011912D01*
X011046Y011754D02*
X001005Y011754D01*
X001005Y011595D02*
X011000Y011595D01*
X011000Y011437D02*
X001005Y011437D01*
X001005Y011278D02*
X011015Y011278D01*
X011173Y011120D02*
X001005Y011120D01*
X001005Y010961D02*
X011254Y010961D01*
X011095Y010803D02*
X001005Y010803D01*
X001005Y010644D02*
X011000Y010644D01*
X011000Y010486D02*
X001005Y010486D01*
X001005Y010327D02*
X011000Y010327D01*
X011124Y010169D02*
X001005Y010169D01*
X001005Y010010D02*
X011283Y010010D01*
X011717Y010010D02*
X013283Y010010D01*
X013293Y010000D02*
X013707Y010000D01*
X014000Y010293D01*
X014000Y010707D01*
X013707Y011000D01*
X013293Y011000D01*
X013000Y010707D01*
X013000Y010293D01*
X013293Y010000D01*
X013124Y010169D02*
X011876Y010169D01*
X012000Y010327D02*
X013000Y010327D01*
X013000Y010486D02*
X012000Y010486D01*
X012000Y010644D02*
X013000Y010644D01*
X013095Y010803D02*
X011905Y010803D01*
X011746Y010961D02*
X013254Y010961D01*
X013293Y011000D02*
X013707Y011000D01*
X014000Y011293D01*
X014000Y011707D01*
X013707Y012000D01*
X013293Y012000D01*
X013000Y011707D01*
X013000Y011293D01*
X013293Y011000D01*
X013173Y011120D02*
X011827Y011120D01*
X011985Y011278D02*
X013015Y011278D01*
X013000Y011437D02*
X012000Y011437D01*
X012000Y011595D02*
X013000Y011595D01*
X013046Y011754D02*
X011954Y011754D01*
X011795Y011912D02*
X013205Y011912D01*
X013293Y012000D02*
X013707Y012000D01*
X014000Y012293D01*
X014000Y012707D01*
X013707Y013000D01*
X013293Y013000D01*
X013000Y012707D01*
X013000Y012293D01*
X013293Y012000D01*
X013222Y012071D02*
X011778Y012071D01*
X011936Y012229D02*
X013064Y012229D01*
X013000Y012388D02*
X012000Y012388D01*
X012000Y012546D02*
X013000Y012546D01*
X013000Y012705D02*
X012000Y012705D01*
X011844Y012863D02*
X013156Y012863D01*
X013293Y013000D02*
X013707Y013000D01*
X014000Y013293D01*
X014000Y013707D01*
X013707Y014000D01*
X013293Y014000D01*
X013000Y013707D01*
X013000Y013293D01*
X013293Y013000D01*
X013271Y013022D02*
X011729Y013022D01*
X011887Y013180D02*
X013113Y013180D01*
X013000Y013339D02*
X012000Y013339D01*
X012000Y013497D02*
X013000Y013497D01*
X013000Y013656D02*
X012000Y013656D01*
X011893Y013814D02*
X013107Y013814D01*
X013265Y013973D02*
X011735Y013973D01*
X011838Y014131D02*
X013162Y014131D01*
X013293Y014000D02*
X013707Y014000D01*
X014000Y014293D01*
X014000Y014707D01*
X013707Y015000D01*
X013293Y015000D01*
X013000Y014707D01*
X013000Y014293D01*
X013293Y014000D01*
X013003Y014290D02*
X011997Y014290D01*
X012000Y014448D02*
X013000Y014448D01*
X013000Y014607D02*
X012000Y014607D01*
X011942Y014765D02*
X013058Y014765D01*
X013216Y014924D02*
X011784Y014924D01*
X011789Y015082D02*
X013211Y015082D01*
X013293Y015000D02*
X013000Y015293D01*
X013000Y015707D01*
X013293Y016000D01*
X013707Y016000D01*
X014000Y015707D01*
X014000Y015293D01*
X013707Y015000D01*
X013293Y015000D01*
X013052Y015241D02*
X011948Y015241D01*
X012000Y015399D02*
X013000Y015399D01*
X013000Y015558D02*
X012000Y015558D01*
X011991Y015716D02*
X013009Y015716D01*
X013167Y015875D02*
X011833Y015875D01*
X011740Y016033D02*
X013260Y016033D01*
X013293Y016000D02*
X013707Y016000D01*
X014000Y016293D01*
X014000Y016707D01*
X013707Y017000D01*
X013293Y017000D01*
X013000Y016707D01*
X013000Y016293D01*
X013293Y016000D01*
X013101Y016192D02*
X011899Y016192D01*
X012000Y016350D02*
X013000Y016350D01*
X013000Y016509D02*
X012000Y016509D01*
X012000Y016667D02*
X013000Y016667D01*
X013118Y016826D02*
X011882Y016826D01*
X011723Y016984D02*
X013277Y016984D01*
X013723Y016984D02*
X023277Y016984D01*
X023118Y016826D02*
X013882Y016826D01*
X014000Y016667D02*
X023000Y016667D01*
X023000Y016509D02*
X014000Y016509D01*
X014000Y016350D02*
X023000Y016350D01*
X023101Y016192D02*
X013899Y016192D01*
X013740Y016033D02*
X023260Y016033D01*
X023167Y015875D02*
X013833Y015875D01*
X013991Y015716D02*
X023009Y015716D01*
X023000Y015558D02*
X014000Y015558D01*
X014000Y015399D02*
X023000Y015399D01*
X023052Y015241D02*
X013948Y015241D01*
X013789Y015082D02*
X023211Y015082D01*
X023216Y014924D02*
X013784Y014924D01*
X013942Y014765D02*
X023058Y014765D01*
X023000Y014607D02*
X014000Y014607D01*
X014000Y014448D02*
X023000Y014448D01*
X023003Y014290D02*
X013997Y014290D01*
X013838Y014131D02*
X023162Y014131D01*
X023265Y013973D02*
X013735Y013973D01*
X013893Y013814D02*
X023107Y013814D01*
X023000Y013656D02*
X014000Y013656D01*
X014000Y013497D02*
X023000Y013497D01*
X023000Y013339D02*
X014000Y013339D01*
X013887Y013180D02*
X023113Y013180D01*
X023271Y013022D02*
X013729Y013022D01*
X013844Y012863D02*
X023156Y012863D01*
X023000Y012705D02*
X014000Y012705D01*
X014000Y012546D02*
X023000Y012546D01*
X023000Y012388D02*
X014000Y012388D01*
X013936Y012229D02*
X023064Y012229D01*
X023222Y012071D02*
X013778Y012071D01*
X013795Y011912D02*
X023205Y011912D01*
X023046Y011754D02*
X013954Y011754D01*
X014000Y011595D02*
X023000Y011595D01*
X023000Y011437D02*
X014000Y011437D01*
X013985Y011278D02*
X023015Y011278D01*
X023173Y011120D02*
X013827Y011120D01*
X013746Y010961D02*
X023254Y010961D01*
X023095Y010803D02*
X013905Y010803D01*
X014000Y010644D02*
X023000Y010644D01*
X023000Y010486D02*
X014000Y010486D01*
X014000Y010327D02*
X023000Y010327D01*
X023124Y010169D02*
X013876Y010169D01*
X013717Y010010D02*
X023283Y010010D01*
X023717Y010010D02*
X025283Y010010D01*
X023884Y009535D02*
X019938Y009535D01*
X019938Y009376D02*
X023663Y009376D01*
X023756Y009469D02*
X023756Y009469D01*
X023504Y009218D02*
X019878Y009218D01*
X019700Y009059D02*
X023387Y009059D01*
X023431Y009144D02*
X023431Y009144D01*
X023307Y008901D02*
X013211Y008901D01*
X013204Y008912D02*
X013012Y009104D01*
X012778Y009240D01*
X012516Y009310D01*
X012244Y009310D01*
X011982Y009240D01*
X011748Y009104D01*
X011556Y008912D01*
X011420Y008678D01*
X011350Y008416D01*
X011350Y008144D01*
X011420Y007882D01*
X011556Y007648D01*
X011748Y007456D01*
X011982Y007320D01*
X012244Y007250D01*
X012516Y007250D01*
X012778Y007320D01*
X013012Y007456D01*
X013204Y007648D01*
X013340Y007882D01*
X013410Y008144D01*
X013410Y008416D01*
X013340Y008678D01*
X013204Y008912D01*
X013303Y008742D02*
X023226Y008742D01*
X023222Y008734D02*
X023222Y008734D01*
X023198Y008584D02*
X013365Y008584D01*
X013407Y008425D02*
X023173Y008425D01*
X023152Y008267D02*
X013410Y008267D01*
X013400Y008108D02*
X023177Y008108D01*
X023202Y007950D02*
X013358Y007950D01*
X013287Y007791D02*
X023240Y007791D01*
X023320Y007633D02*
X013189Y007633D01*
X013031Y007474D02*
X023401Y007474D01*
X023431Y007416D02*
X023431Y007416D01*
X023531Y007316D02*
X012760Y007316D01*
X012000Y007316D02*
X001005Y007316D01*
X001005Y007474D02*
X011729Y007474D01*
X011571Y007633D02*
X001005Y007633D01*
X001005Y007791D02*
X011473Y007791D01*
X011402Y007950D02*
X001005Y007950D01*
X001005Y008108D02*
X011360Y008108D01*
X011350Y008267D02*
X001005Y008267D01*
X001005Y008425D02*
X011353Y008425D01*
X011395Y008584D02*
X001005Y008584D01*
X001005Y008742D02*
X011457Y008742D01*
X011549Y008901D02*
X001005Y008901D01*
X001005Y009059D02*
X011702Y009059D01*
X011944Y009218D02*
X001005Y009218D01*
X001005Y009376D02*
X019062Y009376D01*
X019062Y009535D02*
X001005Y009535D01*
X001005Y009693D02*
X019127Y009693D01*
X019325Y009852D02*
X001005Y009852D01*
X001005Y007157D02*
X023690Y007157D01*
X023756Y007091D02*
X023756Y007091D01*
X023937Y006999D02*
X001005Y006999D01*
X011801Y018094D02*
X013199Y018094D01*
X013041Y018252D02*
X011959Y018252D01*
X012000Y018411D02*
X013000Y018411D01*
X013000Y018569D02*
X012000Y018569D01*
X011980Y018728D02*
X013020Y018728D01*
X013179Y018886D02*
X011821Y018886D01*
X011752Y019045D02*
X013248Y019045D01*
X013090Y019203D02*
X011910Y019203D01*
X012000Y019362D02*
X013000Y019362D01*
X013000Y019520D02*
X012000Y019520D01*
X012000Y019679D02*
X013000Y019679D01*
X013130Y019837D02*
X011870Y019837D01*
X011712Y019996D02*
X013288Y019996D01*
X013139Y020154D02*
X011861Y020154D01*
X012000Y020313D02*
X013000Y020313D01*
X013000Y020471D02*
X012000Y020471D01*
X012000Y020630D02*
X013000Y020630D01*
X013081Y020788D02*
X011919Y020788D01*
X011761Y020947D02*
X013239Y020947D01*
X013188Y021105D02*
X011812Y021105D01*
X011971Y021264D02*
X013029Y021264D01*
X013000Y021422D02*
X012000Y021422D01*
X012000Y021581D02*
X013000Y021581D01*
X013032Y021739D02*
X011968Y021739D01*
X011810Y021898D02*
X013190Y021898D01*
X013237Y022056D02*
X011763Y022056D01*
X011922Y022215D02*
X013078Y022215D01*
X013000Y022373D02*
X012000Y022373D01*
X012000Y022532D02*
X013000Y022532D01*
X013000Y022690D02*
X012000Y022690D01*
X011859Y022849D02*
X013141Y022849D01*
X013286Y023007D02*
X011714Y023007D01*
X011873Y023166D02*
X013127Y023166D01*
X013000Y023324D02*
X012000Y023324D01*
X012000Y023483D02*
X013000Y023483D01*
X013000Y023641D02*
X012000Y023641D01*
X011908Y023800D02*
X013092Y023800D01*
X013251Y023958D02*
X011749Y023958D01*
X011824Y024117D02*
X013176Y024117D01*
X013018Y024275D02*
X011982Y024275D01*
X012000Y024434D02*
X013000Y024434D01*
X013000Y024592D02*
X012000Y024592D01*
X011957Y024751D02*
X013043Y024751D01*
X013202Y024909D02*
X011798Y024909D01*
X011775Y025068D02*
X013225Y025068D01*
X013067Y025226D02*
X011933Y025226D01*
X012000Y025385D02*
X013000Y025385D01*
X013000Y025543D02*
X012000Y025543D01*
X012000Y025702D02*
X013000Y025702D01*
X013153Y025860D02*
X011847Y025860D01*
X011726Y026019D02*
X013274Y026019D01*
X013116Y026177D02*
X011884Y026177D01*
X012000Y026336D02*
X013000Y026336D01*
X013000Y026494D02*
X012000Y026494D01*
X012000Y026653D02*
X013000Y026653D01*
X013104Y026811D02*
X011896Y026811D01*
X011738Y026970D02*
X013262Y026970D01*
X013165Y027128D02*
X011835Y027128D01*
X011994Y027287D02*
X013006Y027287D01*
X013000Y027445D02*
X012000Y027445D01*
X012000Y027604D02*
X013000Y027604D01*
X013055Y027762D02*
X011945Y027762D01*
X011787Y027921D02*
X013213Y027921D01*
X013214Y028079D02*
X011786Y028079D01*
X011945Y028238D02*
X013055Y028238D01*
X013000Y028396D02*
X012000Y028396D01*
X012000Y028555D02*
X013000Y028555D01*
X013006Y028713D02*
X011994Y028713D01*
X011836Y028872D02*
X013164Y028872D01*
X013263Y029030D02*
X011737Y029030D01*
X011896Y029189D02*
X013104Y029189D01*
X013000Y029347D02*
X012000Y029347D01*
X012000Y029506D02*
X013000Y029506D01*
X013000Y029664D02*
X012000Y029664D01*
X011885Y029823D02*
X013115Y029823D01*
X013737Y029030D02*
X023263Y029030D01*
X023164Y028872D02*
X013836Y028872D01*
X013994Y028713D02*
X023006Y028713D01*
X023000Y028555D02*
X014000Y028555D01*
X014000Y028396D02*
X023000Y028396D01*
X023055Y028238D02*
X013945Y028238D01*
X013786Y028079D02*
X023214Y028079D01*
X023213Y027921D02*
X013787Y027921D01*
X013945Y027762D02*
X023055Y027762D01*
X023000Y027604D02*
X014000Y027604D01*
X014000Y027445D02*
X023000Y027445D01*
X023006Y027287D02*
X013994Y027287D01*
X013835Y027128D02*
X023165Y027128D01*
X023262Y026970D02*
X013738Y026970D01*
X013896Y026811D02*
X023104Y026811D01*
X023000Y026653D02*
X014000Y026653D01*
X014000Y026494D02*
X023000Y026494D01*
X023000Y026336D02*
X014000Y026336D01*
X013884Y026177D02*
X023116Y026177D01*
X023274Y026019D02*
X013726Y026019D01*
X013847Y025860D02*
X023153Y025860D01*
X023000Y025702D02*
X014000Y025702D01*
X014000Y025543D02*
X023000Y025543D01*
X023000Y025385D02*
X014000Y025385D01*
X013933Y025226D02*
X023067Y025226D01*
X023225Y025068D02*
X013775Y025068D01*
X013798Y024909D02*
X023202Y024909D01*
X023043Y024751D02*
X013957Y024751D01*
X014000Y024592D02*
X023000Y024592D01*
X023000Y024434D02*
X014000Y024434D01*
X013982Y024275D02*
X023018Y024275D01*
X023176Y024117D02*
X013824Y024117D01*
X013749Y023958D02*
X023251Y023958D01*
X023092Y023800D02*
X013908Y023800D01*
X014000Y023641D02*
X023000Y023641D01*
X023000Y023483D02*
X014000Y023483D01*
X014000Y023324D02*
X023000Y023324D01*
X023127Y023166D02*
X013873Y023166D01*
X013714Y023007D02*
X023286Y023007D01*
X023141Y022849D02*
X013859Y022849D01*
X014000Y022690D02*
X023000Y022690D01*
X023000Y022532D02*
X014000Y022532D01*
X014000Y022373D02*
X023000Y022373D01*
X023078Y022215D02*
X013922Y022215D01*
X013763Y022056D02*
X023237Y022056D01*
X023190Y021898D02*
X013810Y021898D01*
X013968Y021739D02*
X023032Y021739D01*
X023000Y021581D02*
X014000Y021581D01*
X014000Y021422D02*
X023000Y021422D01*
X023029Y021264D02*
X013971Y021264D01*
X013812Y021105D02*
X023188Y021105D01*
X023239Y020947D02*
X013761Y020947D01*
X013919Y020788D02*
X023081Y020788D01*
X023000Y020630D02*
X014000Y020630D01*
X014000Y020471D02*
X023000Y020471D01*
X023000Y020313D02*
X014000Y020313D01*
X013861Y020154D02*
X023139Y020154D01*
X023288Y019996D02*
X013712Y019996D01*
X013870Y019837D02*
X023130Y019837D01*
X023000Y019679D02*
X014000Y019679D01*
X014000Y019520D02*
X023000Y019520D01*
X023000Y019362D02*
X014000Y019362D01*
X013910Y019203D02*
X023090Y019203D01*
X023248Y019045D02*
X013752Y019045D01*
X013821Y018886D02*
X023179Y018886D01*
X023020Y018728D02*
X013980Y018728D01*
X014000Y018569D02*
X023000Y018569D01*
X023000Y018411D02*
X014000Y018411D01*
X013959Y018252D02*
X023041Y018252D01*
X023199Y018094D02*
X013801Y018094D01*
X012816Y009218D02*
X019122Y009218D01*
X019300Y009059D02*
X013058Y009059D01*
X024166Y006882D02*
X024166Y006882D01*
X033421Y028872D02*
X035164Y028872D01*
X035263Y029030D02*
X033438Y029030D01*
X033396Y029189D02*
X035104Y029189D01*
X035000Y029347D02*
X033272Y029347D01*
X035896Y029189D02*
X037104Y029189D01*
X037000Y029347D02*
X036000Y029347D01*
X036000Y029506D02*
X037000Y029506D01*
X037000Y029664D02*
X036000Y029664D01*
X035885Y029823D02*
X037115Y029823D01*
X043756Y044909D02*
X043756Y044909D01*
X045484Y044909D02*
X045484Y044909D01*
X023756Y044909D02*
X023756Y044909D01*
X023756Y044909D01*
X011000Y029347D02*
X009772Y029347D01*
X009896Y029189D02*
X011104Y029189D01*
X011263Y029030D02*
X009938Y029030D01*
X009921Y028872D02*
X011164Y028872D01*
M02*
