G75*
%MOIN*%
%OFA0B0*%
%FSLAX24Y24*%
%IPPOS*%
%LPD*%
%AMOC8*
5,1,8,0,0,1.08239X$1,22.5*
%
%ADD10C,0.0060*%
%ADD11C,0.0000*%
%ADD12C,0.0100*%
%ADD13C,0.0050*%
D10*
X006030Y005980D02*
X006030Y006621D01*
X006244Y006407D01*
X006457Y006621D01*
X006457Y005980D01*
X006675Y006087D02*
X006781Y005980D01*
X006995Y005980D01*
X007102Y006087D01*
X007102Y006514D01*
X006995Y006621D01*
X006781Y006621D01*
X006675Y006514D01*
X006675Y006087D01*
X007319Y005980D02*
X007319Y006621D01*
X007639Y006621D01*
X007746Y006514D01*
X007746Y006087D01*
X007639Y005980D01*
X007319Y005980D01*
X007964Y005980D02*
X008391Y005980D01*
X008177Y005980D02*
X008177Y006621D01*
X007964Y006407D01*
X011030Y006621D02*
X011030Y005980D01*
X011457Y005980D02*
X011457Y006621D01*
X011244Y006407D01*
X011030Y006621D01*
X011675Y006514D02*
X011675Y006087D01*
X011781Y005980D01*
X011995Y005980D01*
X012102Y006087D01*
X012102Y006514D01*
X011995Y006621D01*
X011781Y006621D01*
X011675Y006514D01*
X012319Y006621D02*
X012319Y005980D01*
X012639Y005980D01*
X012746Y006087D01*
X012746Y006514D01*
X012639Y006621D01*
X012319Y006621D01*
X012964Y006300D02*
X012964Y006087D01*
X013070Y005980D01*
X013284Y005980D01*
X013391Y006087D01*
X013391Y006194D01*
X013284Y006300D01*
X012964Y006300D01*
X013177Y006514D01*
X013391Y006621D01*
X017530Y006621D02*
X017530Y005980D01*
X017957Y005980D02*
X017957Y006621D01*
X017744Y006407D01*
X017530Y006621D01*
X018175Y006514D02*
X018175Y006087D01*
X018281Y005980D01*
X018495Y005980D01*
X018602Y006087D01*
X018602Y006514D01*
X018495Y006621D01*
X018281Y006621D01*
X018175Y006514D01*
X018819Y006621D02*
X018819Y005980D01*
X019139Y005980D01*
X019246Y006087D01*
X019246Y006514D01*
X019139Y006621D01*
X018819Y006621D01*
X019464Y006514D02*
X019464Y006407D01*
X019570Y006300D01*
X019784Y006300D01*
X019891Y006194D01*
X019891Y006087D01*
X019784Y005980D01*
X019570Y005980D01*
X019464Y006087D01*
X019464Y006194D01*
X019570Y006300D01*
X019784Y006300D02*
X019891Y006407D01*
X019891Y006514D01*
X019784Y006621D01*
X019570Y006621D01*
X019464Y006514D01*
X020108Y005873D02*
X020535Y005873D01*
X020753Y005980D02*
X020753Y006407D01*
X020966Y006621D01*
X021180Y006407D01*
X021180Y005980D01*
X021397Y006087D02*
X021504Y005980D01*
X021718Y005980D01*
X021824Y006087D01*
X021824Y006621D01*
X022030Y006621D02*
X022030Y005980D01*
X022042Y005980D02*
X022469Y006621D01*
X022457Y006621D02*
X022457Y005980D01*
X022469Y005980D02*
X022042Y006621D01*
X022030Y006621D02*
X022244Y006407D01*
X022457Y006621D01*
X022675Y006514D02*
X022675Y006087D01*
X022781Y005980D01*
X022995Y005980D01*
X023102Y006087D01*
X023102Y006514D01*
X022995Y006621D01*
X022781Y006621D01*
X022675Y006514D01*
X023319Y006621D02*
X023319Y005980D01*
X023639Y005980D01*
X023746Y006087D01*
X023746Y006514D01*
X023639Y006621D01*
X023319Y006621D01*
X023964Y006407D02*
X024177Y006621D01*
X024177Y005980D01*
X023964Y005980D02*
X024391Y005980D01*
X024608Y006087D02*
X025035Y006514D01*
X025035Y006087D01*
X024928Y005980D01*
X024715Y005980D01*
X024608Y006087D01*
X024608Y006514D01*
X024715Y006621D01*
X024928Y006621D01*
X025035Y006514D01*
X025253Y005873D02*
X025680Y005873D01*
X025897Y005980D02*
X025897Y006407D01*
X026111Y006621D01*
X026324Y006407D01*
X026324Y005980D01*
X026542Y006087D02*
X026649Y005980D01*
X026862Y005980D01*
X026969Y006087D01*
X026969Y006621D01*
X027186Y006621D02*
X027613Y005980D01*
X027186Y005980D02*
X027613Y006621D01*
X026542Y006621D02*
X026542Y006087D01*
X026324Y006300D02*
X025897Y006300D01*
X021397Y006087D02*
X021397Y006621D01*
X021180Y006300D02*
X020753Y006300D01*
X016388Y016230D02*
X016602Y016444D01*
X016602Y016871D01*
X016175Y016871D02*
X016175Y016444D01*
X016388Y016230D01*
X015957Y016230D02*
X015957Y016871D01*
X015957Y016550D02*
X015530Y016550D01*
X015530Y016230D02*
X015530Y016871D01*
X014102Y016871D02*
X014102Y016444D01*
X013888Y016230D01*
X013675Y016444D01*
X013675Y016871D01*
X013457Y016871D02*
X013457Y016230D01*
X013457Y016550D02*
X013030Y016550D01*
X013030Y016230D02*
X013030Y016871D01*
X025530Y016871D02*
X025530Y016230D01*
X025530Y016550D02*
X025957Y016550D01*
X026175Y016444D02*
X026388Y016230D01*
X026602Y016444D01*
X026602Y016871D01*
X026175Y016871D02*
X026175Y016444D01*
X025957Y016230D02*
X025957Y016871D01*
X030596Y018387D02*
X030703Y018280D01*
X030917Y018280D01*
X031023Y018387D01*
X031023Y018600D01*
X030810Y018600D01*
X030596Y018387D02*
X030596Y018814D01*
X030703Y018921D01*
X030917Y018921D01*
X031023Y018814D01*
X031241Y018921D02*
X031241Y018280D01*
X031668Y018280D02*
X031241Y018921D01*
X031668Y018921D02*
X031668Y018280D01*
X031885Y018280D02*
X032206Y018280D01*
X032312Y018387D01*
X032312Y018814D01*
X032206Y018921D01*
X031885Y018921D01*
X031885Y018280D01*
X032065Y015777D02*
X032065Y015350D01*
X032065Y015137D02*
X032065Y015030D01*
X031848Y015244D02*
X031848Y015671D01*
X031421Y015671D02*
X031421Y015244D01*
X031634Y015030D01*
X031848Y015244D01*
X031203Y015350D02*
X030776Y015350D01*
X030776Y015030D02*
X030776Y015671D01*
X031203Y015671D02*
X031203Y015030D01*
X035530Y006621D02*
X035744Y006407D01*
X035957Y006621D01*
X035957Y005980D01*
X036175Y006087D02*
X036281Y005980D01*
X036495Y005980D01*
X036602Y006087D01*
X036602Y006514D01*
X036495Y006621D01*
X036281Y006621D01*
X036175Y006514D01*
X036175Y006087D01*
X036819Y005980D02*
X036819Y006621D01*
X037139Y006621D01*
X037246Y006514D01*
X037246Y006087D01*
X037139Y005980D01*
X036819Y005980D01*
X037464Y005980D02*
X037464Y006087D01*
X037891Y006514D01*
X037891Y006621D01*
X037464Y006621D01*
X035530Y006621D02*
X035530Y005980D01*
X047030Y010300D02*
X047457Y010300D01*
X047675Y010407D02*
X047888Y010621D01*
X047888Y009980D01*
X047675Y009980D02*
X048102Y009980D01*
X048319Y010087D02*
X048426Y009980D01*
X048639Y009980D01*
X048746Y010087D01*
X048746Y010300D01*
X048639Y010407D01*
X048533Y010407D01*
X048319Y010300D01*
X048319Y010621D01*
X048746Y010621D01*
X048964Y010621D02*
X048964Y010194D01*
X049177Y009980D01*
X049391Y010194D01*
X049391Y010621D01*
X050530Y010300D02*
X050957Y010300D01*
X051175Y010407D02*
X051388Y010621D01*
X051388Y009980D01*
X051175Y009980D02*
X051602Y009980D01*
X051819Y010087D02*
X051926Y009980D01*
X052139Y009980D01*
X052246Y010087D01*
X052246Y010300D01*
X052139Y010407D01*
X052033Y010407D01*
X051819Y010300D01*
X051819Y010621D01*
X052246Y010621D01*
X052464Y010621D02*
X052464Y010194D01*
X052677Y009980D01*
X052891Y010194D01*
X052891Y010621D01*
X050744Y010514D02*
X050744Y010087D01*
X050756Y015830D02*
X050862Y015937D01*
X050862Y016364D01*
X050756Y016471D01*
X050435Y016471D01*
X050435Y015830D01*
X050756Y015830D01*
X050218Y015830D02*
X050218Y016471D01*
X049791Y016471D02*
X049791Y015830D01*
X049573Y015937D02*
X049573Y016150D01*
X049360Y016150D01*
X049573Y015937D02*
X049467Y015830D01*
X049253Y015830D01*
X049146Y015937D01*
X049146Y016364D01*
X049253Y016471D01*
X049467Y016471D01*
X049573Y016364D01*
X049791Y016471D02*
X050218Y015830D01*
X032500Y043450D02*
X031910Y043450D01*
X031910Y044490D01*
X032210Y044790D01*
X032160Y044850D01*
X032130Y044880D01*
X032110Y044920D01*
X032110Y046150D01*
X031710Y046150D01*
X031700Y046200D01*
X032500Y046200D01*
X029000Y046200D01*
X029000Y046480D01*
X029580Y046480D01*
X029590Y046380D01*
X029630Y046300D01*
X029690Y046240D01*
X029780Y046200D01*
X029910Y046210D01*
X030000Y046260D01*
X030050Y046340D01*
X030130Y046340D01*
X030200Y046370D01*
X030270Y046410D01*
X030340Y046420D01*
X030390Y046380D01*
X030440Y046310D01*
X030480Y046260D01*
X030530Y046210D01*
X030630Y046200D01*
X030710Y046220D01*
X030770Y046340D01*
X030810Y046420D01*
X030860Y046510D01*
X030880Y046550D01*
X030900Y046500D01*
X030920Y046420D01*
X030950Y046360D01*
X031000Y046290D01*
X031050Y046230D01*
X031130Y046190D01*
X031220Y046200D01*
X031290Y046290D01*
X031360Y046390D01*
X031400Y046430D01*
X031430Y046430D01*
X031500Y046400D01*
X031540Y046380D01*
X031620Y046360D01*
X031680Y046350D01*
X031690Y046340D01*
X031730Y046280D01*
X031780Y046240D01*
X031850Y046210D01*
X031910Y046200D01*
X032010Y046220D01*
X032100Y046290D01*
X032140Y046380D01*
X032160Y046490D01*
X032500Y046490D01*
X032500Y046200D01*
X032500Y043450D01*
X032500Y043498D02*
X031910Y043498D01*
X031940Y043498D02*
X031302Y043498D01*
X031300Y043498D02*
X030140Y043498D01*
X030130Y043498D02*
X029810Y043498D01*
X029820Y043498D02*
X029000Y043498D01*
X029000Y043450D02*
X029820Y043450D01*
X029820Y043750D01*
X029520Y044060D01*
X029590Y044150D01*
X029610Y044240D01*
X029630Y044410D01*
X029630Y046150D01*
X029850Y046150D01*
X029850Y046200D01*
X029000Y046200D01*
X029000Y043450D01*
X029000Y043556D02*
X029820Y043556D01*
X029810Y043556D02*
X030130Y043556D01*
X030140Y043556D02*
X031300Y043556D01*
X031304Y043556D02*
X031940Y043556D01*
X031910Y043556D02*
X032500Y043556D01*
X032500Y043615D02*
X031910Y043615D01*
X031940Y043615D02*
X031306Y043615D01*
X031300Y043615D02*
X030140Y043615D01*
X030130Y043615D02*
X029810Y043615D01*
X029820Y043615D02*
X029000Y043615D01*
X029000Y043673D02*
X029820Y043673D01*
X029810Y043673D02*
X030130Y043673D01*
X030140Y043673D02*
X031300Y043673D01*
X031308Y043673D02*
X031940Y043673D01*
X031910Y043673D02*
X032500Y043673D01*
X032500Y043732D02*
X031910Y043732D01*
X031940Y043732D02*
X031310Y043732D01*
X031310Y043740D02*
X031300Y043450D01*
X031940Y043450D01*
X031940Y044490D01*
X031880Y044510D01*
X031790Y044610D01*
X031720Y044700D01*
X031700Y044820D01*
X031700Y046200D01*
X031070Y046200D01*
X031070Y046120D01*
X031060Y046150D01*
X031510Y046150D01*
X031510Y044200D01*
X031520Y044150D01*
X031560Y044090D01*
X031610Y044040D01*
X031310Y043740D01*
X031300Y043732D02*
X030140Y043732D01*
X030130Y043732D02*
X029812Y043732D01*
X029810Y043730D02*
X029910Y043840D01*
X029980Y043940D01*
X030030Y044080D01*
X030050Y044330D01*
X030050Y046150D01*
X029850Y046150D01*
X029850Y046200D01*
X030130Y046200D01*
X030130Y043450D01*
X029810Y043450D01*
X029810Y043730D01*
X029820Y043732D02*
X029000Y043732D01*
X029000Y043790D02*
X029781Y043790D01*
X029725Y043849D02*
X029000Y043849D01*
X029000Y043907D02*
X029668Y043907D01*
X029611Y043966D02*
X029000Y043966D01*
X029000Y044024D02*
X029555Y044024D01*
X029538Y044083D02*
X029000Y044083D01*
X029000Y044141D02*
X029583Y044141D01*
X029601Y044200D02*
X029000Y044200D01*
X029000Y044258D02*
X029612Y044258D01*
X029619Y044317D02*
X029000Y044317D01*
X029000Y044375D02*
X029626Y044375D01*
X029630Y044434D02*
X029000Y044434D01*
X029000Y044492D02*
X029630Y044492D01*
X029630Y044551D02*
X029000Y044551D01*
X029000Y044609D02*
X029630Y044609D01*
X029630Y044668D02*
X029000Y044668D01*
X029000Y044726D02*
X029630Y044726D01*
X029630Y044785D02*
X029000Y044785D01*
X029000Y044843D02*
X029630Y044843D01*
X029630Y044902D02*
X029000Y044902D01*
X029000Y044960D02*
X029630Y044960D01*
X029630Y045019D02*
X029000Y045019D01*
X029000Y045077D02*
X029630Y045077D01*
X029630Y045136D02*
X029000Y045136D01*
X029000Y045194D02*
X029630Y045194D01*
X029630Y045253D02*
X029000Y045253D01*
X029000Y045311D02*
X029630Y045311D01*
X029630Y045370D02*
X029000Y045370D01*
X029000Y045428D02*
X029630Y045428D01*
X029630Y045487D02*
X029000Y045487D01*
X029000Y045545D02*
X029630Y045545D01*
X029630Y045604D02*
X029000Y045604D01*
X029000Y045662D02*
X029630Y045662D01*
X029630Y045721D02*
X029000Y045721D01*
X029000Y045779D02*
X029630Y045779D01*
X029630Y045838D02*
X029000Y045838D01*
X029000Y045896D02*
X029630Y045896D01*
X029630Y045955D02*
X029000Y045955D01*
X029000Y046013D02*
X029630Y046013D01*
X029630Y046072D02*
X029000Y046072D01*
X029000Y046130D02*
X029630Y046130D01*
X029683Y046247D02*
X029000Y046247D01*
X029000Y046189D02*
X029850Y046189D01*
X030130Y046189D01*
X030140Y046189D02*
X031060Y046189D01*
X031070Y046189D02*
X031700Y046189D01*
X031702Y046189D02*
X032500Y046189D01*
X032500Y046247D02*
X032045Y046247D01*
X032107Y046306D02*
X032500Y046306D01*
X032500Y046364D02*
X032133Y046364D01*
X032148Y046423D02*
X032500Y046423D01*
X032500Y046460D02*
X032500Y046950D01*
X029000Y046950D01*
X029000Y046460D01*
X029590Y046440D01*
X029590Y046520D01*
X029650Y046600D01*
X029710Y046660D01*
X029780Y046680D01*
X029860Y046680D01*
X029930Y046670D01*
X029980Y046640D01*
X030020Y046600D01*
X030050Y046550D01*
X030060Y046520D01*
X030100Y046520D01*
X030150Y046540D01*
X030210Y046570D01*
X030260Y046590D01*
X030320Y046610D01*
X030360Y046610D01*
X030410Y046590D01*
X030450Y046560D01*
X030500Y046520D01*
X030540Y046470D01*
X030560Y046430D01*
X030590Y046390D01*
X030630Y046450D01*
X030680Y046550D01*
X030720Y046610D01*
X030760Y046670D01*
X030800Y046720D01*
X030830Y046740D01*
X030880Y046750D01*
X030910Y046740D01*
X030940Y046720D01*
X030980Y046670D01*
X031020Y046610D01*
X031040Y046550D01*
X031060Y046510D01*
X031080Y046460D01*
X031100Y046420D01*
X031120Y046390D01*
X031140Y046370D01*
X031170Y046390D01*
X031210Y046450D01*
X031240Y046500D01*
X031280Y046550D01*
X031330Y046600D01*
X031390Y046610D01*
X031460Y046610D01*
X031520Y046590D01*
X031550Y046570D01*
X031590Y046540D01*
X031630Y046520D01*
X031670Y046520D01*
X031710Y046590D01*
X031770Y046650D01*
X031830Y046680D01*
X031880Y046690D01*
X031940Y046690D01*
X032000Y046670D01*
X032050Y046640D01*
X032090Y046600D01*
X032120Y046560D01*
X032140Y046510D01*
X032150Y046460D01*
X032500Y046460D01*
X032500Y046481D02*
X032146Y046481D01*
X032158Y046481D02*
X032500Y046481D01*
X032500Y046540D02*
X032128Y046540D01*
X032091Y046598D02*
X032500Y046598D01*
X032500Y046657D02*
X032022Y046657D01*
X031783Y046657D02*
X030989Y046657D01*
X031024Y046598D02*
X031328Y046598D01*
X031272Y046540D02*
X031045Y046540D01*
X031072Y046481D02*
X031229Y046481D01*
X031192Y046423D02*
X031099Y046423D01*
X030989Y046306D02*
X030753Y046306D01*
X030782Y046364D02*
X030948Y046364D01*
X030919Y046423D02*
X030811Y046423D01*
X030844Y046481D02*
X030905Y046481D01*
X030884Y046540D02*
X030875Y046540D01*
X030751Y046657D02*
X029952Y046657D01*
X030021Y046598D02*
X030285Y046598D01*
X030390Y046598D02*
X030712Y046598D01*
X030675Y046540D02*
X030475Y046540D01*
X030531Y046481D02*
X030646Y046481D01*
X030612Y046423D02*
X030565Y046423D01*
X030443Y046306D02*
X030029Y046306D01*
X029977Y046247D02*
X030493Y046247D01*
X030401Y046364D02*
X030186Y046364D01*
X030140Y046200D02*
X031060Y046200D01*
X031060Y046080D01*
X030970Y046110D01*
X030850Y046130D01*
X030740Y046120D01*
X030600Y046080D01*
X030500Y046020D01*
X030380Y045930D01*
X030290Y045840D01*
X030220Y045700D01*
X030190Y045560D01*
X030180Y045430D01*
X030220Y045280D01*
X030260Y045160D01*
X030330Y045050D01*
X030450Y044930D01*
X030530Y044870D01*
X030670Y044800D01*
X030820Y044770D01*
X030960Y044790D01*
X031080Y044820D01*
X031090Y044220D01*
X031110Y044060D01*
X031170Y043910D01*
X031300Y043760D01*
X031300Y043450D01*
X030140Y043450D01*
X030140Y046200D01*
X030140Y046130D02*
X031060Y046130D01*
X031067Y046130D02*
X031070Y046130D01*
X031036Y046247D02*
X030724Y046247D01*
X030586Y046072D02*
X030140Y046072D01*
X030130Y046072D02*
X030050Y046072D01*
X030050Y046130D02*
X030130Y046130D01*
X030130Y046013D02*
X030050Y046013D01*
X030050Y045955D02*
X030130Y045955D01*
X030140Y045955D02*
X030413Y045955D01*
X030346Y045896D02*
X030140Y045896D01*
X030130Y045896D02*
X030050Y045896D01*
X030050Y045838D02*
X030130Y045838D01*
X030140Y045838D02*
X030289Y045838D01*
X030260Y045779D02*
X030140Y045779D01*
X030130Y045779D02*
X030050Y045779D01*
X030050Y045721D02*
X030130Y045721D01*
X030140Y045721D02*
X030230Y045721D01*
X030212Y045662D02*
X030140Y045662D01*
X030130Y045662D02*
X030050Y045662D01*
X030050Y045604D02*
X030130Y045604D01*
X030140Y045604D02*
X030199Y045604D01*
X030189Y045545D02*
X030140Y045545D01*
X030130Y045545D02*
X030050Y045545D01*
X030050Y045487D02*
X030130Y045487D01*
X030140Y045487D02*
X030184Y045487D01*
X030180Y045428D02*
X030140Y045428D01*
X030130Y045428D02*
X030050Y045428D01*
X030050Y045370D02*
X030130Y045370D01*
X030140Y045370D02*
X030196Y045370D01*
X030212Y045311D02*
X030140Y045311D01*
X030130Y045311D02*
X030050Y045311D01*
X030050Y045253D02*
X030130Y045253D01*
X030140Y045253D02*
X030229Y045253D01*
X030249Y045194D02*
X030140Y045194D01*
X030130Y045194D02*
X030050Y045194D01*
X030050Y045136D02*
X030130Y045136D01*
X030140Y045136D02*
X030275Y045136D01*
X030313Y045077D02*
X030140Y045077D01*
X030130Y045077D02*
X030050Y045077D01*
X030050Y045019D02*
X030130Y045019D01*
X030140Y045019D02*
X030361Y045019D01*
X030420Y044960D02*
X030140Y044960D01*
X030130Y044960D02*
X030050Y044960D01*
X030050Y044902D02*
X030130Y044902D01*
X030140Y044902D02*
X030488Y044902D01*
X030584Y044843D02*
X030140Y044843D01*
X030130Y044843D02*
X030050Y044843D01*
X030050Y044785D02*
X030130Y044785D01*
X030140Y044785D02*
X030747Y044785D01*
X030923Y044785D02*
X031081Y044785D01*
X031082Y044726D02*
X030140Y044726D01*
X030130Y044726D02*
X030050Y044726D01*
X030050Y044668D02*
X030130Y044668D01*
X030140Y044668D02*
X031083Y044668D01*
X031084Y044609D02*
X030140Y044609D01*
X030130Y044609D02*
X030050Y044609D01*
X030050Y044551D02*
X030130Y044551D01*
X030140Y044551D02*
X031084Y044551D01*
X031085Y044492D02*
X030140Y044492D01*
X030130Y044492D02*
X030050Y044492D01*
X030050Y044434D02*
X030130Y044434D01*
X030140Y044434D02*
X031086Y044434D01*
X031087Y044375D02*
X030140Y044375D01*
X030130Y044375D02*
X030050Y044375D01*
X030049Y044317D02*
X030130Y044317D01*
X030140Y044317D02*
X031088Y044317D01*
X031089Y044258D02*
X030140Y044258D01*
X030130Y044258D02*
X030044Y044258D01*
X030040Y044200D02*
X030130Y044200D01*
X030140Y044200D02*
X031093Y044200D01*
X031100Y044141D02*
X030140Y044141D01*
X030130Y044141D02*
X030035Y044141D01*
X030030Y044083D02*
X030130Y044083D01*
X030140Y044083D02*
X031107Y044083D01*
X031124Y044024D02*
X030140Y044024D01*
X030130Y044024D02*
X030010Y044024D01*
X029989Y043966D02*
X030130Y043966D01*
X030140Y043966D02*
X031148Y043966D01*
X031172Y043907D02*
X030140Y043907D01*
X030130Y043907D02*
X029957Y043907D01*
X029916Y043849D02*
X030130Y043849D01*
X030140Y043849D02*
X031223Y043849D01*
X031274Y043790D02*
X030140Y043790D01*
X030130Y043790D02*
X029865Y043790D01*
X031360Y043790D02*
X031940Y043790D01*
X031910Y043790D02*
X032500Y043790D01*
X032500Y043849D02*
X031910Y043849D01*
X031940Y043849D02*
X031419Y043849D01*
X031477Y043907D02*
X031940Y043907D01*
X031910Y043907D02*
X032500Y043907D01*
X032500Y043966D02*
X031910Y043966D01*
X031940Y043966D02*
X031536Y043966D01*
X031594Y044024D02*
X031940Y044024D01*
X031910Y044024D02*
X032500Y044024D01*
X032500Y044083D02*
X031910Y044083D01*
X031940Y044083D02*
X031567Y044083D01*
X031526Y044141D02*
X031940Y044141D01*
X031910Y044141D02*
X032500Y044141D01*
X032500Y044200D02*
X031910Y044200D01*
X031940Y044200D02*
X031510Y044200D01*
X031510Y044258D02*
X031940Y044258D01*
X031910Y044258D02*
X032500Y044258D01*
X032500Y044317D02*
X031910Y044317D01*
X031940Y044317D02*
X031510Y044317D01*
X031510Y044375D02*
X031940Y044375D01*
X031910Y044375D02*
X032500Y044375D01*
X032500Y044434D02*
X031910Y044434D01*
X031940Y044434D02*
X031510Y044434D01*
X031510Y044492D02*
X031933Y044492D01*
X031912Y044492D02*
X032500Y044492D01*
X032500Y044551D02*
X031971Y044551D01*
X032029Y044609D02*
X032500Y044609D01*
X032500Y044668D02*
X032088Y044668D01*
X032146Y044726D02*
X032500Y044726D01*
X032500Y044785D02*
X032205Y044785D01*
X032166Y044843D02*
X032500Y044843D01*
X032500Y044902D02*
X032119Y044902D01*
X032110Y044960D02*
X032500Y044960D01*
X032500Y045019D02*
X032110Y045019D01*
X032110Y045077D02*
X032500Y045077D01*
X032500Y045136D02*
X032110Y045136D01*
X032110Y045194D02*
X032500Y045194D01*
X032500Y045253D02*
X032110Y045253D01*
X032110Y045311D02*
X032500Y045311D01*
X032500Y045370D02*
X032110Y045370D01*
X032110Y045428D02*
X032500Y045428D01*
X032500Y045487D02*
X032110Y045487D01*
X032110Y045545D02*
X032500Y045545D01*
X032500Y045604D02*
X032110Y045604D01*
X032110Y045662D02*
X032500Y045662D01*
X032500Y045721D02*
X032110Y045721D01*
X032110Y045779D02*
X032500Y045779D01*
X032500Y045838D02*
X032110Y045838D01*
X032110Y045896D02*
X032500Y045896D01*
X032500Y045955D02*
X032110Y045955D01*
X032110Y046013D02*
X032500Y046013D01*
X032500Y046072D02*
X032110Y046072D01*
X032110Y046130D02*
X032500Y046130D01*
X032500Y046715D02*
X030944Y046715D01*
X030796Y046715D02*
X029000Y046715D01*
X029000Y046657D02*
X029707Y046657D01*
X029649Y046598D02*
X029000Y046598D01*
X029000Y046540D02*
X029605Y046540D01*
X029590Y046481D02*
X029000Y046481D01*
X029000Y046423D02*
X029586Y046423D01*
X029598Y046364D02*
X029000Y046364D01*
X029000Y046306D02*
X029627Y046306D01*
X030053Y046540D02*
X030149Y046540D01*
X030140Y046013D02*
X030491Y046013D01*
X030778Y045450D02*
X030780Y045459D01*
X030785Y045466D01*
X030793Y045471D01*
X030802Y045472D01*
X030811Y045469D01*
X030818Y045463D01*
X030822Y045455D01*
X030822Y045445D01*
X030818Y045437D01*
X030811Y045431D01*
X030802Y045428D01*
X030793Y045429D01*
X030785Y045434D01*
X030780Y045441D01*
X030778Y045450D01*
X030756Y045450D02*
X030758Y045464D01*
X030763Y045477D01*
X030772Y045488D01*
X030783Y045497D01*
X030796Y045502D01*
X030810Y045504D01*
X030824Y045502D01*
X030837Y045497D01*
X030848Y045488D01*
X030857Y045477D01*
X030862Y045464D01*
X030864Y045450D01*
X030862Y045436D01*
X030857Y045423D01*
X030848Y045412D01*
X030837Y045403D01*
X030824Y045398D01*
X030810Y045396D01*
X030796Y045398D01*
X030783Y045403D01*
X030772Y045412D01*
X030763Y045423D01*
X030758Y045436D01*
X030756Y045450D01*
X030601Y045450D02*
X030603Y045478D01*
X030609Y045506D01*
X030618Y045533D01*
X030631Y045559D01*
X030648Y045582D01*
X030667Y045603D01*
X030689Y045621D01*
X030714Y045636D01*
X030740Y045647D01*
X030767Y045655D01*
X030796Y045659D01*
X030824Y045659D01*
X030853Y045655D01*
X030880Y045647D01*
X030906Y045636D01*
X030931Y045621D01*
X030953Y045603D01*
X030972Y045582D01*
X030989Y045559D01*
X031002Y045533D01*
X031011Y045506D01*
X031017Y045478D01*
X031019Y045450D01*
X031017Y045422D01*
X031011Y045394D01*
X031002Y045367D01*
X030989Y045341D01*
X030972Y045318D01*
X030953Y045297D01*
X030931Y045279D01*
X030906Y045264D01*
X030880Y045253D01*
X030853Y045245D01*
X030824Y045241D01*
X030796Y045241D01*
X030767Y045245D01*
X030740Y045253D01*
X030714Y045264D01*
X030689Y045279D01*
X030667Y045297D01*
X030648Y045318D01*
X030631Y045341D01*
X030618Y045367D01*
X030609Y045394D01*
X030603Y045422D01*
X030601Y045450D01*
X030551Y045440D02*
X030553Y045472D01*
X030559Y045503D01*
X030568Y045534D01*
X030582Y045563D01*
X030599Y045590D01*
X030619Y045614D01*
X030641Y045637D01*
X030667Y045656D01*
X030695Y045672D01*
X030724Y045684D01*
X030755Y045693D01*
X030786Y045698D01*
X030818Y045699D01*
X030850Y045696D01*
X030881Y045689D01*
X030911Y045679D01*
X030939Y045664D01*
X030966Y045647D01*
X030990Y045626D01*
X031012Y045602D01*
X031030Y045576D01*
X031045Y045548D01*
X031057Y045519D01*
X031065Y045488D01*
X031069Y045456D01*
X031069Y045424D01*
X031065Y045392D01*
X031057Y045361D01*
X031045Y045332D01*
X031030Y045304D01*
X031012Y045278D01*
X030990Y045254D01*
X030966Y045233D01*
X030940Y045216D01*
X030911Y045201D01*
X030881Y045191D01*
X030850Y045184D01*
X030818Y045181D01*
X030786Y045182D01*
X030755Y045187D01*
X030724Y045196D01*
X030695Y045208D01*
X030667Y045224D01*
X030641Y045243D01*
X030619Y045266D01*
X030599Y045290D01*
X030582Y045317D01*
X030568Y045346D01*
X030559Y045377D01*
X030553Y045408D01*
X030551Y045440D01*
X030718Y045450D02*
X030720Y045470D01*
X030726Y045489D01*
X030735Y045507D01*
X030748Y045522D01*
X030763Y045535D01*
X030781Y045544D01*
X030800Y045550D01*
X030820Y045552D01*
X030840Y045550D01*
X030859Y045544D01*
X030877Y045535D01*
X030892Y045522D01*
X030905Y045507D01*
X030914Y045489D01*
X030920Y045470D01*
X030922Y045450D01*
X030920Y045430D01*
X030914Y045411D01*
X030905Y045393D01*
X030892Y045378D01*
X030877Y045365D01*
X030859Y045356D01*
X030840Y045350D01*
X030820Y045348D01*
X030800Y045350D01*
X030781Y045356D01*
X030763Y045365D01*
X030748Y045378D01*
X030735Y045393D01*
X030726Y045411D01*
X030720Y045430D01*
X030718Y045450D01*
X030662Y045450D02*
X030664Y045475D01*
X030670Y045499D01*
X030679Y045522D01*
X030692Y045543D01*
X030708Y045562D01*
X030727Y045578D01*
X030748Y045591D01*
X030771Y045600D01*
X030795Y045606D01*
X030820Y045608D01*
X030845Y045606D01*
X030869Y045600D01*
X030892Y045591D01*
X030913Y045578D01*
X030932Y045562D01*
X030948Y045543D01*
X030961Y045522D01*
X030970Y045499D01*
X030976Y045475D01*
X030978Y045450D01*
X030976Y045425D01*
X030970Y045401D01*
X030961Y045378D01*
X030948Y045357D01*
X030932Y045338D01*
X030913Y045322D01*
X030892Y045309D01*
X030869Y045300D01*
X030845Y045294D01*
X030820Y045292D01*
X030795Y045294D01*
X030771Y045300D01*
X030748Y045309D01*
X030727Y045322D01*
X030708Y045338D01*
X030692Y045357D01*
X030679Y045378D01*
X030670Y045401D01*
X030664Y045425D01*
X030662Y045450D01*
X031510Y045428D02*
X031700Y045428D01*
X031700Y045370D02*
X031510Y045370D01*
X031510Y045311D02*
X031700Y045311D01*
X031700Y045253D02*
X031510Y045253D01*
X031510Y045194D02*
X031700Y045194D01*
X031700Y045136D02*
X031510Y045136D01*
X031510Y045077D02*
X031700Y045077D01*
X031700Y045019D02*
X031510Y045019D01*
X031510Y044960D02*
X031700Y044960D01*
X031700Y044902D02*
X031510Y044902D01*
X031510Y044843D02*
X031700Y044843D01*
X031706Y044785D02*
X031510Y044785D01*
X031510Y044726D02*
X031716Y044726D01*
X031745Y044668D02*
X031510Y044668D01*
X031510Y044609D02*
X031791Y044609D01*
X031843Y044551D02*
X031510Y044551D01*
X031510Y045487D02*
X031700Y045487D01*
X031700Y045545D02*
X031510Y045545D01*
X031510Y045604D02*
X031700Y045604D01*
X031700Y045662D02*
X031510Y045662D01*
X031510Y045721D02*
X031700Y045721D01*
X031700Y045779D02*
X031510Y045779D01*
X031510Y045838D02*
X031700Y045838D01*
X031700Y045896D02*
X031510Y045896D01*
X031510Y045955D02*
X031700Y045955D01*
X031700Y046013D02*
X031510Y046013D01*
X031510Y046072D02*
X031700Y046072D01*
X031700Y046130D02*
X031510Y046130D01*
X031603Y046364D02*
X031342Y046364D01*
X031301Y046306D02*
X031713Y046306D01*
X031771Y046247D02*
X031257Y046247D01*
X031393Y046423D02*
X031447Y046423D01*
X031495Y046598D02*
X031718Y046598D01*
X031681Y046540D02*
X031591Y046540D01*
X032500Y046774D02*
X029000Y046774D01*
X029000Y046832D02*
X032500Y046832D01*
X032500Y046891D02*
X029000Y046891D01*
X029000Y046949D02*
X032500Y046949D01*
X028877Y046800D02*
X028877Y046694D01*
X028450Y046694D01*
X028450Y046800D02*
X028557Y046907D01*
X028770Y046907D01*
X028877Y046800D01*
X028770Y046480D02*
X028557Y046480D01*
X028450Y046587D01*
X028450Y046800D01*
X028233Y046800D02*
X028233Y046480D01*
X028233Y046800D02*
X028126Y046907D01*
X027806Y046907D01*
X027806Y046480D01*
X027588Y046480D02*
X027268Y046480D01*
X027161Y046587D01*
X027268Y046694D01*
X027588Y046694D01*
X027588Y046800D02*
X027588Y046480D01*
X027588Y046800D02*
X027481Y046907D01*
X027268Y046907D01*
X026838Y047121D02*
X026731Y047121D01*
X026838Y047121D02*
X026838Y046480D01*
X026731Y046480D02*
X026945Y046480D01*
X026514Y046587D02*
X026407Y046480D01*
X026087Y046480D01*
X026087Y046266D02*
X026087Y046907D01*
X026407Y046907D01*
X026514Y046800D01*
X026514Y046587D01*
X025870Y046480D02*
X025550Y046694D01*
X025870Y046907D01*
X025550Y047121D02*
X025550Y046480D01*
X025332Y046480D02*
X025012Y046480D01*
X024905Y046587D01*
X024905Y046800D01*
X025012Y046907D01*
X025332Y046907D01*
X024688Y046800D02*
X024688Y046480D01*
X024367Y046480D01*
X024261Y046587D01*
X024367Y046694D01*
X024688Y046694D01*
X024688Y046800D02*
X024581Y046907D01*
X024367Y046907D01*
X024043Y046907D02*
X023936Y046800D01*
X023616Y046800D01*
X023616Y046480D02*
X023936Y046480D01*
X024043Y046587D01*
X024043Y046694D01*
X023936Y046800D01*
X024043Y046907D02*
X024043Y047014D01*
X023936Y047121D01*
X023616Y047121D01*
X023616Y046480D01*
X022754Y046480D02*
X022754Y047121D01*
X022754Y046907D02*
X022434Y046907D01*
X022327Y046800D01*
X022327Y046587D01*
X022434Y046480D01*
X022754Y046480D01*
X022110Y046907D02*
X022003Y046907D01*
X021790Y046694D01*
X021790Y046907D02*
X021790Y046480D01*
X021572Y046480D02*
X021252Y046480D01*
X021145Y046587D01*
X021252Y046694D01*
X021572Y046694D01*
X021572Y046800D02*
X021572Y046480D01*
X021572Y046800D02*
X021466Y046907D01*
X021252Y046907D01*
X020928Y046907D02*
X020608Y046907D01*
X020501Y046800D01*
X020501Y046587D01*
X020608Y046480D01*
X020928Y046480D01*
X020568Y046014D02*
X020141Y045587D01*
X020248Y045480D01*
X020462Y045480D01*
X020568Y045587D01*
X020568Y046014D01*
X020462Y046121D01*
X020248Y046121D01*
X020141Y046014D01*
X020141Y045587D01*
X019926Y045587D02*
X019926Y045480D01*
X019819Y045480D01*
X019819Y045587D01*
X019926Y045587D01*
X019602Y045480D02*
X019175Y045480D01*
X019602Y045907D01*
X019602Y046014D01*
X019495Y046121D01*
X019281Y046121D01*
X019175Y046014D01*
X018957Y045907D02*
X018744Y045480D01*
X018530Y045907D01*
X018457Y046480D02*
X018030Y046480D01*
X018030Y047121D01*
X018457Y047121D01*
X018675Y046907D02*
X018675Y046587D01*
X018781Y046480D01*
X019102Y046480D01*
X019102Y046907D01*
X019319Y046907D02*
X019319Y046480D01*
X019319Y046694D02*
X019533Y046907D01*
X019639Y046907D01*
X019856Y046800D02*
X019856Y046587D01*
X019963Y046480D01*
X020176Y046480D01*
X020283Y046587D01*
X020283Y046800D01*
X020176Y046907D01*
X019963Y046907D01*
X019856Y046800D01*
X018244Y046800D02*
X018030Y046800D01*
D11*
X015890Y050150D02*
X015892Y050199D01*
X015898Y050248D01*
X015908Y050296D01*
X015921Y050343D01*
X015939Y050389D01*
X015960Y050433D01*
X015984Y050476D01*
X016012Y050516D01*
X016043Y050555D01*
X016077Y050590D01*
X016114Y050623D01*
X016153Y050652D01*
X016195Y050678D01*
X016238Y050701D01*
X016284Y050720D01*
X016330Y050736D01*
X016378Y050748D01*
X016426Y050756D01*
X016475Y050760D01*
X016525Y050760D01*
X016574Y050756D01*
X016622Y050748D01*
X016670Y050736D01*
X016716Y050720D01*
X016762Y050701D01*
X016805Y050678D01*
X016847Y050652D01*
X016886Y050623D01*
X016923Y050590D01*
X016957Y050555D01*
X016988Y050516D01*
X017016Y050476D01*
X017040Y050433D01*
X017061Y050389D01*
X017079Y050343D01*
X017092Y050296D01*
X017102Y050248D01*
X017108Y050199D01*
X017110Y050150D01*
X017108Y050101D01*
X017102Y050052D01*
X017092Y050004D01*
X017079Y049957D01*
X017061Y049911D01*
X017040Y049867D01*
X017016Y049824D01*
X016988Y049784D01*
X016957Y049745D01*
X016923Y049710D01*
X016886Y049677D01*
X016847Y049648D01*
X016805Y049622D01*
X016762Y049599D01*
X016716Y049580D01*
X016670Y049564D01*
X016622Y049552D01*
X016574Y049544D01*
X016525Y049540D01*
X016475Y049540D01*
X016426Y049544D01*
X016378Y049552D01*
X016330Y049564D01*
X016284Y049580D01*
X016238Y049599D01*
X016195Y049622D01*
X016153Y049648D01*
X016114Y049677D01*
X016077Y049710D01*
X016043Y049745D01*
X016012Y049784D01*
X015984Y049824D01*
X015960Y049867D01*
X015939Y049911D01*
X015921Y049957D01*
X015908Y050004D01*
X015898Y050052D01*
X015892Y050101D01*
X015890Y050150D01*
X011830Y043720D02*
X011832Y043767D01*
X011838Y043813D01*
X011848Y043859D01*
X011861Y043903D01*
X011879Y043947D01*
X011900Y043988D01*
X011924Y044028D01*
X011952Y044066D01*
X011983Y044101D01*
X012017Y044133D01*
X012053Y044162D01*
X012092Y044188D01*
X012132Y044211D01*
X012175Y044230D01*
X012219Y044246D01*
X012264Y044258D01*
X012310Y044266D01*
X012357Y044270D01*
X012403Y044270D01*
X012450Y044266D01*
X012496Y044258D01*
X012541Y044246D01*
X012585Y044230D01*
X012628Y044211D01*
X012668Y044188D01*
X012707Y044162D01*
X012743Y044133D01*
X012777Y044101D01*
X012808Y044066D01*
X012836Y044028D01*
X012860Y043988D01*
X012881Y043947D01*
X012899Y043903D01*
X012912Y043859D01*
X012922Y043813D01*
X012928Y043767D01*
X012930Y043720D01*
X012928Y043673D01*
X012922Y043627D01*
X012912Y043581D01*
X012899Y043537D01*
X012881Y043493D01*
X012860Y043452D01*
X012836Y043412D01*
X012808Y043374D01*
X012777Y043339D01*
X012743Y043307D01*
X012707Y043278D01*
X012668Y043252D01*
X012628Y043229D01*
X012585Y043210D01*
X012541Y043194D01*
X012496Y043182D01*
X012450Y043174D01*
X012403Y043170D01*
X012357Y043170D01*
X012310Y043174D01*
X012264Y043182D01*
X012219Y043194D01*
X012175Y043210D01*
X012132Y043229D01*
X012092Y043252D01*
X012053Y043278D01*
X012017Y043307D01*
X011983Y043339D01*
X011952Y043374D01*
X011924Y043412D01*
X011900Y043452D01*
X011879Y043493D01*
X011861Y043537D01*
X011848Y043581D01*
X011838Y043627D01*
X011832Y043673D01*
X011830Y043720D01*
X024070Y043720D02*
X024072Y043767D01*
X024078Y043813D01*
X024088Y043859D01*
X024101Y043903D01*
X024119Y043947D01*
X024140Y043988D01*
X024164Y044028D01*
X024192Y044066D01*
X024223Y044101D01*
X024257Y044133D01*
X024293Y044162D01*
X024332Y044188D01*
X024372Y044211D01*
X024415Y044230D01*
X024459Y044246D01*
X024504Y044258D01*
X024550Y044266D01*
X024597Y044270D01*
X024643Y044270D01*
X024690Y044266D01*
X024736Y044258D01*
X024781Y044246D01*
X024825Y044230D01*
X024868Y044211D01*
X024908Y044188D01*
X024947Y044162D01*
X024983Y044133D01*
X025017Y044101D01*
X025048Y044066D01*
X025076Y044028D01*
X025100Y043988D01*
X025121Y043947D01*
X025139Y043903D01*
X025152Y043859D01*
X025162Y043813D01*
X025168Y043767D01*
X025170Y043720D01*
X025168Y043673D01*
X025162Y043627D01*
X025152Y043581D01*
X025139Y043537D01*
X025121Y043493D01*
X025100Y043452D01*
X025076Y043412D01*
X025048Y043374D01*
X025017Y043339D01*
X024983Y043307D01*
X024947Y043278D01*
X024908Y043252D01*
X024868Y043229D01*
X024825Y043210D01*
X024781Y043194D01*
X024736Y043182D01*
X024690Y043174D01*
X024643Y043170D01*
X024597Y043170D01*
X024550Y043174D01*
X024504Y043182D01*
X024459Y043194D01*
X024415Y043210D01*
X024372Y043229D01*
X024332Y043252D01*
X024293Y043278D01*
X024257Y043307D01*
X024223Y043339D01*
X024192Y043374D01*
X024164Y043412D01*
X024140Y043452D01*
X024119Y043493D01*
X024101Y043537D01*
X024088Y043581D01*
X024078Y043627D01*
X024072Y043673D01*
X024070Y043720D01*
X035830Y043720D02*
X035832Y043767D01*
X035838Y043813D01*
X035848Y043859D01*
X035861Y043903D01*
X035879Y043947D01*
X035900Y043988D01*
X035924Y044028D01*
X035952Y044066D01*
X035983Y044101D01*
X036017Y044133D01*
X036053Y044162D01*
X036092Y044188D01*
X036132Y044211D01*
X036175Y044230D01*
X036219Y044246D01*
X036264Y044258D01*
X036310Y044266D01*
X036357Y044270D01*
X036403Y044270D01*
X036450Y044266D01*
X036496Y044258D01*
X036541Y044246D01*
X036585Y044230D01*
X036628Y044211D01*
X036668Y044188D01*
X036707Y044162D01*
X036743Y044133D01*
X036777Y044101D01*
X036808Y044066D01*
X036836Y044028D01*
X036860Y043988D01*
X036881Y043947D01*
X036899Y043903D01*
X036912Y043859D01*
X036922Y043813D01*
X036928Y043767D01*
X036930Y043720D01*
X036928Y043673D01*
X036922Y043627D01*
X036912Y043581D01*
X036899Y043537D01*
X036881Y043493D01*
X036860Y043452D01*
X036836Y043412D01*
X036808Y043374D01*
X036777Y043339D01*
X036743Y043307D01*
X036707Y043278D01*
X036668Y043252D01*
X036628Y043229D01*
X036585Y043210D01*
X036541Y043194D01*
X036496Y043182D01*
X036450Y043174D01*
X036403Y043170D01*
X036357Y043170D01*
X036310Y043174D01*
X036264Y043182D01*
X036219Y043194D01*
X036175Y043210D01*
X036132Y043229D01*
X036092Y043252D01*
X036053Y043278D01*
X036017Y043307D01*
X035983Y043339D01*
X035952Y043374D01*
X035924Y043412D01*
X035900Y043452D01*
X035879Y043493D01*
X035861Y043537D01*
X035848Y043581D01*
X035838Y043627D01*
X035832Y043673D01*
X035830Y043720D01*
X043890Y050150D02*
X043892Y050199D01*
X043898Y050248D01*
X043908Y050296D01*
X043921Y050343D01*
X043939Y050389D01*
X043960Y050433D01*
X043984Y050476D01*
X044012Y050516D01*
X044043Y050555D01*
X044077Y050590D01*
X044114Y050623D01*
X044153Y050652D01*
X044195Y050678D01*
X044238Y050701D01*
X044284Y050720D01*
X044330Y050736D01*
X044378Y050748D01*
X044426Y050756D01*
X044475Y050760D01*
X044525Y050760D01*
X044574Y050756D01*
X044622Y050748D01*
X044670Y050736D01*
X044716Y050720D01*
X044762Y050701D01*
X044805Y050678D01*
X044847Y050652D01*
X044886Y050623D01*
X044923Y050590D01*
X044957Y050555D01*
X044988Y050516D01*
X045016Y050476D01*
X045040Y050433D01*
X045061Y050389D01*
X045079Y050343D01*
X045092Y050296D01*
X045102Y050248D01*
X045108Y050199D01*
X045110Y050150D01*
X045108Y050101D01*
X045102Y050052D01*
X045092Y050004D01*
X045079Y049957D01*
X045061Y049911D01*
X045040Y049867D01*
X045016Y049824D01*
X044988Y049784D01*
X044957Y049745D01*
X044923Y049710D01*
X044886Y049677D01*
X044847Y049648D01*
X044805Y049622D01*
X044762Y049599D01*
X044716Y049580D01*
X044670Y049564D01*
X044622Y049552D01*
X044574Y049544D01*
X044525Y049540D01*
X044475Y049540D01*
X044426Y049544D01*
X044378Y049552D01*
X044330Y049564D01*
X044284Y049580D01*
X044238Y049599D01*
X044195Y049622D01*
X044153Y049648D01*
X044114Y049677D01*
X044077Y049710D01*
X044043Y049745D01*
X044012Y049784D01*
X043984Y049824D01*
X043960Y049867D01*
X043939Y049911D01*
X043921Y049957D01*
X043908Y050004D01*
X043898Y050052D01*
X043892Y050101D01*
X043890Y050150D01*
X044070Y043720D02*
X044072Y043767D01*
X044078Y043813D01*
X044088Y043859D01*
X044101Y043903D01*
X044119Y043947D01*
X044140Y043988D01*
X044164Y044028D01*
X044192Y044066D01*
X044223Y044101D01*
X044257Y044133D01*
X044293Y044162D01*
X044332Y044188D01*
X044372Y044211D01*
X044415Y044230D01*
X044459Y044246D01*
X044504Y044258D01*
X044550Y044266D01*
X044597Y044270D01*
X044643Y044270D01*
X044690Y044266D01*
X044736Y044258D01*
X044781Y044246D01*
X044825Y044230D01*
X044868Y044211D01*
X044908Y044188D01*
X044947Y044162D01*
X044983Y044133D01*
X045017Y044101D01*
X045048Y044066D01*
X045076Y044028D01*
X045100Y043988D01*
X045121Y043947D01*
X045139Y043903D01*
X045152Y043859D01*
X045162Y043813D01*
X045168Y043767D01*
X045170Y043720D01*
X045168Y043673D01*
X045162Y043627D01*
X045152Y043581D01*
X045139Y043537D01*
X045121Y043493D01*
X045100Y043452D01*
X045076Y043412D01*
X045048Y043374D01*
X045017Y043339D01*
X044983Y043307D01*
X044947Y043278D01*
X044908Y043252D01*
X044868Y043229D01*
X044825Y043210D01*
X044781Y043194D01*
X044736Y043182D01*
X044690Y043174D01*
X044643Y043170D01*
X044597Y043170D01*
X044550Y043174D01*
X044504Y043182D01*
X044459Y043194D01*
X044415Y043210D01*
X044372Y043229D01*
X044332Y043252D01*
X044293Y043278D01*
X044257Y043307D01*
X044223Y043339D01*
X044192Y043374D01*
X044164Y043412D01*
X044140Y043452D01*
X044119Y043493D01*
X044101Y043537D01*
X044088Y043581D01*
X044078Y043627D01*
X044072Y043673D01*
X044070Y043720D01*
X049890Y050150D02*
X049892Y050199D01*
X049898Y050248D01*
X049908Y050296D01*
X049921Y050343D01*
X049939Y050389D01*
X049960Y050433D01*
X049984Y050476D01*
X050012Y050516D01*
X050043Y050555D01*
X050077Y050590D01*
X050114Y050623D01*
X050153Y050652D01*
X050195Y050678D01*
X050238Y050701D01*
X050284Y050720D01*
X050330Y050736D01*
X050378Y050748D01*
X050426Y050756D01*
X050475Y050760D01*
X050525Y050760D01*
X050574Y050756D01*
X050622Y050748D01*
X050670Y050736D01*
X050716Y050720D01*
X050762Y050701D01*
X050805Y050678D01*
X050847Y050652D01*
X050886Y050623D01*
X050923Y050590D01*
X050957Y050555D01*
X050988Y050516D01*
X051016Y050476D01*
X051040Y050433D01*
X051061Y050389D01*
X051079Y050343D01*
X051092Y050296D01*
X051102Y050248D01*
X051108Y050199D01*
X051110Y050150D01*
X051108Y050101D01*
X051102Y050052D01*
X051092Y050004D01*
X051079Y049957D01*
X051061Y049911D01*
X051040Y049867D01*
X051016Y049824D01*
X050988Y049784D01*
X050957Y049745D01*
X050923Y049710D01*
X050886Y049677D01*
X050847Y049648D01*
X050805Y049622D01*
X050762Y049599D01*
X050716Y049580D01*
X050670Y049564D01*
X050622Y049552D01*
X050574Y049544D01*
X050525Y049540D01*
X050475Y049540D01*
X050426Y049544D01*
X050378Y049552D01*
X050330Y049564D01*
X050284Y049580D01*
X050238Y049599D01*
X050195Y049622D01*
X050153Y049648D01*
X050114Y049677D01*
X050077Y049710D01*
X050043Y049745D01*
X050012Y049784D01*
X049984Y049824D01*
X049960Y049867D01*
X049939Y049911D01*
X049921Y049957D01*
X049908Y050004D01*
X049898Y050052D01*
X049892Y050101D01*
X049890Y050150D01*
X046782Y013902D02*
X046784Y013950D01*
X046790Y013998D01*
X046800Y014045D01*
X046813Y014091D01*
X046831Y014136D01*
X046851Y014180D01*
X046876Y014222D01*
X046904Y014261D01*
X046934Y014298D01*
X046968Y014332D01*
X047005Y014364D01*
X047043Y014393D01*
X047084Y014418D01*
X047127Y014440D01*
X047172Y014458D01*
X047218Y014472D01*
X047265Y014483D01*
X047313Y014490D01*
X047361Y014493D01*
X047409Y014492D01*
X047457Y014487D01*
X047505Y014478D01*
X047551Y014466D01*
X047596Y014449D01*
X047640Y014429D01*
X047682Y014406D01*
X047722Y014379D01*
X047760Y014349D01*
X047795Y014316D01*
X047827Y014280D01*
X047857Y014242D01*
X047883Y014201D01*
X047905Y014158D01*
X047925Y014114D01*
X047940Y014069D01*
X047952Y014022D01*
X047960Y013974D01*
X047964Y013926D01*
X047964Y013878D01*
X047960Y013830D01*
X047952Y013782D01*
X047940Y013735D01*
X047925Y013690D01*
X047905Y013646D01*
X047883Y013603D01*
X047857Y013562D01*
X047827Y013524D01*
X047795Y013488D01*
X047760Y013455D01*
X047722Y013425D01*
X047682Y013398D01*
X047640Y013375D01*
X047596Y013355D01*
X047551Y013338D01*
X047505Y013326D01*
X047457Y013317D01*
X047409Y013312D01*
X047361Y013311D01*
X047313Y013314D01*
X047265Y013321D01*
X047218Y013332D01*
X047172Y013346D01*
X047127Y013364D01*
X047084Y013386D01*
X047043Y013411D01*
X047005Y013440D01*
X046968Y013472D01*
X046934Y013506D01*
X046904Y013543D01*
X046876Y013582D01*
X046851Y013624D01*
X046831Y013668D01*
X046813Y013713D01*
X046800Y013759D01*
X046790Y013806D01*
X046784Y013854D01*
X046782Y013902D01*
X044070Y008280D02*
X044072Y008327D01*
X044078Y008373D01*
X044088Y008419D01*
X044101Y008463D01*
X044119Y008507D01*
X044140Y008548D01*
X044164Y008588D01*
X044192Y008626D01*
X044223Y008661D01*
X044257Y008693D01*
X044293Y008722D01*
X044332Y008748D01*
X044372Y008771D01*
X044415Y008790D01*
X044459Y008806D01*
X044504Y008818D01*
X044550Y008826D01*
X044597Y008830D01*
X044643Y008830D01*
X044690Y008826D01*
X044736Y008818D01*
X044781Y008806D01*
X044825Y008790D01*
X044868Y008771D01*
X044908Y008748D01*
X044947Y008722D01*
X044983Y008693D01*
X045017Y008661D01*
X045048Y008626D01*
X045076Y008588D01*
X045100Y008548D01*
X045121Y008507D01*
X045139Y008463D01*
X045152Y008419D01*
X045162Y008373D01*
X045168Y008327D01*
X045170Y008280D01*
X045168Y008233D01*
X045162Y008187D01*
X045152Y008141D01*
X045139Y008097D01*
X045121Y008053D01*
X045100Y008012D01*
X045076Y007972D01*
X045048Y007934D01*
X045017Y007899D01*
X044983Y007867D01*
X044947Y007838D01*
X044908Y007812D01*
X044868Y007789D01*
X044825Y007770D01*
X044781Y007754D01*
X044736Y007742D01*
X044690Y007734D01*
X044643Y007730D01*
X044597Y007730D01*
X044550Y007734D01*
X044504Y007742D01*
X044459Y007754D01*
X044415Y007770D01*
X044372Y007789D01*
X044332Y007812D01*
X044293Y007838D01*
X044257Y007867D01*
X044223Y007899D01*
X044192Y007934D01*
X044164Y007972D01*
X044140Y008012D01*
X044119Y008053D01*
X044101Y008097D01*
X044088Y008141D01*
X044078Y008187D01*
X044072Y008233D01*
X044070Y008280D01*
X043890Y001950D02*
X043892Y001999D01*
X043898Y002048D01*
X043908Y002096D01*
X043921Y002143D01*
X043939Y002189D01*
X043960Y002233D01*
X043984Y002276D01*
X044012Y002316D01*
X044043Y002355D01*
X044077Y002390D01*
X044114Y002423D01*
X044153Y002452D01*
X044195Y002478D01*
X044238Y002501D01*
X044284Y002520D01*
X044330Y002536D01*
X044378Y002548D01*
X044426Y002556D01*
X044475Y002560D01*
X044525Y002560D01*
X044574Y002556D01*
X044622Y002548D01*
X044670Y002536D01*
X044716Y002520D01*
X044762Y002501D01*
X044805Y002478D01*
X044847Y002452D01*
X044886Y002423D01*
X044923Y002390D01*
X044957Y002355D01*
X044988Y002316D01*
X045016Y002276D01*
X045040Y002233D01*
X045061Y002189D01*
X045079Y002143D01*
X045092Y002096D01*
X045102Y002048D01*
X045108Y001999D01*
X045110Y001950D01*
X045108Y001901D01*
X045102Y001852D01*
X045092Y001804D01*
X045079Y001757D01*
X045061Y001711D01*
X045040Y001667D01*
X045016Y001624D01*
X044988Y001584D01*
X044957Y001545D01*
X044923Y001510D01*
X044886Y001477D01*
X044847Y001448D01*
X044805Y001422D01*
X044762Y001399D01*
X044716Y001380D01*
X044670Y001364D01*
X044622Y001352D01*
X044574Y001344D01*
X044525Y001340D01*
X044475Y001340D01*
X044426Y001344D01*
X044378Y001352D01*
X044330Y001364D01*
X044284Y001380D01*
X044238Y001399D01*
X044195Y001422D01*
X044153Y001448D01*
X044114Y001477D01*
X044077Y001510D01*
X044043Y001545D01*
X044012Y001584D01*
X043984Y001624D01*
X043960Y001667D01*
X043939Y001711D01*
X043921Y001757D01*
X043908Y001804D01*
X043898Y001852D01*
X043892Y001901D01*
X043890Y001950D01*
X049890Y001950D02*
X049892Y001999D01*
X049898Y002048D01*
X049908Y002096D01*
X049921Y002143D01*
X049939Y002189D01*
X049960Y002233D01*
X049984Y002276D01*
X050012Y002316D01*
X050043Y002355D01*
X050077Y002390D01*
X050114Y002423D01*
X050153Y002452D01*
X050195Y002478D01*
X050238Y002501D01*
X050284Y002520D01*
X050330Y002536D01*
X050378Y002548D01*
X050426Y002556D01*
X050475Y002560D01*
X050525Y002560D01*
X050574Y002556D01*
X050622Y002548D01*
X050670Y002536D01*
X050716Y002520D01*
X050762Y002501D01*
X050805Y002478D01*
X050847Y002452D01*
X050886Y002423D01*
X050923Y002390D01*
X050957Y002355D01*
X050988Y002316D01*
X051016Y002276D01*
X051040Y002233D01*
X051061Y002189D01*
X051079Y002143D01*
X051092Y002096D01*
X051102Y002048D01*
X051108Y001999D01*
X051110Y001950D01*
X051108Y001901D01*
X051102Y001852D01*
X051092Y001804D01*
X051079Y001757D01*
X051061Y001711D01*
X051040Y001667D01*
X051016Y001624D01*
X050988Y001584D01*
X050957Y001545D01*
X050923Y001510D01*
X050886Y001477D01*
X050847Y001448D01*
X050805Y001422D01*
X050762Y001399D01*
X050716Y001380D01*
X050670Y001364D01*
X050622Y001352D01*
X050574Y001344D01*
X050525Y001340D01*
X050475Y001340D01*
X050426Y001344D01*
X050378Y001352D01*
X050330Y001364D01*
X050284Y001380D01*
X050238Y001399D01*
X050195Y001422D01*
X050153Y001448D01*
X050114Y001477D01*
X050077Y001510D01*
X050043Y001545D01*
X050012Y001584D01*
X049984Y001624D01*
X049960Y001667D01*
X049939Y001711D01*
X049921Y001757D01*
X049908Y001804D01*
X049898Y001852D01*
X049892Y001901D01*
X049890Y001950D01*
X052136Y013902D02*
X052138Y013950D01*
X052144Y013998D01*
X052154Y014045D01*
X052167Y014091D01*
X052185Y014136D01*
X052205Y014180D01*
X052230Y014222D01*
X052258Y014261D01*
X052288Y014298D01*
X052322Y014332D01*
X052359Y014364D01*
X052397Y014393D01*
X052438Y014418D01*
X052481Y014440D01*
X052526Y014458D01*
X052572Y014472D01*
X052619Y014483D01*
X052667Y014490D01*
X052715Y014493D01*
X052763Y014492D01*
X052811Y014487D01*
X052859Y014478D01*
X052905Y014466D01*
X052950Y014449D01*
X052994Y014429D01*
X053036Y014406D01*
X053076Y014379D01*
X053114Y014349D01*
X053149Y014316D01*
X053181Y014280D01*
X053211Y014242D01*
X053237Y014201D01*
X053259Y014158D01*
X053279Y014114D01*
X053294Y014069D01*
X053306Y014022D01*
X053314Y013974D01*
X053318Y013926D01*
X053318Y013878D01*
X053314Y013830D01*
X053306Y013782D01*
X053294Y013735D01*
X053279Y013690D01*
X053259Y013646D01*
X053237Y013603D01*
X053211Y013562D01*
X053181Y013524D01*
X053149Y013488D01*
X053114Y013455D01*
X053076Y013425D01*
X053036Y013398D01*
X052994Y013375D01*
X052950Y013355D01*
X052905Y013338D01*
X052859Y013326D01*
X052811Y013317D01*
X052763Y013312D01*
X052715Y013311D01*
X052667Y013314D01*
X052619Y013321D01*
X052572Y013332D01*
X052526Y013346D01*
X052481Y013364D01*
X052438Y013386D01*
X052397Y013411D01*
X052359Y013440D01*
X052322Y013472D01*
X052288Y013506D01*
X052258Y013543D01*
X052230Y013582D01*
X052205Y013624D01*
X052185Y013668D01*
X052167Y013713D01*
X052154Y013759D01*
X052144Y013806D01*
X052138Y013854D01*
X052136Y013902D01*
X035830Y008280D02*
X035832Y008327D01*
X035838Y008373D01*
X035848Y008419D01*
X035861Y008463D01*
X035879Y008507D01*
X035900Y008548D01*
X035924Y008588D01*
X035952Y008626D01*
X035983Y008661D01*
X036017Y008693D01*
X036053Y008722D01*
X036092Y008748D01*
X036132Y008771D01*
X036175Y008790D01*
X036219Y008806D01*
X036264Y008818D01*
X036310Y008826D01*
X036357Y008830D01*
X036403Y008830D01*
X036450Y008826D01*
X036496Y008818D01*
X036541Y008806D01*
X036585Y008790D01*
X036628Y008771D01*
X036668Y008748D01*
X036707Y008722D01*
X036743Y008693D01*
X036777Y008661D01*
X036808Y008626D01*
X036836Y008588D01*
X036860Y008548D01*
X036881Y008507D01*
X036899Y008463D01*
X036912Y008419D01*
X036922Y008373D01*
X036928Y008327D01*
X036930Y008280D01*
X036928Y008233D01*
X036922Y008187D01*
X036912Y008141D01*
X036899Y008097D01*
X036881Y008053D01*
X036860Y008012D01*
X036836Y007972D01*
X036808Y007934D01*
X036777Y007899D01*
X036743Y007867D01*
X036707Y007838D01*
X036668Y007812D01*
X036628Y007789D01*
X036585Y007770D01*
X036541Y007754D01*
X036496Y007742D01*
X036450Y007734D01*
X036403Y007730D01*
X036357Y007730D01*
X036310Y007734D01*
X036264Y007742D01*
X036219Y007754D01*
X036175Y007770D01*
X036132Y007789D01*
X036092Y007812D01*
X036053Y007838D01*
X036017Y007867D01*
X035983Y007899D01*
X035952Y007934D01*
X035924Y007972D01*
X035900Y008012D01*
X035879Y008053D01*
X035861Y008097D01*
X035848Y008141D01*
X035838Y008187D01*
X035832Y008233D01*
X035830Y008280D01*
X024070Y008280D02*
X024072Y008327D01*
X024078Y008373D01*
X024088Y008419D01*
X024101Y008463D01*
X024119Y008507D01*
X024140Y008548D01*
X024164Y008588D01*
X024192Y008626D01*
X024223Y008661D01*
X024257Y008693D01*
X024293Y008722D01*
X024332Y008748D01*
X024372Y008771D01*
X024415Y008790D01*
X024459Y008806D01*
X024504Y008818D01*
X024550Y008826D01*
X024597Y008830D01*
X024643Y008830D01*
X024690Y008826D01*
X024736Y008818D01*
X024781Y008806D01*
X024825Y008790D01*
X024868Y008771D01*
X024908Y008748D01*
X024947Y008722D01*
X024983Y008693D01*
X025017Y008661D01*
X025048Y008626D01*
X025076Y008588D01*
X025100Y008548D01*
X025121Y008507D01*
X025139Y008463D01*
X025152Y008419D01*
X025162Y008373D01*
X025168Y008327D01*
X025170Y008280D01*
X025168Y008233D01*
X025162Y008187D01*
X025152Y008141D01*
X025139Y008097D01*
X025121Y008053D01*
X025100Y008012D01*
X025076Y007972D01*
X025048Y007934D01*
X025017Y007899D01*
X024983Y007867D01*
X024947Y007838D01*
X024908Y007812D01*
X024868Y007789D01*
X024825Y007770D01*
X024781Y007754D01*
X024736Y007742D01*
X024690Y007734D01*
X024643Y007730D01*
X024597Y007730D01*
X024550Y007734D01*
X024504Y007742D01*
X024459Y007754D01*
X024415Y007770D01*
X024372Y007789D01*
X024332Y007812D01*
X024293Y007838D01*
X024257Y007867D01*
X024223Y007899D01*
X024192Y007934D01*
X024164Y007972D01*
X024140Y008012D01*
X024119Y008053D01*
X024101Y008097D01*
X024088Y008141D01*
X024078Y008187D01*
X024072Y008233D01*
X024070Y008280D01*
X015890Y001950D02*
X015892Y001999D01*
X015898Y002048D01*
X015908Y002096D01*
X015921Y002143D01*
X015939Y002189D01*
X015960Y002233D01*
X015984Y002276D01*
X016012Y002316D01*
X016043Y002355D01*
X016077Y002390D01*
X016114Y002423D01*
X016153Y002452D01*
X016195Y002478D01*
X016238Y002501D01*
X016284Y002520D01*
X016330Y002536D01*
X016378Y002548D01*
X016426Y002556D01*
X016475Y002560D01*
X016525Y002560D01*
X016574Y002556D01*
X016622Y002548D01*
X016670Y002536D01*
X016716Y002520D01*
X016762Y002501D01*
X016805Y002478D01*
X016847Y002452D01*
X016886Y002423D01*
X016923Y002390D01*
X016957Y002355D01*
X016988Y002316D01*
X017016Y002276D01*
X017040Y002233D01*
X017061Y002189D01*
X017079Y002143D01*
X017092Y002096D01*
X017102Y002048D01*
X017108Y001999D01*
X017110Y001950D01*
X017108Y001901D01*
X017102Y001852D01*
X017092Y001804D01*
X017079Y001757D01*
X017061Y001711D01*
X017040Y001667D01*
X017016Y001624D01*
X016988Y001584D01*
X016957Y001545D01*
X016923Y001510D01*
X016886Y001477D01*
X016847Y001448D01*
X016805Y001422D01*
X016762Y001399D01*
X016716Y001380D01*
X016670Y001364D01*
X016622Y001352D01*
X016574Y001344D01*
X016525Y001340D01*
X016475Y001340D01*
X016426Y001344D01*
X016378Y001352D01*
X016330Y001364D01*
X016284Y001380D01*
X016238Y001399D01*
X016195Y001422D01*
X016153Y001448D01*
X016114Y001477D01*
X016077Y001510D01*
X016043Y001545D01*
X016012Y001584D01*
X015984Y001624D01*
X015960Y001667D01*
X015939Y001711D01*
X015921Y001757D01*
X015908Y001804D01*
X015898Y001852D01*
X015892Y001901D01*
X015890Y001950D01*
X011830Y008280D02*
X011832Y008327D01*
X011838Y008373D01*
X011848Y008419D01*
X011861Y008463D01*
X011879Y008507D01*
X011900Y008548D01*
X011924Y008588D01*
X011952Y008626D01*
X011983Y008661D01*
X012017Y008693D01*
X012053Y008722D01*
X012092Y008748D01*
X012132Y008771D01*
X012175Y008790D01*
X012219Y008806D01*
X012264Y008818D01*
X012310Y008826D01*
X012357Y008830D01*
X012403Y008830D01*
X012450Y008826D01*
X012496Y008818D01*
X012541Y008806D01*
X012585Y008790D01*
X012628Y008771D01*
X012668Y008748D01*
X012707Y008722D01*
X012743Y008693D01*
X012777Y008661D01*
X012808Y008626D01*
X012836Y008588D01*
X012860Y008548D01*
X012881Y008507D01*
X012899Y008463D01*
X012912Y008419D01*
X012922Y008373D01*
X012928Y008327D01*
X012930Y008280D01*
X012928Y008233D01*
X012922Y008187D01*
X012912Y008141D01*
X012899Y008097D01*
X012881Y008053D01*
X012860Y008012D01*
X012836Y007972D01*
X012808Y007934D01*
X012777Y007899D01*
X012743Y007867D01*
X012707Y007838D01*
X012668Y007812D01*
X012628Y007789D01*
X012585Y007770D01*
X012541Y007754D01*
X012496Y007742D01*
X012450Y007734D01*
X012403Y007730D01*
X012357Y007730D01*
X012310Y007734D01*
X012264Y007742D01*
X012219Y007754D01*
X012175Y007770D01*
X012132Y007789D01*
X012092Y007812D01*
X012053Y007838D01*
X012017Y007867D01*
X011983Y007899D01*
X011952Y007934D01*
X011924Y007972D01*
X011900Y008012D01*
X011879Y008053D01*
X011861Y008097D01*
X011848Y008141D01*
X011838Y008187D01*
X011832Y008233D01*
X011830Y008280D01*
D12*
X011880Y008280D02*
X011882Y008324D01*
X011888Y008368D01*
X011898Y008411D01*
X011911Y008453D01*
X011928Y008494D01*
X011949Y008533D01*
X011973Y008570D01*
X012000Y008605D01*
X012030Y008637D01*
X012063Y008667D01*
X012099Y008693D01*
X012136Y008717D01*
X012176Y008736D01*
X012217Y008753D01*
X012260Y008765D01*
X012303Y008774D01*
X012347Y008779D01*
X012391Y008780D01*
X012435Y008777D01*
X012479Y008770D01*
X012522Y008759D01*
X012564Y008745D01*
X012604Y008727D01*
X012643Y008705D01*
X012679Y008681D01*
X012713Y008653D01*
X012745Y008622D01*
X012774Y008588D01*
X012800Y008552D01*
X012822Y008514D01*
X012841Y008474D01*
X012856Y008432D01*
X012868Y008390D01*
X012876Y008346D01*
X012880Y008302D01*
X012880Y008258D01*
X012876Y008214D01*
X012868Y008170D01*
X012856Y008128D01*
X012841Y008086D01*
X012822Y008046D01*
X012800Y008008D01*
X012774Y007972D01*
X012745Y007938D01*
X012713Y007907D01*
X012679Y007879D01*
X012643Y007855D01*
X012604Y007833D01*
X012564Y007815D01*
X012522Y007801D01*
X012479Y007790D01*
X012435Y007783D01*
X012391Y007780D01*
X012347Y007781D01*
X012303Y007786D01*
X012260Y007795D01*
X012217Y007807D01*
X012176Y007824D01*
X012136Y007843D01*
X012099Y007867D01*
X012063Y007893D01*
X012030Y007923D01*
X012000Y007955D01*
X011973Y007990D01*
X011949Y008027D01*
X011928Y008066D01*
X011911Y008107D01*
X011898Y008149D01*
X011888Y008192D01*
X011882Y008236D01*
X011880Y008280D01*
X011250Y008500D02*
X011850Y009250D01*
X012950Y009250D01*
X013550Y008500D01*
X013550Y007400D01*
X014400Y007400D01*
X014426Y007402D01*
X014452Y007407D01*
X014477Y007415D01*
X014500Y007427D01*
X014522Y007441D01*
X014541Y007459D01*
X014559Y007478D01*
X014573Y007500D01*
X014585Y007523D01*
X014593Y007548D01*
X014598Y007574D01*
X014600Y007600D01*
X014600Y044400D01*
X014598Y044426D01*
X014593Y044452D01*
X014585Y044477D01*
X014573Y044500D01*
X014559Y044522D01*
X014541Y044541D01*
X014522Y044559D01*
X014500Y044573D01*
X014477Y044585D01*
X014452Y044593D01*
X014426Y044598D01*
X014400Y044600D01*
X013550Y044600D01*
X011250Y044600D01*
X010600Y044600D01*
X010574Y044598D01*
X010548Y044593D01*
X010523Y044585D01*
X010500Y044573D01*
X010478Y044559D01*
X010459Y044541D01*
X010441Y044522D01*
X010427Y044500D01*
X010415Y044477D01*
X010407Y044452D01*
X010402Y044426D01*
X010400Y044400D01*
X010400Y007600D01*
X010402Y007574D01*
X010407Y007548D01*
X010415Y007523D01*
X010427Y007500D01*
X010441Y007478D01*
X010459Y007459D01*
X010478Y007441D01*
X010500Y007427D01*
X010523Y007415D01*
X010548Y007407D01*
X010574Y007402D01*
X010600Y007400D01*
X011250Y007400D01*
X013550Y007400D01*
X013000Y009250D02*
X012950Y009250D01*
X013000Y009250D02*
X013000Y009750D01*
X014000Y009750D01*
X014000Y042250D01*
X013000Y042250D01*
X013000Y042750D01*
X012950Y042750D01*
X013550Y043500D01*
X013550Y044600D01*
X011880Y043720D02*
X011882Y043764D01*
X011888Y043808D01*
X011898Y043851D01*
X011911Y043893D01*
X011928Y043934D01*
X011949Y043973D01*
X011973Y044010D01*
X012000Y044045D01*
X012030Y044077D01*
X012063Y044107D01*
X012099Y044133D01*
X012136Y044157D01*
X012176Y044176D01*
X012217Y044193D01*
X012260Y044205D01*
X012303Y044214D01*
X012347Y044219D01*
X012391Y044220D01*
X012435Y044217D01*
X012479Y044210D01*
X012522Y044199D01*
X012564Y044185D01*
X012604Y044167D01*
X012643Y044145D01*
X012679Y044121D01*
X012713Y044093D01*
X012745Y044062D01*
X012774Y044028D01*
X012800Y043992D01*
X012822Y043954D01*
X012841Y043914D01*
X012856Y043872D01*
X012868Y043830D01*
X012876Y043786D01*
X012880Y043742D01*
X012880Y043698D01*
X012876Y043654D01*
X012868Y043610D01*
X012856Y043568D01*
X012841Y043526D01*
X012822Y043486D01*
X012800Y043448D01*
X012774Y043412D01*
X012745Y043378D01*
X012713Y043347D01*
X012679Y043319D01*
X012643Y043295D01*
X012604Y043273D01*
X012564Y043255D01*
X012522Y043241D01*
X012479Y043230D01*
X012435Y043223D01*
X012391Y043220D01*
X012347Y043221D01*
X012303Y043226D01*
X012260Y043235D01*
X012217Y043247D01*
X012176Y043264D01*
X012136Y043283D01*
X012099Y043307D01*
X012063Y043333D01*
X012030Y043363D01*
X012000Y043395D01*
X011973Y043430D01*
X011949Y043467D01*
X011928Y043506D01*
X011911Y043547D01*
X011898Y043589D01*
X011888Y043632D01*
X011882Y043676D01*
X011880Y043720D01*
X011250Y043500D02*
X011250Y044600D01*
X011250Y043500D02*
X011850Y042750D01*
X012950Y042750D01*
X011850Y042750D02*
X011000Y042750D01*
X011000Y009250D01*
X011850Y009250D01*
X011250Y008500D02*
X011250Y007400D01*
X034400Y007600D02*
X034400Y044400D01*
X034402Y044426D01*
X034407Y044452D01*
X034415Y044477D01*
X034427Y044500D01*
X034441Y044522D01*
X034459Y044541D01*
X034478Y044559D01*
X034500Y044573D01*
X034523Y044585D01*
X034548Y044593D01*
X034574Y044598D01*
X034600Y044600D01*
X035250Y044600D01*
X035250Y043500D01*
X035850Y042750D01*
X036950Y042750D01*
X037550Y043500D01*
X037550Y044600D01*
X038400Y044600D01*
X038426Y044598D01*
X038452Y044593D01*
X038477Y044585D01*
X038500Y044573D01*
X038522Y044559D01*
X038541Y044541D01*
X038559Y044522D01*
X038573Y044500D01*
X038585Y044477D01*
X038593Y044452D01*
X038598Y044426D01*
X038600Y044400D01*
X038600Y007600D01*
X038598Y007574D01*
X038593Y007548D01*
X038585Y007523D01*
X038573Y007500D01*
X038559Y007478D01*
X038541Y007459D01*
X038522Y007441D01*
X038500Y007427D01*
X038477Y007415D01*
X038452Y007407D01*
X038426Y007402D01*
X038400Y007400D01*
X037550Y007400D01*
X037550Y008500D01*
X036950Y009250D01*
X037000Y009250D01*
X037000Y009750D01*
X038000Y009750D01*
X038000Y042250D01*
X037000Y042250D01*
X037000Y042750D01*
X036950Y042750D01*
X035850Y042750D02*
X035000Y042750D01*
X035000Y009250D01*
X035850Y009250D01*
X036950Y009250D01*
X035880Y008280D02*
X035882Y008324D01*
X035888Y008368D01*
X035898Y008411D01*
X035911Y008453D01*
X035928Y008494D01*
X035949Y008533D01*
X035973Y008570D01*
X036000Y008605D01*
X036030Y008637D01*
X036063Y008667D01*
X036099Y008693D01*
X036136Y008717D01*
X036176Y008736D01*
X036217Y008753D01*
X036260Y008765D01*
X036303Y008774D01*
X036347Y008779D01*
X036391Y008780D01*
X036435Y008777D01*
X036479Y008770D01*
X036522Y008759D01*
X036564Y008745D01*
X036604Y008727D01*
X036643Y008705D01*
X036679Y008681D01*
X036713Y008653D01*
X036745Y008622D01*
X036774Y008588D01*
X036800Y008552D01*
X036822Y008514D01*
X036841Y008474D01*
X036856Y008432D01*
X036868Y008390D01*
X036876Y008346D01*
X036880Y008302D01*
X036880Y008258D01*
X036876Y008214D01*
X036868Y008170D01*
X036856Y008128D01*
X036841Y008086D01*
X036822Y008046D01*
X036800Y008008D01*
X036774Y007972D01*
X036745Y007938D01*
X036713Y007907D01*
X036679Y007879D01*
X036643Y007855D01*
X036604Y007833D01*
X036564Y007815D01*
X036522Y007801D01*
X036479Y007790D01*
X036435Y007783D01*
X036391Y007780D01*
X036347Y007781D01*
X036303Y007786D01*
X036260Y007795D01*
X036217Y007807D01*
X036176Y007824D01*
X036136Y007843D01*
X036099Y007867D01*
X036063Y007893D01*
X036030Y007923D01*
X036000Y007955D01*
X035973Y007990D01*
X035949Y008027D01*
X035928Y008066D01*
X035911Y008107D01*
X035898Y008149D01*
X035888Y008192D01*
X035882Y008236D01*
X035880Y008280D01*
X035250Y008500D02*
X035850Y009250D01*
X035250Y008500D02*
X035250Y007400D01*
X034600Y007400D01*
X034574Y007402D01*
X034548Y007407D01*
X034523Y007415D01*
X034500Y007427D01*
X034478Y007441D01*
X034459Y007459D01*
X034441Y007478D01*
X034427Y007500D01*
X034415Y007523D01*
X034407Y007548D01*
X034402Y007574D01*
X034400Y007600D01*
X035250Y007400D02*
X037550Y007400D01*
X035880Y043720D02*
X035882Y043764D01*
X035888Y043808D01*
X035898Y043851D01*
X035911Y043893D01*
X035928Y043934D01*
X035949Y043973D01*
X035973Y044010D01*
X036000Y044045D01*
X036030Y044077D01*
X036063Y044107D01*
X036099Y044133D01*
X036136Y044157D01*
X036176Y044176D01*
X036217Y044193D01*
X036260Y044205D01*
X036303Y044214D01*
X036347Y044219D01*
X036391Y044220D01*
X036435Y044217D01*
X036479Y044210D01*
X036522Y044199D01*
X036564Y044185D01*
X036604Y044167D01*
X036643Y044145D01*
X036679Y044121D01*
X036713Y044093D01*
X036745Y044062D01*
X036774Y044028D01*
X036800Y043992D01*
X036822Y043954D01*
X036841Y043914D01*
X036856Y043872D01*
X036868Y043830D01*
X036876Y043786D01*
X036880Y043742D01*
X036880Y043698D01*
X036876Y043654D01*
X036868Y043610D01*
X036856Y043568D01*
X036841Y043526D01*
X036822Y043486D01*
X036800Y043448D01*
X036774Y043412D01*
X036745Y043378D01*
X036713Y043347D01*
X036679Y043319D01*
X036643Y043295D01*
X036604Y043273D01*
X036564Y043255D01*
X036522Y043241D01*
X036479Y043230D01*
X036435Y043223D01*
X036391Y043220D01*
X036347Y043221D01*
X036303Y043226D01*
X036260Y043235D01*
X036217Y043247D01*
X036176Y043264D01*
X036136Y043283D01*
X036099Y043307D01*
X036063Y043333D01*
X036030Y043363D01*
X036000Y043395D01*
X035973Y043430D01*
X035949Y043467D01*
X035928Y043506D01*
X035911Y043547D01*
X035898Y043589D01*
X035888Y043632D01*
X035882Y043676D01*
X035880Y043720D01*
X035250Y044600D02*
X037550Y044600D01*
D13*
X000500Y051600D02*
X000500Y000500D01*
X053500Y000500D01*
X053500Y051600D01*
X000500Y051600D01*
X011325Y042325D02*
X011475Y042475D01*
X011625Y042325D01*
X011625Y042025D01*
X011625Y042250D02*
X011325Y042250D01*
X011325Y042325D02*
X011325Y042025D01*
X012075Y042025D02*
X012375Y042025D01*
X012225Y042025D02*
X012225Y042475D01*
X012075Y042325D01*
X013575Y042600D02*
X013650Y042525D01*
X013800Y042525D01*
X013875Y042600D01*
X013575Y042600D02*
X013575Y042900D01*
X013650Y042975D01*
X013800Y042975D01*
X013875Y042900D01*
X035325Y042325D02*
X035475Y042475D01*
X035625Y042325D01*
X035625Y042025D01*
X035625Y042250D02*
X035325Y042250D01*
X035325Y042325D02*
X035325Y042025D01*
X036075Y042025D02*
X036375Y042025D01*
X036225Y042025D02*
X036225Y042475D01*
X036075Y042325D01*
X037575Y042600D02*
X037650Y042525D01*
X037800Y042525D01*
X037875Y042600D01*
X037575Y042600D02*
X037575Y042900D01*
X037650Y042975D01*
X037800Y042975D01*
X037875Y042900D01*
X036650Y017776D02*
X036725Y017701D01*
X036725Y017551D01*
X036650Y017475D01*
X036350Y017475D01*
X036275Y017551D01*
X036275Y017701D01*
X036350Y017776D01*
X036500Y017315D02*
X036500Y017015D01*
X036425Y016395D02*
X036350Y016395D01*
X036275Y016319D01*
X036275Y016169D01*
X036350Y016094D01*
X036425Y016395D02*
X036725Y016094D01*
X036725Y016395D01*
X036725Y015934D02*
X036725Y015634D01*
X036725Y015784D02*
X036275Y015784D01*
X036425Y015634D01*
X036575Y015474D02*
X036500Y015399D01*
X036500Y015173D01*
X036650Y015173D01*
X036725Y015249D01*
X036725Y015399D01*
X036650Y015474D01*
X036575Y015474D01*
X036350Y015324D02*
X036500Y015173D01*
X036350Y015324D02*
X036275Y015474D01*
X036275Y014863D02*
X036725Y014863D01*
X036725Y014713D02*
X036725Y015013D01*
X036425Y014713D02*
X036275Y014863D01*
X036500Y014553D02*
X036500Y014253D01*
X036275Y014478D01*
X036725Y014478D01*
X036725Y014093D02*
X036275Y014093D01*
X036275Y013792D02*
X036725Y014093D01*
X036725Y013792D02*
X036275Y013792D01*
X036275Y013636D02*
X036275Y013485D01*
X036275Y013560D02*
X036725Y013560D01*
X036725Y013485D02*
X036725Y013636D01*
X036650Y013325D02*
X036350Y013325D01*
X036275Y013250D01*
X036275Y013025D01*
X036725Y013025D01*
X036725Y013250D01*
X036650Y013325D01*
X036511Y010025D02*
X036360Y010025D01*
X036285Y009950D01*
X036125Y009950D02*
X036125Y009875D01*
X036050Y009800D01*
X036125Y009725D01*
X036125Y009650D01*
X036050Y009575D01*
X035900Y009575D01*
X035825Y009650D01*
X035975Y009800D02*
X036050Y009800D01*
X036125Y009950D02*
X036050Y010025D01*
X035900Y010025D01*
X035825Y009950D01*
X035625Y009800D02*
X035550Y009875D01*
X035400Y009875D01*
X035400Y009725D02*
X035325Y009650D01*
X035400Y009575D01*
X035625Y009575D01*
X035625Y009800D01*
X035625Y009725D02*
X035400Y009725D01*
X036285Y009575D02*
X036586Y009875D01*
X036586Y009950D01*
X036511Y010025D01*
X036586Y009575D02*
X036285Y009575D01*
X037575Y009300D02*
X037575Y009150D01*
X037650Y009075D01*
X037875Y009075D01*
X037875Y009375D02*
X037650Y009375D01*
X037575Y009300D01*
X034175Y008085D02*
X034100Y008085D01*
X033800Y008386D01*
X033725Y008386D01*
X033725Y008085D01*
X033725Y007925D02*
X034175Y007625D01*
X034175Y007925D02*
X033725Y007625D01*
X013875Y009075D02*
X013650Y009075D01*
X013575Y009150D01*
X013575Y009300D01*
X013650Y009375D01*
X013875Y009375D01*
X012586Y009575D02*
X012285Y009575D01*
X012586Y009875D01*
X012586Y009950D01*
X012511Y010025D01*
X012360Y010025D01*
X012285Y009950D01*
X012125Y009950D02*
X012125Y009875D01*
X012050Y009800D01*
X012125Y009725D01*
X012125Y009650D01*
X012050Y009575D01*
X011900Y009575D01*
X011825Y009650D01*
X011975Y009800D02*
X012050Y009800D01*
X012125Y009950D02*
X012050Y010025D01*
X011900Y010025D01*
X011825Y009950D01*
X011625Y009800D02*
X011625Y009575D01*
X011400Y009575D01*
X011325Y009650D01*
X011400Y009725D01*
X011625Y009725D01*
X011625Y009800D02*
X011550Y009875D01*
X011400Y009875D01*
X010100Y008386D02*
X010025Y008386D01*
X009950Y008311D01*
X009950Y008085D01*
X010100Y008085D01*
X010175Y008160D01*
X010175Y008311D01*
X010100Y008386D01*
X009800Y008236D02*
X009725Y008386D01*
X009800Y008236D02*
X009950Y008085D01*
X010175Y007925D02*
X009725Y007625D01*
X009725Y007925D02*
X010175Y007625D01*
X012275Y013025D02*
X012275Y013250D01*
X012350Y013325D01*
X012650Y013325D01*
X012725Y013250D01*
X012725Y013025D01*
X012275Y013025D01*
X012275Y013485D02*
X012275Y013636D01*
X012275Y013560D02*
X012725Y013560D01*
X012725Y013485D02*
X012725Y013636D01*
X012725Y013792D02*
X012275Y013792D01*
X012725Y014093D01*
X012275Y014093D01*
X012500Y014253D02*
X012275Y014478D01*
X012725Y014478D01*
X012725Y014713D02*
X012725Y015013D01*
X012725Y014863D02*
X012275Y014863D01*
X012425Y014713D01*
X012500Y014553D02*
X012500Y014253D01*
X012500Y015173D02*
X012500Y015399D01*
X012575Y015474D01*
X012650Y015474D01*
X012725Y015399D01*
X012725Y015249D01*
X012650Y015173D01*
X012500Y015173D01*
X012350Y015324D01*
X012275Y015474D01*
X012425Y015634D02*
X012275Y015784D01*
X012725Y015784D01*
X012725Y015634D02*
X012725Y015934D01*
X012725Y016094D02*
X012425Y016395D01*
X012350Y016395D01*
X012275Y016319D01*
X012275Y016169D01*
X012350Y016094D01*
X012725Y016094D02*
X012725Y016395D01*
X012500Y017015D02*
X012500Y017315D01*
X012650Y017475D02*
X012725Y017551D01*
X012725Y017701D01*
X012650Y017776D01*
X012350Y017776D02*
X012275Y017701D01*
X012275Y017551D01*
X012350Y017475D01*
X012650Y017475D01*
M02*
