%
M48
M72
T01C0.0276
T02C0.0320
T03C0.0360
T04C0.0380
T05C0.0400
T06C0.0551
T07C0.1100
T08C0.1181
%
T01
X17500Y5000
X17500Y6000
X18500Y7000
X19500Y6000
X19500Y5000
X19500Y9500
X20000Y17500
X18500Y17500
X17000Y17500
X15000Y17500
X12500Y17500
X10000Y17500
X8000Y17500
X6500Y17500
X5000Y17500
X3500Y17500
X1500Y17500
X22000Y17500
X24500Y17500
X26500Y17500
X28000Y17500
X29000Y17500
X31000Y17500
X32500Y17500
X33500Y17500
X39000Y17500
X40000Y15000
X39000Y14000
X42500Y17500
X43500Y16000
X43500Y14500
X44000Y19000
X45000Y20500
X43000Y22000
X43500Y23000
X45500Y23000
X47500Y23500
X49000Y24000
X50000Y19500
X49500Y15000
X52000Y14000
X52500Y12000
X52000Y10500
X52000Y9500
X52000Y8000
X51000Y6500
X50000Y7000
X49500Y5500
X48500Y5000
X52500Y5000
X31500Y5000
X31500Y6000
X30500Y7000
X29500Y6000
X29500Y5000
X31500Y9500
X46000Y37500
X47000Y39500
X49000Y42000
X48900Y43200
X50000Y45000
X49500Y46500
X48000Y47500
X52000Y47000
X47000Y43000
X42500Y42500
X39500Y42000
X39500Y44500
X40000Y46500
X38000Y46000
X35000Y46500
X32500Y41000
X28500Y41500
X27500Y43500
X20500Y44500
X19000Y42000
X16000Y44500
X17500Y46500
X19000Y47500
X14000Y47000
X12000Y46000
X9500Y47000
X7500Y46000
X8000Y43000
X4500Y44500
X2500Y42500
X2500Y46500
X15500Y42500
T02
X41000Y11500
X41000Y10500
X42000Y10500
X42000Y11500
T03
X11500Y10550
X11500Y11550
X11500Y12550
X11500Y13550
X11500Y14550
X11500Y15550
X11500Y16550
X11500Y17550
X11500Y18550
X11500Y19550
X11500Y20550
X11500Y21550
X11500Y22550
X11500Y23550
X11500Y24550
X11500Y25550
X11500Y26550
X11500Y27550
X11500Y28550
X11500Y29550
X11500Y30550
X11500Y31550
X11500Y32550
X11500Y33550
X11500Y34550
X11500Y35550
X11500Y36550
X11500Y37550
X11500Y38550
X11500Y39550
X11500Y40550
X11500Y41550
X13500Y41550
X13500Y40550
X13500Y39550
X13500Y38550
X13500Y37550
X13500Y36550
X13500Y35550
X13500Y34550
X13500Y33550
X13500Y32550
X13500Y31550
X13500Y30550
X13500Y29550
X13500Y28550
X13500Y27550
X13500Y26550
X13500Y25550
X13500Y24550
X13500Y23550
X13500Y22550
X13500Y21550
X13500Y20550
X13500Y19550
X13500Y18550
X13500Y17550
X13500Y16550
X13500Y15550
X13500Y14550
X13500Y13550
X13500Y12550
X13500Y11550
X13500Y10550
X23500Y10550
X23500Y11550
X23500Y12550
X23500Y13550
X23500Y14550
X23500Y15550
X23500Y16550
X23500Y17550
X23500Y18550
X23500Y19550
X23500Y20550
X23500Y21550
X23500Y22550
X23500Y23550
X23500Y24550
X23500Y25550
X23500Y26550
X23500Y27550
X23500Y28550
X23500Y29550
X23500Y30550
X23500Y31550
X23500Y32550
X23500Y33550
X23500Y34550
X23500Y35550
X23500Y36550
X23500Y37550
X23500Y38550
X23500Y39550
X23500Y40550
X23500Y41550
X25500Y41550
X25500Y40550
X25500Y39550
X25500Y38550
X25500Y37550
X25500Y36550
X25500Y35550
X25500Y34550
X25500Y33550
X25500Y32550
X25500Y31550
X25500Y30550
X25500Y29550
X25500Y28550
X25500Y27550
X25500Y26550
X25500Y25550
X25500Y24550
X25500Y23550
X25500Y22550
X25500Y21550
X25500Y20550
X25500Y19550
X25500Y18550
X25500Y17550
X25500Y16550
X25500Y15550
X25500Y14550
X25500Y13550
X25500Y12550
X25500Y11550
X25500Y10550
X35500Y10550
X35500Y11550
X35500Y12550
X35500Y13550
X35500Y14550
X35500Y15550
X35500Y16550
X35500Y17550
X35500Y18550
X35500Y19550
X35500Y20550
X35500Y21550
X35500Y22550
X35500Y23550
X35500Y24550
X35500Y25550
X35500Y26550
X35500Y27550
X35500Y28550
X35500Y29550
X35500Y30550
X35500Y31550
X35500Y32550
X35500Y33550
X35500Y34550
X35500Y35550
X35500Y36550
X35500Y37550
X35500Y38550
X35500Y39550
X35500Y40550
X35500Y41550
X37500Y41550
X37500Y40550
X37500Y39550
X37500Y38550
X37500Y37550
X37500Y36550
X37500Y35550
X37500Y34550
X37500Y33550
X37500Y32550
X37500Y31550
X37500Y30550
X37500Y29550
X37500Y28550
X37500Y27550
X37500Y26550
X37500Y25550
X37500Y24550
X37500Y23550
X37500Y22550
X37500Y21550
X37500Y20550
X37500Y19550
X37500Y18550
X37500Y17550
X37500Y16550
X37500Y15550
X37500Y14550
X37500Y13550
X37500Y12550
X37500Y11550
X37500Y10550
T04
X44000Y29000
X44000Y30000
X45000Y29000
X46000Y29000
X46000Y30000
X46000Y31000
X46000Y32000
X46000Y33000
X46000Y34000
X46000Y35000
X46000Y36000
X47000Y36000
X47000Y35000
X47000Y34000
X47000Y33000
X47000Y32000
X47000Y31000
X47000Y30000
X47000Y29000
X48000Y29000
X49000Y29000
X50000Y29000
X50000Y30000
X50000Y31000
X50000Y32000
X50000Y33000
X50000Y34000
X50000Y35000
X50000Y36000
X50000Y37000
X50000Y38000
X50000Y39000
X50000Y40000
X50000Y41000
X50000Y42000
X45000Y41000
X44000Y41000
X44000Y40000
X44000Y39000
X45000Y39000
X45000Y38000
X44000Y38000
X44000Y37000
X45000Y37000
X44000Y36000
X44000Y35000
X44000Y34000
X44000Y33000
X44000Y32000
X44000Y31000
X44000Y42000
T05
X41000Y41000
X41000Y40000
X41000Y39000
X41000Y38000
X41000Y37000
X41000Y36000
X41000Y35000
X41000Y34000
X40000Y34000
X40000Y35000
X40000Y36000
X40000Y37000
X40000Y38000
X40000Y39000
X40000Y40000
X40000Y41000
X44000Y25500
X45000Y25500
X46000Y25500
X47000Y25500
X48000Y25500
X49000Y25500
X49000Y17500
X48000Y17500
X47000Y17500
X46000Y17500
X45000Y17500
X44000Y17500
T06
X46417Y9827
X46417Y8173
X48583Y8173
X48583Y9827
T07
X36380Y8330
X24620Y8330
X12380Y8330
X12380Y43770
X24620Y43770
X36380Y43770
T08
X48402Y11677
X48402Y6323
M30
