G75*
%MOIN*%
%OFA0B0*%
%FSLAX24Y24*%
%IPPOS*%
%LPD*%
%AMOC8*
5,1,8,0,0,1.08239X$1,22.5*
%
%ADD10OC8,0.0520*%
%ADD11R,0.0600X0.0600*%
%ADD12C,0.0600*%
%ADD13C,0.0580*%
%ADD14OC8,0.0600*%
%ADD15R,0.0827X0.0827*%
%ADD16OC8,0.0560*%
%ADD17C,0.0160*%
%ADD18C,0.0436*%
%ADD19C,0.0550*%
%ADD20R,0.0436X0.0436*%
D10*
X041000Y010500D03*
X041000Y011500D03*
X042000Y011500D03*
X042000Y010500D03*
D11*
X044000Y017500D03*
X044000Y025500D03*
D12*
X045000Y025500D03*
X046000Y025500D03*
X047000Y025500D03*
X048000Y025500D03*
X049000Y025500D03*
X049000Y017500D03*
X048000Y017500D03*
X047000Y017500D03*
X046000Y017500D03*
X045000Y017500D03*
D13*
X045000Y029000D03*
X044000Y029000D03*
X044000Y030000D03*
X044000Y031000D03*
X044000Y032000D03*
X044000Y033000D03*
X044000Y034000D03*
X044000Y035000D03*
X044000Y036000D03*
X044000Y037000D03*
X045000Y037000D03*
X045000Y038000D03*
X044000Y038000D03*
X044000Y039000D03*
X045000Y039000D03*
X044000Y040000D03*
X044000Y041000D03*
X045000Y041000D03*
X044000Y042000D03*
X050000Y042000D03*
X050000Y041000D03*
X050000Y040000D03*
X050000Y039000D03*
X050000Y038000D03*
X050000Y037000D03*
X050000Y036000D03*
X050000Y035000D03*
X050000Y034000D03*
X050000Y033000D03*
X050000Y032000D03*
X050000Y031000D03*
X050000Y030000D03*
X050000Y029000D03*
X049000Y029000D03*
X048000Y029000D03*
X047000Y029000D03*
X047000Y030000D03*
X047000Y031000D03*
X047000Y032000D03*
X047000Y033000D03*
X047000Y034000D03*
X047000Y035000D03*
X047000Y036000D03*
X046000Y036000D03*
X046000Y035000D03*
X046000Y034000D03*
X046000Y033000D03*
X046000Y032000D03*
X046000Y031000D03*
X046000Y030000D03*
X046000Y029000D03*
D14*
X041000Y034000D03*
X041000Y035000D03*
X041000Y036000D03*
X041000Y037000D03*
X041000Y038000D03*
X041000Y039000D03*
X041000Y040000D03*
X041000Y041000D03*
X040000Y041000D03*
X040000Y040000D03*
X040000Y039000D03*
X040000Y038000D03*
X040000Y037000D03*
X040000Y036000D03*
X040000Y035000D03*
X040000Y034000D03*
D15*
X046417Y009827D03*
X046417Y008173D03*
X048583Y008173D03*
X048583Y009827D03*
D16*
X037500Y010550D03*
X037500Y011550D03*
X037500Y012550D03*
X037500Y013550D03*
X037500Y014550D03*
X037500Y015550D03*
X037500Y016550D03*
X037500Y017550D03*
X037500Y018550D03*
X037500Y019550D03*
X037500Y020550D03*
X037500Y021550D03*
X037500Y022550D03*
X037500Y023550D03*
X037500Y024550D03*
X037500Y025550D03*
X037500Y026550D03*
X037500Y027550D03*
X037500Y028550D03*
X037500Y029550D03*
X037500Y030550D03*
X037500Y031550D03*
X037500Y032550D03*
X037500Y033550D03*
X037500Y034550D03*
X037500Y035550D03*
X037500Y036550D03*
X037500Y037550D03*
X037500Y038550D03*
X037500Y039550D03*
X037500Y040550D03*
X037500Y041550D03*
X035500Y041550D03*
X035500Y040550D03*
X035500Y039550D03*
X035500Y038550D03*
X035500Y037550D03*
X035500Y036550D03*
X035500Y035550D03*
X035500Y034550D03*
X035500Y033550D03*
X035500Y032550D03*
X035500Y031550D03*
X035500Y030550D03*
X035500Y029550D03*
X035500Y028550D03*
X035500Y027550D03*
X035500Y026550D03*
X035500Y025550D03*
X035500Y024550D03*
X035500Y023550D03*
X035500Y022550D03*
X035500Y021550D03*
X035500Y020550D03*
X035500Y019550D03*
X035500Y018550D03*
X035500Y017550D03*
X035500Y016550D03*
X035500Y015550D03*
X035500Y014550D03*
X035500Y013550D03*
X035500Y012550D03*
X035500Y011550D03*
X035500Y010550D03*
X025500Y010550D03*
X025500Y011550D03*
X025500Y012550D03*
X025500Y013550D03*
X025500Y014550D03*
X025500Y015550D03*
X025500Y016550D03*
X025500Y017550D03*
X025500Y018550D03*
X025500Y019550D03*
X025500Y020550D03*
X025500Y021550D03*
X025500Y022550D03*
X025500Y023550D03*
X025500Y024550D03*
X025500Y025550D03*
X025500Y026550D03*
X025500Y027550D03*
X025500Y028550D03*
X025500Y029550D03*
X025500Y030550D03*
X025500Y031550D03*
X025500Y032550D03*
X025500Y033550D03*
X025500Y034550D03*
X025500Y035550D03*
X025500Y036550D03*
X025500Y037550D03*
X025500Y038550D03*
X025500Y039550D03*
X025500Y040550D03*
X025500Y041550D03*
X023500Y041550D03*
X023500Y040550D03*
X023500Y039550D03*
X023500Y038550D03*
X023500Y037550D03*
X023500Y036550D03*
X023500Y035550D03*
X023500Y034550D03*
X023500Y033550D03*
X023500Y032550D03*
X023500Y031550D03*
X023500Y030550D03*
X023500Y029550D03*
X023500Y028550D03*
X023500Y027550D03*
X023500Y026550D03*
X023500Y025550D03*
X023500Y024550D03*
X023500Y023550D03*
X023500Y022550D03*
X023500Y021550D03*
X023500Y020550D03*
X023500Y019550D03*
X023500Y018550D03*
X023500Y017550D03*
X023500Y016550D03*
X023500Y015550D03*
X023500Y014550D03*
X023500Y013550D03*
X023500Y012550D03*
X023500Y011550D03*
X023500Y010550D03*
X013500Y010550D03*
X013500Y011550D03*
X013500Y012550D03*
X013500Y013550D03*
X013500Y014550D03*
X013500Y015550D03*
X013500Y016550D03*
X013500Y017550D03*
X013500Y018550D03*
X013500Y019550D03*
X013500Y020550D03*
X013500Y021550D03*
X013500Y022550D03*
X013500Y023550D03*
X013500Y024550D03*
X013500Y025550D03*
X013500Y026550D03*
X013500Y027550D03*
X013500Y028550D03*
X013500Y029550D03*
X013500Y030550D03*
X013500Y031550D03*
X013500Y032550D03*
X013500Y033550D03*
X013500Y034550D03*
X013500Y035550D03*
X013500Y036550D03*
X013500Y037550D03*
X013500Y038550D03*
X013500Y039550D03*
X013500Y040550D03*
X013500Y041550D03*
X011500Y041550D03*
X011500Y040550D03*
X011500Y039550D03*
X011500Y038550D03*
X011500Y037550D03*
X011500Y036550D03*
X011500Y035550D03*
X011500Y034550D03*
X011500Y033550D03*
X011500Y032550D03*
X011500Y031550D03*
X011500Y030550D03*
X011500Y029550D03*
X011500Y028550D03*
X011500Y027550D03*
X011500Y026550D03*
X011500Y025550D03*
X011500Y024550D03*
X011500Y023550D03*
X011500Y022550D03*
X011500Y021550D03*
X011500Y020550D03*
X011500Y019550D03*
X011500Y018550D03*
X011500Y017550D03*
X011500Y016550D03*
X011500Y015550D03*
X011500Y014550D03*
X011500Y013550D03*
X011500Y012550D03*
X011500Y011550D03*
X011500Y010550D03*
D17*
X001005Y004000D02*
X001005Y048000D01*
X041000Y048000D01*
X041000Y041580D01*
X040760Y041580D01*
X040500Y041320D01*
X040240Y041580D01*
X039760Y041580D01*
X039420Y041240D01*
X039420Y040760D01*
X039680Y040500D01*
X039420Y040240D01*
X039420Y039760D01*
X039680Y039500D01*
X039420Y039240D01*
X039420Y038760D01*
X039680Y038500D01*
X039420Y038240D01*
X039420Y037760D01*
X039680Y037500D01*
X039420Y037240D01*
X039420Y036760D01*
X039680Y036500D01*
X039420Y036240D01*
X039420Y035760D01*
X039680Y035500D01*
X039420Y035240D01*
X039420Y034760D01*
X039680Y034500D01*
X039420Y034240D01*
X039420Y033760D01*
X039760Y033420D01*
X040240Y033420D01*
X040500Y033680D01*
X040760Y033420D01*
X041000Y033420D01*
X041000Y015000D01*
X043000Y013000D01*
X049000Y013000D01*
X049000Y012568D01*
X048815Y012675D01*
X048543Y012748D01*
X048261Y012748D01*
X047988Y012675D01*
X047744Y012534D01*
X047545Y012334D01*
X047404Y012090D01*
X047331Y011818D01*
X047331Y011536D01*
X047404Y011264D01*
X047545Y011020D01*
X047744Y010821D01*
X047988Y010680D01*
X048261Y010607D01*
X048543Y010607D01*
X048815Y010680D01*
X049059Y010821D01*
X049238Y011000D01*
X052995Y011000D01*
X052995Y004000D01*
X001005Y004000D01*
X001005Y004146D02*
X052995Y004146D01*
X052995Y004304D02*
X001005Y004304D01*
X001005Y004463D02*
X052995Y004463D01*
X052995Y004621D02*
X001005Y004621D01*
X001005Y004780D02*
X052995Y004780D01*
X052995Y004938D02*
X001005Y004938D01*
X001005Y005097D02*
X052995Y005097D01*
X052995Y005255D02*
X048553Y005255D01*
X048543Y005252D02*
X048815Y005325D01*
X049059Y005466D01*
X049258Y005666D01*
X049399Y005910D01*
X049472Y006182D01*
X049472Y006464D01*
X049399Y006736D01*
X049258Y006980D01*
X049059Y007179D01*
X048815Y007320D01*
X048543Y007393D01*
X048261Y007393D01*
X047988Y007320D01*
X047744Y007179D01*
X047545Y006980D01*
X047404Y006736D01*
X047331Y006464D01*
X047331Y006182D01*
X047404Y005910D01*
X047545Y005666D01*
X047744Y005466D01*
X047988Y005325D01*
X048261Y005252D01*
X048543Y005252D01*
X048250Y005255D02*
X001005Y005255D01*
X001005Y005414D02*
X047835Y005414D01*
X047638Y005572D02*
X001005Y005572D01*
X001005Y005731D02*
X047507Y005731D01*
X047416Y005889D02*
X001005Y005889D01*
X001005Y006048D02*
X047367Y006048D01*
X047331Y006206D02*
X001005Y006206D01*
X001005Y006365D02*
X047331Y006365D01*
X047347Y006523D02*
X001005Y006523D01*
X001005Y006682D02*
X047389Y006682D01*
X047464Y006840D02*
X024873Y006840D01*
X025093Y006875D02*
X025093Y006875D01*
X025519Y007092D01*
X025519Y007092D01*
X025858Y007431D01*
X026075Y007857D01*
X026075Y007857D01*
X026150Y008330D01*
X026075Y008803D01*
X025858Y009229D01*
X025858Y009229D01*
X025519Y009568D01*
X025093Y009785D01*
X024620Y009860D01*
X024147Y009785D01*
X023721Y009568D01*
X023721Y009568D01*
X023382Y009229D01*
X023165Y008803D01*
X023165Y008803D01*
X023090Y008330D01*
X023090Y008330D01*
X023165Y007857D01*
X023382Y007431D01*
X023721Y007092D01*
X024147Y006875D01*
X024147Y006875D01*
X024620Y006800D01*
X025093Y006875D01*
X025335Y006999D02*
X047563Y006999D01*
X047722Y007157D02*
X025584Y007157D01*
X025743Y007316D02*
X036187Y007316D01*
X036244Y007300D02*
X036516Y007300D01*
X036778Y007370D01*
X037012Y007506D01*
X037204Y007698D01*
X037340Y007932D01*
X037410Y008194D01*
X037410Y008466D01*
X037340Y008728D01*
X037204Y008962D01*
X037012Y009154D01*
X036778Y009290D01*
X036516Y009360D01*
X036244Y009360D01*
X035982Y009290D01*
X035748Y009154D01*
X035556Y008962D01*
X035420Y008728D01*
X035350Y008466D01*
X035350Y008194D01*
X035420Y007932D01*
X035556Y007698D01*
X035748Y007506D01*
X035982Y007370D01*
X036244Y007300D01*
X036573Y007316D02*
X047980Y007316D01*
X048823Y007316D02*
X052995Y007316D01*
X052995Y007474D02*
X036957Y007474D01*
X037139Y007633D02*
X045754Y007633D01*
X045767Y007601D02*
X045845Y007522D01*
X045948Y007480D01*
X046886Y007480D01*
X046989Y007522D01*
X047068Y007601D01*
X047111Y007704D01*
X047111Y008642D01*
X047068Y008745D01*
X046989Y008824D01*
X046886Y008867D01*
X045948Y008867D01*
X045845Y008824D01*
X045767Y008745D01*
X045724Y008642D01*
X045724Y007704D01*
X045767Y007601D01*
X045724Y007791D02*
X037258Y007791D01*
X037344Y007950D02*
X045724Y007950D01*
X045724Y008108D02*
X037387Y008108D01*
X037410Y008267D02*
X045724Y008267D01*
X045724Y008425D02*
X037410Y008425D01*
X037378Y008584D02*
X045724Y008584D01*
X045765Y008742D02*
X037331Y008742D01*
X037240Y008901D02*
X052995Y008901D01*
X052995Y009059D02*
X037108Y009059D01*
X036903Y009218D02*
X045804Y009218D01*
X045767Y009255D02*
X045845Y009176D01*
X045948Y009133D01*
X046886Y009133D01*
X046989Y009176D01*
X047068Y009255D01*
X047111Y009358D01*
X047111Y010296D01*
X047068Y010399D01*
X046989Y010478D01*
X046886Y010520D01*
X045948Y010520D01*
X045845Y010478D01*
X045767Y010399D01*
X045724Y010296D01*
X045724Y009358D01*
X045767Y009255D01*
X045724Y009376D02*
X031987Y009376D01*
X031998Y009401D02*
X031998Y009599D01*
X031922Y009782D01*
X031782Y009922D01*
X031606Y009995D01*
X035263Y009995D01*
X035268Y009990D01*
X035732Y009990D01*
X035737Y009995D01*
X037263Y009995D01*
X037268Y009990D01*
X037732Y009990D01*
X037737Y009995D01*
X040741Y009995D01*
X040776Y009960D01*
X040853Y009960D01*
X040890Y009945D01*
X041110Y009945D01*
X041147Y009960D01*
X041224Y009960D01*
X041278Y010014D01*
X041314Y010029D01*
X041471Y010186D01*
X041486Y010222D01*
X041540Y010276D01*
X041540Y010353D01*
X041555Y010390D01*
X041555Y010660D01*
X041540Y010697D01*
X041540Y010724D01*
X041521Y010743D01*
X041471Y010864D01*
X041314Y011021D01*
X041110Y011105D01*
X037847Y011105D01*
X038060Y011318D01*
X038060Y011782D01*
X037792Y012050D01*
X038060Y012318D01*
X038060Y012782D01*
X037792Y013050D01*
X038060Y013318D01*
X038060Y013782D01*
X037792Y014050D01*
X038060Y014318D01*
X038060Y014782D01*
X037792Y015050D01*
X038060Y015318D01*
X038060Y015782D01*
X037792Y016050D01*
X038060Y016318D01*
X038060Y016782D01*
X037732Y017110D01*
X037268Y017110D01*
X036940Y016782D01*
X036940Y016318D01*
X037208Y016050D01*
X036940Y015782D01*
X036940Y015318D01*
X037208Y015050D01*
X036940Y014782D01*
X036940Y014318D01*
X037208Y014050D01*
X036940Y013782D01*
X036940Y013318D01*
X037208Y013050D01*
X036940Y012782D01*
X036940Y012318D01*
X037208Y012050D01*
X036940Y011782D01*
X036940Y011318D01*
X037153Y011105D01*
X035847Y011105D01*
X036060Y011318D01*
X036060Y011782D01*
X035792Y012050D01*
X036060Y012318D01*
X036060Y012782D01*
X035792Y013050D01*
X036060Y013318D01*
X036060Y013782D01*
X035792Y014050D01*
X036060Y014318D01*
X036060Y014782D01*
X035792Y015050D01*
X036060Y015318D01*
X036060Y015782D01*
X035792Y016050D01*
X036060Y016318D01*
X036060Y016782D01*
X035732Y017110D01*
X035268Y017110D01*
X034940Y016782D01*
X034940Y016318D01*
X035208Y016050D01*
X034940Y015782D01*
X034940Y015318D01*
X035208Y015050D01*
X034940Y014782D01*
X034940Y014318D01*
X035208Y014050D01*
X034940Y013782D01*
X034940Y013318D01*
X035208Y013050D01*
X034940Y012782D01*
X034940Y012318D01*
X035208Y012050D01*
X034940Y011782D01*
X034940Y011318D01*
X035153Y011105D01*
X025847Y011105D01*
X026060Y011318D01*
X026060Y011782D01*
X025792Y012050D01*
X026060Y012318D01*
X026060Y012782D01*
X025792Y013050D01*
X026060Y013318D01*
X026060Y013782D01*
X025792Y014050D01*
X026060Y014318D01*
X026060Y014782D01*
X025792Y015050D01*
X026060Y015318D01*
X026060Y015782D01*
X025792Y016050D01*
X026060Y016318D01*
X026060Y016782D01*
X025732Y017110D01*
X025268Y017110D01*
X024940Y016782D01*
X024940Y016318D01*
X025208Y016050D01*
X024940Y015782D01*
X024940Y015318D01*
X025208Y015050D01*
X024940Y014782D01*
X024940Y014318D01*
X025208Y014050D01*
X024940Y013782D01*
X024940Y013318D01*
X025208Y013050D01*
X024940Y012782D01*
X024940Y012318D01*
X025208Y012050D01*
X024940Y011782D01*
X024940Y011318D01*
X025153Y011105D01*
X023847Y011105D01*
X024060Y011318D01*
X024060Y011782D01*
X023792Y012050D01*
X024060Y012318D01*
X024060Y012782D01*
X023792Y013050D01*
X024060Y013318D01*
X024060Y013782D01*
X023792Y014050D01*
X024060Y014318D01*
X024060Y014782D01*
X023792Y015050D01*
X024060Y015318D01*
X024060Y015782D01*
X023792Y016050D01*
X024060Y016318D01*
X024060Y016782D01*
X023732Y017110D01*
X023268Y017110D01*
X022940Y016782D01*
X022940Y016318D01*
X023208Y016050D01*
X022940Y015782D01*
X022940Y015318D01*
X023208Y015050D01*
X022940Y014782D01*
X022940Y014318D01*
X023208Y014050D01*
X022940Y013782D01*
X022940Y013318D01*
X023208Y013050D01*
X022940Y012782D01*
X022940Y012318D01*
X023208Y012050D01*
X022940Y011782D01*
X022940Y011318D01*
X023153Y011105D01*
X013847Y011105D01*
X014060Y011318D01*
X014060Y011782D01*
X013792Y012050D01*
X014060Y012318D01*
X014060Y012782D01*
X013792Y013050D01*
X014060Y013318D01*
X014060Y013782D01*
X013792Y014050D01*
X014060Y014318D01*
X014060Y014782D01*
X013792Y015050D01*
X014060Y015318D01*
X014060Y015782D01*
X013792Y016050D01*
X014060Y016318D01*
X014060Y016782D01*
X013732Y017110D01*
X013268Y017110D01*
X012940Y016782D01*
X012940Y016318D01*
X013208Y016050D01*
X012940Y015782D01*
X012940Y015318D01*
X013208Y015050D01*
X012940Y014782D01*
X012940Y014318D01*
X013208Y014050D01*
X012940Y013782D01*
X012940Y013318D01*
X013208Y013050D01*
X012940Y012782D01*
X012940Y012318D01*
X013208Y012050D01*
X012940Y011782D01*
X012940Y011318D01*
X013153Y011105D01*
X011847Y011105D01*
X012060Y011318D01*
X012060Y011782D01*
X011792Y012050D01*
X012060Y012318D01*
X012060Y012782D01*
X011792Y013050D01*
X012060Y013318D01*
X012060Y013782D01*
X011792Y014050D01*
X012060Y014318D01*
X012060Y014782D01*
X011792Y015050D01*
X012060Y015318D01*
X012060Y015782D01*
X011792Y016050D01*
X012060Y016318D01*
X012060Y016782D01*
X011732Y017110D01*
X011268Y017110D01*
X010940Y016782D01*
X010940Y016318D01*
X011208Y016050D01*
X010940Y015782D01*
X010940Y015318D01*
X011208Y015050D01*
X010940Y014782D01*
X010940Y014318D01*
X011208Y014050D01*
X010940Y013782D01*
X010940Y013318D01*
X011208Y013050D01*
X010940Y012782D01*
X010940Y012318D01*
X011208Y012050D01*
X010940Y011782D01*
X010940Y011318D01*
X011208Y011050D01*
X010940Y010782D01*
X010940Y010318D01*
X011268Y009990D01*
X011732Y009990D01*
X011737Y009995D01*
X013263Y009995D01*
X013268Y009990D01*
X013732Y009990D01*
X013737Y009995D01*
X019394Y009995D01*
X019218Y009922D01*
X019078Y009782D01*
X019002Y009599D01*
X019002Y009401D01*
X019078Y009218D01*
X019218Y009078D01*
X019401Y009002D01*
X019599Y009002D01*
X019782Y009078D01*
X019922Y009218D01*
X019998Y009401D01*
X019998Y009599D01*
X019922Y009782D01*
X019782Y009922D01*
X019606Y009995D01*
X023263Y009995D01*
X023268Y009990D01*
X023732Y009990D01*
X023737Y009995D01*
X025263Y009995D01*
X025268Y009990D01*
X025732Y009990D01*
X025737Y009995D01*
X031394Y009995D01*
X031218Y009922D01*
X031078Y009782D01*
X031002Y009599D01*
X031002Y009401D01*
X031078Y009218D01*
X031218Y009078D01*
X031401Y009002D01*
X031599Y009002D01*
X031782Y009078D01*
X031922Y009218D01*
X031998Y009401D01*
X031998Y009535D02*
X045724Y009535D01*
X045724Y009693D02*
X031959Y009693D01*
X031852Y009852D02*
X045724Y009852D01*
X045724Y010010D02*
X041274Y010010D01*
X041453Y010169D02*
X045724Y010169D01*
X045737Y010327D02*
X041540Y010327D01*
X041555Y010486D02*
X045865Y010486D01*
X046970Y010486D02*
X052995Y010486D01*
X052995Y010644D02*
X048682Y010644D01*
X049028Y010803D02*
X052995Y010803D01*
X052995Y010961D02*
X049199Y010961D01*
X049500Y011500D02*
X052995Y011500D01*
X052995Y048000D01*
X041500Y048000D01*
X041500Y041320D01*
X041580Y041240D01*
X041580Y040760D01*
X041500Y040680D01*
X041500Y040320D01*
X041580Y040240D01*
X041580Y039760D01*
X041500Y039680D01*
X041500Y039320D01*
X041580Y039240D01*
X041580Y038760D01*
X041500Y038680D01*
X041500Y038320D01*
X041580Y038240D01*
X041580Y037760D01*
X041500Y037680D01*
X041500Y037320D01*
X041580Y037240D01*
X041580Y036760D01*
X041500Y036680D01*
X041500Y036320D01*
X041580Y036240D01*
X041580Y035760D01*
X041500Y035680D01*
X041500Y035320D01*
X041580Y035240D01*
X041580Y034760D01*
X041500Y034680D01*
X041500Y034320D01*
X041580Y034240D01*
X041580Y033760D01*
X041500Y033680D01*
X041500Y015500D01*
X043500Y013500D01*
X049500Y013500D01*
X049500Y011500D01*
X049500Y011595D02*
X052995Y011595D01*
X052995Y011754D02*
X049500Y011754D01*
X049500Y011912D02*
X052995Y011912D01*
X052995Y012071D02*
X049500Y012071D01*
X049500Y012229D02*
X052995Y012229D01*
X052995Y012388D02*
X049500Y012388D01*
X049500Y012546D02*
X052995Y012546D01*
X052995Y012705D02*
X049500Y012705D01*
X049500Y012863D02*
X052995Y012863D01*
X052995Y013022D02*
X049500Y013022D01*
X049500Y013180D02*
X052995Y013180D01*
X052995Y013339D02*
X049500Y013339D01*
X049500Y013497D02*
X052995Y013497D01*
X052995Y013656D02*
X052468Y013656D01*
X052455Y013624D02*
X052498Y013727D01*
X052498Y014273D01*
X052455Y014376D01*
X052376Y014455D01*
X052273Y014498D01*
X051727Y014498D01*
X051624Y014455D01*
X051545Y014376D01*
X051502Y014273D01*
X051502Y013727D01*
X051545Y013624D01*
X051624Y013545D01*
X051727Y013502D01*
X052273Y013502D01*
X052376Y013545D01*
X052455Y013624D01*
X052498Y013814D02*
X052995Y013814D01*
X052995Y013973D02*
X052498Y013973D01*
X052498Y014131D02*
X052995Y014131D01*
X052995Y014290D02*
X052491Y014290D01*
X052384Y014448D02*
X052995Y014448D01*
X052995Y014607D02*
X042393Y014607D01*
X042235Y014765D02*
X052995Y014765D01*
X052995Y014924D02*
X042076Y014924D01*
X041918Y015082D02*
X052995Y015082D01*
X052995Y015241D02*
X041759Y015241D01*
X041601Y015399D02*
X052995Y015399D01*
X052995Y015558D02*
X041500Y015558D01*
X041500Y015716D02*
X052995Y015716D01*
X052995Y015875D02*
X041500Y015875D01*
X041500Y016033D02*
X052995Y016033D01*
X052995Y016192D02*
X041500Y016192D01*
X041500Y016350D02*
X052995Y016350D01*
X052995Y016509D02*
X041500Y016509D01*
X041500Y016667D02*
X052995Y016667D01*
X052995Y016826D02*
X041500Y016826D01*
X041500Y016984D02*
X044730Y016984D01*
X044671Y017008D02*
X044885Y016920D01*
X045115Y016920D01*
X045329Y017008D01*
X045492Y017171D01*
X045500Y017191D01*
X045508Y017171D01*
X045671Y017008D01*
X045885Y016920D01*
X046115Y016920D01*
X046329Y017008D01*
X046492Y017171D01*
X046500Y017191D01*
X046508Y017171D01*
X046671Y017008D01*
X046885Y016920D01*
X047115Y016920D01*
X047329Y017008D01*
X047492Y017171D01*
X047500Y017191D01*
X047508Y017171D01*
X047671Y017008D01*
X047885Y016920D01*
X048115Y016920D01*
X048329Y017008D01*
X048492Y017171D01*
X048500Y017191D01*
X048508Y017171D01*
X048671Y017008D01*
X048885Y016920D01*
X049115Y016920D01*
X049329Y017008D01*
X049492Y017171D01*
X049580Y017385D01*
X049580Y017615D01*
X049492Y017829D01*
X049329Y017992D01*
X049115Y018080D01*
X048885Y018080D01*
X048671Y017992D01*
X048508Y017829D01*
X048500Y017809D01*
X048492Y017829D01*
X048329Y017992D01*
X048115Y018080D01*
X047885Y018080D01*
X047671Y017992D01*
X047508Y017829D01*
X047500Y017809D01*
X047492Y017829D01*
X047329Y017992D01*
X047115Y018080D01*
X046885Y018080D01*
X046671Y017992D01*
X046508Y017829D01*
X046500Y017809D01*
X046492Y017829D01*
X046329Y017992D01*
X046115Y018080D01*
X045885Y018080D01*
X045671Y017992D01*
X045508Y017829D01*
X045500Y017809D01*
X045492Y017829D01*
X045329Y017992D01*
X045115Y018080D01*
X044885Y018080D01*
X044671Y017992D01*
X044508Y017829D01*
X044480Y017760D01*
X044480Y017824D01*
X044468Y017869D01*
X044444Y017911D01*
X044411Y017944D01*
X044369Y017968D01*
X044324Y017980D01*
X044020Y017980D01*
X044020Y017520D01*
X043980Y017520D01*
X043980Y017980D01*
X043676Y017980D01*
X043631Y017968D01*
X043589Y017944D01*
X043556Y017911D01*
X043532Y017869D01*
X043520Y017824D01*
X043520Y017520D01*
X043980Y017520D01*
X043980Y017480D01*
X044020Y017480D01*
X044020Y017020D01*
X044324Y017020D01*
X044369Y017032D01*
X044411Y017056D01*
X044444Y017089D01*
X044468Y017131D01*
X044480Y017176D01*
X044480Y017240D01*
X044508Y017171D01*
X044671Y017008D01*
X044537Y017143D02*
X044471Y017143D01*
X044020Y017143D02*
X043980Y017143D01*
X043980Y017020D02*
X043980Y017480D01*
X043520Y017480D01*
X043520Y017176D01*
X043532Y017131D01*
X043556Y017089D01*
X043589Y017056D01*
X043631Y017032D01*
X043676Y017020D01*
X043980Y017020D01*
X043980Y017301D02*
X044020Y017301D01*
X044020Y017460D02*
X043980Y017460D01*
X043980Y017618D02*
X044020Y017618D01*
X044020Y017777D02*
X043980Y017777D01*
X043980Y017935D02*
X044020Y017935D01*
X044420Y017935D02*
X044615Y017935D01*
X044487Y017777D02*
X044480Y017777D01*
X043580Y017935D02*
X041500Y017935D01*
X041500Y017777D02*
X043520Y017777D01*
X043520Y017618D02*
X041500Y017618D01*
X041500Y017460D02*
X043520Y017460D01*
X043520Y017301D02*
X041500Y017301D01*
X041500Y017143D02*
X043529Y017143D01*
X045270Y016984D02*
X045730Y016984D01*
X045537Y017143D02*
X045463Y017143D01*
X045385Y017935D02*
X045615Y017935D01*
X046385Y017935D02*
X046615Y017935D01*
X046537Y017143D02*
X046463Y017143D01*
X046270Y016984D02*
X046730Y016984D01*
X047270Y016984D02*
X047730Y016984D01*
X047537Y017143D02*
X047463Y017143D01*
X047385Y017935D02*
X047615Y017935D01*
X048385Y017935D02*
X048615Y017935D01*
X048537Y017143D02*
X048463Y017143D01*
X048270Y016984D02*
X048730Y016984D01*
X049270Y016984D02*
X052995Y016984D01*
X052995Y017143D02*
X049463Y017143D01*
X049545Y017301D02*
X052995Y017301D01*
X052995Y017460D02*
X049580Y017460D01*
X049579Y017618D02*
X052995Y017618D01*
X052995Y017777D02*
X049513Y017777D01*
X049385Y017935D02*
X052995Y017935D01*
X052995Y018094D02*
X041500Y018094D01*
X041500Y018252D02*
X052995Y018252D01*
X052995Y018411D02*
X041500Y018411D01*
X041500Y018569D02*
X052995Y018569D01*
X052995Y018728D02*
X041500Y018728D01*
X041500Y018886D02*
X052995Y018886D01*
X052995Y019045D02*
X041500Y019045D01*
X041500Y019203D02*
X052995Y019203D01*
X052995Y019362D02*
X041500Y019362D01*
X041500Y019520D02*
X052995Y019520D01*
X052995Y019679D02*
X041500Y019679D01*
X041500Y019837D02*
X052995Y019837D01*
X052995Y019996D02*
X041500Y019996D01*
X041500Y020154D02*
X052995Y020154D01*
X052995Y020313D02*
X041500Y020313D01*
X041500Y020471D02*
X052995Y020471D01*
X052995Y020630D02*
X041500Y020630D01*
X041500Y020788D02*
X052995Y020788D01*
X052995Y020947D02*
X041500Y020947D01*
X041500Y021105D02*
X052995Y021105D01*
X052995Y021264D02*
X041500Y021264D01*
X041500Y021422D02*
X052995Y021422D01*
X052995Y021581D02*
X041500Y021581D01*
X041500Y021739D02*
X052995Y021739D01*
X052995Y021898D02*
X041500Y021898D01*
X041500Y022056D02*
X052995Y022056D01*
X052995Y022215D02*
X041500Y022215D01*
X041500Y022373D02*
X052995Y022373D01*
X052995Y022532D02*
X041500Y022532D01*
X041500Y022690D02*
X052995Y022690D01*
X052995Y022849D02*
X041500Y022849D01*
X041500Y023007D02*
X052995Y023007D01*
X052995Y023166D02*
X041500Y023166D01*
X041500Y023324D02*
X052995Y023324D01*
X052995Y023483D02*
X041500Y023483D01*
X041500Y023641D02*
X052995Y023641D01*
X052995Y023800D02*
X041500Y023800D01*
X041500Y023958D02*
X052995Y023958D01*
X052995Y024117D02*
X041500Y024117D01*
X041500Y024275D02*
X052995Y024275D01*
X052995Y024434D02*
X041500Y024434D01*
X041500Y024592D02*
X052995Y024592D01*
X052995Y024751D02*
X041500Y024751D01*
X041500Y024909D02*
X052995Y024909D01*
X052995Y025068D02*
X049388Y025068D01*
X049329Y025008D02*
X049492Y025171D01*
X049580Y025385D01*
X049580Y025615D01*
X049492Y025829D01*
X049329Y025992D01*
X049115Y026080D01*
X048885Y026080D01*
X048671Y025992D01*
X048508Y025829D01*
X048500Y025809D01*
X048492Y025829D01*
X048329Y025992D01*
X048115Y026080D01*
X047885Y026080D01*
X047671Y025992D01*
X047508Y025829D01*
X047500Y025809D01*
X047492Y025829D01*
X047329Y025992D01*
X047115Y026080D01*
X046885Y026080D01*
X046671Y025992D01*
X046508Y025829D01*
X046500Y025809D01*
X046492Y025829D01*
X046329Y025992D01*
X046115Y026080D01*
X045885Y026080D01*
X045671Y025992D01*
X045508Y025829D01*
X045446Y025679D01*
X045445Y025684D01*
X045411Y025752D01*
X045366Y025813D01*
X045313Y025866D01*
X045252Y025911D01*
X045184Y025945D01*
X045112Y025968D01*
X045038Y025980D01*
X045020Y025980D01*
X045020Y025520D01*
X044980Y025520D01*
X044980Y025980D01*
X044962Y025980D01*
X044888Y025968D01*
X044816Y025945D01*
X044748Y025911D01*
X044687Y025866D01*
X044634Y025813D01*
X044589Y025752D01*
X044555Y025684D01*
X044532Y025612D01*
X044520Y025538D01*
X044520Y025520D01*
X044980Y025520D01*
X044980Y025480D01*
X044520Y025480D01*
X044520Y025462D01*
X044532Y025388D01*
X044555Y025316D01*
X044589Y025248D01*
X044634Y025187D01*
X044687Y025134D01*
X044748Y025089D01*
X044816Y025055D01*
X044888Y025032D01*
X044962Y025020D01*
X044980Y025020D01*
X044980Y025480D01*
X045020Y025480D01*
X045020Y025020D01*
X045038Y025020D01*
X045112Y025032D01*
X045184Y025055D01*
X045252Y025089D01*
X045313Y025134D01*
X045366Y025187D01*
X045411Y025248D01*
X045445Y025316D01*
X045446Y025321D01*
X045508Y025171D01*
X045671Y025008D01*
X045885Y024920D01*
X046115Y024920D01*
X046329Y025008D01*
X046492Y025171D01*
X046500Y025191D01*
X046508Y025171D01*
X046671Y025008D01*
X046885Y024920D01*
X047115Y024920D01*
X047329Y025008D01*
X047492Y025171D01*
X047500Y025191D01*
X047508Y025171D01*
X047671Y025008D01*
X047885Y024920D01*
X048115Y024920D01*
X048329Y025008D01*
X048492Y025171D01*
X048500Y025191D01*
X048508Y025171D01*
X048671Y025008D01*
X048885Y024920D01*
X049115Y024920D01*
X049329Y025008D01*
X049514Y025226D02*
X052995Y025226D01*
X052995Y025385D02*
X049580Y025385D01*
X049580Y025543D02*
X052995Y025543D01*
X052995Y025702D02*
X049544Y025702D01*
X049460Y025860D02*
X052995Y025860D01*
X052995Y026019D02*
X049264Y026019D01*
X048736Y026019D02*
X048264Y026019D01*
X048460Y025860D02*
X048540Y025860D01*
X048612Y025068D02*
X048388Y025068D01*
X047612Y025068D02*
X047388Y025068D01*
X047460Y025860D02*
X047540Y025860D01*
X047736Y026019D02*
X047264Y026019D01*
X046736Y026019D02*
X046264Y026019D01*
X046460Y025860D02*
X046540Y025860D01*
X046612Y025068D02*
X046388Y025068D01*
X045612Y025068D02*
X045209Y025068D01*
X045020Y025068D02*
X044980Y025068D01*
X044980Y025226D02*
X045020Y025226D01*
X045020Y025385D02*
X044980Y025385D01*
X044980Y025543D02*
X045020Y025543D01*
X045020Y025702D02*
X044980Y025702D01*
X044980Y025860D02*
X045020Y025860D01*
X045319Y025860D02*
X045540Y025860D01*
X045456Y025702D02*
X045436Y025702D01*
X045736Y026019D02*
X041500Y026019D01*
X041500Y026177D02*
X052995Y026177D01*
X052995Y026336D02*
X041500Y026336D01*
X041500Y026494D02*
X052995Y026494D01*
X052995Y026653D02*
X041500Y026653D01*
X041500Y026811D02*
X052995Y026811D01*
X052995Y026970D02*
X041500Y026970D01*
X041500Y027128D02*
X052995Y027128D01*
X052995Y027287D02*
X041500Y027287D01*
X041500Y027445D02*
X052995Y027445D01*
X052995Y027604D02*
X041500Y027604D01*
X041500Y027762D02*
X052995Y027762D01*
X052995Y027921D02*
X041500Y027921D01*
X041500Y028079D02*
X052995Y028079D01*
X052995Y028238D02*
X041500Y028238D01*
X041500Y028396D02*
X052995Y028396D01*
X052995Y028555D02*
X050361Y028555D01*
X050323Y028517D02*
X050483Y028677D01*
X050570Y028887D01*
X050570Y029113D01*
X050483Y029323D01*
X050323Y029483D01*
X050282Y029500D01*
X050323Y029517D01*
X050483Y029677D01*
X050570Y029887D01*
X050570Y030113D01*
X050483Y030323D01*
X050323Y030483D01*
X050282Y030500D01*
X050323Y030517D01*
X050483Y030677D01*
X050570Y030887D01*
X050570Y031113D01*
X050483Y031323D01*
X050323Y031483D01*
X050282Y031500D01*
X050323Y031517D01*
X050483Y031677D01*
X050570Y031887D01*
X050570Y032113D01*
X050483Y032323D01*
X050323Y032483D01*
X050282Y032500D01*
X050323Y032517D01*
X052995Y032517D01*
X052995Y032359D02*
X050448Y032359D01*
X050534Y032200D02*
X052995Y032200D01*
X052995Y032042D02*
X050570Y032042D01*
X050569Y031883D02*
X052995Y031883D01*
X052995Y031725D02*
X050503Y031725D01*
X050372Y031566D02*
X052995Y031566D01*
X052995Y031408D02*
X050399Y031408D01*
X050514Y031249D02*
X052995Y031249D01*
X052995Y031091D02*
X050570Y031091D01*
X050570Y030932D02*
X052995Y030932D01*
X052995Y030774D02*
X050523Y030774D01*
X050421Y030615D02*
X052995Y030615D01*
X052995Y030457D02*
X050350Y030457D01*
X050494Y030298D02*
X052995Y030298D01*
X052995Y030140D02*
X050559Y030140D01*
X050570Y029981D02*
X052995Y029981D01*
X052995Y029823D02*
X050543Y029823D01*
X050470Y029664D02*
X052995Y029664D01*
X052995Y029506D02*
X050296Y029506D01*
X050459Y029347D02*
X052995Y029347D01*
X052995Y029189D02*
X050539Y029189D01*
X050570Y029030D02*
X052995Y029030D01*
X052995Y028872D02*
X050564Y028872D01*
X050498Y028713D02*
X052995Y028713D01*
X050323Y028517D02*
X050113Y028430D01*
X049887Y028430D01*
X049677Y028517D01*
X049517Y028677D01*
X049500Y028718D01*
X049483Y028677D01*
X049323Y028517D01*
X049113Y028430D01*
X048887Y028430D01*
X048677Y028517D01*
X048517Y028677D01*
X048500Y028718D01*
X048483Y028677D01*
X048323Y028517D01*
X048113Y028430D01*
X047887Y028430D01*
X047677Y028517D01*
X047517Y028677D01*
X047445Y028850D01*
X047436Y028820D01*
X047402Y028754D01*
X047358Y028694D01*
X047306Y028642D01*
X047246Y028598D01*
X047180Y028564D01*
X047110Y028542D01*
X047037Y028530D01*
X047015Y028530D01*
X047015Y028985D01*
X046985Y028985D01*
X046985Y028530D01*
X046963Y028530D01*
X046890Y028542D01*
X046820Y028564D01*
X046754Y028598D01*
X046694Y028642D01*
X046642Y028694D01*
X046598Y028754D01*
X046564Y028820D01*
X046555Y028850D01*
X046483Y028677D01*
X046323Y028517D01*
X046113Y028430D01*
X045887Y028430D01*
X045677Y028517D01*
X045517Y028677D01*
X045500Y028718D01*
X045483Y028677D01*
X045323Y028517D01*
X045113Y028430D01*
X044887Y028430D01*
X044677Y028517D01*
X044517Y028677D01*
X044500Y028718D01*
X044483Y028677D01*
X044323Y028517D01*
X044113Y028430D01*
X043887Y028430D01*
X043677Y028517D01*
X043517Y028677D01*
X043430Y028887D01*
X043430Y029113D01*
X043517Y029323D01*
X043677Y029483D01*
X043718Y029500D01*
X043677Y029517D01*
X043517Y029677D01*
X043430Y029887D01*
X043430Y030113D01*
X043517Y030323D01*
X043677Y030483D01*
X043718Y030500D01*
X043677Y030517D01*
X043517Y030677D01*
X043430Y030887D01*
X043430Y031113D01*
X043517Y031323D01*
X043677Y031483D01*
X043718Y031500D01*
X043677Y031517D01*
X043517Y031677D01*
X043430Y031887D01*
X043430Y032113D01*
X043517Y032323D01*
X043677Y032483D01*
X043718Y032500D01*
X043677Y032517D01*
X041500Y032517D01*
X041500Y032359D02*
X043552Y032359D01*
X043466Y032200D02*
X041500Y032200D01*
X041500Y032042D02*
X043430Y032042D01*
X043431Y031883D02*
X041500Y031883D01*
X041500Y031725D02*
X043497Y031725D01*
X043628Y031566D02*
X041500Y031566D01*
X041500Y031408D02*
X043601Y031408D01*
X043486Y031249D02*
X041500Y031249D01*
X041500Y031091D02*
X043430Y031091D01*
X043430Y030932D02*
X041500Y030932D01*
X041500Y030774D02*
X043477Y030774D01*
X043579Y030615D02*
X041500Y030615D01*
X041500Y030457D02*
X043650Y030457D01*
X043506Y030298D02*
X041500Y030298D01*
X041500Y030140D02*
X043441Y030140D01*
X043430Y029981D02*
X041500Y029981D01*
X041500Y029823D02*
X043457Y029823D01*
X043530Y029664D02*
X041500Y029664D01*
X041500Y029506D02*
X043704Y029506D01*
X043541Y029347D02*
X041500Y029347D01*
X041500Y029189D02*
X043461Y029189D01*
X043430Y029030D02*
X041500Y029030D01*
X041500Y028872D02*
X043436Y028872D01*
X043502Y028713D02*
X041500Y028713D01*
X041500Y028555D02*
X043639Y028555D01*
X044361Y028555D02*
X044639Y028555D01*
X044502Y028713D02*
X044498Y028713D01*
X044500Y029282D02*
X044483Y029323D01*
X044323Y029483D01*
X044282Y029500D01*
X044323Y029517D01*
X044483Y029677D01*
X044570Y029887D01*
X044570Y030113D01*
X044483Y030323D01*
X044323Y030483D01*
X044282Y030500D01*
X044323Y030517D01*
X044483Y030677D01*
X044570Y030887D01*
X044570Y031113D01*
X044483Y031323D01*
X044323Y031483D01*
X044282Y031500D01*
X044323Y031517D01*
X044483Y031677D01*
X044570Y031887D01*
X044570Y032113D01*
X044483Y032323D01*
X044323Y032483D01*
X044282Y032500D01*
X044323Y032517D01*
X045677Y032517D01*
X045718Y032500D01*
X045677Y032483D01*
X045517Y032323D01*
X045430Y032113D01*
X045430Y031887D01*
X045517Y031677D01*
X045677Y031517D01*
X045718Y031500D01*
X045677Y031483D01*
X045517Y031323D01*
X045430Y031113D01*
X045430Y030887D01*
X045517Y030677D01*
X045677Y030517D01*
X045718Y030500D01*
X045677Y030483D01*
X045517Y030323D01*
X045430Y030113D01*
X045430Y029887D01*
X045517Y029677D01*
X045677Y029517D01*
X045718Y029500D01*
X045677Y029483D01*
X045517Y029323D01*
X045500Y029282D01*
X045483Y029323D01*
X045323Y029483D01*
X045113Y029570D01*
X044887Y029570D01*
X044677Y029483D01*
X044517Y029323D01*
X044500Y029282D01*
X044459Y029347D02*
X044541Y029347D01*
X044731Y029506D02*
X044296Y029506D01*
X044470Y029664D02*
X045530Y029664D01*
X045457Y029823D02*
X044543Y029823D01*
X044570Y029981D02*
X045430Y029981D01*
X045441Y030140D02*
X044559Y030140D01*
X044494Y030298D02*
X045506Y030298D01*
X045650Y030457D02*
X044350Y030457D01*
X044421Y030615D02*
X045579Y030615D01*
X045477Y030774D02*
X044523Y030774D01*
X044570Y030932D02*
X045430Y030932D01*
X045430Y031091D02*
X044570Y031091D01*
X044514Y031249D02*
X045486Y031249D01*
X045601Y031408D02*
X044399Y031408D01*
X044372Y031566D02*
X045628Y031566D01*
X045497Y031725D02*
X044503Y031725D01*
X044569Y031883D02*
X045431Y031883D01*
X045430Y032042D02*
X044570Y032042D01*
X044534Y032200D02*
X045466Y032200D01*
X045552Y032359D02*
X044448Y032359D01*
X044323Y032517D02*
X044483Y032677D01*
X044570Y032887D01*
X044570Y033113D01*
X044483Y033323D01*
X044323Y033483D01*
X044282Y033500D01*
X044323Y033517D01*
X044483Y033677D01*
X044570Y033887D01*
X044570Y034113D01*
X044483Y034323D01*
X044323Y034483D01*
X044282Y034500D01*
X044323Y034517D01*
X044483Y034677D01*
X044570Y034887D01*
X044570Y035113D01*
X044483Y035323D01*
X044323Y035483D01*
X044282Y035500D01*
X044323Y035517D01*
X044483Y035677D01*
X044570Y035887D01*
X044570Y036113D01*
X044483Y036323D01*
X044323Y036483D01*
X044282Y036500D01*
X044323Y036517D01*
X044483Y036677D01*
X044500Y036718D01*
X044517Y036677D01*
X044677Y036517D01*
X044887Y036430D01*
X045113Y036430D01*
X045323Y036517D01*
X045483Y036677D01*
X045570Y036887D01*
X045570Y037113D01*
X045483Y037323D01*
X045323Y037483D01*
X045282Y037500D01*
X045323Y037517D01*
X045483Y037677D01*
X045570Y037887D01*
X045570Y038113D01*
X045483Y038323D01*
X045323Y038483D01*
X045282Y038500D01*
X045323Y038517D01*
X045483Y038677D01*
X045570Y038887D01*
X045570Y039113D01*
X045483Y039323D01*
X045323Y039483D01*
X045113Y039570D01*
X044887Y039570D01*
X044677Y039483D01*
X044517Y039323D01*
X044500Y039282D01*
X044483Y039323D01*
X044323Y039483D01*
X044282Y039500D01*
X044323Y039517D01*
X044483Y039677D01*
X044570Y039887D01*
X044570Y040113D01*
X044483Y040323D01*
X044323Y040483D01*
X044282Y040500D01*
X044323Y040517D01*
X044483Y040677D01*
X044500Y040718D01*
X044517Y040677D01*
X044677Y040517D01*
X044887Y040430D01*
X045113Y040430D01*
X045323Y040517D01*
X045483Y040677D01*
X045570Y040887D01*
X045570Y041113D01*
X045483Y041323D01*
X045323Y041483D01*
X045113Y041570D01*
X044887Y041570D01*
X044677Y041483D01*
X044517Y041323D01*
X044500Y041282D01*
X044483Y041323D01*
X044323Y041483D01*
X044282Y041500D01*
X044323Y041517D01*
X044483Y041677D01*
X044570Y041887D01*
X044570Y042113D01*
X044483Y042323D01*
X044323Y042483D01*
X044113Y042570D01*
X043887Y042570D01*
X043677Y042483D01*
X043517Y042323D01*
X043430Y042113D01*
X043430Y041887D01*
X043517Y041677D01*
X043677Y041517D01*
X043718Y041500D01*
X043677Y041483D01*
X043517Y041323D01*
X043430Y041113D01*
X043430Y040887D01*
X043517Y040677D01*
X043677Y040517D01*
X043718Y040500D01*
X043677Y040483D01*
X043517Y040323D01*
X043430Y040113D01*
X043430Y039887D01*
X043517Y039677D01*
X043677Y039517D01*
X043718Y039500D01*
X043677Y039483D01*
X043517Y039323D01*
X043430Y039113D01*
X043430Y038887D01*
X043517Y038677D01*
X043677Y038517D01*
X043718Y038500D01*
X043677Y038483D01*
X043517Y038323D01*
X043430Y038113D01*
X043430Y037887D01*
X043517Y037677D01*
X043677Y037517D01*
X043718Y037500D01*
X043677Y037483D01*
X043517Y037323D01*
X043430Y037113D01*
X043430Y036887D01*
X043517Y036677D01*
X043677Y036517D01*
X043718Y036500D01*
X043677Y036483D01*
X043517Y036323D01*
X043430Y036113D01*
X043430Y035887D01*
X043517Y035677D01*
X043677Y035517D01*
X043718Y035500D01*
X043677Y035483D01*
X043517Y035323D01*
X043430Y035113D01*
X043430Y034887D01*
X043517Y034677D01*
X043677Y034517D01*
X043718Y034500D01*
X043677Y034483D01*
X043517Y034323D01*
X043430Y034113D01*
X043430Y033887D01*
X043517Y033677D01*
X043677Y033517D01*
X043718Y033500D01*
X043677Y033483D01*
X043517Y033323D01*
X043430Y033113D01*
X043430Y032887D01*
X043517Y032677D01*
X043677Y032517D01*
X043518Y032676D02*
X041500Y032676D01*
X041500Y032834D02*
X043452Y032834D01*
X043430Y032993D02*
X041500Y032993D01*
X041500Y033151D02*
X043446Y033151D01*
X043511Y033310D02*
X041500Y033310D01*
X041500Y033468D02*
X043662Y033468D01*
X043567Y033627D02*
X041500Y033627D01*
X041580Y033785D02*
X043472Y033785D01*
X043430Y033944D02*
X041580Y033944D01*
X041580Y034102D02*
X043430Y034102D01*
X043491Y034261D02*
X041560Y034261D01*
X041500Y034419D02*
X043613Y034419D01*
X043616Y034578D02*
X041500Y034578D01*
X041556Y034736D02*
X043492Y034736D01*
X043430Y034895D02*
X041580Y034895D01*
X041580Y035053D02*
X043430Y035053D01*
X043471Y035212D02*
X041580Y035212D01*
X041500Y035370D02*
X043564Y035370D01*
X043665Y035529D02*
X041500Y035529D01*
X041507Y035687D02*
X043513Y035687D01*
X043447Y035846D02*
X041580Y035846D01*
X041580Y036004D02*
X043430Y036004D01*
X043450Y036163D02*
X041580Y036163D01*
X041500Y036321D02*
X043516Y036321D01*
X043673Y036480D02*
X041500Y036480D01*
X041500Y036638D02*
X043556Y036638D01*
X043467Y036797D02*
X041580Y036797D01*
X041580Y036955D02*
X043430Y036955D01*
X043430Y037114D02*
X041580Y037114D01*
X041548Y037272D02*
X043496Y037272D01*
X043624Y037431D02*
X041500Y037431D01*
X041500Y037589D02*
X043605Y037589D01*
X043488Y037748D02*
X041568Y037748D01*
X041580Y037906D02*
X043430Y037906D01*
X043430Y038065D02*
X041580Y038065D01*
X041580Y038223D02*
X043475Y038223D01*
X043575Y038382D02*
X041500Y038382D01*
X041500Y038540D02*
X043654Y038540D01*
X043508Y038699D02*
X041519Y038699D01*
X041580Y038857D02*
X043442Y038857D01*
X043430Y039016D02*
X041580Y039016D01*
X041580Y039174D02*
X043455Y039174D01*
X043526Y039333D02*
X041500Y039333D01*
X041500Y039491D02*
X043696Y039491D01*
X043544Y039650D02*
X041500Y039650D01*
X041580Y039808D02*
X043463Y039808D01*
X043430Y039967D02*
X041580Y039967D01*
X041580Y040125D02*
X043435Y040125D01*
X043500Y040284D02*
X041537Y040284D01*
X041500Y040442D02*
X043636Y040442D01*
X043593Y040601D02*
X041500Y040601D01*
X041579Y040759D02*
X043483Y040759D01*
X043430Y040918D02*
X041580Y040918D01*
X041580Y041076D02*
X043430Y041076D01*
X043480Y041235D02*
X041580Y041235D01*
X041500Y041393D02*
X043587Y041393D01*
X043642Y041552D02*
X041500Y041552D01*
X041500Y041710D02*
X043503Y041710D01*
X043437Y041869D02*
X041500Y041869D01*
X041500Y042027D02*
X043430Y042027D01*
X043460Y042186D02*
X041500Y042186D01*
X041500Y042344D02*
X043538Y042344D01*
X043724Y042503D02*
X041500Y042503D01*
X041500Y042661D02*
X052995Y042661D01*
X052995Y042503D02*
X044276Y042503D01*
X044462Y042344D02*
X049679Y042344D01*
X049694Y042358D02*
X049642Y042306D01*
X049598Y042246D01*
X049564Y042180D01*
X049542Y042110D01*
X049530Y042037D01*
X049530Y042015D01*
X049985Y042015D01*
X049985Y042470D01*
X049963Y042470D01*
X049890Y042458D01*
X049820Y042436D01*
X049754Y042402D01*
X049694Y042358D01*
X049567Y042186D02*
X044540Y042186D01*
X044570Y042027D02*
X049530Y042027D01*
X049530Y041985D02*
X049530Y041963D01*
X049542Y041890D01*
X049564Y041820D01*
X049598Y041754D01*
X049642Y041694D01*
X049694Y041642D01*
X049754Y041598D01*
X049820Y041564D01*
X049850Y041555D01*
X049677Y041483D01*
X049517Y041323D01*
X049430Y041113D01*
X049430Y040887D01*
X049517Y040677D01*
X049677Y040517D01*
X049718Y040500D01*
X049677Y040483D01*
X049517Y040323D01*
X049430Y040113D01*
X049430Y039887D01*
X049517Y039677D01*
X049677Y039517D01*
X049718Y039500D01*
X049677Y039483D01*
X049517Y039323D01*
X049430Y039113D01*
X049430Y038887D01*
X049517Y038677D01*
X049677Y038517D01*
X049718Y038500D01*
X049677Y038483D01*
X049517Y038323D01*
X049430Y038113D01*
X049430Y037887D01*
X049517Y037677D01*
X049677Y037517D01*
X049718Y037500D01*
X049677Y037483D01*
X049517Y037323D01*
X049430Y037113D01*
X049430Y036887D01*
X049517Y036677D01*
X049677Y036517D01*
X049718Y036500D01*
X049677Y036483D01*
X049517Y036323D01*
X049430Y036113D01*
X049430Y035887D01*
X049517Y035677D01*
X049677Y035517D01*
X049718Y035500D01*
X049677Y035483D01*
X049517Y035323D01*
X049430Y035113D01*
X049430Y034887D01*
X049517Y034677D01*
X049677Y034517D01*
X049718Y034500D01*
X049677Y034483D01*
X049517Y034323D01*
X049430Y034113D01*
X049430Y033887D01*
X049517Y033677D01*
X049677Y033517D01*
X049718Y033500D01*
X049677Y033483D01*
X049517Y033323D01*
X049430Y033113D01*
X049430Y032887D01*
X049517Y032677D01*
X049677Y032517D01*
X047323Y032517D01*
X047483Y032677D01*
X047570Y032887D01*
X047570Y033113D01*
X047483Y033323D01*
X047323Y033483D01*
X047282Y033500D01*
X047323Y033517D01*
X047483Y033677D01*
X047570Y033887D01*
X047570Y034113D01*
X047483Y034323D01*
X047323Y034483D01*
X047150Y034555D01*
X047180Y034564D01*
X047246Y034598D01*
X047306Y034642D01*
X047358Y034694D01*
X047402Y034754D01*
X047436Y034820D01*
X047458Y034890D01*
X047470Y034963D01*
X047470Y034985D01*
X047015Y034985D01*
X047015Y035015D01*
X047470Y035015D01*
X047470Y035037D01*
X047458Y035110D01*
X047436Y035180D01*
X047402Y035246D01*
X047358Y035306D01*
X047306Y035358D01*
X047246Y035402D01*
X047180Y035436D01*
X047150Y035445D01*
X047323Y035517D01*
X047483Y035677D01*
X047570Y035887D01*
X047570Y036113D01*
X047483Y036323D01*
X047323Y036483D01*
X047113Y036570D01*
X046887Y036570D01*
X046677Y036483D01*
X046517Y036323D01*
X046500Y036282D01*
X046483Y036323D01*
X046323Y036483D01*
X046113Y036570D01*
X045887Y036570D01*
X045677Y036483D01*
X045517Y036323D01*
X045430Y036113D01*
X045430Y035887D01*
X045517Y035677D01*
X045677Y035517D01*
X045718Y035500D01*
X045677Y035483D01*
X045517Y035323D01*
X045430Y035113D01*
X045430Y034887D01*
X045517Y034677D01*
X045677Y034517D01*
X045718Y034500D01*
X045677Y034483D01*
X045517Y034323D01*
X045430Y034113D01*
X045430Y033887D01*
X045517Y033677D01*
X045677Y033517D01*
X045718Y033500D01*
X045677Y033483D01*
X045517Y033323D01*
X045430Y033113D01*
X045430Y032887D01*
X045517Y032677D01*
X045677Y032517D01*
X045518Y032676D02*
X044482Y032676D01*
X044548Y032834D02*
X045452Y032834D01*
X045430Y032993D02*
X044570Y032993D01*
X044554Y033151D02*
X045446Y033151D01*
X045511Y033310D02*
X044489Y033310D01*
X044338Y033468D02*
X045662Y033468D01*
X045567Y033627D02*
X044433Y033627D01*
X044528Y033785D02*
X045472Y033785D01*
X045430Y033944D02*
X044570Y033944D01*
X044570Y034102D02*
X045430Y034102D01*
X045491Y034261D02*
X044509Y034261D01*
X044387Y034419D02*
X045613Y034419D01*
X045616Y034578D02*
X044384Y034578D01*
X044508Y034736D02*
X045492Y034736D01*
X045430Y034895D02*
X044570Y034895D01*
X044570Y035053D02*
X045430Y035053D01*
X045471Y035212D02*
X044529Y035212D01*
X044436Y035370D02*
X045564Y035370D01*
X045665Y035529D02*
X044335Y035529D01*
X044487Y035687D02*
X045513Y035687D01*
X045447Y035846D02*
X044553Y035846D01*
X044570Y036004D02*
X045430Y036004D01*
X045450Y036163D02*
X044550Y036163D01*
X044484Y036321D02*
X045516Y036321D01*
X045673Y036480D02*
X045233Y036480D01*
X045444Y036638D02*
X049556Y036638D01*
X049467Y036797D02*
X045533Y036797D01*
X045570Y036955D02*
X049430Y036955D01*
X049430Y037114D02*
X045570Y037114D01*
X045504Y037272D02*
X049496Y037272D01*
X049624Y037431D02*
X045376Y037431D01*
X045395Y037589D02*
X049605Y037589D01*
X049488Y037748D02*
X045512Y037748D01*
X045570Y037906D02*
X049430Y037906D01*
X049430Y038065D02*
X045570Y038065D01*
X045525Y038223D02*
X049475Y038223D01*
X049575Y038382D02*
X045425Y038382D01*
X045346Y038540D02*
X049654Y038540D01*
X049508Y038699D02*
X045492Y038699D01*
X045558Y038857D02*
X049442Y038857D01*
X049430Y039016D02*
X045570Y039016D01*
X045545Y039174D02*
X049455Y039174D01*
X049526Y039333D02*
X045474Y039333D01*
X045304Y039491D02*
X049696Y039491D01*
X049544Y039650D02*
X044456Y039650D01*
X044537Y039808D02*
X049463Y039808D01*
X049430Y039967D02*
X044570Y039967D01*
X044565Y040125D02*
X049435Y040125D01*
X049500Y040284D02*
X044500Y040284D01*
X044364Y040442D02*
X044857Y040442D01*
X045143Y040442D02*
X049636Y040442D01*
X049593Y040601D02*
X045407Y040601D01*
X045517Y040759D02*
X049483Y040759D01*
X049430Y040918D02*
X045570Y040918D01*
X045570Y041076D02*
X049430Y041076D01*
X049480Y041235D02*
X045520Y041235D01*
X045413Y041393D02*
X049587Y041393D01*
X049842Y041552D02*
X045158Y041552D01*
X044842Y041552D02*
X044358Y041552D01*
X044413Y041393D02*
X044587Y041393D01*
X044497Y041710D02*
X049630Y041710D01*
X049549Y041869D02*
X044563Y041869D01*
X044593Y040601D02*
X044407Y040601D01*
X044304Y039491D02*
X044696Y039491D01*
X044526Y039333D02*
X044474Y039333D01*
X044444Y036638D02*
X044556Y036638D01*
X044767Y036480D02*
X044327Y036480D01*
X046327Y036480D02*
X046673Y036480D01*
X046516Y036321D02*
X046484Y036321D01*
X047327Y036480D02*
X049673Y036480D01*
X049516Y036321D02*
X047484Y036321D01*
X047550Y036163D02*
X049450Y036163D01*
X049430Y036004D02*
X047570Y036004D01*
X047553Y035846D02*
X049447Y035846D01*
X049513Y035687D02*
X047487Y035687D01*
X047335Y035529D02*
X049665Y035529D01*
X049564Y035370D02*
X047290Y035370D01*
X047420Y035212D02*
X049471Y035212D01*
X049430Y035053D02*
X047467Y035053D01*
X047459Y034895D02*
X049430Y034895D01*
X049492Y034736D02*
X047389Y034736D01*
X047206Y034578D02*
X049616Y034578D01*
X049613Y034419D02*
X047387Y034419D01*
X047509Y034261D02*
X049491Y034261D01*
X049430Y034102D02*
X047570Y034102D01*
X047570Y033944D02*
X049430Y033944D01*
X049472Y033785D02*
X047528Y033785D01*
X047433Y033627D02*
X049567Y033627D01*
X049662Y033468D02*
X047338Y033468D01*
X047489Y033310D02*
X049511Y033310D01*
X049446Y033151D02*
X047554Y033151D01*
X047570Y032993D02*
X049430Y032993D01*
X049452Y032834D02*
X047548Y032834D01*
X047482Y032676D02*
X049518Y032676D01*
X049677Y032517D02*
X049718Y032500D01*
X049677Y032483D01*
X049517Y032323D01*
X049430Y032113D01*
X049430Y031887D01*
X049517Y031677D01*
X049677Y031517D01*
X049718Y031500D01*
X049677Y031483D01*
X049517Y031323D01*
X049430Y031113D01*
X049430Y030887D01*
X049517Y030677D01*
X049677Y030517D01*
X049718Y030500D01*
X049677Y030483D01*
X049517Y030323D01*
X049430Y030113D01*
X049430Y029887D01*
X049517Y029677D01*
X049677Y029517D01*
X049718Y029500D01*
X049677Y029483D01*
X049517Y029323D01*
X049500Y029282D01*
X049483Y029323D01*
X049323Y029483D01*
X049113Y029570D01*
X048887Y029570D01*
X048677Y029483D01*
X048517Y029323D01*
X048500Y029282D01*
X048483Y029323D01*
X048323Y029483D01*
X048113Y029570D01*
X047887Y029570D01*
X047677Y029483D01*
X047517Y029323D01*
X047445Y029150D01*
X047436Y029180D01*
X047402Y029246D01*
X047358Y029306D01*
X047306Y029358D01*
X047246Y029402D01*
X047180Y029436D01*
X047150Y029445D01*
X047323Y029517D01*
X047483Y029677D01*
X047570Y029887D01*
X047570Y030113D01*
X047483Y030323D01*
X047323Y030483D01*
X047282Y030500D01*
X047323Y030517D01*
X047483Y030677D01*
X047570Y030887D01*
X047570Y031113D01*
X047483Y031323D01*
X047323Y031483D01*
X047282Y031500D01*
X047323Y031517D01*
X047483Y031677D01*
X047570Y031887D01*
X047570Y032113D01*
X047483Y032323D01*
X047323Y032483D01*
X047282Y032500D01*
X047323Y032517D01*
X047448Y032359D02*
X049552Y032359D01*
X049466Y032200D02*
X047534Y032200D01*
X047570Y032042D02*
X049430Y032042D01*
X049431Y031883D02*
X047569Y031883D01*
X047503Y031725D02*
X049497Y031725D01*
X049628Y031566D02*
X047372Y031566D01*
X047399Y031408D02*
X049601Y031408D01*
X049486Y031249D02*
X047514Y031249D01*
X047570Y031091D02*
X049430Y031091D01*
X049430Y030932D02*
X047570Y030932D01*
X047523Y030774D02*
X049477Y030774D01*
X049579Y030615D02*
X047421Y030615D01*
X047350Y030457D02*
X049650Y030457D01*
X049506Y030298D02*
X047494Y030298D01*
X047559Y030140D02*
X049441Y030140D01*
X049430Y029981D02*
X047570Y029981D01*
X047543Y029823D02*
X049457Y029823D01*
X049530Y029664D02*
X047470Y029664D01*
X047296Y029506D02*
X047731Y029506D01*
X047541Y029347D02*
X047318Y029347D01*
X047431Y029189D02*
X047461Y029189D01*
X047502Y028713D02*
X047372Y028713D01*
X047150Y028555D02*
X047639Y028555D01*
X047015Y028555D02*
X046985Y028555D01*
X046850Y028555D02*
X046361Y028555D01*
X046498Y028713D02*
X046628Y028713D01*
X046985Y028713D02*
X047015Y028713D01*
X047015Y028872D02*
X046985Y028872D01*
X045639Y028555D02*
X045361Y028555D01*
X045498Y028713D02*
X045502Y028713D01*
X045459Y029347D02*
X045541Y029347D01*
X045704Y029506D02*
X045269Y029506D01*
X048269Y029506D02*
X048731Y029506D01*
X048541Y029347D02*
X048459Y029347D01*
X048498Y028713D02*
X048502Y028713D01*
X048639Y028555D02*
X048361Y028555D01*
X049361Y028555D02*
X049639Y028555D01*
X049502Y028713D02*
X049498Y028713D01*
X049459Y029347D02*
X049541Y029347D01*
X049704Y029506D02*
X049269Y029506D01*
X050323Y032517D02*
X050483Y032677D01*
X050570Y032887D01*
X050570Y033113D01*
X050483Y033323D01*
X050323Y033483D01*
X050282Y033500D01*
X050323Y033517D01*
X050483Y033677D01*
X050570Y033887D01*
X050570Y034113D01*
X050483Y034323D01*
X050323Y034483D01*
X050282Y034500D01*
X050323Y034517D01*
X050483Y034677D01*
X050570Y034887D01*
X050570Y035113D01*
X050483Y035323D01*
X050323Y035483D01*
X050282Y035500D01*
X050323Y035517D01*
X050483Y035677D01*
X050570Y035887D01*
X050570Y036113D01*
X050483Y036323D01*
X050323Y036483D01*
X050282Y036500D01*
X050323Y036517D01*
X050483Y036677D01*
X050570Y036887D01*
X050570Y037113D01*
X050483Y037323D01*
X050323Y037483D01*
X050282Y037500D01*
X050323Y037517D01*
X050483Y037677D01*
X050570Y037887D01*
X050570Y038113D01*
X050483Y038323D01*
X050323Y038483D01*
X050282Y038500D01*
X050323Y038517D01*
X050483Y038677D01*
X050570Y038887D01*
X050570Y039113D01*
X050483Y039323D01*
X050323Y039483D01*
X050282Y039500D01*
X050323Y039517D01*
X050483Y039677D01*
X050570Y039887D01*
X050570Y040113D01*
X050483Y040323D01*
X050323Y040483D01*
X050282Y040500D01*
X050323Y040517D01*
X050483Y040677D01*
X050570Y040887D01*
X050570Y041113D01*
X050483Y041323D01*
X050323Y041483D01*
X050150Y041555D01*
X050180Y041564D01*
X050246Y041598D01*
X050306Y041642D01*
X050358Y041694D01*
X050402Y041754D01*
X050436Y041820D01*
X050458Y041890D01*
X050470Y041963D01*
X050470Y041985D01*
X050015Y041985D01*
X050015Y042015D01*
X049985Y042015D01*
X049985Y041985D01*
X049530Y041985D01*
X049985Y042027D02*
X050015Y042027D01*
X050015Y042015D02*
X050015Y042470D01*
X050037Y042470D01*
X050110Y042458D01*
X050180Y042436D01*
X050246Y042402D01*
X050306Y042358D01*
X050358Y042306D01*
X050402Y042246D01*
X050436Y042180D01*
X050458Y042110D01*
X050470Y042037D01*
X050470Y042015D01*
X050015Y042015D01*
X050015Y042186D02*
X049985Y042186D01*
X049985Y042344D02*
X050015Y042344D01*
X050321Y042344D02*
X052995Y042344D01*
X052995Y042186D02*
X050433Y042186D01*
X050470Y042027D02*
X052995Y042027D01*
X052995Y041869D02*
X050451Y041869D01*
X050370Y041710D02*
X052995Y041710D01*
X052995Y041552D02*
X050158Y041552D01*
X050413Y041393D02*
X052995Y041393D01*
X052995Y041235D02*
X050520Y041235D01*
X050570Y041076D02*
X052995Y041076D01*
X052995Y040918D02*
X050570Y040918D01*
X050517Y040759D02*
X052995Y040759D01*
X052995Y040601D02*
X050407Y040601D01*
X050364Y040442D02*
X052995Y040442D01*
X052995Y040284D02*
X050500Y040284D01*
X050565Y040125D02*
X052995Y040125D01*
X052995Y039967D02*
X050570Y039967D01*
X050537Y039808D02*
X052995Y039808D01*
X052995Y039650D02*
X050456Y039650D01*
X050304Y039491D02*
X052995Y039491D01*
X052995Y039333D02*
X050474Y039333D01*
X050545Y039174D02*
X052995Y039174D01*
X052995Y039016D02*
X050570Y039016D01*
X050558Y038857D02*
X052995Y038857D01*
X052995Y038699D02*
X050492Y038699D01*
X050346Y038540D02*
X052995Y038540D01*
X052995Y038382D02*
X050425Y038382D01*
X050525Y038223D02*
X052995Y038223D01*
X052995Y038065D02*
X050570Y038065D01*
X050570Y037906D02*
X052995Y037906D01*
X052995Y037748D02*
X050512Y037748D01*
X050395Y037589D02*
X052995Y037589D01*
X052995Y037431D02*
X050376Y037431D01*
X050504Y037272D02*
X052995Y037272D01*
X052995Y037114D02*
X050570Y037114D01*
X050570Y036955D02*
X052995Y036955D01*
X052995Y036797D02*
X050533Y036797D01*
X050444Y036638D02*
X052995Y036638D01*
X052995Y036480D02*
X050327Y036480D01*
X050484Y036321D02*
X052995Y036321D01*
X052995Y036163D02*
X050550Y036163D01*
X050570Y036004D02*
X052995Y036004D01*
X052995Y035846D02*
X050553Y035846D01*
X050487Y035687D02*
X052995Y035687D01*
X052995Y035529D02*
X050335Y035529D01*
X050436Y035370D02*
X052995Y035370D01*
X052995Y035212D02*
X050529Y035212D01*
X050570Y035053D02*
X052995Y035053D01*
X052995Y034895D02*
X050570Y034895D01*
X050508Y034736D02*
X052995Y034736D01*
X052995Y034578D02*
X050384Y034578D01*
X050387Y034419D02*
X052995Y034419D01*
X052995Y034261D02*
X050509Y034261D01*
X050570Y034102D02*
X052995Y034102D01*
X052995Y033944D02*
X050570Y033944D01*
X050528Y033785D02*
X052995Y033785D01*
X052995Y033627D02*
X050433Y033627D01*
X050338Y033468D02*
X052995Y033468D01*
X052995Y033310D02*
X050489Y033310D01*
X050554Y033151D02*
X052995Y033151D01*
X052995Y032993D02*
X050570Y032993D01*
X050548Y032834D02*
X052995Y032834D01*
X052995Y032676D02*
X050482Y032676D01*
X044411Y025944D02*
X044369Y025968D01*
X044324Y025980D01*
X044020Y025980D01*
X044020Y025520D01*
X043980Y025520D01*
X043980Y025980D01*
X043676Y025980D01*
X043631Y025968D01*
X043589Y025944D01*
X043556Y025911D01*
X043532Y025869D01*
X043520Y025824D01*
X043520Y025520D01*
X043980Y025520D01*
X043980Y025480D01*
X044020Y025480D01*
X044020Y025520D01*
X044480Y025520D01*
X044480Y025824D01*
X044468Y025869D01*
X044444Y025911D01*
X044411Y025944D01*
X044470Y025860D02*
X044681Y025860D01*
X044564Y025702D02*
X044480Y025702D01*
X044480Y025543D02*
X044521Y025543D01*
X044480Y025480D02*
X044480Y025176D01*
X044468Y025131D01*
X044444Y025089D01*
X044411Y025056D01*
X044369Y025032D01*
X044324Y025020D01*
X044020Y025020D01*
X044020Y025480D01*
X044480Y025480D01*
X044480Y025385D02*
X044533Y025385D01*
X044480Y025226D02*
X044606Y025226D01*
X044422Y025068D02*
X044791Y025068D01*
X045394Y025226D02*
X045486Y025226D01*
X044020Y025226D02*
X043980Y025226D01*
X043980Y025068D02*
X044020Y025068D01*
X043980Y025020D02*
X043980Y025480D01*
X043520Y025480D01*
X043520Y025176D01*
X043532Y025131D01*
X043556Y025089D01*
X043589Y025056D01*
X043631Y025032D01*
X043676Y025020D01*
X043980Y025020D01*
X043980Y025385D02*
X044020Y025385D01*
X044020Y025543D02*
X043980Y025543D01*
X043980Y025702D02*
X044020Y025702D01*
X044020Y025860D02*
X043980Y025860D01*
X043530Y025860D02*
X041500Y025860D01*
X041500Y025702D02*
X043520Y025702D01*
X043520Y025543D02*
X041500Y025543D01*
X041500Y025385D02*
X043520Y025385D01*
X043520Y025226D02*
X041500Y025226D01*
X041500Y025068D02*
X043578Y025068D01*
X041000Y025068D02*
X037809Y025068D01*
X037792Y025050D02*
X038060Y025318D01*
X038060Y025782D01*
X037792Y026050D01*
X038060Y026318D01*
X038060Y026782D01*
X037792Y027050D01*
X038060Y027318D01*
X038060Y027782D01*
X037792Y028050D01*
X038060Y028318D01*
X038060Y028782D01*
X037792Y029050D01*
X038060Y029318D01*
X038060Y029782D01*
X037792Y030050D01*
X038060Y030318D01*
X038060Y030782D01*
X037792Y031050D01*
X038060Y031318D01*
X038060Y031782D01*
X037792Y032050D01*
X038060Y032318D01*
X038060Y032782D01*
X037792Y033050D01*
X038060Y033318D01*
X038060Y033782D01*
X037792Y034050D01*
X038060Y034318D01*
X038060Y034782D01*
X037792Y035050D01*
X038060Y035318D01*
X038060Y035782D01*
X037792Y036050D01*
X038060Y036318D01*
X038060Y036782D01*
X037792Y037050D01*
X038060Y037318D01*
X038060Y037782D01*
X037792Y038050D01*
X038060Y038318D01*
X038060Y038782D01*
X037792Y039050D01*
X038060Y039318D01*
X038060Y039782D01*
X037792Y040050D01*
X038060Y040318D01*
X038060Y040782D01*
X037732Y041110D01*
X037268Y041110D01*
X036940Y040782D01*
X036940Y040318D01*
X037208Y040050D01*
X036940Y039782D01*
X036940Y039318D01*
X037208Y039050D01*
X036940Y038782D01*
X036940Y038318D01*
X037208Y038050D01*
X036940Y037782D01*
X036940Y037318D01*
X037208Y037050D01*
X036940Y036782D01*
X036940Y036318D01*
X037208Y036050D01*
X036940Y035782D01*
X036940Y035318D01*
X037208Y035050D01*
X036940Y034782D01*
X036940Y034318D01*
X037208Y034050D01*
X036940Y033782D01*
X036940Y033318D01*
X037208Y033050D01*
X036940Y032782D01*
X036940Y032318D01*
X037208Y032050D01*
X036940Y031782D01*
X036940Y031318D01*
X037208Y031050D01*
X036940Y030782D01*
X036940Y030318D01*
X037208Y030050D01*
X036940Y029782D01*
X036940Y029318D01*
X037208Y029050D01*
X036940Y028782D01*
X036940Y028318D01*
X037208Y028050D01*
X036940Y027782D01*
X036940Y027318D01*
X037208Y027050D01*
X036940Y026782D01*
X036940Y026318D01*
X037208Y026050D01*
X036940Y025782D01*
X036940Y025318D01*
X037208Y025050D01*
X036940Y024782D01*
X036940Y024318D01*
X037208Y024050D01*
X036940Y023782D01*
X036940Y023318D01*
X037208Y023050D01*
X036940Y022782D01*
X036940Y022318D01*
X037208Y022050D01*
X036940Y021782D01*
X036940Y021318D01*
X037208Y021050D01*
X036940Y020782D01*
X036940Y020318D01*
X037208Y020050D01*
X036940Y019782D01*
X036940Y019318D01*
X037208Y019050D01*
X036940Y018782D01*
X036940Y018318D01*
X037268Y017990D01*
X037732Y017990D01*
X038060Y018318D01*
X038060Y018782D01*
X037792Y019050D01*
X038060Y019318D01*
X038060Y019782D01*
X037792Y020050D01*
X038060Y020318D01*
X038060Y020782D01*
X037792Y021050D01*
X038060Y021318D01*
X038060Y021782D01*
X037792Y022050D01*
X038060Y022318D01*
X038060Y022782D01*
X037792Y023050D01*
X038060Y023318D01*
X038060Y023782D01*
X037792Y024050D01*
X038060Y024318D01*
X038060Y024782D01*
X037792Y025050D01*
X037933Y024909D02*
X041000Y024909D01*
X041000Y024751D02*
X038060Y024751D01*
X038060Y024592D02*
X041000Y024592D01*
X041000Y024434D02*
X038060Y024434D01*
X038017Y024275D02*
X041000Y024275D01*
X041000Y024117D02*
X037858Y024117D01*
X037884Y023958D02*
X041000Y023958D01*
X041000Y023800D02*
X038042Y023800D01*
X038060Y023641D02*
X041000Y023641D01*
X041000Y023483D02*
X038060Y023483D01*
X038060Y023324D02*
X041000Y023324D01*
X041000Y023166D02*
X037907Y023166D01*
X037835Y023007D02*
X041000Y023007D01*
X041000Y022849D02*
X037993Y022849D01*
X038060Y022690D02*
X041000Y022690D01*
X041000Y022532D02*
X038060Y022532D01*
X038060Y022373D02*
X041000Y022373D01*
X041000Y022215D02*
X037956Y022215D01*
X037798Y022056D02*
X041000Y022056D01*
X041000Y021898D02*
X037944Y021898D01*
X038060Y021739D02*
X041000Y021739D01*
X041000Y021581D02*
X038060Y021581D01*
X038060Y021422D02*
X041000Y021422D01*
X041000Y021264D02*
X038005Y021264D01*
X037847Y021105D02*
X041000Y021105D01*
X041000Y020947D02*
X037895Y020947D01*
X038054Y020788D02*
X041000Y020788D01*
X041000Y020630D02*
X038060Y020630D01*
X038060Y020471D02*
X041000Y020471D01*
X041000Y020313D02*
X038054Y020313D01*
X037896Y020154D02*
X041000Y020154D01*
X041000Y019996D02*
X037846Y019996D01*
X038005Y019837D02*
X041000Y019837D01*
X041000Y019679D02*
X038060Y019679D01*
X038060Y019520D02*
X041000Y019520D01*
X041000Y019362D02*
X038060Y019362D01*
X037945Y019203D02*
X041000Y019203D01*
X041000Y019045D02*
X037797Y019045D01*
X037956Y018886D02*
X041000Y018886D01*
X041000Y018728D02*
X038060Y018728D01*
X038060Y018569D02*
X041000Y018569D01*
X041000Y018411D02*
X038060Y018411D01*
X037994Y018252D02*
X041000Y018252D01*
X041000Y018094D02*
X037835Y018094D01*
X037165Y018094D02*
X035835Y018094D01*
X035732Y017990D02*
X036060Y018318D01*
X036060Y018782D01*
X035792Y019050D01*
X036060Y019318D01*
X036060Y019782D01*
X035792Y020050D01*
X036060Y020318D01*
X036060Y020782D01*
X035792Y021050D01*
X036060Y021318D01*
X036060Y021782D01*
X035792Y022050D01*
X036060Y022318D01*
X036060Y022782D01*
X035792Y023050D01*
X036060Y023318D01*
X036060Y023782D01*
X035792Y024050D01*
X036060Y024318D01*
X036060Y024782D01*
X035792Y025050D01*
X036060Y025318D01*
X036060Y025782D01*
X035792Y026050D01*
X036060Y026318D01*
X036060Y026782D01*
X035792Y027050D01*
X036060Y027318D01*
X036060Y027782D01*
X035792Y028050D01*
X036060Y028318D01*
X036060Y028782D01*
X035792Y029050D01*
X036060Y029318D01*
X036060Y029782D01*
X035792Y030050D01*
X036060Y030318D01*
X036060Y030782D01*
X035792Y031050D01*
X036060Y031318D01*
X036060Y031782D01*
X035792Y032050D01*
X036060Y032318D01*
X036060Y032782D01*
X035792Y033050D01*
X036060Y033318D01*
X036060Y033782D01*
X035792Y034050D01*
X036060Y034318D01*
X036060Y034782D01*
X035792Y035050D01*
X036060Y035318D01*
X036060Y035782D01*
X035792Y036050D01*
X036060Y036318D01*
X036060Y036782D01*
X035792Y037050D01*
X036060Y037318D01*
X036060Y037782D01*
X035792Y038050D01*
X036060Y038318D01*
X036060Y038782D01*
X035792Y039050D01*
X036060Y039318D01*
X036060Y039782D01*
X035792Y040050D01*
X036060Y040318D01*
X036060Y040782D01*
X035732Y041110D01*
X035268Y041110D01*
X034940Y040782D01*
X034940Y040318D01*
X035208Y040050D01*
X034940Y039782D01*
X034940Y039318D01*
X035208Y039050D01*
X034940Y038782D01*
X034940Y038318D01*
X035208Y038050D01*
X034940Y037782D01*
X034940Y037318D01*
X035208Y037050D01*
X034940Y036782D01*
X034940Y036318D01*
X035208Y036050D01*
X034940Y035782D01*
X034940Y035318D01*
X035208Y035050D01*
X034940Y034782D01*
X034940Y034318D01*
X035208Y034050D01*
X034940Y033782D01*
X034940Y033318D01*
X035208Y033050D01*
X034940Y032782D01*
X034940Y032318D01*
X035208Y032050D01*
X034940Y031782D01*
X034940Y031318D01*
X035208Y031050D01*
X034940Y030782D01*
X034940Y030318D01*
X035208Y030050D01*
X034940Y029782D01*
X034940Y029318D01*
X035208Y029050D01*
X034940Y028782D01*
X034940Y028318D01*
X035208Y028050D01*
X034940Y027782D01*
X034940Y027318D01*
X035208Y027050D01*
X034940Y026782D01*
X034940Y026318D01*
X035208Y026050D01*
X034940Y025782D01*
X034940Y025318D01*
X035208Y025050D01*
X034940Y024782D01*
X034940Y024318D01*
X035208Y024050D01*
X034940Y023782D01*
X034940Y023318D01*
X035208Y023050D01*
X034940Y022782D01*
X034940Y022318D01*
X035208Y022050D01*
X034940Y021782D01*
X034940Y021318D01*
X035208Y021050D01*
X034940Y020782D01*
X034940Y020318D01*
X035208Y020050D01*
X034940Y019782D01*
X034940Y019318D01*
X035208Y019050D01*
X034940Y018782D01*
X034940Y018318D01*
X035268Y017990D01*
X035732Y017990D01*
X035994Y018252D02*
X037006Y018252D01*
X036940Y018411D02*
X036060Y018411D01*
X036060Y018569D02*
X036940Y018569D01*
X036940Y018728D02*
X036060Y018728D01*
X035956Y018886D02*
X037044Y018886D01*
X037203Y019045D02*
X035797Y019045D01*
X035945Y019203D02*
X037055Y019203D01*
X036940Y019362D02*
X036060Y019362D01*
X036060Y019520D02*
X036940Y019520D01*
X036940Y019679D02*
X036060Y019679D01*
X036005Y019837D02*
X036995Y019837D01*
X037154Y019996D02*
X035846Y019996D01*
X035896Y020154D02*
X037104Y020154D01*
X036946Y020313D02*
X036054Y020313D01*
X036060Y020471D02*
X036940Y020471D01*
X036940Y020630D02*
X036060Y020630D01*
X036054Y020788D02*
X036946Y020788D01*
X037105Y020947D02*
X035895Y020947D01*
X035847Y021105D02*
X037153Y021105D01*
X036995Y021264D02*
X036005Y021264D01*
X036060Y021422D02*
X036940Y021422D01*
X036940Y021581D02*
X036060Y021581D01*
X036060Y021739D02*
X036940Y021739D01*
X037056Y021898D02*
X035944Y021898D01*
X035798Y022056D02*
X037202Y022056D01*
X037044Y022215D02*
X035956Y022215D01*
X036060Y022373D02*
X036940Y022373D01*
X036940Y022532D02*
X036060Y022532D01*
X036060Y022690D02*
X036940Y022690D01*
X037007Y022849D02*
X035993Y022849D01*
X035835Y023007D02*
X037165Y023007D01*
X037093Y023166D02*
X035907Y023166D01*
X036060Y023324D02*
X036940Y023324D01*
X036940Y023483D02*
X036060Y023483D01*
X036060Y023641D02*
X036940Y023641D01*
X036958Y023800D02*
X036042Y023800D01*
X035884Y023958D02*
X037116Y023958D01*
X037142Y024117D02*
X035858Y024117D01*
X036017Y024275D02*
X036983Y024275D01*
X036940Y024434D02*
X036060Y024434D01*
X036060Y024592D02*
X036940Y024592D01*
X036940Y024751D02*
X036060Y024751D01*
X035933Y024909D02*
X037067Y024909D01*
X037191Y025068D02*
X035809Y025068D01*
X035968Y025226D02*
X037032Y025226D01*
X036940Y025385D02*
X036060Y025385D01*
X036060Y025543D02*
X036940Y025543D01*
X036940Y025702D02*
X036060Y025702D01*
X035982Y025860D02*
X037018Y025860D01*
X037177Y026019D02*
X035823Y026019D01*
X035919Y026177D02*
X037081Y026177D01*
X036940Y026336D02*
X036060Y026336D01*
X036060Y026494D02*
X036940Y026494D01*
X036940Y026653D02*
X036060Y026653D01*
X036031Y026811D02*
X036969Y026811D01*
X037128Y026970D02*
X035872Y026970D01*
X035870Y027128D02*
X037130Y027128D01*
X036971Y027287D02*
X036028Y027287D01*
X036060Y027445D02*
X036940Y027445D01*
X036940Y027604D02*
X036060Y027604D01*
X036060Y027762D02*
X036940Y027762D01*
X037079Y027921D02*
X035921Y027921D01*
X035821Y028079D02*
X037179Y028079D01*
X037020Y028238D02*
X035980Y028238D01*
X036060Y028396D02*
X036940Y028396D01*
X036940Y028555D02*
X036060Y028555D01*
X036060Y028713D02*
X036940Y028713D01*
X037030Y028872D02*
X035970Y028872D01*
X035812Y029030D02*
X037188Y029030D01*
X037069Y029189D02*
X035931Y029189D01*
X036060Y029347D02*
X036940Y029347D01*
X036940Y029506D02*
X036060Y029506D01*
X036060Y029664D02*
X036940Y029664D01*
X036981Y029823D02*
X036019Y029823D01*
X035861Y029981D02*
X037139Y029981D01*
X037118Y030140D02*
X035882Y030140D01*
X036040Y030298D02*
X036960Y030298D01*
X036940Y030457D02*
X036060Y030457D01*
X036060Y030615D02*
X036940Y030615D01*
X036940Y030774D02*
X036060Y030774D01*
X035910Y030932D02*
X037090Y030932D01*
X037167Y031091D02*
X035833Y031091D01*
X035991Y031249D02*
X037009Y031249D01*
X036940Y031408D02*
X036060Y031408D01*
X036060Y031566D02*
X036940Y031566D01*
X036940Y031725D02*
X036060Y031725D01*
X035959Y031883D02*
X037041Y031883D01*
X037200Y032042D02*
X035800Y032042D01*
X035942Y032200D02*
X037058Y032200D01*
X036940Y032359D02*
X036060Y032359D01*
X036060Y032517D02*
X036940Y032517D01*
X036940Y032676D02*
X036060Y032676D01*
X036008Y032834D02*
X036992Y032834D01*
X037151Y032993D02*
X035849Y032993D01*
X035893Y033151D02*
X037107Y033151D01*
X036948Y033310D02*
X036052Y033310D01*
X036060Y033468D02*
X036940Y033468D01*
X036940Y033627D02*
X036060Y033627D01*
X036057Y033785D02*
X036943Y033785D01*
X037102Y033944D02*
X035898Y033944D01*
X035844Y034102D02*
X037156Y034102D01*
X036997Y034261D02*
X036003Y034261D01*
X036060Y034419D02*
X036940Y034419D01*
X036940Y034578D02*
X036060Y034578D01*
X036060Y034736D02*
X036940Y034736D01*
X037053Y034895D02*
X035947Y034895D01*
X035795Y035053D02*
X037205Y035053D01*
X037046Y035212D02*
X035954Y035212D01*
X036060Y035370D02*
X036940Y035370D01*
X036940Y035529D02*
X036060Y035529D01*
X036060Y035687D02*
X036940Y035687D01*
X037004Y035846D02*
X035996Y035846D01*
X035838Y036004D02*
X037162Y036004D01*
X037095Y036163D02*
X035905Y036163D01*
X036060Y036321D02*
X036940Y036321D01*
X036940Y036480D02*
X036060Y036480D01*
X036060Y036638D02*
X036940Y036638D01*
X036955Y036797D02*
X036045Y036797D01*
X035887Y036955D02*
X037113Y036955D01*
X037144Y037114D02*
X035856Y037114D01*
X036014Y037272D02*
X036986Y037272D01*
X036940Y037431D02*
X036060Y037431D01*
X036060Y037589D02*
X036940Y037589D01*
X036940Y037748D02*
X036060Y037748D01*
X035936Y037906D02*
X037064Y037906D01*
X037193Y038065D02*
X035807Y038065D01*
X035965Y038223D02*
X037035Y038223D01*
X036940Y038382D02*
X036060Y038382D01*
X036060Y038540D02*
X036940Y038540D01*
X036940Y038699D02*
X036060Y038699D01*
X035985Y038857D02*
X037015Y038857D01*
X037174Y039016D02*
X035826Y039016D01*
X035916Y039174D02*
X037084Y039174D01*
X036940Y039333D02*
X036060Y039333D01*
X036060Y039491D02*
X036940Y039491D01*
X036940Y039650D02*
X036060Y039650D01*
X036034Y039808D02*
X036966Y039808D01*
X037125Y039967D02*
X035875Y039967D01*
X035867Y040125D02*
X037133Y040125D01*
X036974Y040284D02*
X036026Y040284D01*
X036060Y040442D02*
X036940Y040442D01*
X036940Y040601D02*
X036060Y040601D01*
X036060Y040759D02*
X036940Y040759D01*
X037076Y040918D02*
X035924Y040918D01*
X035766Y041076D02*
X037234Y041076D01*
X037766Y041076D02*
X039420Y041076D01*
X039420Y040918D02*
X037924Y040918D01*
X038060Y040759D02*
X039421Y040759D01*
X039579Y040601D02*
X038060Y040601D01*
X038060Y040442D02*
X039622Y040442D01*
X039463Y040284D02*
X038026Y040284D01*
X037867Y040125D02*
X039420Y040125D01*
X039420Y039967D02*
X037875Y039967D01*
X038034Y039808D02*
X039420Y039808D01*
X039530Y039650D02*
X038060Y039650D01*
X038060Y039491D02*
X039671Y039491D01*
X039512Y039333D02*
X038060Y039333D01*
X037916Y039174D02*
X039420Y039174D01*
X039420Y039016D02*
X037826Y039016D01*
X037985Y038857D02*
X039420Y038857D01*
X039481Y038699D02*
X038060Y038699D01*
X038060Y038540D02*
X039640Y038540D01*
X039561Y038382D02*
X038060Y038382D01*
X037965Y038223D02*
X039420Y038223D01*
X039420Y038065D02*
X037807Y038065D01*
X037936Y037906D02*
X039420Y037906D01*
X039432Y037748D02*
X038060Y037748D01*
X038060Y037589D02*
X039591Y037589D01*
X039610Y037431D02*
X038060Y037431D01*
X038014Y037272D02*
X039452Y037272D01*
X039420Y037114D02*
X037856Y037114D01*
X037887Y036955D02*
X039420Y036955D01*
X039420Y036797D02*
X038045Y036797D01*
X038060Y036638D02*
X039542Y036638D01*
X039659Y036480D02*
X038060Y036480D01*
X038060Y036321D02*
X039501Y036321D01*
X039420Y036163D02*
X037905Y036163D01*
X037838Y036004D02*
X039420Y036004D01*
X039420Y035846D02*
X037996Y035846D01*
X038060Y035687D02*
X039493Y035687D01*
X039651Y035529D02*
X038060Y035529D01*
X038060Y035370D02*
X039550Y035370D01*
X039420Y035212D02*
X037954Y035212D01*
X037795Y035053D02*
X039420Y035053D01*
X039420Y034895D02*
X037947Y034895D01*
X038060Y034736D02*
X039444Y034736D01*
X039602Y034578D02*
X038060Y034578D01*
X038060Y034419D02*
X039599Y034419D01*
X039440Y034261D02*
X038003Y034261D01*
X037844Y034102D02*
X039420Y034102D01*
X039420Y033944D02*
X037898Y033944D01*
X038057Y033785D02*
X039420Y033785D01*
X039553Y033627D02*
X038060Y033627D01*
X038060Y033468D02*
X039712Y033468D01*
X040288Y033468D02*
X040712Y033468D01*
X040553Y033627D02*
X040447Y033627D01*
X041000Y033310D02*
X038052Y033310D01*
X037893Y033151D02*
X041000Y033151D01*
X041000Y032993D02*
X037849Y032993D01*
X038008Y032834D02*
X041000Y032834D01*
X041000Y032676D02*
X038060Y032676D01*
X038060Y032517D02*
X041000Y032517D01*
X041000Y032359D02*
X038060Y032359D01*
X037942Y032200D02*
X041000Y032200D01*
X041000Y032042D02*
X037800Y032042D01*
X037959Y031883D02*
X041000Y031883D01*
X041000Y031725D02*
X038060Y031725D01*
X038060Y031566D02*
X041000Y031566D01*
X041000Y031408D02*
X038060Y031408D01*
X037991Y031249D02*
X041000Y031249D01*
X041000Y031091D02*
X037833Y031091D01*
X037910Y030932D02*
X041000Y030932D01*
X041000Y030774D02*
X038060Y030774D01*
X038060Y030615D02*
X041000Y030615D01*
X041000Y030457D02*
X038060Y030457D01*
X038040Y030298D02*
X041000Y030298D01*
X041000Y030140D02*
X037882Y030140D01*
X037861Y029981D02*
X041000Y029981D01*
X041000Y029823D02*
X038019Y029823D01*
X038060Y029664D02*
X041000Y029664D01*
X041000Y029506D02*
X038060Y029506D01*
X038060Y029347D02*
X041000Y029347D01*
X041000Y029189D02*
X037931Y029189D01*
X037812Y029030D02*
X041000Y029030D01*
X041000Y028872D02*
X037970Y028872D01*
X038060Y028713D02*
X041000Y028713D01*
X041000Y028555D02*
X038060Y028555D01*
X038060Y028396D02*
X041000Y028396D01*
X041000Y028238D02*
X037980Y028238D01*
X037821Y028079D02*
X041000Y028079D01*
X041000Y027921D02*
X037921Y027921D01*
X038060Y027762D02*
X041000Y027762D01*
X041000Y027604D02*
X038060Y027604D01*
X038060Y027445D02*
X041000Y027445D01*
X041000Y027287D02*
X038028Y027287D01*
X037870Y027128D02*
X041000Y027128D01*
X041000Y026970D02*
X037872Y026970D01*
X038031Y026811D02*
X041000Y026811D01*
X041000Y026653D02*
X038060Y026653D01*
X038060Y026494D02*
X041000Y026494D01*
X041000Y026336D02*
X038060Y026336D01*
X037919Y026177D02*
X041000Y026177D01*
X041000Y026019D02*
X037823Y026019D01*
X037982Y025860D02*
X041000Y025860D01*
X041000Y025702D02*
X038060Y025702D01*
X038060Y025543D02*
X041000Y025543D01*
X041000Y025385D02*
X038060Y025385D01*
X037968Y025226D02*
X041000Y025226D01*
X035191Y025068D02*
X025809Y025068D01*
X025792Y025050D02*
X026060Y025318D01*
X026060Y025782D01*
X025792Y026050D01*
X026060Y026318D01*
X026060Y026782D01*
X025792Y027050D01*
X026060Y027318D01*
X026060Y027782D01*
X025792Y028050D01*
X026060Y028318D01*
X026060Y028782D01*
X025792Y029050D01*
X026060Y029318D01*
X026060Y029782D01*
X025792Y030050D01*
X026060Y030318D01*
X026060Y030782D01*
X025792Y031050D01*
X026060Y031318D01*
X026060Y031782D01*
X025792Y032050D01*
X026060Y032318D01*
X026060Y032782D01*
X025792Y033050D01*
X026060Y033318D01*
X026060Y033782D01*
X025792Y034050D01*
X026060Y034318D01*
X026060Y034782D01*
X025792Y035050D01*
X026060Y035318D01*
X026060Y035782D01*
X025792Y036050D01*
X026060Y036318D01*
X026060Y036782D01*
X025792Y037050D01*
X026060Y037318D01*
X026060Y037782D01*
X025792Y038050D01*
X026060Y038318D01*
X026060Y038782D01*
X025792Y039050D01*
X026060Y039318D01*
X026060Y039782D01*
X025792Y040050D01*
X026060Y040318D01*
X026060Y040782D01*
X025732Y041110D01*
X025268Y041110D01*
X024940Y040782D01*
X024940Y040318D01*
X025208Y040050D01*
X024940Y039782D01*
X024940Y039318D01*
X025208Y039050D01*
X024940Y038782D01*
X024940Y038318D01*
X025208Y038050D01*
X024940Y037782D01*
X024940Y037318D01*
X025208Y037050D01*
X024940Y036782D01*
X024940Y036318D01*
X025208Y036050D01*
X024940Y035782D01*
X024940Y035318D01*
X025208Y035050D01*
X024940Y034782D01*
X024940Y034318D01*
X025208Y034050D01*
X024940Y033782D01*
X024940Y033318D01*
X025208Y033050D01*
X024940Y032782D01*
X024940Y032318D01*
X025208Y032050D01*
X024940Y031782D01*
X024940Y031318D01*
X025208Y031050D01*
X024940Y030782D01*
X024940Y030318D01*
X025208Y030050D01*
X024940Y029782D01*
X024940Y029318D01*
X025208Y029050D01*
X024940Y028782D01*
X024940Y028318D01*
X025208Y028050D01*
X024940Y027782D01*
X024940Y027318D01*
X025208Y027050D01*
X024940Y026782D01*
X024940Y026318D01*
X025208Y026050D01*
X024940Y025782D01*
X024940Y025318D01*
X025208Y025050D01*
X024940Y024782D01*
X024940Y024318D01*
X025208Y024050D01*
X024940Y023782D01*
X024940Y023318D01*
X025208Y023050D01*
X024940Y022782D01*
X024940Y022318D01*
X025208Y022050D01*
X024940Y021782D01*
X024940Y021318D01*
X025208Y021050D01*
X024940Y020782D01*
X024940Y020318D01*
X025208Y020050D01*
X024940Y019782D01*
X024940Y019318D01*
X025208Y019050D01*
X024940Y018782D01*
X024940Y018318D01*
X025268Y017990D01*
X025732Y017990D01*
X026060Y018318D01*
X026060Y018782D01*
X025792Y019050D01*
X026060Y019318D01*
X026060Y019782D01*
X025792Y020050D01*
X026060Y020318D01*
X026060Y020782D01*
X025792Y021050D01*
X026060Y021318D01*
X026060Y021782D01*
X025792Y022050D01*
X026060Y022318D01*
X026060Y022782D01*
X025792Y023050D01*
X026060Y023318D01*
X026060Y023782D01*
X025792Y024050D01*
X026060Y024318D01*
X026060Y024782D01*
X025792Y025050D01*
X025933Y024909D02*
X035067Y024909D01*
X034940Y024751D02*
X026060Y024751D01*
X026060Y024592D02*
X034940Y024592D01*
X034940Y024434D02*
X026060Y024434D01*
X026017Y024275D02*
X034983Y024275D01*
X035142Y024117D02*
X025858Y024117D01*
X025884Y023958D02*
X035116Y023958D01*
X034958Y023800D02*
X026042Y023800D01*
X026060Y023641D02*
X034940Y023641D01*
X034940Y023483D02*
X026060Y023483D01*
X026060Y023324D02*
X034940Y023324D01*
X035093Y023166D02*
X025907Y023166D01*
X025835Y023007D02*
X035165Y023007D01*
X035007Y022849D02*
X025993Y022849D01*
X026060Y022690D02*
X034940Y022690D01*
X034940Y022532D02*
X026060Y022532D01*
X026060Y022373D02*
X034940Y022373D01*
X035044Y022215D02*
X025956Y022215D01*
X025798Y022056D02*
X035202Y022056D01*
X035056Y021898D02*
X025944Y021898D01*
X026060Y021739D02*
X034940Y021739D01*
X034940Y021581D02*
X026060Y021581D01*
X026060Y021422D02*
X034940Y021422D01*
X034995Y021264D02*
X026005Y021264D01*
X025847Y021105D02*
X035153Y021105D01*
X035105Y020947D02*
X025895Y020947D01*
X026054Y020788D02*
X034946Y020788D01*
X034940Y020630D02*
X026060Y020630D01*
X026060Y020471D02*
X034940Y020471D01*
X034946Y020313D02*
X026054Y020313D01*
X025896Y020154D02*
X035104Y020154D01*
X035154Y019996D02*
X025846Y019996D01*
X026005Y019837D02*
X034995Y019837D01*
X034940Y019679D02*
X026060Y019679D01*
X026060Y019520D02*
X034940Y019520D01*
X034940Y019362D02*
X026060Y019362D01*
X025945Y019203D02*
X035055Y019203D01*
X035203Y019045D02*
X025797Y019045D01*
X025956Y018886D02*
X035044Y018886D01*
X034940Y018728D02*
X026060Y018728D01*
X026060Y018569D02*
X034940Y018569D01*
X034940Y018411D02*
X026060Y018411D01*
X025994Y018252D02*
X035006Y018252D01*
X035165Y018094D02*
X025835Y018094D01*
X025165Y018094D02*
X023835Y018094D01*
X023732Y017990D02*
X024060Y018318D01*
X024060Y018782D01*
X023792Y019050D01*
X024060Y019318D01*
X024060Y019782D01*
X023792Y020050D01*
X024060Y020318D01*
X024060Y020782D01*
X023792Y021050D01*
X024060Y021318D01*
X024060Y021782D01*
X023792Y022050D01*
X024060Y022318D01*
X024060Y022782D01*
X023792Y023050D01*
X024060Y023318D01*
X024060Y023782D01*
X023792Y024050D01*
X024060Y024318D01*
X024060Y024782D01*
X023792Y025050D01*
X024060Y025318D01*
X024060Y025782D01*
X023792Y026050D01*
X024060Y026318D01*
X024060Y026782D01*
X023792Y027050D01*
X024060Y027318D01*
X024060Y027782D01*
X023792Y028050D01*
X024060Y028318D01*
X024060Y028782D01*
X023792Y029050D01*
X024060Y029318D01*
X024060Y029782D01*
X023792Y030050D01*
X024060Y030318D01*
X024060Y030782D01*
X023792Y031050D01*
X024060Y031318D01*
X024060Y031782D01*
X023792Y032050D01*
X024060Y032318D01*
X024060Y032782D01*
X023792Y033050D01*
X024060Y033318D01*
X024060Y033782D01*
X023792Y034050D01*
X024060Y034318D01*
X024060Y034782D01*
X023792Y035050D01*
X024060Y035318D01*
X024060Y035782D01*
X023792Y036050D01*
X024060Y036318D01*
X024060Y036782D01*
X023792Y037050D01*
X024060Y037318D01*
X024060Y037782D01*
X023792Y038050D01*
X024060Y038318D01*
X024060Y038782D01*
X023792Y039050D01*
X024060Y039318D01*
X024060Y039782D01*
X023792Y040050D01*
X024060Y040318D01*
X024060Y040782D01*
X023732Y041110D01*
X023268Y041110D01*
X022940Y040782D01*
X022940Y040318D01*
X023208Y040050D01*
X022940Y039782D01*
X022940Y039318D01*
X023208Y039050D01*
X022940Y038782D01*
X022940Y038318D01*
X023208Y038050D01*
X022940Y037782D01*
X022940Y037318D01*
X023208Y037050D01*
X022940Y036782D01*
X022940Y036318D01*
X023208Y036050D01*
X022940Y035782D01*
X022940Y035318D01*
X023208Y035050D01*
X022940Y034782D01*
X022940Y034318D01*
X023208Y034050D01*
X022940Y033782D01*
X022940Y033318D01*
X023208Y033050D01*
X022940Y032782D01*
X022940Y032318D01*
X023208Y032050D01*
X022940Y031782D01*
X022940Y031318D01*
X023208Y031050D01*
X022940Y030782D01*
X022940Y030318D01*
X023208Y030050D01*
X022940Y029782D01*
X022940Y029318D01*
X023208Y029050D01*
X022940Y028782D01*
X022940Y028318D01*
X023208Y028050D01*
X022940Y027782D01*
X022940Y027318D01*
X023208Y027050D01*
X022940Y026782D01*
X022940Y026318D01*
X023208Y026050D01*
X022940Y025782D01*
X022940Y025318D01*
X023208Y025050D01*
X022940Y024782D01*
X022940Y024318D01*
X023208Y024050D01*
X022940Y023782D01*
X022940Y023318D01*
X023208Y023050D01*
X022940Y022782D01*
X022940Y022318D01*
X023208Y022050D01*
X022940Y021782D01*
X022940Y021318D01*
X023208Y021050D01*
X022940Y020782D01*
X022940Y020318D01*
X023208Y020050D01*
X022940Y019782D01*
X022940Y019318D01*
X023208Y019050D01*
X022940Y018782D01*
X022940Y018318D01*
X023268Y017990D01*
X023732Y017990D01*
X023994Y018252D02*
X025006Y018252D01*
X024940Y018411D02*
X024060Y018411D01*
X024060Y018569D02*
X024940Y018569D01*
X024940Y018728D02*
X024060Y018728D01*
X023956Y018886D02*
X025044Y018886D01*
X025203Y019045D02*
X023797Y019045D01*
X023945Y019203D02*
X025055Y019203D01*
X024940Y019362D02*
X024060Y019362D01*
X024060Y019520D02*
X024940Y019520D01*
X024940Y019679D02*
X024060Y019679D01*
X024005Y019837D02*
X024995Y019837D01*
X025154Y019996D02*
X023846Y019996D01*
X023896Y020154D02*
X025104Y020154D01*
X024946Y020313D02*
X024054Y020313D01*
X024060Y020471D02*
X024940Y020471D01*
X024940Y020630D02*
X024060Y020630D01*
X024054Y020788D02*
X024946Y020788D01*
X025105Y020947D02*
X023895Y020947D01*
X023847Y021105D02*
X025153Y021105D01*
X024995Y021264D02*
X024005Y021264D01*
X024060Y021422D02*
X024940Y021422D01*
X024940Y021581D02*
X024060Y021581D01*
X024060Y021739D02*
X024940Y021739D01*
X025056Y021898D02*
X023944Y021898D01*
X023798Y022056D02*
X025202Y022056D01*
X025044Y022215D02*
X023956Y022215D01*
X024060Y022373D02*
X024940Y022373D01*
X024940Y022532D02*
X024060Y022532D01*
X024060Y022690D02*
X024940Y022690D01*
X025007Y022849D02*
X023993Y022849D01*
X023835Y023007D02*
X025165Y023007D01*
X025093Y023166D02*
X023907Y023166D01*
X024060Y023324D02*
X024940Y023324D01*
X024940Y023483D02*
X024060Y023483D01*
X024060Y023641D02*
X024940Y023641D01*
X024958Y023800D02*
X024042Y023800D01*
X023884Y023958D02*
X025116Y023958D01*
X025142Y024117D02*
X023858Y024117D01*
X024017Y024275D02*
X024983Y024275D01*
X024940Y024434D02*
X024060Y024434D01*
X024060Y024592D02*
X024940Y024592D01*
X024940Y024751D02*
X024060Y024751D01*
X023933Y024909D02*
X025067Y024909D01*
X025191Y025068D02*
X023809Y025068D01*
X023968Y025226D02*
X025032Y025226D01*
X024940Y025385D02*
X024060Y025385D01*
X024060Y025543D02*
X024940Y025543D01*
X024940Y025702D02*
X024060Y025702D01*
X023982Y025860D02*
X025018Y025860D01*
X025177Y026019D02*
X023823Y026019D01*
X023919Y026177D02*
X025081Y026177D01*
X024940Y026336D02*
X024060Y026336D01*
X024060Y026494D02*
X024940Y026494D01*
X024940Y026653D02*
X024060Y026653D01*
X024031Y026811D02*
X024969Y026811D01*
X025128Y026970D02*
X023872Y026970D01*
X023870Y027128D02*
X025130Y027128D01*
X024971Y027287D02*
X024028Y027287D01*
X024060Y027445D02*
X024940Y027445D01*
X024940Y027604D02*
X024060Y027604D01*
X024060Y027762D02*
X024940Y027762D01*
X025079Y027921D02*
X023921Y027921D01*
X023821Y028079D02*
X025179Y028079D01*
X025020Y028238D02*
X023980Y028238D01*
X024060Y028396D02*
X024940Y028396D01*
X024940Y028555D02*
X024060Y028555D01*
X024060Y028713D02*
X024940Y028713D01*
X025030Y028872D02*
X023970Y028872D01*
X023812Y029030D02*
X025188Y029030D01*
X025069Y029189D02*
X023931Y029189D01*
X024060Y029347D02*
X024940Y029347D01*
X024940Y029506D02*
X024060Y029506D01*
X024060Y029664D02*
X024940Y029664D01*
X024981Y029823D02*
X024019Y029823D01*
X023861Y029981D02*
X025139Y029981D01*
X025118Y030140D02*
X023882Y030140D01*
X024040Y030298D02*
X024960Y030298D01*
X024940Y030457D02*
X024060Y030457D01*
X024060Y030615D02*
X024940Y030615D01*
X024940Y030774D02*
X024060Y030774D01*
X023910Y030932D02*
X025090Y030932D01*
X025167Y031091D02*
X023833Y031091D01*
X023991Y031249D02*
X025009Y031249D01*
X024940Y031408D02*
X024060Y031408D01*
X024060Y031566D02*
X024940Y031566D01*
X024940Y031725D02*
X024060Y031725D01*
X023959Y031883D02*
X025041Y031883D01*
X025200Y032042D02*
X023800Y032042D01*
X023942Y032200D02*
X025058Y032200D01*
X024940Y032359D02*
X024060Y032359D01*
X024060Y032517D02*
X024940Y032517D01*
X024940Y032676D02*
X024060Y032676D01*
X024008Y032834D02*
X024992Y032834D01*
X025151Y032993D02*
X023849Y032993D01*
X023893Y033151D02*
X025107Y033151D01*
X024948Y033310D02*
X024052Y033310D01*
X024060Y033468D02*
X024940Y033468D01*
X024940Y033627D02*
X024060Y033627D01*
X024057Y033785D02*
X024943Y033785D01*
X025102Y033944D02*
X023898Y033944D01*
X023844Y034102D02*
X025156Y034102D01*
X024997Y034261D02*
X024003Y034261D01*
X024060Y034419D02*
X024940Y034419D01*
X024940Y034578D02*
X024060Y034578D01*
X024060Y034736D02*
X024940Y034736D01*
X025053Y034895D02*
X023947Y034895D01*
X023795Y035053D02*
X025205Y035053D01*
X025046Y035212D02*
X023954Y035212D01*
X024060Y035370D02*
X024940Y035370D01*
X024940Y035529D02*
X024060Y035529D01*
X024060Y035687D02*
X024940Y035687D01*
X025004Y035846D02*
X023996Y035846D01*
X023838Y036004D02*
X025162Y036004D01*
X025095Y036163D02*
X023905Y036163D01*
X024060Y036321D02*
X024940Y036321D01*
X024940Y036480D02*
X024060Y036480D01*
X024060Y036638D02*
X024940Y036638D01*
X024955Y036797D02*
X024045Y036797D01*
X023887Y036955D02*
X025113Y036955D01*
X025144Y037114D02*
X023856Y037114D01*
X024014Y037272D02*
X024986Y037272D01*
X024940Y037431D02*
X024060Y037431D01*
X024060Y037589D02*
X024940Y037589D01*
X024940Y037748D02*
X024060Y037748D01*
X023936Y037906D02*
X025064Y037906D01*
X025193Y038065D02*
X023807Y038065D01*
X023965Y038223D02*
X025035Y038223D01*
X024940Y038382D02*
X024060Y038382D01*
X024060Y038540D02*
X024940Y038540D01*
X024940Y038699D02*
X024060Y038699D01*
X023985Y038857D02*
X025015Y038857D01*
X025174Y039016D02*
X023826Y039016D01*
X023916Y039174D02*
X025084Y039174D01*
X024940Y039333D02*
X024060Y039333D01*
X024060Y039491D02*
X024940Y039491D01*
X024940Y039650D02*
X024060Y039650D01*
X024034Y039808D02*
X024966Y039808D01*
X025125Y039967D02*
X023875Y039967D01*
X023867Y040125D02*
X025133Y040125D01*
X024974Y040284D02*
X024026Y040284D01*
X024060Y040442D02*
X024940Y040442D01*
X024940Y040601D02*
X024060Y040601D01*
X024060Y040759D02*
X024940Y040759D01*
X025076Y040918D02*
X023924Y040918D01*
X023766Y041076D02*
X025234Y041076D01*
X025766Y041076D02*
X035234Y041076D01*
X035076Y040918D02*
X025924Y040918D01*
X026060Y040759D02*
X034940Y040759D01*
X034940Y040601D02*
X026060Y040601D01*
X026060Y040442D02*
X034940Y040442D01*
X034974Y040284D02*
X026026Y040284D01*
X025867Y040125D02*
X035133Y040125D01*
X035125Y039967D02*
X025875Y039967D01*
X026034Y039808D02*
X034966Y039808D01*
X034940Y039650D02*
X026060Y039650D01*
X026060Y039491D02*
X034940Y039491D01*
X034940Y039333D02*
X026060Y039333D01*
X025916Y039174D02*
X035084Y039174D01*
X035174Y039016D02*
X025826Y039016D01*
X025985Y038857D02*
X035015Y038857D01*
X034940Y038699D02*
X026060Y038699D01*
X026060Y038540D02*
X034940Y038540D01*
X034940Y038382D02*
X026060Y038382D01*
X025965Y038223D02*
X035035Y038223D01*
X035193Y038065D02*
X025807Y038065D01*
X025936Y037906D02*
X035064Y037906D01*
X034940Y037748D02*
X026060Y037748D01*
X026060Y037589D02*
X034940Y037589D01*
X034940Y037431D02*
X026060Y037431D01*
X026014Y037272D02*
X034986Y037272D01*
X035144Y037114D02*
X025856Y037114D01*
X025887Y036955D02*
X035113Y036955D01*
X034955Y036797D02*
X026045Y036797D01*
X026060Y036638D02*
X034940Y036638D01*
X034940Y036480D02*
X026060Y036480D01*
X026060Y036321D02*
X034940Y036321D01*
X035095Y036163D02*
X025905Y036163D01*
X025838Y036004D02*
X035162Y036004D01*
X035004Y035846D02*
X025996Y035846D01*
X026060Y035687D02*
X034940Y035687D01*
X034940Y035529D02*
X026060Y035529D01*
X026060Y035370D02*
X034940Y035370D01*
X035046Y035212D02*
X025954Y035212D01*
X025795Y035053D02*
X035205Y035053D01*
X035053Y034895D02*
X025947Y034895D01*
X026060Y034736D02*
X034940Y034736D01*
X034940Y034578D02*
X026060Y034578D01*
X026060Y034419D02*
X034940Y034419D01*
X034997Y034261D02*
X026003Y034261D01*
X025844Y034102D02*
X035156Y034102D01*
X035102Y033944D02*
X025898Y033944D01*
X026057Y033785D02*
X034943Y033785D01*
X034940Y033627D02*
X026060Y033627D01*
X026060Y033468D02*
X034940Y033468D01*
X034948Y033310D02*
X026052Y033310D01*
X025893Y033151D02*
X035107Y033151D01*
X035151Y032993D02*
X025849Y032993D01*
X026008Y032834D02*
X034992Y032834D01*
X034940Y032676D02*
X026060Y032676D01*
X026060Y032517D02*
X034940Y032517D01*
X034940Y032359D02*
X026060Y032359D01*
X025942Y032200D02*
X035058Y032200D01*
X035200Y032042D02*
X025800Y032042D01*
X025959Y031883D02*
X035041Y031883D01*
X034940Y031725D02*
X026060Y031725D01*
X026060Y031566D02*
X034940Y031566D01*
X034940Y031408D02*
X026060Y031408D01*
X025991Y031249D02*
X035009Y031249D01*
X035167Y031091D02*
X025833Y031091D01*
X025910Y030932D02*
X035090Y030932D01*
X034940Y030774D02*
X026060Y030774D01*
X026060Y030615D02*
X034940Y030615D01*
X034940Y030457D02*
X026060Y030457D01*
X026040Y030298D02*
X034960Y030298D01*
X035118Y030140D02*
X025882Y030140D01*
X025861Y029981D02*
X035139Y029981D01*
X034981Y029823D02*
X026019Y029823D01*
X026060Y029664D02*
X034940Y029664D01*
X034940Y029506D02*
X026060Y029506D01*
X026060Y029347D02*
X034940Y029347D01*
X035069Y029189D02*
X025931Y029189D01*
X025812Y029030D02*
X035188Y029030D01*
X035030Y028872D02*
X025970Y028872D01*
X026060Y028713D02*
X034940Y028713D01*
X034940Y028555D02*
X026060Y028555D01*
X026060Y028396D02*
X034940Y028396D01*
X035020Y028238D02*
X025980Y028238D01*
X025821Y028079D02*
X035179Y028079D01*
X035079Y027921D02*
X025921Y027921D01*
X026060Y027762D02*
X034940Y027762D01*
X034940Y027604D02*
X026060Y027604D01*
X026060Y027445D02*
X034940Y027445D01*
X034971Y027287D02*
X026028Y027287D01*
X025870Y027128D02*
X035130Y027128D01*
X035128Y026970D02*
X025872Y026970D01*
X026031Y026811D02*
X034969Y026811D01*
X034940Y026653D02*
X026060Y026653D01*
X026060Y026494D02*
X034940Y026494D01*
X034940Y026336D02*
X026060Y026336D01*
X025919Y026177D02*
X035081Y026177D01*
X035177Y026019D02*
X025823Y026019D01*
X025982Y025860D02*
X035018Y025860D01*
X034940Y025702D02*
X026060Y025702D01*
X026060Y025543D02*
X034940Y025543D01*
X034940Y025385D02*
X026060Y025385D01*
X025968Y025226D02*
X035032Y025226D01*
X041000Y017935D02*
X001005Y017935D01*
X001005Y017777D02*
X041000Y017777D01*
X041000Y017618D02*
X001005Y017618D01*
X001005Y017460D02*
X041000Y017460D01*
X041000Y017301D02*
X001005Y017301D01*
X001005Y017143D02*
X041000Y017143D01*
X041000Y016984D02*
X037858Y016984D01*
X038016Y016826D02*
X041000Y016826D01*
X041000Y016667D02*
X038060Y016667D01*
X038060Y016509D02*
X041000Y016509D01*
X041000Y016350D02*
X038060Y016350D01*
X037933Y016192D02*
X041000Y016192D01*
X041000Y016033D02*
X037809Y016033D01*
X037967Y015875D02*
X041000Y015875D01*
X041000Y015716D02*
X038060Y015716D01*
X038060Y015558D02*
X041000Y015558D01*
X041000Y015399D02*
X038060Y015399D01*
X037982Y015241D02*
X041000Y015241D01*
X041000Y015082D02*
X037824Y015082D01*
X037918Y014924D02*
X041076Y014924D01*
X041235Y014765D02*
X038060Y014765D01*
X038060Y014607D02*
X041393Y014607D01*
X041552Y014448D02*
X038060Y014448D01*
X038031Y014290D02*
X041710Y014290D01*
X041869Y014131D02*
X037873Y014131D01*
X037869Y013973D02*
X042027Y013973D01*
X042186Y013814D02*
X038028Y013814D01*
X038060Y013656D02*
X042344Y013656D01*
X042503Y013497D02*
X038060Y013497D01*
X038060Y013339D02*
X042661Y013339D01*
X042820Y013180D02*
X037922Y013180D01*
X037820Y013022D02*
X042978Y013022D01*
X043344Y013656D02*
X051532Y013656D01*
X051502Y013814D02*
X043186Y013814D01*
X043027Y013973D02*
X051502Y013973D01*
X051502Y014131D02*
X042869Y014131D01*
X042710Y014290D02*
X051509Y014290D01*
X051616Y014448D02*
X042552Y014448D01*
X042224Y012040D02*
X041776Y012040D01*
X041460Y011724D01*
X041460Y011276D01*
X041776Y010960D01*
X042224Y010960D01*
X042540Y011276D01*
X042540Y011724D01*
X042224Y012040D01*
X042352Y011912D02*
X047356Y011912D01*
X047331Y011754D02*
X042510Y011754D01*
X042540Y011595D02*
X047331Y011595D01*
X047358Y011437D02*
X042540Y011437D01*
X042540Y011278D02*
X047400Y011278D01*
X047487Y011120D02*
X042383Y011120D01*
X042225Y010961D02*
X047604Y010961D01*
X047775Y010803D02*
X041496Y010803D01*
X041555Y010644D02*
X048121Y010644D01*
X047098Y010327D02*
X052995Y010327D01*
X052995Y010169D02*
X047111Y010169D01*
X047111Y010010D02*
X052995Y010010D01*
X052995Y009852D02*
X047111Y009852D01*
X047111Y009693D02*
X052995Y009693D01*
X052995Y009535D02*
X047111Y009535D01*
X047111Y009376D02*
X052995Y009376D01*
X052995Y009218D02*
X047031Y009218D01*
X047069Y008742D02*
X052995Y008742D01*
X052995Y008584D02*
X047111Y008584D01*
X047111Y008425D02*
X052995Y008425D01*
X052995Y008267D02*
X047111Y008267D01*
X047111Y008108D02*
X052995Y008108D01*
X052995Y007950D02*
X047111Y007950D01*
X047111Y007791D02*
X052995Y007791D01*
X052995Y007633D02*
X047081Y007633D01*
X049081Y007157D02*
X052995Y007157D01*
X052995Y006999D02*
X049240Y006999D01*
X049339Y006840D02*
X052995Y006840D01*
X052995Y006682D02*
X049414Y006682D01*
X049456Y006523D02*
X052995Y006523D01*
X052995Y006365D02*
X049472Y006365D01*
X049472Y006206D02*
X052995Y006206D01*
X052995Y006048D02*
X049436Y006048D01*
X049387Y005889D02*
X052995Y005889D01*
X052995Y005731D02*
X049296Y005731D01*
X049165Y005572D02*
X052995Y005572D01*
X052995Y005414D02*
X048968Y005414D01*
X047399Y012071D02*
X037812Y012071D01*
X037930Y011912D02*
X041648Y011912D01*
X041490Y011754D02*
X038060Y011754D01*
X038060Y011595D02*
X041460Y011595D01*
X041460Y011437D02*
X038060Y011437D01*
X038020Y011278D02*
X041460Y011278D01*
X041617Y011120D02*
X037861Y011120D01*
X037139Y011120D02*
X035861Y011120D01*
X036020Y011278D02*
X036980Y011278D01*
X036940Y011437D02*
X036060Y011437D01*
X036060Y011595D02*
X036940Y011595D01*
X036940Y011754D02*
X036060Y011754D01*
X035930Y011912D02*
X037070Y011912D01*
X037188Y012071D02*
X035812Y012071D01*
X035971Y012229D02*
X037029Y012229D01*
X036940Y012388D02*
X036060Y012388D01*
X036060Y012546D02*
X036940Y012546D01*
X036940Y012705D02*
X036060Y012705D01*
X035979Y012863D02*
X037021Y012863D01*
X037180Y013022D02*
X035820Y013022D01*
X035922Y013180D02*
X037078Y013180D01*
X036940Y013339D02*
X036060Y013339D01*
X036060Y013497D02*
X036940Y013497D01*
X036940Y013656D02*
X036060Y013656D01*
X036028Y013814D02*
X036972Y013814D01*
X037131Y013973D02*
X035869Y013973D01*
X035873Y014131D02*
X037127Y014131D01*
X036969Y014290D02*
X036031Y014290D01*
X036060Y014448D02*
X036940Y014448D01*
X036940Y014607D02*
X036060Y014607D01*
X036060Y014765D02*
X036940Y014765D01*
X037082Y014924D02*
X035918Y014924D01*
X035824Y015082D02*
X037176Y015082D01*
X037018Y015241D02*
X035982Y015241D01*
X036060Y015399D02*
X036940Y015399D01*
X036940Y015558D02*
X036060Y015558D01*
X036060Y015716D02*
X036940Y015716D01*
X037033Y015875D02*
X035967Y015875D01*
X035809Y016033D02*
X037191Y016033D01*
X037067Y016192D02*
X035933Y016192D01*
X036060Y016350D02*
X036940Y016350D01*
X036940Y016509D02*
X036060Y016509D01*
X036060Y016667D02*
X036940Y016667D01*
X036984Y016826D02*
X036016Y016826D01*
X035858Y016984D02*
X037142Y016984D01*
X035142Y016984D02*
X025858Y016984D01*
X026016Y016826D02*
X034984Y016826D01*
X034940Y016667D02*
X026060Y016667D01*
X026060Y016509D02*
X034940Y016509D01*
X034940Y016350D02*
X026060Y016350D01*
X025933Y016192D02*
X035067Y016192D01*
X035191Y016033D02*
X025809Y016033D01*
X025967Y015875D02*
X035033Y015875D01*
X034940Y015716D02*
X026060Y015716D01*
X026060Y015558D02*
X034940Y015558D01*
X034940Y015399D02*
X026060Y015399D01*
X025982Y015241D02*
X035018Y015241D01*
X035176Y015082D02*
X025824Y015082D01*
X025918Y014924D02*
X035082Y014924D01*
X034940Y014765D02*
X026060Y014765D01*
X026060Y014607D02*
X034940Y014607D01*
X034940Y014448D02*
X026060Y014448D01*
X026031Y014290D02*
X034969Y014290D01*
X035127Y014131D02*
X025873Y014131D01*
X025869Y013973D02*
X035131Y013973D01*
X034972Y013814D02*
X026028Y013814D01*
X026060Y013656D02*
X034940Y013656D01*
X034940Y013497D02*
X026060Y013497D01*
X026060Y013339D02*
X034940Y013339D01*
X035078Y013180D02*
X025922Y013180D01*
X025820Y013022D02*
X035180Y013022D01*
X035021Y012863D02*
X025979Y012863D01*
X026060Y012705D02*
X034940Y012705D01*
X034940Y012546D02*
X026060Y012546D01*
X026060Y012388D02*
X034940Y012388D01*
X035029Y012229D02*
X025971Y012229D01*
X025812Y012071D02*
X035188Y012071D01*
X035070Y011912D02*
X025930Y011912D01*
X026060Y011754D02*
X034940Y011754D01*
X034940Y011595D02*
X026060Y011595D01*
X026060Y011437D02*
X034940Y011437D01*
X034980Y011278D02*
X026020Y011278D01*
X025861Y011120D02*
X035139Y011120D01*
X035857Y009218D02*
X031922Y009218D01*
X031736Y009059D02*
X035652Y009059D01*
X035520Y008901D02*
X026025Y008901D01*
X026075Y008803D02*
X026075Y008803D01*
X026085Y008742D02*
X035429Y008742D01*
X035382Y008584D02*
X026110Y008584D01*
X026135Y008425D02*
X035350Y008425D01*
X035350Y008267D02*
X026140Y008267D01*
X026115Y008108D02*
X035373Y008108D01*
X035416Y007950D02*
X026090Y007950D01*
X026041Y007791D02*
X035502Y007791D01*
X035621Y007633D02*
X025961Y007633D01*
X025880Y007474D02*
X035803Y007474D01*
X031264Y009059D02*
X025945Y009059D01*
X025864Y009218D02*
X031078Y009218D01*
X031013Y009376D02*
X025711Y009376D01*
X025553Y009535D02*
X031002Y009535D01*
X031041Y009693D02*
X025274Y009693D01*
X024674Y009852D02*
X031148Y009852D01*
X025858Y007431D02*
X025858Y007431D01*
X024620Y006800D02*
X024620Y006800D01*
X024367Y006840D02*
X001005Y006840D01*
X001005Y006999D02*
X023905Y006999D01*
X023721Y007092D02*
X023721Y007092D01*
X023656Y007157D02*
X001005Y007157D01*
X001005Y007316D02*
X012187Y007316D01*
X012244Y007300D02*
X012516Y007300D01*
X012778Y007370D01*
X013012Y007506D01*
X013204Y007698D01*
X013340Y007932D01*
X013410Y008194D01*
X013410Y008466D01*
X013340Y008728D01*
X013204Y008962D01*
X013012Y009154D01*
X012778Y009290D01*
X012516Y009360D01*
X012244Y009360D01*
X011982Y009290D01*
X011748Y009154D01*
X011556Y008962D01*
X011420Y008728D01*
X011350Y008466D01*
X011350Y008194D01*
X011420Y007932D01*
X011556Y007698D01*
X011748Y007506D01*
X011982Y007370D01*
X012244Y007300D01*
X012573Y007316D02*
X023497Y007316D01*
X023382Y007431D02*
X023382Y007431D01*
X023360Y007474D02*
X012957Y007474D01*
X013139Y007633D02*
X023279Y007633D01*
X023199Y007791D02*
X013258Y007791D01*
X013344Y007950D02*
X023150Y007950D01*
X023165Y007857D02*
X023165Y007857D01*
X023125Y008108D02*
X013387Y008108D01*
X013410Y008267D02*
X023100Y008267D01*
X023105Y008425D02*
X013410Y008425D01*
X013378Y008584D02*
X023130Y008584D01*
X023155Y008742D02*
X013331Y008742D01*
X013240Y008901D02*
X023215Y008901D01*
X023295Y009059D02*
X019736Y009059D01*
X019922Y009218D02*
X023376Y009218D01*
X023382Y009229D02*
X023382Y009229D01*
X023529Y009376D02*
X019987Y009376D01*
X019998Y009535D02*
X023687Y009535D01*
X023966Y009693D02*
X019959Y009693D01*
X019852Y009852D02*
X024566Y009852D01*
X024620Y009860D02*
X024620Y009860D01*
X024147Y009785D02*
X024147Y009785D01*
X023861Y011120D02*
X025139Y011120D01*
X024980Y011278D02*
X024020Y011278D01*
X024060Y011437D02*
X024940Y011437D01*
X024940Y011595D02*
X024060Y011595D01*
X024060Y011754D02*
X024940Y011754D01*
X025070Y011912D02*
X023930Y011912D01*
X023812Y012071D02*
X025188Y012071D01*
X025029Y012229D02*
X023971Y012229D01*
X024060Y012388D02*
X024940Y012388D01*
X024940Y012546D02*
X024060Y012546D01*
X024060Y012705D02*
X024940Y012705D01*
X025021Y012863D02*
X023979Y012863D01*
X023820Y013022D02*
X025180Y013022D01*
X025078Y013180D02*
X023922Y013180D01*
X024060Y013339D02*
X024940Y013339D01*
X024940Y013497D02*
X024060Y013497D01*
X024060Y013656D02*
X024940Y013656D01*
X024972Y013814D02*
X024028Y013814D01*
X023869Y013973D02*
X025131Y013973D01*
X025127Y014131D02*
X023873Y014131D01*
X024031Y014290D02*
X024969Y014290D01*
X024940Y014448D02*
X024060Y014448D01*
X024060Y014607D02*
X024940Y014607D01*
X024940Y014765D02*
X024060Y014765D01*
X023918Y014924D02*
X025082Y014924D01*
X025176Y015082D02*
X023824Y015082D01*
X023982Y015241D02*
X025018Y015241D01*
X024940Y015399D02*
X024060Y015399D01*
X024060Y015558D02*
X024940Y015558D01*
X024940Y015716D02*
X024060Y015716D01*
X023967Y015875D02*
X025033Y015875D01*
X025191Y016033D02*
X023809Y016033D01*
X023933Y016192D02*
X025067Y016192D01*
X024940Y016350D02*
X024060Y016350D01*
X024060Y016509D02*
X024940Y016509D01*
X024940Y016667D02*
X024060Y016667D01*
X024016Y016826D02*
X024984Y016826D01*
X025142Y016984D02*
X023858Y016984D01*
X023142Y016984D02*
X013858Y016984D01*
X014016Y016826D02*
X022984Y016826D01*
X022940Y016667D02*
X014060Y016667D01*
X014060Y016509D02*
X022940Y016509D01*
X022940Y016350D02*
X014060Y016350D01*
X013933Y016192D02*
X023067Y016192D01*
X023191Y016033D02*
X013809Y016033D01*
X013967Y015875D02*
X023033Y015875D01*
X022940Y015716D02*
X014060Y015716D01*
X014060Y015558D02*
X022940Y015558D01*
X022940Y015399D02*
X014060Y015399D01*
X013982Y015241D02*
X023018Y015241D01*
X023176Y015082D02*
X013824Y015082D01*
X013918Y014924D02*
X023082Y014924D01*
X022940Y014765D02*
X014060Y014765D01*
X014060Y014607D02*
X022940Y014607D01*
X022940Y014448D02*
X014060Y014448D01*
X014031Y014290D02*
X022969Y014290D01*
X023127Y014131D02*
X013873Y014131D01*
X013869Y013973D02*
X023131Y013973D01*
X022972Y013814D02*
X014028Y013814D01*
X014060Y013656D02*
X022940Y013656D01*
X022940Y013497D02*
X014060Y013497D01*
X014060Y013339D02*
X022940Y013339D01*
X023078Y013180D02*
X013922Y013180D01*
X013820Y013022D02*
X023180Y013022D01*
X023021Y012863D02*
X013979Y012863D01*
X014060Y012705D02*
X022940Y012705D01*
X022940Y012546D02*
X014060Y012546D01*
X014060Y012388D02*
X022940Y012388D01*
X023029Y012229D02*
X013971Y012229D01*
X013812Y012071D02*
X023188Y012071D01*
X023070Y011912D02*
X013930Y011912D01*
X014060Y011754D02*
X022940Y011754D01*
X022940Y011595D02*
X014060Y011595D01*
X014060Y011437D02*
X022940Y011437D01*
X022980Y011278D02*
X014020Y011278D01*
X013861Y011120D02*
X023139Y011120D01*
X019148Y009852D02*
X001005Y009852D01*
X001005Y010010D02*
X011248Y010010D01*
X011090Y010169D02*
X001005Y010169D01*
X001005Y010327D02*
X010940Y010327D01*
X010940Y010486D02*
X001005Y010486D01*
X001005Y010644D02*
X010940Y010644D01*
X010961Y010803D02*
X001005Y010803D01*
X001005Y010961D02*
X011119Y010961D01*
X011139Y011120D02*
X001005Y011120D01*
X001005Y011278D02*
X010980Y011278D01*
X010940Y011437D02*
X001005Y011437D01*
X001005Y011595D02*
X010940Y011595D01*
X010940Y011754D02*
X001005Y011754D01*
X001005Y011912D02*
X011070Y011912D01*
X011188Y012071D02*
X001005Y012071D01*
X001005Y012229D02*
X011029Y012229D01*
X010940Y012388D02*
X001005Y012388D01*
X001005Y012546D02*
X010940Y012546D01*
X010940Y012705D02*
X001005Y012705D01*
X001005Y012863D02*
X011021Y012863D01*
X011180Y013022D02*
X001005Y013022D01*
X001005Y013180D02*
X011078Y013180D01*
X010940Y013339D02*
X001005Y013339D01*
X001005Y013497D02*
X010940Y013497D01*
X010940Y013656D02*
X001005Y013656D01*
X001005Y013814D02*
X010972Y013814D01*
X011131Y013973D02*
X001005Y013973D01*
X001005Y014131D02*
X011127Y014131D01*
X010969Y014290D02*
X001005Y014290D01*
X001005Y014448D02*
X010940Y014448D01*
X010940Y014607D02*
X001005Y014607D01*
X001005Y014765D02*
X010940Y014765D01*
X011082Y014924D02*
X001005Y014924D01*
X001005Y015082D02*
X011176Y015082D01*
X011018Y015241D02*
X001005Y015241D01*
X001005Y015399D02*
X010940Y015399D01*
X010940Y015558D02*
X001005Y015558D01*
X001005Y015716D02*
X010940Y015716D01*
X011033Y015875D02*
X001005Y015875D01*
X001005Y016033D02*
X011191Y016033D01*
X011067Y016192D02*
X001005Y016192D01*
X001005Y016350D02*
X010940Y016350D01*
X010940Y016509D02*
X001005Y016509D01*
X001005Y016667D02*
X010940Y016667D01*
X010984Y016826D02*
X001005Y016826D01*
X001005Y016984D02*
X011142Y016984D01*
X011858Y016984D02*
X013142Y016984D01*
X012984Y016826D02*
X012016Y016826D01*
X012060Y016667D02*
X012940Y016667D01*
X012940Y016509D02*
X012060Y016509D01*
X012060Y016350D02*
X012940Y016350D01*
X013067Y016192D02*
X011933Y016192D01*
X011809Y016033D02*
X013191Y016033D01*
X013033Y015875D02*
X011967Y015875D01*
X012060Y015716D02*
X012940Y015716D01*
X012940Y015558D02*
X012060Y015558D01*
X012060Y015399D02*
X012940Y015399D01*
X013018Y015241D02*
X011982Y015241D01*
X011824Y015082D02*
X013176Y015082D01*
X013082Y014924D02*
X011918Y014924D01*
X012060Y014765D02*
X012940Y014765D01*
X012940Y014607D02*
X012060Y014607D01*
X012060Y014448D02*
X012940Y014448D01*
X012969Y014290D02*
X012031Y014290D01*
X011873Y014131D02*
X013127Y014131D01*
X013131Y013973D02*
X011869Y013973D01*
X012028Y013814D02*
X012972Y013814D01*
X012940Y013656D02*
X012060Y013656D01*
X012060Y013497D02*
X012940Y013497D01*
X012940Y013339D02*
X012060Y013339D01*
X011922Y013180D02*
X013078Y013180D01*
X013180Y013022D02*
X011820Y013022D01*
X011979Y012863D02*
X013021Y012863D01*
X012940Y012705D02*
X012060Y012705D01*
X012060Y012546D02*
X012940Y012546D01*
X012940Y012388D02*
X012060Y012388D01*
X011971Y012229D02*
X013029Y012229D01*
X013188Y012071D02*
X011812Y012071D01*
X011930Y011912D02*
X013070Y011912D01*
X012940Y011754D02*
X012060Y011754D01*
X012060Y011595D02*
X012940Y011595D01*
X012940Y011437D02*
X012060Y011437D01*
X012020Y011278D02*
X012980Y011278D01*
X013139Y011120D02*
X011861Y011120D01*
X011857Y009218D02*
X001005Y009218D01*
X001005Y009376D02*
X019013Y009376D01*
X019002Y009535D02*
X001005Y009535D01*
X001005Y009693D02*
X019041Y009693D01*
X019078Y009218D02*
X012903Y009218D01*
X013108Y009059D02*
X019264Y009059D01*
X011803Y007474D02*
X001005Y007474D01*
X001005Y007633D02*
X011621Y007633D01*
X011502Y007791D02*
X001005Y007791D01*
X001005Y007950D02*
X011416Y007950D01*
X011373Y008108D02*
X001005Y008108D01*
X001005Y008267D02*
X011350Y008267D01*
X011350Y008425D02*
X001005Y008425D01*
X001005Y008584D02*
X011382Y008584D01*
X011429Y008742D02*
X001005Y008742D01*
X001005Y008901D02*
X011520Y008901D01*
X011652Y009059D02*
X001005Y009059D01*
X001005Y018094D02*
X011165Y018094D01*
X011268Y017990D02*
X010940Y018318D01*
X010940Y018782D01*
X011208Y019050D01*
X010940Y019318D01*
X010940Y019782D01*
X011208Y020050D01*
X010940Y020318D01*
X010940Y020782D01*
X011208Y021050D01*
X010940Y021318D01*
X010940Y021782D01*
X011208Y022050D01*
X010940Y022318D01*
X010940Y022782D01*
X011208Y023050D01*
X010940Y023318D01*
X010940Y023782D01*
X011208Y024050D01*
X010940Y024318D01*
X010940Y024782D01*
X011208Y025050D01*
X010940Y025318D01*
X010940Y025782D01*
X011208Y026050D01*
X010940Y026318D01*
X010940Y026782D01*
X011208Y027050D01*
X010940Y027318D01*
X010940Y027782D01*
X011208Y028050D01*
X010940Y028318D01*
X010940Y028782D01*
X011208Y029050D01*
X010940Y029318D01*
X010940Y029782D01*
X011208Y030050D01*
X010940Y030318D01*
X010940Y030782D01*
X011208Y031050D01*
X010940Y031318D01*
X010940Y031782D01*
X011208Y032050D01*
X010940Y032318D01*
X010940Y032782D01*
X011208Y033050D01*
X010940Y033318D01*
X010940Y033782D01*
X011208Y034050D01*
X010940Y034318D01*
X010940Y034782D01*
X011208Y035050D01*
X010940Y035318D01*
X010940Y035782D01*
X011208Y036050D01*
X010940Y036318D01*
X010940Y036782D01*
X011208Y037050D01*
X010940Y037318D01*
X010940Y037782D01*
X011208Y038050D01*
X010940Y038318D01*
X010940Y038782D01*
X011208Y039050D01*
X010940Y039318D01*
X010940Y039782D01*
X011208Y040050D01*
X010940Y040318D01*
X010940Y040782D01*
X011268Y041110D01*
X011732Y041110D01*
X012060Y040782D01*
X012060Y040318D01*
X011792Y040050D01*
X012060Y039782D01*
X012060Y039318D01*
X011792Y039050D01*
X012060Y038782D01*
X012060Y038318D01*
X011792Y038050D01*
X012060Y037782D01*
X012060Y037318D01*
X011792Y037050D01*
X012060Y036782D01*
X012060Y036318D01*
X011792Y036050D01*
X012060Y035782D01*
X012060Y035318D01*
X011792Y035050D01*
X012060Y034782D01*
X012060Y034318D01*
X011792Y034050D01*
X012060Y033782D01*
X012060Y033318D01*
X011792Y033050D01*
X012060Y032782D01*
X012060Y032318D01*
X011792Y032050D01*
X012060Y031782D01*
X012060Y031318D01*
X011792Y031050D01*
X012060Y030782D01*
X012060Y030318D01*
X011792Y030050D01*
X012060Y029782D01*
X012060Y029318D01*
X011792Y029050D01*
X012060Y028782D01*
X012060Y028318D01*
X011792Y028050D01*
X012060Y027782D01*
X012060Y027318D01*
X011792Y027050D01*
X012060Y026782D01*
X012060Y026318D01*
X011792Y026050D01*
X012060Y025782D01*
X012060Y025318D01*
X011792Y025050D01*
X012060Y024782D01*
X012060Y024318D01*
X011792Y024050D01*
X012060Y023782D01*
X012060Y023318D01*
X011792Y023050D01*
X012060Y022782D01*
X012060Y022318D01*
X011792Y022050D01*
X012060Y021782D01*
X012060Y021318D01*
X011792Y021050D01*
X012060Y020782D01*
X012060Y020318D01*
X011792Y020050D01*
X012060Y019782D01*
X012060Y019318D01*
X011792Y019050D01*
X012060Y018782D01*
X012060Y018318D01*
X011732Y017990D01*
X011268Y017990D01*
X011006Y018252D02*
X001005Y018252D01*
X001005Y018411D02*
X010940Y018411D01*
X010940Y018569D02*
X001005Y018569D01*
X001005Y018728D02*
X010940Y018728D01*
X011044Y018886D02*
X001005Y018886D01*
X001005Y019045D02*
X011203Y019045D01*
X011055Y019203D02*
X001005Y019203D01*
X001005Y019362D02*
X010940Y019362D01*
X010940Y019520D02*
X001005Y019520D01*
X001005Y019679D02*
X010940Y019679D01*
X010995Y019837D02*
X001005Y019837D01*
X001005Y019996D02*
X011154Y019996D01*
X011104Y020154D02*
X001005Y020154D01*
X001005Y020313D02*
X010946Y020313D01*
X010940Y020471D02*
X001005Y020471D01*
X001005Y020630D02*
X010940Y020630D01*
X010946Y020788D02*
X001005Y020788D01*
X001005Y020947D02*
X011105Y020947D01*
X011153Y021105D02*
X001005Y021105D01*
X001005Y021264D02*
X010995Y021264D01*
X010940Y021422D02*
X001005Y021422D01*
X001005Y021581D02*
X010940Y021581D01*
X010940Y021739D02*
X001005Y021739D01*
X001005Y021898D02*
X011056Y021898D01*
X011202Y022056D02*
X001005Y022056D01*
X001005Y022215D02*
X011044Y022215D01*
X010940Y022373D02*
X001005Y022373D01*
X001005Y022532D02*
X010940Y022532D01*
X010940Y022690D02*
X001005Y022690D01*
X001005Y022849D02*
X011007Y022849D01*
X011165Y023007D02*
X001005Y023007D01*
X001005Y023166D02*
X011093Y023166D01*
X010940Y023324D02*
X001005Y023324D01*
X001005Y023483D02*
X010940Y023483D01*
X010940Y023641D02*
X001005Y023641D01*
X001005Y023800D02*
X010958Y023800D01*
X011116Y023958D02*
X001005Y023958D01*
X001005Y024117D02*
X011142Y024117D01*
X010983Y024275D02*
X001005Y024275D01*
X001005Y024434D02*
X010940Y024434D01*
X010940Y024592D02*
X001005Y024592D01*
X001005Y024751D02*
X010940Y024751D01*
X011067Y024909D02*
X001005Y024909D01*
X001005Y025068D02*
X011191Y025068D01*
X011032Y025226D02*
X001005Y025226D01*
X001005Y025385D02*
X010940Y025385D01*
X010940Y025543D02*
X001005Y025543D01*
X001005Y025702D02*
X010940Y025702D01*
X011018Y025860D02*
X001005Y025860D01*
X001005Y026019D02*
X011177Y026019D01*
X011081Y026177D02*
X001005Y026177D01*
X001005Y026336D02*
X010940Y026336D01*
X010940Y026494D02*
X001005Y026494D01*
X001005Y026653D02*
X010940Y026653D01*
X010969Y026811D02*
X001005Y026811D01*
X001005Y026970D02*
X011128Y026970D01*
X011130Y027128D02*
X001005Y027128D01*
X001005Y027287D02*
X010971Y027287D01*
X010940Y027445D02*
X001005Y027445D01*
X001005Y027604D02*
X010940Y027604D01*
X010940Y027762D02*
X001005Y027762D01*
X001005Y027921D02*
X011079Y027921D01*
X011179Y028079D02*
X001005Y028079D01*
X001005Y028238D02*
X011020Y028238D01*
X010940Y028396D02*
X001005Y028396D01*
X001005Y028555D02*
X010940Y028555D01*
X010940Y028713D02*
X001005Y028713D01*
X001005Y028872D02*
X011030Y028872D01*
X011188Y029030D02*
X001005Y029030D01*
X001005Y029189D02*
X011069Y029189D01*
X010940Y029347D02*
X001005Y029347D01*
X001005Y029506D02*
X010940Y029506D01*
X010940Y029664D02*
X001005Y029664D01*
X001005Y029823D02*
X010981Y029823D01*
X011139Y029981D02*
X001005Y029981D01*
X001005Y030140D02*
X011118Y030140D01*
X010960Y030298D02*
X001005Y030298D01*
X001005Y030457D02*
X010940Y030457D01*
X010940Y030615D02*
X001005Y030615D01*
X001005Y030774D02*
X010940Y030774D01*
X011090Y030932D02*
X001005Y030932D01*
X001005Y031091D02*
X011167Y031091D01*
X011009Y031249D02*
X001005Y031249D01*
X001005Y031408D02*
X010940Y031408D01*
X010940Y031566D02*
X001005Y031566D01*
X001005Y031725D02*
X010940Y031725D01*
X011041Y031883D02*
X001005Y031883D01*
X001005Y032042D02*
X011200Y032042D01*
X011058Y032200D02*
X001005Y032200D01*
X001005Y032359D02*
X010940Y032359D01*
X010940Y032517D02*
X001005Y032517D01*
X001005Y032676D02*
X010940Y032676D01*
X010992Y032834D02*
X001005Y032834D01*
X001005Y032993D02*
X011151Y032993D01*
X011107Y033151D02*
X001005Y033151D01*
X001005Y033310D02*
X010948Y033310D01*
X010940Y033468D02*
X001005Y033468D01*
X001005Y033627D02*
X010940Y033627D01*
X010943Y033785D02*
X001005Y033785D01*
X001005Y033944D02*
X011102Y033944D01*
X011156Y034102D02*
X001005Y034102D01*
X001005Y034261D02*
X010997Y034261D01*
X010940Y034419D02*
X001005Y034419D01*
X001005Y034578D02*
X010940Y034578D01*
X010940Y034736D02*
X001005Y034736D01*
X001005Y034895D02*
X011053Y034895D01*
X011205Y035053D02*
X001005Y035053D01*
X001005Y035212D02*
X011046Y035212D01*
X010940Y035370D02*
X001005Y035370D01*
X001005Y035529D02*
X010940Y035529D01*
X010940Y035687D02*
X001005Y035687D01*
X001005Y035846D02*
X011004Y035846D01*
X011162Y036004D02*
X001005Y036004D01*
X001005Y036163D02*
X011095Y036163D01*
X010940Y036321D02*
X001005Y036321D01*
X001005Y036480D02*
X010940Y036480D01*
X010940Y036638D02*
X001005Y036638D01*
X001005Y036797D02*
X010955Y036797D01*
X011113Y036955D02*
X001005Y036955D01*
X001005Y037114D02*
X011144Y037114D01*
X010986Y037272D02*
X001005Y037272D01*
X001005Y037431D02*
X010940Y037431D01*
X010940Y037589D02*
X001005Y037589D01*
X001005Y037748D02*
X010940Y037748D01*
X011064Y037906D02*
X001005Y037906D01*
X001005Y038065D02*
X011193Y038065D01*
X011035Y038223D02*
X001005Y038223D01*
X001005Y038382D02*
X010940Y038382D01*
X010940Y038540D02*
X001005Y038540D01*
X001005Y038699D02*
X010940Y038699D01*
X011015Y038857D02*
X001005Y038857D01*
X001005Y039016D02*
X011174Y039016D01*
X011084Y039174D02*
X001005Y039174D01*
X001005Y039333D02*
X010940Y039333D01*
X010940Y039491D02*
X001005Y039491D01*
X001005Y039650D02*
X010940Y039650D01*
X010966Y039808D02*
X001005Y039808D01*
X001005Y039967D02*
X011125Y039967D01*
X011133Y040125D02*
X001005Y040125D01*
X001005Y040284D02*
X010974Y040284D01*
X010940Y040442D02*
X001005Y040442D01*
X001005Y040601D02*
X010940Y040601D01*
X010940Y040759D02*
X001005Y040759D01*
X001005Y040918D02*
X011076Y040918D01*
X011234Y041076D02*
X001005Y041076D01*
X001005Y041235D02*
X039420Y041235D01*
X039573Y041393D02*
X001005Y041393D01*
X001005Y041552D02*
X039731Y041552D01*
X040269Y041552D02*
X040731Y041552D01*
X040573Y041393D02*
X040427Y041393D01*
X041000Y041710D02*
X001005Y041710D01*
X001005Y041869D02*
X041000Y041869D01*
X041000Y042027D02*
X001005Y042027D01*
X001005Y042186D02*
X041000Y042186D01*
X041000Y042344D02*
X025150Y042344D01*
X025093Y042315D02*
X025519Y042532D01*
X025519Y042532D01*
X025858Y042871D01*
X026075Y043297D01*
X026150Y043770D01*
X026075Y044243D01*
X025858Y044669D01*
X025858Y044669D01*
X025519Y045008D01*
X025093Y045225D01*
X025093Y045225D01*
X024620Y045300D01*
X024147Y045225D01*
X023721Y045008D01*
X023721Y045008D01*
X023382Y044669D01*
X023165Y044243D01*
X023165Y044243D01*
X023090Y043770D01*
X023090Y043770D01*
X023165Y043297D01*
X023382Y042871D01*
X023721Y042532D01*
X024147Y042315D01*
X024147Y042315D01*
X024620Y042240D01*
X025093Y042315D01*
X025093Y042315D01*
X025461Y042503D02*
X041000Y042503D01*
X041000Y042661D02*
X025648Y042661D01*
X025519Y042532D02*
X025519Y042532D01*
X025807Y042820D02*
X035966Y042820D01*
X035982Y042810D02*
X036244Y042740D01*
X036516Y042740D01*
X036778Y042810D01*
X037012Y042946D01*
X037204Y043138D01*
X037340Y043372D01*
X037410Y043634D01*
X037410Y043906D01*
X037340Y044168D01*
X037204Y044402D01*
X037012Y044594D01*
X036778Y044730D01*
X036516Y044800D01*
X036244Y044800D01*
X035982Y044730D01*
X035748Y044594D01*
X035556Y044402D01*
X035420Y044168D01*
X035350Y043906D01*
X035350Y043634D01*
X035420Y043372D01*
X035556Y043138D01*
X035748Y042946D01*
X035982Y042810D01*
X035715Y042978D02*
X025913Y042978D01*
X025993Y043137D02*
X035557Y043137D01*
X035465Y043295D02*
X026074Y043295D01*
X026100Y043454D02*
X035398Y043454D01*
X035356Y043612D02*
X026125Y043612D01*
X026150Y043770D02*
X026150Y043770D01*
X026150Y043771D02*
X035350Y043771D01*
X035356Y043929D02*
X026125Y043929D01*
X026100Y044088D02*
X035399Y044088D01*
X035466Y044246D02*
X026073Y044246D01*
X026075Y044243D02*
X026075Y044243D01*
X025993Y044405D02*
X035558Y044405D01*
X035716Y044563D02*
X025912Y044563D01*
X025806Y044722D02*
X035968Y044722D01*
X036792Y044722D02*
X041000Y044722D01*
X041000Y044880D02*
X025647Y044880D01*
X025519Y045008D02*
X025519Y045008D01*
X025459Y045039D02*
X041000Y045039D01*
X041000Y045197D02*
X025148Y045197D01*
X024620Y045300D02*
X024620Y045300D01*
X024147Y045225D02*
X024147Y045225D01*
X024092Y045197D02*
X001005Y045197D01*
X001005Y045039D02*
X023781Y045039D01*
X023593Y044880D02*
X001005Y044880D01*
X001005Y044722D02*
X011968Y044722D01*
X011982Y044730D02*
X011748Y044594D01*
X011556Y044402D01*
X011420Y044168D01*
X011350Y043906D01*
X011350Y043634D01*
X011420Y043372D01*
X011556Y043138D01*
X011748Y042946D01*
X011982Y042810D01*
X012244Y042740D01*
X012516Y042740D01*
X012778Y042810D01*
X013012Y042946D01*
X013204Y043138D01*
X013340Y043372D01*
X013410Y043634D01*
X013410Y043906D01*
X013340Y044168D01*
X013204Y044402D01*
X013012Y044594D01*
X012778Y044730D01*
X012516Y044800D01*
X012244Y044800D01*
X011982Y044730D01*
X011716Y044563D02*
X001005Y044563D01*
X001005Y044405D02*
X011558Y044405D01*
X011466Y044246D02*
X001005Y044246D01*
X001005Y044088D02*
X011399Y044088D01*
X011356Y043929D02*
X001005Y043929D01*
X001005Y043771D02*
X011350Y043771D01*
X011356Y043612D02*
X001005Y043612D01*
X001005Y043454D02*
X011398Y043454D01*
X011465Y043295D02*
X001005Y043295D01*
X001005Y043137D02*
X011557Y043137D01*
X011715Y042978D02*
X001005Y042978D01*
X001005Y042820D02*
X011966Y042820D01*
X012794Y042820D02*
X023433Y042820D01*
X023382Y042871D02*
X023382Y042871D01*
X023327Y042978D02*
X013045Y042978D01*
X013203Y043137D02*
X023247Y043137D01*
X023166Y043295D02*
X013295Y043295D01*
X013362Y043454D02*
X023140Y043454D01*
X023165Y043297D02*
X023165Y043297D01*
X023115Y043612D02*
X013404Y043612D01*
X013410Y043771D02*
X023090Y043771D01*
X023115Y043929D02*
X013404Y043929D01*
X013361Y044088D02*
X023140Y044088D01*
X023167Y044246D02*
X013294Y044246D01*
X013202Y044405D02*
X023247Y044405D01*
X023328Y044563D02*
X013044Y044563D01*
X012792Y044722D02*
X023434Y044722D01*
X023382Y044669D02*
X023382Y044669D01*
X023592Y042661D02*
X001005Y042661D01*
X001005Y042503D02*
X023779Y042503D01*
X023721Y042532D02*
X023721Y042532D01*
X024090Y042344D02*
X001005Y042344D01*
X001005Y045356D02*
X041000Y045356D01*
X041000Y045514D02*
X001005Y045514D01*
X001005Y045673D02*
X041000Y045673D01*
X041000Y045831D02*
X001005Y045831D01*
X001005Y045990D02*
X041000Y045990D01*
X041000Y046148D02*
X001005Y046148D01*
X001005Y046307D02*
X041000Y046307D01*
X041000Y046465D02*
X001005Y046465D01*
X001005Y046624D02*
X041000Y046624D01*
X041000Y046782D02*
X001005Y046782D01*
X001005Y046941D02*
X041000Y046941D01*
X041000Y047099D02*
X001005Y047099D01*
X001005Y047258D02*
X041000Y047258D01*
X041000Y047416D02*
X001005Y047416D01*
X001005Y047575D02*
X041000Y047575D01*
X041000Y047733D02*
X001005Y047733D01*
X001005Y047892D02*
X041000Y047892D01*
X041500Y047892D02*
X047560Y047892D01*
X047545Y047876D02*
X047502Y047773D01*
X047502Y047227D01*
X047545Y047124D01*
X047624Y047045D01*
X047727Y047002D01*
X048273Y047002D01*
X048376Y047045D01*
X048455Y047124D01*
X048498Y047227D01*
X048498Y047773D01*
X048455Y047876D01*
X048376Y047955D01*
X048273Y047998D01*
X047727Y047998D01*
X047624Y047955D01*
X047545Y047876D01*
X047502Y047733D02*
X041500Y047733D01*
X041500Y047575D02*
X047502Y047575D01*
X047502Y047416D02*
X041500Y047416D01*
X041500Y047258D02*
X047502Y047258D01*
X047569Y047099D02*
X041500Y047099D01*
X041500Y046941D02*
X052995Y046941D01*
X052995Y047099D02*
X048431Y047099D01*
X048498Y047258D02*
X052995Y047258D01*
X052995Y047416D02*
X048498Y047416D01*
X048498Y047575D02*
X052995Y047575D01*
X052995Y047733D02*
X048498Y047733D01*
X048440Y047892D02*
X052995Y047892D01*
X052995Y046782D02*
X041500Y046782D01*
X041500Y046624D02*
X052995Y046624D01*
X052995Y046465D02*
X041500Y046465D01*
X041500Y046307D02*
X052995Y046307D01*
X052995Y046148D02*
X041500Y046148D01*
X041500Y045990D02*
X052995Y045990D01*
X052995Y045831D02*
X041500Y045831D01*
X041500Y045673D02*
X052995Y045673D01*
X052995Y045514D02*
X041500Y045514D01*
X041500Y045356D02*
X052995Y045356D01*
X052995Y045197D02*
X041500Y045197D01*
X041500Y045039D02*
X052995Y045039D01*
X052995Y044880D02*
X041500Y044880D01*
X041500Y044722D02*
X052995Y044722D01*
X052995Y044563D02*
X041500Y044563D01*
X041500Y044405D02*
X052995Y044405D01*
X052995Y044246D02*
X041500Y044246D01*
X041500Y044088D02*
X052995Y044088D01*
X052995Y043929D02*
X041500Y043929D01*
X041500Y043771D02*
X052995Y043771D01*
X052995Y043612D02*
X041500Y043612D01*
X041500Y043454D02*
X052995Y043454D01*
X052995Y043295D02*
X041500Y043295D01*
X041500Y043137D02*
X052995Y043137D01*
X052995Y042978D02*
X041500Y042978D01*
X041500Y042820D02*
X052995Y042820D01*
X041000Y042820D02*
X036794Y042820D01*
X037045Y042978D02*
X041000Y042978D01*
X041000Y043137D02*
X037203Y043137D01*
X037295Y043295D02*
X041000Y043295D01*
X041000Y043454D02*
X037362Y043454D01*
X037404Y043612D02*
X041000Y043612D01*
X041000Y043771D02*
X037410Y043771D01*
X037404Y043929D02*
X041000Y043929D01*
X041000Y044088D02*
X037361Y044088D01*
X037294Y044246D02*
X041000Y044246D01*
X041000Y044405D02*
X037202Y044405D01*
X037044Y044563D02*
X041000Y044563D01*
X024620Y042240D02*
X024620Y042240D01*
X023234Y041076D02*
X013766Y041076D01*
X013732Y041110D02*
X013268Y041110D01*
X012940Y040782D01*
X012940Y040318D01*
X013208Y040050D01*
X012940Y039782D01*
X012940Y039318D01*
X013208Y039050D01*
X012940Y038782D01*
X012940Y038318D01*
X013208Y038050D01*
X012940Y037782D01*
X012940Y037318D01*
X013208Y037050D01*
X012940Y036782D01*
X012940Y036318D01*
X013208Y036050D01*
X012940Y035782D01*
X012940Y035318D01*
X013208Y035050D01*
X012940Y034782D01*
X012940Y034318D01*
X013208Y034050D01*
X012940Y033782D01*
X012940Y033318D01*
X013208Y033050D01*
X012940Y032782D01*
X012940Y032318D01*
X013208Y032050D01*
X012940Y031782D01*
X012940Y031318D01*
X013208Y031050D01*
X012940Y030782D01*
X012940Y030318D01*
X013208Y030050D01*
X012940Y029782D01*
X012940Y029318D01*
X013208Y029050D01*
X012940Y028782D01*
X012940Y028318D01*
X013208Y028050D01*
X012940Y027782D01*
X012940Y027318D01*
X013208Y027050D01*
X012940Y026782D01*
X012940Y026318D01*
X013208Y026050D01*
X012940Y025782D01*
X012940Y025318D01*
X013208Y025050D01*
X012940Y024782D01*
X012940Y024318D01*
X013208Y024050D01*
X012940Y023782D01*
X012940Y023318D01*
X013208Y023050D01*
X012940Y022782D01*
X012940Y022318D01*
X013208Y022050D01*
X012940Y021782D01*
X012940Y021318D01*
X013208Y021050D01*
X012940Y020782D01*
X012940Y020318D01*
X013208Y020050D01*
X012940Y019782D01*
X012940Y019318D01*
X013208Y019050D01*
X012940Y018782D01*
X012940Y018318D01*
X013268Y017990D01*
X013732Y017990D01*
X014060Y018318D01*
X014060Y018782D01*
X013792Y019050D01*
X014060Y019318D01*
X014060Y019782D01*
X013792Y020050D01*
X014060Y020318D01*
X014060Y020782D01*
X013792Y021050D01*
X014060Y021318D01*
X014060Y021782D01*
X013792Y022050D01*
X014060Y022318D01*
X014060Y022782D01*
X013792Y023050D01*
X014060Y023318D01*
X014060Y023782D01*
X013792Y024050D01*
X014060Y024318D01*
X014060Y024782D01*
X013792Y025050D01*
X014060Y025318D01*
X014060Y025782D01*
X013792Y026050D01*
X014060Y026318D01*
X014060Y026782D01*
X013792Y027050D01*
X014060Y027318D01*
X014060Y027782D01*
X013792Y028050D01*
X014060Y028318D01*
X014060Y028782D01*
X013792Y029050D01*
X014060Y029318D01*
X014060Y029782D01*
X013792Y030050D01*
X014060Y030318D01*
X014060Y030782D01*
X013792Y031050D01*
X014060Y031318D01*
X014060Y031782D01*
X013792Y032050D01*
X014060Y032318D01*
X014060Y032782D01*
X013792Y033050D01*
X014060Y033318D01*
X014060Y033782D01*
X013792Y034050D01*
X014060Y034318D01*
X014060Y034782D01*
X013792Y035050D01*
X014060Y035318D01*
X014060Y035782D01*
X013792Y036050D01*
X014060Y036318D01*
X014060Y036782D01*
X013792Y037050D01*
X014060Y037318D01*
X014060Y037782D01*
X013792Y038050D01*
X014060Y038318D01*
X014060Y038782D01*
X013792Y039050D01*
X014060Y039318D01*
X014060Y039782D01*
X013792Y040050D01*
X014060Y040318D01*
X014060Y040782D01*
X013732Y041110D01*
X013924Y040918D02*
X023076Y040918D01*
X022940Y040759D02*
X014060Y040759D01*
X014060Y040601D02*
X022940Y040601D01*
X022940Y040442D02*
X014060Y040442D01*
X014026Y040284D02*
X022974Y040284D01*
X023133Y040125D02*
X013867Y040125D01*
X013875Y039967D02*
X023125Y039967D01*
X022966Y039808D02*
X014034Y039808D01*
X014060Y039650D02*
X022940Y039650D01*
X022940Y039491D02*
X014060Y039491D01*
X014060Y039333D02*
X022940Y039333D01*
X023084Y039174D02*
X013916Y039174D01*
X013826Y039016D02*
X023174Y039016D01*
X023015Y038857D02*
X013985Y038857D01*
X014060Y038699D02*
X022940Y038699D01*
X022940Y038540D02*
X014060Y038540D01*
X014060Y038382D02*
X022940Y038382D01*
X023035Y038223D02*
X013965Y038223D01*
X013807Y038065D02*
X023193Y038065D01*
X023064Y037906D02*
X013936Y037906D01*
X014060Y037748D02*
X022940Y037748D01*
X022940Y037589D02*
X014060Y037589D01*
X014060Y037431D02*
X022940Y037431D01*
X022986Y037272D02*
X014014Y037272D01*
X013856Y037114D02*
X023144Y037114D01*
X023113Y036955D02*
X013887Y036955D01*
X014045Y036797D02*
X022955Y036797D01*
X022940Y036638D02*
X014060Y036638D01*
X014060Y036480D02*
X022940Y036480D01*
X022940Y036321D02*
X014060Y036321D01*
X013905Y036163D02*
X023095Y036163D01*
X023162Y036004D02*
X013838Y036004D01*
X013996Y035846D02*
X023004Y035846D01*
X022940Y035687D02*
X014060Y035687D01*
X014060Y035529D02*
X022940Y035529D01*
X022940Y035370D02*
X014060Y035370D01*
X013954Y035212D02*
X023046Y035212D01*
X023205Y035053D02*
X013795Y035053D01*
X013947Y034895D02*
X023053Y034895D01*
X022940Y034736D02*
X014060Y034736D01*
X014060Y034578D02*
X022940Y034578D01*
X022940Y034419D02*
X014060Y034419D01*
X014003Y034261D02*
X022997Y034261D01*
X023156Y034102D02*
X013844Y034102D01*
X013898Y033944D02*
X023102Y033944D01*
X022943Y033785D02*
X014057Y033785D01*
X014060Y033627D02*
X022940Y033627D01*
X022940Y033468D02*
X014060Y033468D01*
X014052Y033310D02*
X022948Y033310D01*
X023107Y033151D02*
X013893Y033151D01*
X013849Y032993D02*
X023151Y032993D01*
X022992Y032834D02*
X014008Y032834D01*
X014060Y032676D02*
X022940Y032676D01*
X022940Y032517D02*
X014060Y032517D01*
X014060Y032359D02*
X022940Y032359D01*
X023058Y032200D02*
X013942Y032200D01*
X013800Y032042D02*
X023200Y032042D01*
X023041Y031883D02*
X013959Y031883D01*
X014060Y031725D02*
X022940Y031725D01*
X022940Y031566D02*
X014060Y031566D01*
X014060Y031408D02*
X022940Y031408D01*
X023009Y031249D02*
X013991Y031249D01*
X013833Y031091D02*
X023167Y031091D01*
X023090Y030932D02*
X013910Y030932D01*
X014060Y030774D02*
X022940Y030774D01*
X022940Y030615D02*
X014060Y030615D01*
X014060Y030457D02*
X022940Y030457D01*
X022960Y030298D02*
X014040Y030298D01*
X013882Y030140D02*
X023118Y030140D01*
X023139Y029981D02*
X013861Y029981D01*
X014019Y029823D02*
X022981Y029823D01*
X022940Y029664D02*
X014060Y029664D01*
X014060Y029506D02*
X022940Y029506D01*
X022940Y029347D02*
X014060Y029347D01*
X013931Y029189D02*
X023069Y029189D01*
X023188Y029030D02*
X013812Y029030D01*
X013970Y028872D02*
X023030Y028872D01*
X022940Y028713D02*
X014060Y028713D01*
X014060Y028555D02*
X022940Y028555D01*
X022940Y028396D02*
X014060Y028396D01*
X013980Y028238D02*
X023020Y028238D01*
X023179Y028079D02*
X013821Y028079D01*
X013921Y027921D02*
X023079Y027921D01*
X022940Y027762D02*
X014060Y027762D01*
X014060Y027604D02*
X022940Y027604D01*
X022940Y027445D02*
X014060Y027445D01*
X014028Y027287D02*
X022971Y027287D01*
X023130Y027128D02*
X013870Y027128D01*
X013872Y026970D02*
X023128Y026970D01*
X022969Y026811D02*
X014031Y026811D01*
X014060Y026653D02*
X022940Y026653D01*
X022940Y026494D02*
X014060Y026494D01*
X014060Y026336D02*
X022940Y026336D01*
X023081Y026177D02*
X013919Y026177D01*
X013823Y026019D02*
X023177Y026019D01*
X023018Y025860D02*
X013982Y025860D01*
X014060Y025702D02*
X022940Y025702D01*
X022940Y025543D02*
X014060Y025543D01*
X014060Y025385D02*
X022940Y025385D01*
X023032Y025226D02*
X013968Y025226D01*
X013809Y025068D02*
X023191Y025068D01*
X023067Y024909D02*
X013933Y024909D01*
X014060Y024751D02*
X022940Y024751D01*
X022940Y024592D02*
X014060Y024592D01*
X014060Y024434D02*
X022940Y024434D01*
X022983Y024275D02*
X014017Y024275D01*
X013858Y024117D02*
X023142Y024117D01*
X023116Y023958D02*
X013884Y023958D01*
X014042Y023800D02*
X022958Y023800D01*
X022940Y023641D02*
X014060Y023641D01*
X014060Y023483D02*
X022940Y023483D01*
X022940Y023324D02*
X014060Y023324D01*
X013907Y023166D02*
X023093Y023166D01*
X023165Y023007D02*
X013835Y023007D01*
X013993Y022849D02*
X023007Y022849D01*
X022940Y022690D02*
X014060Y022690D01*
X014060Y022532D02*
X022940Y022532D01*
X022940Y022373D02*
X014060Y022373D01*
X013956Y022215D02*
X023044Y022215D01*
X023202Y022056D02*
X013798Y022056D01*
X013944Y021898D02*
X023056Y021898D01*
X022940Y021739D02*
X014060Y021739D01*
X014060Y021581D02*
X022940Y021581D01*
X022940Y021422D02*
X014060Y021422D01*
X014005Y021264D02*
X022995Y021264D01*
X023153Y021105D02*
X013847Y021105D01*
X013895Y020947D02*
X023105Y020947D01*
X022946Y020788D02*
X014054Y020788D01*
X014060Y020630D02*
X022940Y020630D01*
X022940Y020471D02*
X014060Y020471D01*
X014054Y020313D02*
X022946Y020313D01*
X023104Y020154D02*
X013896Y020154D01*
X013846Y019996D02*
X023154Y019996D01*
X022995Y019837D02*
X014005Y019837D01*
X014060Y019679D02*
X022940Y019679D01*
X022940Y019520D02*
X014060Y019520D01*
X014060Y019362D02*
X022940Y019362D01*
X023055Y019203D02*
X013945Y019203D01*
X013797Y019045D02*
X023203Y019045D01*
X023044Y018886D02*
X013956Y018886D01*
X014060Y018728D02*
X022940Y018728D01*
X022940Y018569D02*
X014060Y018569D01*
X014060Y018411D02*
X022940Y018411D01*
X023006Y018252D02*
X013994Y018252D01*
X013835Y018094D02*
X023165Y018094D01*
X013165Y018094D02*
X011835Y018094D01*
X011994Y018252D02*
X013006Y018252D01*
X012940Y018411D02*
X012060Y018411D01*
X012060Y018569D02*
X012940Y018569D01*
X012940Y018728D02*
X012060Y018728D01*
X011956Y018886D02*
X013044Y018886D01*
X013203Y019045D02*
X011797Y019045D01*
X011945Y019203D02*
X013055Y019203D01*
X012940Y019362D02*
X012060Y019362D01*
X012060Y019520D02*
X012940Y019520D01*
X012940Y019679D02*
X012060Y019679D01*
X012005Y019837D02*
X012995Y019837D01*
X013154Y019996D02*
X011846Y019996D01*
X011896Y020154D02*
X013104Y020154D01*
X012946Y020313D02*
X012054Y020313D01*
X012060Y020471D02*
X012940Y020471D01*
X012940Y020630D02*
X012060Y020630D01*
X012054Y020788D02*
X012946Y020788D01*
X013105Y020947D02*
X011895Y020947D01*
X011847Y021105D02*
X013153Y021105D01*
X012995Y021264D02*
X012005Y021264D01*
X012060Y021422D02*
X012940Y021422D01*
X012940Y021581D02*
X012060Y021581D01*
X012060Y021739D02*
X012940Y021739D01*
X013056Y021898D02*
X011944Y021898D01*
X011798Y022056D02*
X013202Y022056D01*
X013044Y022215D02*
X011956Y022215D01*
X012060Y022373D02*
X012940Y022373D01*
X012940Y022532D02*
X012060Y022532D01*
X012060Y022690D02*
X012940Y022690D01*
X013007Y022849D02*
X011993Y022849D01*
X011835Y023007D02*
X013165Y023007D01*
X013093Y023166D02*
X011907Y023166D01*
X012060Y023324D02*
X012940Y023324D01*
X012940Y023483D02*
X012060Y023483D01*
X012060Y023641D02*
X012940Y023641D01*
X012958Y023800D02*
X012042Y023800D01*
X011884Y023958D02*
X013116Y023958D01*
X013142Y024117D02*
X011858Y024117D01*
X012017Y024275D02*
X012983Y024275D01*
X012940Y024434D02*
X012060Y024434D01*
X012060Y024592D02*
X012940Y024592D01*
X012940Y024751D02*
X012060Y024751D01*
X011933Y024909D02*
X013067Y024909D01*
X013191Y025068D02*
X011809Y025068D01*
X011968Y025226D02*
X013032Y025226D01*
X012940Y025385D02*
X012060Y025385D01*
X012060Y025543D02*
X012940Y025543D01*
X012940Y025702D02*
X012060Y025702D01*
X011982Y025860D02*
X013018Y025860D01*
X013177Y026019D02*
X011823Y026019D01*
X011919Y026177D02*
X013081Y026177D01*
X012940Y026336D02*
X012060Y026336D01*
X012060Y026494D02*
X012940Y026494D01*
X012940Y026653D02*
X012060Y026653D01*
X012031Y026811D02*
X012969Y026811D01*
X013128Y026970D02*
X011872Y026970D01*
X011870Y027128D02*
X013130Y027128D01*
X012971Y027287D02*
X012028Y027287D01*
X012060Y027445D02*
X012940Y027445D01*
X012940Y027604D02*
X012060Y027604D01*
X012060Y027762D02*
X012940Y027762D01*
X013079Y027921D02*
X011921Y027921D01*
X011821Y028079D02*
X013179Y028079D01*
X013020Y028238D02*
X011980Y028238D01*
X012060Y028396D02*
X012940Y028396D01*
X012940Y028555D02*
X012060Y028555D01*
X012060Y028713D02*
X012940Y028713D01*
X013030Y028872D02*
X011970Y028872D01*
X011812Y029030D02*
X013188Y029030D01*
X013069Y029189D02*
X011931Y029189D01*
X012060Y029347D02*
X012940Y029347D01*
X012940Y029506D02*
X012060Y029506D01*
X012060Y029664D02*
X012940Y029664D01*
X012981Y029823D02*
X012019Y029823D01*
X011861Y029981D02*
X013139Y029981D01*
X013118Y030140D02*
X011882Y030140D01*
X012040Y030298D02*
X012960Y030298D01*
X012940Y030457D02*
X012060Y030457D01*
X012060Y030615D02*
X012940Y030615D01*
X012940Y030774D02*
X012060Y030774D01*
X011910Y030932D02*
X013090Y030932D01*
X013167Y031091D02*
X011833Y031091D01*
X011991Y031249D02*
X013009Y031249D01*
X012940Y031408D02*
X012060Y031408D01*
X012060Y031566D02*
X012940Y031566D01*
X012940Y031725D02*
X012060Y031725D01*
X011959Y031883D02*
X013041Y031883D01*
X013200Y032042D02*
X011800Y032042D01*
X011942Y032200D02*
X013058Y032200D01*
X012940Y032359D02*
X012060Y032359D01*
X012060Y032517D02*
X012940Y032517D01*
X012940Y032676D02*
X012060Y032676D01*
X012008Y032834D02*
X012992Y032834D01*
X013151Y032993D02*
X011849Y032993D01*
X011893Y033151D02*
X013107Y033151D01*
X012948Y033310D02*
X012052Y033310D01*
X012060Y033468D02*
X012940Y033468D01*
X012940Y033627D02*
X012060Y033627D01*
X012057Y033785D02*
X012943Y033785D01*
X013102Y033944D02*
X011898Y033944D01*
X011844Y034102D02*
X013156Y034102D01*
X012997Y034261D02*
X012003Y034261D01*
X012060Y034419D02*
X012940Y034419D01*
X012940Y034578D02*
X012060Y034578D01*
X012060Y034736D02*
X012940Y034736D01*
X013053Y034895D02*
X011947Y034895D01*
X011795Y035053D02*
X013205Y035053D01*
X013046Y035212D02*
X011954Y035212D01*
X012060Y035370D02*
X012940Y035370D01*
X012940Y035529D02*
X012060Y035529D01*
X012060Y035687D02*
X012940Y035687D01*
X013004Y035846D02*
X011996Y035846D01*
X011838Y036004D02*
X013162Y036004D01*
X013095Y036163D02*
X011905Y036163D01*
X012060Y036321D02*
X012940Y036321D01*
X012940Y036480D02*
X012060Y036480D01*
X012060Y036638D02*
X012940Y036638D01*
X012955Y036797D02*
X012045Y036797D01*
X011887Y036955D02*
X013113Y036955D01*
X013144Y037114D02*
X011856Y037114D01*
X012014Y037272D02*
X012986Y037272D01*
X012940Y037431D02*
X012060Y037431D01*
X012060Y037589D02*
X012940Y037589D01*
X012940Y037748D02*
X012060Y037748D01*
X011936Y037906D02*
X013064Y037906D01*
X013193Y038065D02*
X011807Y038065D01*
X011965Y038223D02*
X013035Y038223D01*
X012940Y038382D02*
X012060Y038382D01*
X012060Y038540D02*
X012940Y038540D01*
X012940Y038699D02*
X012060Y038699D01*
X011985Y038857D02*
X013015Y038857D01*
X013174Y039016D02*
X011826Y039016D01*
X011916Y039174D02*
X013084Y039174D01*
X012940Y039333D02*
X012060Y039333D01*
X012060Y039491D02*
X012940Y039491D01*
X012940Y039650D02*
X012060Y039650D01*
X012034Y039808D02*
X012966Y039808D01*
X013125Y039967D02*
X011875Y039967D01*
X011867Y040125D02*
X013133Y040125D01*
X012974Y040284D02*
X012026Y040284D01*
X012060Y040442D02*
X012940Y040442D01*
X012940Y040601D02*
X012060Y040601D01*
X012060Y040759D02*
X012940Y040759D01*
X013076Y040918D02*
X011924Y040918D01*
X011766Y041076D02*
X013234Y041076D01*
X037979Y012863D02*
X049000Y012863D01*
X049000Y012705D02*
X048704Y012705D01*
X048099Y012705D02*
X038060Y012705D01*
X038060Y012546D02*
X047765Y012546D01*
X047598Y012388D02*
X038060Y012388D01*
X037971Y012229D02*
X047484Y012229D01*
X041775Y010961D02*
X041374Y010961D01*
D18*
X039000Y014000D03*
X040000Y015000D03*
X039000Y017500D03*
X042500Y017500D03*
X043500Y016000D03*
X043500Y014500D03*
X044000Y019000D03*
X045000Y020500D03*
X043000Y022000D03*
X043500Y023000D03*
X045500Y023000D03*
X047500Y023500D03*
X049000Y024000D03*
X050000Y019500D03*
X049500Y015000D03*
X052500Y012000D03*
X052000Y010500D03*
X052000Y009500D03*
X052000Y008000D03*
X051000Y006500D03*
X050000Y007000D03*
X049500Y005500D03*
X048500Y005000D03*
X052500Y005000D03*
X033500Y017500D03*
X032500Y017500D03*
X031000Y017500D03*
X029000Y017500D03*
X028000Y017500D03*
X026500Y017500D03*
X024500Y017500D03*
X022000Y017500D03*
X020000Y017500D03*
X018500Y017500D03*
X017000Y017500D03*
X015000Y017500D03*
X012500Y017500D03*
X010000Y017500D03*
X008000Y017500D03*
X006500Y017500D03*
X005000Y017500D03*
X003500Y017500D03*
X001500Y017500D03*
X017500Y006000D03*
X017500Y005000D03*
X019500Y005000D03*
X019500Y006000D03*
X018500Y007000D03*
X019500Y009500D03*
X029500Y006000D03*
X029500Y005000D03*
X031500Y005000D03*
X031500Y006000D03*
X030500Y007000D03*
X031500Y009500D03*
X046000Y037500D03*
X047000Y039500D03*
X049000Y042000D03*
X048900Y043200D03*
X050000Y045000D03*
X049500Y046500D03*
X052000Y047000D03*
X047000Y043000D03*
X042500Y042500D03*
X039500Y042000D03*
X039500Y044500D03*
X040000Y046500D03*
X038000Y046000D03*
X035000Y046500D03*
X032500Y041000D03*
X028500Y041500D03*
X027500Y043500D03*
X020500Y044500D03*
X019000Y042000D03*
X016000Y044500D03*
X017500Y046500D03*
X019000Y047500D03*
X014000Y047000D03*
X012000Y046000D03*
X009500Y047000D03*
X007500Y046000D03*
X008000Y043000D03*
X004500Y044500D03*
X002500Y042500D03*
X002500Y046500D03*
X015500Y042500D03*
D19*
X013500Y010550D02*
X011500Y010550D01*
X013500Y010550D02*
X023500Y010550D01*
X025500Y010550D01*
X035500Y010550D01*
X037500Y010550D01*
X041000Y010550D01*
X041000Y010500D01*
D20*
X052000Y014000D03*
X048000Y047500D03*
M02*
