G75*
%MOIN*%
%OFA0B0*%
%FSLAX24Y24*%
%IPPOS*%
%LPD*%
%AMOC8*
5,1,8,0,0,1.08239X$1,22.5*
%
%ADD10C,0.0060*%
%ADD11C,0.0040*%
%ADD12C,0.0050*%
%ADD13C,0.0000*%
%ADD14C,0.0100*%
D10*
X011530Y006030D02*
X011530Y006671D01*
X011744Y006457D01*
X011957Y006671D01*
X011957Y006030D01*
X012175Y006137D02*
X012281Y006030D01*
X012495Y006030D01*
X012602Y006137D01*
X012602Y006564D01*
X012495Y006671D01*
X012281Y006671D01*
X012175Y006564D01*
X012175Y006137D01*
X012819Y006030D02*
X012819Y006671D01*
X013139Y006671D01*
X013246Y006564D01*
X013246Y006137D01*
X013139Y006030D01*
X012819Y006030D01*
X013464Y006137D02*
X013570Y006030D01*
X013784Y006030D01*
X013891Y006137D01*
X013891Y006350D01*
X013784Y006457D01*
X013677Y006457D01*
X013464Y006350D01*
X013464Y006671D01*
X013891Y006671D01*
X022530Y006671D02*
X022530Y006030D01*
X022957Y006030D02*
X022957Y006671D01*
X022744Y006457D01*
X022530Y006671D01*
X023175Y006564D02*
X023175Y006137D01*
X023281Y006030D01*
X023495Y006030D01*
X023602Y006137D01*
X023602Y006564D01*
X023495Y006671D01*
X023281Y006671D01*
X023175Y006564D01*
X023819Y006671D02*
X023819Y006030D01*
X024139Y006030D01*
X024246Y006137D01*
X024246Y006564D01*
X024139Y006671D01*
X023819Y006671D01*
X024464Y006671D02*
X024891Y006671D01*
X024891Y006564D01*
X024464Y006137D01*
X024464Y006030D01*
X025108Y005923D02*
X025535Y005923D01*
X025753Y006030D02*
X025753Y006457D01*
X025966Y006671D01*
X026180Y006457D01*
X026180Y006030D01*
X026397Y006137D02*
X026397Y006671D01*
X026180Y006350D02*
X025753Y006350D01*
X026397Y006137D02*
X026504Y006030D01*
X026718Y006030D01*
X026824Y006137D01*
X026824Y006671D01*
X027042Y006671D02*
X027469Y006030D01*
X027042Y006030D02*
X027469Y006671D01*
X035530Y006671D02*
X035530Y006030D01*
X035957Y006030D02*
X035957Y006671D01*
X035744Y006457D01*
X035530Y006671D01*
X036175Y006564D02*
X036175Y006137D01*
X036281Y006030D01*
X036495Y006030D01*
X036602Y006137D01*
X036602Y006564D01*
X036495Y006671D01*
X036281Y006671D01*
X036175Y006564D01*
X036819Y006671D02*
X036819Y006030D01*
X037139Y006030D01*
X037246Y006137D01*
X037246Y006564D01*
X037139Y006671D01*
X036819Y006671D01*
X037464Y006350D02*
X037464Y006137D01*
X037570Y006030D01*
X037784Y006030D01*
X037891Y006137D01*
X037891Y006244D01*
X037784Y006350D01*
X037464Y006350D01*
X037677Y006564D01*
X037891Y006671D01*
X045030Y006350D02*
X045457Y006350D01*
X045675Y006457D02*
X045888Y006671D01*
X045888Y006030D01*
X045675Y006030D02*
X046102Y006030D01*
X046319Y006137D02*
X046426Y006030D01*
X046639Y006030D01*
X046746Y006137D01*
X046746Y006350D01*
X046639Y006457D01*
X046533Y006457D01*
X046319Y006350D01*
X046319Y006671D01*
X046746Y006671D01*
X046964Y006671D02*
X046964Y006244D01*
X047177Y006030D01*
X047391Y006244D01*
X047391Y006671D01*
X045244Y006564D02*
X045244Y006137D01*
X050329Y008137D02*
X050436Y008030D01*
X050863Y008030D01*
X050970Y008137D01*
X050970Y008350D01*
X050863Y008457D01*
X050650Y008457D01*
X050650Y008244D01*
X050436Y008457D02*
X050329Y008350D01*
X050329Y008137D01*
X050329Y008675D02*
X050970Y009102D01*
X050329Y009102D01*
X050329Y009319D02*
X050329Y009639D01*
X050436Y009746D01*
X050863Y009746D01*
X050970Y009639D01*
X050970Y009319D01*
X050329Y009319D01*
X050329Y008675D02*
X050970Y008675D01*
X047391Y011744D02*
X047391Y012171D01*
X046964Y012171D02*
X046964Y011744D01*
X047177Y011530D01*
X047391Y011744D01*
X046746Y011850D02*
X046746Y011637D01*
X046639Y011530D01*
X046426Y011530D01*
X046319Y011637D01*
X046319Y011850D02*
X046533Y011957D01*
X046639Y011957D01*
X046746Y011850D01*
X046746Y012171D02*
X046319Y012171D01*
X046319Y011850D01*
X046102Y011530D02*
X045675Y011530D01*
X045888Y011530D02*
X045888Y012171D01*
X045675Y011957D01*
X045457Y011850D02*
X045030Y011850D01*
X016602Y016494D02*
X016602Y016921D01*
X016175Y016921D02*
X016175Y016494D01*
X016388Y016280D01*
X016602Y016494D01*
X015957Y016600D02*
X015530Y016600D01*
X015530Y016280D02*
X015530Y016921D01*
X015957Y016921D02*
X015957Y016280D01*
X029000Y043500D02*
X029820Y043500D01*
X029820Y043800D01*
X029520Y044110D01*
X029590Y044200D01*
X029610Y044290D01*
X029630Y044460D01*
X029630Y046200D01*
X029850Y046200D01*
X029850Y046250D01*
X029000Y046250D01*
X029000Y046530D01*
X029580Y046530D01*
X029590Y046430D01*
X029630Y046350D01*
X029690Y046290D01*
X029780Y046250D01*
X029910Y046260D01*
X030000Y046310D01*
X030050Y046390D01*
X030130Y046390D01*
X030200Y046420D01*
X030270Y046460D01*
X030340Y046470D01*
X030390Y046430D01*
X030440Y046360D01*
X030480Y046310D01*
X030530Y046260D01*
X030630Y046250D01*
X030710Y046270D01*
X030770Y046390D01*
X030810Y046470D01*
X030860Y046560D01*
X030880Y046600D01*
X030900Y046550D01*
X030920Y046470D01*
X030950Y046410D01*
X031000Y046340D01*
X031050Y046280D01*
X031130Y046240D01*
X031220Y046250D01*
X031290Y046340D01*
X031360Y046440D01*
X031400Y046480D01*
X031430Y046480D01*
X031500Y046450D01*
X031540Y046430D01*
X031620Y046410D01*
X031680Y046400D01*
X031690Y046390D01*
X031730Y046330D01*
X031780Y046290D01*
X031850Y046260D01*
X031910Y046250D01*
X032010Y046270D01*
X032100Y046340D01*
X032140Y046430D01*
X032160Y046540D01*
X032500Y046540D01*
X032500Y046250D01*
X029000Y046250D01*
X029000Y043500D01*
X029000Y043556D02*
X029820Y043556D01*
X029810Y043556D02*
X030130Y043556D01*
X030140Y043556D02*
X031300Y043556D01*
X031302Y043556D02*
X031940Y043556D01*
X031910Y043556D02*
X032500Y043556D01*
X032500Y043500D02*
X031910Y043500D01*
X031910Y044540D01*
X032210Y044840D01*
X032160Y044900D01*
X032130Y044930D01*
X032110Y044970D01*
X032110Y046200D01*
X031710Y046200D01*
X031700Y046250D01*
X032500Y046250D01*
X032500Y043500D01*
X032500Y043615D02*
X031910Y043615D01*
X031940Y043615D02*
X031304Y043615D01*
X031300Y043615D02*
X030140Y043615D01*
X030130Y043615D02*
X029810Y043615D01*
X029820Y043615D02*
X029000Y043615D01*
X029000Y043673D02*
X029820Y043673D01*
X029810Y043673D02*
X030130Y043673D01*
X030140Y043673D02*
X031300Y043673D01*
X031306Y043673D02*
X031940Y043673D01*
X031910Y043673D02*
X032500Y043673D01*
X032500Y043732D02*
X031910Y043732D01*
X031940Y043732D02*
X031308Y043732D01*
X031300Y043732D02*
X030140Y043732D01*
X030130Y043732D02*
X029810Y043732D01*
X029820Y043732D02*
X029000Y043732D01*
X029000Y043790D02*
X029820Y043790D01*
X029819Y043790D02*
X030130Y043790D01*
X030140Y043790D02*
X031300Y043790D01*
X031310Y043790D02*
X031300Y043500D01*
X031940Y043500D01*
X031940Y044540D01*
X031880Y044560D01*
X031790Y044660D01*
X031720Y044750D01*
X031700Y044870D01*
X031700Y046250D01*
X031070Y046250D01*
X031070Y046170D01*
X031060Y046200D01*
X031510Y046200D01*
X031510Y044250D01*
X031520Y044200D01*
X031560Y044140D01*
X031610Y044090D01*
X031310Y043790D01*
X031940Y043790D01*
X031910Y043790D02*
X032500Y043790D01*
X032500Y043849D02*
X031910Y043849D01*
X031940Y043849D02*
X031369Y043849D01*
X031300Y043810D02*
X031170Y043960D01*
X031110Y044110D01*
X031090Y044270D01*
X031080Y044870D01*
X030960Y044840D01*
X030820Y044820D01*
X030670Y044850D01*
X030530Y044920D01*
X030450Y044980D01*
X030330Y045100D01*
X030260Y045210D01*
X030220Y045330D01*
X030180Y045480D01*
X030190Y045610D01*
X030220Y045750D01*
X030290Y045890D01*
X030380Y045980D01*
X030500Y046070D01*
X030600Y046130D01*
X030740Y046170D01*
X030850Y046180D01*
X030970Y046160D01*
X031060Y046130D01*
X031060Y046250D01*
X030140Y046250D01*
X030140Y043500D01*
X031300Y043500D01*
X031300Y043810D01*
X031266Y043849D02*
X030140Y043849D01*
X030130Y043849D02*
X029872Y043849D01*
X029910Y043890D02*
X029810Y043780D01*
X029810Y043500D01*
X030130Y043500D01*
X030130Y046250D01*
X029850Y046250D01*
X029850Y046200D01*
X030050Y046200D01*
X030050Y044380D01*
X030030Y044130D01*
X029980Y043990D01*
X029910Y043890D01*
X029922Y043907D02*
X030130Y043907D01*
X030140Y043907D02*
X031216Y043907D01*
X031168Y043966D02*
X030140Y043966D01*
X030130Y043966D02*
X029963Y043966D01*
X029992Y044024D02*
X030130Y044024D01*
X030140Y044024D02*
X031144Y044024D01*
X031121Y044083D02*
X030140Y044083D01*
X030130Y044083D02*
X030013Y044083D01*
X030031Y044141D02*
X030130Y044141D01*
X030140Y044141D02*
X031106Y044141D01*
X031099Y044200D02*
X030140Y044200D01*
X030130Y044200D02*
X030036Y044200D01*
X030040Y044258D02*
X030130Y044258D01*
X030140Y044258D02*
X031091Y044258D01*
X031089Y044317D02*
X030140Y044317D01*
X030130Y044317D02*
X030045Y044317D01*
X030050Y044375D02*
X030130Y044375D01*
X030140Y044375D02*
X031088Y044375D01*
X031087Y044434D02*
X030140Y044434D01*
X030130Y044434D02*
X030050Y044434D01*
X030050Y044492D02*
X030130Y044492D01*
X030140Y044492D02*
X031086Y044492D01*
X031085Y044551D02*
X030140Y044551D01*
X030130Y044551D02*
X030050Y044551D01*
X030050Y044609D02*
X030130Y044609D01*
X030140Y044609D02*
X031084Y044609D01*
X031083Y044668D02*
X030140Y044668D01*
X030130Y044668D02*
X030050Y044668D01*
X030050Y044726D02*
X030130Y044726D01*
X030140Y044726D02*
X031082Y044726D01*
X031081Y044785D02*
X030140Y044785D01*
X030130Y044785D02*
X030050Y044785D01*
X030050Y044843D02*
X030130Y044843D01*
X030140Y044843D02*
X030704Y044843D01*
X030567Y044902D02*
X030140Y044902D01*
X030130Y044902D02*
X030050Y044902D01*
X030050Y044960D02*
X030130Y044960D01*
X030140Y044960D02*
X030476Y044960D01*
X030411Y045019D02*
X030140Y045019D01*
X030130Y045019D02*
X030050Y045019D01*
X030050Y045077D02*
X030130Y045077D01*
X030140Y045077D02*
X030353Y045077D01*
X030307Y045136D02*
X030140Y045136D01*
X030130Y045136D02*
X030050Y045136D01*
X030050Y045194D02*
X030130Y045194D01*
X030140Y045194D02*
X030270Y045194D01*
X030246Y045253D02*
X030140Y045253D01*
X030130Y045253D02*
X030050Y045253D01*
X030050Y045311D02*
X030130Y045311D01*
X030140Y045311D02*
X030226Y045311D01*
X030209Y045370D02*
X030140Y045370D01*
X030130Y045370D02*
X030050Y045370D01*
X030050Y045428D02*
X030130Y045428D01*
X030140Y045428D02*
X030194Y045428D01*
X030181Y045487D02*
X030140Y045487D01*
X030130Y045487D02*
X030050Y045487D01*
X030050Y045545D02*
X030130Y045545D01*
X030140Y045545D02*
X030185Y045545D01*
X030190Y045604D02*
X030140Y045604D01*
X030130Y045604D02*
X030050Y045604D01*
X030050Y045662D02*
X030130Y045662D01*
X030140Y045662D02*
X030201Y045662D01*
X030231Y045637D02*
X030658Y046064D01*
X030658Y045637D01*
X030552Y045530D01*
X030338Y045530D01*
X030231Y045637D01*
X030231Y046064D01*
X030338Y046171D01*
X030552Y046171D01*
X030658Y046064D01*
X030601Y046130D02*
X030140Y046130D01*
X030130Y046130D02*
X030050Y046130D01*
X030050Y046072D02*
X030130Y046072D01*
X030140Y046072D02*
X030503Y046072D01*
X030424Y046013D02*
X030140Y046013D01*
X030130Y046013D02*
X030050Y046013D01*
X030050Y045955D02*
X030130Y045955D01*
X030140Y045955D02*
X030355Y045955D01*
X030296Y045896D02*
X030140Y045896D01*
X030130Y045896D02*
X030050Y045896D01*
X030050Y045838D02*
X030130Y045838D01*
X030140Y045838D02*
X030264Y045838D01*
X030235Y045779D02*
X030140Y045779D01*
X030130Y045779D02*
X030050Y045779D01*
X030050Y045721D02*
X030130Y045721D01*
X030140Y045721D02*
X030214Y045721D01*
X030014Y045957D02*
X029800Y045530D01*
X029587Y045957D01*
X029630Y045955D02*
X029000Y045955D01*
X029000Y046013D02*
X029630Y046013D01*
X029630Y046072D02*
X029000Y046072D01*
X029000Y046130D02*
X029630Y046130D01*
X029630Y046189D02*
X029000Y046189D01*
X029000Y046247D02*
X029850Y046247D01*
X030130Y046247D01*
X030140Y046247D02*
X031060Y046247D01*
X031070Y046247D02*
X031700Y046247D01*
X031701Y046247D02*
X032500Y046247D01*
X032500Y046189D02*
X032110Y046189D01*
X032110Y046130D02*
X032500Y046130D01*
X032500Y046072D02*
X032110Y046072D01*
X032110Y046013D02*
X032500Y046013D01*
X032500Y045955D02*
X032110Y045955D01*
X032110Y045896D02*
X032500Y045896D01*
X032500Y045838D02*
X032110Y045838D01*
X032110Y045779D02*
X032500Y045779D01*
X032500Y045721D02*
X032110Y045721D01*
X032110Y045662D02*
X032500Y045662D01*
X032500Y045604D02*
X032110Y045604D01*
X032110Y045545D02*
X032500Y045545D01*
X032500Y045487D02*
X032110Y045487D01*
X032110Y045428D02*
X032500Y045428D01*
X032500Y045370D02*
X032110Y045370D01*
X032110Y045311D02*
X032500Y045311D01*
X032500Y045253D02*
X032110Y045253D01*
X032110Y045194D02*
X032500Y045194D01*
X032500Y045136D02*
X032110Y045136D01*
X032110Y045077D02*
X032500Y045077D01*
X032500Y045019D02*
X032110Y045019D01*
X032115Y044960D02*
X032500Y044960D01*
X032500Y044902D02*
X032158Y044902D01*
X032207Y044843D02*
X032500Y044843D01*
X032500Y044785D02*
X032155Y044785D01*
X032096Y044726D02*
X032500Y044726D01*
X032500Y044668D02*
X032038Y044668D01*
X031979Y044609D02*
X032500Y044609D01*
X032500Y044551D02*
X031921Y044551D01*
X031908Y044551D02*
X031510Y044551D01*
X031510Y044609D02*
X031836Y044609D01*
X031784Y044668D02*
X031510Y044668D01*
X031510Y044726D02*
X031739Y044726D01*
X031714Y044785D02*
X031510Y044785D01*
X031510Y044843D02*
X031704Y044843D01*
X031700Y044902D02*
X031510Y044902D01*
X031510Y044960D02*
X031700Y044960D01*
X031700Y045019D02*
X031510Y045019D01*
X031510Y045077D02*
X031700Y045077D01*
X031700Y045136D02*
X031510Y045136D01*
X031510Y045194D02*
X031700Y045194D01*
X031700Y045253D02*
X031510Y045253D01*
X031510Y045311D02*
X031700Y045311D01*
X031700Y045370D02*
X031510Y045370D01*
X031510Y045428D02*
X031700Y045428D01*
X031700Y045487D02*
X031510Y045487D01*
X031510Y045545D02*
X031700Y045545D01*
X031700Y045604D02*
X031510Y045604D01*
X031510Y045662D02*
X031700Y045662D01*
X031700Y045721D02*
X031510Y045721D01*
X031510Y045779D02*
X031700Y045779D01*
X031700Y045838D02*
X031510Y045838D01*
X031510Y045896D02*
X031700Y045896D01*
X031700Y045955D02*
X031510Y045955D01*
X031510Y046013D02*
X031700Y046013D01*
X031700Y046072D02*
X031510Y046072D01*
X031510Y046130D02*
X031700Y046130D01*
X031700Y046189D02*
X031510Y046189D01*
X031412Y046171D02*
X031412Y045530D01*
X031625Y045530D02*
X031198Y045530D01*
X030983Y045530D02*
X030876Y045530D01*
X030876Y045637D01*
X030983Y045637D01*
X030983Y045530D01*
X030718Y045500D02*
X030720Y045520D01*
X030726Y045539D01*
X030735Y045557D01*
X030748Y045572D01*
X030763Y045585D01*
X030781Y045594D01*
X030800Y045600D01*
X030820Y045602D01*
X030840Y045600D01*
X030859Y045594D01*
X030877Y045585D01*
X030892Y045572D01*
X030905Y045557D01*
X030914Y045539D01*
X030920Y045520D01*
X030922Y045500D01*
X030920Y045480D01*
X030914Y045461D01*
X030905Y045443D01*
X030892Y045428D01*
X030877Y045415D01*
X030859Y045406D01*
X030840Y045400D01*
X030820Y045398D01*
X030800Y045400D01*
X030781Y045406D01*
X030763Y045415D01*
X030748Y045428D01*
X030735Y045443D01*
X030726Y045461D01*
X030720Y045480D01*
X030718Y045500D01*
X030778Y045500D02*
X030780Y045509D01*
X030785Y045516D01*
X030793Y045521D01*
X030802Y045522D01*
X030811Y045519D01*
X030818Y045513D01*
X030822Y045505D01*
X030822Y045495D01*
X030818Y045487D01*
X030811Y045481D01*
X030802Y045478D01*
X030793Y045479D01*
X030785Y045484D01*
X030780Y045491D01*
X030778Y045500D01*
X030756Y045500D02*
X030758Y045514D01*
X030763Y045527D01*
X030772Y045538D01*
X030783Y045547D01*
X030796Y045552D01*
X030810Y045554D01*
X030824Y045552D01*
X030837Y045547D01*
X030848Y045538D01*
X030857Y045527D01*
X030862Y045514D01*
X030864Y045500D01*
X030862Y045486D01*
X030857Y045473D01*
X030848Y045462D01*
X030837Y045453D01*
X030824Y045448D01*
X030810Y045446D01*
X030796Y045448D01*
X030783Y045453D01*
X030772Y045462D01*
X030763Y045473D01*
X030758Y045486D01*
X030756Y045500D01*
X030601Y045500D02*
X030603Y045528D01*
X030609Y045556D01*
X030618Y045583D01*
X030631Y045609D01*
X030648Y045632D01*
X030667Y045653D01*
X030689Y045671D01*
X030714Y045686D01*
X030740Y045697D01*
X030767Y045705D01*
X030796Y045709D01*
X030824Y045709D01*
X030853Y045705D01*
X030880Y045697D01*
X030906Y045686D01*
X030931Y045671D01*
X030953Y045653D01*
X030972Y045632D01*
X030989Y045609D01*
X031002Y045583D01*
X031011Y045556D01*
X031017Y045528D01*
X031019Y045500D01*
X031017Y045472D01*
X031011Y045444D01*
X031002Y045417D01*
X030989Y045391D01*
X030972Y045368D01*
X030953Y045347D01*
X030931Y045329D01*
X030906Y045314D01*
X030880Y045303D01*
X030853Y045295D01*
X030824Y045291D01*
X030796Y045291D01*
X030767Y045295D01*
X030740Y045303D01*
X030714Y045314D01*
X030689Y045329D01*
X030667Y045347D01*
X030648Y045368D01*
X030631Y045391D01*
X030618Y045417D01*
X030609Y045444D01*
X030603Y045472D01*
X030601Y045500D01*
X030551Y045490D02*
X030553Y045522D01*
X030559Y045553D01*
X030568Y045584D01*
X030582Y045613D01*
X030599Y045640D01*
X030619Y045664D01*
X030641Y045687D01*
X030667Y045706D01*
X030695Y045722D01*
X030724Y045734D01*
X030755Y045743D01*
X030786Y045748D01*
X030818Y045749D01*
X030850Y045746D01*
X030881Y045739D01*
X030911Y045729D01*
X030939Y045714D01*
X030966Y045697D01*
X030990Y045676D01*
X031012Y045652D01*
X031030Y045626D01*
X031045Y045598D01*
X031057Y045569D01*
X031065Y045538D01*
X031069Y045506D01*
X031069Y045474D01*
X031065Y045442D01*
X031057Y045411D01*
X031045Y045382D01*
X031030Y045354D01*
X031012Y045328D01*
X030990Y045304D01*
X030966Y045283D01*
X030940Y045266D01*
X030911Y045251D01*
X030881Y045241D01*
X030850Y045234D01*
X030818Y045231D01*
X030786Y045232D01*
X030755Y045237D01*
X030724Y045246D01*
X030695Y045258D01*
X030667Y045274D01*
X030641Y045293D01*
X030619Y045316D01*
X030599Y045340D01*
X030582Y045367D01*
X030568Y045396D01*
X030559Y045427D01*
X030553Y045458D01*
X030551Y045490D01*
X030662Y045500D02*
X030664Y045525D01*
X030670Y045549D01*
X030679Y045572D01*
X030692Y045593D01*
X030708Y045612D01*
X030727Y045628D01*
X030748Y045641D01*
X030771Y045650D01*
X030795Y045656D01*
X030820Y045658D01*
X030845Y045656D01*
X030869Y045650D01*
X030892Y045641D01*
X030913Y045628D01*
X030932Y045612D01*
X030948Y045593D01*
X030961Y045572D01*
X030970Y045549D01*
X030976Y045525D01*
X030978Y045500D01*
X030976Y045475D01*
X030970Y045451D01*
X030961Y045428D01*
X030948Y045407D01*
X030932Y045388D01*
X030913Y045372D01*
X030892Y045359D01*
X030869Y045350D01*
X030845Y045344D01*
X030820Y045342D01*
X030795Y045344D01*
X030771Y045350D01*
X030748Y045359D01*
X030727Y045372D01*
X030708Y045388D01*
X030692Y045407D01*
X030679Y045428D01*
X030670Y045451D01*
X030664Y045475D01*
X030662Y045500D01*
X031198Y045957D02*
X031412Y046171D01*
X031263Y046306D02*
X031760Y046306D01*
X031707Y046364D02*
X031307Y046364D01*
X031348Y046423D02*
X031569Y046423D01*
X031630Y046570D02*
X031670Y046570D01*
X031710Y046640D01*
X031770Y046700D01*
X031830Y046730D01*
X031880Y046740D01*
X031940Y046740D01*
X032000Y046720D01*
X032050Y046690D01*
X032090Y046650D01*
X032120Y046610D01*
X032140Y046560D01*
X032150Y046510D01*
X032500Y046510D01*
X032500Y047000D01*
X029000Y047000D01*
X029000Y046510D01*
X029590Y046490D01*
X029590Y046570D01*
X029650Y046650D01*
X029710Y046710D01*
X029780Y046730D01*
X029860Y046730D01*
X029930Y046720D01*
X029980Y046690D01*
X030020Y046650D01*
X030050Y046600D01*
X030060Y046570D01*
X030100Y046570D01*
X030150Y046590D01*
X030210Y046620D01*
X030260Y046640D01*
X030320Y046660D01*
X030360Y046660D01*
X030410Y046640D01*
X030450Y046610D01*
X030500Y046570D01*
X030540Y046520D01*
X030560Y046480D01*
X030590Y046440D01*
X030630Y046500D01*
X030680Y046600D01*
X030720Y046660D01*
X030760Y046720D01*
X030800Y046770D01*
X030830Y046790D01*
X030880Y046800D01*
X030910Y046790D01*
X030940Y046770D01*
X030980Y046720D01*
X031020Y046660D01*
X031040Y046600D01*
X031060Y046560D01*
X031080Y046510D01*
X031100Y046470D01*
X031120Y046440D01*
X031140Y046420D01*
X031170Y046440D01*
X031210Y046500D01*
X031240Y046550D01*
X031280Y046600D01*
X031330Y046650D01*
X031390Y046660D01*
X031460Y046660D01*
X031520Y046640D01*
X031550Y046620D01*
X031590Y046590D01*
X031630Y046570D01*
X031579Y046598D02*
X031686Y046598D01*
X031727Y046657D02*
X031470Y046657D01*
X031370Y046657D02*
X031021Y046657D01*
X031041Y046598D02*
X031279Y046598D01*
X031234Y046540D02*
X031068Y046540D01*
X031094Y046481D02*
X031197Y046481D01*
X031144Y046423D02*
X031137Y046423D01*
X031029Y046306D02*
X030728Y046306D01*
X030757Y046364D02*
X030983Y046364D01*
X030944Y046423D02*
X030786Y046423D01*
X030816Y046481D02*
X030917Y046481D01*
X030903Y046540D02*
X030849Y046540D01*
X030879Y046598D02*
X030881Y046598D01*
X030770Y046530D02*
X030557Y046530D01*
X030450Y046637D01*
X030450Y046850D01*
X030557Y046957D01*
X030770Y046957D01*
X030877Y046850D01*
X030877Y046744D01*
X030450Y046744D01*
X030368Y046657D02*
X030718Y046657D01*
X030757Y046715D02*
X029938Y046715D01*
X030013Y046657D02*
X030310Y046657D01*
X030233Y046530D02*
X030233Y046850D01*
X030126Y046957D01*
X029806Y046957D01*
X029806Y046530D01*
X029657Y046657D02*
X029000Y046657D01*
X029000Y046715D02*
X029728Y046715D01*
X029588Y046744D02*
X029268Y046744D01*
X029161Y046637D01*
X029268Y046530D01*
X029588Y046530D01*
X029588Y046850D01*
X029481Y046957D01*
X029268Y046957D01*
X029000Y046949D02*
X032500Y046949D01*
X032500Y046891D02*
X029000Y046891D01*
X029000Y046832D02*
X032500Y046832D01*
X032500Y046774D02*
X030934Y046774D01*
X030983Y046715D02*
X031800Y046715D01*
X032008Y046715D02*
X032500Y046715D01*
X032500Y046657D02*
X032083Y046657D01*
X032125Y046598D02*
X032500Y046598D01*
X032500Y046540D02*
X032144Y046540D01*
X032160Y046540D02*
X032500Y046540D01*
X032500Y046481D02*
X032149Y046481D01*
X032137Y046423D02*
X032500Y046423D01*
X032500Y046364D02*
X032111Y046364D01*
X032056Y046306D02*
X032500Y046306D01*
X031195Y046247D02*
X031116Y046247D01*
X031070Y046189D02*
X031064Y046189D01*
X031060Y046189D02*
X030140Y046189D01*
X030130Y046189D02*
X030050Y046189D01*
X029992Y046306D02*
X030484Y046306D01*
X030437Y046364D02*
X030034Y046364D01*
X030205Y046423D02*
X030395Y046423D01*
X030524Y046540D02*
X030650Y046540D01*
X030679Y046598D02*
X030465Y046598D01*
X030559Y046481D02*
X030617Y046481D01*
X030806Y046774D02*
X029000Y046774D01*
X029000Y046598D02*
X029611Y046598D01*
X029590Y046540D02*
X029000Y046540D01*
X028945Y046530D02*
X028731Y046530D01*
X028838Y046530D02*
X028838Y047171D01*
X028731Y047171D01*
X028514Y046850D02*
X028407Y046957D01*
X028087Y046957D01*
X028087Y046316D01*
X028087Y046530D02*
X028407Y046530D01*
X028514Y046637D01*
X028514Y046850D01*
X029000Y046481D02*
X029585Y046481D01*
X029594Y046423D02*
X029000Y046423D01*
X029000Y046364D02*
X029623Y046364D01*
X029674Y046306D02*
X029000Y046306D01*
X029000Y045896D02*
X029630Y045896D01*
X029630Y045838D02*
X029000Y045838D01*
X029000Y045779D02*
X029630Y045779D01*
X029630Y045721D02*
X029000Y045721D01*
X029000Y045662D02*
X029630Y045662D01*
X029630Y045604D02*
X029000Y045604D01*
X029000Y045545D02*
X029630Y045545D01*
X029630Y045487D02*
X029000Y045487D01*
X029000Y045428D02*
X029630Y045428D01*
X029630Y045370D02*
X029000Y045370D01*
X029000Y045311D02*
X029630Y045311D01*
X029630Y045253D02*
X029000Y045253D01*
X029000Y045194D02*
X029630Y045194D01*
X029630Y045136D02*
X029000Y045136D01*
X029000Y045077D02*
X029630Y045077D01*
X029630Y045019D02*
X029000Y045019D01*
X029000Y044960D02*
X029630Y044960D01*
X029630Y044902D02*
X029000Y044902D01*
X029000Y044843D02*
X029630Y044843D01*
X029630Y044785D02*
X029000Y044785D01*
X029000Y044726D02*
X029630Y044726D01*
X029630Y044668D02*
X029000Y044668D01*
X029000Y044609D02*
X029630Y044609D01*
X029630Y044551D02*
X029000Y044551D01*
X029000Y044492D02*
X029630Y044492D01*
X029627Y044434D02*
X029000Y044434D01*
X029000Y044375D02*
X029620Y044375D01*
X029613Y044317D02*
X029000Y044317D01*
X029000Y044258D02*
X029603Y044258D01*
X029590Y044200D02*
X029000Y044200D01*
X029000Y044141D02*
X029544Y044141D01*
X029546Y044083D02*
X029000Y044083D01*
X029000Y044024D02*
X029603Y044024D01*
X029660Y043966D02*
X029000Y043966D01*
X029000Y043907D02*
X029716Y043907D01*
X029773Y043849D02*
X029000Y043849D01*
X030973Y044843D02*
X031080Y044843D01*
X031510Y044492D02*
X031940Y044492D01*
X031910Y044492D02*
X032500Y044492D01*
X032500Y044434D02*
X031910Y044434D01*
X031940Y044434D02*
X031510Y044434D01*
X031510Y044375D02*
X031940Y044375D01*
X031910Y044375D02*
X032500Y044375D01*
X032500Y044317D02*
X031910Y044317D01*
X031940Y044317D02*
X031510Y044317D01*
X031510Y044258D02*
X031940Y044258D01*
X031910Y044258D02*
X032500Y044258D01*
X032500Y044200D02*
X031910Y044200D01*
X031940Y044200D02*
X031520Y044200D01*
X031559Y044141D02*
X031940Y044141D01*
X031910Y044141D02*
X032500Y044141D01*
X032500Y044083D02*
X031910Y044083D01*
X031940Y044083D02*
X031603Y044083D01*
X031544Y044024D02*
X031940Y044024D01*
X031910Y044024D02*
X032500Y044024D01*
X032500Y043966D02*
X031910Y043966D01*
X031940Y043966D02*
X031486Y043966D01*
X031427Y043907D02*
X031940Y043907D01*
X031910Y043907D02*
X032500Y043907D01*
X031060Y046130D02*
X031059Y046130D01*
X030166Y046598D02*
X030051Y046598D01*
X028725Y045850D02*
X028298Y045850D01*
X027870Y046530D02*
X027550Y046744D01*
X027870Y046957D01*
X027550Y047171D02*
X027550Y046530D01*
X027332Y046530D02*
X027012Y046530D01*
X026905Y046637D01*
X026905Y046850D01*
X027012Y046957D01*
X027332Y046957D01*
X026688Y046850D02*
X026688Y046530D01*
X026367Y046530D01*
X026261Y046637D01*
X026367Y046744D01*
X026688Y046744D01*
X026688Y046850D02*
X026581Y046957D01*
X026367Y046957D01*
X026043Y046957D02*
X025936Y046850D01*
X025616Y046850D01*
X025616Y046530D02*
X025936Y046530D01*
X026043Y046637D01*
X026043Y046744D01*
X025936Y046850D01*
X026043Y046957D02*
X026043Y047064D01*
X025936Y047171D01*
X025616Y047171D01*
X025616Y046530D01*
X025503Y045957D02*
X025289Y045957D01*
X025182Y045850D01*
X025182Y045637D01*
X025289Y045530D01*
X025503Y045530D01*
X025609Y045637D01*
X025609Y045850D01*
X025503Y045957D01*
X025934Y045957D02*
X026147Y045957D01*
X026254Y045850D01*
X026254Y045530D01*
X025934Y045530D01*
X025827Y045637D01*
X025934Y045744D01*
X026254Y045744D01*
X026472Y045744D02*
X026685Y045957D01*
X026792Y045957D01*
X027009Y045850D02*
X027115Y045957D01*
X027436Y045957D01*
X027436Y046171D02*
X027436Y045530D01*
X027115Y045530D01*
X027009Y045637D01*
X027009Y045850D01*
X026472Y045957D02*
X026472Y045530D01*
X024965Y045637D02*
X024965Y045850D01*
X024858Y045957D01*
X024538Y045957D01*
X024538Y046171D02*
X024538Y045530D01*
X024858Y045530D01*
X024965Y045637D01*
X024754Y046530D02*
X024434Y046530D01*
X024327Y046637D01*
X024327Y046850D01*
X024434Y046957D01*
X024754Y046957D01*
X024754Y047171D02*
X024754Y046530D01*
X024110Y046957D02*
X024003Y046957D01*
X023790Y046744D01*
X023790Y046957D02*
X023790Y046530D01*
X023572Y046530D02*
X023572Y046850D01*
X023466Y046957D01*
X023252Y046957D01*
X023252Y046744D02*
X023572Y046744D01*
X023572Y046530D02*
X023252Y046530D01*
X023145Y046637D01*
X023252Y046744D01*
X022928Y046957D02*
X022608Y046957D01*
X022501Y046850D01*
X022501Y046637D01*
X022608Y046530D01*
X022928Y046530D01*
X022926Y045957D02*
X023246Y045957D01*
X023464Y045957D02*
X023677Y045957D01*
X023570Y046064D02*
X023570Y045637D01*
X023677Y045530D01*
X023246Y045637D02*
X023139Y045744D01*
X022926Y045744D01*
X022819Y045850D01*
X022926Y045957D01*
X022602Y045850D02*
X022602Y045744D01*
X022175Y045744D01*
X022175Y045850D02*
X022281Y045957D01*
X022495Y045957D01*
X022602Y045850D01*
X022495Y045530D02*
X022281Y045530D01*
X022175Y045637D01*
X022175Y045850D01*
X021957Y046171D02*
X021530Y046171D01*
X021744Y046171D02*
X021744Y045530D01*
X021963Y046530D02*
X021856Y046637D01*
X021856Y046850D01*
X021963Y046957D01*
X022176Y046957D01*
X022283Y046850D01*
X022283Y046637D01*
X022176Y046530D01*
X021963Y046530D01*
X021639Y046957D02*
X021533Y046957D01*
X021319Y046744D01*
X021319Y046957D02*
X021319Y046530D01*
X021102Y046530D02*
X021102Y046957D01*
X021102Y046530D02*
X020781Y046530D01*
X020675Y046637D01*
X020675Y046957D01*
X020457Y047171D02*
X020030Y047171D01*
X020030Y046530D01*
X020457Y046530D01*
X020244Y046850D02*
X020030Y046850D01*
X022819Y045530D02*
X023139Y045530D01*
X023246Y045637D01*
D11*
X050520Y025367D02*
X050520Y025060D01*
X050827Y025367D01*
X050904Y025367D01*
X050980Y025290D01*
X050980Y025136D01*
X050904Y025060D01*
X050980Y024906D02*
X050597Y024906D01*
X050520Y024829D01*
X050520Y024676D01*
X050597Y024599D01*
X050980Y024599D01*
D12*
X000500Y000500D02*
X000500Y051600D01*
X053500Y051600D01*
X053500Y000500D01*
X000500Y000500D01*
X009725Y007675D02*
X010175Y007975D01*
X010100Y008135D02*
X010175Y008210D01*
X010175Y008361D01*
X010100Y008436D01*
X009950Y008436D01*
X009875Y008361D01*
X009875Y008286D01*
X009950Y008135D01*
X009725Y008135D01*
X009725Y008436D01*
X009725Y007975D02*
X010175Y007675D01*
X011400Y009625D02*
X011325Y009700D01*
X011400Y009775D01*
X011625Y009775D01*
X011625Y009850D02*
X011625Y009625D01*
X011400Y009625D01*
X011400Y009925D02*
X011550Y009925D01*
X011625Y009850D01*
X011825Y009700D02*
X011900Y009625D01*
X012050Y009625D01*
X012125Y009700D01*
X012125Y009775D01*
X012050Y009850D01*
X011975Y009850D01*
X012050Y009850D02*
X012125Y009925D01*
X012125Y010000D01*
X012050Y010075D01*
X011900Y010075D01*
X011825Y010000D01*
X012285Y010000D02*
X012360Y010075D01*
X012511Y010075D01*
X012586Y010000D01*
X012586Y009925D01*
X012285Y009625D01*
X012586Y009625D01*
X013575Y009350D02*
X013575Y009200D01*
X013650Y009125D01*
X013875Y009125D01*
X013875Y009425D02*
X013650Y009425D01*
X013575Y009350D01*
X012725Y013075D02*
X012275Y013075D01*
X012275Y013300D01*
X012350Y013375D01*
X012650Y013375D01*
X012725Y013300D01*
X012725Y013075D01*
X012725Y013535D02*
X012725Y013686D01*
X012725Y013610D02*
X012275Y013610D01*
X012275Y013535D02*
X012275Y013686D01*
X012275Y013842D02*
X012725Y014143D01*
X012275Y014143D01*
X012500Y014303D02*
X012275Y014528D01*
X012725Y014528D01*
X012725Y014763D02*
X012725Y015063D01*
X012725Y014913D02*
X012275Y014913D01*
X012425Y014763D01*
X012500Y014603D02*
X012500Y014303D01*
X012725Y013842D02*
X012275Y013842D01*
X012500Y015223D02*
X012500Y015449D01*
X012575Y015524D01*
X012650Y015524D01*
X012725Y015449D01*
X012725Y015299D01*
X012650Y015223D01*
X012500Y015223D01*
X012350Y015374D01*
X012275Y015524D01*
X012425Y015684D02*
X012275Y015834D01*
X012725Y015834D01*
X012725Y015684D02*
X012725Y015984D01*
X012725Y016144D02*
X012425Y016445D01*
X012350Y016445D01*
X012275Y016369D01*
X012275Y016219D01*
X012350Y016144D01*
X012725Y016144D02*
X012725Y016445D01*
X012500Y017065D02*
X012500Y017365D01*
X012650Y017525D02*
X012725Y017601D01*
X012725Y017751D01*
X012650Y017826D01*
X012350Y017826D02*
X012275Y017751D01*
X012275Y017601D01*
X012350Y017525D01*
X012650Y017525D01*
X015890Y001950D02*
X015892Y001999D01*
X015898Y002048D01*
X015908Y002096D01*
X015921Y002143D01*
X015939Y002189D01*
X015960Y002233D01*
X015984Y002276D01*
X016012Y002316D01*
X016043Y002355D01*
X016077Y002390D01*
X016114Y002423D01*
X016153Y002452D01*
X016195Y002478D01*
X016238Y002501D01*
X016284Y002520D01*
X016330Y002536D01*
X016378Y002548D01*
X016426Y002556D01*
X016475Y002560D01*
X016525Y002560D01*
X016574Y002556D01*
X016622Y002548D01*
X016670Y002536D01*
X016716Y002520D01*
X016762Y002501D01*
X016805Y002478D01*
X016847Y002452D01*
X016886Y002423D01*
X016923Y002390D01*
X016957Y002355D01*
X016988Y002316D01*
X017016Y002276D01*
X017040Y002233D01*
X017061Y002189D01*
X017079Y002143D01*
X017092Y002096D01*
X017102Y002048D01*
X017108Y001999D01*
X017110Y001950D01*
X017108Y001901D01*
X017102Y001852D01*
X017092Y001804D01*
X017079Y001757D01*
X017061Y001711D01*
X017040Y001667D01*
X017016Y001624D01*
X016988Y001584D01*
X016957Y001545D01*
X016923Y001510D01*
X016886Y001477D01*
X016847Y001448D01*
X016805Y001422D01*
X016762Y001399D01*
X016716Y001380D01*
X016670Y001364D01*
X016622Y001352D01*
X016574Y001344D01*
X016525Y001340D01*
X016475Y001340D01*
X016426Y001344D01*
X016378Y001352D01*
X016330Y001364D01*
X016284Y001380D01*
X016238Y001399D01*
X016195Y001422D01*
X016153Y001448D01*
X016114Y001477D01*
X016077Y001510D01*
X016043Y001545D01*
X016012Y001584D01*
X015984Y001624D01*
X015960Y001667D01*
X015939Y001711D01*
X015921Y001757D01*
X015908Y001804D01*
X015898Y001852D01*
X015892Y001901D01*
X015890Y001950D01*
X033725Y007675D02*
X034175Y007975D01*
X034100Y008135D02*
X034175Y008210D01*
X034175Y008361D01*
X034100Y008436D01*
X034025Y008436D01*
X033950Y008361D01*
X033950Y008135D01*
X034100Y008135D01*
X033950Y008135D02*
X033800Y008286D01*
X033725Y008436D01*
X033725Y007975D02*
X034175Y007675D01*
X035400Y009625D02*
X035325Y009700D01*
X035400Y009775D01*
X035625Y009775D01*
X035625Y009850D02*
X035625Y009625D01*
X035400Y009625D01*
X035400Y009925D02*
X035550Y009925D01*
X035625Y009850D01*
X035825Y009700D02*
X035900Y009625D01*
X036050Y009625D01*
X036125Y009700D01*
X036125Y009775D01*
X036050Y009850D01*
X035975Y009850D01*
X036050Y009850D02*
X036125Y009925D01*
X036125Y010000D01*
X036050Y010075D01*
X035900Y010075D01*
X035825Y010000D01*
X036285Y010000D02*
X036360Y010075D01*
X036511Y010075D01*
X036586Y010000D01*
X036586Y009925D01*
X036285Y009625D01*
X036586Y009625D01*
X037575Y009350D02*
X037575Y009200D01*
X037650Y009125D01*
X037875Y009125D01*
X037875Y009425D02*
X037650Y009425D01*
X037575Y009350D01*
X036725Y013075D02*
X036275Y013075D01*
X036275Y013300D01*
X036350Y013375D01*
X036650Y013375D01*
X036725Y013300D01*
X036725Y013075D01*
X036725Y013535D02*
X036725Y013686D01*
X036725Y013610D02*
X036275Y013610D01*
X036275Y013535D02*
X036275Y013686D01*
X036275Y013842D02*
X036725Y014143D01*
X036275Y014143D01*
X036500Y014303D02*
X036275Y014528D01*
X036725Y014528D01*
X036725Y014763D02*
X036725Y015063D01*
X036725Y014913D02*
X036275Y014913D01*
X036425Y014763D01*
X036500Y014603D02*
X036500Y014303D01*
X036725Y013842D02*
X036275Y013842D01*
X036500Y015223D02*
X036350Y015374D01*
X036275Y015524D01*
X036425Y015684D02*
X036275Y015834D01*
X036725Y015834D01*
X036725Y015684D02*
X036725Y015984D01*
X036725Y016144D02*
X036425Y016445D01*
X036350Y016445D01*
X036275Y016369D01*
X036275Y016219D01*
X036350Y016144D01*
X036725Y016144D02*
X036725Y016445D01*
X036500Y017065D02*
X036500Y017365D01*
X036650Y017525D02*
X036725Y017601D01*
X036725Y017751D01*
X036650Y017826D01*
X036350Y017826D02*
X036275Y017751D01*
X036275Y017601D01*
X036350Y017525D01*
X036650Y017525D01*
X036650Y015524D02*
X036575Y015524D01*
X036500Y015449D01*
X036500Y015223D01*
X036650Y015223D01*
X036725Y015299D01*
X036725Y015449D01*
X036650Y015524D01*
X049890Y001950D02*
X049892Y001999D01*
X049898Y002048D01*
X049908Y002096D01*
X049921Y002143D01*
X049939Y002189D01*
X049960Y002233D01*
X049984Y002276D01*
X050012Y002316D01*
X050043Y002355D01*
X050077Y002390D01*
X050114Y002423D01*
X050153Y002452D01*
X050195Y002478D01*
X050238Y002501D01*
X050284Y002520D01*
X050330Y002536D01*
X050378Y002548D01*
X050426Y002556D01*
X050475Y002560D01*
X050525Y002560D01*
X050574Y002556D01*
X050622Y002548D01*
X050670Y002536D01*
X050716Y002520D01*
X050762Y002501D01*
X050805Y002478D01*
X050847Y002452D01*
X050886Y002423D01*
X050923Y002390D01*
X050957Y002355D01*
X050988Y002316D01*
X051016Y002276D01*
X051040Y002233D01*
X051061Y002189D01*
X051079Y002143D01*
X051092Y002096D01*
X051102Y002048D01*
X051108Y001999D01*
X051110Y001950D01*
X051108Y001901D01*
X051102Y001852D01*
X051092Y001804D01*
X051079Y001757D01*
X051061Y001711D01*
X051040Y001667D01*
X051016Y001624D01*
X050988Y001584D01*
X050957Y001545D01*
X050923Y001510D01*
X050886Y001477D01*
X050847Y001448D01*
X050805Y001422D01*
X050762Y001399D01*
X050716Y001380D01*
X050670Y001364D01*
X050622Y001352D01*
X050574Y001344D01*
X050525Y001340D01*
X050475Y001340D01*
X050426Y001344D01*
X050378Y001352D01*
X050330Y001364D01*
X050284Y001380D01*
X050238Y001399D01*
X050195Y001422D01*
X050153Y001448D01*
X050114Y001477D01*
X050077Y001510D01*
X050043Y001545D01*
X050012Y001584D01*
X049984Y001624D01*
X049960Y001667D01*
X049939Y001711D01*
X049921Y001757D01*
X049908Y001804D01*
X049898Y001852D01*
X049892Y001901D01*
X049890Y001950D01*
X036375Y042075D02*
X036075Y042075D01*
X036225Y042075D02*
X036225Y042525D01*
X036075Y042375D01*
X035625Y042375D02*
X035475Y042525D01*
X035325Y042375D01*
X035325Y042075D01*
X035325Y042300D02*
X035625Y042300D01*
X035625Y042375D02*
X035625Y042075D01*
X037575Y042650D02*
X037650Y042575D01*
X037800Y042575D01*
X037875Y042650D01*
X037575Y042650D02*
X037575Y042950D01*
X037650Y043025D01*
X037800Y043025D01*
X037875Y042950D01*
X049890Y050150D02*
X049892Y050199D01*
X049898Y050248D01*
X049908Y050296D01*
X049921Y050343D01*
X049939Y050389D01*
X049960Y050433D01*
X049984Y050476D01*
X050012Y050516D01*
X050043Y050555D01*
X050077Y050590D01*
X050114Y050623D01*
X050153Y050652D01*
X050195Y050678D01*
X050238Y050701D01*
X050284Y050720D01*
X050330Y050736D01*
X050378Y050748D01*
X050426Y050756D01*
X050475Y050760D01*
X050525Y050760D01*
X050574Y050756D01*
X050622Y050748D01*
X050670Y050736D01*
X050716Y050720D01*
X050762Y050701D01*
X050805Y050678D01*
X050847Y050652D01*
X050886Y050623D01*
X050923Y050590D01*
X050957Y050555D01*
X050988Y050516D01*
X051016Y050476D01*
X051040Y050433D01*
X051061Y050389D01*
X051079Y050343D01*
X051092Y050296D01*
X051102Y050248D01*
X051108Y050199D01*
X051110Y050150D01*
X051108Y050101D01*
X051102Y050052D01*
X051092Y050004D01*
X051079Y049957D01*
X051061Y049911D01*
X051040Y049867D01*
X051016Y049824D01*
X050988Y049784D01*
X050957Y049745D01*
X050923Y049710D01*
X050886Y049677D01*
X050847Y049648D01*
X050805Y049622D01*
X050762Y049599D01*
X050716Y049580D01*
X050670Y049564D01*
X050622Y049552D01*
X050574Y049544D01*
X050525Y049540D01*
X050475Y049540D01*
X050426Y049544D01*
X050378Y049552D01*
X050330Y049564D01*
X050284Y049580D01*
X050238Y049599D01*
X050195Y049622D01*
X050153Y049648D01*
X050114Y049677D01*
X050077Y049710D01*
X050043Y049745D01*
X050012Y049784D01*
X049984Y049824D01*
X049960Y049867D01*
X049939Y049911D01*
X049921Y049957D01*
X049908Y050004D01*
X049898Y050052D01*
X049892Y050101D01*
X049890Y050150D01*
X015890Y050150D02*
X015892Y050199D01*
X015898Y050248D01*
X015908Y050296D01*
X015921Y050343D01*
X015939Y050389D01*
X015960Y050433D01*
X015984Y050476D01*
X016012Y050516D01*
X016043Y050555D01*
X016077Y050590D01*
X016114Y050623D01*
X016153Y050652D01*
X016195Y050678D01*
X016238Y050701D01*
X016284Y050720D01*
X016330Y050736D01*
X016378Y050748D01*
X016426Y050756D01*
X016475Y050760D01*
X016525Y050760D01*
X016574Y050756D01*
X016622Y050748D01*
X016670Y050736D01*
X016716Y050720D01*
X016762Y050701D01*
X016805Y050678D01*
X016847Y050652D01*
X016886Y050623D01*
X016923Y050590D01*
X016957Y050555D01*
X016988Y050516D01*
X017016Y050476D01*
X017040Y050433D01*
X017061Y050389D01*
X017079Y050343D01*
X017092Y050296D01*
X017102Y050248D01*
X017108Y050199D01*
X017110Y050150D01*
X017108Y050101D01*
X017102Y050052D01*
X017092Y050004D01*
X017079Y049957D01*
X017061Y049911D01*
X017040Y049867D01*
X017016Y049824D01*
X016988Y049784D01*
X016957Y049745D01*
X016923Y049710D01*
X016886Y049677D01*
X016847Y049648D01*
X016805Y049622D01*
X016762Y049599D01*
X016716Y049580D01*
X016670Y049564D01*
X016622Y049552D01*
X016574Y049544D01*
X016525Y049540D01*
X016475Y049540D01*
X016426Y049544D01*
X016378Y049552D01*
X016330Y049564D01*
X016284Y049580D01*
X016238Y049599D01*
X016195Y049622D01*
X016153Y049648D01*
X016114Y049677D01*
X016077Y049710D01*
X016043Y049745D01*
X016012Y049784D01*
X015984Y049824D01*
X015960Y049867D01*
X015939Y049911D01*
X015921Y049957D01*
X015908Y050004D01*
X015898Y050052D01*
X015892Y050101D01*
X015890Y050150D01*
X013800Y043025D02*
X013650Y043025D01*
X013575Y042950D01*
X013575Y042650D01*
X013650Y042575D01*
X013800Y042575D01*
X013875Y042650D01*
X013875Y042950D02*
X013800Y043025D01*
X012375Y042075D02*
X012075Y042075D01*
X012225Y042075D02*
X012225Y042525D01*
X012075Y042375D01*
X011625Y042375D02*
X011475Y042525D01*
X011325Y042375D01*
X011325Y042075D01*
X011325Y042300D02*
X011625Y042300D01*
X011625Y042375D02*
X011625Y042075D01*
D13*
X011830Y043770D02*
X011832Y043817D01*
X011838Y043863D01*
X011848Y043909D01*
X011861Y043953D01*
X011879Y043997D01*
X011900Y044038D01*
X011924Y044078D01*
X011952Y044116D01*
X011983Y044151D01*
X012017Y044183D01*
X012053Y044212D01*
X012092Y044238D01*
X012132Y044261D01*
X012175Y044280D01*
X012219Y044296D01*
X012264Y044308D01*
X012310Y044316D01*
X012357Y044320D01*
X012403Y044320D01*
X012450Y044316D01*
X012496Y044308D01*
X012541Y044296D01*
X012585Y044280D01*
X012628Y044261D01*
X012668Y044238D01*
X012707Y044212D01*
X012743Y044183D01*
X012777Y044151D01*
X012808Y044116D01*
X012836Y044078D01*
X012860Y044038D01*
X012881Y043997D01*
X012899Y043953D01*
X012912Y043909D01*
X012922Y043863D01*
X012928Y043817D01*
X012930Y043770D01*
X012928Y043723D01*
X012922Y043677D01*
X012912Y043631D01*
X012899Y043587D01*
X012881Y043543D01*
X012860Y043502D01*
X012836Y043462D01*
X012808Y043424D01*
X012777Y043389D01*
X012743Y043357D01*
X012707Y043328D01*
X012668Y043302D01*
X012628Y043279D01*
X012585Y043260D01*
X012541Y043244D01*
X012496Y043232D01*
X012450Y043224D01*
X012403Y043220D01*
X012357Y043220D01*
X012310Y043224D01*
X012264Y043232D01*
X012219Y043244D01*
X012175Y043260D01*
X012132Y043279D01*
X012092Y043302D01*
X012053Y043328D01*
X012017Y043357D01*
X011983Y043389D01*
X011952Y043424D01*
X011924Y043462D01*
X011900Y043502D01*
X011879Y043543D01*
X011861Y043587D01*
X011848Y043631D01*
X011838Y043677D01*
X011832Y043723D01*
X011830Y043770D01*
X024070Y043770D02*
X024072Y043817D01*
X024078Y043863D01*
X024088Y043909D01*
X024101Y043953D01*
X024119Y043997D01*
X024140Y044038D01*
X024164Y044078D01*
X024192Y044116D01*
X024223Y044151D01*
X024257Y044183D01*
X024293Y044212D01*
X024332Y044238D01*
X024372Y044261D01*
X024415Y044280D01*
X024459Y044296D01*
X024504Y044308D01*
X024550Y044316D01*
X024597Y044320D01*
X024643Y044320D01*
X024690Y044316D01*
X024736Y044308D01*
X024781Y044296D01*
X024825Y044280D01*
X024868Y044261D01*
X024908Y044238D01*
X024947Y044212D01*
X024983Y044183D01*
X025017Y044151D01*
X025048Y044116D01*
X025076Y044078D01*
X025100Y044038D01*
X025121Y043997D01*
X025139Y043953D01*
X025152Y043909D01*
X025162Y043863D01*
X025168Y043817D01*
X025170Y043770D01*
X025168Y043723D01*
X025162Y043677D01*
X025152Y043631D01*
X025139Y043587D01*
X025121Y043543D01*
X025100Y043502D01*
X025076Y043462D01*
X025048Y043424D01*
X025017Y043389D01*
X024983Y043357D01*
X024947Y043328D01*
X024908Y043302D01*
X024868Y043279D01*
X024825Y043260D01*
X024781Y043244D01*
X024736Y043232D01*
X024690Y043224D01*
X024643Y043220D01*
X024597Y043220D01*
X024550Y043224D01*
X024504Y043232D01*
X024459Y043244D01*
X024415Y043260D01*
X024372Y043279D01*
X024332Y043302D01*
X024293Y043328D01*
X024257Y043357D01*
X024223Y043389D01*
X024192Y043424D01*
X024164Y043462D01*
X024140Y043502D01*
X024119Y043543D01*
X024101Y043587D01*
X024088Y043631D01*
X024078Y043677D01*
X024072Y043723D01*
X024070Y043770D01*
X035830Y043770D02*
X035832Y043817D01*
X035838Y043863D01*
X035848Y043909D01*
X035861Y043953D01*
X035879Y043997D01*
X035900Y044038D01*
X035924Y044078D01*
X035952Y044116D01*
X035983Y044151D01*
X036017Y044183D01*
X036053Y044212D01*
X036092Y044238D01*
X036132Y044261D01*
X036175Y044280D01*
X036219Y044296D01*
X036264Y044308D01*
X036310Y044316D01*
X036357Y044320D01*
X036403Y044320D01*
X036450Y044316D01*
X036496Y044308D01*
X036541Y044296D01*
X036585Y044280D01*
X036628Y044261D01*
X036668Y044238D01*
X036707Y044212D01*
X036743Y044183D01*
X036777Y044151D01*
X036808Y044116D01*
X036836Y044078D01*
X036860Y044038D01*
X036881Y043997D01*
X036899Y043953D01*
X036912Y043909D01*
X036922Y043863D01*
X036928Y043817D01*
X036930Y043770D01*
X036928Y043723D01*
X036922Y043677D01*
X036912Y043631D01*
X036899Y043587D01*
X036881Y043543D01*
X036860Y043502D01*
X036836Y043462D01*
X036808Y043424D01*
X036777Y043389D01*
X036743Y043357D01*
X036707Y043328D01*
X036668Y043302D01*
X036628Y043279D01*
X036585Y043260D01*
X036541Y043244D01*
X036496Y043232D01*
X036450Y043224D01*
X036403Y043220D01*
X036357Y043220D01*
X036310Y043224D01*
X036264Y043232D01*
X036219Y043244D01*
X036175Y043260D01*
X036132Y043279D01*
X036092Y043302D01*
X036053Y043328D01*
X036017Y043357D01*
X035983Y043389D01*
X035952Y043424D01*
X035924Y043462D01*
X035900Y043502D01*
X035879Y043543D01*
X035861Y043587D01*
X035848Y043631D01*
X035838Y043677D01*
X035832Y043723D01*
X035830Y043770D01*
X047811Y011677D02*
X047813Y011725D01*
X047819Y011773D01*
X047829Y011820D01*
X047842Y011866D01*
X047860Y011911D01*
X047880Y011955D01*
X047905Y011997D01*
X047933Y012036D01*
X047963Y012073D01*
X047997Y012107D01*
X048034Y012139D01*
X048072Y012168D01*
X048113Y012193D01*
X048156Y012215D01*
X048201Y012233D01*
X048247Y012247D01*
X048294Y012258D01*
X048342Y012265D01*
X048390Y012268D01*
X048438Y012267D01*
X048486Y012262D01*
X048534Y012253D01*
X048580Y012241D01*
X048625Y012224D01*
X048669Y012204D01*
X048711Y012181D01*
X048751Y012154D01*
X048789Y012124D01*
X048824Y012091D01*
X048856Y012055D01*
X048886Y012017D01*
X048912Y011976D01*
X048934Y011933D01*
X048954Y011889D01*
X048969Y011844D01*
X048981Y011797D01*
X048989Y011749D01*
X048993Y011701D01*
X048993Y011653D01*
X048989Y011605D01*
X048981Y011557D01*
X048969Y011510D01*
X048954Y011465D01*
X048934Y011421D01*
X048912Y011378D01*
X048886Y011337D01*
X048856Y011299D01*
X048824Y011263D01*
X048789Y011230D01*
X048751Y011200D01*
X048711Y011173D01*
X048669Y011150D01*
X048625Y011130D01*
X048580Y011113D01*
X048534Y011101D01*
X048486Y011092D01*
X048438Y011087D01*
X048390Y011086D01*
X048342Y011089D01*
X048294Y011096D01*
X048247Y011107D01*
X048201Y011121D01*
X048156Y011139D01*
X048113Y011161D01*
X048072Y011186D01*
X048034Y011215D01*
X047997Y011247D01*
X047963Y011281D01*
X047933Y011318D01*
X047905Y011357D01*
X047880Y011399D01*
X047860Y011443D01*
X047842Y011488D01*
X047829Y011534D01*
X047819Y011581D01*
X047813Y011629D01*
X047811Y011677D01*
X047811Y006323D02*
X047813Y006371D01*
X047819Y006419D01*
X047829Y006466D01*
X047842Y006512D01*
X047860Y006557D01*
X047880Y006601D01*
X047905Y006643D01*
X047933Y006682D01*
X047963Y006719D01*
X047997Y006753D01*
X048034Y006785D01*
X048072Y006814D01*
X048113Y006839D01*
X048156Y006861D01*
X048201Y006879D01*
X048247Y006893D01*
X048294Y006904D01*
X048342Y006911D01*
X048390Y006914D01*
X048438Y006913D01*
X048486Y006908D01*
X048534Y006899D01*
X048580Y006887D01*
X048625Y006870D01*
X048669Y006850D01*
X048711Y006827D01*
X048751Y006800D01*
X048789Y006770D01*
X048824Y006737D01*
X048856Y006701D01*
X048886Y006663D01*
X048912Y006622D01*
X048934Y006579D01*
X048954Y006535D01*
X048969Y006490D01*
X048981Y006443D01*
X048989Y006395D01*
X048993Y006347D01*
X048993Y006299D01*
X048989Y006251D01*
X048981Y006203D01*
X048969Y006156D01*
X048954Y006111D01*
X048934Y006067D01*
X048912Y006024D01*
X048886Y005983D01*
X048856Y005945D01*
X048824Y005909D01*
X048789Y005876D01*
X048751Y005846D01*
X048711Y005819D01*
X048669Y005796D01*
X048625Y005776D01*
X048580Y005759D01*
X048534Y005747D01*
X048486Y005738D01*
X048438Y005733D01*
X048390Y005732D01*
X048342Y005735D01*
X048294Y005742D01*
X048247Y005753D01*
X048201Y005767D01*
X048156Y005785D01*
X048113Y005807D01*
X048072Y005832D01*
X048034Y005861D01*
X047997Y005893D01*
X047963Y005927D01*
X047933Y005964D01*
X047905Y006003D01*
X047880Y006045D01*
X047860Y006089D01*
X047842Y006134D01*
X047829Y006180D01*
X047819Y006227D01*
X047813Y006275D01*
X047811Y006323D01*
X035830Y008330D02*
X035832Y008377D01*
X035838Y008423D01*
X035848Y008469D01*
X035861Y008513D01*
X035879Y008557D01*
X035900Y008598D01*
X035924Y008638D01*
X035952Y008676D01*
X035983Y008711D01*
X036017Y008743D01*
X036053Y008772D01*
X036092Y008798D01*
X036132Y008821D01*
X036175Y008840D01*
X036219Y008856D01*
X036264Y008868D01*
X036310Y008876D01*
X036357Y008880D01*
X036403Y008880D01*
X036450Y008876D01*
X036496Y008868D01*
X036541Y008856D01*
X036585Y008840D01*
X036628Y008821D01*
X036668Y008798D01*
X036707Y008772D01*
X036743Y008743D01*
X036777Y008711D01*
X036808Y008676D01*
X036836Y008638D01*
X036860Y008598D01*
X036881Y008557D01*
X036899Y008513D01*
X036912Y008469D01*
X036922Y008423D01*
X036928Y008377D01*
X036930Y008330D01*
X036928Y008283D01*
X036922Y008237D01*
X036912Y008191D01*
X036899Y008147D01*
X036881Y008103D01*
X036860Y008062D01*
X036836Y008022D01*
X036808Y007984D01*
X036777Y007949D01*
X036743Y007917D01*
X036707Y007888D01*
X036668Y007862D01*
X036628Y007839D01*
X036585Y007820D01*
X036541Y007804D01*
X036496Y007792D01*
X036450Y007784D01*
X036403Y007780D01*
X036357Y007780D01*
X036310Y007784D01*
X036264Y007792D01*
X036219Y007804D01*
X036175Y007820D01*
X036132Y007839D01*
X036092Y007862D01*
X036053Y007888D01*
X036017Y007917D01*
X035983Y007949D01*
X035952Y007984D01*
X035924Y008022D01*
X035900Y008062D01*
X035879Y008103D01*
X035861Y008147D01*
X035848Y008191D01*
X035838Y008237D01*
X035832Y008283D01*
X035830Y008330D01*
X024070Y008330D02*
X024072Y008377D01*
X024078Y008423D01*
X024088Y008469D01*
X024101Y008513D01*
X024119Y008557D01*
X024140Y008598D01*
X024164Y008638D01*
X024192Y008676D01*
X024223Y008711D01*
X024257Y008743D01*
X024293Y008772D01*
X024332Y008798D01*
X024372Y008821D01*
X024415Y008840D01*
X024459Y008856D01*
X024504Y008868D01*
X024550Y008876D01*
X024597Y008880D01*
X024643Y008880D01*
X024690Y008876D01*
X024736Y008868D01*
X024781Y008856D01*
X024825Y008840D01*
X024868Y008821D01*
X024908Y008798D01*
X024947Y008772D01*
X024983Y008743D01*
X025017Y008711D01*
X025048Y008676D01*
X025076Y008638D01*
X025100Y008598D01*
X025121Y008557D01*
X025139Y008513D01*
X025152Y008469D01*
X025162Y008423D01*
X025168Y008377D01*
X025170Y008330D01*
X025168Y008283D01*
X025162Y008237D01*
X025152Y008191D01*
X025139Y008147D01*
X025121Y008103D01*
X025100Y008062D01*
X025076Y008022D01*
X025048Y007984D01*
X025017Y007949D01*
X024983Y007917D01*
X024947Y007888D01*
X024908Y007862D01*
X024868Y007839D01*
X024825Y007820D01*
X024781Y007804D01*
X024736Y007792D01*
X024690Y007784D01*
X024643Y007780D01*
X024597Y007780D01*
X024550Y007784D01*
X024504Y007792D01*
X024459Y007804D01*
X024415Y007820D01*
X024372Y007839D01*
X024332Y007862D01*
X024293Y007888D01*
X024257Y007917D01*
X024223Y007949D01*
X024192Y007984D01*
X024164Y008022D01*
X024140Y008062D01*
X024119Y008103D01*
X024101Y008147D01*
X024088Y008191D01*
X024078Y008237D01*
X024072Y008283D01*
X024070Y008330D01*
X011830Y008330D02*
X011832Y008377D01*
X011838Y008423D01*
X011848Y008469D01*
X011861Y008513D01*
X011879Y008557D01*
X011900Y008598D01*
X011924Y008638D01*
X011952Y008676D01*
X011983Y008711D01*
X012017Y008743D01*
X012053Y008772D01*
X012092Y008798D01*
X012132Y008821D01*
X012175Y008840D01*
X012219Y008856D01*
X012264Y008868D01*
X012310Y008876D01*
X012357Y008880D01*
X012403Y008880D01*
X012450Y008876D01*
X012496Y008868D01*
X012541Y008856D01*
X012585Y008840D01*
X012628Y008821D01*
X012668Y008798D01*
X012707Y008772D01*
X012743Y008743D01*
X012777Y008711D01*
X012808Y008676D01*
X012836Y008638D01*
X012860Y008598D01*
X012881Y008557D01*
X012899Y008513D01*
X012912Y008469D01*
X012922Y008423D01*
X012928Y008377D01*
X012930Y008330D01*
X012928Y008283D01*
X012922Y008237D01*
X012912Y008191D01*
X012899Y008147D01*
X012881Y008103D01*
X012860Y008062D01*
X012836Y008022D01*
X012808Y007984D01*
X012777Y007949D01*
X012743Y007917D01*
X012707Y007888D01*
X012668Y007862D01*
X012628Y007839D01*
X012585Y007820D01*
X012541Y007804D01*
X012496Y007792D01*
X012450Y007784D01*
X012403Y007780D01*
X012357Y007780D01*
X012310Y007784D01*
X012264Y007792D01*
X012219Y007804D01*
X012175Y007820D01*
X012132Y007839D01*
X012092Y007862D01*
X012053Y007888D01*
X012017Y007917D01*
X011983Y007949D01*
X011952Y007984D01*
X011924Y008022D01*
X011900Y008062D01*
X011879Y008103D01*
X011861Y008147D01*
X011848Y008191D01*
X011838Y008237D01*
X011832Y008283D01*
X011830Y008330D01*
D14*
X011880Y008330D02*
X011882Y008374D01*
X011888Y008418D01*
X011898Y008461D01*
X011911Y008503D01*
X011928Y008544D01*
X011949Y008583D01*
X011973Y008620D01*
X012000Y008655D01*
X012030Y008687D01*
X012063Y008717D01*
X012099Y008743D01*
X012136Y008767D01*
X012176Y008786D01*
X012217Y008803D01*
X012260Y008815D01*
X012303Y008824D01*
X012347Y008829D01*
X012391Y008830D01*
X012435Y008827D01*
X012479Y008820D01*
X012522Y008809D01*
X012564Y008795D01*
X012604Y008777D01*
X012643Y008755D01*
X012679Y008731D01*
X012713Y008703D01*
X012745Y008672D01*
X012774Y008638D01*
X012800Y008602D01*
X012822Y008564D01*
X012841Y008524D01*
X012856Y008482D01*
X012868Y008440D01*
X012876Y008396D01*
X012880Y008352D01*
X012880Y008308D01*
X012876Y008264D01*
X012868Y008220D01*
X012856Y008178D01*
X012841Y008136D01*
X012822Y008096D01*
X012800Y008058D01*
X012774Y008022D01*
X012745Y007988D01*
X012713Y007957D01*
X012679Y007929D01*
X012643Y007905D01*
X012604Y007883D01*
X012564Y007865D01*
X012522Y007851D01*
X012479Y007840D01*
X012435Y007833D01*
X012391Y007830D01*
X012347Y007831D01*
X012303Y007836D01*
X012260Y007845D01*
X012217Y007857D01*
X012176Y007874D01*
X012136Y007893D01*
X012099Y007917D01*
X012063Y007943D01*
X012030Y007973D01*
X012000Y008005D01*
X011973Y008040D01*
X011949Y008077D01*
X011928Y008116D01*
X011911Y008157D01*
X011898Y008199D01*
X011888Y008242D01*
X011882Y008286D01*
X011880Y008330D01*
X011250Y008550D02*
X011850Y009300D01*
X012950Y009300D01*
X013550Y008550D01*
X013550Y007450D01*
X014400Y007450D01*
X014426Y007452D01*
X014452Y007457D01*
X014477Y007465D01*
X014500Y007477D01*
X014522Y007491D01*
X014541Y007509D01*
X014559Y007528D01*
X014573Y007550D01*
X014585Y007573D01*
X014593Y007598D01*
X014598Y007624D01*
X014600Y007650D01*
X014600Y044450D01*
X014598Y044476D01*
X014593Y044502D01*
X014585Y044527D01*
X014573Y044550D01*
X014559Y044572D01*
X014541Y044591D01*
X014522Y044609D01*
X014500Y044623D01*
X014477Y044635D01*
X014452Y044643D01*
X014426Y044648D01*
X014400Y044650D01*
X013550Y044650D01*
X011250Y044650D01*
X010600Y044650D01*
X010574Y044648D01*
X010548Y044643D01*
X010523Y044635D01*
X010500Y044623D01*
X010478Y044609D01*
X010459Y044591D01*
X010441Y044572D01*
X010427Y044550D01*
X010415Y044527D01*
X010407Y044502D01*
X010402Y044476D01*
X010400Y044450D01*
X010400Y007650D01*
X010402Y007624D01*
X010407Y007598D01*
X010415Y007573D01*
X010427Y007550D01*
X010441Y007528D01*
X010459Y007509D01*
X010478Y007491D01*
X010500Y007477D01*
X010523Y007465D01*
X010548Y007457D01*
X010574Y007452D01*
X010600Y007450D01*
X011250Y007450D01*
X013550Y007450D01*
X013000Y009300D02*
X012950Y009300D01*
X013000Y009300D02*
X013000Y009800D01*
X014000Y009800D01*
X014000Y042300D01*
X013000Y042300D01*
X013000Y042800D01*
X012950Y042800D01*
X013550Y043550D01*
X013550Y044650D01*
X011880Y043770D02*
X011882Y043814D01*
X011888Y043858D01*
X011898Y043901D01*
X011911Y043943D01*
X011928Y043984D01*
X011949Y044023D01*
X011973Y044060D01*
X012000Y044095D01*
X012030Y044127D01*
X012063Y044157D01*
X012099Y044183D01*
X012136Y044207D01*
X012176Y044226D01*
X012217Y044243D01*
X012260Y044255D01*
X012303Y044264D01*
X012347Y044269D01*
X012391Y044270D01*
X012435Y044267D01*
X012479Y044260D01*
X012522Y044249D01*
X012564Y044235D01*
X012604Y044217D01*
X012643Y044195D01*
X012679Y044171D01*
X012713Y044143D01*
X012745Y044112D01*
X012774Y044078D01*
X012800Y044042D01*
X012822Y044004D01*
X012841Y043964D01*
X012856Y043922D01*
X012868Y043880D01*
X012876Y043836D01*
X012880Y043792D01*
X012880Y043748D01*
X012876Y043704D01*
X012868Y043660D01*
X012856Y043618D01*
X012841Y043576D01*
X012822Y043536D01*
X012800Y043498D01*
X012774Y043462D01*
X012745Y043428D01*
X012713Y043397D01*
X012679Y043369D01*
X012643Y043345D01*
X012604Y043323D01*
X012564Y043305D01*
X012522Y043291D01*
X012479Y043280D01*
X012435Y043273D01*
X012391Y043270D01*
X012347Y043271D01*
X012303Y043276D01*
X012260Y043285D01*
X012217Y043297D01*
X012176Y043314D01*
X012136Y043333D01*
X012099Y043357D01*
X012063Y043383D01*
X012030Y043413D01*
X012000Y043445D01*
X011973Y043480D01*
X011949Y043517D01*
X011928Y043556D01*
X011911Y043597D01*
X011898Y043639D01*
X011888Y043682D01*
X011882Y043726D01*
X011880Y043770D01*
X011250Y043550D02*
X011250Y044650D01*
X011250Y043550D02*
X011850Y042800D01*
X012950Y042800D01*
X011850Y042800D02*
X011000Y042800D01*
X011000Y009300D01*
X011850Y009300D01*
X011250Y008550D02*
X011250Y007450D01*
X034400Y007650D02*
X034400Y044450D01*
X034402Y044476D01*
X034407Y044502D01*
X034415Y044527D01*
X034427Y044550D01*
X034441Y044572D01*
X034459Y044591D01*
X034478Y044609D01*
X034500Y044623D01*
X034523Y044635D01*
X034548Y044643D01*
X034574Y044648D01*
X034600Y044650D01*
X035250Y044650D01*
X035250Y043550D01*
X035850Y042800D01*
X036950Y042800D01*
X037550Y043550D01*
X037550Y044650D01*
X038400Y044650D01*
X038426Y044648D01*
X038452Y044643D01*
X038477Y044635D01*
X038500Y044623D01*
X038522Y044609D01*
X038541Y044591D01*
X038559Y044572D01*
X038573Y044550D01*
X038585Y044527D01*
X038593Y044502D01*
X038598Y044476D01*
X038600Y044450D01*
X038600Y007650D01*
X038598Y007624D01*
X038593Y007598D01*
X038585Y007573D01*
X038573Y007550D01*
X038559Y007528D01*
X038541Y007509D01*
X038522Y007491D01*
X038500Y007477D01*
X038477Y007465D01*
X038452Y007457D01*
X038426Y007452D01*
X038400Y007450D01*
X037550Y007450D01*
X037550Y008550D01*
X036950Y009300D01*
X037000Y009300D01*
X037000Y009800D01*
X038000Y009800D01*
X038000Y042300D01*
X037000Y042300D01*
X037000Y042800D01*
X036950Y042800D01*
X035850Y042800D02*
X035000Y042800D01*
X035000Y009300D01*
X035850Y009300D01*
X036950Y009300D01*
X035880Y008330D02*
X035882Y008374D01*
X035888Y008418D01*
X035898Y008461D01*
X035911Y008503D01*
X035928Y008544D01*
X035949Y008583D01*
X035973Y008620D01*
X036000Y008655D01*
X036030Y008687D01*
X036063Y008717D01*
X036099Y008743D01*
X036136Y008767D01*
X036176Y008786D01*
X036217Y008803D01*
X036260Y008815D01*
X036303Y008824D01*
X036347Y008829D01*
X036391Y008830D01*
X036435Y008827D01*
X036479Y008820D01*
X036522Y008809D01*
X036564Y008795D01*
X036604Y008777D01*
X036643Y008755D01*
X036679Y008731D01*
X036713Y008703D01*
X036745Y008672D01*
X036774Y008638D01*
X036800Y008602D01*
X036822Y008564D01*
X036841Y008524D01*
X036856Y008482D01*
X036868Y008440D01*
X036876Y008396D01*
X036880Y008352D01*
X036880Y008308D01*
X036876Y008264D01*
X036868Y008220D01*
X036856Y008178D01*
X036841Y008136D01*
X036822Y008096D01*
X036800Y008058D01*
X036774Y008022D01*
X036745Y007988D01*
X036713Y007957D01*
X036679Y007929D01*
X036643Y007905D01*
X036604Y007883D01*
X036564Y007865D01*
X036522Y007851D01*
X036479Y007840D01*
X036435Y007833D01*
X036391Y007830D01*
X036347Y007831D01*
X036303Y007836D01*
X036260Y007845D01*
X036217Y007857D01*
X036176Y007874D01*
X036136Y007893D01*
X036099Y007917D01*
X036063Y007943D01*
X036030Y007973D01*
X036000Y008005D01*
X035973Y008040D01*
X035949Y008077D01*
X035928Y008116D01*
X035911Y008157D01*
X035898Y008199D01*
X035888Y008242D01*
X035882Y008286D01*
X035880Y008330D01*
X035250Y008550D02*
X035850Y009300D01*
X035250Y008550D02*
X035250Y007450D01*
X034600Y007450D01*
X034574Y007452D01*
X034548Y007457D01*
X034523Y007465D01*
X034500Y007477D01*
X034478Y007491D01*
X034459Y007509D01*
X034441Y007528D01*
X034427Y007550D01*
X034415Y007573D01*
X034407Y007598D01*
X034402Y007624D01*
X034400Y007650D01*
X035250Y007450D02*
X037550Y007450D01*
X035880Y043770D02*
X035882Y043814D01*
X035888Y043858D01*
X035898Y043901D01*
X035911Y043943D01*
X035928Y043984D01*
X035949Y044023D01*
X035973Y044060D01*
X036000Y044095D01*
X036030Y044127D01*
X036063Y044157D01*
X036099Y044183D01*
X036136Y044207D01*
X036176Y044226D01*
X036217Y044243D01*
X036260Y044255D01*
X036303Y044264D01*
X036347Y044269D01*
X036391Y044270D01*
X036435Y044267D01*
X036479Y044260D01*
X036522Y044249D01*
X036564Y044235D01*
X036604Y044217D01*
X036643Y044195D01*
X036679Y044171D01*
X036713Y044143D01*
X036745Y044112D01*
X036774Y044078D01*
X036800Y044042D01*
X036822Y044004D01*
X036841Y043964D01*
X036856Y043922D01*
X036868Y043880D01*
X036876Y043836D01*
X036880Y043792D01*
X036880Y043748D01*
X036876Y043704D01*
X036868Y043660D01*
X036856Y043618D01*
X036841Y043576D01*
X036822Y043536D01*
X036800Y043498D01*
X036774Y043462D01*
X036745Y043428D01*
X036713Y043397D01*
X036679Y043369D01*
X036643Y043345D01*
X036604Y043323D01*
X036564Y043305D01*
X036522Y043291D01*
X036479Y043280D01*
X036435Y043273D01*
X036391Y043270D01*
X036347Y043271D01*
X036303Y043276D01*
X036260Y043285D01*
X036217Y043297D01*
X036176Y043314D01*
X036136Y043333D01*
X036099Y043357D01*
X036063Y043383D01*
X036030Y043413D01*
X036000Y043445D01*
X035973Y043480D01*
X035949Y043517D01*
X035928Y043556D01*
X035911Y043597D01*
X035898Y043639D01*
X035888Y043682D01*
X035882Y043726D01*
X035880Y043770D01*
X035250Y044650D02*
X037550Y044650D01*
M02*
