G75*
%MOIN*%
%OFA0B0*%
%FSLAX24Y24*%
%IPPOS*%
%LPD*%
%AMOC8*
5,1,8,0,0,1.08239X$1,22.5*
%
%ADD10C,0.0520*%
%ADD11C,0.0600*%
%ADD12C,0.0580*%
%ADD13C,0.0827*%
%ADD14C,0.0560*%
%ADD15C,0.0160*%
%ADD16C,0.0436*%
%ADD17C,0.0550*%
%ADD18C,0.0500*%
%ADD19C,0.0300*%
D10*
X041000Y010500D03*
X041000Y011500D03*
X042000Y011500D03*
X042000Y010500D03*
D11*
X044000Y017500D03*
X045000Y017500D03*
X046000Y017500D03*
X047000Y017500D03*
X048000Y017500D03*
X049000Y017500D03*
X049000Y025500D03*
X048000Y025500D03*
X047000Y025500D03*
X046000Y025500D03*
X045000Y025500D03*
X044000Y025500D03*
X041000Y034000D03*
X041000Y035000D03*
X041000Y036000D03*
X041000Y037000D03*
X041000Y038000D03*
X041000Y039000D03*
X041000Y040000D03*
X041000Y041000D03*
X040000Y041000D03*
X040000Y040000D03*
X040000Y039000D03*
X040000Y038000D03*
X040000Y037000D03*
X040000Y036000D03*
X040000Y035000D03*
X040000Y034000D03*
D12*
X044000Y034000D03*
X044000Y033000D03*
X044000Y032000D03*
X044000Y031000D03*
X044000Y030000D03*
X044000Y029000D03*
X045000Y029000D03*
X046000Y029000D03*
X046000Y030000D03*
X046000Y031000D03*
X046000Y032000D03*
X046000Y033000D03*
X046000Y034000D03*
X046000Y035000D03*
X046000Y036000D03*
X047000Y036000D03*
X047000Y035000D03*
X047000Y034000D03*
X047000Y033000D03*
X047000Y032000D03*
X047000Y031000D03*
X047000Y030000D03*
X047000Y029000D03*
X048000Y029000D03*
X049000Y029000D03*
X050000Y029000D03*
X050000Y030000D03*
X050000Y031000D03*
X050000Y032000D03*
X050000Y033000D03*
X050000Y034000D03*
X050000Y035000D03*
X050000Y036000D03*
X050000Y037000D03*
X050000Y038000D03*
X050000Y039000D03*
X050000Y040000D03*
X050000Y041000D03*
X050000Y042000D03*
X045000Y041000D03*
X044000Y041000D03*
X044000Y040000D03*
X044000Y039000D03*
X045000Y039000D03*
X045000Y038000D03*
X044000Y038000D03*
X044000Y037000D03*
X045000Y037000D03*
X044000Y036000D03*
X044000Y035000D03*
X044000Y042000D03*
D13*
X046417Y009827D03*
X046417Y008173D03*
X048583Y008173D03*
X048583Y009827D03*
D14*
X037500Y010550D03*
X037500Y011550D03*
X037500Y012550D03*
X037500Y013550D03*
X037500Y014550D03*
X037500Y015550D03*
X037500Y016550D03*
X037500Y017550D03*
X037500Y018550D03*
X037500Y019550D03*
X037500Y020550D03*
X037500Y021550D03*
X037500Y022550D03*
X037500Y023550D03*
X037500Y024550D03*
X037500Y025550D03*
X037500Y026550D03*
X037500Y027550D03*
X037500Y028550D03*
X037500Y029550D03*
X037500Y030550D03*
X037500Y031550D03*
X037500Y032550D03*
X037500Y033550D03*
X037500Y034550D03*
X037500Y035550D03*
X037500Y036550D03*
X037500Y037550D03*
X037500Y038550D03*
X037500Y039550D03*
X037500Y040550D03*
X037500Y041550D03*
X035500Y041550D03*
X035500Y040550D03*
X035500Y039550D03*
X035500Y038550D03*
X035500Y037550D03*
X035500Y036550D03*
X035500Y035550D03*
X035500Y034550D03*
X035500Y033550D03*
X035500Y032550D03*
X035500Y031550D03*
X035500Y030550D03*
X035500Y029550D03*
X035500Y028550D03*
X035500Y027550D03*
X035500Y026550D03*
X035500Y025550D03*
X035500Y024550D03*
X035500Y023550D03*
X035500Y022550D03*
X035500Y021550D03*
X035500Y020550D03*
X035500Y019550D03*
X035500Y018550D03*
X035500Y017550D03*
X035500Y016550D03*
X035500Y015550D03*
X035500Y014550D03*
X035500Y013550D03*
X035500Y012550D03*
X035500Y011550D03*
X035500Y010550D03*
X025500Y010550D03*
X025500Y011550D03*
X025500Y012550D03*
X025500Y013550D03*
X025500Y014550D03*
X025500Y015550D03*
X025500Y016550D03*
X025500Y017550D03*
X025500Y018550D03*
X025500Y019550D03*
X025500Y020550D03*
X025500Y021550D03*
X025500Y022550D03*
X025500Y023550D03*
X025500Y024550D03*
X025500Y025550D03*
X025500Y026550D03*
X025500Y027550D03*
X025500Y028550D03*
X025500Y029550D03*
X025500Y030550D03*
X025500Y031550D03*
X025500Y032550D03*
X025500Y033550D03*
X025500Y034550D03*
X025500Y035550D03*
X025500Y036550D03*
X025500Y037550D03*
X025500Y038550D03*
X025500Y039550D03*
X025500Y040550D03*
X025500Y041550D03*
X023500Y041550D03*
X023500Y040550D03*
X023500Y039550D03*
X023500Y038550D03*
X023500Y037550D03*
X023500Y036550D03*
X023500Y035550D03*
X023500Y034550D03*
X023500Y033550D03*
X023500Y032550D03*
X023500Y031550D03*
X023500Y030550D03*
X023500Y029550D03*
X023500Y028550D03*
X023500Y027550D03*
X023500Y026550D03*
X023500Y025550D03*
X023500Y024550D03*
X023500Y023550D03*
X023500Y022550D03*
X023500Y021550D03*
X023500Y020550D03*
X023500Y019550D03*
X023500Y018550D03*
X023500Y017550D03*
X023500Y016550D03*
X023500Y015550D03*
X023500Y014550D03*
X023500Y013550D03*
X023500Y012550D03*
X023500Y011550D03*
X023500Y010550D03*
X013500Y010550D03*
X013500Y011550D03*
X013500Y012550D03*
X013500Y013550D03*
X013500Y014550D03*
X013500Y015550D03*
X013500Y016550D03*
X013500Y017550D03*
X013500Y018550D03*
X013500Y019550D03*
X013500Y020550D03*
X013500Y021550D03*
X013500Y022550D03*
X013500Y023550D03*
X013500Y024550D03*
X013500Y025550D03*
X013500Y026550D03*
X013500Y027550D03*
X013500Y028550D03*
X013500Y029550D03*
X013500Y030550D03*
X013500Y031550D03*
X013500Y032550D03*
X013500Y033550D03*
X013500Y034550D03*
X013500Y035550D03*
X013500Y036550D03*
X013500Y037550D03*
X013500Y038550D03*
X013500Y039550D03*
X013500Y040550D03*
X013500Y041550D03*
X011500Y041550D03*
X011500Y040550D03*
X011500Y039550D03*
X011500Y038550D03*
X011500Y037550D03*
X011500Y036550D03*
X011500Y035550D03*
X011500Y034550D03*
X011500Y033550D03*
X011500Y032550D03*
X011500Y031550D03*
X011500Y030550D03*
X011500Y029550D03*
X011500Y028550D03*
X011500Y027550D03*
X011500Y026550D03*
X011500Y025550D03*
X011500Y024550D03*
X011500Y023550D03*
X011500Y022550D03*
X011500Y021550D03*
X011500Y020550D03*
X011500Y019550D03*
X011500Y018550D03*
X011500Y017550D03*
X011500Y016550D03*
X011500Y015550D03*
X011500Y014550D03*
X011500Y013550D03*
X011500Y012550D03*
X011500Y011550D03*
X011500Y010550D03*
D15*
X001005Y013000D02*
X001005Y004000D01*
X047500Y004000D01*
X047500Y005743D01*
X047404Y005910D01*
X047331Y006182D01*
X047331Y006464D01*
X047404Y006736D01*
X047500Y006902D01*
X047500Y011098D01*
X047404Y011264D01*
X047331Y011536D01*
X047331Y011818D01*
X047404Y012090D01*
X047500Y012257D01*
X047500Y013000D01*
X037842Y013000D01*
X037975Y012867D01*
X038060Y012661D01*
X038060Y012439D01*
X037975Y012233D01*
X037817Y012075D01*
X037611Y011990D01*
X037389Y011990D01*
X037183Y012075D01*
X037025Y012233D01*
X036940Y012439D01*
X036940Y012661D01*
X037025Y012867D01*
X037158Y013000D01*
X037009Y013000D01*
X036704Y012695D01*
X036572Y012640D01*
X036060Y012640D01*
X036060Y012439D01*
X035975Y012233D01*
X035817Y012075D01*
X035611Y011990D01*
X035389Y011990D01*
X035183Y012075D01*
X035025Y012233D01*
X034940Y012439D01*
X034940Y012640D01*
X026060Y012640D01*
X026060Y012439D01*
X025975Y012233D01*
X025817Y012075D01*
X025611Y011990D01*
X025389Y011990D01*
X025183Y012075D01*
X025025Y012233D01*
X024940Y012439D01*
X024940Y012640D01*
X024928Y012640D01*
X024796Y012695D01*
X024491Y013000D01*
X023842Y013000D01*
X023975Y012867D01*
X024060Y012661D01*
X024060Y012439D01*
X023975Y012233D01*
X023817Y012075D01*
X023611Y011990D01*
X023389Y011990D01*
X023183Y012075D01*
X023025Y012233D01*
X022940Y012439D01*
X022940Y012661D01*
X023025Y012867D01*
X023158Y013000D01*
X013842Y013000D01*
X013975Y012867D01*
X014060Y012661D01*
X014060Y012439D01*
X013975Y012233D01*
X013817Y012075D01*
X013611Y011990D01*
X013389Y011990D01*
X013183Y012075D01*
X013025Y012233D01*
X012940Y012439D01*
X012940Y012661D01*
X013025Y012867D01*
X013158Y013000D01*
X013009Y013000D01*
X012704Y012695D01*
X012572Y012640D01*
X012428Y012640D01*
X012296Y012695D01*
X012195Y012796D01*
X012140Y012928D01*
X012140Y013000D01*
X011842Y013000D01*
X011975Y012867D01*
X012060Y012661D01*
X012060Y012439D01*
X011975Y012233D01*
X011817Y012075D01*
X011611Y011990D01*
X011389Y011990D01*
X011183Y012075D01*
X011025Y012233D01*
X010940Y012439D01*
X010940Y012661D01*
X011025Y012867D01*
X011158Y013000D01*
X001005Y013000D01*
X001005Y012863D02*
X011024Y012863D01*
X010958Y012705D02*
X001005Y012705D01*
X001005Y012546D02*
X010940Y012546D01*
X010961Y012388D02*
X001005Y012388D01*
X001005Y012229D02*
X011029Y012229D01*
X011194Y012071D02*
X001005Y012071D01*
X001005Y011912D02*
X040648Y011912D01*
X040694Y011958D02*
X040542Y011806D01*
X040460Y011607D01*
X040460Y011393D01*
X040542Y011194D01*
X040694Y011042D01*
X040796Y011000D01*
X040694Y010958D01*
X040542Y010806D01*
X040460Y010607D01*
X040460Y010393D01*
X040542Y010194D01*
X040694Y010042D01*
X040893Y009960D01*
X041107Y009960D01*
X041306Y010042D01*
X041458Y010194D01*
X041500Y010296D01*
X041542Y010194D01*
X041694Y010042D01*
X041893Y009960D01*
X042107Y009960D01*
X042306Y010042D01*
X042458Y010194D01*
X042540Y010393D01*
X042540Y010607D01*
X042458Y010806D01*
X042306Y010958D01*
X042107Y011040D01*
X041893Y011040D01*
X041694Y010958D01*
X041542Y010806D01*
X041500Y010704D01*
X041458Y010806D01*
X041306Y010958D01*
X041204Y011000D01*
X041306Y011042D01*
X041458Y011194D01*
X041540Y011393D01*
X041540Y011607D01*
X041458Y011806D01*
X041306Y011958D01*
X041107Y012040D01*
X040893Y012040D01*
X040694Y011958D01*
X040521Y011754D02*
X001005Y011754D01*
X001005Y011595D02*
X040460Y011595D01*
X040460Y011437D02*
X001005Y011437D01*
X001005Y011278D02*
X040507Y011278D01*
X040617Y011120D02*
X001005Y011120D01*
X001005Y010961D02*
X011119Y010961D01*
X011183Y011025D02*
X011025Y010867D01*
X010940Y010661D01*
X010940Y010439D01*
X011025Y010233D01*
X011183Y010075D01*
X011389Y009990D01*
X011611Y009990D01*
X011817Y010075D01*
X011975Y010233D01*
X012060Y010439D01*
X012060Y010661D01*
X011975Y010867D01*
X011817Y011025D01*
X011611Y011110D01*
X011389Y011110D01*
X011183Y011025D01*
X010998Y010803D02*
X001005Y010803D01*
X001005Y010644D02*
X010940Y010644D01*
X010940Y010486D02*
X001005Y010486D01*
X001005Y010327D02*
X010986Y010327D01*
X011090Y010169D02*
X001005Y010169D01*
X001005Y010010D02*
X011340Y010010D01*
X011660Y010010D02*
X013340Y010010D01*
X013389Y009990D02*
X013611Y009990D01*
X013817Y010075D01*
X013975Y010233D01*
X014060Y010439D01*
X014060Y010661D01*
X013975Y010867D01*
X013817Y011025D01*
X013611Y011110D01*
X013389Y011110D01*
X013183Y011025D01*
X013025Y010867D01*
X012940Y010661D01*
X012940Y010439D01*
X013025Y010233D01*
X013183Y010075D01*
X013389Y009990D01*
X013660Y010010D02*
X023340Y010010D01*
X023389Y009990D02*
X023611Y009990D01*
X023817Y010075D01*
X023975Y010233D01*
X024060Y010439D01*
X024060Y010661D01*
X023975Y010867D01*
X023817Y011025D01*
X023611Y011110D01*
X023389Y011110D01*
X023183Y011025D01*
X023025Y010867D01*
X022940Y010661D01*
X022940Y010439D01*
X023025Y010233D01*
X023183Y010075D01*
X023389Y009990D01*
X023660Y010010D02*
X025340Y010010D01*
X025389Y009990D02*
X025611Y009990D01*
X025817Y010075D01*
X025975Y010233D01*
X026060Y010439D01*
X026060Y010661D01*
X025975Y010867D01*
X025817Y011025D01*
X025611Y011110D01*
X025389Y011110D01*
X025183Y011025D01*
X025025Y010867D01*
X024940Y010661D01*
X024940Y010439D01*
X025025Y010233D01*
X025183Y010075D01*
X025389Y009990D01*
X025660Y010010D02*
X035340Y010010D01*
X035389Y009990D02*
X035611Y009990D01*
X035817Y010075D01*
X035975Y010233D01*
X036060Y010439D01*
X036060Y010661D01*
X035975Y010867D01*
X035817Y011025D01*
X035611Y011110D01*
X035389Y011110D01*
X035183Y011025D01*
X035025Y010867D01*
X034940Y010661D01*
X034940Y010439D01*
X035025Y010233D01*
X035183Y010075D01*
X035389Y009990D01*
X035660Y010010D02*
X037340Y010010D01*
X037389Y009990D02*
X037611Y009990D01*
X037817Y010075D01*
X037975Y010233D01*
X038060Y010439D01*
X038060Y010661D01*
X037975Y010867D01*
X037817Y011025D01*
X037611Y011110D01*
X037389Y011110D01*
X037183Y011025D01*
X037025Y010867D01*
X036940Y010661D01*
X036940Y010439D01*
X037025Y010233D01*
X037183Y010075D01*
X037389Y009990D01*
X037660Y010010D02*
X040772Y010010D01*
X040568Y010169D02*
X037910Y010169D01*
X038014Y010327D02*
X040487Y010327D01*
X040460Y010486D02*
X038060Y010486D01*
X038060Y010644D02*
X040475Y010644D01*
X040541Y010803D02*
X038002Y010803D01*
X037881Y010961D02*
X040702Y010961D01*
X041298Y010961D02*
X041702Y010961D01*
X041541Y010803D02*
X041459Y010803D01*
X041383Y011120D02*
X047487Y011120D01*
X047500Y010961D02*
X042298Y010961D01*
X042459Y010803D02*
X047500Y010803D01*
X047500Y010644D02*
X042525Y010644D01*
X042540Y010486D02*
X046196Y010486D01*
X046279Y010520D02*
X046025Y010415D01*
X045829Y010220D01*
X045724Y009965D01*
X045724Y009689D01*
X045829Y009434D01*
X046025Y009239D01*
X046279Y009133D01*
X046555Y009133D01*
X046810Y009239D01*
X047005Y009434D01*
X047111Y009689D01*
X047111Y009965D01*
X047005Y010220D01*
X046810Y010415D01*
X046555Y010520D01*
X046279Y010520D01*
X046639Y010486D02*
X047500Y010486D01*
X047500Y010327D02*
X046898Y010327D01*
X047026Y010169D02*
X047500Y010169D01*
X047500Y010010D02*
X047092Y010010D01*
X047111Y009852D02*
X047500Y009852D01*
X047500Y009693D02*
X047111Y009693D01*
X047047Y009535D02*
X047500Y009535D01*
X047500Y009376D02*
X046947Y009376D01*
X046758Y009218D02*
X047500Y009218D01*
X047500Y009059D02*
X037108Y009059D01*
X037012Y009154D02*
X036778Y009290D01*
X036516Y009360D01*
X036244Y009360D01*
X035982Y009290D01*
X035748Y009154D01*
X035556Y008962D01*
X035420Y008728D01*
X035350Y008466D01*
X035350Y008194D01*
X035420Y007932D01*
X035556Y007698D01*
X035748Y007506D01*
X035982Y007370D01*
X036244Y007300D01*
X036516Y007300D01*
X036778Y007370D01*
X037012Y007506D01*
X037204Y007698D01*
X037340Y007932D01*
X037410Y008194D01*
X037410Y008466D01*
X037340Y008728D01*
X037204Y008962D01*
X037012Y009154D01*
X036903Y009218D02*
X046076Y009218D01*
X045887Y009376D02*
X019987Y009376D01*
X019998Y009401D02*
X019922Y009218D01*
X019782Y009078D01*
X019599Y009002D01*
X019401Y009002D01*
X019218Y009078D01*
X019078Y009218D01*
X019002Y009401D01*
X019002Y009599D01*
X019078Y009782D01*
X019218Y009922D01*
X019401Y009998D01*
X019599Y009998D01*
X019782Y009922D01*
X019922Y009782D01*
X019998Y009599D01*
X019998Y009401D01*
X019998Y009535D02*
X045788Y009535D01*
X045724Y009693D02*
X019959Y009693D01*
X019852Y009852D02*
X045724Y009852D01*
X045743Y010010D02*
X042228Y010010D01*
X042432Y010169D02*
X045808Y010169D01*
X045937Y010327D02*
X042513Y010327D01*
X041772Y010010D02*
X041228Y010010D01*
X041432Y010169D02*
X041568Y010169D01*
X041493Y011278D02*
X047400Y011278D01*
X047358Y011437D02*
X041540Y011437D01*
X041540Y011595D02*
X047331Y011595D01*
X047331Y011754D02*
X041479Y011754D01*
X041352Y011912D02*
X047356Y011912D01*
X047399Y012071D02*
X037806Y012071D01*
X037971Y012229D02*
X047484Y012229D01*
X047500Y012388D02*
X038039Y012388D01*
X038060Y012546D02*
X047500Y012546D01*
X047500Y012705D02*
X038042Y012705D01*
X037976Y012863D02*
X047500Y012863D01*
X049238Y011000D02*
X052995Y011000D01*
X052995Y004000D01*
X047860Y004000D01*
X047860Y005399D01*
X047988Y005325D01*
X048261Y005252D01*
X048543Y005252D01*
X048815Y005325D01*
X049059Y005466D01*
X049258Y005666D01*
X049399Y005910D01*
X049472Y006182D01*
X049472Y006464D01*
X049399Y006736D01*
X049258Y006980D01*
X049059Y007179D01*
X048815Y007320D01*
X048543Y007393D01*
X048261Y007393D01*
X047988Y007320D01*
X047860Y007246D01*
X047860Y010754D01*
X047988Y010680D01*
X048261Y010607D01*
X048543Y010607D01*
X048815Y010680D01*
X049059Y010821D01*
X049238Y011000D01*
X049199Y010961D02*
X052995Y010961D01*
X052995Y010803D02*
X049028Y010803D01*
X048682Y010644D02*
X052995Y010644D01*
X052995Y010486D02*
X047860Y010486D01*
X047860Y010644D02*
X048121Y010644D01*
X047860Y010327D02*
X052995Y010327D01*
X052995Y010169D02*
X047860Y010169D01*
X047860Y010010D02*
X052995Y010010D01*
X052995Y009852D02*
X047860Y009852D01*
X047860Y009693D02*
X052995Y009693D01*
X052995Y009535D02*
X047860Y009535D01*
X047860Y009376D02*
X052995Y009376D01*
X052995Y009218D02*
X047860Y009218D01*
X047860Y009059D02*
X052995Y009059D01*
X052995Y008901D02*
X047860Y008901D01*
X047860Y008742D02*
X052995Y008742D01*
X052995Y008584D02*
X047860Y008584D01*
X047860Y008425D02*
X052995Y008425D01*
X052995Y008267D02*
X047860Y008267D01*
X047860Y008108D02*
X052995Y008108D01*
X052995Y007950D02*
X047860Y007950D01*
X047860Y007791D02*
X052995Y007791D01*
X052995Y007633D02*
X047860Y007633D01*
X047860Y007474D02*
X052995Y007474D01*
X052995Y007316D02*
X048823Y007316D01*
X049081Y007157D02*
X052995Y007157D01*
X052995Y006999D02*
X049240Y006999D01*
X049339Y006840D02*
X052995Y006840D01*
X052995Y006682D02*
X049414Y006682D01*
X049456Y006523D02*
X052995Y006523D01*
X052995Y006365D02*
X049472Y006365D01*
X049472Y006206D02*
X052995Y006206D01*
X052995Y006048D02*
X049436Y006048D01*
X049387Y005889D02*
X052995Y005889D01*
X052995Y005731D02*
X049296Y005731D01*
X049165Y005572D02*
X052995Y005572D01*
X052995Y005414D02*
X048968Y005414D01*
X048553Y005255D02*
X052995Y005255D01*
X052995Y005097D02*
X047860Y005097D01*
X047860Y005255D02*
X048250Y005255D01*
X047860Y004938D02*
X052995Y004938D01*
X052995Y004780D02*
X047860Y004780D01*
X047860Y004621D02*
X052995Y004621D01*
X052995Y004463D02*
X047860Y004463D01*
X047860Y004304D02*
X052995Y004304D01*
X052995Y004146D02*
X047860Y004146D01*
X047500Y004146D02*
X001005Y004146D01*
X001005Y004304D02*
X047500Y004304D01*
X047500Y004463D02*
X001005Y004463D01*
X001005Y004621D02*
X017175Y004621D01*
X017218Y004578D02*
X017401Y004502D01*
X017599Y004502D01*
X017782Y004578D01*
X017922Y004718D01*
X017998Y004901D01*
X017998Y005099D01*
X017922Y005282D01*
X017782Y005422D01*
X017599Y005498D01*
X017401Y005498D01*
X017218Y005422D01*
X017078Y005282D01*
X017002Y005099D01*
X017002Y004901D01*
X017078Y004718D01*
X017218Y004578D01*
X017053Y004780D02*
X001005Y004780D01*
X001005Y004938D02*
X017002Y004938D01*
X017002Y005097D02*
X001005Y005097D01*
X001005Y005255D02*
X017067Y005255D01*
X017210Y005414D02*
X001005Y005414D01*
X001005Y005572D02*
X017232Y005572D01*
X017218Y005578D02*
X017401Y005502D01*
X017599Y005502D01*
X017782Y005578D01*
X017922Y005718D01*
X017998Y005901D01*
X017998Y006099D01*
X017922Y006282D01*
X017782Y006422D01*
X017599Y006498D01*
X017401Y006498D01*
X017218Y006422D01*
X017078Y006282D01*
X017002Y006099D01*
X017002Y005901D01*
X017078Y005718D01*
X017218Y005578D01*
X017073Y005731D02*
X001005Y005731D01*
X001005Y005889D02*
X017007Y005889D01*
X017002Y006048D02*
X001005Y006048D01*
X001005Y006206D02*
X017047Y006206D01*
X017161Y006365D02*
X001005Y006365D01*
X001005Y006523D02*
X018351Y006523D01*
X018401Y006502D02*
X018599Y006502D01*
X018782Y006578D01*
X018922Y006718D01*
X018998Y006901D01*
X018998Y007099D01*
X018922Y007282D01*
X018782Y007422D01*
X018599Y007498D01*
X018401Y007498D01*
X018218Y007422D01*
X018078Y007282D01*
X018002Y007099D01*
X018002Y006901D01*
X018078Y006718D01*
X018218Y006578D01*
X018401Y006502D01*
X018649Y006523D02*
X030351Y006523D01*
X030401Y006502D02*
X030599Y006502D01*
X030782Y006578D01*
X030922Y006718D01*
X030998Y006901D01*
X030998Y007099D01*
X030922Y007282D01*
X030782Y007422D01*
X030599Y007498D01*
X030401Y007498D01*
X030218Y007422D01*
X030078Y007282D01*
X030002Y007099D01*
X030002Y006901D01*
X030078Y006718D01*
X030218Y006578D01*
X030401Y006502D01*
X030649Y006523D02*
X047347Y006523D01*
X047331Y006365D02*
X031839Y006365D01*
X031782Y006422D02*
X031599Y006498D01*
X031401Y006498D01*
X031218Y006422D01*
X031078Y006282D01*
X031002Y006099D01*
X031002Y005901D01*
X031078Y005718D01*
X031218Y005578D01*
X031401Y005502D01*
X031599Y005502D01*
X031782Y005578D01*
X031922Y005718D01*
X031998Y005901D01*
X031998Y006099D01*
X031922Y006282D01*
X031782Y006422D01*
X031953Y006206D02*
X047331Y006206D01*
X047367Y006048D02*
X031998Y006048D01*
X031993Y005889D02*
X047416Y005889D01*
X047500Y005731D02*
X031927Y005731D01*
X031768Y005572D02*
X047500Y005572D01*
X047500Y005414D02*
X031790Y005414D01*
X031782Y005422D02*
X031599Y005498D01*
X031401Y005498D01*
X031218Y005422D01*
X031078Y005282D01*
X031002Y005099D01*
X031002Y004901D01*
X031078Y004718D01*
X031218Y004578D01*
X031401Y004502D01*
X031599Y004502D01*
X031782Y004578D01*
X031922Y004718D01*
X031998Y004901D01*
X031998Y005099D01*
X031922Y005282D01*
X031782Y005422D01*
X031933Y005255D02*
X047500Y005255D01*
X047500Y005097D02*
X031998Y005097D01*
X031998Y004938D02*
X047500Y004938D01*
X047500Y004780D02*
X031947Y004780D01*
X031825Y004621D02*
X047500Y004621D01*
X047389Y006682D02*
X030885Y006682D01*
X030973Y006840D02*
X047464Y006840D01*
X047500Y006999D02*
X030998Y006999D01*
X030974Y007157D02*
X047500Y007157D01*
X047500Y007316D02*
X036573Y007316D01*
X036187Y007316D02*
X030888Y007316D01*
X030656Y007474D02*
X035803Y007474D01*
X035621Y007633D02*
X025379Y007633D01*
X025444Y007698D02*
X025580Y007932D01*
X025650Y008194D01*
X025650Y008466D01*
X025580Y008728D01*
X025444Y008962D01*
X025252Y009154D01*
X025018Y009290D01*
X024756Y009360D01*
X024484Y009360D01*
X024222Y009290D01*
X023988Y009154D01*
X023796Y008962D01*
X023660Y008728D01*
X023590Y008466D01*
X023590Y008194D01*
X023660Y007932D01*
X023796Y007698D01*
X023988Y007506D01*
X024222Y007370D01*
X024484Y007300D01*
X024756Y007300D01*
X025018Y007370D01*
X025252Y007506D01*
X025444Y007698D01*
X025498Y007791D02*
X035502Y007791D01*
X035416Y007950D02*
X025584Y007950D01*
X025627Y008108D02*
X035373Y008108D01*
X035350Y008267D02*
X025650Y008267D01*
X025650Y008425D02*
X035350Y008425D01*
X035382Y008584D02*
X025618Y008584D01*
X025571Y008742D02*
X035429Y008742D01*
X035520Y008901D02*
X025480Y008901D01*
X025348Y009059D02*
X035652Y009059D01*
X035857Y009218D02*
X025143Y009218D01*
X025090Y010169D02*
X023910Y010169D01*
X024014Y010327D02*
X024986Y010327D01*
X024940Y010486D02*
X024060Y010486D01*
X024060Y010644D02*
X024940Y010644D01*
X024998Y010803D02*
X024002Y010803D01*
X023881Y010961D02*
X025119Y010961D01*
X025881Y010961D02*
X035119Y010961D01*
X034998Y010803D02*
X026002Y010803D01*
X026060Y010644D02*
X034940Y010644D01*
X034940Y010486D02*
X026060Y010486D01*
X026014Y010327D02*
X034986Y010327D01*
X035090Y010169D02*
X025910Y010169D01*
X025806Y012071D02*
X035194Y012071D01*
X035029Y012229D02*
X025971Y012229D01*
X026039Y012388D02*
X034961Y012388D01*
X034940Y012546D02*
X026060Y012546D01*
X025194Y012071D02*
X023806Y012071D01*
X023971Y012229D02*
X025029Y012229D01*
X024961Y012388D02*
X024039Y012388D01*
X024060Y012546D02*
X024940Y012546D01*
X024786Y012705D02*
X024042Y012705D01*
X023976Y012863D02*
X024628Y012863D01*
X025000Y013000D02*
X024500Y013500D01*
X023550Y013500D01*
X023500Y013550D01*
X023450Y013500D01*
X013500Y013500D01*
X013500Y013550D01*
X013500Y013500D02*
X013000Y013500D01*
X012500Y013000D01*
X012167Y012863D02*
X011976Y012863D01*
X012042Y012705D02*
X012286Y012705D01*
X012060Y012546D02*
X012940Y012546D01*
X012958Y012705D02*
X012714Y012705D01*
X012872Y012863D02*
X013024Y012863D01*
X012961Y012388D02*
X012039Y012388D01*
X011971Y012229D02*
X013029Y012229D01*
X013194Y012071D02*
X011806Y012071D01*
X011881Y010961D02*
X013119Y010961D01*
X012998Y010803D02*
X012002Y010803D01*
X012060Y010644D02*
X012940Y010644D01*
X012940Y010486D02*
X012060Y010486D01*
X012014Y010327D02*
X012986Y010327D01*
X013090Y010169D02*
X011910Y010169D01*
X012244Y009360D02*
X011982Y009290D01*
X011748Y009154D01*
X011556Y008962D01*
X011420Y008728D01*
X011350Y008466D01*
X011350Y008194D01*
X011420Y007932D01*
X011556Y007698D01*
X011748Y007506D01*
X011982Y007370D01*
X012244Y007300D01*
X012516Y007300D01*
X012778Y007370D01*
X013012Y007506D01*
X013204Y007698D01*
X013340Y007932D01*
X013410Y008194D01*
X013410Y008466D01*
X013340Y008728D01*
X013204Y008962D01*
X013012Y009154D01*
X012778Y009290D01*
X012516Y009360D01*
X012244Y009360D01*
X011857Y009218D02*
X001005Y009218D01*
X001005Y009376D02*
X019013Y009376D01*
X019002Y009535D02*
X001005Y009535D01*
X001005Y009693D02*
X019041Y009693D01*
X019148Y009852D02*
X001005Y009852D01*
X001005Y009059D02*
X011652Y009059D01*
X011520Y008901D02*
X001005Y008901D01*
X001005Y008742D02*
X011429Y008742D01*
X011382Y008584D02*
X001005Y008584D01*
X001005Y008425D02*
X011350Y008425D01*
X011350Y008267D02*
X001005Y008267D01*
X001005Y008108D02*
X011373Y008108D01*
X011416Y007950D02*
X001005Y007950D01*
X001005Y007791D02*
X011502Y007791D01*
X011621Y007633D02*
X001005Y007633D01*
X001005Y007474D02*
X011803Y007474D01*
X012187Y007316D02*
X001005Y007316D01*
X001005Y007157D02*
X018026Y007157D01*
X018002Y006999D02*
X001005Y006999D01*
X001005Y006840D02*
X018027Y006840D01*
X018115Y006682D02*
X001005Y006682D01*
X001005Y013360D02*
X001005Y048000D01*
X041000Y048000D01*
X041000Y041580D01*
X040885Y041580D01*
X040671Y041492D01*
X040508Y041329D01*
X040500Y041309D01*
X040492Y041329D01*
X040329Y041492D01*
X040115Y041580D01*
X039885Y041580D01*
X039671Y041492D01*
X039540Y041360D01*
X039428Y041360D01*
X039296Y041305D01*
X039195Y041204D01*
X038351Y040360D01*
X038027Y040360D01*
X038060Y040439D01*
X038060Y040661D01*
X037975Y040867D01*
X037817Y041025D01*
X037611Y041110D01*
X037389Y041110D01*
X037183Y041025D01*
X037025Y040867D01*
X037022Y040860D01*
X036928Y040860D01*
X036796Y040805D01*
X036695Y040704D01*
X036351Y040360D01*
X036027Y040360D01*
X036060Y040439D01*
X036060Y040661D01*
X035975Y040867D01*
X035817Y041025D01*
X035611Y041110D01*
X035389Y041110D01*
X035183Y041025D01*
X035025Y040867D01*
X035022Y040860D01*
X025978Y040860D01*
X025975Y040867D01*
X025817Y041025D01*
X025611Y041110D01*
X025399Y041110D01*
X025305Y041204D01*
X025204Y041305D01*
X025072Y041360D01*
X012928Y041360D01*
X012796Y041305D01*
X012351Y040860D01*
X011978Y040860D01*
X011975Y040867D01*
X011817Y041025D01*
X011611Y041110D01*
X011389Y041110D01*
X011183Y041025D01*
X011025Y040867D01*
X011022Y040860D01*
X010928Y040860D01*
X010796Y040805D01*
X010695Y040704D01*
X010640Y040572D01*
X010640Y040428D01*
X010695Y040296D01*
X010796Y040195D01*
X010928Y040140D01*
X011118Y040140D01*
X011183Y040075D01*
X011244Y040050D01*
X011183Y040025D01*
X011025Y039867D01*
X010940Y039661D01*
X010940Y039439D01*
X011025Y039233D01*
X011183Y039075D01*
X011244Y039050D01*
X011183Y039025D01*
X011025Y038867D01*
X010940Y038661D01*
X010940Y038439D01*
X011025Y038233D01*
X011183Y038075D01*
X011244Y038050D01*
X011183Y038025D01*
X011025Y037867D01*
X010940Y037661D01*
X010940Y037439D01*
X011025Y037233D01*
X011183Y037075D01*
X011244Y037050D01*
X011183Y037025D01*
X011025Y036867D01*
X010940Y036661D01*
X010940Y036439D01*
X011025Y036233D01*
X011183Y036075D01*
X011244Y036050D01*
X011183Y036025D01*
X011025Y035867D01*
X010940Y035661D01*
X010940Y035439D01*
X011025Y035233D01*
X011183Y035075D01*
X011244Y035050D01*
X011183Y035025D01*
X011025Y034867D01*
X010940Y034661D01*
X010940Y034439D01*
X011025Y034233D01*
X011183Y034075D01*
X011244Y034050D01*
X011183Y034025D01*
X011025Y033867D01*
X010940Y033661D01*
X010940Y033439D01*
X011025Y033233D01*
X011183Y033075D01*
X011244Y033050D01*
X011183Y033025D01*
X011025Y032867D01*
X010940Y032661D01*
X010940Y032439D01*
X011025Y032233D01*
X011183Y032075D01*
X011244Y032050D01*
X011183Y032025D01*
X011025Y031867D01*
X010940Y031661D01*
X010940Y031439D01*
X011025Y031233D01*
X011183Y031075D01*
X011244Y031050D01*
X011183Y031025D01*
X011025Y030867D01*
X010940Y030661D01*
X010940Y030439D01*
X011025Y030233D01*
X011183Y030075D01*
X011244Y030050D01*
X011183Y030025D01*
X011025Y029867D01*
X010940Y029661D01*
X010940Y029439D01*
X011025Y029233D01*
X011183Y029075D01*
X011244Y029050D01*
X011183Y029025D01*
X011025Y028867D01*
X010940Y028661D01*
X010940Y028439D01*
X011025Y028233D01*
X011183Y028075D01*
X011244Y028050D01*
X011183Y028025D01*
X011025Y027867D01*
X010940Y027661D01*
X010940Y027439D01*
X011025Y027233D01*
X011183Y027075D01*
X011244Y027050D01*
X011183Y027025D01*
X011025Y026867D01*
X010940Y026661D01*
X010940Y026439D01*
X011025Y026233D01*
X011183Y026075D01*
X011244Y026050D01*
X011183Y026025D01*
X011025Y025867D01*
X010940Y025661D01*
X010940Y025439D01*
X011025Y025233D01*
X011183Y025075D01*
X011244Y025050D01*
X011183Y025025D01*
X011025Y024867D01*
X010940Y024661D01*
X010940Y024439D01*
X011025Y024233D01*
X011183Y024075D01*
X011244Y024050D01*
X011183Y024025D01*
X011025Y023867D01*
X010940Y023661D01*
X010940Y023439D01*
X011025Y023233D01*
X011183Y023075D01*
X011244Y023050D01*
X011183Y023025D01*
X011025Y022867D01*
X010940Y022661D01*
X010940Y022439D01*
X011025Y022233D01*
X011183Y022075D01*
X011244Y022050D01*
X011183Y022025D01*
X011025Y021867D01*
X010940Y021661D01*
X010940Y021439D01*
X011025Y021233D01*
X011183Y021075D01*
X011244Y021050D01*
X011183Y021025D01*
X011025Y020867D01*
X010940Y020661D01*
X010940Y020439D01*
X011025Y020233D01*
X011183Y020075D01*
X011244Y020050D01*
X011183Y020025D01*
X011025Y019867D01*
X010940Y019661D01*
X010940Y019439D01*
X011025Y019233D01*
X011183Y019075D01*
X011244Y019050D01*
X011183Y019025D01*
X011025Y018867D01*
X010940Y018661D01*
X010940Y018439D01*
X011025Y018233D01*
X011183Y018075D01*
X011389Y017990D01*
X011611Y017990D01*
X011817Y018075D01*
X011932Y018190D01*
X013068Y018190D01*
X013183Y018075D01*
X013389Y017990D01*
X013611Y017990D01*
X013817Y018075D01*
X013932Y018190D01*
X023068Y018190D01*
X023183Y018075D01*
X023389Y017990D01*
X023611Y017990D01*
X023817Y018075D01*
X023932Y018190D01*
X025068Y018190D01*
X025183Y018075D01*
X025389Y017990D01*
X025611Y017990D01*
X025817Y018075D01*
X025932Y018190D01*
X035068Y018190D01*
X035183Y018075D01*
X035389Y017990D01*
X035611Y017990D01*
X035817Y018075D01*
X035932Y018190D01*
X037068Y018190D01*
X037183Y018075D01*
X037389Y017990D01*
X037611Y017990D01*
X037817Y018075D01*
X037932Y018190D01*
X041000Y018190D01*
X041000Y015000D01*
X042640Y013360D01*
X038027Y013360D01*
X038060Y013439D01*
X038060Y013661D01*
X037975Y013867D01*
X037817Y014025D01*
X037756Y014050D01*
X037817Y014075D01*
X037975Y014233D01*
X038060Y014439D01*
X038060Y014661D01*
X037975Y014867D01*
X037817Y015025D01*
X037756Y015050D01*
X037817Y015075D01*
X037975Y015233D01*
X038060Y015439D01*
X038060Y015661D01*
X037975Y015867D01*
X037817Y016025D01*
X037756Y016050D01*
X037817Y016075D01*
X037975Y016233D01*
X038060Y016439D01*
X038060Y016661D01*
X037975Y016867D01*
X037817Y017025D01*
X037611Y017110D01*
X037389Y017110D01*
X037377Y017105D01*
X035623Y017105D01*
X035611Y017110D01*
X035389Y017110D01*
X035377Y017105D01*
X025623Y017105D01*
X025611Y017110D01*
X025389Y017110D01*
X025377Y017105D01*
X023623Y017105D01*
X023611Y017110D01*
X023389Y017110D01*
X023377Y017105D01*
X013623Y017105D01*
X013611Y017110D01*
X013389Y017110D01*
X013377Y017105D01*
X011623Y017105D01*
X011611Y017110D01*
X011389Y017110D01*
X011183Y017025D01*
X011025Y016867D01*
X010940Y016661D01*
X010940Y016439D01*
X011025Y016233D01*
X011183Y016075D01*
X011244Y016050D01*
X011183Y016025D01*
X011025Y015867D01*
X010940Y015661D01*
X010940Y015439D01*
X011025Y015233D01*
X011183Y015075D01*
X011244Y015050D01*
X011183Y015025D01*
X011025Y014867D01*
X010940Y014661D01*
X010940Y014439D01*
X011025Y014233D01*
X011183Y014075D01*
X011244Y014050D01*
X011183Y014025D01*
X011025Y013867D01*
X010940Y013661D01*
X010940Y013439D01*
X010973Y013360D01*
X001005Y013360D01*
X001005Y013497D02*
X010940Y013497D01*
X010940Y013656D02*
X001005Y013656D01*
X001005Y013814D02*
X011003Y013814D01*
X011131Y013973D02*
X001005Y013973D01*
X001005Y014131D02*
X011127Y014131D01*
X011002Y014290D02*
X001005Y014290D01*
X001005Y014448D02*
X010940Y014448D01*
X010940Y014607D02*
X001005Y014607D01*
X001005Y014765D02*
X010983Y014765D01*
X011082Y014924D02*
X001005Y014924D01*
X001005Y015082D02*
X011176Y015082D01*
X011022Y015241D02*
X001005Y015241D01*
X001005Y015399D02*
X010956Y015399D01*
X010940Y015558D02*
X001005Y015558D01*
X001005Y015716D02*
X010963Y015716D01*
X011033Y015875D02*
X001005Y015875D01*
X001005Y016033D02*
X011203Y016033D01*
X011067Y016192D02*
X001005Y016192D01*
X001005Y016350D02*
X010977Y016350D01*
X010940Y016509D02*
X001005Y016509D01*
X001005Y016667D02*
X010942Y016667D01*
X011008Y016826D02*
X001005Y016826D01*
X001005Y016984D02*
X011142Y016984D01*
X011165Y018094D02*
X001005Y018094D01*
X001005Y018252D02*
X011017Y018252D01*
X010952Y018411D02*
X001005Y018411D01*
X001005Y018569D02*
X010940Y018569D01*
X010967Y018728D02*
X001005Y018728D01*
X001005Y018886D02*
X011044Y018886D01*
X011231Y019045D02*
X001005Y019045D01*
X001005Y019203D02*
X011055Y019203D01*
X010972Y019362D02*
X001005Y019362D01*
X001005Y019520D02*
X010940Y019520D01*
X010947Y019679D02*
X001005Y019679D01*
X001005Y019837D02*
X011013Y019837D01*
X011154Y019996D02*
X001005Y019996D01*
X001005Y020154D02*
X011104Y020154D01*
X010992Y020313D02*
X001005Y020313D01*
X001005Y020471D02*
X010940Y020471D01*
X010940Y020630D02*
X001005Y020630D01*
X001005Y020788D02*
X010992Y020788D01*
X011105Y020947D02*
X001005Y020947D01*
X001005Y021105D02*
X011153Y021105D01*
X011013Y021264D02*
X001005Y021264D01*
X001005Y021422D02*
X010947Y021422D01*
X010940Y021581D02*
X001005Y021581D01*
X001005Y021739D02*
X010972Y021739D01*
X011056Y021898D02*
X001005Y021898D01*
X001005Y022056D02*
X011229Y022056D01*
X011044Y022215D02*
X001005Y022215D01*
X001005Y022373D02*
X010967Y022373D01*
X010940Y022532D02*
X001005Y022532D01*
X001005Y022690D02*
X010952Y022690D01*
X011018Y022849D02*
X001005Y022849D01*
X001005Y023007D02*
X011165Y023007D01*
X011093Y023166D02*
X001005Y023166D01*
X001005Y023324D02*
X010987Y023324D01*
X010940Y023483D02*
X001005Y023483D01*
X001005Y023641D02*
X010940Y023641D01*
X010997Y023800D02*
X001005Y023800D01*
X001005Y023958D02*
X011116Y023958D01*
X011142Y024117D02*
X001005Y024117D01*
X001005Y024275D02*
X011008Y024275D01*
X010942Y024434D02*
X001005Y024434D01*
X001005Y024592D02*
X010940Y024592D01*
X010977Y024751D02*
X001005Y024751D01*
X001005Y024909D02*
X011067Y024909D01*
X011201Y025068D02*
X001005Y025068D01*
X001005Y025226D02*
X011032Y025226D01*
X010962Y025385D02*
X001005Y025385D01*
X001005Y025543D02*
X010940Y025543D01*
X010957Y025702D02*
X001005Y025702D01*
X001005Y025860D02*
X011022Y025860D01*
X011177Y026019D02*
X001005Y026019D01*
X001005Y026177D02*
X011081Y026177D01*
X010983Y026336D02*
X001005Y026336D01*
X001005Y026494D02*
X010940Y026494D01*
X010940Y026653D02*
X001005Y026653D01*
X001005Y026811D02*
X011002Y026811D01*
X011128Y026970D02*
X001005Y026970D01*
X001005Y027128D02*
X011130Y027128D01*
X011003Y027287D02*
X001005Y027287D01*
X001005Y027445D02*
X010940Y027445D01*
X010940Y027604D02*
X001005Y027604D01*
X001005Y027762D02*
X010982Y027762D01*
X011079Y027921D02*
X001005Y027921D01*
X001005Y028079D02*
X011179Y028079D01*
X011023Y028238D02*
X001005Y028238D01*
X001005Y028396D02*
X010958Y028396D01*
X010940Y028555D02*
X001005Y028555D01*
X001005Y028713D02*
X010961Y028713D01*
X011030Y028872D02*
X001005Y028872D01*
X001005Y029030D02*
X011196Y029030D01*
X011069Y029189D02*
X001005Y029189D01*
X001005Y029347D02*
X010978Y029347D01*
X010940Y029506D02*
X001005Y029506D01*
X001005Y029664D02*
X010941Y029664D01*
X011007Y029823D02*
X001005Y029823D01*
X001005Y029981D02*
X011139Y029981D01*
X011118Y030140D02*
X001005Y030140D01*
X001005Y030298D02*
X010998Y030298D01*
X010940Y030457D02*
X001005Y030457D01*
X001005Y030615D02*
X010940Y030615D01*
X010986Y030774D02*
X001005Y030774D01*
X001005Y030932D02*
X011090Y030932D01*
X011167Y031091D02*
X001005Y031091D01*
X001005Y031249D02*
X011019Y031249D01*
X010953Y031408D02*
X001005Y031408D01*
X001005Y031566D02*
X010940Y031566D01*
X010966Y031725D02*
X001005Y031725D01*
X001005Y031883D02*
X011041Y031883D01*
X011223Y032042D02*
X001005Y032042D01*
X001005Y032200D02*
X011058Y032200D01*
X010973Y032359D02*
X001005Y032359D01*
X001005Y032517D02*
X010940Y032517D01*
X010946Y032676D02*
X001005Y032676D01*
X001005Y032834D02*
X011012Y032834D01*
X011151Y032993D02*
X001005Y032993D01*
X001005Y033151D02*
X011107Y033151D01*
X010993Y033310D02*
X001005Y033310D01*
X001005Y033468D02*
X010940Y033468D01*
X010940Y033627D02*
X001005Y033627D01*
X001005Y033785D02*
X010991Y033785D01*
X011102Y033944D02*
X001005Y033944D01*
X001005Y034102D02*
X011156Y034102D01*
X011014Y034261D02*
X001005Y034261D01*
X001005Y034419D02*
X010948Y034419D01*
X010940Y034578D02*
X001005Y034578D01*
X001005Y034736D02*
X010971Y034736D01*
X011053Y034895D02*
X001005Y034895D01*
X001005Y035053D02*
X011236Y035053D01*
X011046Y035212D02*
X001005Y035212D01*
X001005Y035370D02*
X010968Y035370D01*
X010940Y035529D02*
X001005Y035529D01*
X001005Y035687D02*
X010951Y035687D01*
X011016Y035846D02*
X001005Y035846D01*
X001005Y036004D02*
X011162Y036004D01*
X011095Y036163D02*
X001005Y036163D01*
X001005Y036321D02*
X010989Y036321D01*
X010940Y036480D02*
X001005Y036480D01*
X001005Y036638D02*
X010940Y036638D01*
X010996Y036797D02*
X001005Y036797D01*
X001005Y036955D02*
X011113Y036955D01*
X011144Y037114D02*
X001005Y037114D01*
X001005Y037272D02*
X011009Y037272D01*
X010943Y037431D02*
X001005Y037431D01*
X001005Y037589D02*
X010940Y037589D01*
X010976Y037748D02*
X001005Y037748D01*
X001005Y037906D02*
X011064Y037906D01*
X011209Y038065D02*
X001005Y038065D01*
X001005Y038223D02*
X011035Y038223D01*
X010964Y038382D02*
X001005Y038382D01*
X001005Y038540D02*
X010940Y038540D01*
X010955Y038699D02*
X001005Y038699D01*
X001005Y038857D02*
X011021Y038857D01*
X011174Y039016D02*
X001005Y039016D01*
X001005Y039174D02*
X011084Y039174D01*
X010984Y039333D02*
X001005Y039333D01*
X001005Y039491D02*
X010940Y039491D01*
X010940Y039650D02*
X001005Y039650D01*
X001005Y039808D02*
X011001Y039808D01*
X011125Y039967D02*
X001005Y039967D01*
X001005Y040125D02*
X011133Y040125D01*
X011000Y040500D02*
X011500Y040500D01*
X011500Y040550D01*
X011500Y040500D02*
X012500Y040500D01*
X013000Y041000D01*
X025000Y041000D01*
X025450Y040550D01*
X025500Y040550D01*
X025550Y040500D01*
X035500Y040500D01*
X035500Y040550D01*
X035450Y040500D01*
X035076Y040918D02*
X025924Y040918D01*
X025693Y041076D02*
X035307Y041076D01*
X035693Y041076D02*
X037307Y041076D01*
X037076Y040918D02*
X035924Y040918D01*
X036020Y040759D02*
X036750Y040759D01*
X036591Y040601D02*
X036060Y040601D01*
X036060Y040442D02*
X036433Y040442D01*
X036500Y040000D02*
X037000Y040500D01*
X037450Y040500D01*
X037500Y040550D01*
X037500Y040500D01*
X038060Y040442D02*
X038433Y040442D01*
X038591Y040601D02*
X038060Y040601D01*
X038020Y040759D02*
X038750Y040759D01*
X038908Y040918D02*
X037924Y040918D01*
X037693Y041076D02*
X039067Y041076D01*
X039225Y041235D02*
X025275Y041235D01*
X025305Y041204D02*
X025305Y041204D01*
X024500Y040500D02*
X025000Y040000D01*
X036500Y040000D01*
X036550Y039550D02*
X037000Y040000D01*
X038500Y040000D01*
X039500Y041000D01*
X040000Y041000D01*
X040427Y041393D02*
X040573Y041393D01*
X040816Y041552D02*
X040184Y041552D01*
X039816Y041552D02*
X001005Y041552D01*
X001005Y041710D02*
X041000Y041710D01*
X041000Y041869D02*
X001005Y041869D01*
X001005Y042027D02*
X041000Y042027D01*
X041000Y042186D02*
X001005Y042186D01*
X001005Y042344D02*
X041000Y042344D01*
X041000Y042503D02*
X001005Y042503D01*
X001005Y042661D02*
X041000Y042661D01*
X041000Y042820D02*
X036794Y042820D01*
X036778Y042810D02*
X037012Y042946D01*
X037204Y043138D01*
X037340Y043372D01*
X037410Y043634D01*
X037410Y043906D01*
X037340Y044168D01*
X037204Y044402D01*
X037012Y044594D01*
X036778Y044730D01*
X036516Y044800D01*
X036244Y044800D01*
X035982Y044730D01*
X035748Y044594D01*
X035556Y044402D01*
X035420Y044168D01*
X035350Y043906D01*
X035350Y043634D01*
X035420Y043372D01*
X035556Y043138D01*
X035748Y042946D01*
X035982Y042810D01*
X036244Y042740D01*
X036516Y042740D01*
X036778Y042810D01*
X037045Y042978D02*
X041000Y042978D01*
X041000Y043137D02*
X037203Y043137D01*
X037295Y043295D02*
X041000Y043295D01*
X041000Y043454D02*
X037362Y043454D01*
X037404Y043612D02*
X041000Y043612D01*
X041000Y043771D02*
X037410Y043771D01*
X037404Y043929D02*
X041000Y043929D01*
X041000Y044088D02*
X037361Y044088D01*
X037294Y044246D02*
X041000Y044246D01*
X041000Y044405D02*
X037202Y044405D01*
X037044Y044563D02*
X041000Y044563D01*
X041000Y044722D02*
X036792Y044722D01*
X035968Y044722D02*
X025032Y044722D01*
X025018Y044730D02*
X024756Y044800D01*
X024484Y044800D01*
X024222Y044730D01*
X023988Y044594D01*
X023796Y044402D01*
X023660Y044168D01*
X023590Y043906D01*
X023590Y043634D01*
X023660Y043372D01*
X023796Y043138D01*
X023988Y042946D01*
X024222Y042810D01*
X024484Y042740D01*
X024756Y042740D01*
X025018Y042810D01*
X025252Y042946D01*
X025444Y043138D01*
X025580Y043372D01*
X025650Y043634D01*
X025650Y043906D01*
X025580Y044168D01*
X025444Y044402D01*
X025252Y044594D01*
X025018Y044730D01*
X025284Y044563D02*
X035716Y044563D01*
X035558Y044405D02*
X025442Y044405D01*
X025534Y044246D02*
X035466Y044246D01*
X035399Y044088D02*
X025601Y044088D01*
X025644Y043929D02*
X035356Y043929D01*
X035350Y043771D02*
X025650Y043771D01*
X025644Y043612D02*
X035356Y043612D01*
X035398Y043454D02*
X025602Y043454D01*
X025535Y043295D02*
X035465Y043295D01*
X035557Y043137D02*
X025443Y043137D01*
X025285Y042978D02*
X035715Y042978D01*
X035966Y042820D02*
X025034Y042820D01*
X024206Y042820D02*
X012794Y042820D01*
X012778Y042810D02*
X013012Y042946D01*
X013204Y043138D01*
X013340Y043372D01*
X013410Y043634D01*
X013410Y043906D01*
X013340Y044168D01*
X013204Y044402D01*
X013012Y044594D01*
X012778Y044730D01*
X012516Y044800D01*
X012244Y044800D01*
X011982Y044730D01*
X011748Y044594D01*
X011556Y044402D01*
X011420Y044168D01*
X011350Y043906D01*
X011350Y043634D01*
X011420Y043372D01*
X011556Y043138D01*
X011748Y042946D01*
X011982Y042810D01*
X012244Y042740D01*
X012516Y042740D01*
X012778Y042810D01*
X013045Y042978D02*
X023955Y042978D01*
X023797Y043137D02*
X013203Y043137D01*
X013295Y043295D02*
X023705Y043295D01*
X023638Y043454D02*
X013362Y043454D01*
X013404Y043612D02*
X023596Y043612D01*
X023590Y043771D02*
X013410Y043771D01*
X013404Y043929D02*
X023596Y043929D01*
X023639Y044088D02*
X013361Y044088D01*
X013294Y044246D02*
X023706Y044246D01*
X023798Y044405D02*
X013202Y044405D01*
X013044Y044563D02*
X023956Y044563D01*
X024208Y044722D02*
X012792Y044722D01*
X011968Y044722D02*
X001005Y044722D01*
X001005Y044880D02*
X041000Y044880D01*
X041000Y045039D02*
X001005Y045039D01*
X001005Y045197D02*
X041000Y045197D01*
X041000Y045356D02*
X001005Y045356D01*
X001005Y045514D02*
X041000Y045514D01*
X041000Y045673D02*
X001005Y045673D01*
X001005Y045831D02*
X041000Y045831D01*
X041000Y045990D02*
X001005Y045990D01*
X001005Y046148D02*
X041000Y046148D01*
X041000Y046307D02*
X001005Y046307D01*
X001005Y046465D02*
X041000Y046465D01*
X041000Y046624D02*
X001005Y046624D01*
X001005Y046782D02*
X041000Y046782D01*
X041000Y046941D02*
X001005Y046941D01*
X001005Y047099D02*
X041000Y047099D01*
X041000Y047258D02*
X001005Y047258D01*
X001005Y047416D02*
X041000Y047416D01*
X041000Y047575D02*
X001005Y047575D01*
X001005Y047733D02*
X041000Y047733D01*
X041000Y047892D02*
X001005Y047892D01*
X001005Y044563D02*
X011716Y044563D01*
X011558Y044405D02*
X001005Y044405D01*
X001005Y044246D02*
X011466Y044246D01*
X011399Y044088D02*
X001005Y044088D01*
X001005Y043929D02*
X011356Y043929D01*
X011350Y043771D02*
X001005Y043771D01*
X001005Y043612D02*
X011356Y043612D01*
X011398Y043454D02*
X001005Y043454D01*
X001005Y043295D02*
X011465Y043295D01*
X011557Y043137D02*
X001005Y043137D01*
X001005Y042978D02*
X011715Y042978D01*
X011966Y042820D02*
X001005Y042820D01*
X001005Y041393D02*
X039573Y041393D01*
X039500Y040000D02*
X039000Y039500D01*
X037550Y039500D01*
X037500Y039550D01*
X037450Y039500D01*
X037000Y039500D01*
X036500Y039000D01*
X025000Y039000D01*
X024500Y039500D01*
X023550Y039500D01*
X023500Y039550D01*
X023450Y039500D01*
X013500Y039500D01*
X013500Y039550D01*
X013500Y039500D02*
X013000Y039500D01*
X012500Y039000D01*
X013000Y039000D02*
X012500Y038500D01*
X011500Y038500D01*
X011500Y038550D01*
X011500Y039500D02*
X011500Y039550D01*
X011500Y039500D02*
X012500Y039500D01*
X013000Y040000D01*
X024500Y040000D01*
X024950Y039550D01*
X025500Y039550D01*
X025550Y039500D01*
X035500Y039500D01*
X035500Y039550D01*
X036550Y039550D01*
X037000Y039000D02*
X040000Y039000D01*
X039500Y038500D02*
X040000Y038000D01*
X039500Y038500D02*
X037500Y038500D01*
X037500Y038550D01*
X037500Y038500D02*
X037000Y038500D01*
X036500Y038000D01*
X025000Y038000D01*
X024500Y038500D01*
X023550Y038500D01*
X023500Y038550D01*
X023450Y038500D01*
X013500Y038500D01*
X013500Y038550D01*
X013500Y038500D02*
X013000Y038500D01*
X012500Y038000D01*
X013000Y038000D02*
X012500Y037500D01*
X011500Y037500D01*
X011500Y037550D01*
X011500Y036550D02*
X011500Y036500D01*
X012500Y036500D01*
X013000Y037000D01*
X024500Y037000D01*
X025000Y036500D01*
X025450Y036500D01*
X025500Y036550D01*
X025550Y036500D01*
X035500Y036500D01*
X035500Y036550D01*
X036550Y036550D01*
X037000Y037000D01*
X040000Y037000D01*
X039500Y036500D02*
X040000Y036000D01*
X039500Y036500D02*
X037500Y036500D01*
X037500Y036550D01*
X037500Y036500D02*
X037000Y036500D01*
X036500Y036000D01*
X025000Y036000D01*
X024500Y036500D01*
X023550Y036500D01*
X023500Y036550D01*
X023450Y036500D01*
X013500Y036500D01*
X013500Y036550D01*
X013500Y036500D02*
X013000Y036500D01*
X012500Y036000D01*
X013000Y036000D02*
X012500Y035500D01*
X011500Y035500D01*
X011500Y035550D01*
X011500Y034550D02*
X011500Y034500D01*
X012500Y034500D01*
X013000Y035000D01*
X024500Y035000D01*
X024950Y034550D01*
X025500Y034550D01*
X025550Y034500D01*
X035500Y034500D01*
X035500Y034550D01*
X035500Y035500D02*
X035500Y035550D01*
X036550Y035550D01*
X037000Y036000D01*
X039000Y036000D01*
X040000Y035000D01*
X040000Y034000D02*
X038500Y035500D01*
X037500Y035500D01*
X037500Y035550D01*
X037500Y035500D02*
X037000Y035500D01*
X036500Y035000D01*
X025000Y035000D01*
X024500Y035500D01*
X023550Y035500D01*
X023500Y035550D01*
X023450Y035500D01*
X013500Y035500D01*
X013500Y035550D01*
X013500Y035500D02*
X013000Y035500D01*
X012500Y035000D01*
X013000Y034500D02*
X012500Y034000D01*
X013000Y034000D02*
X012500Y033500D01*
X011500Y033500D01*
X011500Y033550D01*
X012500Y033000D02*
X013000Y033500D01*
X013500Y033500D01*
X023450Y033500D01*
X023500Y033550D01*
X023550Y033500D01*
X024500Y033500D01*
X025000Y033000D01*
X036500Y033000D01*
X037000Y033500D01*
X037500Y033500D01*
X037500Y033550D01*
X037000Y034500D02*
X036500Y034000D01*
X025000Y034000D01*
X024500Y034500D01*
X023550Y034500D01*
X023500Y034550D01*
X023450Y034500D01*
X013500Y034500D01*
X013500Y034550D01*
X013500Y034500D02*
X013000Y034500D01*
X013000Y034000D02*
X024500Y034000D01*
X025000Y033500D01*
X025500Y033500D01*
X025500Y033550D01*
X025500Y033500D02*
X035500Y033500D01*
X035500Y033550D01*
X037000Y034500D02*
X037500Y034500D01*
X037500Y034550D01*
X035500Y035500D02*
X025500Y035500D01*
X025000Y035500D01*
X024500Y036000D01*
X013000Y036000D01*
X012500Y037000D02*
X013000Y037500D01*
X013500Y037500D01*
X013500Y037550D01*
X013550Y037500D01*
X023500Y037500D01*
X023500Y037550D01*
X023550Y037500D01*
X024500Y037500D01*
X025000Y037000D01*
X036500Y037000D01*
X037000Y037500D01*
X037450Y037500D01*
X037500Y037550D01*
X037500Y037500D01*
X036550Y038550D02*
X037000Y039000D01*
X036550Y038550D02*
X035500Y038550D01*
X035500Y038500D01*
X025550Y038500D01*
X025500Y038550D01*
X025450Y038500D01*
X025000Y038500D01*
X024500Y039000D01*
X013000Y039000D01*
X013000Y038000D02*
X024500Y038000D01*
X025000Y037500D01*
X025450Y037500D01*
X025500Y037550D01*
X025500Y037500D01*
X035500Y037500D01*
X035500Y037550D01*
X037500Y039500D02*
X037500Y039550D01*
X039500Y040000D02*
X040000Y040000D01*
X041000Y040000D02*
X043000Y038000D01*
X044000Y038000D01*
X043500Y038500D02*
X044500Y038500D01*
X044500Y029500D01*
X045000Y029000D01*
X045269Y029506D02*
X045704Y029506D01*
X045718Y029500D02*
X045677Y029483D01*
X045517Y029323D01*
X045500Y029282D01*
X045483Y029323D01*
X045323Y029483D01*
X045113Y029570D01*
X044939Y029570D01*
X044860Y029649D01*
X044860Y036441D01*
X044887Y036430D01*
X045113Y036430D01*
X045323Y036517D01*
X045483Y036677D01*
X045570Y036887D01*
X045570Y037113D01*
X045483Y037323D01*
X045323Y037483D01*
X045282Y037500D01*
X045323Y037517D01*
X045483Y037677D01*
X045570Y037887D01*
X045570Y038113D01*
X045483Y038323D01*
X045323Y038483D01*
X045282Y038500D01*
X045323Y038517D01*
X045483Y038677D01*
X045570Y038887D01*
X045570Y039113D01*
X045483Y039323D01*
X045323Y039483D01*
X045113Y039570D01*
X044887Y039570D01*
X044677Y039483D01*
X044517Y039323D01*
X044500Y039282D01*
X044483Y039323D01*
X044323Y039483D01*
X044282Y039500D01*
X044323Y039517D01*
X044483Y039677D01*
X044570Y039887D01*
X044570Y040113D01*
X044483Y040323D01*
X044323Y040483D01*
X044282Y040500D01*
X044323Y040517D01*
X044483Y040677D01*
X044500Y040718D01*
X044517Y040677D01*
X044677Y040517D01*
X044887Y040430D01*
X045113Y040430D01*
X045323Y040517D01*
X045483Y040677D01*
X045570Y040887D01*
X045570Y041113D01*
X045483Y041323D01*
X045323Y041483D01*
X045113Y041570D01*
X044887Y041570D01*
X044677Y041483D01*
X044517Y041323D01*
X044500Y041282D01*
X044483Y041323D01*
X044323Y041483D01*
X044282Y041500D01*
X044323Y041517D01*
X044483Y041677D01*
X044570Y041887D01*
X044570Y042113D01*
X044483Y042323D01*
X044323Y042483D01*
X044113Y042570D01*
X043887Y042570D01*
X043677Y042483D01*
X043517Y042323D01*
X043430Y042113D01*
X043430Y041887D01*
X043517Y041677D01*
X043677Y041517D01*
X043718Y041500D01*
X043677Y041483D01*
X043517Y041323D01*
X043430Y041113D01*
X043430Y040887D01*
X043517Y040677D01*
X043677Y040517D01*
X043718Y040500D01*
X043677Y040483D01*
X043517Y040323D01*
X043430Y040113D01*
X043430Y039887D01*
X043517Y039677D01*
X043677Y039517D01*
X043718Y039500D01*
X043677Y039483D01*
X043517Y039323D01*
X043430Y039113D01*
X043430Y039079D01*
X041580Y040929D01*
X041580Y041115D01*
X041500Y041309D01*
X041500Y048000D01*
X047822Y048000D01*
X047700Y047949D01*
X047551Y047800D01*
X047470Y047605D01*
X047470Y047395D01*
X047551Y047200D01*
X047700Y047051D01*
X047895Y046970D01*
X049680Y046970D01*
X051470Y045180D01*
X051470Y014195D01*
X051506Y014108D01*
X051502Y014099D01*
X051502Y013901D01*
X051578Y013718D01*
X051718Y013578D01*
X051901Y013502D01*
X052099Y013502D01*
X052282Y013578D01*
X052422Y013718D01*
X052498Y013901D01*
X052498Y014099D01*
X052494Y014108D01*
X052530Y014195D01*
X052530Y045505D01*
X052449Y045700D01*
X050349Y047800D01*
X050200Y047949D01*
X050078Y048000D01*
X052995Y048000D01*
X052995Y011500D01*
X049500Y011500D01*
X049500Y013500D01*
X043500Y013500D01*
X041500Y015500D01*
X041500Y018491D01*
X044149Y021140D01*
X050072Y021140D01*
X050204Y021195D01*
X050305Y021296D01*
X050805Y021796D01*
X050860Y021928D01*
X050860Y034572D01*
X050805Y034704D01*
X050570Y034939D01*
X050570Y035113D01*
X050483Y035323D01*
X050323Y035483D01*
X050282Y035500D01*
X050323Y035517D01*
X050483Y035677D01*
X050570Y035887D01*
X050570Y036113D01*
X050483Y036323D01*
X050323Y036483D01*
X050282Y036500D01*
X050323Y036517D01*
X050483Y036677D01*
X050570Y036887D01*
X050570Y037113D01*
X050483Y037323D01*
X050323Y037483D01*
X050282Y037500D01*
X050323Y037517D01*
X050483Y037677D01*
X050570Y037887D01*
X050570Y038113D01*
X050483Y038323D01*
X050323Y038483D01*
X050282Y038500D01*
X050323Y038517D01*
X050483Y038677D01*
X050570Y038887D01*
X050570Y039113D01*
X050483Y039323D01*
X050323Y039483D01*
X050282Y039500D01*
X050323Y039517D01*
X050483Y039677D01*
X050570Y039887D01*
X050570Y040113D01*
X050483Y040323D01*
X050323Y040483D01*
X050282Y040500D01*
X050323Y040517D01*
X050483Y040677D01*
X050570Y040887D01*
X050570Y041113D01*
X050483Y041323D01*
X050323Y041483D01*
X050150Y041555D01*
X050180Y041564D01*
X050246Y041598D01*
X050306Y041642D01*
X050358Y041694D01*
X050402Y041754D01*
X050436Y041820D01*
X050458Y041890D01*
X050470Y041963D01*
X050470Y041985D01*
X050015Y041985D01*
X050015Y042015D01*
X049985Y042015D01*
X049985Y042470D01*
X049963Y042470D01*
X049890Y042458D01*
X049820Y042436D01*
X049754Y042402D01*
X049694Y042358D01*
X049642Y042306D01*
X049598Y042246D01*
X049564Y042180D01*
X049542Y042110D01*
X049530Y042037D01*
X049530Y042015D01*
X049985Y042015D01*
X049985Y041985D01*
X049530Y041985D01*
X049530Y041963D01*
X049542Y041890D01*
X049564Y041820D01*
X049598Y041754D01*
X049642Y041694D01*
X049694Y041642D01*
X049754Y041598D01*
X049820Y041564D01*
X049850Y041555D01*
X049677Y041483D01*
X049517Y041323D01*
X049430Y041113D01*
X049430Y040887D01*
X049517Y040677D01*
X049677Y040517D01*
X049718Y040500D01*
X049677Y040483D01*
X049517Y040323D01*
X049430Y040113D01*
X049430Y039887D01*
X049517Y039677D01*
X049677Y039517D01*
X049718Y039500D01*
X049677Y039483D01*
X049517Y039323D01*
X049430Y039113D01*
X049430Y038887D01*
X049517Y038677D01*
X049677Y038517D01*
X049718Y038500D01*
X049677Y038483D01*
X049517Y038323D01*
X049430Y038113D01*
X049430Y037887D01*
X049517Y037677D01*
X049677Y037517D01*
X049718Y037500D01*
X049677Y037483D01*
X049517Y037323D01*
X049430Y037113D01*
X049430Y036887D01*
X049517Y036677D01*
X049677Y036517D01*
X049718Y036500D01*
X049677Y036483D01*
X049517Y036323D01*
X049430Y036113D01*
X049430Y035887D01*
X049517Y035677D01*
X049677Y035517D01*
X049718Y035500D01*
X049677Y035483D01*
X049517Y035323D01*
X049430Y035113D01*
X049430Y034887D01*
X049517Y034677D01*
X049677Y034517D01*
X049718Y034500D01*
X049677Y034483D01*
X049517Y034323D01*
X049430Y034113D01*
X049430Y033887D01*
X049517Y033677D01*
X049677Y033517D01*
X049718Y033500D01*
X049677Y033483D01*
X049517Y033323D01*
X049430Y033113D01*
X049430Y032887D01*
X049517Y032677D01*
X049677Y032517D01*
X047323Y032517D01*
X047483Y032677D01*
X047570Y032887D01*
X047570Y033113D01*
X047483Y033323D01*
X047323Y033483D01*
X047282Y033500D01*
X047323Y033517D01*
X047483Y033677D01*
X047570Y033887D01*
X047570Y034113D01*
X047483Y034323D01*
X047323Y034483D01*
X047150Y034555D01*
X047180Y034564D01*
X047246Y034598D01*
X047306Y034642D01*
X047358Y034694D01*
X047402Y034754D01*
X047436Y034820D01*
X047458Y034890D01*
X047470Y034963D01*
X047470Y034985D01*
X047015Y034985D01*
X047015Y035015D01*
X047470Y035015D01*
X047470Y035037D01*
X047458Y035110D01*
X047436Y035180D01*
X047402Y035246D01*
X047358Y035306D01*
X047306Y035358D01*
X047246Y035402D01*
X047180Y035436D01*
X047150Y035445D01*
X047323Y035517D01*
X047483Y035677D01*
X047570Y035887D01*
X047570Y036113D01*
X047483Y036323D01*
X047323Y036483D01*
X047113Y036570D01*
X046887Y036570D01*
X046677Y036483D01*
X046517Y036323D01*
X046500Y036282D01*
X046483Y036323D01*
X046323Y036483D01*
X046113Y036570D01*
X045887Y036570D01*
X045677Y036483D01*
X045517Y036323D01*
X045430Y036113D01*
X045430Y035887D01*
X045517Y035677D01*
X045677Y035517D01*
X045718Y035500D01*
X045677Y035483D01*
X045517Y035323D01*
X045430Y035113D01*
X045430Y034887D01*
X045517Y034677D01*
X045677Y034517D01*
X045718Y034500D01*
X045677Y034483D01*
X045517Y034323D01*
X045430Y034113D01*
X045430Y033887D01*
X045517Y033677D01*
X045677Y033517D01*
X045718Y033500D01*
X045677Y033483D01*
X045517Y033323D01*
X045430Y033113D01*
X045430Y032887D01*
X045517Y032677D01*
X045677Y032517D01*
X044860Y032517D01*
X044860Y032359D02*
X045552Y032359D01*
X045517Y032323D02*
X045430Y032113D01*
X045430Y031887D01*
X045517Y031677D01*
X045677Y031517D01*
X045718Y031500D01*
X045677Y031483D01*
X045517Y031323D01*
X045430Y031113D01*
X045430Y030887D01*
X045517Y030677D01*
X045677Y030517D01*
X045718Y030500D01*
X045677Y030483D01*
X045517Y030323D01*
X045430Y030113D01*
X045430Y029887D01*
X045517Y029677D01*
X045677Y029517D01*
X045718Y029500D01*
X045541Y029347D02*
X045459Y029347D01*
X045530Y029664D02*
X044860Y029664D01*
X044860Y029823D02*
X045457Y029823D01*
X045430Y029981D02*
X044860Y029981D01*
X044860Y030140D02*
X045441Y030140D01*
X045506Y030298D02*
X044860Y030298D01*
X044860Y030457D02*
X045650Y030457D01*
X045579Y030615D02*
X044860Y030615D01*
X044860Y030774D02*
X045477Y030774D01*
X045430Y030932D02*
X044860Y030932D01*
X044860Y031091D02*
X045430Y031091D01*
X045486Y031249D02*
X044860Y031249D01*
X044860Y031408D02*
X045601Y031408D01*
X045628Y031566D02*
X044860Y031566D01*
X044860Y031725D02*
X045497Y031725D01*
X045431Y031883D02*
X044860Y031883D01*
X044860Y032042D02*
X045430Y032042D01*
X045466Y032200D02*
X044860Y032200D01*
X044860Y032676D02*
X045518Y032676D01*
X045452Y032834D02*
X044860Y032834D01*
X044860Y032993D02*
X045430Y032993D01*
X045446Y033151D02*
X044860Y033151D01*
X044860Y033310D02*
X045511Y033310D01*
X045662Y033468D02*
X044860Y033468D01*
X044860Y033627D02*
X045567Y033627D01*
X045472Y033785D02*
X044860Y033785D01*
X044860Y033944D02*
X045430Y033944D01*
X045430Y034102D02*
X044860Y034102D01*
X044860Y034261D02*
X045491Y034261D01*
X045613Y034419D02*
X044860Y034419D01*
X044860Y034578D02*
X045616Y034578D01*
X045492Y034736D02*
X044860Y034736D01*
X044860Y034895D02*
X045430Y034895D01*
X045430Y035053D02*
X044860Y035053D01*
X044860Y035212D02*
X045471Y035212D01*
X045564Y035370D02*
X044860Y035370D01*
X044860Y035529D02*
X045665Y035529D01*
X045513Y035687D02*
X044860Y035687D01*
X044860Y035846D02*
X045447Y035846D01*
X045430Y036004D02*
X044860Y036004D01*
X044860Y036163D02*
X045450Y036163D01*
X045516Y036321D02*
X044860Y036321D01*
X045233Y036480D02*
X045673Y036480D01*
X045444Y036638D02*
X049556Y036638D01*
X049467Y036797D02*
X045533Y036797D01*
X045570Y036955D02*
X049430Y036955D01*
X049430Y037114D02*
X045570Y037114D01*
X045504Y037272D02*
X049496Y037272D01*
X049624Y037431D02*
X045376Y037431D01*
X045395Y037589D02*
X049605Y037589D01*
X049488Y037748D02*
X045512Y037748D01*
X045570Y037906D02*
X049430Y037906D01*
X049430Y038065D02*
X045570Y038065D01*
X045525Y038223D02*
X049475Y038223D01*
X049575Y038382D02*
X045425Y038382D01*
X045346Y038540D02*
X049654Y038540D01*
X049508Y038699D02*
X045492Y038699D01*
X045558Y038857D02*
X049442Y038857D01*
X049430Y039016D02*
X045570Y039016D01*
X045545Y039174D02*
X049455Y039174D01*
X049526Y039333D02*
X045474Y039333D01*
X045304Y039491D02*
X049696Y039491D01*
X049544Y039650D02*
X044456Y039650D01*
X044537Y039808D02*
X049463Y039808D01*
X049430Y039967D02*
X044570Y039967D01*
X044565Y040125D02*
X049435Y040125D01*
X049500Y040284D02*
X044500Y040284D01*
X044364Y040442D02*
X044857Y040442D01*
X045143Y040442D02*
X049636Y040442D01*
X049593Y040601D02*
X045407Y040601D01*
X045517Y040759D02*
X049483Y040759D01*
X049430Y040918D02*
X045570Y040918D01*
X045570Y041076D02*
X049430Y041076D01*
X049480Y041235D02*
X045520Y041235D01*
X045413Y041393D02*
X049587Y041393D01*
X049842Y041552D02*
X045158Y041552D01*
X044842Y041552D02*
X044358Y041552D01*
X044413Y041393D02*
X044587Y041393D01*
X044497Y041710D02*
X049630Y041710D01*
X049549Y041869D02*
X044563Y041869D01*
X044570Y042027D02*
X049530Y042027D01*
X049567Y042186D02*
X044540Y042186D01*
X044462Y042344D02*
X049679Y042344D01*
X049985Y042344D02*
X050015Y042344D01*
X050015Y042470D02*
X050015Y042015D01*
X050470Y042015D01*
X050470Y042037D01*
X050458Y042110D01*
X050436Y042180D01*
X050402Y042246D01*
X050358Y042306D01*
X050306Y042358D01*
X050246Y042402D01*
X050180Y042436D01*
X050110Y042458D01*
X050037Y042470D01*
X050015Y042470D01*
X050015Y042186D02*
X049985Y042186D01*
X049985Y042027D02*
X050015Y042027D01*
X050321Y042344D02*
X051470Y042344D01*
X051470Y042186D02*
X050433Y042186D01*
X050470Y042027D02*
X051470Y042027D01*
X051470Y041869D02*
X050451Y041869D01*
X050370Y041710D02*
X051470Y041710D01*
X051470Y041552D02*
X050158Y041552D01*
X050413Y041393D02*
X051470Y041393D01*
X051470Y041235D02*
X050520Y041235D01*
X050570Y041076D02*
X051470Y041076D01*
X051470Y040918D02*
X050570Y040918D01*
X050517Y040759D02*
X051470Y040759D01*
X051470Y040601D02*
X050407Y040601D01*
X050364Y040442D02*
X051470Y040442D01*
X051470Y040284D02*
X050500Y040284D01*
X050565Y040125D02*
X051470Y040125D01*
X051470Y039967D02*
X050570Y039967D01*
X050537Y039808D02*
X051470Y039808D01*
X051470Y039650D02*
X050456Y039650D01*
X050304Y039491D02*
X051470Y039491D01*
X051470Y039333D02*
X050474Y039333D01*
X050545Y039174D02*
X051470Y039174D01*
X051470Y039016D02*
X050570Y039016D01*
X050558Y038857D02*
X051470Y038857D01*
X051470Y038699D02*
X050492Y038699D01*
X050346Y038540D02*
X051470Y038540D01*
X051470Y038382D02*
X050425Y038382D01*
X050525Y038223D02*
X051470Y038223D01*
X051470Y038065D02*
X050570Y038065D01*
X050570Y037906D02*
X051470Y037906D01*
X051470Y037748D02*
X050512Y037748D01*
X050395Y037589D02*
X051470Y037589D01*
X051470Y037431D02*
X050376Y037431D01*
X050504Y037272D02*
X051470Y037272D01*
X051470Y037114D02*
X050570Y037114D01*
X050570Y036955D02*
X051470Y036955D01*
X051470Y036797D02*
X050533Y036797D01*
X050444Y036638D02*
X051470Y036638D01*
X051470Y036480D02*
X050327Y036480D01*
X050484Y036321D02*
X051470Y036321D01*
X051470Y036163D02*
X050550Y036163D01*
X050570Y036004D02*
X051470Y036004D01*
X051470Y035846D02*
X050553Y035846D01*
X050487Y035687D02*
X051470Y035687D01*
X051470Y035529D02*
X050335Y035529D01*
X050436Y035370D02*
X051470Y035370D01*
X051470Y035212D02*
X050529Y035212D01*
X050570Y035053D02*
X051470Y035053D01*
X051470Y034895D02*
X050615Y034895D01*
X050773Y034736D02*
X051470Y034736D01*
X051470Y034578D02*
X050858Y034578D01*
X050860Y034419D02*
X051470Y034419D01*
X051470Y034261D02*
X050860Y034261D01*
X050860Y034102D02*
X051470Y034102D01*
X051470Y033944D02*
X050860Y033944D01*
X050860Y033785D02*
X051470Y033785D01*
X051470Y033627D02*
X050860Y033627D01*
X050860Y033468D02*
X051470Y033468D01*
X051470Y033310D02*
X050860Y033310D01*
X050860Y033151D02*
X051470Y033151D01*
X051470Y032993D02*
X050860Y032993D01*
X050860Y032834D02*
X051470Y032834D01*
X051470Y032676D02*
X050860Y032676D01*
X050860Y032517D02*
X051470Y032517D01*
X051470Y032359D02*
X050860Y032359D01*
X050860Y032200D02*
X051470Y032200D01*
X051470Y032042D02*
X050860Y032042D01*
X050860Y031883D02*
X051470Y031883D01*
X051470Y031725D02*
X050860Y031725D01*
X050860Y031566D02*
X051470Y031566D01*
X051470Y031408D02*
X050860Y031408D01*
X050860Y031249D02*
X051470Y031249D01*
X051470Y031091D02*
X050860Y031091D01*
X050860Y030932D02*
X051470Y030932D01*
X051470Y030774D02*
X050860Y030774D01*
X050860Y030615D02*
X051470Y030615D01*
X051470Y030457D02*
X050860Y030457D01*
X050860Y030298D02*
X051470Y030298D01*
X051470Y030140D02*
X050860Y030140D01*
X050860Y029981D02*
X051470Y029981D01*
X051470Y029823D02*
X050860Y029823D01*
X050860Y029664D02*
X051470Y029664D01*
X051470Y029506D02*
X050860Y029506D01*
X050860Y029347D02*
X051470Y029347D01*
X051470Y029189D02*
X050860Y029189D01*
X050860Y029030D02*
X051470Y029030D01*
X051470Y028872D02*
X050860Y028872D01*
X050860Y028713D02*
X051470Y028713D01*
X051470Y028555D02*
X050860Y028555D01*
X050860Y028396D02*
X051470Y028396D01*
X051470Y028238D02*
X050860Y028238D01*
X050860Y028079D02*
X051470Y028079D01*
X051470Y027921D02*
X050860Y027921D01*
X050860Y027762D02*
X051470Y027762D01*
X051470Y027604D02*
X050860Y027604D01*
X050860Y027445D02*
X051470Y027445D01*
X051470Y027287D02*
X050860Y027287D01*
X050860Y027128D02*
X051470Y027128D01*
X051470Y026970D02*
X050860Y026970D01*
X050860Y026811D02*
X051470Y026811D01*
X051470Y026653D02*
X050860Y026653D01*
X050860Y026494D02*
X051470Y026494D01*
X051470Y026336D02*
X050860Y026336D01*
X050860Y026177D02*
X051470Y026177D01*
X051470Y026019D02*
X050860Y026019D01*
X050860Y025860D02*
X051470Y025860D01*
X051470Y025702D02*
X050860Y025702D01*
X050860Y025543D02*
X051470Y025543D01*
X051470Y025385D02*
X050860Y025385D01*
X050860Y025226D02*
X051470Y025226D01*
X051470Y025068D02*
X050860Y025068D01*
X050860Y024909D02*
X051470Y024909D01*
X051470Y024751D02*
X050860Y024751D01*
X050860Y024592D02*
X051470Y024592D01*
X051470Y024434D02*
X050860Y024434D01*
X050860Y024275D02*
X051470Y024275D01*
X051470Y024117D02*
X050860Y024117D01*
X050860Y023958D02*
X051470Y023958D01*
X051470Y023800D02*
X050860Y023800D01*
X050860Y023641D02*
X051470Y023641D01*
X051470Y023483D02*
X050860Y023483D01*
X050860Y023324D02*
X051470Y023324D01*
X051470Y023166D02*
X050860Y023166D01*
X050860Y023007D02*
X051470Y023007D01*
X051470Y022849D02*
X050860Y022849D01*
X050860Y022690D02*
X051470Y022690D01*
X051470Y022532D02*
X050860Y022532D01*
X050860Y022373D02*
X051470Y022373D01*
X051470Y022215D02*
X050860Y022215D01*
X050860Y022056D02*
X051470Y022056D01*
X051470Y021898D02*
X050847Y021898D01*
X050748Y021739D02*
X051470Y021739D01*
X051470Y021581D02*
X050590Y021581D01*
X050431Y021422D02*
X051470Y021422D01*
X051470Y021264D02*
X050273Y021264D01*
X050000Y021500D02*
X044000Y021500D01*
X041050Y018550D01*
X037500Y018550D01*
X035500Y018550D01*
X025500Y018550D01*
X023500Y018550D01*
X013500Y018550D01*
X011500Y018550D01*
X011835Y018094D02*
X013165Y018094D01*
X013835Y018094D02*
X023165Y018094D01*
X023835Y018094D02*
X025165Y018094D01*
X025835Y018094D02*
X035165Y018094D01*
X035835Y018094D02*
X037165Y018094D01*
X037835Y018094D02*
X041000Y018094D01*
X041000Y017935D02*
X001005Y017935D01*
X001005Y017777D02*
X041000Y017777D01*
X041000Y017618D02*
X001005Y017618D01*
X001005Y017460D02*
X041000Y017460D01*
X041000Y017301D02*
X001005Y017301D01*
X001005Y017143D02*
X041000Y017143D01*
X041000Y016984D02*
X037858Y016984D01*
X037992Y016826D02*
X041000Y016826D01*
X041000Y016667D02*
X038058Y016667D01*
X038060Y016509D02*
X041000Y016509D01*
X041000Y016350D02*
X038023Y016350D01*
X037933Y016192D02*
X041000Y016192D01*
X041000Y016033D02*
X037797Y016033D01*
X037967Y015875D02*
X041000Y015875D01*
X041000Y015716D02*
X038037Y015716D01*
X038060Y015558D02*
X041000Y015558D01*
X041000Y015399D02*
X038044Y015399D01*
X037978Y015241D02*
X041000Y015241D01*
X041000Y015082D02*
X037824Y015082D01*
X037918Y014924D02*
X041076Y014924D01*
X041235Y014765D02*
X038017Y014765D01*
X038060Y014607D02*
X041393Y014607D01*
X041552Y014448D02*
X038060Y014448D01*
X037998Y014290D02*
X041710Y014290D01*
X041869Y014131D02*
X037873Y014131D01*
X037869Y013973D02*
X042027Y013973D01*
X042186Y013814D02*
X037997Y013814D01*
X038060Y013656D02*
X042344Y013656D01*
X042503Y013497D02*
X038060Y013497D01*
X037500Y013500D02*
X037000Y013500D01*
X036500Y013000D01*
X025000Y013000D01*
X025000Y013500D02*
X025450Y013500D01*
X025500Y013550D01*
X025550Y013500D01*
X035500Y013500D01*
X035500Y013550D01*
X035500Y014500D02*
X035500Y014550D01*
X035500Y014500D02*
X025500Y014500D01*
X025500Y014550D01*
X025500Y014500D02*
X025000Y014500D01*
X024500Y015000D01*
X013000Y015000D01*
X012500Y014500D01*
X011500Y014500D01*
X011500Y014550D01*
X011550Y015500D02*
X012500Y015500D01*
X013000Y016000D01*
X024500Y016000D01*
X025000Y015500D01*
X025450Y015500D01*
X025500Y015550D01*
X025550Y015500D01*
X035500Y015500D01*
X035500Y015550D01*
X036500Y015000D02*
X037000Y015500D01*
X037500Y015500D01*
X037500Y015550D01*
X037500Y014550D02*
X037500Y014500D01*
X037000Y014500D01*
X036500Y014000D01*
X025000Y014000D01*
X024500Y014500D01*
X023550Y014500D01*
X023500Y014550D01*
X023450Y014500D01*
X013500Y014500D01*
X013500Y014550D01*
X013500Y014500D02*
X013000Y014500D01*
X012500Y014000D01*
X013000Y014000D02*
X012500Y013500D01*
X011500Y013500D01*
X011500Y013550D01*
X013000Y014000D02*
X024500Y014000D01*
X025000Y013500D01*
X025000Y015000D02*
X024500Y015500D01*
X023550Y015500D01*
X023500Y015550D01*
X023450Y015500D01*
X013550Y015500D01*
X013500Y015550D01*
X011550Y015500D02*
X011500Y015550D01*
X012500Y019000D02*
X013000Y019500D01*
X013500Y019500D01*
X023450Y019500D01*
X023500Y019550D01*
X023550Y019500D01*
X024500Y019500D01*
X025000Y019000D01*
X036500Y019000D01*
X037000Y019500D01*
X037500Y019500D01*
X037500Y019550D01*
X037000Y020500D02*
X036500Y020000D01*
X025000Y020000D01*
X024500Y020500D01*
X023550Y020500D01*
X023500Y020550D01*
X023450Y020500D01*
X013500Y020500D01*
X013500Y020550D01*
X013500Y020500D02*
X013000Y020500D01*
X012500Y020000D01*
X013000Y020000D02*
X012500Y019500D01*
X011500Y019500D01*
X011500Y019550D01*
X011500Y020500D02*
X011500Y020550D01*
X011500Y020500D02*
X012500Y020500D01*
X013000Y021000D01*
X024500Y021000D01*
X025000Y020500D01*
X025450Y020500D01*
X025500Y020550D01*
X025550Y020500D01*
X035500Y020500D01*
X035500Y020550D01*
X035500Y021500D02*
X035500Y021550D01*
X035500Y021500D02*
X025550Y021500D01*
X025500Y021550D01*
X025450Y021500D01*
X025000Y021500D01*
X024500Y022000D01*
X013000Y022000D01*
X012500Y021500D01*
X011500Y021500D01*
X011500Y021550D01*
X011500Y022500D02*
X011500Y022550D01*
X011500Y022500D02*
X012500Y022500D01*
X013000Y023000D01*
X024500Y023000D01*
X025000Y022500D01*
X025450Y022500D01*
X025500Y022550D01*
X025550Y022500D01*
X035500Y022500D01*
X035500Y022550D01*
X035500Y023500D02*
X035500Y023550D01*
X035500Y023500D02*
X025550Y023500D01*
X025500Y023550D01*
X025450Y023500D01*
X025000Y023500D01*
X024500Y024000D01*
X013000Y024000D01*
X012500Y023500D01*
X011500Y023500D01*
X011500Y023550D01*
X011500Y024500D02*
X011500Y024550D01*
X011500Y024500D02*
X012500Y024500D01*
X013000Y025000D01*
X024500Y025000D01*
X025000Y024500D01*
X025450Y024500D01*
X025500Y024550D01*
X025550Y024500D01*
X035500Y024500D01*
X035500Y024550D01*
X035500Y025500D02*
X035500Y025550D01*
X035500Y025500D02*
X025550Y025500D01*
X025500Y025550D01*
X025450Y025500D01*
X025000Y025500D01*
X024500Y026000D01*
X013000Y026000D01*
X012500Y025500D01*
X011500Y025500D01*
X011500Y025550D01*
X011500Y026500D02*
X011500Y026550D01*
X011500Y026500D02*
X012500Y026500D01*
X013000Y027000D01*
X024500Y027000D01*
X025000Y026500D01*
X025450Y026500D01*
X025500Y026550D01*
X025550Y026500D01*
X035500Y026500D01*
X035500Y026550D01*
X035500Y027500D02*
X035500Y027550D01*
X035500Y027500D02*
X025550Y027500D01*
X025500Y027550D01*
X025500Y027500D01*
X025000Y027500D01*
X024500Y028000D01*
X013000Y028000D01*
X012500Y027500D01*
X011500Y027500D01*
X011500Y027550D01*
X012500Y027000D02*
X013000Y027500D01*
X013500Y027500D01*
X023450Y027500D01*
X023500Y027550D01*
X023550Y027500D01*
X024500Y027500D01*
X025000Y027000D01*
X036500Y027000D01*
X037000Y027500D01*
X037500Y027500D01*
X037500Y027550D01*
X037500Y026550D02*
X037500Y026500D01*
X037000Y026500D01*
X036500Y026000D01*
X025000Y026000D01*
X024500Y026500D01*
X023550Y026500D01*
X023500Y026550D01*
X023500Y026500D01*
X013500Y026500D01*
X013500Y026550D01*
X013500Y026500D02*
X013000Y026500D01*
X012500Y026000D01*
X013000Y025500D02*
X012500Y025000D01*
X013000Y024500D02*
X012500Y024000D01*
X013000Y023500D02*
X012500Y023000D01*
X013000Y022500D02*
X012500Y022000D01*
X013000Y021500D02*
X012500Y021000D01*
X013000Y021500D02*
X013500Y021500D01*
X023450Y021500D01*
X023500Y021550D01*
X023550Y021500D01*
X024500Y021500D01*
X025000Y021000D01*
X036500Y021000D01*
X037000Y021500D01*
X037500Y021500D01*
X037500Y021550D01*
X037000Y022500D02*
X036500Y022000D01*
X025000Y022000D01*
X024500Y022500D01*
X023550Y022500D01*
X023500Y022550D01*
X023500Y022500D01*
X013500Y022500D01*
X013500Y022550D01*
X013500Y022500D02*
X013000Y022500D01*
X013000Y023500D02*
X013500Y023500D01*
X023450Y023500D01*
X023500Y023550D01*
X023550Y023500D01*
X024500Y023500D01*
X025000Y023000D01*
X036500Y023000D01*
X037000Y023500D01*
X037500Y023500D01*
X037500Y023550D01*
X037000Y024500D02*
X036500Y024000D01*
X025000Y024000D01*
X024500Y024500D01*
X023550Y024500D01*
X023500Y024550D01*
X023450Y024500D01*
X013500Y024500D01*
X013500Y024550D01*
X013500Y024500D02*
X013000Y024500D01*
X013000Y025500D02*
X013500Y025500D01*
X023500Y025500D01*
X023500Y025550D01*
X023550Y025500D01*
X024500Y025500D01*
X025000Y025000D01*
X036500Y025000D01*
X037000Y025500D01*
X037500Y025500D01*
X037500Y025550D01*
X037500Y024550D02*
X037500Y024500D01*
X037000Y024500D01*
X037000Y022500D02*
X037500Y022500D01*
X037500Y022550D01*
X037500Y020550D02*
X037500Y020500D01*
X037000Y020500D01*
X035500Y019550D02*
X035500Y019500D01*
X025550Y019500D01*
X025500Y019550D01*
X025450Y019500D01*
X025000Y019500D01*
X024500Y020000D01*
X013000Y020000D01*
X013500Y019550D02*
X013500Y019500D01*
X013500Y021500D02*
X013500Y021550D01*
X013500Y023500D02*
X013500Y023550D01*
X013500Y025500D02*
X013500Y025550D01*
X013500Y027500D02*
X013500Y027550D01*
X013500Y033500D02*
X013500Y033550D01*
X012500Y040000D02*
X013000Y040500D01*
X013500Y040500D01*
X013500Y040550D01*
X013550Y040500D01*
X023500Y040500D01*
X023500Y040550D01*
X023550Y040500D01*
X024500Y040500D01*
X025500Y035550D02*
X025500Y035500D01*
X035500Y029550D02*
X035550Y029500D01*
X036500Y029500D01*
X037000Y030000D01*
X042000Y030000D01*
X043500Y028500D01*
X048500Y028500D01*
X048500Y029500D01*
X049000Y030000D01*
X050000Y030000D01*
X049554Y030360D02*
X048928Y030360D01*
X048796Y030305D01*
X048695Y030204D01*
X048195Y029704D01*
X048140Y029572D01*
X048140Y029559D01*
X048113Y029570D01*
X047887Y029570D01*
X047677Y029483D01*
X047517Y029323D01*
X047445Y029150D01*
X047436Y029180D01*
X047402Y029246D01*
X047358Y029306D01*
X047306Y029358D01*
X047246Y029402D01*
X047180Y029436D01*
X047150Y029445D01*
X047323Y029517D01*
X047483Y029677D01*
X047570Y029887D01*
X047570Y030113D01*
X047483Y030323D01*
X047323Y030483D01*
X047282Y030500D01*
X047323Y030517D01*
X047483Y030677D01*
X047570Y030887D01*
X047570Y031113D01*
X047483Y031323D01*
X047323Y031483D01*
X047282Y031500D01*
X047323Y031517D01*
X047483Y031677D01*
X047570Y031887D01*
X047570Y032113D01*
X047483Y032323D01*
X047323Y032483D01*
X047282Y032500D01*
X047323Y032517D01*
X047448Y032359D02*
X049552Y032359D01*
X049517Y032323D02*
X049430Y032113D01*
X049430Y031887D01*
X049517Y031677D01*
X049677Y031517D01*
X049718Y031500D01*
X049677Y031483D01*
X049517Y031323D01*
X049430Y031113D01*
X049430Y030887D01*
X049517Y030677D01*
X049677Y030517D01*
X049718Y030500D01*
X049677Y030483D01*
X049554Y030360D01*
X049650Y030457D02*
X047350Y030457D01*
X047421Y030615D02*
X049579Y030615D01*
X049477Y030774D02*
X047523Y030774D01*
X047570Y030932D02*
X049430Y030932D01*
X049430Y031091D02*
X047570Y031091D01*
X047514Y031249D02*
X049486Y031249D01*
X049601Y031408D02*
X047399Y031408D01*
X047372Y031566D02*
X049628Y031566D01*
X049497Y031725D02*
X047503Y031725D01*
X047569Y031883D02*
X049431Y031883D01*
X049430Y032042D02*
X047570Y032042D01*
X047534Y032200D02*
X049466Y032200D01*
X049517Y032323D02*
X049677Y032483D01*
X049718Y032500D01*
X049677Y032517D01*
X049518Y032676D02*
X047482Y032676D01*
X047548Y032834D02*
X049452Y032834D01*
X049430Y032993D02*
X047570Y032993D01*
X047554Y033151D02*
X049446Y033151D01*
X049511Y033310D02*
X047489Y033310D01*
X047338Y033468D02*
X049662Y033468D01*
X049567Y033627D02*
X047433Y033627D01*
X047528Y033785D02*
X049472Y033785D01*
X049430Y033944D02*
X047570Y033944D01*
X047570Y034102D02*
X049430Y034102D01*
X049491Y034261D02*
X047509Y034261D01*
X047387Y034419D02*
X049613Y034419D01*
X049616Y034578D02*
X047206Y034578D01*
X047389Y034736D02*
X049492Y034736D01*
X049430Y034895D02*
X047459Y034895D01*
X047467Y035053D02*
X049430Y035053D01*
X049471Y035212D02*
X047420Y035212D01*
X047290Y035370D02*
X049564Y035370D01*
X049665Y035529D02*
X047335Y035529D01*
X047487Y035687D02*
X049513Y035687D01*
X049447Y035846D02*
X047553Y035846D01*
X047570Y036004D02*
X049430Y036004D01*
X049450Y036163D02*
X047550Y036163D01*
X047484Y036321D02*
X049516Y036321D01*
X049673Y036480D02*
X047327Y036480D01*
X046673Y036480D02*
X046327Y036480D01*
X046484Y036321D02*
X046516Y036321D01*
X044000Y036000D02*
X043000Y036000D01*
X041000Y038000D01*
X041000Y037000D02*
X042500Y035500D01*
X042500Y034500D01*
X044000Y033000D01*
X044000Y032000D02*
X042000Y034000D01*
X042000Y035000D01*
X041000Y036000D01*
X041000Y035000D02*
X041500Y034500D01*
X041500Y033500D01*
X044000Y031000D01*
X044000Y030000D02*
X041000Y033000D01*
X041000Y034000D01*
X043000Y037000D02*
X044000Y037000D01*
X043000Y037000D02*
X041000Y039000D01*
X042226Y040284D02*
X043500Y040284D01*
X043435Y040125D02*
X042384Y040125D01*
X042543Y039967D02*
X043430Y039967D01*
X043463Y039808D02*
X042701Y039808D01*
X042860Y039650D02*
X043544Y039650D01*
X043696Y039491D02*
X043018Y039491D01*
X043177Y039333D02*
X043526Y039333D01*
X043455Y039174D02*
X043335Y039174D01*
X043500Y038500D02*
X041000Y041000D01*
X041531Y041235D02*
X043480Y041235D01*
X043430Y041076D02*
X041580Y041076D01*
X041592Y040918D02*
X043430Y040918D01*
X043483Y040759D02*
X041750Y040759D01*
X041909Y040601D02*
X043593Y040601D01*
X043636Y040442D02*
X042067Y040442D01*
X041500Y041393D02*
X043587Y041393D01*
X043642Y041552D02*
X041500Y041552D01*
X041500Y041710D02*
X043503Y041710D01*
X043437Y041869D02*
X041500Y041869D01*
X041500Y042027D02*
X043430Y042027D01*
X043460Y042186D02*
X041500Y042186D01*
X041500Y042344D02*
X043538Y042344D01*
X043724Y042503D02*
X041500Y042503D01*
X041500Y042661D02*
X051470Y042661D01*
X051470Y042503D02*
X044276Y042503D01*
X044407Y040601D02*
X044593Y040601D01*
X044696Y039491D02*
X044304Y039491D01*
X044474Y039333D02*
X044526Y039333D01*
X041500Y042820D02*
X051470Y042820D01*
X051470Y042978D02*
X041500Y042978D01*
X041500Y043137D02*
X051470Y043137D01*
X051470Y043295D02*
X041500Y043295D01*
X041500Y043454D02*
X051470Y043454D01*
X051470Y043612D02*
X041500Y043612D01*
X041500Y043771D02*
X051470Y043771D01*
X051470Y043929D02*
X041500Y043929D01*
X041500Y044088D02*
X051470Y044088D01*
X051470Y044246D02*
X041500Y044246D01*
X041500Y044405D02*
X051470Y044405D01*
X051470Y044563D02*
X041500Y044563D01*
X041500Y044722D02*
X051470Y044722D01*
X051470Y044880D02*
X041500Y044880D01*
X041500Y045039D02*
X051470Y045039D01*
X051453Y045197D02*
X041500Y045197D01*
X041500Y045356D02*
X051295Y045356D01*
X051136Y045514D02*
X041500Y045514D01*
X041500Y045673D02*
X050978Y045673D01*
X050819Y045831D02*
X041500Y045831D01*
X041500Y045990D02*
X050661Y045990D01*
X050502Y046148D02*
X041500Y046148D01*
X041500Y046307D02*
X050344Y046307D01*
X050185Y046465D02*
X041500Y046465D01*
X041500Y046624D02*
X050027Y046624D01*
X049868Y046782D02*
X041500Y046782D01*
X041500Y046941D02*
X049710Y046941D01*
X050416Y047733D02*
X052995Y047733D01*
X052995Y047575D02*
X050575Y047575D01*
X050733Y047416D02*
X052995Y047416D01*
X052995Y047258D02*
X050892Y047258D01*
X051050Y047099D02*
X052995Y047099D01*
X052995Y046941D02*
X051209Y046941D01*
X051367Y046782D02*
X052995Y046782D01*
X052995Y046624D02*
X051526Y046624D01*
X051684Y046465D02*
X052995Y046465D01*
X052995Y046307D02*
X051843Y046307D01*
X052001Y046148D02*
X052995Y046148D01*
X052995Y045990D02*
X052160Y045990D01*
X052318Y045831D02*
X052995Y045831D01*
X052995Y045673D02*
X052461Y045673D01*
X052526Y045514D02*
X052995Y045514D01*
X052995Y045356D02*
X052530Y045356D01*
X052530Y045197D02*
X052995Y045197D01*
X052995Y045039D02*
X052530Y045039D01*
X052530Y044880D02*
X052995Y044880D01*
X052995Y044722D02*
X052530Y044722D01*
X052530Y044563D02*
X052995Y044563D01*
X052995Y044405D02*
X052530Y044405D01*
X052530Y044246D02*
X052995Y044246D01*
X052995Y044088D02*
X052530Y044088D01*
X052530Y043929D02*
X052995Y043929D01*
X052995Y043771D02*
X052530Y043771D01*
X052530Y043612D02*
X052995Y043612D01*
X052995Y043454D02*
X052530Y043454D01*
X052530Y043295D02*
X052995Y043295D01*
X052995Y043137D02*
X052530Y043137D01*
X052530Y042978D02*
X052995Y042978D01*
X052995Y042820D02*
X052530Y042820D01*
X052530Y042661D02*
X052995Y042661D01*
X052995Y042503D02*
X052530Y042503D01*
X052530Y042344D02*
X052995Y042344D01*
X052995Y042186D02*
X052530Y042186D01*
X052530Y042027D02*
X052995Y042027D01*
X052995Y041869D02*
X052530Y041869D01*
X052530Y041710D02*
X052995Y041710D01*
X052995Y041552D02*
X052530Y041552D01*
X052530Y041393D02*
X052995Y041393D01*
X052995Y041235D02*
X052530Y041235D01*
X052530Y041076D02*
X052995Y041076D01*
X052995Y040918D02*
X052530Y040918D01*
X052530Y040759D02*
X052995Y040759D01*
X052995Y040601D02*
X052530Y040601D01*
X052530Y040442D02*
X052995Y040442D01*
X052995Y040284D02*
X052530Y040284D01*
X052530Y040125D02*
X052995Y040125D01*
X052995Y039967D02*
X052530Y039967D01*
X052530Y039808D02*
X052995Y039808D01*
X052995Y039650D02*
X052530Y039650D01*
X052530Y039491D02*
X052995Y039491D01*
X052995Y039333D02*
X052530Y039333D01*
X052530Y039174D02*
X052995Y039174D01*
X052995Y039016D02*
X052530Y039016D01*
X052530Y038857D02*
X052995Y038857D01*
X052995Y038699D02*
X052530Y038699D01*
X052530Y038540D02*
X052995Y038540D01*
X052995Y038382D02*
X052530Y038382D01*
X052530Y038223D02*
X052995Y038223D01*
X052995Y038065D02*
X052530Y038065D01*
X052530Y037906D02*
X052995Y037906D01*
X052995Y037748D02*
X052530Y037748D01*
X052530Y037589D02*
X052995Y037589D01*
X052995Y037431D02*
X052530Y037431D01*
X052530Y037272D02*
X052995Y037272D01*
X052995Y037114D02*
X052530Y037114D01*
X052530Y036955D02*
X052995Y036955D01*
X052995Y036797D02*
X052530Y036797D01*
X052530Y036638D02*
X052995Y036638D01*
X052995Y036480D02*
X052530Y036480D01*
X052530Y036321D02*
X052995Y036321D01*
X052995Y036163D02*
X052530Y036163D01*
X052530Y036004D02*
X052995Y036004D01*
X052995Y035846D02*
X052530Y035846D01*
X052530Y035687D02*
X052995Y035687D01*
X052995Y035529D02*
X052530Y035529D01*
X052530Y035370D02*
X052995Y035370D01*
X052995Y035212D02*
X052530Y035212D01*
X052530Y035053D02*
X052995Y035053D01*
X052995Y034895D02*
X052530Y034895D01*
X052530Y034736D02*
X052995Y034736D01*
X052995Y034578D02*
X052530Y034578D01*
X052530Y034419D02*
X052995Y034419D01*
X052995Y034261D02*
X052530Y034261D01*
X052530Y034102D02*
X052995Y034102D01*
X052995Y033944D02*
X052530Y033944D01*
X052530Y033785D02*
X052995Y033785D01*
X052995Y033627D02*
X052530Y033627D01*
X052530Y033468D02*
X052995Y033468D01*
X052995Y033310D02*
X052530Y033310D01*
X052530Y033151D02*
X052995Y033151D01*
X052995Y032993D02*
X052530Y032993D01*
X052530Y032834D02*
X052995Y032834D01*
X052995Y032676D02*
X052530Y032676D01*
X052530Y032517D02*
X052995Y032517D01*
X052995Y032359D02*
X052530Y032359D01*
X052530Y032200D02*
X052995Y032200D01*
X052995Y032042D02*
X052530Y032042D01*
X052530Y031883D02*
X052995Y031883D01*
X052995Y031725D02*
X052530Y031725D01*
X052530Y031566D02*
X052995Y031566D01*
X052995Y031408D02*
X052530Y031408D01*
X052530Y031249D02*
X052995Y031249D01*
X052995Y031091D02*
X052530Y031091D01*
X052530Y030932D02*
X052995Y030932D01*
X052995Y030774D02*
X052530Y030774D01*
X052530Y030615D02*
X052995Y030615D01*
X052995Y030457D02*
X052530Y030457D01*
X052530Y030298D02*
X052995Y030298D01*
X052995Y030140D02*
X052530Y030140D01*
X052530Y029981D02*
X052995Y029981D01*
X052995Y029823D02*
X052530Y029823D01*
X052530Y029664D02*
X052995Y029664D01*
X052995Y029506D02*
X052530Y029506D01*
X052530Y029347D02*
X052995Y029347D01*
X052995Y029189D02*
X052530Y029189D01*
X052530Y029030D02*
X052995Y029030D01*
X052995Y028872D02*
X052530Y028872D01*
X052530Y028713D02*
X052995Y028713D01*
X052995Y028555D02*
X052530Y028555D01*
X052530Y028396D02*
X052995Y028396D01*
X052995Y028238D02*
X052530Y028238D01*
X052530Y028079D02*
X052995Y028079D01*
X052995Y027921D02*
X052530Y027921D01*
X052530Y027762D02*
X052995Y027762D01*
X052995Y027604D02*
X052530Y027604D01*
X052530Y027445D02*
X052995Y027445D01*
X052995Y027287D02*
X052530Y027287D01*
X052530Y027128D02*
X052995Y027128D01*
X052995Y026970D02*
X052530Y026970D01*
X052530Y026811D02*
X052995Y026811D01*
X052995Y026653D02*
X052530Y026653D01*
X052530Y026494D02*
X052995Y026494D01*
X052995Y026336D02*
X052530Y026336D01*
X052530Y026177D02*
X052995Y026177D01*
X052995Y026019D02*
X052530Y026019D01*
X052530Y025860D02*
X052995Y025860D01*
X052995Y025702D02*
X052530Y025702D01*
X052530Y025543D02*
X052995Y025543D01*
X052995Y025385D02*
X052530Y025385D01*
X052530Y025226D02*
X052995Y025226D01*
X052995Y025068D02*
X052530Y025068D01*
X052530Y024909D02*
X052995Y024909D01*
X052995Y024751D02*
X052530Y024751D01*
X052530Y024592D02*
X052995Y024592D01*
X052995Y024434D02*
X052530Y024434D01*
X052530Y024275D02*
X052995Y024275D01*
X052995Y024117D02*
X052530Y024117D01*
X052530Y023958D02*
X052995Y023958D01*
X052995Y023800D02*
X052530Y023800D01*
X052530Y023641D02*
X052995Y023641D01*
X052995Y023483D02*
X052530Y023483D01*
X052530Y023324D02*
X052995Y023324D01*
X052995Y023166D02*
X052530Y023166D01*
X052530Y023007D02*
X052995Y023007D01*
X052995Y022849D02*
X052530Y022849D01*
X052530Y022690D02*
X052995Y022690D01*
X052995Y022532D02*
X052530Y022532D01*
X052530Y022373D02*
X052995Y022373D01*
X052995Y022215D02*
X052530Y022215D01*
X052530Y022056D02*
X052995Y022056D01*
X052995Y021898D02*
X052530Y021898D01*
X052530Y021739D02*
X052995Y021739D01*
X052995Y021581D02*
X052530Y021581D01*
X052530Y021422D02*
X052995Y021422D01*
X052995Y021264D02*
X052530Y021264D01*
X052530Y021105D02*
X052995Y021105D01*
X052995Y020947D02*
X052530Y020947D01*
X052530Y020788D02*
X052995Y020788D01*
X052995Y020630D02*
X052530Y020630D01*
X052530Y020471D02*
X052995Y020471D01*
X052995Y020313D02*
X052530Y020313D01*
X052530Y020154D02*
X052995Y020154D01*
X052995Y019996D02*
X052530Y019996D01*
X052530Y019837D02*
X052995Y019837D01*
X052995Y019679D02*
X052530Y019679D01*
X052530Y019520D02*
X052995Y019520D01*
X052995Y019362D02*
X052530Y019362D01*
X052530Y019203D02*
X052995Y019203D01*
X052995Y019045D02*
X052530Y019045D01*
X052530Y018886D02*
X052995Y018886D01*
X052995Y018728D02*
X052530Y018728D01*
X052530Y018569D02*
X052995Y018569D01*
X052995Y018411D02*
X052530Y018411D01*
X052530Y018252D02*
X052995Y018252D01*
X052995Y018094D02*
X052530Y018094D01*
X052530Y017935D02*
X052995Y017935D01*
X052995Y017777D02*
X052530Y017777D01*
X052530Y017618D02*
X052995Y017618D01*
X052995Y017460D02*
X052530Y017460D01*
X052530Y017301D02*
X052995Y017301D01*
X052995Y017143D02*
X052530Y017143D01*
X052530Y016984D02*
X052995Y016984D01*
X052995Y016826D02*
X052530Y016826D01*
X052530Y016667D02*
X052995Y016667D01*
X052995Y016509D02*
X052530Y016509D01*
X052530Y016350D02*
X052995Y016350D01*
X052995Y016192D02*
X052530Y016192D01*
X052530Y016033D02*
X052995Y016033D01*
X052995Y015875D02*
X052530Y015875D01*
X052530Y015716D02*
X052995Y015716D01*
X052995Y015558D02*
X052530Y015558D01*
X052530Y015399D02*
X052995Y015399D01*
X052995Y015241D02*
X052530Y015241D01*
X052530Y015082D02*
X052995Y015082D01*
X052995Y014924D02*
X052530Y014924D01*
X052530Y014765D02*
X052995Y014765D01*
X052995Y014607D02*
X052530Y014607D01*
X052530Y014448D02*
X052995Y014448D01*
X052995Y014290D02*
X052530Y014290D01*
X052504Y014131D02*
X052995Y014131D01*
X052995Y013973D02*
X052498Y013973D01*
X052462Y013814D02*
X052995Y013814D01*
X052995Y013656D02*
X052360Y013656D01*
X052995Y013497D02*
X049500Y013497D01*
X049500Y013339D02*
X052995Y013339D01*
X052995Y013180D02*
X049500Y013180D01*
X049500Y013022D02*
X052995Y013022D01*
X052995Y012863D02*
X049500Y012863D01*
X049500Y012705D02*
X052995Y012705D01*
X052995Y012546D02*
X049500Y012546D01*
X049500Y012388D02*
X052995Y012388D01*
X052995Y012229D02*
X049500Y012229D01*
X049500Y012071D02*
X052995Y012071D01*
X052995Y011912D02*
X049500Y011912D01*
X049500Y011754D02*
X052995Y011754D01*
X052995Y011595D02*
X049500Y011595D01*
X051640Y013656D02*
X043344Y013656D01*
X043186Y013814D02*
X051538Y013814D01*
X051502Y013973D02*
X043027Y013973D01*
X042869Y014131D02*
X051496Y014131D01*
X051470Y014290D02*
X042710Y014290D01*
X042552Y014448D02*
X051470Y014448D01*
X051470Y014607D02*
X042393Y014607D01*
X042235Y014765D02*
X051470Y014765D01*
X051470Y014924D02*
X042076Y014924D01*
X041918Y015082D02*
X051470Y015082D01*
X051470Y015241D02*
X041759Y015241D01*
X041601Y015399D02*
X051470Y015399D01*
X051470Y015558D02*
X041500Y015558D01*
X041500Y015716D02*
X051470Y015716D01*
X051470Y015875D02*
X041500Y015875D01*
X041500Y016033D02*
X051470Y016033D01*
X051470Y016192D02*
X041500Y016192D01*
X041500Y016350D02*
X051470Y016350D01*
X051470Y016509D02*
X041500Y016509D01*
X041500Y016667D02*
X051470Y016667D01*
X051470Y016826D02*
X041500Y016826D01*
X041500Y016984D02*
X044730Y016984D01*
X044671Y017008D02*
X044885Y016920D01*
X045115Y016920D01*
X045329Y017008D01*
X045492Y017171D01*
X045500Y017191D01*
X045508Y017171D01*
X045671Y017008D01*
X045885Y016920D01*
X046115Y016920D01*
X046329Y017008D01*
X046492Y017171D01*
X046500Y017191D01*
X046508Y017171D01*
X046671Y017008D01*
X046885Y016920D01*
X047115Y016920D01*
X047329Y017008D01*
X047492Y017171D01*
X047500Y017191D01*
X047508Y017171D01*
X047671Y017008D01*
X047885Y016920D01*
X048115Y016920D01*
X048329Y017008D01*
X048492Y017171D01*
X048500Y017191D01*
X048508Y017171D01*
X048671Y017008D01*
X048885Y016920D01*
X049115Y016920D01*
X049329Y017008D01*
X049492Y017171D01*
X049580Y017385D01*
X049580Y017615D01*
X049492Y017829D01*
X049329Y017992D01*
X049115Y018080D01*
X048885Y018080D01*
X048671Y017992D01*
X048508Y017829D01*
X048500Y017809D01*
X048492Y017829D01*
X048329Y017992D01*
X048115Y018080D01*
X047885Y018080D01*
X047671Y017992D01*
X047508Y017829D01*
X047500Y017809D01*
X047492Y017829D01*
X047329Y017992D01*
X047115Y018080D01*
X046885Y018080D01*
X046671Y017992D01*
X046508Y017829D01*
X046500Y017809D01*
X046492Y017829D01*
X046329Y017992D01*
X046115Y018080D01*
X045885Y018080D01*
X045671Y017992D01*
X045508Y017829D01*
X045500Y017809D01*
X045492Y017829D01*
X045329Y017992D01*
X045115Y018080D01*
X044885Y018080D01*
X044671Y017992D01*
X044508Y017829D01*
X044446Y017679D01*
X044445Y017684D01*
X044411Y017752D01*
X044366Y017813D01*
X044313Y017866D01*
X044252Y017911D01*
X044184Y017945D01*
X044112Y017968D01*
X044038Y017980D01*
X044020Y017980D01*
X044020Y017520D01*
X043980Y017520D01*
X043980Y017980D01*
X043962Y017980D01*
X043888Y017968D01*
X043816Y017945D01*
X043748Y017911D01*
X043687Y017866D01*
X043634Y017813D01*
X043589Y017752D01*
X043555Y017684D01*
X043532Y017612D01*
X043520Y017538D01*
X043520Y017520D01*
X043980Y017520D01*
X043980Y017480D01*
X043520Y017480D01*
X043520Y017462D01*
X043532Y017388D01*
X043555Y017316D01*
X043589Y017248D01*
X043634Y017187D01*
X043687Y017134D01*
X043748Y017089D01*
X043816Y017055D01*
X043888Y017032D01*
X043962Y017020D01*
X043980Y017020D01*
X043980Y017480D01*
X044020Y017480D01*
X044020Y017020D01*
X044038Y017020D01*
X044112Y017032D01*
X044184Y017055D01*
X044252Y017089D01*
X044313Y017134D01*
X044366Y017187D01*
X044411Y017248D01*
X044445Y017316D01*
X044446Y017321D01*
X044508Y017171D01*
X044671Y017008D01*
X044537Y017143D02*
X044321Y017143D01*
X044437Y017301D02*
X044455Y017301D01*
X044020Y017301D02*
X043980Y017301D01*
X043980Y017143D02*
X044020Y017143D01*
X044020Y017460D02*
X043980Y017460D01*
X043980Y017618D02*
X044020Y017618D01*
X044020Y017777D02*
X043980Y017777D01*
X043980Y017935D02*
X044020Y017935D01*
X044204Y017935D02*
X044615Y017935D01*
X044487Y017777D02*
X044392Y017777D01*
X043796Y017935D02*
X041500Y017935D01*
X041500Y017777D02*
X043608Y017777D01*
X043534Y017618D02*
X041500Y017618D01*
X041500Y017460D02*
X043520Y017460D01*
X043563Y017301D02*
X041500Y017301D01*
X041500Y017143D02*
X043679Y017143D01*
X045270Y016984D02*
X045730Y016984D01*
X045537Y017143D02*
X045463Y017143D01*
X045385Y017935D02*
X045615Y017935D01*
X046385Y017935D02*
X046615Y017935D01*
X046537Y017143D02*
X046463Y017143D01*
X046270Y016984D02*
X046730Y016984D01*
X047270Y016984D02*
X047730Y016984D01*
X047537Y017143D02*
X047463Y017143D01*
X047385Y017935D02*
X047615Y017935D01*
X048385Y017935D02*
X048615Y017935D01*
X048537Y017143D02*
X048463Y017143D01*
X048270Y016984D02*
X048730Y016984D01*
X049270Y016984D02*
X051470Y016984D01*
X051470Y017143D02*
X049463Y017143D01*
X049545Y017301D02*
X051470Y017301D01*
X051470Y017460D02*
X049580Y017460D01*
X049579Y017618D02*
X051470Y017618D01*
X051470Y017777D02*
X049513Y017777D01*
X049385Y017935D02*
X051470Y017935D01*
X051470Y018094D02*
X041500Y018094D01*
X041500Y018252D02*
X051470Y018252D01*
X051470Y018411D02*
X041500Y018411D01*
X041578Y018569D02*
X051470Y018569D01*
X051470Y018728D02*
X041737Y018728D01*
X041895Y018886D02*
X051470Y018886D01*
X051470Y019045D02*
X042054Y019045D01*
X042212Y019203D02*
X051470Y019203D01*
X051470Y019362D02*
X042371Y019362D01*
X042529Y019520D02*
X051470Y019520D01*
X051470Y019679D02*
X042688Y019679D01*
X042846Y019837D02*
X051470Y019837D01*
X051470Y019996D02*
X043005Y019996D01*
X043163Y020154D02*
X051470Y020154D01*
X051470Y020313D02*
X043322Y020313D01*
X043480Y020471D02*
X051470Y020471D01*
X051470Y020630D02*
X043639Y020630D01*
X043797Y020788D02*
X051470Y020788D01*
X051470Y020947D02*
X043956Y020947D01*
X044114Y021105D02*
X051470Y021105D01*
X050500Y022000D02*
X050000Y021500D01*
X049851Y021860D02*
X043928Y021860D01*
X043796Y021805D01*
X043695Y021704D01*
X041500Y019509D01*
X041500Y028991D01*
X042695Y027796D01*
X042796Y027695D01*
X042928Y027640D01*
X050072Y027640D01*
X050140Y027668D01*
X050140Y022149D01*
X049851Y021860D01*
X049888Y021898D02*
X041500Y021898D01*
X041500Y022056D02*
X050047Y022056D01*
X050140Y022215D02*
X041500Y022215D01*
X041500Y022373D02*
X050140Y022373D01*
X050140Y022532D02*
X041500Y022532D01*
X041500Y022690D02*
X050140Y022690D01*
X050140Y022849D02*
X041500Y022849D01*
X041500Y023007D02*
X050140Y023007D01*
X050140Y023166D02*
X041500Y023166D01*
X041500Y023324D02*
X050140Y023324D01*
X050140Y023483D02*
X041500Y023483D01*
X041500Y023641D02*
X050140Y023641D01*
X050140Y023800D02*
X041500Y023800D01*
X041500Y023958D02*
X050140Y023958D01*
X050140Y024117D02*
X041500Y024117D01*
X041500Y024275D02*
X050140Y024275D01*
X050140Y024434D02*
X041500Y024434D01*
X041500Y024592D02*
X050140Y024592D01*
X050140Y024751D02*
X041500Y024751D01*
X041500Y024909D02*
X050140Y024909D01*
X050140Y025068D02*
X049388Y025068D01*
X049329Y025008D02*
X049492Y025171D01*
X049580Y025385D01*
X049580Y025615D01*
X049492Y025829D01*
X049329Y025992D01*
X049115Y026080D01*
X048885Y026080D01*
X048671Y025992D01*
X048508Y025829D01*
X048500Y025809D01*
X048492Y025829D01*
X048329Y025992D01*
X048115Y026080D01*
X047885Y026080D01*
X047671Y025992D01*
X047508Y025829D01*
X047500Y025809D01*
X047492Y025829D01*
X047329Y025992D01*
X047115Y026080D01*
X046885Y026080D01*
X046671Y025992D01*
X046508Y025829D01*
X046500Y025809D01*
X046492Y025829D01*
X046329Y025992D01*
X046115Y026080D01*
X045885Y026080D01*
X045671Y025992D01*
X045508Y025829D01*
X045446Y025679D01*
X045445Y025684D01*
X045411Y025752D01*
X045366Y025813D01*
X045313Y025866D01*
X045252Y025911D01*
X045184Y025945D01*
X045112Y025968D01*
X045038Y025980D01*
X045020Y025980D01*
X045020Y025520D01*
X044980Y025520D01*
X044980Y025980D01*
X044962Y025980D01*
X044888Y025968D01*
X044816Y025945D01*
X044748Y025911D01*
X044687Y025866D01*
X044634Y025813D01*
X044589Y025752D01*
X044555Y025684D01*
X044532Y025612D01*
X044520Y025538D01*
X044520Y025520D01*
X044980Y025520D01*
X044980Y025480D01*
X044520Y025480D01*
X044520Y025462D01*
X044532Y025388D01*
X044555Y025316D01*
X044589Y025248D01*
X044634Y025187D01*
X044687Y025134D01*
X044748Y025089D01*
X044816Y025055D01*
X044888Y025032D01*
X044962Y025020D01*
X044980Y025020D01*
X044980Y025480D01*
X045020Y025480D01*
X045020Y025020D01*
X045038Y025020D01*
X045112Y025032D01*
X045184Y025055D01*
X045252Y025089D01*
X045313Y025134D01*
X045366Y025187D01*
X045411Y025248D01*
X045445Y025316D01*
X045446Y025321D01*
X045508Y025171D01*
X045671Y025008D01*
X045885Y024920D01*
X046115Y024920D01*
X046329Y025008D01*
X046492Y025171D01*
X046500Y025191D01*
X046508Y025171D01*
X046671Y025008D01*
X046885Y024920D01*
X047115Y024920D01*
X047329Y025008D01*
X047492Y025171D01*
X047500Y025191D01*
X047508Y025171D01*
X047671Y025008D01*
X047885Y024920D01*
X048115Y024920D01*
X048329Y025008D01*
X048492Y025171D01*
X048500Y025191D01*
X048508Y025171D01*
X048671Y025008D01*
X048885Y024920D01*
X049115Y024920D01*
X049329Y025008D01*
X049514Y025226D02*
X050140Y025226D01*
X050140Y025385D02*
X049580Y025385D01*
X049580Y025543D02*
X050140Y025543D01*
X050140Y025702D02*
X049544Y025702D01*
X049460Y025860D02*
X050140Y025860D01*
X050140Y026019D02*
X049264Y026019D01*
X048736Y026019D02*
X048264Y026019D01*
X048460Y025860D02*
X048540Y025860D01*
X048612Y025068D02*
X048388Y025068D01*
X047612Y025068D02*
X047388Y025068D01*
X047460Y025860D02*
X047540Y025860D01*
X047736Y026019D02*
X047264Y026019D01*
X046736Y026019D02*
X046264Y026019D01*
X046460Y025860D02*
X046540Y025860D01*
X046612Y025068D02*
X046388Y025068D01*
X045612Y025068D02*
X045209Y025068D01*
X045020Y025068D02*
X044980Y025068D01*
X044980Y025226D02*
X045020Y025226D01*
X045020Y025385D02*
X044980Y025385D01*
X044980Y025543D02*
X045020Y025543D01*
X045020Y025702D02*
X044980Y025702D01*
X044980Y025860D02*
X045020Y025860D01*
X045319Y025860D02*
X045540Y025860D01*
X045456Y025702D02*
X045436Y025702D01*
X045736Y026019D02*
X041500Y026019D01*
X041500Y026177D02*
X050140Y026177D01*
X050140Y026336D02*
X041500Y026336D01*
X041500Y026494D02*
X050140Y026494D01*
X050140Y026653D02*
X041500Y026653D01*
X041500Y026811D02*
X050140Y026811D01*
X050140Y026970D02*
X041500Y026970D01*
X041500Y027128D02*
X050140Y027128D01*
X050140Y027287D02*
X041500Y027287D01*
X041500Y027445D02*
X050140Y027445D01*
X050140Y027604D02*
X041500Y027604D01*
X041500Y027762D02*
X042729Y027762D01*
X042570Y027921D02*
X041500Y027921D01*
X041500Y028079D02*
X042412Y028079D01*
X042253Y028238D02*
X041500Y028238D01*
X041500Y028396D02*
X042095Y028396D01*
X041936Y028555D02*
X041500Y028555D01*
X041500Y028713D02*
X041778Y028713D01*
X041619Y028872D02*
X041500Y028872D01*
X041500Y029500D02*
X043000Y028000D01*
X050000Y028000D01*
X050000Y029000D01*
X048789Y030298D02*
X047494Y030298D01*
X047559Y030140D02*
X048630Y030140D01*
X048472Y029981D02*
X047570Y029981D01*
X047543Y029823D02*
X048313Y029823D01*
X048178Y029664D02*
X047470Y029664D01*
X047296Y029506D02*
X047731Y029506D01*
X047541Y029347D02*
X047318Y029347D01*
X047431Y029189D02*
X047461Y029189D01*
X045517Y032323D02*
X045677Y032483D01*
X045718Y032500D01*
X045677Y032517D01*
X050000Y035000D02*
X050500Y034500D01*
X050500Y022000D01*
X045486Y025226D02*
X045394Y025226D01*
X044791Y025068D02*
X044209Y025068D01*
X044184Y025055D02*
X044252Y025089D01*
X044313Y025134D01*
X044366Y025187D01*
X044411Y025248D01*
X044445Y025316D01*
X044468Y025388D01*
X044480Y025462D01*
X044480Y025480D01*
X044020Y025480D01*
X044020Y025520D01*
X043980Y025520D01*
X043980Y025980D01*
X043962Y025980D01*
X043888Y025968D01*
X043816Y025945D01*
X043748Y025911D01*
X043687Y025866D01*
X043634Y025813D01*
X043589Y025752D01*
X043555Y025684D01*
X043532Y025612D01*
X043520Y025538D01*
X043520Y025520D01*
X043980Y025520D01*
X043980Y025480D01*
X043520Y025480D01*
X043520Y025462D01*
X043532Y025388D01*
X043555Y025316D01*
X043589Y025248D01*
X043634Y025187D01*
X043687Y025134D01*
X043748Y025089D01*
X043816Y025055D01*
X043888Y025032D01*
X043962Y025020D01*
X043980Y025020D01*
X043980Y025480D01*
X044020Y025480D01*
X044020Y025020D01*
X044038Y025020D01*
X044112Y025032D01*
X044184Y025055D01*
X044020Y025068D02*
X043980Y025068D01*
X043980Y025226D02*
X044020Y025226D01*
X044020Y025385D02*
X043980Y025385D01*
X044020Y025520D02*
X044480Y025520D01*
X044480Y025538D01*
X044468Y025612D01*
X044445Y025684D01*
X044411Y025752D01*
X044366Y025813D01*
X044313Y025866D01*
X044252Y025911D01*
X044184Y025945D01*
X044112Y025968D01*
X044038Y025980D01*
X044020Y025980D01*
X044020Y025520D01*
X044020Y025543D02*
X043980Y025543D01*
X043980Y025702D02*
X044020Y025702D01*
X044020Y025860D02*
X043980Y025860D01*
X043681Y025860D02*
X041500Y025860D01*
X041500Y025702D02*
X043564Y025702D01*
X043521Y025543D02*
X041500Y025543D01*
X041500Y025385D02*
X043533Y025385D01*
X043606Y025226D02*
X041500Y025226D01*
X041500Y025068D02*
X043791Y025068D01*
X044394Y025226D02*
X044606Y025226D01*
X044533Y025385D02*
X044467Y025385D01*
X044479Y025543D02*
X044521Y025543D01*
X044564Y025702D02*
X044436Y025702D01*
X044319Y025860D02*
X044681Y025860D01*
X043730Y021739D02*
X041500Y021739D01*
X041500Y021581D02*
X043571Y021581D01*
X043413Y021422D02*
X041500Y021422D01*
X041500Y021264D02*
X043254Y021264D01*
X043096Y021105D02*
X041500Y021105D01*
X041500Y020947D02*
X042937Y020947D01*
X042779Y020788D02*
X041500Y020788D01*
X041500Y020630D02*
X042620Y020630D01*
X042462Y020471D02*
X041500Y020471D01*
X041500Y020313D02*
X042303Y020313D01*
X042145Y020154D02*
X041500Y020154D01*
X041500Y019996D02*
X041986Y019996D01*
X041828Y019837D02*
X041500Y019837D01*
X041500Y019679D02*
X041669Y019679D01*
X041511Y019520D02*
X041500Y019520D01*
X036500Y015000D02*
X025000Y015000D01*
X023024Y012863D02*
X013976Y012863D01*
X014042Y012705D02*
X022958Y012705D01*
X022940Y012546D02*
X014060Y012546D01*
X014039Y012388D02*
X022961Y012388D01*
X023029Y012229D02*
X013971Y012229D01*
X013806Y012071D02*
X023194Y012071D01*
X023119Y010961D02*
X013881Y010961D01*
X014002Y010803D02*
X022998Y010803D01*
X022940Y010644D02*
X014060Y010644D01*
X014060Y010486D02*
X022940Y010486D01*
X022986Y010327D02*
X014014Y010327D01*
X013910Y010169D02*
X023090Y010169D01*
X023892Y009059D02*
X019736Y009059D01*
X019922Y009218D02*
X024097Y009218D01*
X023760Y008901D02*
X013240Y008901D01*
X013331Y008742D02*
X023669Y008742D01*
X023622Y008584D02*
X013378Y008584D01*
X013410Y008425D02*
X023590Y008425D01*
X023590Y008267D02*
X013410Y008267D01*
X013387Y008108D02*
X023613Y008108D01*
X023656Y007950D02*
X013344Y007950D01*
X013258Y007791D02*
X023742Y007791D01*
X023861Y007633D02*
X013139Y007633D01*
X012957Y007474D02*
X018344Y007474D01*
X018112Y007316D02*
X012573Y007316D01*
X013108Y009059D02*
X019264Y009059D01*
X019078Y009218D02*
X012903Y009218D01*
X017839Y006365D02*
X019161Y006365D01*
X019218Y006422D02*
X019078Y006282D01*
X019002Y006099D01*
X019002Y005901D01*
X019078Y005718D01*
X019218Y005578D01*
X019401Y005502D01*
X019599Y005502D01*
X019782Y005578D01*
X019922Y005718D01*
X019998Y005901D01*
X019998Y006099D01*
X019922Y006282D01*
X019782Y006422D01*
X019599Y006498D01*
X019401Y006498D01*
X019218Y006422D01*
X019047Y006206D02*
X017953Y006206D01*
X017998Y006048D02*
X019002Y006048D01*
X019007Y005889D02*
X017993Y005889D01*
X017927Y005731D02*
X019073Y005731D01*
X019232Y005572D02*
X017768Y005572D01*
X017790Y005414D02*
X019210Y005414D01*
X019218Y005422D02*
X019078Y005282D01*
X019002Y005099D01*
X019002Y004901D01*
X019078Y004718D01*
X019218Y004578D01*
X019401Y004502D01*
X019599Y004502D01*
X019782Y004578D01*
X019922Y004718D01*
X019998Y004901D01*
X019998Y005099D01*
X019922Y005282D01*
X019782Y005422D01*
X019599Y005498D01*
X019401Y005498D01*
X019218Y005422D01*
X019067Y005255D02*
X017933Y005255D01*
X017998Y005097D02*
X019002Y005097D01*
X019002Y004938D02*
X017998Y004938D01*
X017947Y004780D02*
X019053Y004780D01*
X019175Y004621D02*
X017825Y004621D01*
X019825Y004621D02*
X029175Y004621D01*
X029218Y004578D02*
X029401Y004502D01*
X029599Y004502D01*
X029782Y004578D01*
X029922Y004718D01*
X029998Y004901D01*
X029998Y005099D01*
X029922Y005282D01*
X029782Y005422D01*
X029599Y005498D01*
X029401Y005498D01*
X029218Y005422D01*
X029078Y005282D01*
X029002Y005099D01*
X029002Y004901D01*
X029078Y004718D01*
X029218Y004578D01*
X029053Y004780D02*
X019947Y004780D01*
X019998Y004938D02*
X029002Y004938D01*
X029002Y005097D02*
X019998Y005097D01*
X019933Y005255D02*
X029067Y005255D01*
X029210Y005414D02*
X019790Y005414D01*
X019768Y005572D02*
X029232Y005572D01*
X029218Y005578D02*
X029401Y005502D01*
X029599Y005502D01*
X029782Y005578D01*
X029922Y005718D01*
X029998Y005901D01*
X029998Y006099D01*
X029922Y006282D01*
X029782Y006422D01*
X029599Y006498D01*
X029401Y006498D01*
X029218Y006422D01*
X029078Y006282D01*
X029002Y006099D01*
X029002Y005901D01*
X029078Y005718D01*
X029218Y005578D01*
X029073Y005731D02*
X019927Y005731D01*
X019993Y005889D02*
X029007Y005889D01*
X029002Y006048D02*
X019998Y006048D01*
X019953Y006206D02*
X029047Y006206D01*
X029161Y006365D02*
X019839Y006365D01*
X018973Y006840D02*
X030027Y006840D01*
X030002Y006999D02*
X018998Y006999D01*
X018974Y007157D02*
X030026Y007157D01*
X030112Y007316D02*
X024813Y007316D01*
X024427Y007316D02*
X018888Y007316D01*
X018656Y007474D02*
X024043Y007474D01*
X025197Y007474D02*
X030344Y007474D01*
X030115Y006682D02*
X018885Y006682D01*
X029768Y005572D02*
X031232Y005572D01*
X031210Y005414D02*
X029790Y005414D01*
X029933Y005255D02*
X031067Y005255D01*
X031002Y005097D02*
X029998Y005097D01*
X029998Y004938D02*
X031002Y004938D01*
X031053Y004780D02*
X029947Y004780D01*
X029825Y004621D02*
X031175Y004621D01*
X031073Y005731D02*
X029927Y005731D01*
X029993Y005889D02*
X031007Y005889D01*
X031002Y006048D02*
X029998Y006048D01*
X029953Y006206D02*
X031047Y006206D01*
X031161Y006365D02*
X029839Y006365D01*
X035910Y010169D02*
X037090Y010169D01*
X036986Y010327D02*
X036014Y010327D01*
X036060Y010486D02*
X036940Y010486D01*
X036940Y010644D02*
X036060Y010644D01*
X036002Y010803D02*
X036998Y010803D01*
X037119Y010961D02*
X035881Y010961D01*
X035806Y012071D02*
X037194Y012071D01*
X037029Y012229D02*
X035971Y012229D01*
X036039Y012388D02*
X036961Y012388D01*
X036940Y012546D02*
X036060Y012546D01*
X036714Y012705D02*
X036958Y012705D01*
X037024Y012863D02*
X036872Y012863D01*
X037500Y013500D02*
X037500Y013550D01*
X037240Y008901D02*
X047500Y008901D01*
X047500Y008742D02*
X037331Y008742D01*
X037378Y008584D02*
X047500Y008584D01*
X047500Y008425D02*
X037410Y008425D01*
X037410Y008267D02*
X047500Y008267D01*
X047500Y008108D02*
X037387Y008108D01*
X037344Y007950D02*
X047500Y007950D01*
X047500Y007791D02*
X037258Y007791D01*
X037139Y007633D02*
X047500Y007633D01*
X047500Y007474D02*
X036957Y007474D01*
X047860Y007316D02*
X047980Y007316D01*
X041500Y029500D02*
X037550Y029500D01*
X037500Y029550D01*
X041500Y047099D02*
X047651Y047099D01*
X047527Y047258D02*
X041500Y047258D01*
X041500Y047416D02*
X047470Y047416D01*
X047470Y047575D02*
X041500Y047575D01*
X041500Y047733D02*
X047523Y047733D01*
X047642Y047892D02*
X041500Y047892D01*
X050258Y047892D02*
X052995Y047892D01*
X012725Y041235D02*
X001005Y041235D01*
X001005Y041076D02*
X011307Y041076D01*
X011076Y040918D02*
X001005Y040918D01*
X001005Y040759D02*
X010750Y040759D01*
X010652Y040601D02*
X001005Y040601D01*
X001005Y040442D02*
X010640Y040442D01*
X010707Y040284D02*
X001005Y040284D01*
X011693Y041076D02*
X012567Y041076D01*
X012408Y040918D02*
X011924Y040918D01*
D16*
X015500Y042500D03*
X016000Y044500D03*
X017500Y046500D03*
X019000Y047500D03*
X020500Y044500D03*
X019000Y042000D03*
X014000Y047000D03*
X012000Y046000D03*
X009500Y047000D03*
X007500Y046000D03*
X008000Y043000D03*
X004500Y044500D03*
X002500Y042500D03*
X002500Y046500D03*
X027500Y043500D03*
X028500Y041500D03*
X032500Y041000D03*
X035000Y046500D03*
X038000Y046000D03*
X039500Y044500D03*
X040000Y046500D03*
X042500Y042500D03*
X039500Y042000D03*
X046000Y037500D03*
X047000Y039500D03*
X049000Y042000D03*
X048900Y043200D03*
X050000Y045000D03*
X049500Y046500D03*
X048000Y047500D03*
X052000Y047000D03*
X047000Y043000D03*
X049000Y024000D03*
X047500Y023500D03*
X045500Y023000D03*
X043500Y023000D03*
X043000Y022000D03*
X045000Y020500D03*
X044000Y019000D03*
X042500Y017500D03*
X043500Y016000D03*
X043500Y014500D03*
X040000Y015000D03*
X039000Y014000D03*
X039000Y017500D03*
X033500Y017500D03*
X032500Y017500D03*
X031000Y017500D03*
X029000Y017500D03*
X028000Y017500D03*
X026500Y017500D03*
X024500Y017500D03*
X022000Y017500D03*
X020000Y017500D03*
X018500Y017500D03*
X017000Y017500D03*
X015000Y017500D03*
X012500Y017500D03*
X010000Y017500D03*
X008000Y017500D03*
X006500Y017500D03*
X005000Y017500D03*
X003500Y017500D03*
X001500Y017500D03*
X017500Y006000D03*
X017500Y005000D03*
X019500Y005000D03*
X019500Y006000D03*
X018500Y007000D03*
X019500Y009500D03*
X029500Y006000D03*
X029500Y005000D03*
X031500Y005000D03*
X031500Y006000D03*
X030500Y007000D03*
X031500Y009500D03*
X048500Y005000D03*
X049500Y005500D03*
X050000Y007000D03*
X051000Y006500D03*
X052000Y008000D03*
X052000Y009500D03*
X052000Y010500D03*
X052500Y012000D03*
X052000Y014000D03*
X049500Y015000D03*
X050000Y019500D03*
X052500Y005000D03*
D17*
X037500Y016550D02*
X035500Y016550D01*
X025500Y016550D01*
X023500Y016550D01*
X013500Y016550D01*
X011500Y016550D01*
D18*
X048000Y047500D02*
X049900Y047500D01*
X052000Y045400D01*
X052000Y014300D01*
D19*
X052000Y014000D01*
M02*
