G75*
%MOIN*%
%OFA0B0*%
%FSLAX24Y24*%
%IPPOS*%
%LPD*%
%AMOC8*
5,1,8,0,0,1.08239X$1,22.5*
%
%ADD10OC8,0.0520*%
%ADD11R,0.0600X0.0600*%
%ADD12C,0.0600*%
%ADD13R,0.4098X0.4252*%
%ADD14R,0.0850X0.0420*%
%ADD15C,0.0580*%
%ADD16OC8,0.0600*%
%ADD17R,0.0827X0.0827*%
%ADD18OC8,0.0560*%
%ADD19R,0.0354X0.0236*%
%ADD20R,0.0236X0.0354*%
%ADD21R,0.0315X0.0315*%
%ADD22R,0.1000X0.1000*%
%ADD23R,0.0591X0.0394*%
%ADD24R,0.0591X0.1575*%
%ADD25R,0.0276X0.0512*%
%ADD26R,0.0630X0.1575*%
%ADD27R,0.0197X0.0276*%
%ADD28C,0.0160*%
%ADD29C,0.0436*%
%ADD30C,0.0300*%
%ADD31C,0.0200*%
%ADD32C,0.0500*%
%ADD33R,0.0436X0.0436*%
D10*
X041000Y010500D03*
X041000Y011500D03*
X042000Y011500D03*
X042000Y010500D03*
D11*
X044000Y017500D03*
X044000Y025500D03*
D12*
X045000Y025500D03*
X046000Y025500D03*
X047000Y025500D03*
X048000Y025500D03*
X049000Y025500D03*
X049000Y017500D03*
X048000Y017500D03*
X047000Y017500D03*
X046000Y017500D03*
X045000Y017500D03*
D13*
X044200Y045600D03*
D14*
X047480Y045600D03*
X047480Y046270D03*
X047480Y046940D03*
X047480Y044930D03*
X047480Y044260D03*
D15*
X050000Y042000D03*
X050000Y041000D03*
X050000Y040000D03*
X050000Y039000D03*
X050000Y038000D03*
X050000Y037000D03*
X050000Y036000D03*
X050000Y035000D03*
X050000Y034000D03*
X050000Y033000D03*
X050000Y032000D03*
X050000Y031000D03*
X050000Y030000D03*
X050000Y029000D03*
X049000Y029000D03*
X048000Y029000D03*
X047000Y029000D03*
X047000Y030000D03*
X047000Y031000D03*
X047000Y032000D03*
X047000Y033000D03*
X047000Y034000D03*
X047000Y035000D03*
X047000Y036000D03*
X046000Y036000D03*
X046000Y035000D03*
X046000Y034000D03*
X046000Y033000D03*
X046000Y032000D03*
X046000Y031000D03*
X046000Y030000D03*
X046000Y029000D03*
X045000Y029000D03*
X044000Y029000D03*
X044000Y030000D03*
X044000Y031000D03*
X044000Y032000D03*
X044000Y033000D03*
X044000Y034000D03*
X044000Y035000D03*
X044000Y036000D03*
X044000Y037000D03*
X045000Y037000D03*
X045000Y038000D03*
X044000Y038000D03*
X044000Y039000D03*
X045000Y039000D03*
X044000Y040000D03*
X044000Y041000D03*
X045000Y041000D03*
X044000Y042000D03*
D16*
X041000Y041000D03*
X041000Y040000D03*
X041000Y039000D03*
X041000Y038000D03*
X041000Y037000D03*
X041000Y036000D03*
X041000Y035000D03*
X041000Y034000D03*
X040000Y034000D03*
X040000Y035000D03*
X040000Y036000D03*
X040000Y037000D03*
X040000Y038000D03*
X040000Y039000D03*
X040000Y040000D03*
X040000Y041000D03*
D17*
X046417Y009827D03*
X046417Y008173D03*
X048583Y008173D03*
X048583Y009827D03*
D18*
X037500Y010550D03*
X037500Y011550D03*
X037500Y012550D03*
X037500Y013550D03*
X037500Y014550D03*
X037500Y015550D03*
X037500Y016550D03*
X037500Y017550D03*
X037500Y018550D03*
X037500Y019550D03*
X037500Y020550D03*
X037500Y021550D03*
X037500Y022550D03*
X037500Y023550D03*
X037500Y024550D03*
X037500Y025550D03*
X037500Y026550D03*
X037500Y027550D03*
X037500Y028550D03*
X037500Y029550D03*
X037500Y030550D03*
X037500Y031550D03*
X037500Y032550D03*
X037500Y033550D03*
X037500Y034550D03*
X037500Y035550D03*
X037500Y036550D03*
X037500Y037550D03*
X037500Y038550D03*
X037500Y039550D03*
X037500Y040550D03*
X037500Y041550D03*
X035500Y041550D03*
X035500Y040550D03*
X035500Y039550D03*
X035500Y038550D03*
X035500Y037550D03*
X035500Y036550D03*
X035500Y035550D03*
X035500Y034550D03*
X035500Y033550D03*
X035500Y032550D03*
X035500Y031550D03*
X035500Y030550D03*
X035500Y029550D03*
X035500Y028550D03*
X035500Y027550D03*
X035500Y026550D03*
X035500Y025550D03*
X035500Y024550D03*
X035500Y023550D03*
X035500Y022550D03*
X035500Y021550D03*
X035500Y020550D03*
X035500Y019550D03*
X035500Y018550D03*
X035500Y017550D03*
X035500Y016550D03*
X035500Y015550D03*
X035500Y014550D03*
X035500Y013550D03*
X035500Y012550D03*
X035500Y011550D03*
X035500Y010550D03*
X025500Y010550D03*
X025500Y011550D03*
X025500Y012550D03*
X025500Y013550D03*
X025500Y014550D03*
X025500Y015550D03*
X025500Y016550D03*
X025500Y017550D03*
X025500Y018550D03*
X025500Y019550D03*
X025500Y020550D03*
X025500Y021550D03*
X025500Y022550D03*
X025500Y023550D03*
X025500Y024550D03*
X025500Y025550D03*
X025500Y026550D03*
X025500Y027550D03*
X025500Y028550D03*
X025500Y029550D03*
X025500Y030550D03*
X025500Y031550D03*
X025500Y032550D03*
X025500Y033550D03*
X025500Y034550D03*
X025500Y035550D03*
X025500Y036550D03*
X025500Y037550D03*
X025500Y038550D03*
X025500Y039550D03*
X025500Y040550D03*
X025500Y041550D03*
X023500Y041550D03*
X023500Y040550D03*
X023500Y039550D03*
X023500Y038550D03*
X023500Y037550D03*
X023500Y036550D03*
X023500Y035550D03*
X023500Y034550D03*
X023500Y033550D03*
X023500Y032550D03*
X023500Y031550D03*
X023500Y030550D03*
X023500Y029550D03*
X023500Y028550D03*
X023500Y027550D03*
X023500Y026550D03*
X023500Y025550D03*
X023500Y024550D03*
X023500Y023550D03*
X023500Y022550D03*
X023500Y021550D03*
X023500Y020550D03*
X023500Y019550D03*
X023500Y018550D03*
X023500Y017550D03*
X023500Y016550D03*
X023500Y015550D03*
X023500Y014550D03*
X023500Y013550D03*
X023500Y012550D03*
X023500Y011550D03*
X023500Y010550D03*
X013500Y010550D03*
X013500Y011550D03*
X013500Y012550D03*
X013500Y013550D03*
X013500Y014550D03*
X013500Y015550D03*
X013500Y016550D03*
X013500Y017550D03*
X013500Y018550D03*
X013500Y019550D03*
X013500Y020550D03*
X013500Y021550D03*
X013500Y022550D03*
X013500Y023550D03*
X013500Y024550D03*
X013500Y025550D03*
X013500Y026550D03*
X013500Y027550D03*
X013500Y028550D03*
X013500Y029550D03*
X013500Y030550D03*
X013500Y031550D03*
X013500Y032550D03*
X013500Y033550D03*
X013500Y034550D03*
X013500Y035550D03*
X013500Y036550D03*
X013500Y037550D03*
X013500Y038550D03*
X013500Y039550D03*
X013500Y040550D03*
X013500Y041550D03*
X011500Y041550D03*
X011500Y040550D03*
X011500Y039550D03*
X011500Y038550D03*
X011500Y037550D03*
X011500Y036550D03*
X011500Y035550D03*
X011500Y034550D03*
X011500Y033550D03*
X011500Y032550D03*
X011500Y031550D03*
X011500Y030550D03*
X011500Y029550D03*
X011500Y028550D03*
X011500Y027550D03*
X011500Y026550D03*
X011500Y025550D03*
X011500Y024550D03*
X011500Y023550D03*
X011500Y022550D03*
X011500Y021550D03*
X011500Y020550D03*
X011500Y019550D03*
X011500Y018550D03*
X011500Y017550D03*
X011500Y016550D03*
X011500Y015550D03*
X011500Y014550D03*
X011500Y013550D03*
X011500Y012550D03*
X011500Y011550D03*
X011500Y010550D03*
D19*
X048300Y044305D03*
X048300Y044895D03*
D20*
X048305Y043800D03*
X048895Y043800D03*
X041795Y013500D03*
X041205Y013500D03*
D21*
X044105Y014100D03*
X044695Y014100D03*
X044695Y015900D03*
X044105Y015900D03*
X048805Y044900D03*
X049395Y044900D03*
X048795Y046600D03*
X048205Y046600D03*
D22*
X050500Y011500D03*
X050500Y011000D03*
D23*
X045409Y014094D03*
X045409Y015000D03*
X045409Y015906D03*
D24*
X047969Y015000D03*
D25*
X051126Y013000D03*
X051874Y013000D03*
D26*
X030500Y008398D03*
X030500Y005602D03*
X018500Y005602D03*
X018500Y008398D03*
D27*
X046100Y041024D03*
X046100Y041536D03*
D28*
X001005Y048000D02*
X001005Y004000D01*
X052995Y004000D01*
X052995Y011000D01*
X051280Y011000D01*
X051280Y010944D01*
X051237Y010841D01*
X051159Y010763D01*
X051056Y010720D01*
X049944Y010720D01*
X049841Y010763D01*
X049763Y010841D01*
X049720Y010944D01*
X049720Y011000D01*
X049238Y011000D01*
X049059Y010821D01*
X048815Y010680D01*
X048543Y010607D01*
X048261Y010607D01*
X047988Y010680D01*
X047744Y010821D01*
X047545Y011020D01*
X047404Y011264D01*
X047331Y011536D01*
X047331Y011818D01*
X047404Y012090D01*
X047545Y012334D01*
X047744Y012534D01*
X047807Y012570D01*
X047678Y012570D01*
X045930Y010822D01*
X045930Y010513D01*
X045948Y010520D01*
X046886Y010520D01*
X046989Y010478D01*
X047068Y010399D01*
X047111Y010296D01*
X047111Y009358D01*
X047068Y009255D01*
X046989Y009176D01*
X046886Y009133D01*
X045975Y009133D01*
X046241Y008867D01*
X046886Y008867D01*
X046989Y008824D01*
X047068Y008745D01*
X047111Y008642D01*
X047111Y007704D01*
X047068Y007601D01*
X046989Y007522D01*
X046886Y007480D01*
X045948Y007480D01*
X045845Y007522D01*
X045767Y007601D01*
X045724Y007704D01*
X045724Y008168D01*
X045256Y008635D01*
X045135Y008756D01*
X045070Y008914D01*
X045070Y011086D01*
X045135Y011244D01*
X046892Y013000D01*
X043000Y013000D01*
X041000Y015000D01*
X041000Y030140D01*
X038428Y030140D01*
X038296Y030195D01*
X038195Y030296D01*
X038060Y030431D01*
X038060Y030318D01*
X037792Y030050D01*
X038060Y029782D01*
X038060Y029318D01*
X037792Y029050D01*
X038060Y028782D01*
X038060Y028318D01*
X037792Y028050D01*
X038060Y027782D01*
X038060Y027318D01*
X037792Y027050D01*
X038060Y026782D01*
X038060Y026318D01*
X037792Y026050D01*
X038060Y025782D01*
X038060Y025318D01*
X037792Y025050D01*
X038060Y024782D01*
X038060Y024318D01*
X037792Y024050D01*
X038060Y023782D01*
X038060Y023318D01*
X037792Y023050D01*
X038060Y022782D01*
X038060Y022318D01*
X037792Y022050D01*
X038060Y021782D01*
X038060Y021318D01*
X037792Y021050D01*
X038060Y020782D01*
X038060Y020318D01*
X037792Y020050D01*
X038060Y019782D01*
X038060Y019318D01*
X037792Y019050D01*
X038060Y018782D01*
X038060Y018318D01*
X037732Y017990D01*
X037268Y017990D01*
X036940Y018318D01*
X036940Y018782D01*
X037208Y019050D01*
X036940Y019318D01*
X036940Y019782D01*
X037208Y020050D01*
X036940Y020318D01*
X036940Y020782D01*
X037208Y021050D01*
X036940Y021318D01*
X036940Y021782D01*
X037208Y022050D01*
X036940Y022318D01*
X036940Y022782D01*
X037208Y023050D01*
X036940Y023318D01*
X036940Y023782D01*
X037208Y024050D01*
X036940Y024318D01*
X036940Y024782D01*
X037208Y025050D01*
X036940Y025318D01*
X036940Y025782D01*
X037208Y026050D01*
X036940Y026318D01*
X036940Y026782D01*
X037208Y027050D01*
X036940Y027318D01*
X036940Y027782D01*
X037208Y028050D01*
X037134Y028124D01*
X036704Y027695D01*
X036572Y027640D01*
X036060Y027640D01*
X036060Y027318D01*
X035792Y027050D01*
X036060Y026782D01*
X036060Y026318D01*
X035792Y026050D01*
X036060Y025782D01*
X036060Y025318D01*
X035792Y025050D01*
X036060Y024782D01*
X036060Y024318D01*
X035792Y024050D01*
X036060Y023782D01*
X036060Y023318D01*
X035792Y023050D01*
X036060Y022782D01*
X036060Y022318D01*
X035792Y022050D01*
X036060Y021782D01*
X036060Y021318D01*
X035792Y021050D01*
X036060Y020782D01*
X036060Y020318D01*
X035792Y020050D01*
X036060Y019782D01*
X036060Y019318D01*
X035792Y019050D01*
X036060Y018782D01*
X036060Y018318D01*
X035732Y017990D01*
X035268Y017990D01*
X034940Y018318D01*
X034940Y018782D01*
X035208Y019050D01*
X034940Y019318D01*
X034940Y019782D01*
X035208Y020050D01*
X034940Y020318D01*
X034940Y020782D01*
X035208Y021050D01*
X034940Y021318D01*
X034940Y021782D01*
X035208Y022050D01*
X034940Y022318D01*
X034940Y022782D01*
X035208Y023050D01*
X034940Y023318D01*
X034940Y023782D01*
X035208Y024050D01*
X034940Y024318D01*
X034940Y024782D01*
X035208Y025050D01*
X034940Y025318D01*
X034940Y025782D01*
X035208Y026050D01*
X034940Y026318D01*
X034940Y026782D01*
X035208Y027050D01*
X034940Y027318D01*
X034940Y027640D01*
X026060Y027640D01*
X026060Y027318D01*
X025792Y027050D01*
X026060Y026782D01*
X026060Y026318D01*
X025792Y026050D01*
X026060Y025782D01*
X026060Y025318D01*
X025792Y025050D01*
X026060Y024782D01*
X026060Y024318D01*
X025792Y024050D01*
X026060Y023782D01*
X026060Y023318D01*
X025792Y023050D01*
X026060Y022782D01*
X026060Y022318D01*
X025792Y022050D01*
X026060Y021782D01*
X026060Y021318D01*
X025792Y021050D01*
X026060Y020782D01*
X026060Y020318D01*
X025792Y020050D01*
X026060Y019782D01*
X026060Y019318D01*
X025792Y019050D01*
X026060Y018782D01*
X026060Y018318D01*
X025732Y017990D01*
X025268Y017990D01*
X024940Y018318D01*
X024940Y018782D01*
X025208Y019050D01*
X024940Y019318D01*
X024940Y019782D01*
X025208Y020050D01*
X024940Y020318D01*
X024940Y020782D01*
X025208Y021050D01*
X024940Y021318D01*
X024940Y021782D01*
X025208Y022050D01*
X024940Y022318D01*
X024940Y022782D01*
X025208Y023050D01*
X024940Y023318D01*
X024940Y023782D01*
X025208Y024050D01*
X024940Y024318D01*
X024940Y024782D01*
X025208Y025050D01*
X024940Y025318D01*
X024940Y025782D01*
X025208Y026050D01*
X024940Y026318D01*
X024940Y026782D01*
X025208Y027050D01*
X024940Y027318D01*
X024940Y027640D01*
X024928Y027640D01*
X024796Y027695D01*
X024351Y028140D01*
X023882Y028140D01*
X023792Y028050D01*
X024060Y027782D01*
X024060Y027318D01*
X023792Y027050D01*
X024060Y026782D01*
X024060Y026318D01*
X023792Y026050D01*
X024060Y025782D01*
X024060Y025318D01*
X023792Y025050D01*
X024060Y024782D01*
X024060Y024318D01*
X023792Y024050D01*
X024060Y023782D01*
X024060Y023318D01*
X023792Y023050D01*
X024060Y022782D01*
X024060Y022318D01*
X023792Y022050D01*
X024060Y021782D01*
X024060Y021318D01*
X023792Y021050D01*
X024060Y020782D01*
X024060Y020318D01*
X023792Y020050D01*
X024060Y019782D01*
X024060Y019318D01*
X023792Y019050D01*
X024060Y018782D01*
X024060Y018318D01*
X023732Y017990D01*
X023268Y017990D01*
X022940Y018318D01*
X022940Y018782D01*
X023208Y019050D01*
X022940Y019318D01*
X022940Y019782D01*
X023208Y020050D01*
X022940Y020318D01*
X022940Y020782D01*
X023208Y021050D01*
X022940Y021318D01*
X022940Y021782D01*
X023208Y022050D01*
X022940Y022318D01*
X022940Y022782D01*
X023208Y023050D01*
X022940Y023318D01*
X022940Y023782D01*
X023208Y024050D01*
X022940Y024318D01*
X022940Y024782D01*
X023208Y025050D01*
X022940Y025318D01*
X022940Y025782D01*
X023208Y026050D01*
X022940Y026318D01*
X022940Y026782D01*
X023208Y027050D01*
X022940Y027318D01*
X022940Y027782D01*
X023208Y028050D01*
X023118Y028140D01*
X013882Y028140D01*
X013792Y028050D01*
X014060Y027782D01*
X014060Y027318D01*
X013792Y027050D01*
X014060Y026782D01*
X014060Y026318D01*
X013792Y026050D01*
X014060Y025782D01*
X014060Y025318D01*
X013792Y025050D01*
X014060Y024782D01*
X014060Y024318D01*
X013792Y024050D01*
X014060Y023782D01*
X014060Y023318D01*
X013792Y023050D01*
X014060Y022782D01*
X014060Y022318D01*
X013792Y022050D01*
X014060Y021782D01*
X014060Y021318D01*
X013792Y021050D01*
X014060Y020782D01*
X014060Y020318D01*
X013792Y020050D01*
X014060Y019782D01*
X014060Y019318D01*
X013792Y019050D01*
X014060Y018782D01*
X014060Y018318D01*
X013732Y017990D01*
X013268Y017990D01*
X012940Y018318D01*
X012940Y018782D01*
X013208Y019050D01*
X012940Y019318D01*
X012940Y019782D01*
X013208Y020050D01*
X012940Y020318D01*
X012940Y020782D01*
X013208Y021050D01*
X012940Y021318D01*
X012940Y021782D01*
X013208Y022050D01*
X012940Y022318D01*
X012940Y022782D01*
X013208Y023050D01*
X012940Y023318D01*
X012940Y023782D01*
X013208Y024050D01*
X012940Y024318D01*
X012940Y024782D01*
X013208Y025050D01*
X012940Y025318D01*
X012940Y025782D01*
X013208Y026050D01*
X012940Y026318D01*
X012940Y026782D01*
X013208Y027050D01*
X012940Y027318D01*
X012940Y027782D01*
X013208Y028050D01*
X012940Y028318D01*
X012940Y028431D01*
X012704Y028195D01*
X012572Y028140D01*
X011882Y028140D01*
X011792Y028050D01*
X012060Y027782D01*
X012060Y027318D01*
X011792Y027050D01*
X012060Y026782D01*
X012060Y026318D01*
X011792Y026050D01*
X012060Y025782D01*
X012060Y025318D01*
X011792Y025050D01*
X012060Y024782D01*
X012060Y024318D01*
X011792Y024050D01*
X012060Y023782D01*
X012060Y023318D01*
X011792Y023050D01*
X012060Y022782D01*
X012060Y022318D01*
X011792Y022050D01*
X012060Y021782D01*
X012060Y021318D01*
X011792Y021050D01*
X012060Y020782D01*
X012060Y020318D01*
X011792Y020050D01*
X012060Y019782D01*
X012060Y019318D01*
X011792Y019050D01*
X012060Y018782D01*
X012060Y018318D01*
X011732Y017990D01*
X011268Y017990D01*
X010940Y018318D01*
X010940Y018782D01*
X011208Y019050D01*
X010940Y019318D01*
X010940Y019782D01*
X011208Y020050D01*
X010940Y020318D01*
X010940Y020782D01*
X011208Y021050D01*
X010940Y021318D01*
X010940Y021782D01*
X011208Y022050D01*
X010940Y022318D01*
X010940Y022782D01*
X011208Y023050D01*
X010940Y023318D01*
X010940Y023782D01*
X011208Y024050D01*
X010940Y024318D01*
X010940Y024782D01*
X011208Y025050D01*
X010940Y025318D01*
X010940Y025782D01*
X011208Y026050D01*
X010940Y026318D01*
X010940Y026782D01*
X011208Y027050D01*
X010940Y027318D01*
X010940Y027782D01*
X011208Y028050D01*
X010940Y028318D01*
X010940Y028782D01*
X011208Y029050D01*
X010940Y029318D01*
X010940Y029782D01*
X011208Y030050D01*
X010940Y030318D01*
X010940Y030782D01*
X011208Y031050D01*
X010940Y031318D01*
X010940Y031782D01*
X011208Y032050D01*
X010940Y032318D01*
X010940Y032782D01*
X011208Y033050D01*
X010940Y033318D01*
X010940Y033782D01*
X011208Y034050D01*
X010940Y034318D01*
X010940Y034782D01*
X011208Y035050D01*
X010940Y035318D01*
X010940Y035782D01*
X011208Y036050D01*
X010940Y036318D01*
X010940Y036782D01*
X011208Y037050D01*
X010940Y037318D01*
X010940Y037782D01*
X011208Y038050D01*
X010940Y038318D01*
X010940Y038782D01*
X011208Y039050D01*
X010940Y039318D01*
X010940Y039782D01*
X011208Y040050D01*
X010940Y040318D01*
X010940Y040782D01*
X011268Y041110D01*
X011732Y041110D01*
X012060Y040782D01*
X012060Y040318D01*
X011792Y040050D01*
X012060Y039782D01*
X012060Y039318D01*
X011792Y039050D01*
X012060Y038782D01*
X012060Y038318D01*
X011792Y038050D01*
X012060Y037782D01*
X012060Y037318D01*
X011792Y037050D01*
X012060Y036782D01*
X012060Y036318D01*
X011792Y036050D01*
X012060Y035782D01*
X012060Y035318D01*
X011792Y035050D01*
X012060Y034782D01*
X012060Y034318D01*
X011792Y034050D01*
X012060Y033782D01*
X012060Y033318D01*
X011792Y033050D01*
X011982Y032860D01*
X012351Y032860D01*
X012695Y033204D01*
X012695Y033204D01*
X012796Y033305D01*
X012928Y033360D01*
X012940Y033360D01*
X012940Y033782D01*
X013208Y034050D01*
X012940Y034318D01*
X012940Y034782D01*
X013208Y035050D01*
X012940Y035318D01*
X012940Y035782D01*
X013208Y036050D01*
X012940Y036318D01*
X012940Y036782D01*
X013208Y037050D01*
X012940Y037318D01*
X012940Y037782D01*
X013208Y038050D01*
X012940Y038318D01*
X012940Y038782D01*
X013208Y039050D01*
X012940Y039318D01*
X012940Y039782D01*
X013208Y040050D01*
X012940Y040318D01*
X012940Y040782D01*
X013268Y041110D01*
X013732Y041110D01*
X014060Y040782D01*
X014060Y040318D01*
X013792Y040050D01*
X014060Y039782D01*
X014060Y039318D01*
X013792Y039050D01*
X014060Y038782D01*
X014060Y038318D01*
X013792Y038050D01*
X014060Y037782D01*
X014060Y037318D01*
X013792Y037050D01*
X014060Y036782D01*
X014060Y036318D01*
X013792Y036050D01*
X014060Y035782D01*
X014060Y035318D01*
X013792Y035050D01*
X014060Y034782D01*
X014060Y034318D01*
X013792Y034050D01*
X014060Y033782D01*
X014060Y033360D01*
X022940Y033360D01*
X022940Y033782D01*
X023208Y034050D01*
X022940Y034318D01*
X022940Y034782D01*
X023208Y035050D01*
X022940Y035318D01*
X022940Y035782D01*
X023208Y036050D01*
X022940Y036318D01*
X022940Y036782D01*
X023208Y037050D01*
X022940Y037318D01*
X022940Y037782D01*
X023208Y038050D01*
X022940Y038318D01*
X022940Y038782D01*
X023208Y039050D01*
X022940Y039318D01*
X022940Y039782D01*
X023208Y040050D01*
X022940Y040318D01*
X022940Y040782D01*
X023268Y041110D01*
X023732Y041110D01*
X024060Y040782D01*
X024060Y040318D01*
X023792Y040050D01*
X024060Y039782D01*
X024060Y039318D01*
X023792Y039050D01*
X024060Y038782D01*
X024060Y038318D01*
X023792Y038050D01*
X024060Y037782D01*
X024060Y037318D01*
X023792Y037050D01*
X024060Y036782D01*
X024060Y036318D01*
X023792Y036050D01*
X024060Y035782D01*
X024060Y035318D01*
X023792Y035050D01*
X024060Y034782D01*
X024060Y034318D01*
X023792Y034050D01*
X024060Y033782D01*
X024060Y033360D01*
X024572Y033360D01*
X024704Y033305D01*
X025084Y032926D01*
X025208Y033050D01*
X024940Y033318D01*
X024940Y033782D01*
X025208Y034050D01*
X024940Y034318D01*
X024940Y034782D01*
X025208Y035050D01*
X024940Y035318D01*
X024940Y035782D01*
X025208Y036050D01*
X024940Y036318D01*
X024940Y036782D01*
X025208Y037050D01*
X024940Y037318D01*
X024940Y037782D01*
X025208Y038050D01*
X024940Y038318D01*
X024940Y038782D01*
X025208Y039050D01*
X024940Y039318D01*
X024940Y039782D01*
X025208Y040050D01*
X024940Y040318D01*
X024940Y040782D01*
X025268Y041110D01*
X025732Y041110D01*
X026060Y040782D01*
X026060Y040318D01*
X025792Y040050D01*
X026060Y039782D01*
X026060Y039318D01*
X025792Y039050D01*
X026060Y038782D01*
X026060Y038318D01*
X025792Y038050D01*
X026060Y037782D01*
X026060Y037318D01*
X025792Y037050D01*
X026060Y036782D01*
X026060Y036318D01*
X025792Y036050D01*
X026060Y035782D01*
X026060Y035318D01*
X025792Y035050D01*
X026060Y034782D01*
X026060Y034318D01*
X025792Y034050D01*
X026060Y033782D01*
X026060Y033318D01*
X025792Y033050D01*
X025982Y032860D01*
X035018Y032860D01*
X035208Y033050D01*
X034940Y033318D01*
X034940Y033782D01*
X035208Y034050D01*
X034940Y034318D01*
X034940Y034782D01*
X035208Y035050D01*
X034940Y035318D01*
X034940Y035782D01*
X035208Y036050D01*
X034940Y036318D01*
X034940Y036782D01*
X035208Y037050D01*
X034940Y037318D01*
X034940Y037782D01*
X035208Y038050D01*
X034940Y038318D01*
X034940Y038782D01*
X035208Y039050D01*
X034940Y039318D01*
X034940Y039782D01*
X035208Y040050D01*
X034940Y040318D01*
X034940Y040782D01*
X035268Y041110D01*
X035732Y041110D01*
X036060Y040782D01*
X036060Y040318D01*
X035792Y040050D01*
X036060Y039782D01*
X036060Y039318D01*
X035792Y039050D01*
X036060Y038782D01*
X036060Y038318D01*
X035792Y038050D01*
X036060Y037782D01*
X036060Y037318D01*
X035792Y037050D01*
X036060Y036782D01*
X036060Y036318D01*
X035792Y036050D01*
X036060Y035782D01*
X036060Y035318D01*
X035792Y035050D01*
X036060Y034782D01*
X036060Y034318D01*
X035792Y034050D01*
X036060Y033782D01*
X036060Y033318D01*
X035792Y033050D01*
X035982Y032860D01*
X036351Y032860D01*
X036695Y033204D01*
X036796Y033305D01*
X036928Y033360D01*
X036940Y033360D01*
X036940Y033782D01*
X037208Y034050D01*
X036940Y034318D01*
X036940Y034782D01*
X037208Y035050D01*
X036940Y035318D01*
X036940Y035782D01*
X037208Y036050D01*
X036940Y036318D01*
X036940Y036782D01*
X037208Y037050D01*
X036940Y037318D01*
X036940Y037782D01*
X037208Y038050D01*
X036940Y038318D01*
X036940Y038782D01*
X037208Y039050D01*
X036940Y039318D01*
X036940Y039782D01*
X037208Y040050D01*
X036940Y040318D01*
X036940Y040782D01*
X037268Y041110D01*
X037732Y041110D01*
X038060Y040782D01*
X038060Y040318D01*
X037792Y040050D01*
X038060Y039782D01*
X038060Y039318D01*
X037792Y039050D01*
X038060Y038782D01*
X038060Y038318D01*
X037792Y038050D01*
X038060Y037782D01*
X038060Y037318D01*
X037792Y037050D01*
X038060Y036782D01*
X038060Y036318D01*
X037792Y036050D01*
X038060Y035782D01*
X038060Y035318D01*
X037792Y035050D01*
X038060Y034782D01*
X038060Y034318D01*
X037792Y034050D01*
X038060Y033782D01*
X038060Y033360D01*
X038072Y033360D01*
X038204Y033305D01*
X038649Y032860D01*
X040351Y032860D01*
X040911Y033420D01*
X040760Y033420D01*
X040500Y033680D01*
X040240Y033420D01*
X039760Y033420D01*
X039420Y033760D01*
X039420Y034240D01*
X039680Y034500D01*
X039420Y034760D01*
X039420Y035240D01*
X039680Y035500D01*
X039420Y035760D01*
X039420Y036240D01*
X039680Y036500D01*
X039420Y036760D01*
X039420Y037240D01*
X039680Y037500D01*
X039420Y037760D01*
X039420Y038240D01*
X039680Y038500D01*
X039420Y038760D01*
X039420Y039240D01*
X039680Y039500D01*
X039420Y039760D01*
X039420Y040240D01*
X039680Y040500D01*
X039420Y040760D01*
X039420Y041240D01*
X039760Y041580D01*
X040240Y041580D01*
X040500Y041320D01*
X040760Y041580D01*
X041000Y041580D01*
X041000Y048000D01*
X001005Y048000D01*
X001005Y047892D02*
X041000Y047892D01*
X041000Y047733D02*
X001005Y047733D01*
X001005Y047575D02*
X041000Y047575D01*
X041000Y047416D02*
X001005Y047416D01*
X001005Y047258D02*
X041000Y047258D01*
X041000Y047099D02*
X001005Y047099D01*
X001005Y046941D02*
X041000Y046941D01*
X041000Y046782D02*
X001005Y046782D01*
X001005Y046624D02*
X041000Y046624D01*
X041000Y046465D02*
X001005Y046465D01*
X001005Y046307D02*
X041000Y046307D01*
X041000Y046148D02*
X001005Y046148D01*
X001005Y045990D02*
X041000Y045990D01*
X041000Y045831D02*
X001005Y045831D01*
X001005Y045673D02*
X041000Y045673D01*
X041000Y045514D02*
X001005Y045514D01*
X001005Y045356D02*
X041000Y045356D01*
X041000Y045197D02*
X036908Y045197D01*
X036853Y045225D02*
X036380Y045300D01*
X035907Y045225D01*
X035481Y045008D01*
X035481Y045008D01*
X035142Y044669D01*
X034925Y044243D01*
X034925Y044243D01*
X034850Y043770D01*
X034850Y043770D01*
X034925Y043297D01*
X035142Y042871D01*
X035481Y042532D01*
X035907Y042315D01*
X035907Y042315D01*
X036380Y042240D01*
X036853Y042315D01*
X037279Y042532D01*
X037279Y042532D01*
X037618Y042871D01*
X037835Y043297D01*
X037910Y043770D01*
X037835Y044243D01*
X037618Y044669D01*
X037618Y044669D01*
X037279Y045008D01*
X036853Y045225D01*
X036853Y045225D01*
X037219Y045039D02*
X041000Y045039D01*
X041000Y044880D02*
X037407Y044880D01*
X037279Y045008D02*
X037279Y045008D01*
X037566Y044722D02*
X041000Y044722D01*
X041000Y044563D02*
X037672Y044563D01*
X037753Y044405D02*
X041000Y044405D01*
X041000Y044246D02*
X037833Y044246D01*
X037835Y044243D02*
X037835Y044243D01*
X037860Y044088D02*
X041000Y044088D01*
X041000Y043929D02*
X037885Y043929D01*
X037910Y043771D02*
X041000Y043771D01*
X041000Y043612D02*
X037885Y043612D01*
X037910Y043770D02*
X037910Y043770D01*
X037860Y043454D02*
X041000Y043454D01*
X041000Y043295D02*
X037834Y043295D01*
X037753Y043137D02*
X041000Y043137D01*
X041000Y042978D02*
X037673Y042978D01*
X037567Y042820D02*
X041000Y042820D01*
X041000Y042661D02*
X037408Y042661D01*
X037279Y042532D02*
X037279Y042532D01*
X037221Y042503D02*
X041000Y042503D01*
X041000Y042344D02*
X036910Y042344D01*
X036853Y042315D02*
X036853Y042315D01*
X036380Y042240D02*
X036380Y042240D01*
X035850Y042344D02*
X012910Y042344D01*
X012853Y042315D02*
X013279Y042532D01*
X013279Y042532D01*
X013618Y042871D01*
X013835Y043297D01*
X013835Y043297D01*
X013910Y043770D01*
X013910Y043770D01*
X013835Y044243D01*
X013618Y044669D01*
X013618Y044669D01*
X013279Y045008D01*
X012853Y045225D01*
X012853Y045225D01*
X012380Y045300D01*
X011907Y045225D01*
X011481Y045008D01*
X011481Y045008D01*
X011142Y044669D01*
X010925Y044243D01*
X010925Y044243D01*
X010850Y043770D01*
X010850Y043770D01*
X010925Y043297D01*
X011142Y042871D01*
X011481Y042532D01*
X011907Y042315D01*
X011907Y042315D01*
X012380Y042240D01*
X012853Y042315D01*
X012853Y042315D01*
X013221Y042503D02*
X035539Y042503D01*
X035481Y042532D02*
X035481Y042532D01*
X035352Y042661D02*
X013408Y042661D01*
X013567Y042820D02*
X024206Y042820D01*
X024222Y042810D02*
X024484Y042740D01*
X024756Y042740D01*
X025018Y042810D01*
X025252Y042946D01*
X025444Y043138D01*
X025580Y043372D01*
X025650Y043634D01*
X025650Y043906D01*
X025580Y044168D01*
X025444Y044402D01*
X025252Y044594D01*
X025018Y044730D01*
X024756Y044800D01*
X024484Y044800D01*
X024222Y044730D01*
X023988Y044594D01*
X023796Y044402D01*
X023660Y044168D01*
X023590Y043906D01*
X023590Y043634D01*
X023660Y043372D01*
X023796Y043138D01*
X023988Y042946D01*
X024222Y042810D01*
X023955Y042978D02*
X013673Y042978D01*
X013618Y042871D02*
X013618Y042871D01*
X013753Y043137D02*
X023797Y043137D01*
X023705Y043295D02*
X013834Y043295D01*
X013860Y043454D02*
X023638Y043454D01*
X023596Y043612D02*
X013885Y043612D01*
X013910Y043771D02*
X023590Y043771D01*
X023596Y043929D02*
X013885Y043929D01*
X013860Y044088D02*
X023639Y044088D01*
X023706Y044246D02*
X013833Y044246D01*
X013753Y044405D02*
X023798Y044405D01*
X023956Y044563D02*
X013672Y044563D01*
X013566Y044722D02*
X024208Y044722D01*
X025032Y044722D02*
X035194Y044722D01*
X035142Y044669D02*
X035142Y044669D01*
X035088Y044563D02*
X025284Y044563D01*
X025442Y044405D02*
X035007Y044405D01*
X034927Y044246D02*
X025534Y044246D01*
X025601Y044088D02*
X034900Y044088D01*
X034875Y043929D02*
X025644Y043929D01*
X025650Y043771D02*
X034850Y043771D01*
X034875Y043612D02*
X025644Y043612D01*
X025602Y043454D02*
X034900Y043454D01*
X034925Y043297D02*
X034925Y043297D01*
X034926Y043295D02*
X025535Y043295D01*
X025443Y043137D02*
X035007Y043137D01*
X035087Y042978D02*
X025285Y042978D01*
X025034Y042820D02*
X035193Y042820D01*
X035142Y042871D02*
X035142Y042871D01*
X035234Y041076D02*
X025766Y041076D01*
X025924Y040918D02*
X035076Y040918D01*
X034940Y040759D02*
X026060Y040759D01*
X026060Y040601D02*
X034940Y040601D01*
X034940Y040442D02*
X026060Y040442D01*
X026026Y040284D02*
X034974Y040284D01*
X035133Y040125D02*
X025867Y040125D01*
X025875Y039967D02*
X035125Y039967D01*
X034966Y039808D02*
X026034Y039808D01*
X026060Y039650D02*
X034940Y039650D01*
X034940Y039491D02*
X026060Y039491D01*
X026060Y039333D02*
X034940Y039333D01*
X035084Y039174D02*
X025916Y039174D01*
X025826Y039016D02*
X035174Y039016D01*
X035015Y038857D02*
X025985Y038857D01*
X026060Y038699D02*
X034940Y038699D01*
X034940Y038540D02*
X026060Y038540D01*
X026060Y038382D02*
X034940Y038382D01*
X035035Y038223D02*
X025965Y038223D01*
X025807Y038065D02*
X035193Y038065D01*
X035064Y037906D02*
X025936Y037906D01*
X026060Y037748D02*
X034940Y037748D01*
X034940Y037589D02*
X026060Y037589D01*
X026060Y037431D02*
X034940Y037431D01*
X034986Y037272D02*
X026014Y037272D01*
X025856Y037114D02*
X035144Y037114D01*
X035113Y036955D02*
X025887Y036955D01*
X026045Y036797D02*
X034955Y036797D01*
X034940Y036638D02*
X026060Y036638D01*
X026060Y036480D02*
X034940Y036480D01*
X034940Y036321D02*
X026060Y036321D01*
X025905Y036163D02*
X035095Y036163D01*
X035162Y036004D02*
X025838Y036004D01*
X025996Y035846D02*
X035004Y035846D01*
X034940Y035687D02*
X026060Y035687D01*
X026060Y035529D02*
X034940Y035529D01*
X034940Y035370D02*
X026060Y035370D01*
X025954Y035212D02*
X035046Y035212D01*
X035205Y035053D02*
X025795Y035053D01*
X025947Y034895D02*
X035053Y034895D01*
X034940Y034736D02*
X026060Y034736D01*
X026060Y034578D02*
X034940Y034578D01*
X034940Y034419D02*
X026060Y034419D01*
X026003Y034261D02*
X034997Y034261D01*
X035156Y034102D02*
X025844Y034102D01*
X025898Y033944D02*
X035102Y033944D01*
X034943Y033785D02*
X026057Y033785D01*
X026060Y033627D02*
X034940Y033627D01*
X034940Y033468D02*
X026060Y033468D01*
X026052Y033310D02*
X034948Y033310D01*
X035107Y033151D02*
X025893Y033151D01*
X025849Y032993D02*
X035151Y032993D01*
X035500Y032550D02*
X035500Y032500D01*
X036500Y032500D01*
X037000Y033000D01*
X038000Y033000D01*
X038500Y032500D01*
X040500Y032500D01*
X043500Y035500D01*
X047500Y035500D01*
X048000Y036000D01*
X048000Y039000D01*
X050000Y041000D01*
X050407Y040601D02*
X050770Y040601D01*
X050770Y040759D02*
X050517Y040759D01*
X050483Y040677D02*
X050570Y040887D01*
X050570Y041113D01*
X050483Y041323D01*
X050323Y041483D01*
X050113Y041570D01*
X049887Y041570D01*
X049677Y041483D01*
X049517Y041323D01*
X049430Y041113D01*
X049430Y040939D01*
X047695Y039204D01*
X047640Y039072D01*
X047640Y036149D01*
X047570Y036079D01*
X047570Y036113D01*
X047483Y036323D01*
X047323Y036483D01*
X047113Y036570D01*
X046887Y036570D01*
X046677Y036483D01*
X046517Y036323D01*
X046500Y036282D01*
X046483Y036323D01*
X046323Y036483D01*
X046113Y036570D01*
X045887Y036570D01*
X045677Y036483D01*
X045517Y036323D01*
X045430Y036113D01*
X045430Y035887D01*
X045441Y035860D01*
X044559Y035860D01*
X044570Y035887D01*
X044570Y036113D01*
X044483Y036323D01*
X044323Y036483D01*
X044282Y036500D01*
X044323Y036517D01*
X044483Y036677D01*
X044500Y036718D01*
X044517Y036677D01*
X044677Y036517D01*
X044887Y036430D01*
X045113Y036430D01*
X045323Y036517D01*
X045483Y036677D01*
X045570Y036887D01*
X045570Y037113D01*
X045483Y037323D01*
X045323Y037483D01*
X045282Y037500D01*
X045323Y037517D01*
X045483Y037677D01*
X045570Y037887D01*
X045570Y038113D01*
X045483Y038323D01*
X045323Y038483D01*
X045282Y038500D01*
X045323Y038517D01*
X045483Y038677D01*
X045570Y038887D01*
X045570Y039113D01*
X045483Y039323D01*
X045323Y039483D01*
X045113Y039570D01*
X044887Y039570D01*
X044677Y039483D01*
X044517Y039323D01*
X044500Y039282D01*
X044483Y039323D01*
X044323Y039483D01*
X044282Y039500D01*
X044323Y039517D01*
X044483Y039677D01*
X044570Y039887D01*
X044570Y040113D01*
X044483Y040323D01*
X044323Y040483D01*
X044282Y040500D01*
X044323Y040517D01*
X044483Y040677D01*
X044500Y040718D01*
X044517Y040677D01*
X044677Y040517D01*
X044887Y040430D01*
X045113Y040430D01*
X045323Y040517D01*
X045446Y040640D01*
X045865Y040640D01*
X045946Y040607D01*
X046254Y040607D01*
X046357Y040649D01*
X046436Y040728D01*
X046478Y040831D01*
X046478Y041218D01*
X046453Y041280D01*
X046478Y041343D01*
X046478Y041570D01*
X048286Y041570D01*
X048444Y041635D01*
X048978Y042170D01*
X050522Y042170D01*
X050770Y041922D01*
X050770Y015278D01*
X049422Y013930D01*
X045985Y013930D01*
X045985Y014347D01*
X045942Y014450D01*
X045863Y014529D01*
X045760Y014571D01*
X045058Y014571D01*
X044959Y014530D01*
X044927Y014530D01*
X044908Y014537D01*
X044482Y014537D01*
X044379Y014495D01*
X044300Y014416D01*
X044258Y014313D01*
X044258Y013887D01*
X044300Y013784D01*
X044379Y013705D01*
X044482Y013663D01*
X044908Y013663D01*
X044927Y013670D01*
X044946Y013670D01*
X044956Y013660D01*
X044979Y013650D01*
X044979Y013505D01*
X044982Y013500D01*
X043500Y013500D01*
X041500Y015500D01*
X041500Y030140D01*
X042351Y030140D01*
X043430Y029061D01*
X043430Y028887D01*
X043517Y028677D01*
X043677Y028517D01*
X043887Y028430D01*
X044061Y028430D01*
X046585Y025906D01*
X046508Y025829D01*
X046500Y025809D01*
X046492Y025829D01*
X046329Y025992D01*
X046115Y026080D01*
X045885Y026080D01*
X045671Y025992D01*
X045508Y025829D01*
X045420Y025615D01*
X045420Y025385D01*
X045508Y025171D01*
X045671Y025008D01*
X045885Y024920D01*
X046115Y024920D01*
X046329Y025008D01*
X046492Y025171D01*
X046500Y025191D01*
X046508Y025171D01*
X046671Y025008D01*
X046885Y024920D01*
X046911Y024920D01*
X046695Y024704D01*
X046640Y024572D01*
X046640Y017960D01*
X046508Y017829D01*
X046500Y017809D01*
X046492Y017829D01*
X046329Y017992D01*
X046115Y018080D01*
X045885Y018080D01*
X045671Y017992D01*
X045610Y017930D01*
X045390Y017930D01*
X045329Y017992D01*
X045115Y018080D01*
X044885Y018080D01*
X044671Y017992D01*
X044508Y017829D01*
X044420Y017615D01*
X044420Y017385D01*
X044508Y017171D01*
X044570Y017110D01*
X044570Y016337D01*
X044482Y016337D01*
X044379Y016295D01*
X044300Y016216D01*
X044258Y016113D01*
X044258Y015687D01*
X044300Y015584D01*
X044379Y015505D01*
X044482Y015463D01*
X044908Y015463D01*
X044927Y015470D01*
X044959Y015470D01*
X045058Y015429D01*
X045760Y015429D01*
X045863Y015471D01*
X045942Y015550D01*
X045985Y015653D01*
X045985Y016158D01*
X045942Y016261D01*
X045863Y016340D01*
X045760Y016382D01*
X045430Y016382D01*
X045430Y017070D01*
X045610Y017070D01*
X045671Y017008D01*
X045885Y016920D01*
X046115Y016920D01*
X046329Y017008D01*
X046492Y017171D01*
X046500Y017191D01*
X046508Y017171D01*
X046671Y017008D01*
X046885Y016920D01*
X047115Y016920D01*
X047329Y017008D01*
X047492Y017171D01*
X047500Y017191D01*
X047508Y017171D01*
X047671Y017008D01*
X047885Y016920D01*
X048115Y016920D01*
X048329Y017008D01*
X048492Y017171D01*
X048500Y017191D01*
X048508Y017171D01*
X048671Y017008D01*
X048885Y016920D01*
X049115Y016920D01*
X049329Y017008D01*
X049492Y017171D01*
X049580Y017385D01*
X049580Y017615D01*
X049492Y017829D01*
X049360Y017960D01*
X049360Y022351D01*
X050204Y023195D01*
X050305Y023296D01*
X050360Y023428D01*
X050360Y028554D01*
X050483Y028677D01*
X050570Y028887D01*
X050570Y029113D01*
X050483Y029323D01*
X050323Y029483D01*
X050282Y029500D01*
X050323Y029517D01*
X050483Y029677D01*
X050570Y029887D01*
X050570Y030113D01*
X050483Y030323D01*
X050323Y030483D01*
X050282Y030500D01*
X050323Y030517D01*
X050483Y030677D01*
X050570Y030887D01*
X050570Y031113D01*
X050483Y031323D01*
X050323Y031483D01*
X050282Y031500D01*
X050323Y031517D01*
X050483Y031677D01*
X050570Y031887D01*
X050570Y032113D01*
X050483Y032323D01*
X050323Y032483D01*
X050282Y032500D01*
X050323Y032517D01*
X050770Y032517D01*
X050770Y032359D02*
X050448Y032359D01*
X050534Y032200D02*
X050770Y032200D01*
X050770Y032042D02*
X050570Y032042D01*
X050569Y031883D02*
X050770Y031883D01*
X050770Y031725D02*
X050503Y031725D01*
X050372Y031566D02*
X050770Y031566D01*
X050770Y031408D02*
X050399Y031408D01*
X050514Y031249D02*
X050770Y031249D01*
X050770Y031091D02*
X050570Y031091D01*
X050570Y030932D02*
X050770Y030932D01*
X050770Y030774D02*
X050523Y030774D01*
X050421Y030615D02*
X050770Y030615D01*
X050770Y030457D02*
X050350Y030457D01*
X050494Y030298D02*
X050770Y030298D01*
X050770Y030140D02*
X050559Y030140D01*
X050570Y029981D02*
X050770Y029981D01*
X050770Y029823D02*
X050543Y029823D01*
X050470Y029664D02*
X050770Y029664D01*
X050770Y029506D02*
X050296Y029506D01*
X050459Y029347D02*
X050770Y029347D01*
X050770Y029189D02*
X050539Y029189D01*
X050570Y029030D02*
X050770Y029030D01*
X050770Y028872D02*
X050564Y028872D01*
X050498Y028713D02*
X050770Y028713D01*
X050770Y028555D02*
X050361Y028555D01*
X050360Y028396D02*
X050770Y028396D01*
X050770Y028238D02*
X050360Y028238D01*
X050360Y028079D02*
X050770Y028079D01*
X050770Y027921D02*
X050360Y027921D01*
X050360Y027762D02*
X050770Y027762D01*
X050770Y027604D02*
X050360Y027604D01*
X050360Y027445D02*
X050770Y027445D01*
X050770Y027287D02*
X050360Y027287D01*
X050360Y027128D02*
X050770Y027128D01*
X050770Y026970D02*
X050360Y026970D01*
X050360Y026811D02*
X050770Y026811D01*
X050770Y026653D02*
X050360Y026653D01*
X050360Y026494D02*
X050770Y026494D01*
X050770Y026336D02*
X050360Y026336D01*
X050360Y026177D02*
X050770Y026177D01*
X050770Y026019D02*
X050360Y026019D01*
X050360Y025860D02*
X050770Y025860D01*
X050770Y025702D02*
X050360Y025702D01*
X050360Y025543D02*
X050770Y025543D01*
X050770Y025385D02*
X050360Y025385D01*
X050360Y025226D02*
X050770Y025226D01*
X050770Y025068D02*
X050360Y025068D01*
X050360Y024909D02*
X050770Y024909D01*
X050770Y024751D02*
X050360Y024751D01*
X050360Y024592D02*
X050770Y024592D01*
X050770Y024434D02*
X050360Y024434D01*
X050360Y024275D02*
X050770Y024275D01*
X050770Y024117D02*
X050360Y024117D01*
X050360Y023958D02*
X050770Y023958D01*
X050770Y023800D02*
X050360Y023800D01*
X050360Y023641D02*
X050770Y023641D01*
X050770Y023483D02*
X050360Y023483D01*
X050317Y023324D02*
X050770Y023324D01*
X050770Y023166D02*
X050175Y023166D01*
X050204Y023195D02*
X050204Y023195D01*
X050016Y023007D02*
X050770Y023007D01*
X050770Y022849D02*
X049858Y022849D01*
X049699Y022690D02*
X050770Y022690D01*
X050770Y022532D02*
X049541Y022532D01*
X049382Y022373D02*
X050770Y022373D01*
X050770Y022215D02*
X049360Y022215D01*
X049360Y022056D02*
X050770Y022056D01*
X050770Y021898D02*
X049360Y021898D01*
X049360Y021739D02*
X050770Y021739D01*
X050770Y021581D02*
X049360Y021581D01*
X049360Y021422D02*
X050770Y021422D01*
X050770Y021264D02*
X049360Y021264D01*
X049360Y021105D02*
X050770Y021105D01*
X050770Y020947D02*
X049360Y020947D01*
X049360Y020788D02*
X050770Y020788D01*
X050770Y020630D02*
X049360Y020630D01*
X049360Y020471D02*
X050770Y020471D01*
X050770Y020313D02*
X049360Y020313D01*
X049360Y020154D02*
X050770Y020154D01*
X050770Y019996D02*
X049360Y019996D01*
X049360Y019837D02*
X050770Y019837D01*
X050770Y019679D02*
X049360Y019679D01*
X049360Y019520D02*
X050770Y019520D01*
X050770Y019362D02*
X049360Y019362D01*
X049360Y019203D02*
X050770Y019203D01*
X050770Y019045D02*
X049360Y019045D01*
X049360Y018886D02*
X050770Y018886D01*
X050770Y018728D02*
X049360Y018728D01*
X049360Y018569D02*
X050770Y018569D01*
X050770Y018411D02*
X049360Y018411D01*
X049360Y018252D02*
X050770Y018252D01*
X050770Y018094D02*
X049360Y018094D01*
X049385Y017935D02*
X050770Y017935D01*
X050770Y017777D02*
X049513Y017777D01*
X049579Y017618D02*
X050770Y017618D01*
X050770Y017460D02*
X049580Y017460D01*
X049545Y017301D02*
X050770Y017301D01*
X050770Y017143D02*
X049463Y017143D01*
X049270Y016984D02*
X050770Y016984D01*
X050770Y016826D02*
X045430Y016826D01*
X045430Y016984D02*
X045730Y016984D01*
X045430Y016667D02*
X050770Y016667D01*
X050770Y016509D02*
X045430Y016509D01*
X045838Y016350D02*
X050770Y016350D01*
X050770Y016192D02*
X045971Y016192D01*
X045985Y016033D02*
X050770Y016033D01*
X050770Y015875D02*
X045985Y015875D01*
X045985Y015716D02*
X050770Y015716D01*
X050770Y015558D02*
X045945Y015558D01*
X046270Y016984D02*
X046730Y016984D01*
X046537Y017143D02*
X046463Y017143D01*
X047000Y017500D02*
X047000Y024500D01*
X047500Y025000D01*
X047500Y027000D01*
X046500Y028000D01*
X046500Y031500D01*
X047500Y031500D01*
X050000Y034000D01*
X050528Y033785D02*
X050770Y033785D01*
X050770Y033627D02*
X050433Y033627D01*
X050483Y033677D02*
X050570Y033887D01*
X050570Y034113D01*
X050483Y034323D01*
X050323Y034483D01*
X050282Y034500D01*
X050323Y034517D01*
X050483Y034677D01*
X050570Y034887D01*
X050570Y035113D01*
X050483Y035323D01*
X050323Y035483D01*
X050282Y035500D01*
X050323Y035517D01*
X050483Y035677D01*
X050570Y035887D01*
X050570Y036113D01*
X050483Y036323D01*
X050323Y036483D01*
X050282Y036500D01*
X050323Y036517D01*
X050483Y036677D01*
X050570Y036887D01*
X050570Y037113D01*
X050483Y037323D01*
X050323Y037483D01*
X050282Y037500D01*
X050323Y037517D01*
X050483Y037677D01*
X050570Y037887D01*
X050570Y038113D01*
X050483Y038323D01*
X050323Y038483D01*
X050282Y038500D01*
X050323Y038517D01*
X050483Y038677D01*
X050570Y038887D01*
X050570Y039113D01*
X050483Y039323D01*
X050323Y039483D01*
X050282Y039500D01*
X050323Y039517D01*
X050483Y039677D01*
X050570Y039887D01*
X050570Y040113D01*
X050483Y040323D01*
X050323Y040483D01*
X050282Y040500D01*
X050323Y040517D01*
X050483Y040677D01*
X050570Y040918D02*
X050770Y040918D01*
X050770Y041076D02*
X050570Y041076D01*
X050520Y041235D02*
X050770Y041235D01*
X050770Y041393D02*
X050413Y041393D01*
X050158Y041552D02*
X050770Y041552D01*
X050770Y041710D02*
X048518Y041710D01*
X048677Y041869D02*
X050770Y041869D01*
X050665Y042027D02*
X048835Y042027D01*
X048411Y042820D02*
X041500Y042820D01*
X041500Y042978D02*
X048589Y042978D01*
X048556Y042965D02*
X048435Y042844D01*
X048022Y042430D01*
X044376Y042430D01*
X044323Y042483D01*
X044113Y042570D01*
X043887Y042570D01*
X043677Y042483D01*
X043517Y042323D01*
X043430Y042113D01*
X043430Y041887D01*
X043517Y041677D01*
X043677Y041517D01*
X043718Y041500D01*
X043677Y041483D01*
X043624Y041430D01*
X043178Y041430D01*
X042365Y042244D01*
X042244Y042365D01*
X042086Y042430D01*
X041500Y042430D01*
X041500Y048000D01*
X047822Y048000D01*
X047817Y047998D01*
X047727Y047998D01*
X047624Y047955D01*
X047545Y047876D01*
X047502Y047773D01*
X047502Y047752D01*
X047251Y047500D01*
X047222Y047430D01*
X046999Y047430D01*
X046896Y047387D01*
X046818Y047309D01*
X046775Y047206D01*
X046775Y046674D01*
X046804Y046605D01*
X046775Y046536D01*
X046775Y046004D01*
X046818Y045901D01*
X046896Y045823D01*
X046999Y045780D01*
X047961Y045780D01*
X048064Y045823D01*
X048142Y045901D01*
X048185Y046004D01*
X048185Y046163D01*
X048418Y046163D01*
X048521Y046205D01*
X048600Y046284D01*
X048642Y046387D01*
X048642Y046813D01*
X048600Y046916D01*
X048521Y046995D01*
X048418Y047037D01*
X048359Y047037D01*
X048376Y047045D01*
X048455Y047124D01*
X048498Y047227D01*
X048498Y047317D01*
X048530Y047395D01*
X048530Y047605D01*
X048498Y047683D01*
X048498Y047773D01*
X048455Y047876D01*
X048376Y047955D01*
X048273Y047998D01*
X048183Y047998D01*
X048178Y048000D01*
X052995Y048000D01*
X052995Y011500D01*
X051280Y011500D01*
X051280Y011556D01*
X051237Y011659D01*
X051159Y011737D01*
X051056Y011780D01*
X049944Y011780D01*
X049841Y011737D01*
X049763Y011659D01*
X049720Y011556D01*
X049720Y011500D01*
X049500Y011500D01*
X049500Y012570D01*
X050766Y012570D01*
X050830Y012507D01*
X050932Y012464D01*
X051319Y012464D01*
X051422Y012507D01*
X051500Y012584D01*
X051578Y012507D01*
X051681Y012464D01*
X052068Y012464D01*
X052170Y012507D01*
X052249Y012585D01*
X052292Y012688D01*
X052292Y012810D01*
X052365Y012882D01*
X052430Y013040D01*
X052430Y013598D01*
X052455Y013624D01*
X052498Y013727D01*
X052498Y014273D01*
X052455Y014376D01*
X052376Y014455D01*
X052273Y014498D01*
X051727Y014498D01*
X051624Y014455D01*
X051545Y014376D01*
X051502Y014273D01*
X051502Y013727D01*
X051545Y013624D01*
X051570Y013598D01*
X051570Y013486D01*
X051500Y013416D01*
X051422Y013493D01*
X051319Y013536D01*
X050932Y013536D01*
X050830Y013493D01*
X050766Y013430D01*
X050138Y013430D01*
X051565Y014856D01*
X051630Y015014D01*
X051630Y042186D01*
X052995Y042186D01*
X052995Y042344D02*
X051564Y042344D01*
X051565Y042344D02*
X051444Y042465D01*
X050944Y042965D01*
X050786Y043030D01*
X049830Y043030D01*
X049830Y044086D01*
X049765Y044244D01*
X049644Y044365D01*
X049330Y044678D01*
X049330Y044890D01*
X049265Y045048D01*
X049242Y045071D01*
X049242Y045113D01*
X049200Y045216D01*
X049121Y045295D01*
X049018Y045337D01*
X048592Y045337D01*
X048573Y045330D01*
X048219Y045330D01*
X048208Y045325D01*
X048116Y045325D01*
X048064Y045377D01*
X047961Y045420D01*
X046999Y045420D01*
X046896Y045377D01*
X046818Y045299D01*
X046775Y045196D01*
X046775Y044664D01*
X046804Y044595D01*
X046775Y044526D01*
X046775Y043994D01*
X046818Y043891D01*
X046896Y043813D01*
X046999Y043770D01*
X047875Y043770D01*
X047875Y043714D01*
X047907Y043637D01*
X047907Y043567D01*
X047949Y043464D01*
X048028Y043385D01*
X048131Y043343D01*
X048479Y043343D01*
X048581Y043385D01*
X048660Y043464D01*
X048703Y043567D01*
X048703Y043637D01*
X048735Y043714D01*
X048735Y044057D01*
X048970Y043822D01*
X048970Y043030D01*
X048714Y043030D01*
X048556Y042965D01*
X048253Y042661D02*
X041500Y042661D01*
X041500Y042503D02*
X043724Y042503D01*
X043538Y042344D02*
X042264Y042344D01*
X042423Y042186D02*
X043460Y042186D01*
X043430Y042027D02*
X042581Y042027D01*
X042740Y041869D02*
X043437Y041869D01*
X043503Y041710D02*
X042898Y041710D01*
X043057Y041552D02*
X043642Y041552D01*
X044276Y042503D02*
X048094Y042503D01*
X047960Y043454D02*
X041500Y043454D01*
X041500Y043612D02*
X047907Y043612D01*
X048650Y043454D02*
X048970Y043454D01*
X048970Y043612D02*
X048703Y043612D01*
X048735Y043771D02*
X048970Y043771D01*
X048863Y043929D02*
X048735Y043929D01*
X048970Y043295D02*
X041500Y043295D01*
X041500Y043137D02*
X048970Y043137D01*
X049830Y043137D02*
X052995Y043137D01*
X052995Y043295D02*
X049830Y043295D01*
X049830Y043454D02*
X052995Y043454D01*
X052995Y043612D02*
X049830Y043612D01*
X049830Y043771D02*
X052995Y043771D01*
X052995Y043929D02*
X049830Y043929D01*
X049829Y044088D02*
X052995Y044088D01*
X052995Y044246D02*
X049762Y044246D01*
X049604Y044405D02*
X052995Y044405D01*
X052995Y044563D02*
X049445Y044563D01*
X049330Y044722D02*
X052995Y044722D01*
X052995Y044880D02*
X049330Y044880D01*
X049269Y045039D02*
X052995Y045039D01*
X052995Y045197D02*
X049207Y045197D01*
X048085Y045356D02*
X052995Y045356D01*
X052995Y045514D02*
X041500Y045514D01*
X041500Y045356D02*
X046875Y045356D01*
X046776Y045197D02*
X041500Y045197D01*
X041500Y045039D02*
X046775Y045039D01*
X046775Y044880D02*
X041500Y044880D01*
X041500Y044722D02*
X046775Y044722D01*
X046790Y044563D02*
X041500Y044563D01*
X041500Y044405D02*
X046775Y044405D01*
X046775Y044246D02*
X041500Y044246D01*
X041500Y044088D02*
X046775Y044088D01*
X046802Y043929D02*
X041500Y043929D01*
X041500Y043771D02*
X046998Y043771D01*
X046100Y042000D02*
X046100Y041536D01*
X046478Y041552D02*
X049842Y041552D01*
X049587Y041393D02*
X046478Y041393D01*
X046472Y041235D02*
X049480Y041235D01*
X049430Y041076D02*
X046478Y041076D01*
X046478Y040918D02*
X049408Y040918D01*
X049250Y040759D02*
X046449Y040759D01*
X046100Y041024D02*
X046076Y041000D01*
X045000Y041000D01*
X045407Y040601D02*
X049091Y040601D01*
X048933Y040442D02*
X045143Y040442D01*
X044857Y040442D02*
X044364Y040442D01*
X044407Y040601D02*
X044593Y040601D01*
X044500Y040284D02*
X048774Y040284D01*
X048616Y040125D02*
X044565Y040125D01*
X044570Y039967D02*
X048457Y039967D01*
X048299Y039808D02*
X044537Y039808D01*
X044456Y039650D02*
X048140Y039650D01*
X047982Y039491D02*
X045304Y039491D01*
X045474Y039333D02*
X047823Y039333D01*
X047682Y039174D02*
X045545Y039174D01*
X045570Y039016D02*
X047640Y039016D01*
X047640Y038857D02*
X045558Y038857D01*
X045492Y038699D02*
X047640Y038699D01*
X047640Y038540D02*
X045346Y038540D01*
X045425Y038382D02*
X047640Y038382D01*
X047640Y038223D02*
X045525Y038223D01*
X045570Y038065D02*
X047640Y038065D01*
X047640Y037906D02*
X045570Y037906D01*
X045512Y037748D02*
X047640Y037748D01*
X047640Y037589D02*
X045395Y037589D01*
X045376Y037431D02*
X047640Y037431D01*
X047640Y037272D02*
X045504Y037272D01*
X045570Y037114D02*
X047640Y037114D01*
X047640Y036955D02*
X045570Y036955D01*
X045533Y036797D02*
X047640Y036797D01*
X047640Y036638D02*
X045444Y036638D01*
X045233Y036480D02*
X045673Y036480D01*
X045516Y036321D02*
X044484Y036321D01*
X044550Y036163D02*
X045450Y036163D01*
X045430Y036004D02*
X044570Y036004D01*
X044767Y036480D02*
X044327Y036480D01*
X044444Y036638D02*
X044556Y036638D01*
X046327Y036480D02*
X046673Y036480D01*
X046516Y036321D02*
X046484Y036321D01*
X047327Y036480D02*
X047640Y036480D01*
X047640Y036321D02*
X047484Y036321D01*
X047550Y036163D02*
X047640Y036163D01*
X047673Y035182D02*
X047351Y034860D01*
X046559Y034860D01*
X046570Y034887D01*
X046570Y035113D01*
X046559Y035140D01*
X047572Y035140D01*
X047673Y035182D01*
X047544Y035053D02*
X046570Y035053D01*
X046570Y034895D02*
X047385Y034895D01*
X047500Y034500D02*
X048500Y035500D01*
X048500Y038500D01*
X050000Y040000D01*
X050537Y039808D02*
X050770Y039808D01*
X050770Y039650D02*
X050456Y039650D01*
X050304Y039491D02*
X050770Y039491D01*
X050770Y039333D02*
X050474Y039333D01*
X050545Y039174D02*
X050770Y039174D01*
X050770Y039016D02*
X050570Y039016D01*
X050558Y038857D02*
X050770Y038857D01*
X050770Y038699D02*
X050492Y038699D01*
X050346Y038540D02*
X050770Y038540D01*
X050770Y038382D02*
X050425Y038382D01*
X050525Y038223D02*
X050770Y038223D01*
X050770Y038065D02*
X050570Y038065D01*
X050570Y037906D02*
X050770Y037906D01*
X050770Y037748D02*
X050512Y037748D01*
X050395Y037589D02*
X050770Y037589D01*
X050770Y037431D02*
X050376Y037431D01*
X050504Y037272D02*
X050770Y037272D01*
X050770Y037114D02*
X050570Y037114D01*
X050570Y036955D02*
X050770Y036955D01*
X050770Y036797D02*
X050533Y036797D01*
X050444Y036638D02*
X050770Y036638D01*
X050770Y036480D02*
X050327Y036480D01*
X050484Y036321D02*
X050770Y036321D01*
X050770Y036163D02*
X050550Y036163D01*
X050570Y036004D02*
X050770Y036004D01*
X050770Y035846D02*
X050553Y035846D01*
X050487Y035687D02*
X050770Y035687D01*
X050770Y035529D02*
X050335Y035529D01*
X050436Y035370D02*
X050770Y035370D01*
X050770Y035212D02*
X050529Y035212D01*
X050570Y035053D02*
X050770Y035053D01*
X050770Y034895D02*
X050570Y034895D01*
X050508Y034736D02*
X050770Y034736D01*
X050770Y034578D02*
X050384Y034578D01*
X050387Y034419D02*
X050770Y034419D01*
X050770Y034261D02*
X050509Y034261D01*
X050570Y034102D02*
X050770Y034102D01*
X050770Y033944D02*
X050570Y033944D01*
X050483Y033677D02*
X050323Y033517D01*
X050282Y033500D01*
X050323Y033483D01*
X050483Y033323D01*
X050570Y033113D01*
X050570Y032887D01*
X050483Y032677D01*
X050323Y032517D01*
X050482Y032676D02*
X050770Y032676D01*
X050770Y032834D02*
X050548Y032834D01*
X050570Y032993D02*
X050770Y032993D01*
X050770Y033151D02*
X050554Y033151D01*
X050489Y033310D02*
X050770Y033310D01*
X050770Y033468D02*
X050338Y033468D01*
X050000Y033000D02*
X047500Y030500D01*
X047500Y028000D01*
X048000Y027500D01*
X048000Y025500D01*
X047860Y024930D02*
X047885Y024920D01*
X048115Y024920D01*
X048140Y024930D01*
X048140Y024649D01*
X047695Y024204D01*
X047640Y024072D01*
X047640Y017960D01*
X047508Y017829D01*
X047500Y017809D01*
X047492Y017829D01*
X047360Y017960D01*
X047360Y024351D01*
X047704Y024695D01*
X047805Y024796D01*
X047860Y024928D01*
X047860Y024930D01*
X047852Y024909D02*
X048140Y024909D01*
X048140Y024751D02*
X047760Y024751D01*
X047704Y024695D02*
X047704Y024695D01*
X047601Y024592D02*
X048083Y024592D01*
X047924Y024434D02*
X047443Y024434D01*
X047360Y024275D02*
X047766Y024275D01*
X047659Y024117D02*
X047360Y024117D01*
X047360Y023958D02*
X047640Y023958D01*
X047640Y023800D02*
X047360Y023800D01*
X047360Y023641D02*
X047640Y023641D01*
X047640Y023483D02*
X047360Y023483D01*
X047360Y023324D02*
X047640Y023324D01*
X047640Y023166D02*
X047360Y023166D01*
X047360Y023007D02*
X047640Y023007D01*
X047640Y022849D02*
X047360Y022849D01*
X047360Y022690D02*
X047640Y022690D01*
X047640Y022532D02*
X047360Y022532D01*
X047360Y022373D02*
X047640Y022373D01*
X047640Y022215D02*
X047360Y022215D01*
X047360Y022056D02*
X047640Y022056D01*
X047640Y021898D02*
X047360Y021898D01*
X047360Y021739D02*
X047640Y021739D01*
X047640Y021581D02*
X047360Y021581D01*
X047360Y021422D02*
X047640Y021422D01*
X047640Y021264D02*
X047360Y021264D01*
X047360Y021105D02*
X047640Y021105D01*
X047640Y020947D02*
X047360Y020947D01*
X047360Y020788D02*
X047640Y020788D01*
X047640Y020630D02*
X047360Y020630D01*
X047360Y020471D02*
X047640Y020471D01*
X047640Y020313D02*
X047360Y020313D01*
X047360Y020154D02*
X047640Y020154D01*
X047640Y019996D02*
X047360Y019996D01*
X047360Y019837D02*
X047640Y019837D01*
X047640Y019679D02*
X047360Y019679D01*
X047360Y019520D02*
X047640Y019520D01*
X047640Y019362D02*
X047360Y019362D01*
X047360Y019203D02*
X047640Y019203D01*
X047640Y019045D02*
X047360Y019045D01*
X047360Y018886D02*
X047640Y018886D01*
X047640Y018728D02*
X047360Y018728D01*
X047360Y018569D02*
X047640Y018569D01*
X047640Y018411D02*
X047360Y018411D01*
X047360Y018252D02*
X047640Y018252D01*
X047640Y018094D02*
X047360Y018094D01*
X047385Y017935D02*
X047615Y017935D01*
X048000Y017500D02*
X048000Y024000D01*
X048500Y024500D01*
X048500Y030500D01*
X050000Y032000D01*
X050000Y031000D02*
X049500Y030500D01*
X049500Y026000D01*
X049000Y025500D01*
X049388Y025068D02*
X049640Y025068D01*
X049640Y025226D02*
X049514Y025226D01*
X049492Y025171D02*
X049580Y025385D01*
X049580Y025571D01*
X049640Y025631D01*
X049640Y023649D01*
X048796Y022805D01*
X048695Y022704D01*
X048640Y022572D01*
X048640Y017960D01*
X048508Y017829D01*
X048500Y017809D01*
X048492Y017829D01*
X048360Y017960D01*
X048360Y023851D01*
X048704Y024195D01*
X048805Y024296D01*
X048860Y024428D01*
X048860Y024930D01*
X048885Y024920D01*
X049115Y024920D01*
X049329Y025008D01*
X049492Y025171D01*
X049580Y025385D02*
X049640Y025385D01*
X049640Y025543D02*
X049580Y025543D01*
X049640Y024909D02*
X048860Y024909D01*
X048860Y024751D02*
X049640Y024751D01*
X049640Y024592D02*
X048860Y024592D01*
X048860Y024434D02*
X049640Y024434D01*
X049640Y024275D02*
X048784Y024275D01*
X048626Y024117D02*
X049640Y024117D01*
X049640Y023958D02*
X048467Y023958D01*
X048360Y023800D02*
X049640Y023800D01*
X049632Y023641D02*
X048360Y023641D01*
X048360Y023483D02*
X049473Y023483D01*
X049315Y023324D02*
X048360Y023324D01*
X048360Y023166D02*
X049156Y023166D01*
X048998Y023007D02*
X048360Y023007D01*
X048360Y022849D02*
X048839Y022849D01*
X048689Y022690D02*
X048360Y022690D01*
X048360Y022532D02*
X048640Y022532D01*
X048640Y022373D02*
X048360Y022373D01*
X048360Y022215D02*
X048640Y022215D01*
X048640Y022056D02*
X048360Y022056D01*
X048360Y021898D02*
X048640Y021898D01*
X048640Y021739D02*
X048360Y021739D01*
X048360Y021581D02*
X048640Y021581D01*
X048640Y021422D02*
X048360Y021422D01*
X048360Y021264D02*
X048640Y021264D01*
X048640Y021105D02*
X048360Y021105D01*
X048360Y020947D02*
X048640Y020947D01*
X048640Y020788D02*
X048360Y020788D01*
X048360Y020630D02*
X048640Y020630D01*
X048640Y020471D02*
X048360Y020471D01*
X048360Y020313D02*
X048640Y020313D01*
X048640Y020154D02*
X048360Y020154D01*
X048360Y019996D02*
X048640Y019996D01*
X048640Y019837D02*
X048360Y019837D01*
X048360Y019679D02*
X048640Y019679D01*
X048640Y019520D02*
X048360Y019520D01*
X048360Y019362D02*
X048640Y019362D01*
X048640Y019203D02*
X048360Y019203D01*
X048360Y019045D02*
X048640Y019045D01*
X048640Y018886D02*
X048360Y018886D01*
X048360Y018728D02*
X048640Y018728D01*
X048640Y018569D02*
X048360Y018569D01*
X048360Y018411D02*
X048640Y018411D01*
X048640Y018252D02*
X048360Y018252D01*
X048360Y018094D02*
X048640Y018094D01*
X048615Y017935D02*
X048385Y017935D01*
X049000Y017500D02*
X049000Y022500D01*
X050000Y023500D01*
X050000Y029000D01*
X051630Y029030D02*
X052995Y029030D01*
X052995Y028872D02*
X051630Y028872D01*
X051630Y028713D02*
X052995Y028713D01*
X052995Y028555D02*
X051630Y028555D01*
X051630Y028396D02*
X052995Y028396D01*
X052995Y028238D02*
X051630Y028238D01*
X051630Y028079D02*
X052995Y028079D01*
X052995Y027921D02*
X051630Y027921D01*
X051630Y027762D02*
X052995Y027762D01*
X052995Y027604D02*
X051630Y027604D01*
X051630Y027445D02*
X052995Y027445D01*
X052995Y027287D02*
X051630Y027287D01*
X051630Y027128D02*
X052995Y027128D01*
X052995Y026970D02*
X051630Y026970D01*
X051630Y026811D02*
X052995Y026811D01*
X052995Y026653D02*
X051630Y026653D01*
X051630Y026494D02*
X052995Y026494D01*
X052995Y026336D02*
X051630Y026336D01*
X051630Y026177D02*
X052995Y026177D01*
X052995Y026019D02*
X051630Y026019D01*
X051630Y025860D02*
X052995Y025860D01*
X052995Y025702D02*
X051630Y025702D01*
X051630Y025543D02*
X052995Y025543D01*
X052995Y025385D02*
X051630Y025385D01*
X051630Y025226D02*
X052995Y025226D01*
X052995Y025068D02*
X051630Y025068D01*
X051630Y024909D02*
X052995Y024909D01*
X052995Y024751D02*
X051630Y024751D01*
X051630Y024592D02*
X052995Y024592D01*
X052995Y024434D02*
X051630Y024434D01*
X051630Y024275D02*
X052995Y024275D01*
X052995Y024117D02*
X051630Y024117D01*
X051630Y023958D02*
X052995Y023958D01*
X052995Y023800D02*
X051630Y023800D01*
X051630Y023641D02*
X052995Y023641D01*
X052995Y023483D02*
X051630Y023483D01*
X051630Y023324D02*
X052995Y023324D01*
X052995Y023166D02*
X051630Y023166D01*
X051630Y023007D02*
X052995Y023007D01*
X052995Y022849D02*
X051630Y022849D01*
X051630Y022690D02*
X052995Y022690D01*
X052995Y022532D02*
X051630Y022532D01*
X051630Y022373D02*
X052995Y022373D01*
X052995Y022215D02*
X051630Y022215D01*
X051630Y022056D02*
X052995Y022056D01*
X052995Y021898D02*
X051630Y021898D01*
X051630Y021739D02*
X052995Y021739D01*
X052995Y021581D02*
X051630Y021581D01*
X051630Y021422D02*
X052995Y021422D01*
X052995Y021264D02*
X051630Y021264D01*
X051630Y021105D02*
X052995Y021105D01*
X052995Y020947D02*
X051630Y020947D01*
X051630Y020788D02*
X052995Y020788D01*
X052995Y020630D02*
X051630Y020630D01*
X051630Y020471D02*
X052995Y020471D01*
X052995Y020313D02*
X051630Y020313D01*
X051630Y020154D02*
X052995Y020154D01*
X052995Y019996D02*
X051630Y019996D01*
X051630Y019837D02*
X052995Y019837D01*
X052995Y019679D02*
X051630Y019679D01*
X051630Y019520D02*
X052995Y019520D01*
X052995Y019362D02*
X051630Y019362D01*
X051630Y019203D02*
X052995Y019203D01*
X052995Y019045D02*
X051630Y019045D01*
X051630Y018886D02*
X052995Y018886D01*
X052995Y018728D02*
X051630Y018728D01*
X051630Y018569D02*
X052995Y018569D01*
X052995Y018411D02*
X051630Y018411D01*
X051630Y018252D02*
X052995Y018252D01*
X052995Y018094D02*
X051630Y018094D01*
X051630Y017935D02*
X052995Y017935D01*
X052995Y017777D02*
X051630Y017777D01*
X051630Y017618D02*
X052995Y017618D01*
X052995Y017460D02*
X051630Y017460D01*
X051630Y017301D02*
X052995Y017301D01*
X052995Y017143D02*
X051630Y017143D01*
X051630Y016984D02*
X052995Y016984D01*
X052995Y016826D02*
X051630Y016826D01*
X051630Y016667D02*
X052995Y016667D01*
X052995Y016509D02*
X051630Y016509D01*
X051630Y016350D02*
X052995Y016350D01*
X052995Y016192D02*
X051630Y016192D01*
X051630Y016033D02*
X052995Y016033D01*
X052995Y015875D02*
X051630Y015875D01*
X051630Y015716D02*
X052995Y015716D01*
X052995Y015558D02*
X051630Y015558D01*
X051630Y015399D02*
X052995Y015399D01*
X052995Y015241D02*
X051630Y015241D01*
X051630Y015082D02*
X052995Y015082D01*
X052995Y014924D02*
X051592Y014924D01*
X051473Y014765D02*
X052995Y014765D01*
X052995Y014607D02*
X051315Y014607D01*
X051156Y014448D02*
X051616Y014448D01*
X051509Y014290D02*
X050998Y014290D01*
X050839Y014131D02*
X051502Y014131D01*
X051502Y013973D02*
X050681Y013973D01*
X050522Y013814D02*
X051502Y013814D01*
X051532Y013656D02*
X050364Y013656D01*
X050205Y013497D02*
X050839Y013497D01*
X051413Y013497D02*
X051570Y013497D01*
X052430Y013497D02*
X052995Y013497D01*
X052995Y013339D02*
X052430Y013339D01*
X052430Y013180D02*
X052995Y013180D01*
X052995Y013022D02*
X052422Y013022D01*
X052345Y012863D02*
X052995Y012863D01*
X052995Y012705D02*
X052292Y012705D01*
X052210Y012546D02*
X052995Y012546D01*
X052995Y012388D02*
X049500Y012388D01*
X049500Y012546D02*
X050790Y012546D01*
X051462Y012546D02*
X051538Y012546D01*
X051120Y011754D02*
X052995Y011754D01*
X052995Y011912D02*
X049500Y011912D01*
X049500Y011754D02*
X049880Y011754D01*
X049736Y011595D02*
X049500Y011595D01*
X049500Y012071D02*
X052995Y012071D01*
X052995Y012229D02*
X049500Y012229D01*
X049720Y010961D02*
X049199Y010961D01*
X049028Y010803D02*
X049802Y010803D01*
X048682Y010644D02*
X052995Y010644D01*
X052995Y010486D02*
X046970Y010486D01*
X047098Y010327D02*
X052995Y010327D01*
X052995Y010169D02*
X047111Y010169D01*
X047111Y010010D02*
X052995Y010010D01*
X052995Y009852D02*
X047111Y009852D01*
X047111Y009693D02*
X052995Y009693D01*
X052995Y009535D02*
X047111Y009535D01*
X047111Y009376D02*
X052995Y009376D01*
X052995Y009218D02*
X047031Y009218D01*
X047069Y008742D02*
X052995Y008742D01*
X052995Y008584D02*
X047111Y008584D01*
X047111Y008425D02*
X052995Y008425D01*
X052995Y008267D02*
X047111Y008267D01*
X047111Y008108D02*
X052995Y008108D01*
X052995Y007950D02*
X047111Y007950D01*
X047111Y007791D02*
X052995Y007791D01*
X052995Y007633D02*
X047081Y007633D01*
X047563Y006999D02*
X037095Y006999D01*
X037279Y007092D02*
X037279Y007092D01*
X036853Y006875D01*
X036853Y006875D01*
X036380Y006800D01*
X036380Y006800D01*
X035907Y006875D01*
X035907Y006875D01*
X035481Y007092D01*
X035481Y007092D01*
X035142Y007431D01*
X035142Y007431D01*
X034925Y007857D01*
X034925Y007857D01*
X034850Y008330D01*
X034850Y008330D01*
X034925Y008803D01*
X034925Y008803D01*
X035142Y009229D01*
X035142Y009229D01*
X035481Y009568D01*
X035481Y009568D01*
X035907Y009785D01*
X035907Y009785D01*
X036380Y009860D01*
X036380Y009860D01*
X036853Y009785D01*
X037279Y009568D01*
X037618Y009229D01*
X037618Y009229D01*
X037835Y008803D01*
X037835Y008803D01*
X037910Y008330D01*
X037835Y007857D01*
X037618Y007431D01*
X037618Y007431D01*
X037279Y007092D01*
X037344Y007157D02*
X047722Y007157D01*
X047744Y007179D02*
X047545Y006980D01*
X047404Y006736D01*
X047331Y006464D01*
X047331Y006182D01*
X047404Y005910D01*
X047545Y005666D01*
X047744Y005466D01*
X047988Y005325D01*
X048261Y005252D01*
X048543Y005252D01*
X048815Y005325D01*
X049059Y005466D01*
X049258Y005666D01*
X049399Y005910D01*
X049472Y006182D01*
X049472Y006464D01*
X049399Y006736D01*
X049258Y006980D01*
X049059Y007179D01*
X048815Y007320D01*
X048543Y007393D01*
X048261Y007393D01*
X047988Y007320D01*
X047744Y007179D01*
X047980Y007316D02*
X037503Y007316D01*
X037640Y007474D02*
X052995Y007474D01*
X052995Y007316D02*
X048823Y007316D01*
X049081Y007157D02*
X052995Y007157D01*
X052995Y006999D02*
X049240Y006999D01*
X049339Y006840D02*
X052995Y006840D01*
X052995Y006682D02*
X049414Y006682D01*
X049456Y006523D02*
X052995Y006523D01*
X052995Y006365D02*
X049472Y006365D01*
X049472Y006206D02*
X052995Y006206D01*
X052995Y006048D02*
X049436Y006048D01*
X049387Y005889D02*
X052995Y005889D01*
X052995Y005731D02*
X049296Y005731D01*
X049165Y005572D02*
X052995Y005572D01*
X052995Y005414D02*
X048968Y005414D01*
X048553Y005255D02*
X052995Y005255D01*
X052995Y005097D02*
X001005Y005097D01*
X001005Y005255D02*
X048250Y005255D01*
X047835Y005414D02*
X001005Y005414D01*
X001005Y005572D02*
X047638Y005572D01*
X047507Y005731D02*
X001005Y005731D01*
X001005Y005889D02*
X047416Y005889D01*
X047367Y006048D02*
X001005Y006048D01*
X001005Y006206D02*
X047331Y006206D01*
X047331Y006365D02*
X001005Y006365D01*
X001005Y006523D02*
X047347Y006523D01*
X047389Y006682D02*
X001005Y006682D01*
X001005Y006840D02*
X012127Y006840D01*
X011907Y006875D02*
X012380Y006800D01*
X012853Y006875D01*
X013279Y007092D01*
X013279Y007092D01*
X013618Y007431D01*
X013835Y007857D01*
X013910Y008330D01*
X013835Y008803D01*
X013618Y009229D01*
X013618Y009229D01*
X013279Y009568D01*
X012853Y009785D01*
X012853Y009785D01*
X012380Y009860D01*
X011907Y009785D01*
X011481Y009568D01*
X011481Y009568D01*
X011142Y009229D01*
X010925Y008803D01*
X010925Y008803D01*
X010850Y008330D01*
X010850Y008330D01*
X010925Y007857D01*
X011142Y007431D01*
X011481Y007092D01*
X011907Y006875D01*
X011907Y006875D01*
X011665Y006999D02*
X001005Y006999D01*
X001005Y007157D02*
X011416Y007157D01*
X011481Y007092D02*
X011481Y007092D01*
X011257Y007316D02*
X001005Y007316D01*
X001005Y007474D02*
X011120Y007474D01*
X011142Y007431D02*
X011142Y007431D01*
X011039Y007633D02*
X001005Y007633D01*
X001005Y007791D02*
X010959Y007791D01*
X010925Y007857D02*
X010925Y007857D01*
X010910Y007950D02*
X001005Y007950D01*
X001005Y008108D02*
X010885Y008108D01*
X010860Y008267D02*
X001005Y008267D01*
X001005Y008425D02*
X010865Y008425D01*
X010890Y008584D02*
X001005Y008584D01*
X001005Y008742D02*
X010915Y008742D01*
X010975Y008901D02*
X001005Y008901D01*
X001005Y009059D02*
X011055Y009059D01*
X011136Y009218D02*
X001005Y009218D01*
X001005Y009376D02*
X011289Y009376D01*
X011142Y009229D02*
X011142Y009229D01*
X011447Y009535D02*
X001005Y009535D01*
X001005Y009693D02*
X011726Y009693D01*
X011907Y009785D02*
X011907Y009785D01*
X011732Y009990D02*
X012060Y010318D01*
X012060Y010782D01*
X011792Y011050D01*
X012060Y011318D01*
X012060Y011782D01*
X011792Y012050D01*
X012060Y012318D01*
X012060Y012782D01*
X011792Y013050D01*
X012060Y013318D01*
X012060Y013782D01*
X011792Y014050D01*
X012060Y014318D01*
X012060Y014782D01*
X011792Y015050D01*
X012060Y015318D01*
X012060Y015782D01*
X011792Y016050D01*
X012060Y016318D01*
X012060Y016782D01*
X011732Y017110D01*
X011268Y017110D01*
X010940Y016782D01*
X010940Y016318D01*
X011208Y016050D01*
X010940Y015782D01*
X010940Y015318D01*
X011208Y015050D01*
X010940Y014782D01*
X010940Y014318D01*
X011208Y014050D01*
X010940Y013782D01*
X010940Y013318D01*
X011208Y013050D01*
X010940Y012782D01*
X010940Y012318D01*
X011208Y012050D01*
X010940Y011782D01*
X010940Y011318D01*
X011208Y011050D01*
X010940Y010782D01*
X010940Y010318D01*
X011268Y009990D01*
X011732Y009990D01*
X011752Y010010D02*
X013248Y010010D01*
X013268Y009990D02*
X013732Y009990D01*
X014060Y010318D01*
X014060Y010782D01*
X013792Y011050D01*
X014060Y011318D01*
X014060Y011782D01*
X013792Y012050D01*
X014060Y012318D01*
X014060Y012782D01*
X013792Y013050D01*
X014060Y013318D01*
X014060Y013782D01*
X013792Y014050D01*
X014060Y014318D01*
X014060Y014782D01*
X013792Y015050D01*
X014060Y015318D01*
X014060Y015782D01*
X013792Y016050D01*
X014060Y016318D01*
X014060Y016782D01*
X013732Y017110D01*
X013268Y017110D01*
X012940Y016782D01*
X012940Y016318D01*
X013208Y016050D01*
X012940Y015782D01*
X012940Y015318D01*
X013208Y015050D01*
X012940Y014782D01*
X012940Y014318D01*
X013208Y014050D01*
X012940Y013782D01*
X012940Y013318D01*
X013208Y013050D01*
X012940Y012782D01*
X012940Y012318D01*
X013208Y012050D01*
X012940Y011782D01*
X012940Y011318D01*
X013208Y011050D01*
X012940Y010782D01*
X012940Y010318D01*
X013268Y009990D01*
X013090Y010169D02*
X011910Y010169D01*
X012060Y010327D02*
X012940Y010327D01*
X012940Y010486D02*
X012060Y010486D01*
X012060Y010644D02*
X012940Y010644D01*
X012961Y010803D02*
X012039Y010803D01*
X011881Y010961D02*
X013119Y010961D01*
X013139Y011120D02*
X011861Y011120D01*
X012020Y011278D02*
X012980Y011278D01*
X012940Y011437D02*
X012060Y011437D01*
X012060Y011595D02*
X012940Y011595D01*
X012940Y011754D02*
X012060Y011754D01*
X011930Y011912D02*
X013070Y011912D01*
X013188Y012071D02*
X011812Y012071D01*
X011971Y012229D02*
X013029Y012229D01*
X012940Y012388D02*
X012060Y012388D01*
X012060Y012546D02*
X012940Y012546D01*
X012940Y012705D02*
X012060Y012705D01*
X011979Y012863D02*
X013021Y012863D01*
X013180Y013022D02*
X011820Y013022D01*
X011922Y013180D02*
X013078Y013180D01*
X012940Y013339D02*
X012060Y013339D01*
X012060Y013497D02*
X012940Y013497D01*
X012940Y013656D02*
X012060Y013656D01*
X012028Y013814D02*
X012972Y013814D01*
X013131Y013973D02*
X011869Y013973D01*
X011873Y014131D02*
X013127Y014131D01*
X012969Y014290D02*
X012031Y014290D01*
X012060Y014448D02*
X012940Y014448D01*
X012940Y014607D02*
X012060Y014607D01*
X012060Y014765D02*
X012940Y014765D01*
X013082Y014924D02*
X011918Y014924D01*
X011824Y015082D02*
X013176Y015082D01*
X013018Y015241D02*
X011982Y015241D01*
X012060Y015399D02*
X012940Y015399D01*
X012940Y015558D02*
X012060Y015558D01*
X012060Y015716D02*
X012940Y015716D01*
X013033Y015875D02*
X011967Y015875D01*
X011809Y016033D02*
X013191Y016033D01*
X013067Y016192D02*
X011933Y016192D01*
X012060Y016350D02*
X012940Y016350D01*
X012940Y016509D02*
X012060Y016509D01*
X012060Y016667D02*
X012940Y016667D01*
X012984Y016826D02*
X012016Y016826D01*
X011858Y016984D02*
X013142Y016984D01*
X013858Y016984D02*
X023142Y016984D01*
X023268Y017110D02*
X022940Y016782D01*
X022940Y016318D01*
X023208Y016050D01*
X022940Y015782D01*
X022940Y015318D01*
X023208Y015050D01*
X022940Y014782D01*
X022940Y014318D01*
X023208Y014050D01*
X022940Y013782D01*
X022940Y013318D01*
X023208Y013050D01*
X022940Y012782D01*
X022940Y012318D01*
X023208Y012050D01*
X022940Y011782D01*
X022940Y011318D01*
X023208Y011050D01*
X022940Y010782D01*
X022940Y010318D01*
X023268Y009990D01*
X023732Y009990D01*
X024060Y010318D01*
X024060Y010782D01*
X023792Y011050D01*
X024060Y011318D01*
X024060Y011782D01*
X023792Y012050D01*
X024060Y012318D01*
X024060Y012782D01*
X023792Y013050D01*
X024060Y013318D01*
X024060Y013782D01*
X023792Y014050D01*
X024060Y014318D01*
X024060Y014782D01*
X023792Y015050D01*
X024060Y015318D01*
X024060Y015782D01*
X023792Y016050D01*
X024060Y016318D01*
X024060Y016782D01*
X023732Y017110D01*
X023268Y017110D01*
X022984Y016826D02*
X014016Y016826D01*
X014060Y016667D02*
X022940Y016667D01*
X022940Y016509D02*
X014060Y016509D01*
X014060Y016350D02*
X022940Y016350D01*
X023067Y016192D02*
X013933Y016192D01*
X013809Y016033D02*
X023191Y016033D01*
X023033Y015875D02*
X013967Y015875D01*
X014060Y015716D02*
X022940Y015716D01*
X022940Y015558D02*
X014060Y015558D01*
X014060Y015399D02*
X022940Y015399D01*
X023018Y015241D02*
X013982Y015241D01*
X013824Y015082D02*
X023176Y015082D01*
X023082Y014924D02*
X013918Y014924D01*
X014060Y014765D02*
X022940Y014765D01*
X022940Y014607D02*
X014060Y014607D01*
X014060Y014448D02*
X022940Y014448D01*
X022969Y014290D02*
X014031Y014290D01*
X013873Y014131D02*
X023127Y014131D01*
X023131Y013973D02*
X013869Y013973D01*
X014028Y013814D02*
X022972Y013814D01*
X022940Y013656D02*
X014060Y013656D01*
X014060Y013497D02*
X022940Y013497D01*
X022940Y013339D02*
X014060Y013339D01*
X013922Y013180D02*
X023078Y013180D01*
X023180Y013022D02*
X013820Y013022D01*
X013979Y012863D02*
X023021Y012863D01*
X022940Y012705D02*
X014060Y012705D01*
X014060Y012546D02*
X022940Y012546D01*
X022940Y012388D02*
X014060Y012388D01*
X013971Y012229D02*
X023029Y012229D01*
X023188Y012071D02*
X013812Y012071D01*
X013930Y011912D02*
X023070Y011912D01*
X022940Y011754D02*
X014060Y011754D01*
X014060Y011595D02*
X022940Y011595D01*
X022940Y011437D02*
X014060Y011437D01*
X014020Y011278D02*
X022980Y011278D01*
X023139Y011120D02*
X013861Y011120D01*
X013881Y010961D02*
X023119Y010961D01*
X022961Y010803D02*
X014039Y010803D01*
X014060Y010644D02*
X022940Y010644D01*
X022940Y010486D02*
X014060Y010486D01*
X014060Y010327D02*
X022940Y010327D01*
X023090Y010169D02*
X013910Y010169D01*
X013752Y010010D02*
X018346Y010010D01*
X018395Y010030D02*
X018200Y009949D01*
X018051Y009800D01*
X017970Y009605D01*
X017970Y009366D01*
X017948Y009344D01*
X017905Y009241D01*
X017905Y007555D01*
X017948Y007452D01*
X018026Y007373D01*
X018129Y007330D01*
X018871Y007330D01*
X018974Y007373D01*
X019052Y007452D01*
X019095Y007555D01*
X019095Y008970D01*
X019605Y008970D01*
X019800Y009051D01*
X019949Y009200D01*
X020030Y009395D01*
X020030Y009605D01*
X019949Y009800D01*
X019800Y009949D01*
X019605Y010030D01*
X018395Y010030D01*
X018102Y009852D02*
X012434Y009852D01*
X012380Y009860D02*
X012380Y009860D01*
X012326Y009852D02*
X001005Y009852D01*
X001005Y010010D02*
X011248Y010010D01*
X011090Y010169D02*
X001005Y010169D01*
X001005Y010327D02*
X010940Y010327D01*
X010940Y010486D02*
X001005Y010486D01*
X001005Y010644D02*
X010940Y010644D01*
X010961Y010803D02*
X001005Y010803D01*
X001005Y010961D02*
X011119Y010961D01*
X011139Y011120D02*
X001005Y011120D01*
X001005Y011278D02*
X010980Y011278D01*
X010940Y011437D02*
X001005Y011437D01*
X001005Y011595D02*
X010940Y011595D01*
X010940Y011754D02*
X001005Y011754D01*
X001005Y011912D02*
X011070Y011912D01*
X011188Y012071D02*
X001005Y012071D01*
X001005Y012229D02*
X011029Y012229D01*
X010940Y012388D02*
X001005Y012388D01*
X001005Y012546D02*
X010940Y012546D01*
X010940Y012705D02*
X001005Y012705D01*
X001005Y012863D02*
X011021Y012863D01*
X011180Y013022D02*
X001005Y013022D01*
X001005Y013180D02*
X011078Y013180D01*
X010940Y013339D02*
X001005Y013339D01*
X001005Y013497D02*
X010940Y013497D01*
X010940Y013656D02*
X001005Y013656D01*
X001005Y013814D02*
X010972Y013814D01*
X011131Y013973D02*
X001005Y013973D01*
X001005Y014131D02*
X011127Y014131D01*
X010969Y014290D02*
X001005Y014290D01*
X001005Y014448D02*
X010940Y014448D01*
X010940Y014607D02*
X001005Y014607D01*
X001005Y014765D02*
X010940Y014765D01*
X011082Y014924D02*
X001005Y014924D01*
X001005Y015082D02*
X011176Y015082D01*
X011018Y015241D02*
X001005Y015241D01*
X001005Y015399D02*
X010940Y015399D01*
X010940Y015558D02*
X001005Y015558D01*
X001005Y015716D02*
X010940Y015716D01*
X011033Y015875D02*
X001005Y015875D01*
X001005Y016033D02*
X011191Y016033D01*
X011067Y016192D02*
X001005Y016192D01*
X001005Y016350D02*
X010940Y016350D01*
X010940Y016509D02*
X001005Y016509D01*
X001005Y016667D02*
X010940Y016667D01*
X010984Y016826D02*
X001005Y016826D01*
X001005Y016984D02*
X011142Y016984D01*
X011165Y018094D02*
X001005Y018094D01*
X001005Y018252D02*
X011006Y018252D01*
X010940Y018411D02*
X001005Y018411D01*
X001005Y018569D02*
X010940Y018569D01*
X010940Y018728D02*
X001005Y018728D01*
X001005Y018886D02*
X011044Y018886D01*
X011203Y019045D02*
X001005Y019045D01*
X001005Y019203D02*
X011055Y019203D01*
X010940Y019362D02*
X001005Y019362D01*
X001005Y019520D02*
X010940Y019520D01*
X010940Y019679D02*
X001005Y019679D01*
X001005Y019837D02*
X010995Y019837D01*
X011154Y019996D02*
X001005Y019996D01*
X001005Y020154D02*
X011104Y020154D01*
X010946Y020313D02*
X001005Y020313D01*
X001005Y020471D02*
X010940Y020471D01*
X010940Y020630D02*
X001005Y020630D01*
X001005Y020788D02*
X010946Y020788D01*
X011105Y020947D02*
X001005Y020947D01*
X001005Y021105D02*
X011153Y021105D01*
X010995Y021264D02*
X001005Y021264D01*
X001005Y021422D02*
X010940Y021422D01*
X010940Y021581D02*
X001005Y021581D01*
X001005Y021739D02*
X010940Y021739D01*
X011056Y021898D02*
X001005Y021898D01*
X001005Y022056D02*
X011202Y022056D01*
X011044Y022215D02*
X001005Y022215D01*
X001005Y022373D02*
X010940Y022373D01*
X010940Y022532D02*
X001005Y022532D01*
X001005Y022690D02*
X010940Y022690D01*
X011007Y022849D02*
X001005Y022849D01*
X001005Y023007D02*
X011165Y023007D01*
X011093Y023166D02*
X001005Y023166D01*
X001005Y023324D02*
X010940Y023324D01*
X010940Y023483D02*
X001005Y023483D01*
X001005Y023641D02*
X010940Y023641D01*
X010958Y023800D02*
X001005Y023800D01*
X001005Y023958D02*
X011116Y023958D01*
X011142Y024117D02*
X001005Y024117D01*
X001005Y024275D02*
X010983Y024275D01*
X010940Y024434D02*
X001005Y024434D01*
X001005Y024592D02*
X010940Y024592D01*
X010940Y024751D02*
X001005Y024751D01*
X001005Y024909D02*
X011067Y024909D01*
X011191Y025068D02*
X001005Y025068D01*
X001005Y025226D02*
X011032Y025226D01*
X010940Y025385D02*
X001005Y025385D01*
X001005Y025543D02*
X010940Y025543D01*
X010940Y025702D02*
X001005Y025702D01*
X001005Y025860D02*
X011018Y025860D01*
X011177Y026019D02*
X001005Y026019D01*
X001005Y026177D02*
X011081Y026177D01*
X010940Y026336D02*
X001005Y026336D01*
X001005Y026494D02*
X010940Y026494D01*
X010940Y026653D02*
X001005Y026653D01*
X001005Y026811D02*
X010969Y026811D01*
X011128Y026970D02*
X001005Y026970D01*
X001005Y027128D02*
X011130Y027128D01*
X010971Y027287D02*
X001005Y027287D01*
X001005Y027445D02*
X010940Y027445D01*
X010940Y027604D02*
X001005Y027604D01*
X001005Y027762D02*
X010940Y027762D01*
X011079Y027921D02*
X001005Y027921D01*
X001005Y028079D02*
X011179Y028079D01*
X011020Y028238D02*
X001005Y028238D01*
X001005Y028396D02*
X010940Y028396D01*
X010940Y028555D02*
X001005Y028555D01*
X001005Y028713D02*
X010940Y028713D01*
X011030Y028872D02*
X001005Y028872D01*
X001005Y029030D02*
X011188Y029030D01*
X011069Y029189D02*
X001005Y029189D01*
X001005Y029347D02*
X010940Y029347D01*
X010940Y029506D02*
X001005Y029506D01*
X001005Y029664D02*
X010940Y029664D01*
X010981Y029823D02*
X001005Y029823D01*
X001005Y029981D02*
X011139Y029981D01*
X011118Y030140D02*
X001005Y030140D01*
X001005Y030298D02*
X010960Y030298D01*
X010940Y030457D02*
X001005Y030457D01*
X001005Y030615D02*
X010940Y030615D01*
X010940Y030774D02*
X001005Y030774D01*
X001005Y030932D02*
X011090Y030932D01*
X011167Y031091D02*
X001005Y031091D01*
X001005Y031249D02*
X011009Y031249D01*
X010940Y031408D02*
X001005Y031408D01*
X001005Y031566D02*
X010940Y031566D01*
X010940Y031725D02*
X001005Y031725D01*
X001005Y031883D02*
X011041Y031883D01*
X011200Y032042D02*
X001005Y032042D01*
X001005Y032200D02*
X011058Y032200D01*
X010940Y032359D02*
X001005Y032359D01*
X001005Y032517D02*
X010940Y032517D01*
X010940Y032676D02*
X001005Y032676D01*
X001005Y032834D02*
X010992Y032834D01*
X011151Y032993D02*
X001005Y032993D01*
X001005Y033151D02*
X011107Y033151D01*
X010948Y033310D02*
X001005Y033310D01*
X001005Y033468D02*
X010940Y033468D01*
X010940Y033627D02*
X001005Y033627D01*
X001005Y033785D02*
X010943Y033785D01*
X011102Y033944D02*
X001005Y033944D01*
X001005Y034102D02*
X011156Y034102D01*
X010997Y034261D02*
X001005Y034261D01*
X001005Y034419D02*
X010940Y034419D01*
X010940Y034578D02*
X001005Y034578D01*
X001005Y034736D02*
X010940Y034736D01*
X011053Y034895D02*
X001005Y034895D01*
X001005Y035053D02*
X011205Y035053D01*
X011046Y035212D02*
X001005Y035212D01*
X001005Y035370D02*
X010940Y035370D01*
X010940Y035529D02*
X001005Y035529D01*
X001005Y035687D02*
X010940Y035687D01*
X011004Y035846D02*
X001005Y035846D01*
X001005Y036004D02*
X011162Y036004D01*
X011095Y036163D02*
X001005Y036163D01*
X001005Y036321D02*
X010940Y036321D01*
X010940Y036480D02*
X001005Y036480D01*
X001005Y036638D02*
X010940Y036638D01*
X010955Y036797D02*
X001005Y036797D01*
X001005Y036955D02*
X011113Y036955D01*
X011144Y037114D02*
X001005Y037114D01*
X001005Y037272D02*
X010986Y037272D01*
X010940Y037431D02*
X001005Y037431D01*
X001005Y037589D02*
X010940Y037589D01*
X010940Y037748D02*
X001005Y037748D01*
X001005Y037906D02*
X011064Y037906D01*
X011193Y038065D02*
X001005Y038065D01*
X001005Y038223D02*
X011035Y038223D01*
X010940Y038382D02*
X001005Y038382D01*
X001005Y038540D02*
X010940Y038540D01*
X010940Y038699D02*
X001005Y038699D01*
X001005Y038857D02*
X011015Y038857D01*
X011174Y039016D02*
X001005Y039016D01*
X001005Y039174D02*
X011084Y039174D01*
X010940Y039333D02*
X001005Y039333D01*
X001005Y039491D02*
X010940Y039491D01*
X010940Y039650D02*
X001005Y039650D01*
X001005Y039808D02*
X010966Y039808D01*
X011125Y039967D02*
X001005Y039967D01*
X001005Y040125D02*
X011133Y040125D01*
X010974Y040284D02*
X001005Y040284D01*
X001005Y040442D02*
X010940Y040442D01*
X010940Y040601D02*
X001005Y040601D01*
X001005Y040759D02*
X010940Y040759D01*
X011076Y040918D02*
X001005Y040918D01*
X001005Y041076D02*
X011234Y041076D01*
X011766Y041076D02*
X013234Y041076D01*
X013076Y040918D02*
X011924Y040918D01*
X012060Y040759D02*
X012940Y040759D01*
X012940Y040601D02*
X012060Y040601D01*
X012060Y040442D02*
X012940Y040442D01*
X012974Y040284D02*
X012026Y040284D01*
X011867Y040125D02*
X013133Y040125D01*
X013125Y039967D02*
X011875Y039967D01*
X012034Y039808D02*
X012966Y039808D01*
X012940Y039650D02*
X012060Y039650D01*
X012060Y039491D02*
X012940Y039491D01*
X012940Y039333D02*
X012060Y039333D01*
X011916Y039174D02*
X013084Y039174D01*
X013174Y039016D02*
X011826Y039016D01*
X011985Y038857D02*
X013015Y038857D01*
X012940Y038699D02*
X012060Y038699D01*
X012060Y038540D02*
X012940Y038540D01*
X012940Y038382D02*
X012060Y038382D01*
X011965Y038223D02*
X013035Y038223D01*
X013193Y038065D02*
X011807Y038065D01*
X011936Y037906D02*
X013064Y037906D01*
X012940Y037748D02*
X012060Y037748D01*
X012060Y037589D02*
X012940Y037589D01*
X012940Y037431D02*
X012060Y037431D01*
X012014Y037272D02*
X012986Y037272D01*
X013144Y037114D02*
X011856Y037114D01*
X011887Y036955D02*
X013113Y036955D01*
X012955Y036797D02*
X012045Y036797D01*
X012060Y036638D02*
X012940Y036638D01*
X012940Y036480D02*
X012060Y036480D01*
X012060Y036321D02*
X012940Y036321D01*
X013095Y036163D02*
X011905Y036163D01*
X011838Y036004D02*
X013162Y036004D01*
X013004Y035846D02*
X011996Y035846D01*
X012060Y035687D02*
X012940Y035687D01*
X012940Y035529D02*
X012060Y035529D01*
X012060Y035370D02*
X012940Y035370D01*
X013046Y035212D02*
X011954Y035212D01*
X011795Y035053D02*
X013205Y035053D01*
X013053Y034895D02*
X011947Y034895D01*
X012060Y034736D02*
X012940Y034736D01*
X012940Y034578D02*
X012060Y034578D01*
X012060Y034419D02*
X012940Y034419D01*
X012997Y034261D02*
X012003Y034261D01*
X011844Y034102D02*
X013156Y034102D01*
X013102Y033944D02*
X011898Y033944D01*
X012057Y033785D02*
X012943Y033785D01*
X012940Y033627D02*
X012060Y033627D01*
X012060Y033468D02*
X012940Y033468D01*
X012807Y033310D02*
X012052Y033310D01*
X011893Y033151D02*
X012642Y033151D01*
X012483Y032993D02*
X011849Y032993D01*
X011500Y032550D02*
X011550Y032500D01*
X012500Y032500D01*
X013000Y033000D01*
X024500Y033000D01*
X025000Y032500D01*
X025450Y032500D01*
X025500Y032550D01*
X025550Y032500D01*
X035500Y032500D01*
X035849Y032993D02*
X036483Y032993D01*
X036642Y033151D02*
X035893Y033151D01*
X036052Y033310D02*
X036807Y033310D01*
X036940Y033468D02*
X036060Y033468D01*
X036060Y033627D02*
X036940Y033627D01*
X036943Y033785D02*
X036057Y033785D01*
X035898Y033944D02*
X037102Y033944D01*
X037156Y034102D02*
X035844Y034102D01*
X036003Y034261D02*
X036997Y034261D01*
X036940Y034419D02*
X036060Y034419D01*
X036060Y034578D02*
X036940Y034578D01*
X036940Y034736D02*
X036060Y034736D01*
X035947Y034895D02*
X037053Y034895D01*
X037205Y035053D02*
X035795Y035053D01*
X035954Y035212D02*
X037046Y035212D01*
X036940Y035370D02*
X036060Y035370D01*
X036060Y035529D02*
X036940Y035529D01*
X036940Y035687D02*
X036060Y035687D01*
X035996Y035846D02*
X037004Y035846D01*
X037162Y036004D02*
X035838Y036004D01*
X035905Y036163D02*
X037095Y036163D01*
X036940Y036321D02*
X036060Y036321D01*
X036060Y036480D02*
X036940Y036480D01*
X036940Y036638D02*
X036060Y036638D01*
X036045Y036797D02*
X036955Y036797D01*
X037113Y036955D02*
X035887Y036955D01*
X035856Y037114D02*
X037144Y037114D01*
X036986Y037272D02*
X036014Y037272D01*
X036060Y037431D02*
X036940Y037431D01*
X036940Y037589D02*
X036060Y037589D01*
X036060Y037748D02*
X036940Y037748D01*
X037064Y037906D02*
X035936Y037906D01*
X035807Y038065D02*
X037193Y038065D01*
X037035Y038223D02*
X035965Y038223D01*
X036060Y038382D02*
X036940Y038382D01*
X036940Y038540D02*
X036060Y038540D01*
X036060Y038699D02*
X036940Y038699D01*
X037015Y038857D02*
X035985Y038857D01*
X035826Y039016D02*
X037174Y039016D01*
X037084Y039174D02*
X035916Y039174D01*
X036060Y039333D02*
X036940Y039333D01*
X036940Y039491D02*
X036060Y039491D01*
X036060Y039650D02*
X036940Y039650D01*
X036966Y039808D02*
X036034Y039808D01*
X035875Y039967D02*
X037125Y039967D01*
X037133Y040125D02*
X035867Y040125D01*
X036026Y040284D02*
X036974Y040284D01*
X036940Y040442D02*
X036060Y040442D01*
X036060Y040601D02*
X036940Y040601D01*
X036940Y040759D02*
X036060Y040759D01*
X035924Y040918D02*
X037076Y040918D01*
X037234Y041076D02*
X035766Y041076D01*
X037766Y041076D02*
X039420Y041076D01*
X039420Y040918D02*
X037924Y040918D01*
X038060Y040759D02*
X039421Y040759D01*
X039579Y040601D02*
X038060Y040601D01*
X038060Y040442D02*
X039622Y040442D01*
X039463Y040284D02*
X038026Y040284D01*
X037867Y040125D02*
X039420Y040125D01*
X039420Y039967D02*
X037875Y039967D01*
X038034Y039808D02*
X039420Y039808D01*
X039530Y039650D02*
X038060Y039650D01*
X038060Y039491D02*
X039671Y039491D01*
X039512Y039333D02*
X038060Y039333D01*
X037916Y039174D02*
X039420Y039174D01*
X039420Y039016D02*
X037826Y039016D01*
X037985Y038857D02*
X039420Y038857D01*
X039481Y038699D02*
X038060Y038699D01*
X038060Y038540D02*
X039640Y038540D01*
X039561Y038382D02*
X038060Y038382D01*
X037965Y038223D02*
X039420Y038223D01*
X039420Y038065D02*
X037807Y038065D01*
X037936Y037906D02*
X039420Y037906D01*
X039432Y037748D02*
X038060Y037748D01*
X038060Y037589D02*
X039591Y037589D01*
X039610Y037431D02*
X038060Y037431D01*
X038014Y037272D02*
X039452Y037272D01*
X039420Y037114D02*
X037856Y037114D01*
X037887Y036955D02*
X039420Y036955D01*
X039420Y036797D02*
X038045Y036797D01*
X038060Y036638D02*
X039542Y036638D01*
X039659Y036480D02*
X038060Y036480D01*
X038060Y036321D02*
X039501Y036321D01*
X039420Y036163D02*
X037905Y036163D01*
X037838Y036004D02*
X039420Y036004D01*
X039420Y035846D02*
X037996Y035846D01*
X038060Y035687D02*
X039493Y035687D01*
X039651Y035529D02*
X038060Y035529D01*
X038060Y035370D02*
X039550Y035370D01*
X039420Y035212D02*
X037954Y035212D01*
X037795Y035053D02*
X039420Y035053D01*
X039420Y034895D02*
X037947Y034895D01*
X038060Y034736D02*
X039444Y034736D01*
X039602Y034578D02*
X038060Y034578D01*
X038060Y034419D02*
X039599Y034419D01*
X039440Y034261D02*
X038003Y034261D01*
X037844Y034102D02*
X039420Y034102D01*
X039420Y033944D02*
X037898Y033944D01*
X038057Y033785D02*
X039420Y033785D01*
X039553Y033627D02*
X038060Y033627D01*
X038060Y033468D02*
X039712Y033468D01*
X040288Y033468D02*
X040712Y033468D01*
X040800Y033310D02*
X038193Y033310D01*
X038358Y033151D02*
X040642Y033151D01*
X040483Y032993D02*
X038517Y032993D01*
X038000Y032500D02*
X038500Y032000D01*
X041000Y032000D01*
X043500Y034500D01*
X047500Y034500D01*
X047500Y033500D02*
X049000Y035000D01*
X049000Y037000D01*
X050000Y038000D01*
X050000Y037000D02*
X049500Y036500D01*
X049500Y034500D01*
X047500Y032500D01*
X043500Y032500D01*
X042000Y031000D01*
X038500Y031000D01*
X038000Y031500D01*
X037500Y031500D01*
X037500Y031550D01*
X037450Y031500D01*
X037000Y031500D01*
X036500Y031000D01*
X025000Y031000D01*
X024500Y031500D01*
X023550Y031500D01*
X023500Y031550D01*
X023450Y031500D01*
X013500Y031500D01*
X013500Y031550D01*
X013000Y032000D02*
X024500Y032000D01*
X025000Y031500D01*
X025500Y031500D01*
X025500Y031550D01*
X025550Y031500D01*
X035450Y031500D01*
X035500Y031550D01*
X036550Y031550D01*
X037000Y032000D01*
X038000Y032000D01*
X038500Y031500D01*
X041500Y031500D01*
X043500Y033500D01*
X047500Y033500D01*
X047140Y029441D02*
X047140Y027928D01*
X047182Y027827D01*
X046860Y028149D01*
X046860Y029441D01*
X046887Y029430D01*
X047113Y029430D01*
X047140Y029441D01*
X047140Y029347D02*
X046860Y029347D01*
X046860Y029189D02*
X047140Y029189D01*
X047140Y029030D02*
X046860Y029030D01*
X046860Y028872D02*
X047140Y028872D01*
X047140Y028713D02*
X046860Y028713D01*
X046860Y028555D02*
X047140Y028555D01*
X047140Y028396D02*
X046860Y028396D01*
X046860Y028238D02*
X047140Y028238D01*
X047140Y028079D02*
X046930Y028079D01*
X047089Y027921D02*
X047143Y027921D01*
X045838Y026653D02*
X041500Y026653D01*
X041500Y026811D02*
X045680Y026811D01*
X045521Y026970D02*
X041500Y026970D01*
X041500Y027128D02*
X045363Y027128D01*
X045204Y027287D02*
X041500Y027287D01*
X041500Y027445D02*
X045046Y027445D01*
X044887Y027604D02*
X041500Y027604D01*
X041500Y027762D02*
X044729Y027762D01*
X044570Y027921D02*
X041500Y027921D01*
X041500Y028079D02*
X044412Y028079D01*
X044253Y028238D02*
X041500Y028238D01*
X041500Y028396D02*
X044095Y028396D01*
X043639Y028555D02*
X041500Y028555D01*
X041500Y028713D02*
X043502Y028713D01*
X043436Y028872D02*
X041500Y028872D01*
X041500Y029030D02*
X043430Y029030D01*
X043302Y029189D02*
X041500Y029189D01*
X041500Y029347D02*
X043144Y029347D01*
X042985Y029506D02*
X041500Y029506D01*
X041500Y029664D02*
X042827Y029664D01*
X042668Y029823D02*
X041500Y029823D01*
X041500Y029981D02*
X042510Y029981D01*
X042351Y030140D02*
X041500Y030140D01*
X041000Y030140D02*
X037882Y030140D01*
X037861Y029981D02*
X041000Y029981D01*
X041000Y029823D02*
X038019Y029823D01*
X038060Y029664D02*
X041000Y029664D01*
X041000Y029506D02*
X038060Y029506D01*
X038060Y029347D02*
X041000Y029347D01*
X041000Y029189D02*
X037931Y029189D01*
X037812Y029030D02*
X041000Y029030D01*
X041000Y028872D02*
X037970Y028872D01*
X038060Y028713D02*
X041000Y028713D01*
X041000Y028555D02*
X038060Y028555D01*
X038060Y028396D02*
X041000Y028396D01*
X041000Y028238D02*
X037980Y028238D01*
X037821Y028079D02*
X041000Y028079D01*
X041000Y027921D02*
X037921Y027921D01*
X038060Y027762D02*
X041000Y027762D01*
X041000Y027604D02*
X038060Y027604D01*
X038060Y027445D02*
X041000Y027445D01*
X041000Y027287D02*
X038028Y027287D01*
X037870Y027128D02*
X041000Y027128D01*
X041000Y026970D02*
X037872Y026970D01*
X038031Y026811D02*
X041000Y026811D01*
X041000Y026653D02*
X038060Y026653D01*
X038060Y026494D02*
X041000Y026494D01*
X041000Y026336D02*
X038060Y026336D01*
X037919Y026177D02*
X041000Y026177D01*
X041000Y026019D02*
X037823Y026019D01*
X037982Y025860D02*
X041000Y025860D01*
X041000Y025702D02*
X038060Y025702D01*
X038060Y025543D02*
X041000Y025543D01*
X041000Y025385D02*
X038060Y025385D01*
X037968Y025226D02*
X041000Y025226D01*
X041000Y025068D02*
X037809Y025068D01*
X037933Y024909D02*
X041000Y024909D01*
X041000Y024751D02*
X038060Y024751D01*
X038060Y024592D02*
X041000Y024592D01*
X041000Y024434D02*
X038060Y024434D01*
X038017Y024275D02*
X041000Y024275D01*
X041000Y024117D02*
X037858Y024117D01*
X037884Y023958D02*
X041000Y023958D01*
X041000Y023800D02*
X038042Y023800D01*
X038060Y023641D02*
X041000Y023641D01*
X041000Y023483D02*
X038060Y023483D01*
X038060Y023324D02*
X041000Y023324D01*
X041000Y023166D02*
X037907Y023166D01*
X037835Y023007D02*
X041000Y023007D01*
X041000Y022849D02*
X037993Y022849D01*
X038060Y022690D02*
X041000Y022690D01*
X041000Y022532D02*
X038060Y022532D01*
X038060Y022373D02*
X041000Y022373D01*
X041000Y022215D02*
X037956Y022215D01*
X037798Y022056D02*
X041000Y022056D01*
X041000Y021898D02*
X037944Y021898D01*
X038060Y021739D02*
X041000Y021739D01*
X041000Y021581D02*
X038060Y021581D01*
X038060Y021422D02*
X041000Y021422D01*
X041000Y021264D02*
X038005Y021264D01*
X037847Y021105D02*
X041000Y021105D01*
X041000Y020947D02*
X037895Y020947D01*
X038054Y020788D02*
X041000Y020788D01*
X041000Y020630D02*
X038060Y020630D01*
X038060Y020471D02*
X041000Y020471D01*
X041000Y020313D02*
X038054Y020313D01*
X037896Y020154D02*
X041000Y020154D01*
X041000Y019996D02*
X037846Y019996D01*
X038005Y019837D02*
X041000Y019837D01*
X041000Y019679D02*
X038060Y019679D01*
X038060Y019520D02*
X041000Y019520D01*
X041000Y019362D02*
X038060Y019362D01*
X037945Y019203D02*
X041000Y019203D01*
X041000Y019045D02*
X037797Y019045D01*
X037956Y018886D02*
X041000Y018886D01*
X041000Y018728D02*
X038060Y018728D01*
X038060Y018569D02*
X041000Y018569D01*
X041000Y018411D02*
X038060Y018411D01*
X037994Y018252D02*
X041000Y018252D01*
X041000Y018094D02*
X037835Y018094D01*
X037165Y018094D02*
X035835Y018094D01*
X035994Y018252D02*
X037006Y018252D01*
X036940Y018411D02*
X036060Y018411D01*
X036060Y018569D02*
X036940Y018569D01*
X036940Y018728D02*
X036060Y018728D01*
X035956Y018886D02*
X037044Y018886D01*
X037203Y019045D02*
X035797Y019045D01*
X035945Y019203D02*
X037055Y019203D01*
X036940Y019362D02*
X036060Y019362D01*
X036060Y019520D02*
X036940Y019520D01*
X036940Y019679D02*
X036060Y019679D01*
X036005Y019837D02*
X036995Y019837D01*
X037154Y019996D02*
X035846Y019996D01*
X035896Y020154D02*
X037104Y020154D01*
X036946Y020313D02*
X036054Y020313D01*
X036060Y020471D02*
X036940Y020471D01*
X036940Y020630D02*
X036060Y020630D01*
X036054Y020788D02*
X036946Y020788D01*
X037105Y020947D02*
X035895Y020947D01*
X035847Y021105D02*
X037153Y021105D01*
X036995Y021264D02*
X036005Y021264D01*
X036060Y021422D02*
X036940Y021422D01*
X036940Y021581D02*
X036060Y021581D01*
X036060Y021739D02*
X036940Y021739D01*
X037056Y021898D02*
X035944Y021898D01*
X035798Y022056D02*
X037202Y022056D01*
X037044Y022215D02*
X035956Y022215D01*
X036060Y022373D02*
X036940Y022373D01*
X036940Y022532D02*
X036060Y022532D01*
X036060Y022690D02*
X036940Y022690D01*
X037007Y022849D02*
X035993Y022849D01*
X035835Y023007D02*
X037165Y023007D01*
X037093Y023166D02*
X035907Y023166D01*
X036060Y023324D02*
X036940Y023324D01*
X036940Y023483D02*
X036060Y023483D01*
X036060Y023641D02*
X036940Y023641D01*
X036958Y023800D02*
X036042Y023800D01*
X035884Y023958D02*
X037116Y023958D01*
X037142Y024117D02*
X035858Y024117D01*
X036017Y024275D02*
X036983Y024275D01*
X036940Y024434D02*
X036060Y024434D01*
X036060Y024592D02*
X036940Y024592D01*
X036940Y024751D02*
X036060Y024751D01*
X035933Y024909D02*
X037067Y024909D01*
X037191Y025068D02*
X035809Y025068D01*
X035968Y025226D02*
X037032Y025226D01*
X036940Y025385D02*
X036060Y025385D01*
X036060Y025543D02*
X036940Y025543D01*
X036940Y025702D02*
X036060Y025702D01*
X035982Y025860D02*
X037018Y025860D01*
X037177Y026019D02*
X035823Y026019D01*
X035919Y026177D02*
X037081Y026177D01*
X036940Y026336D02*
X036060Y026336D01*
X036060Y026494D02*
X036940Y026494D01*
X036940Y026653D02*
X036060Y026653D01*
X036031Y026811D02*
X036969Y026811D01*
X037128Y026970D02*
X035872Y026970D01*
X035870Y027128D02*
X037130Y027128D01*
X036971Y027287D02*
X036028Y027287D01*
X036060Y027445D02*
X036940Y027445D01*
X036940Y027604D02*
X036060Y027604D01*
X036500Y028000D02*
X037050Y028550D01*
X037500Y028550D01*
X037500Y028500D01*
X037179Y028079D02*
X037088Y028079D01*
X037079Y027921D02*
X036930Y027921D01*
X036940Y027762D02*
X036771Y027762D01*
X036500Y028000D02*
X025000Y028000D01*
X024500Y028500D01*
X023550Y028500D01*
X023500Y028550D01*
X023450Y028500D01*
X013500Y028500D01*
X013500Y028550D01*
X013821Y028079D02*
X023179Y028079D01*
X023079Y027921D02*
X013921Y027921D01*
X014060Y027762D02*
X022940Y027762D01*
X022940Y027604D02*
X014060Y027604D01*
X014060Y027445D02*
X022940Y027445D01*
X022971Y027287D02*
X014028Y027287D01*
X013870Y027128D02*
X023130Y027128D01*
X023128Y026970D02*
X013872Y026970D01*
X014031Y026811D02*
X022969Y026811D01*
X022940Y026653D02*
X014060Y026653D01*
X014060Y026494D02*
X022940Y026494D01*
X022940Y026336D02*
X014060Y026336D01*
X013919Y026177D02*
X023081Y026177D01*
X023177Y026019D02*
X013823Y026019D01*
X013982Y025860D02*
X023018Y025860D01*
X022940Y025702D02*
X014060Y025702D01*
X014060Y025543D02*
X022940Y025543D01*
X022940Y025385D02*
X014060Y025385D01*
X013968Y025226D02*
X023032Y025226D01*
X023191Y025068D02*
X013809Y025068D01*
X013933Y024909D02*
X023067Y024909D01*
X022940Y024751D02*
X014060Y024751D01*
X014060Y024592D02*
X022940Y024592D01*
X022940Y024434D02*
X014060Y024434D01*
X014017Y024275D02*
X022983Y024275D01*
X023142Y024117D02*
X013858Y024117D01*
X013884Y023958D02*
X023116Y023958D01*
X022958Y023800D02*
X014042Y023800D01*
X014060Y023641D02*
X022940Y023641D01*
X022940Y023483D02*
X014060Y023483D01*
X014060Y023324D02*
X022940Y023324D01*
X023093Y023166D02*
X013907Y023166D01*
X013835Y023007D02*
X023165Y023007D01*
X023007Y022849D02*
X013993Y022849D01*
X014060Y022690D02*
X022940Y022690D01*
X022940Y022532D02*
X014060Y022532D01*
X014060Y022373D02*
X022940Y022373D01*
X023044Y022215D02*
X013956Y022215D01*
X013798Y022056D02*
X023202Y022056D01*
X023056Y021898D02*
X013944Y021898D01*
X014060Y021739D02*
X022940Y021739D01*
X022940Y021581D02*
X014060Y021581D01*
X014060Y021422D02*
X022940Y021422D01*
X022995Y021264D02*
X014005Y021264D01*
X013847Y021105D02*
X023153Y021105D01*
X023105Y020947D02*
X013895Y020947D01*
X014054Y020788D02*
X022946Y020788D01*
X022940Y020630D02*
X014060Y020630D01*
X014060Y020471D02*
X022940Y020471D01*
X022946Y020313D02*
X014054Y020313D01*
X013896Y020154D02*
X023104Y020154D01*
X023154Y019996D02*
X013846Y019996D01*
X014005Y019837D02*
X022995Y019837D01*
X022940Y019679D02*
X014060Y019679D01*
X014060Y019520D02*
X022940Y019520D01*
X022940Y019362D02*
X014060Y019362D01*
X013945Y019203D02*
X023055Y019203D01*
X023203Y019045D02*
X013797Y019045D01*
X013956Y018886D02*
X023044Y018886D01*
X022940Y018728D02*
X014060Y018728D01*
X014060Y018569D02*
X022940Y018569D01*
X022940Y018411D02*
X014060Y018411D01*
X013994Y018252D02*
X023006Y018252D01*
X023165Y018094D02*
X013835Y018094D01*
X013165Y018094D02*
X011835Y018094D01*
X011994Y018252D02*
X013006Y018252D01*
X012940Y018411D02*
X012060Y018411D01*
X012060Y018569D02*
X012940Y018569D01*
X012940Y018728D02*
X012060Y018728D01*
X011956Y018886D02*
X013044Y018886D01*
X013203Y019045D02*
X011797Y019045D01*
X011945Y019203D02*
X013055Y019203D01*
X012940Y019362D02*
X012060Y019362D01*
X012060Y019520D02*
X012940Y019520D01*
X012940Y019679D02*
X012060Y019679D01*
X012005Y019837D02*
X012995Y019837D01*
X013154Y019996D02*
X011846Y019996D01*
X011896Y020154D02*
X013104Y020154D01*
X012946Y020313D02*
X012054Y020313D01*
X012060Y020471D02*
X012940Y020471D01*
X012940Y020630D02*
X012060Y020630D01*
X012054Y020788D02*
X012946Y020788D01*
X013105Y020947D02*
X011895Y020947D01*
X011847Y021105D02*
X013153Y021105D01*
X012995Y021264D02*
X012005Y021264D01*
X012060Y021422D02*
X012940Y021422D01*
X012940Y021581D02*
X012060Y021581D01*
X012060Y021739D02*
X012940Y021739D01*
X013056Y021898D02*
X011944Y021898D01*
X011798Y022056D02*
X013202Y022056D01*
X013044Y022215D02*
X011956Y022215D01*
X012060Y022373D02*
X012940Y022373D01*
X012940Y022532D02*
X012060Y022532D01*
X012060Y022690D02*
X012940Y022690D01*
X013007Y022849D02*
X011993Y022849D01*
X011835Y023007D02*
X013165Y023007D01*
X013093Y023166D02*
X011907Y023166D01*
X012060Y023324D02*
X012940Y023324D01*
X012940Y023483D02*
X012060Y023483D01*
X012060Y023641D02*
X012940Y023641D01*
X012958Y023800D02*
X012042Y023800D01*
X011884Y023958D02*
X013116Y023958D01*
X013142Y024117D02*
X011858Y024117D01*
X012017Y024275D02*
X012983Y024275D01*
X012940Y024434D02*
X012060Y024434D01*
X012060Y024592D02*
X012940Y024592D01*
X012940Y024751D02*
X012060Y024751D01*
X011933Y024909D02*
X013067Y024909D01*
X013191Y025068D02*
X011809Y025068D01*
X011968Y025226D02*
X013032Y025226D01*
X012940Y025385D02*
X012060Y025385D01*
X012060Y025543D02*
X012940Y025543D01*
X012940Y025702D02*
X012060Y025702D01*
X011982Y025860D02*
X013018Y025860D01*
X013177Y026019D02*
X011823Y026019D01*
X011919Y026177D02*
X013081Y026177D01*
X012940Y026336D02*
X012060Y026336D01*
X012060Y026494D02*
X012940Y026494D01*
X012940Y026653D02*
X012060Y026653D01*
X012031Y026811D02*
X012969Y026811D01*
X013128Y026970D02*
X011872Y026970D01*
X011870Y027128D02*
X013130Y027128D01*
X012971Y027287D02*
X012028Y027287D01*
X012060Y027445D02*
X012940Y027445D01*
X012940Y027604D02*
X012060Y027604D01*
X012060Y027762D02*
X012940Y027762D01*
X013079Y027921D02*
X011921Y027921D01*
X011821Y028079D02*
X013179Y028079D01*
X013020Y028238D02*
X012747Y028238D01*
X012905Y028396D02*
X012940Y028396D01*
X012500Y028500D02*
X013000Y029000D01*
X024500Y029000D01*
X025000Y028500D01*
X025450Y028500D01*
X025500Y028550D01*
X025550Y028500D01*
X035500Y028500D01*
X035500Y028550D01*
X035450Y029500D02*
X035500Y029550D01*
X035450Y029500D02*
X025550Y029500D01*
X025500Y029550D01*
X025500Y029500D01*
X025000Y029500D01*
X024500Y030000D01*
X013000Y030000D01*
X012550Y029550D01*
X011500Y029550D01*
X011500Y028550D02*
X011550Y028500D01*
X012500Y028500D01*
X013550Y029500D02*
X013500Y029550D01*
X013550Y029500D02*
X023500Y029500D01*
X023500Y029550D01*
X023550Y029500D01*
X024500Y029500D01*
X025000Y029000D01*
X036500Y029000D01*
X037050Y029550D01*
X037500Y029550D01*
X038040Y030298D02*
X038193Y030298D01*
X038500Y030500D02*
X042500Y030500D01*
X044000Y029000D01*
X047000Y026000D01*
X047000Y025500D01*
X046612Y025068D02*
X046388Y025068D01*
X046741Y024751D02*
X041500Y024751D01*
X041500Y024909D02*
X046900Y024909D01*
X046648Y024592D02*
X041500Y024592D01*
X041500Y024434D02*
X046640Y024434D01*
X046640Y024275D02*
X041500Y024275D01*
X041500Y024117D02*
X046640Y024117D01*
X046640Y023958D02*
X041500Y023958D01*
X041500Y023800D02*
X046640Y023800D01*
X046640Y023641D02*
X041500Y023641D01*
X041500Y023483D02*
X046640Y023483D01*
X046640Y023324D02*
X041500Y023324D01*
X041500Y023166D02*
X046640Y023166D01*
X046640Y023007D02*
X041500Y023007D01*
X041500Y022849D02*
X046640Y022849D01*
X046640Y022690D02*
X041500Y022690D01*
X041500Y022532D02*
X046640Y022532D01*
X046640Y022373D02*
X041500Y022373D01*
X041500Y022215D02*
X046640Y022215D01*
X046640Y022056D02*
X041500Y022056D01*
X041500Y021898D02*
X046640Y021898D01*
X046640Y021739D02*
X041500Y021739D01*
X041500Y021581D02*
X046640Y021581D01*
X046640Y021422D02*
X041500Y021422D01*
X041500Y021264D02*
X046640Y021264D01*
X046640Y021105D02*
X041500Y021105D01*
X041500Y020947D02*
X046640Y020947D01*
X046640Y020788D02*
X041500Y020788D01*
X041500Y020630D02*
X046640Y020630D01*
X046640Y020471D02*
X041500Y020471D01*
X041500Y020313D02*
X046640Y020313D01*
X046640Y020154D02*
X041500Y020154D01*
X041500Y019996D02*
X046640Y019996D01*
X046640Y019837D02*
X041500Y019837D01*
X041500Y019679D02*
X046640Y019679D01*
X046640Y019520D02*
X041500Y019520D01*
X041500Y019362D02*
X046640Y019362D01*
X046640Y019203D02*
X041500Y019203D01*
X041500Y019045D02*
X046640Y019045D01*
X046640Y018886D02*
X041500Y018886D01*
X041500Y018728D02*
X046640Y018728D01*
X046640Y018569D02*
X041500Y018569D01*
X041500Y018411D02*
X046640Y018411D01*
X046640Y018252D02*
X041500Y018252D01*
X041500Y018094D02*
X046640Y018094D01*
X046615Y017935D02*
X046385Y017935D01*
X045615Y017935D02*
X045385Y017935D01*
X044615Y017935D02*
X041500Y017935D01*
X041500Y017777D02*
X044487Y017777D01*
X044421Y017618D02*
X041500Y017618D01*
X041500Y017460D02*
X044420Y017460D01*
X044455Y017301D02*
X041500Y017301D01*
X041500Y017143D02*
X044537Y017143D01*
X044570Y016984D02*
X041500Y016984D01*
X041500Y016826D02*
X044570Y016826D01*
X044570Y016667D02*
X041500Y016667D01*
X041500Y016509D02*
X044570Y016509D01*
X044570Y016350D02*
X041500Y016350D01*
X041500Y016192D02*
X044290Y016192D01*
X044258Y016033D02*
X041500Y016033D01*
X041500Y015875D02*
X044258Y015875D01*
X044258Y015716D02*
X041500Y015716D01*
X041500Y015558D02*
X044327Y015558D01*
X044332Y014448D02*
X042552Y014448D01*
X042710Y014290D02*
X044258Y014290D01*
X044258Y014131D02*
X042869Y014131D01*
X043027Y013973D02*
X044258Y013973D01*
X044288Y013814D02*
X043186Y013814D01*
X043344Y013656D02*
X044967Y013656D01*
X045985Y013973D02*
X049464Y013973D01*
X049623Y014131D02*
X045985Y014131D01*
X045985Y014290D02*
X049781Y014290D01*
X049940Y014448D02*
X045943Y014448D01*
X046755Y012863D02*
X042380Y012863D01*
X042380Y012705D02*
X046596Y012705D01*
X046438Y012546D02*
X042380Y012546D01*
X042380Y012388D02*
X046279Y012388D01*
X046121Y012229D02*
X042380Y012229D01*
X042380Y012071D02*
X045962Y012071D01*
X045804Y011912D02*
X042380Y011912D01*
X042380Y011884D02*
X042380Y013371D01*
X042322Y013511D01*
X042193Y013639D01*
X042193Y013733D01*
X042151Y013836D01*
X042072Y013915D01*
X041969Y013957D01*
X041621Y013957D01*
X041519Y013915D01*
X041500Y013896D01*
X041481Y013915D01*
X041379Y013957D01*
X041031Y013957D01*
X040928Y013915D01*
X040849Y013836D01*
X040807Y013733D01*
X040807Y013639D01*
X040285Y013117D01*
X040178Y013011D01*
X040120Y012871D01*
X040120Y010924D01*
X040178Y010785D01*
X040460Y010503D01*
X040460Y010276D01*
X040776Y009960D01*
X041224Y009960D01*
X041540Y010276D01*
X041540Y010724D01*
X041224Y011040D01*
X040997Y011040D01*
X040880Y011157D01*
X040880Y012638D01*
X041285Y013043D01*
X041379Y013043D01*
X041481Y013085D01*
X041500Y013104D01*
X041519Y013085D01*
X041620Y013043D01*
X041620Y011884D01*
X041460Y011724D01*
X041460Y011276D01*
X041776Y010960D01*
X042224Y010960D01*
X042540Y011276D01*
X042540Y011724D01*
X042380Y011884D01*
X042510Y011754D02*
X045645Y011754D01*
X045487Y011595D02*
X042540Y011595D01*
X042540Y011437D02*
X045328Y011437D01*
X045170Y011278D02*
X042540Y011278D01*
X042383Y011120D02*
X045084Y011120D01*
X045070Y010961D02*
X042225Y010961D01*
X041775Y010961D02*
X041303Y010961D01*
X041461Y010803D02*
X045070Y010803D01*
X045070Y010644D02*
X041540Y010644D01*
X041540Y010486D02*
X045070Y010486D01*
X045070Y010327D02*
X041540Y010327D01*
X041432Y010169D02*
X045070Y010169D01*
X045070Y010010D02*
X041274Y010010D01*
X040726Y010010D02*
X037752Y010010D01*
X037732Y009990D02*
X038060Y010318D01*
X038060Y010782D01*
X037792Y011050D01*
X038060Y011318D01*
X038060Y011782D01*
X037792Y012050D01*
X038060Y012318D01*
X038060Y012782D01*
X037792Y013050D01*
X038060Y013318D01*
X038060Y013782D01*
X037792Y014050D01*
X038060Y014318D01*
X038060Y014782D01*
X037792Y015050D01*
X038060Y015318D01*
X038060Y015782D01*
X037792Y016050D01*
X038060Y016318D01*
X038060Y016782D01*
X037732Y017110D01*
X037268Y017110D01*
X036940Y016782D01*
X036940Y016318D01*
X037208Y016050D01*
X036940Y015782D01*
X036940Y015318D01*
X037208Y015050D01*
X036940Y014782D01*
X036940Y014318D01*
X037208Y014050D01*
X036940Y013782D01*
X036940Y013318D01*
X037208Y013050D01*
X036940Y012782D01*
X036940Y012318D01*
X037208Y012050D01*
X036940Y011782D01*
X036940Y011318D01*
X037208Y011050D01*
X036940Y010782D01*
X036940Y010318D01*
X037268Y009990D01*
X037732Y009990D01*
X037910Y010169D02*
X040568Y010169D01*
X040460Y010327D02*
X038060Y010327D01*
X038060Y010486D02*
X040460Y010486D01*
X040319Y010644D02*
X038060Y010644D01*
X038039Y010803D02*
X040170Y010803D01*
X040120Y010961D02*
X037881Y010961D01*
X037861Y011120D02*
X040120Y011120D01*
X040120Y011278D02*
X038020Y011278D01*
X038060Y011437D02*
X040120Y011437D01*
X040120Y011595D02*
X038060Y011595D01*
X038060Y011754D02*
X040120Y011754D01*
X040120Y011912D02*
X037930Y011912D01*
X037812Y012071D02*
X040120Y012071D01*
X040120Y012229D02*
X037971Y012229D01*
X038060Y012388D02*
X040120Y012388D01*
X040120Y012546D02*
X038060Y012546D01*
X038060Y012705D02*
X040120Y012705D01*
X040120Y012863D02*
X037979Y012863D01*
X037820Y013022D02*
X040189Y013022D01*
X040347Y013180D02*
X037922Y013180D01*
X038060Y013339D02*
X040506Y013339D01*
X040664Y013497D02*
X038060Y013497D01*
X038060Y013656D02*
X040807Y013656D01*
X040840Y013814D02*
X038028Y013814D01*
X037869Y013973D02*
X042027Y013973D01*
X042160Y013814D02*
X042186Y013814D01*
X042193Y013656D02*
X042344Y013656D01*
X042328Y013497D02*
X042503Y013497D01*
X042380Y013339D02*
X042661Y013339D01*
X042820Y013180D02*
X042380Y013180D01*
X042380Y013022D02*
X042978Y013022D01*
X041869Y014131D02*
X037873Y014131D01*
X038031Y014290D02*
X041710Y014290D01*
X041552Y014448D02*
X038060Y014448D01*
X038060Y014607D02*
X041393Y014607D01*
X041235Y014765D02*
X038060Y014765D01*
X037918Y014924D02*
X041076Y014924D01*
X041000Y015082D02*
X037824Y015082D01*
X037982Y015241D02*
X041000Y015241D01*
X041000Y015399D02*
X038060Y015399D01*
X038060Y015558D02*
X041000Y015558D01*
X041000Y015716D02*
X038060Y015716D01*
X037967Y015875D02*
X041000Y015875D01*
X041000Y016033D02*
X037809Y016033D01*
X037933Y016192D02*
X041000Y016192D01*
X041000Y016350D02*
X038060Y016350D01*
X038060Y016509D02*
X041000Y016509D01*
X041000Y016667D02*
X038060Y016667D01*
X038016Y016826D02*
X041000Y016826D01*
X041000Y016984D02*
X037858Y016984D01*
X037142Y016984D02*
X035858Y016984D01*
X035732Y017110D02*
X035268Y017110D01*
X034940Y016782D01*
X034940Y016318D01*
X035208Y016050D01*
X034940Y015782D01*
X034940Y015318D01*
X035208Y015050D01*
X034940Y014782D01*
X034940Y014318D01*
X035208Y014050D01*
X034940Y013782D01*
X034940Y013318D01*
X035208Y013050D01*
X034940Y012782D01*
X034940Y012318D01*
X035208Y012050D01*
X034940Y011782D01*
X034940Y011318D01*
X035208Y011050D01*
X034940Y010782D01*
X034940Y010318D01*
X035268Y009990D01*
X035732Y009990D01*
X036060Y010318D01*
X036060Y010782D01*
X035792Y011050D01*
X036060Y011318D01*
X036060Y011782D01*
X035792Y012050D01*
X036060Y012318D01*
X036060Y012782D01*
X035792Y013050D01*
X036060Y013318D01*
X036060Y013782D01*
X035792Y014050D01*
X036060Y014318D01*
X036060Y014782D01*
X035792Y015050D01*
X036060Y015318D01*
X036060Y015782D01*
X035792Y016050D01*
X036060Y016318D01*
X036060Y016782D01*
X035732Y017110D01*
X036016Y016826D02*
X036984Y016826D01*
X036940Y016667D02*
X036060Y016667D01*
X036060Y016509D02*
X036940Y016509D01*
X036940Y016350D02*
X036060Y016350D01*
X035933Y016192D02*
X037067Y016192D01*
X037191Y016033D02*
X035809Y016033D01*
X035967Y015875D02*
X037033Y015875D01*
X036940Y015716D02*
X036060Y015716D01*
X036060Y015558D02*
X036940Y015558D01*
X036940Y015399D02*
X036060Y015399D01*
X035982Y015241D02*
X037018Y015241D01*
X037176Y015082D02*
X035824Y015082D01*
X035918Y014924D02*
X037082Y014924D01*
X036940Y014765D02*
X036060Y014765D01*
X036060Y014607D02*
X036940Y014607D01*
X036940Y014448D02*
X036060Y014448D01*
X036031Y014290D02*
X036969Y014290D01*
X037127Y014131D02*
X035873Y014131D01*
X035869Y013973D02*
X037131Y013973D01*
X036972Y013814D02*
X036028Y013814D01*
X036060Y013656D02*
X036940Y013656D01*
X036940Y013497D02*
X036060Y013497D01*
X036060Y013339D02*
X036940Y013339D01*
X037078Y013180D02*
X035922Y013180D01*
X035820Y013022D02*
X037180Y013022D01*
X037021Y012863D02*
X035979Y012863D01*
X036060Y012705D02*
X036940Y012705D01*
X036940Y012546D02*
X036060Y012546D01*
X036060Y012388D02*
X036940Y012388D01*
X037029Y012229D02*
X035971Y012229D01*
X035812Y012071D02*
X037188Y012071D01*
X037070Y011912D02*
X035930Y011912D01*
X036060Y011754D02*
X036940Y011754D01*
X036940Y011595D02*
X036060Y011595D01*
X036060Y011437D02*
X036940Y011437D01*
X036980Y011278D02*
X036020Y011278D01*
X035861Y011120D02*
X037139Y011120D01*
X037119Y010961D02*
X035881Y010961D01*
X036039Y010803D02*
X036961Y010803D01*
X036940Y010644D02*
X036060Y010644D01*
X036060Y010486D02*
X036940Y010486D01*
X036940Y010327D02*
X036060Y010327D01*
X035910Y010169D02*
X037090Y010169D01*
X037248Y010010D02*
X035752Y010010D01*
X035726Y009693D02*
X031994Y009693D01*
X032030Y009605D02*
X031949Y009800D01*
X031800Y009949D01*
X031605Y010030D01*
X030395Y010030D01*
X030200Y009949D01*
X030051Y009800D01*
X029970Y009605D01*
X029970Y009366D01*
X029948Y009344D01*
X029905Y009241D01*
X029905Y007555D01*
X029948Y007452D01*
X030026Y007373D01*
X030129Y007330D01*
X030871Y007330D01*
X030974Y007373D01*
X031052Y007452D01*
X031095Y007555D01*
X031095Y008970D01*
X031605Y008970D01*
X031800Y009051D01*
X031949Y009200D01*
X032030Y009395D01*
X032030Y009605D01*
X032030Y009535D02*
X035447Y009535D01*
X035289Y009376D02*
X032022Y009376D01*
X031957Y009218D02*
X035136Y009218D01*
X035055Y009059D02*
X031809Y009059D01*
X031095Y008901D02*
X034975Y008901D01*
X034915Y008742D02*
X031095Y008742D01*
X031095Y008584D02*
X034890Y008584D01*
X034865Y008425D02*
X031095Y008425D01*
X031095Y008267D02*
X034860Y008267D01*
X034885Y008108D02*
X031095Y008108D01*
X031095Y007950D02*
X034910Y007950D01*
X034959Y007791D02*
X031095Y007791D01*
X031095Y007633D02*
X035039Y007633D01*
X035120Y007474D02*
X031062Y007474D01*
X029938Y007474D02*
X025197Y007474D01*
X025252Y007506D02*
X025018Y007370D01*
X024756Y007300D01*
X024484Y007300D01*
X024222Y007370D01*
X023988Y007506D01*
X023796Y007698D01*
X023660Y007932D01*
X023590Y008194D01*
X023590Y008466D01*
X023660Y008728D01*
X023796Y008962D01*
X023988Y009154D01*
X024222Y009290D01*
X024484Y009360D01*
X024756Y009360D01*
X025018Y009290D01*
X025252Y009154D01*
X025444Y008962D01*
X025580Y008728D01*
X025650Y008466D01*
X025650Y008194D01*
X025580Y007932D01*
X025444Y007698D01*
X025252Y007506D01*
X025379Y007633D02*
X029905Y007633D01*
X029905Y007791D02*
X025498Y007791D01*
X025584Y007950D02*
X029905Y007950D01*
X029905Y008108D02*
X025627Y008108D01*
X025650Y008267D02*
X029905Y008267D01*
X029905Y008425D02*
X025650Y008425D01*
X025618Y008584D02*
X029905Y008584D01*
X029905Y008742D02*
X025571Y008742D01*
X025480Y008901D02*
X029905Y008901D01*
X029905Y009059D02*
X025348Y009059D01*
X025143Y009218D02*
X029905Y009218D01*
X029970Y009376D02*
X020022Y009376D01*
X020030Y009535D02*
X029970Y009535D01*
X030006Y009693D02*
X019994Y009693D01*
X019898Y009852D02*
X030102Y009852D01*
X030346Y010010D02*
X025752Y010010D01*
X025732Y009990D02*
X026060Y010318D01*
X026060Y010782D01*
X025792Y011050D01*
X026060Y011318D01*
X026060Y011782D01*
X025792Y012050D01*
X026060Y012318D01*
X026060Y012782D01*
X025792Y013050D01*
X026060Y013318D01*
X026060Y013782D01*
X025792Y014050D01*
X026060Y014318D01*
X026060Y014782D01*
X025792Y015050D01*
X026060Y015318D01*
X026060Y015782D01*
X025792Y016050D01*
X026060Y016318D01*
X026060Y016782D01*
X025732Y017110D01*
X025268Y017110D01*
X024940Y016782D01*
X024940Y016318D01*
X025208Y016050D01*
X024940Y015782D01*
X024940Y015318D01*
X025208Y015050D01*
X024940Y014782D01*
X024940Y014318D01*
X025208Y014050D01*
X024940Y013782D01*
X024940Y013318D01*
X025208Y013050D01*
X024940Y012782D01*
X024940Y012318D01*
X025208Y012050D01*
X024940Y011782D01*
X024940Y011318D01*
X025208Y011050D01*
X024940Y010782D01*
X024940Y010318D01*
X025268Y009990D01*
X025732Y009990D01*
X025910Y010169D02*
X035090Y010169D01*
X034940Y010327D02*
X026060Y010327D01*
X026060Y010486D02*
X034940Y010486D01*
X034940Y010644D02*
X026060Y010644D01*
X026039Y010803D02*
X034961Y010803D01*
X035119Y010961D02*
X025881Y010961D01*
X025861Y011120D02*
X035139Y011120D01*
X034980Y011278D02*
X026020Y011278D01*
X026060Y011437D02*
X034940Y011437D01*
X034940Y011595D02*
X026060Y011595D01*
X026060Y011754D02*
X034940Y011754D01*
X035070Y011912D02*
X025930Y011912D01*
X025812Y012071D02*
X035188Y012071D01*
X035029Y012229D02*
X025971Y012229D01*
X026060Y012388D02*
X034940Y012388D01*
X034940Y012546D02*
X026060Y012546D01*
X026060Y012705D02*
X034940Y012705D01*
X035021Y012863D02*
X025979Y012863D01*
X025820Y013022D02*
X035180Y013022D01*
X035078Y013180D02*
X025922Y013180D01*
X026060Y013339D02*
X034940Y013339D01*
X034940Y013497D02*
X026060Y013497D01*
X026060Y013656D02*
X034940Y013656D01*
X034972Y013814D02*
X026028Y013814D01*
X025869Y013973D02*
X035131Y013973D01*
X035127Y014131D02*
X025873Y014131D01*
X026031Y014290D02*
X034969Y014290D01*
X034940Y014448D02*
X026060Y014448D01*
X026060Y014607D02*
X034940Y014607D01*
X034940Y014765D02*
X026060Y014765D01*
X025918Y014924D02*
X035082Y014924D01*
X035176Y015082D02*
X025824Y015082D01*
X025982Y015241D02*
X035018Y015241D01*
X034940Y015399D02*
X026060Y015399D01*
X026060Y015558D02*
X034940Y015558D01*
X034940Y015716D02*
X026060Y015716D01*
X025967Y015875D02*
X035033Y015875D01*
X035191Y016033D02*
X025809Y016033D01*
X025933Y016192D02*
X035067Y016192D01*
X034940Y016350D02*
X026060Y016350D01*
X026060Y016509D02*
X034940Y016509D01*
X034940Y016667D02*
X026060Y016667D01*
X026016Y016826D02*
X034984Y016826D01*
X035142Y016984D02*
X025858Y016984D01*
X025142Y016984D02*
X023858Y016984D01*
X024016Y016826D02*
X024984Y016826D01*
X024940Y016667D02*
X024060Y016667D01*
X024060Y016509D02*
X024940Y016509D01*
X024940Y016350D02*
X024060Y016350D01*
X023933Y016192D02*
X025067Y016192D01*
X025191Y016033D02*
X023809Y016033D01*
X023967Y015875D02*
X025033Y015875D01*
X024940Y015716D02*
X024060Y015716D01*
X024060Y015558D02*
X024940Y015558D01*
X024940Y015399D02*
X024060Y015399D01*
X023982Y015241D02*
X025018Y015241D01*
X025176Y015082D02*
X023824Y015082D01*
X023918Y014924D02*
X025082Y014924D01*
X024940Y014765D02*
X024060Y014765D01*
X024060Y014607D02*
X024940Y014607D01*
X024940Y014448D02*
X024060Y014448D01*
X024031Y014290D02*
X024969Y014290D01*
X025127Y014131D02*
X023873Y014131D01*
X023869Y013973D02*
X025131Y013973D01*
X024972Y013814D02*
X024028Y013814D01*
X024060Y013656D02*
X024940Y013656D01*
X024940Y013497D02*
X024060Y013497D01*
X024060Y013339D02*
X024940Y013339D01*
X025078Y013180D02*
X023922Y013180D01*
X023820Y013022D02*
X025180Y013022D01*
X025021Y012863D02*
X023979Y012863D01*
X024060Y012705D02*
X024940Y012705D01*
X024940Y012546D02*
X024060Y012546D01*
X024060Y012388D02*
X024940Y012388D01*
X025029Y012229D02*
X023971Y012229D01*
X023812Y012071D02*
X025188Y012071D01*
X025070Y011912D02*
X023930Y011912D01*
X024060Y011754D02*
X024940Y011754D01*
X024940Y011595D02*
X024060Y011595D01*
X024060Y011437D02*
X024940Y011437D01*
X024980Y011278D02*
X024020Y011278D01*
X023861Y011120D02*
X025139Y011120D01*
X025119Y010961D02*
X023881Y010961D01*
X024039Y010803D02*
X024961Y010803D01*
X024940Y010644D02*
X024060Y010644D01*
X024060Y010486D02*
X024940Y010486D01*
X024940Y010327D02*
X024060Y010327D01*
X023910Y010169D02*
X025090Y010169D01*
X025248Y010010D02*
X023752Y010010D01*
X023248Y010010D02*
X019654Y010010D01*
X019957Y009218D02*
X024097Y009218D01*
X023892Y009059D02*
X019809Y009059D01*
X019095Y008901D02*
X023760Y008901D01*
X023669Y008742D02*
X019095Y008742D01*
X019095Y008584D02*
X023622Y008584D01*
X023590Y008425D02*
X019095Y008425D01*
X019095Y008267D02*
X023590Y008267D01*
X023613Y008108D02*
X019095Y008108D01*
X019095Y007950D02*
X023656Y007950D01*
X023742Y007791D02*
X019095Y007791D01*
X019095Y007633D02*
X023861Y007633D01*
X024043Y007474D02*
X019062Y007474D01*
X017938Y007474D02*
X013640Y007474D01*
X013721Y007633D02*
X017905Y007633D01*
X017905Y007791D02*
X013801Y007791D01*
X013850Y007950D02*
X017905Y007950D01*
X017905Y008108D02*
X013875Y008108D01*
X013900Y008267D02*
X017905Y008267D01*
X017905Y008425D02*
X013895Y008425D01*
X013910Y008330D02*
X013910Y008330D01*
X013870Y008584D02*
X017905Y008584D01*
X017905Y008742D02*
X013845Y008742D01*
X013835Y008803D02*
X013835Y008803D01*
X013785Y008901D02*
X017905Y008901D01*
X017905Y009059D02*
X013705Y009059D01*
X013624Y009218D02*
X017905Y009218D01*
X017970Y009376D02*
X013471Y009376D01*
X013313Y009535D02*
X017970Y009535D01*
X018006Y009693D02*
X013034Y009693D01*
X013279Y009568D02*
X013279Y009568D01*
X013503Y007316D02*
X024427Y007316D01*
X024813Y007316D02*
X035257Y007316D01*
X035416Y007157D02*
X013344Y007157D01*
X013279Y007092D02*
X013279Y007092D01*
X013095Y006999D02*
X035665Y006999D01*
X036127Y006840D02*
X012633Y006840D01*
X012853Y006875D02*
X012853Y006875D01*
X012380Y006800D02*
X012380Y006800D01*
X023835Y018094D02*
X025165Y018094D01*
X025006Y018252D02*
X023994Y018252D01*
X024060Y018411D02*
X024940Y018411D01*
X024940Y018569D02*
X024060Y018569D01*
X024060Y018728D02*
X024940Y018728D01*
X025044Y018886D02*
X023956Y018886D01*
X023797Y019045D02*
X025203Y019045D01*
X025055Y019203D02*
X023945Y019203D01*
X024060Y019362D02*
X024940Y019362D01*
X024940Y019520D02*
X024060Y019520D01*
X024060Y019679D02*
X024940Y019679D01*
X024995Y019837D02*
X024005Y019837D01*
X023846Y019996D02*
X025154Y019996D01*
X025104Y020154D02*
X023896Y020154D01*
X024054Y020313D02*
X024946Y020313D01*
X024940Y020471D02*
X024060Y020471D01*
X024060Y020630D02*
X024940Y020630D01*
X024946Y020788D02*
X024054Y020788D01*
X023895Y020947D02*
X025105Y020947D01*
X025153Y021105D02*
X023847Y021105D01*
X024005Y021264D02*
X024995Y021264D01*
X024940Y021422D02*
X024060Y021422D01*
X024060Y021581D02*
X024940Y021581D01*
X024940Y021739D02*
X024060Y021739D01*
X023944Y021898D02*
X025056Y021898D01*
X025202Y022056D02*
X023798Y022056D01*
X023956Y022215D02*
X025044Y022215D01*
X024940Y022373D02*
X024060Y022373D01*
X024060Y022532D02*
X024940Y022532D01*
X024940Y022690D02*
X024060Y022690D01*
X023993Y022849D02*
X025007Y022849D01*
X025165Y023007D02*
X023835Y023007D01*
X023907Y023166D02*
X025093Y023166D01*
X024940Y023324D02*
X024060Y023324D01*
X024060Y023483D02*
X024940Y023483D01*
X024940Y023641D02*
X024060Y023641D01*
X024042Y023800D02*
X024958Y023800D01*
X025116Y023958D02*
X023884Y023958D01*
X023858Y024117D02*
X025142Y024117D01*
X024983Y024275D02*
X024017Y024275D01*
X024060Y024434D02*
X024940Y024434D01*
X024940Y024592D02*
X024060Y024592D01*
X024060Y024751D02*
X024940Y024751D01*
X025067Y024909D02*
X023933Y024909D01*
X023809Y025068D02*
X025191Y025068D01*
X025032Y025226D02*
X023968Y025226D01*
X024060Y025385D02*
X024940Y025385D01*
X024940Y025543D02*
X024060Y025543D01*
X024060Y025702D02*
X024940Y025702D01*
X025018Y025860D02*
X023982Y025860D01*
X023823Y026019D02*
X025177Y026019D01*
X025081Y026177D02*
X023919Y026177D01*
X024060Y026336D02*
X024940Y026336D01*
X024940Y026494D02*
X024060Y026494D01*
X024060Y026653D02*
X024940Y026653D01*
X024969Y026811D02*
X024031Y026811D01*
X023872Y026970D02*
X025128Y026970D01*
X025130Y027128D02*
X023870Y027128D01*
X024028Y027287D02*
X024971Y027287D01*
X024940Y027445D02*
X024060Y027445D01*
X024060Y027604D02*
X024940Y027604D01*
X024729Y027762D02*
X024060Y027762D01*
X023921Y027921D02*
X024570Y027921D01*
X024412Y028079D02*
X023821Y028079D01*
X025870Y027128D02*
X035130Y027128D01*
X035128Y026970D02*
X025872Y026970D01*
X026031Y026811D02*
X034969Y026811D01*
X034940Y026653D02*
X026060Y026653D01*
X026060Y026494D02*
X034940Y026494D01*
X034940Y026336D02*
X026060Y026336D01*
X025919Y026177D02*
X035081Y026177D01*
X035177Y026019D02*
X025823Y026019D01*
X025982Y025860D02*
X035018Y025860D01*
X034940Y025702D02*
X026060Y025702D01*
X026060Y025543D02*
X034940Y025543D01*
X034940Y025385D02*
X026060Y025385D01*
X025968Y025226D02*
X035032Y025226D01*
X035191Y025068D02*
X025809Y025068D01*
X025933Y024909D02*
X035067Y024909D01*
X034940Y024751D02*
X026060Y024751D01*
X026060Y024592D02*
X034940Y024592D01*
X034940Y024434D02*
X026060Y024434D01*
X026017Y024275D02*
X034983Y024275D01*
X035142Y024117D02*
X025858Y024117D01*
X025884Y023958D02*
X035116Y023958D01*
X034958Y023800D02*
X026042Y023800D01*
X026060Y023641D02*
X034940Y023641D01*
X034940Y023483D02*
X026060Y023483D01*
X026060Y023324D02*
X034940Y023324D01*
X035093Y023166D02*
X025907Y023166D01*
X025835Y023007D02*
X035165Y023007D01*
X035007Y022849D02*
X025993Y022849D01*
X026060Y022690D02*
X034940Y022690D01*
X034940Y022532D02*
X026060Y022532D01*
X026060Y022373D02*
X034940Y022373D01*
X035044Y022215D02*
X025956Y022215D01*
X025798Y022056D02*
X035202Y022056D01*
X035056Y021898D02*
X025944Y021898D01*
X026060Y021739D02*
X034940Y021739D01*
X034940Y021581D02*
X026060Y021581D01*
X026060Y021422D02*
X034940Y021422D01*
X034995Y021264D02*
X026005Y021264D01*
X025847Y021105D02*
X035153Y021105D01*
X035105Y020947D02*
X025895Y020947D01*
X026054Y020788D02*
X034946Y020788D01*
X034940Y020630D02*
X026060Y020630D01*
X026060Y020471D02*
X034940Y020471D01*
X034946Y020313D02*
X026054Y020313D01*
X025896Y020154D02*
X035104Y020154D01*
X035154Y019996D02*
X025846Y019996D01*
X026005Y019837D02*
X034995Y019837D01*
X034940Y019679D02*
X026060Y019679D01*
X026060Y019520D02*
X034940Y019520D01*
X034940Y019362D02*
X026060Y019362D01*
X025945Y019203D02*
X035055Y019203D01*
X035203Y019045D02*
X025797Y019045D01*
X025956Y018886D02*
X035044Y018886D01*
X034940Y018728D02*
X026060Y018728D01*
X026060Y018569D02*
X034940Y018569D01*
X034940Y018411D02*
X026060Y018411D01*
X025994Y018252D02*
X035006Y018252D01*
X035165Y018094D02*
X025835Y018094D01*
X031654Y010010D02*
X035248Y010010D01*
X036326Y009852D02*
X031898Y009852D01*
X036434Y009852D02*
X045070Y009852D01*
X045070Y009693D02*
X037034Y009693D01*
X037313Y009535D02*
X045070Y009535D01*
X045070Y009376D02*
X037471Y009376D01*
X037624Y009218D02*
X045070Y009218D01*
X045070Y009059D02*
X037705Y009059D01*
X037785Y008901D02*
X045076Y008901D01*
X045150Y008742D02*
X037845Y008742D01*
X037870Y008584D02*
X045308Y008584D01*
X045467Y008425D02*
X037895Y008425D01*
X037900Y008267D02*
X045625Y008267D01*
X045724Y008108D02*
X037875Y008108D01*
X037850Y007950D02*
X045724Y007950D01*
X045724Y007791D02*
X037801Y007791D01*
X037835Y007857D02*
X037835Y007857D01*
X037721Y007633D02*
X045754Y007633D01*
X046208Y008901D02*
X052995Y008901D01*
X052995Y009059D02*
X046049Y009059D01*
X045930Y010644D02*
X048121Y010644D01*
X047775Y010803D02*
X045930Y010803D01*
X046069Y010961D02*
X047604Y010961D01*
X047487Y011120D02*
X046228Y011120D01*
X046386Y011278D02*
X047400Y011278D01*
X047358Y011437D02*
X046545Y011437D01*
X046703Y011595D02*
X047331Y011595D01*
X047331Y011754D02*
X046862Y011754D01*
X047020Y011912D02*
X047356Y011912D01*
X047399Y012071D02*
X047179Y012071D01*
X047337Y012229D02*
X047484Y012229D01*
X047496Y012388D02*
X047598Y012388D01*
X047654Y012546D02*
X047765Y012546D01*
X050098Y014607D02*
X042393Y014607D01*
X042235Y014765D02*
X050257Y014765D01*
X050415Y014924D02*
X042076Y014924D01*
X041918Y015082D02*
X050574Y015082D01*
X050732Y015241D02*
X041759Y015241D01*
X041601Y015399D02*
X050770Y015399D01*
X052384Y014448D02*
X052995Y014448D01*
X052995Y014290D02*
X052491Y014290D01*
X052498Y014131D02*
X052995Y014131D01*
X052995Y013973D02*
X052498Y013973D01*
X052498Y013814D02*
X052995Y013814D01*
X052995Y013656D02*
X052468Y013656D01*
X052995Y011595D02*
X051264Y011595D01*
X051280Y010961D02*
X052995Y010961D01*
X052995Y010803D02*
X051198Y010803D01*
X047464Y006840D02*
X036633Y006840D01*
X040918Y011120D02*
X041617Y011120D01*
X041460Y011278D02*
X040880Y011278D01*
X040880Y011437D02*
X041460Y011437D01*
X041460Y011595D02*
X040880Y011595D01*
X040880Y011754D02*
X041490Y011754D01*
X041620Y011912D02*
X040880Y011912D01*
X040880Y012071D02*
X041620Y012071D01*
X041620Y012229D02*
X040880Y012229D01*
X040880Y012388D02*
X041620Y012388D01*
X041620Y012546D02*
X040880Y012546D01*
X040947Y012705D02*
X041620Y012705D01*
X041620Y012863D02*
X041105Y012863D01*
X041264Y013022D02*
X041620Y013022D01*
X041000Y017143D02*
X001005Y017143D01*
X001005Y017301D02*
X041000Y017301D01*
X041000Y017460D02*
X001005Y017460D01*
X001005Y017618D02*
X041000Y017618D01*
X041000Y017777D02*
X001005Y017777D01*
X001005Y017935D02*
X041000Y017935D01*
X047270Y016984D02*
X047730Y016984D01*
X047537Y017143D02*
X047463Y017143D01*
X048270Y016984D02*
X048730Y016984D01*
X048537Y017143D02*
X048463Y017143D01*
X045612Y025068D02*
X041500Y025068D01*
X041500Y025226D02*
X045486Y025226D01*
X045420Y025385D02*
X041500Y025385D01*
X041500Y025543D02*
X045420Y025543D01*
X045456Y025702D02*
X041500Y025702D01*
X041500Y025860D02*
X045540Y025860D01*
X045736Y026019D02*
X041500Y026019D01*
X041500Y026177D02*
X046314Y026177D01*
X046264Y026019D02*
X046472Y026019D01*
X046460Y025860D02*
X046540Y025860D01*
X046155Y026336D02*
X041500Y026336D01*
X041500Y026494D02*
X045997Y026494D01*
X051630Y029189D02*
X052995Y029189D01*
X052995Y029347D02*
X051630Y029347D01*
X051630Y029506D02*
X052995Y029506D01*
X052995Y029664D02*
X051630Y029664D01*
X051630Y029823D02*
X052995Y029823D01*
X052995Y029981D02*
X051630Y029981D01*
X051630Y030140D02*
X052995Y030140D01*
X052995Y030298D02*
X051630Y030298D01*
X051630Y030457D02*
X052995Y030457D01*
X052995Y030615D02*
X051630Y030615D01*
X051630Y030774D02*
X052995Y030774D01*
X052995Y030932D02*
X051630Y030932D01*
X051630Y031091D02*
X052995Y031091D01*
X052995Y031249D02*
X051630Y031249D01*
X051630Y031408D02*
X052995Y031408D01*
X052995Y031566D02*
X051630Y031566D01*
X051630Y031725D02*
X052995Y031725D01*
X052995Y031883D02*
X051630Y031883D01*
X051630Y032042D02*
X052995Y032042D01*
X052995Y032200D02*
X051630Y032200D01*
X051630Y032359D02*
X052995Y032359D01*
X052995Y032517D02*
X051630Y032517D01*
X051630Y032676D02*
X052995Y032676D01*
X052995Y032834D02*
X051630Y032834D01*
X051630Y032993D02*
X052995Y032993D01*
X052995Y033151D02*
X051630Y033151D01*
X051630Y033310D02*
X052995Y033310D01*
X052995Y033468D02*
X051630Y033468D01*
X051630Y033627D02*
X052995Y033627D01*
X052995Y033785D02*
X051630Y033785D01*
X051630Y033944D02*
X052995Y033944D01*
X052995Y034102D02*
X051630Y034102D01*
X051630Y034261D02*
X052995Y034261D01*
X052995Y034419D02*
X051630Y034419D01*
X051630Y034578D02*
X052995Y034578D01*
X052995Y034736D02*
X051630Y034736D01*
X051630Y034895D02*
X052995Y034895D01*
X052995Y035053D02*
X051630Y035053D01*
X051630Y035212D02*
X052995Y035212D01*
X052995Y035370D02*
X051630Y035370D01*
X051630Y035529D02*
X052995Y035529D01*
X052995Y035687D02*
X051630Y035687D01*
X051630Y035846D02*
X052995Y035846D01*
X052995Y036004D02*
X051630Y036004D01*
X051630Y036163D02*
X052995Y036163D01*
X052995Y036321D02*
X051630Y036321D01*
X051630Y036480D02*
X052995Y036480D01*
X052995Y036638D02*
X051630Y036638D01*
X051630Y036797D02*
X052995Y036797D01*
X052995Y036955D02*
X051630Y036955D01*
X051630Y037114D02*
X052995Y037114D01*
X052995Y037272D02*
X051630Y037272D01*
X051630Y037431D02*
X052995Y037431D01*
X052995Y037589D02*
X051630Y037589D01*
X051630Y037748D02*
X052995Y037748D01*
X052995Y037906D02*
X051630Y037906D01*
X051630Y038065D02*
X052995Y038065D01*
X052995Y038223D02*
X051630Y038223D01*
X051630Y038382D02*
X052995Y038382D01*
X052995Y038540D02*
X051630Y038540D01*
X051630Y038699D02*
X052995Y038699D01*
X052995Y038857D02*
X051630Y038857D01*
X051630Y039016D02*
X052995Y039016D01*
X052995Y039174D02*
X051630Y039174D01*
X051630Y039333D02*
X052995Y039333D01*
X052995Y039491D02*
X051630Y039491D01*
X051630Y039650D02*
X052995Y039650D01*
X052995Y039808D02*
X051630Y039808D01*
X051630Y039967D02*
X052995Y039967D01*
X052995Y040125D02*
X051630Y040125D01*
X051630Y040284D02*
X052995Y040284D01*
X052995Y040442D02*
X051630Y040442D01*
X051630Y040601D02*
X052995Y040601D01*
X052995Y040759D02*
X051630Y040759D01*
X051630Y040918D02*
X052995Y040918D01*
X052995Y041076D02*
X051630Y041076D01*
X051630Y041235D02*
X052995Y041235D01*
X052995Y041393D02*
X051630Y041393D01*
X051630Y041552D02*
X052995Y041552D01*
X052995Y041710D02*
X051630Y041710D01*
X051630Y041869D02*
X052995Y041869D01*
X052995Y042027D02*
X051630Y042027D01*
X051630Y042186D02*
X051565Y042344D01*
X051406Y042503D02*
X052995Y042503D01*
X052995Y042661D02*
X051247Y042661D01*
X051089Y042820D02*
X052995Y042820D01*
X052995Y042978D02*
X050911Y042978D01*
X050770Y040442D02*
X050364Y040442D01*
X050500Y040284D02*
X050770Y040284D01*
X050770Y040125D02*
X050565Y040125D01*
X050570Y039967D02*
X050770Y039967D01*
X044696Y039491D02*
X044304Y039491D01*
X044474Y039333D02*
X044526Y039333D01*
X041000Y041710D02*
X001005Y041710D01*
X001005Y041552D02*
X039731Y041552D01*
X039573Y041393D02*
X001005Y041393D01*
X001005Y041235D02*
X039420Y041235D01*
X040269Y041552D02*
X040731Y041552D01*
X040573Y041393D02*
X040427Y041393D01*
X041000Y041869D02*
X001005Y041869D01*
X001005Y042027D02*
X041000Y042027D01*
X041000Y042186D02*
X001005Y042186D01*
X001005Y042344D02*
X011850Y042344D01*
X011539Y042503D02*
X001005Y042503D01*
X001005Y042661D02*
X011352Y042661D01*
X011481Y042532D02*
X011481Y042532D01*
X011193Y042820D02*
X001005Y042820D01*
X001005Y042978D02*
X011087Y042978D01*
X011142Y042871D02*
X011142Y042871D01*
X011007Y043137D02*
X001005Y043137D01*
X001005Y043295D02*
X010926Y043295D01*
X010925Y043297D02*
X010925Y043297D01*
X010900Y043454D02*
X001005Y043454D01*
X001005Y043612D02*
X010875Y043612D01*
X010850Y043771D02*
X001005Y043771D01*
X001005Y043929D02*
X010875Y043929D01*
X010900Y044088D02*
X001005Y044088D01*
X001005Y044246D02*
X010927Y044246D01*
X011007Y044405D02*
X001005Y044405D01*
X001005Y044563D02*
X011088Y044563D01*
X011142Y044669D02*
X011142Y044669D01*
X011194Y044722D02*
X001005Y044722D01*
X001005Y044880D02*
X011353Y044880D01*
X011541Y045039D02*
X001005Y045039D01*
X001005Y045197D02*
X011852Y045197D01*
X011907Y045225D02*
X011907Y045225D01*
X012380Y045300D02*
X012380Y045300D01*
X012908Y045197D02*
X035852Y045197D01*
X035907Y045225D02*
X035907Y045225D01*
X035541Y045039D02*
X013219Y045039D01*
X013279Y045008D02*
X013279Y045008D01*
X013407Y044880D02*
X035353Y044880D01*
X036380Y045300D02*
X036380Y045300D01*
X041500Y045673D02*
X052995Y045673D01*
X052995Y045831D02*
X048072Y045831D01*
X048179Y045990D02*
X052995Y045990D01*
X052995Y046148D02*
X048185Y046148D01*
X048609Y046307D02*
X052995Y046307D01*
X052995Y046465D02*
X048642Y046465D01*
X048642Y046624D02*
X052995Y046624D01*
X052995Y046782D02*
X048642Y046782D01*
X048575Y046941D02*
X052995Y046941D01*
X052995Y047099D02*
X048431Y047099D01*
X048498Y047258D02*
X052995Y047258D01*
X052995Y047416D02*
X048530Y047416D01*
X048530Y047575D02*
X052995Y047575D01*
X052995Y047733D02*
X048498Y047733D01*
X048440Y047892D02*
X052995Y047892D01*
X047560Y047892D02*
X041500Y047892D01*
X041500Y047733D02*
X047484Y047733D01*
X047325Y047575D02*
X041500Y047575D01*
X041500Y047416D02*
X046966Y047416D01*
X046796Y047258D02*
X041500Y047258D01*
X041500Y047099D02*
X046775Y047099D01*
X046775Y046941D02*
X041500Y046941D01*
X041500Y046782D02*
X046775Y046782D01*
X046796Y046624D02*
X041500Y046624D01*
X041500Y046465D02*
X046775Y046465D01*
X046775Y046307D02*
X041500Y046307D01*
X041500Y046148D02*
X046775Y046148D01*
X046781Y045990D02*
X041500Y045990D01*
X041500Y045831D02*
X046888Y045831D01*
X047480Y046270D02*
X047700Y046490D01*
X040553Y033627D02*
X040447Y033627D01*
X038000Y032500D02*
X037500Y032500D01*
X037500Y032550D01*
X037450Y032500D01*
X037000Y032500D01*
X036500Y032000D01*
X025000Y032000D01*
X024500Y032500D01*
X023550Y032500D01*
X023500Y032550D01*
X023500Y032500D01*
X013550Y032500D01*
X013500Y032550D01*
X013000Y032000D02*
X012500Y031500D01*
X011500Y031500D01*
X011500Y031550D01*
X011500Y030550D02*
X012550Y030550D01*
X013000Y031000D01*
X024500Y031000D01*
X025000Y030500D01*
X025450Y030500D01*
X025500Y030550D01*
X025550Y030500D01*
X035450Y030500D01*
X035500Y030550D01*
X036550Y030550D01*
X037000Y031000D01*
X038000Y031000D01*
X038500Y030500D01*
X034940Y027604D02*
X026060Y027604D01*
X026060Y027445D02*
X034940Y027445D01*
X034971Y027287D02*
X026028Y027287D01*
X025151Y032993D02*
X025017Y032993D01*
X025107Y033151D02*
X024858Y033151D01*
X024948Y033310D02*
X024693Y033310D01*
X024940Y033468D02*
X024060Y033468D01*
X024060Y033627D02*
X024940Y033627D01*
X024943Y033785D02*
X024057Y033785D01*
X023898Y033944D02*
X025102Y033944D01*
X025156Y034102D02*
X023844Y034102D01*
X024003Y034261D02*
X024997Y034261D01*
X024940Y034419D02*
X024060Y034419D01*
X024060Y034578D02*
X024940Y034578D01*
X024940Y034736D02*
X024060Y034736D01*
X023947Y034895D02*
X025053Y034895D01*
X025205Y035053D02*
X023795Y035053D01*
X023954Y035212D02*
X025046Y035212D01*
X024940Y035370D02*
X024060Y035370D01*
X024060Y035529D02*
X024940Y035529D01*
X024940Y035687D02*
X024060Y035687D01*
X023996Y035846D02*
X025004Y035846D01*
X025162Y036004D02*
X023838Y036004D01*
X023905Y036163D02*
X025095Y036163D01*
X024940Y036321D02*
X024060Y036321D01*
X024060Y036480D02*
X024940Y036480D01*
X024940Y036638D02*
X024060Y036638D01*
X024045Y036797D02*
X024955Y036797D01*
X025113Y036955D02*
X023887Y036955D01*
X023856Y037114D02*
X025144Y037114D01*
X024986Y037272D02*
X024014Y037272D01*
X024060Y037431D02*
X024940Y037431D01*
X024940Y037589D02*
X024060Y037589D01*
X024060Y037748D02*
X024940Y037748D01*
X025064Y037906D02*
X023936Y037906D01*
X023807Y038065D02*
X025193Y038065D01*
X025035Y038223D02*
X023965Y038223D01*
X024060Y038382D02*
X024940Y038382D01*
X024940Y038540D02*
X024060Y038540D01*
X024060Y038699D02*
X024940Y038699D01*
X025015Y038857D02*
X023985Y038857D01*
X023826Y039016D02*
X025174Y039016D01*
X025084Y039174D02*
X023916Y039174D01*
X024060Y039333D02*
X024940Y039333D01*
X024940Y039491D02*
X024060Y039491D01*
X024060Y039650D02*
X024940Y039650D01*
X024966Y039808D02*
X024034Y039808D01*
X023875Y039967D02*
X025125Y039967D01*
X025133Y040125D02*
X023867Y040125D01*
X024026Y040284D02*
X024974Y040284D01*
X024940Y040442D02*
X024060Y040442D01*
X024060Y040601D02*
X024940Y040601D01*
X024940Y040759D02*
X024060Y040759D01*
X023924Y040918D02*
X025076Y040918D01*
X025234Y041076D02*
X023766Y041076D01*
X023234Y041076D02*
X013766Y041076D01*
X013924Y040918D02*
X023076Y040918D01*
X022940Y040759D02*
X014060Y040759D01*
X014060Y040601D02*
X022940Y040601D01*
X022940Y040442D02*
X014060Y040442D01*
X014026Y040284D02*
X022974Y040284D01*
X023133Y040125D02*
X013867Y040125D01*
X013875Y039967D02*
X023125Y039967D01*
X022966Y039808D02*
X014034Y039808D01*
X014060Y039650D02*
X022940Y039650D01*
X022940Y039491D02*
X014060Y039491D01*
X014060Y039333D02*
X022940Y039333D01*
X023084Y039174D02*
X013916Y039174D01*
X013826Y039016D02*
X023174Y039016D01*
X023015Y038857D02*
X013985Y038857D01*
X014060Y038699D02*
X022940Y038699D01*
X022940Y038540D02*
X014060Y038540D01*
X014060Y038382D02*
X022940Y038382D01*
X023035Y038223D02*
X013965Y038223D01*
X013807Y038065D02*
X023193Y038065D01*
X023064Y037906D02*
X013936Y037906D01*
X014060Y037748D02*
X022940Y037748D01*
X022940Y037589D02*
X014060Y037589D01*
X014060Y037431D02*
X022940Y037431D01*
X022986Y037272D02*
X014014Y037272D01*
X013856Y037114D02*
X023144Y037114D01*
X023113Y036955D02*
X013887Y036955D01*
X014045Y036797D02*
X022955Y036797D01*
X022940Y036638D02*
X014060Y036638D01*
X014060Y036480D02*
X022940Y036480D01*
X022940Y036321D02*
X014060Y036321D01*
X013905Y036163D02*
X023095Y036163D01*
X023162Y036004D02*
X013838Y036004D01*
X013996Y035846D02*
X023004Y035846D01*
X022940Y035687D02*
X014060Y035687D01*
X014060Y035529D02*
X022940Y035529D01*
X022940Y035370D02*
X014060Y035370D01*
X013954Y035212D02*
X023046Y035212D01*
X023205Y035053D02*
X013795Y035053D01*
X013947Y034895D02*
X023053Y034895D01*
X022940Y034736D02*
X014060Y034736D01*
X014060Y034578D02*
X022940Y034578D01*
X022940Y034419D02*
X014060Y034419D01*
X014003Y034261D02*
X022997Y034261D01*
X023156Y034102D02*
X013844Y034102D01*
X013898Y033944D02*
X023102Y033944D01*
X022943Y033785D02*
X014057Y033785D01*
X014060Y033627D02*
X022940Y033627D01*
X022940Y033468D02*
X014060Y033468D01*
X012380Y042240D02*
X012380Y042240D01*
X001005Y004938D02*
X052995Y004938D01*
X052995Y004780D02*
X001005Y004780D01*
X001005Y004621D02*
X052995Y004621D01*
X052995Y004463D02*
X001005Y004463D01*
X001005Y004304D02*
X052995Y004304D01*
X052995Y004146D02*
X001005Y004146D01*
D29*
X001500Y017500D03*
X003500Y017500D03*
X005000Y017500D03*
X006500Y017500D03*
X008000Y017500D03*
X010000Y017500D03*
X012500Y017500D03*
X015000Y017500D03*
X017000Y017500D03*
X018500Y017500D03*
X020000Y017500D03*
X022000Y017500D03*
X024500Y017500D03*
X026500Y017500D03*
X028000Y017500D03*
X029000Y017500D03*
X031000Y017500D03*
X032500Y017500D03*
X033500Y017500D03*
X039000Y017500D03*
X040000Y015000D03*
X039000Y014000D03*
X042500Y017500D03*
X043500Y016000D03*
X043500Y014500D03*
X044000Y019000D03*
X045000Y020500D03*
X043000Y022000D03*
X043500Y023000D03*
X045500Y023000D03*
X047500Y023500D03*
X049000Y024000D03*
X050000Y019500D03*
X049500Y015000D03*
X052500Y012000D03*
X052000Y010500D03*
X052000Y009500D03*
X052000Y008000D03*
X051000Y006500D03*
X050000Y007000D03*
X049500Y005500D03*
X048500Y005000D03*
X052500Y005000D03*
X031500Y005000D03*
X031500Y006000D03*
X030500Y007000D03*
X029500Y006000D03*
X029500Y005000D03*
X031500Y009500D03*
X019500Y009500D03*
X018500Y007000D03*
X017500Y006000D03*
X017500Y005000D03*
X019500Y005000D03*
X019500Y006000D03*
X046000Y037500D03*
X047000Y039500D03*
X049000Y042000D03*
X048900Y043200D03*
X050000Y045000D03*
X049500Y046500D03*
X052000Y047000D03*
X047000Y043000D03*
X042500Y042500D03*
X039500Y042000D03*
X039500Y044500D03*
X040000Y046500D03*
X038000Y046000D03*
X035000Y046500D03*
X032500Y041000D03*
X028500Y041500D03*
X027500Y043500D03*
X020500Y044500D03*
X019000Y042000D03*
X016000Y044500D03*
X017500Y046500D03*
X019000Y047500D03*
X014000Y047000D03*
X012000Y046000D03*
X009500Y047000D03*
X007500Y046000D03*
X008000Y043000D03*
X004500Y044500D03*
X002500Y042500D03*
X002500Y046500D03*
X015500Y042500D03*
D30*
X040500Y042000D02*
X042000Y042000D01*
X043000Y041000D01*
X044000Y041000D01*
X044000Y042000D02*
X046100Y042000D01*
X048200Y042000D01*
X048800Y042600D01*
X049400Y042600D01*
X049400Y044000D01*
X048900Y044500D01*
X048900Y044805D01*
X048805Y044900D01*
X048305Y044900D01*
X048300Y044895D01*
X047515Y044895D01*
X047480Y044930D01*
X047525Y044305D02*
X048300Y044305D01*
X048305Y044300D01*
X048305Y043800D01*
X047525Y044305D02*
X047480Y044260D01*
X047480Y046270D02*
X047480Y046600D01*
X047700Y046600D01*
X048205Y046600D01*
X047480Y046600D02*
X047480Y046940D01*
X049400Y042600D02*
X050700Y042600D01*
X051200Y042100D01*
X051200Y015100D01*
X049600Y013500D01*
X045500Y013500D01*
X045409Y013591D01*
X045409Y014094D01*
X045404Y014100D01*
X044695Y014100D01*
X044695Y015900D02*
X045000Y015900D01*
X045000Y017500D01*
X046000Y017500D01*
X045409Y015906D02*
X045404Y015900D01*
X045000Y015900D01*
X047500Y013000D02*
X045500Y011000D01*
X045500Y009000D01*
X046327Y008173D01*
X046417Y008173D01*
X047500Y013000D02*
X051126Y013000D01*
X051874Y013000D02*
X052000Y013126D01*
X052000Y014000D01*
D31*
X042000Y013295D02*
X042000Y011500D01*
X041000Y010500D02*
X040500Y011000D01*
X040500Y012795D01*
X041205Y013500D01*
X041795Y013500D02*
X042000Y013295D01*
D32*
X031500Y009500D02*
X030500Y009500D01*
X030500Y008398D01*
X019500Y009500D02*
X018500Y009500D01*
X018500Y008398D01*
X047700Y046600D02*
X047700Y047200D01*
X048000Y047500D01*
D33*
X048000Y047500D03*
X052000Y014000D03*
M02*
