G75*
%MOIN*%
%OFA0B0*%
%FSLAX24Y24*%
%IPPOS*%
%LPD*%
%AMOC8*
5,1,8,0,0,1.08239X$1,22.5*
%
%ADD10C,0.0520*%
%ADD11C,0.0600*%
%ADD12C,0.0580*%
%ADD13C,0.0827*%
%ADD14C,0.0560*%
%ADD15C,0.0160*%
%ADD16C,0.0436*%
D10*
X041000Y010500D03*
X041000Y011500D03*
X042000Y011500D03*
X042000Y010500D03*
D11*
X044000Y017500D03*
X045000Y017500D03*
X046000Y017500D03*
X047000Y017500D03*
X048000Y017500D03*
X049000Y017500D03*
X049000Y025500D03*
X048000Y025500D03*
X047000Y025500D03*
X046000Y025500D03*
X045000Y025500D03*
X044000Y025500D03*
X041000Y034000D03*
X041000Y035000D03*
X041000Y036000D03*
X041000Y037000D03*
X041000Y038000D03*
X041000Y039000D03*
X041000Y040000D03*
X041000Y041000D03*
X040000Y041000D03*
X040000Y040000D03*
X040000Y039000D03*
X040000Y038000D03*
X040000Y037000D03*
X040000Y036000D03*
X040000Y035000D03*
X040000Y034000D03*
D12*
X044000Y034000D03*
X044000Y033000D03*
X044000Y032000D03*
X044000Y031000D03*
X044000Y030000D03*
X044000Y029000D03*
X045000Y029000D03*
X046000Y029000D03*
X046000Y030000D03*
X046000Y031000D03*
X046000Y032000D03*
X046000Y033000D03*
X046000Y034000D03*
X046000Y035000D03*
X046000Y036000D03*
X047000Y036000D03*
X047000Y035000D03*
X047000Y034000D03*
X047000Y033000D03*
X047000Y032000D03*
X047000Y031000D03*
X047000Y030000D03*
X047000Y029000D03*
X048000Y029000D03*
X049000Y029000D03*
X050000Y029000D03*
X050000Y030000D03*
X050000Y031000D03*
X050000Y032000D03*
X050000Y033000D03*
X050000Y034000D03*
X050000Y035000D03*
X050000Y036000D03*
X050000Y037000D03*
X050000Y038000D03*
X050000Y039000D03*
X050000Y040000D03*
X050000Y041000D03*
X050000Y042000D03*
X045000Y041000D03*
X044000Y041000D03*
X044000Y040000D03*
X044000Y039000D03*
X045000Y039000D03*
X045000Y038000D03*
X044000Y038000D03*
X044000Y037000D03*
X045000Y037000D03*
X044000Y036000D03*
X044000Y035000D03*
X044000Y042000D03*
D13*
X046417Y009827D03*
X046417Y008173D03*
X048583Y008173D03*
X048583Y009827D03*
D14*
X037500Y010550D03*
X037500Y011550D03*
X037500Y012550D03*
X037500Y013550D03*
X037500Y014550D03*
X037500Y015550D03*
X037500Y016550D03*
X037500Y017550D03*
X037500Y018550D03*
X037500Y019550D03*
X037500Y020550D03*
X037500Y021550D03*
X037500Y022550D03*
X037500Y023550D03*
X037500Y024550D03*
X037500Y025550D03*
X037500Y026550D03*
X037500Y027550D03*
X037500Y028550D03*
X037500Y029550D03*
X037500Y030550D03*
X037500Y031550D03*
X037500Y032550D03*
X037500Y033550D03*
X037500Y034550D03*
X037500Y035550D03*
X037500Y036550D03*
X037500Y037550D03*
X037500Y038550D03*
X037500Y039550D03*
X037500Y040550D03*
X037500Y041550D03*
X035500Y041550D03*
X035500Y040550D03*
X035500Y039550D03*
X035500Y038550D03*
X035500Y037550D03*
X035500Y036550D03*
X035500Y035550D03*
X035500Y034550D03*
X035500Y033550D03*
X035500Y032550D03*
X035500Y031550D03*
X035500Y030550D03*
X035500Y029550D03*
X035500Y028550D03*
X035500Y027550D03*
X035500Y026550D03*
X035500Y025550D03*
X035500Y024550D03*
X035500Y023550D03*
X035500Y022550D03*
X035500Y021550D03*
X035500Y020550D03*
X035500Y019550D03*
X035500Y018550D03*
X035500Y017550D03*
X035500Y016550D03*
X035500Y015550D03*
X035500Y014550D03*
X035500Y013550D03*
X035500Y012550D03*
X035500Y011550D03*
X035500Y010550D03*
X025500Y010550D03*
X025500Y011550D03*
X025500Y012550D03*
X025500Y013550D03*
X025500Y014550D03*
X025500Y015550D03*
X025500Y016550D03*
X025500Y017550D03*
X025500Y018550D03*
X025500Y019550D03*
X025500Y020550D03*
X025500Y021550D03*
X025500Y022550D03*
X025500Y023550D03*
X025500Y024550D03*
X025500Y025550D03*
X025500Y026550D03*
X025500Y027550D03*
X025500Y028550D03*
X025500Y029550D03*
X025500Y030550D03*
X025500Y031550D03*
X025500Y032550D03*
X025500Y033550D03*
X025500Y034550D03*
X025500Y035550D03*
X025500Y036550D03*
X025500Y037550D03*
X025500Y038550D03*
X025500Y039550D03*
X025500Y040550D03*
X025500Y041550D03*
X023500Y041550D03*
X023500Y040550D03*
X023500Y039550D03*
X023500Y038550D03*
X023500Y037550D03*
X023500Y036550D03*
X023500Y035550D03*
X023500Y034550D03*
X023500Y033550D03*
X023500Y032550D03*
X023500Y031550D03*
X023500Y030550D03*
X023500Y029550D03*
X023500Y028550D03*
X023500Y027550D03*
X023500Y026550D03*
X023500Y025550D03*
X023500Y024550D03*
X023500Y023550D03*
X023500Y022550D03*
X023500Y021550D03*
X023500Y020550D03*
X023500Y019550D03*
X023500Y018550D03*
X023500Y017550D03*
X023500Y016550D03*
X023500Y015550D03*
X023500Y014550D03*
X023500Y013550D03*
X023500Y012550D03*
X023500Y011550D03*
X023500Y010550D03*
X013500Y010550D03*
X013500Y011550D03*
X013500Y012550D03*
X013500Y013550D03*
X013500Y014550D03*
X013500Y015550D03*
X013500Y016550D03*
X013500Y017550D03*
X013500Y018550D03*
X013500Y019550D03*
X013500Y020550D03*
X013500Y021550D03*
X013500Y022550D03*
X013500Y023550D03*
X013500Y024550D03*
X013500Y025550D03*
X013500Y026550D03*
X013500Y027550D03*
X013500Y028550D03*
X013500Y029550D03*
X013500Y030550D03*
X013500Y031550D03*
X013500Y032550D03*
X013500Y033550D03*
X013500Y034550D03*
X013500Y035550D03*
X013500Y036550D03*
X013500Y037550D03*
X013500Y038550D03*
X013500Y039550D03*
X013500Y040550D03*
X013500Y041550D03*
X011500Y041550D03*
X011500Y040550D03*
X011500Y039550D03*
X011500Y038550D03*
X011500Y037550D03*
X011500Y036550D03*
X011500Y035550D03*
X011500Y034550D03*
X011500Y033550D03*
X011500Y032550D03*
X011500Y031550D03*
X011500Y030550D03*
X011500Y029550D03*
X011500Y028550D03*
X011500Y027550D03*
X011500Y026550D03*
X011500Y025550D03*
X011500Y024550D03*
X011500Y023550D03*
X011500Y022550D03*
X011500Y021550D03*
X011500Y020550D03*
X011500Y019550D03*
X011500Y018550D03*
X011500Y017550D03*
X011500Y016550D03*
X011500Y015550D03*
X011500Y014550D03*
X011500Y013550D03*
X011500Y012550D03*
X011500Y011550D03*
X011500Y010550D03*
D15*
X001005Y013000D02*
X001005Y004000D01*
X047500Y004000D01*
X047500Y005743D01*
X047404Y005910D01*
X047331Y006182D01*
X047331Y006464D01*
X047404Y006736D01*
X047500Y006902D01*
X047500Y011098D01*
X047404Y011264D01*
X047331Y011536D01*
X047331Y011818D01*
X047404Y012090D01*
X047500Y012257D01*
X047500Y013000D01*
X037636Y013000D01*
X037611Y012990D01*
X037389Y012990D01*
X037364Y013000D01*
X035636Y013000D01*
X035611Y012990D01*
X035389Y012990D01*
X035364Y013000D01*
X025636Y013000D01*
X025611Y012990D01*
X025389Y012990D01*
X025364Y013000D01*
X023636Y013000D01*
X023611Y012990D01*
X023389Y012990D01*
X023364Y013000D01*
X013636Y013000D01*
X013611Y012990D01*
X013389Y012990D01*
X013364Y013000D01*
X011636Y013000D01*
X011611Y012990D01*
X011389Y012990D01*
X011364Y013000D01*
X001005Y013000D01*
X001005Y012863D02*
X047500Y012863D01*
X047500Y012705D02*
X001005Y012705D01*
X001005Y012546D02*
X047500Y012546D01*
X047500Y012388D02*
X001005Y012388D01*
X001005Y012229D02*
X047484Y012229D01*
X047399Y012071D02*
X037707Y012071D01*
X037611Y012110D02*
X037389Y012110D01*
X037183Y012025D01*
X037025Y011867D01*
X036940Y011661D01*
X036940Y011439D01*
X037025Y011233D01*
X037183Y011075D01*
X037244Y011050D01*
X037183Y011025D01*
X037025Y010867D01*
X036940Y010661D01*
X036940Y010439D01*
X037025Y010233D01*
X037183Y010075D01*
X037389Y009990D01*
X037611Y009990D01*
X037817Y010075D01*
X037975Y010233D01*
X038060Y010439D01*
X038060Y010661D01*
X037975Y010867D01*
X037817Y011025D01*
X037756Y011050D01*
X037817Y011075D01*
X037975Y011233D01*
X038060Y011439D01*
X038060Y011661D01*
X037975Y011867D01*
X037817Y012025D01*
X037611Y012110D01*
X037293Y012071D02*
X035707Y012071D01*
X035611Y012110D02*
X035389Y012110D01*
X035183Y012025D01*
X035025Y011867D01*
X034940Y011661D01*
X034940Y011439D01*
X035025Y011233D01*
X035183Y011075D01*
X035244Y011050D01*
X035183Y011025D01*
X035025Y010867D01*
X034940Y010661D01*
X034940Y010439D01*
X035025Y010233D01*
X035183Y010075D01*
X035389Y009990D01*
X035611Y009990D01*
X035817Y010075D01*
X035975Y010233D01*
X036060Y010439D01*
X036060Y010661D01*
X035975Y010867D01*
X035817Y011025D01*
X035756Y011050D01*
X035817Y011075D01*
X035975Y011233D01*
X036060Y011439D01*
X036060Y011661D01*
X035975Y011867D01*
X035817Y012025D01*
X035611Y012110D01*
X035293Y012071D02*
X025707Y012071D01*
X025611Y012110D02*
X025389Y012110D01*
X025183Y012025D01*
X025025Y011867D01*
X024940Y011661D01*
X024940Y011439D01*
X025025Y011233D01*
X025183Y011075D01*
X025244Y011050D01*
X025183Y011025D01*
X025025Y010867D01*
X024940Y010661D01*
X024940Y010439D01*
X025025Y010233D01*
X025183Y010075D01*
X025389Y009990D01*
X025611Y009990D01*
X025817Y010075D01*
X025975Y010233D01*
X026060Y010439D01*
X026060Y010661D01*
X025975Y010867D01*
X025817Y011025D01*
X025756Y011050D01*
X025817Y011075D01*
X025975Y011233D01*
X026060Y011439D01*
X026060Y011661D01*
X025975Y011867D01*
X025817Y012025D01*
X025611Y012110D01*
X025293Y012071D02*
X023707Y012071D01*
X023611Y012110D02*
X023389Y012110D01*
X023183Y012025D01*
X023025Y011867D01*
X022940Y011661D01*
X022940Y011439D01*
X023025Y011233D01*
X023183Y011075D01*
X023244Y011050D01*
X023183Y011025D01*
X023025Y010867D01*
X022940Y010661D01*
X022940Y010439D01*
X023025Y010233D01*
X023183Y010075D01*
X023389Y009990D01*
X023611Y009990D01*
X023817Y010075D01*
X023975Y010233D01*
X024060Y010439D01*
X024060Y010661D01*
X023975Y010867D01*
X023817Y011025D01*
X023756Y011050D01*
X023817Y011075D01*
X023975Y011233D01*
X024060Y011439D01*
X024060Y011661D01*
X023975Y011867D01*
X023817Y012025D01*
X023611Y012110D01*
X023293Y012071D02*
X013707Y012071D01*
X013611Y012110D02*
X013389Y012110D01*
X013183Y012025D01*
X013025Y011867D01*
X012940Y011661D01*
X012940Y011439D01*
X013025Y011233D01*
X013183Y011075D01*
X013244Y011050D01*
X013183Y011025D01*
X013025Y010867D01*
X012940Y010661D01*
X012940Y010439D01*
X013025Y010233D01*
X013183Y010075D01*
X013389Y009990D01*
X013611Y009990D01*
X013817Y010075D01*
X013975Y010233D01*
X014060Y010439D01*
X014060Y010661D01*
X013975Y010867D01*
X013817Y011025D01*
X013756Y011050D01*
X013817Y011075D01*
X013975Y011233D01*
X014060Y011439D01*
X014060Y011661D01*
X013975Y011867D01*
X013817Y012025D01*
X013611Y012110D01*
X013293Y012071D02*
X011707Y012071D01*
X011611Y012110D02*
X011389Y012110D01*
X011183Y012025D01*
X011025Y011867D01*
X010940Y011661D01*
X010940Y011439D01*
X011025Y011233D01*
X011183Y011075D01*
X011244Y011050D01*
X011183Y011025D01*
X011025Y010867D01*
X010940Y010661D01*
X010940Y010439D01*
X011025Y010233D01*
X011183Y010075D01*
X011389Y009990D01*
X011611Y009990D01*
X011817Y010075D01*
X011975Y010233D01*
X012060Y010439D01*
X012060Y010661D01*
X011975Y010867D01*
X011817Y011025D01*
X011756Y011050D01*
X011817Y011075D01*
X011975Y011233D01*
X012060Y011439D01*
X012060Y011661D01*
X011975Y011867D01*
X011817Y012025D01*
X011611Y012110D01*
X011293Y012071D02*
X001005Y012071D01*
X001005Y011912D02*
X011070Y011912D01*
X010978Y011754D02*
X001005Y011754D01*
X001005Y011595D02*
X010940Y011595D01*
X010941Y011437D02*
X001005Y011437D01*
X001005Y011278D02*
X011007Y011278D01*
X011139Y011120D02*
X001005Y011120D01*
X001005Y010961D02*
X011119Y010961D01*
X010998Y010803D02*
X001005Y010803D01*
X001005Y010644D02*
X010940Y010644D01*
X010940Y010486D02*
X001005Y010486D01*
X001005Y010327D02*
X010986Y010327D01*
X011090Y010169D02*
X001005Y010169D01*
X001005Y010010D02*
X011340Y010010D01*
X011660Y010010D02*
X013340Y010010D01*
X013090Y010169D02*
X011910Y010169D01*
X012014Y010327D02*
X012986Y010327D01*
X012940Y010486D02*
X012060Y010486D01*
X012060Y010644D02*
X012940Y010644D01*
X012998Y010803D02*
X012002Y010803D01*
X011881Y010961D02*
X013119Y010961D01*
X013139Y011120D02*
X011861Y011120D01*
X011993Y011278D02*
X013007Y011278D01*
X012941Y011437D02*
X012059Y011437D01*
X012060Y011595D02*
X012940Y011595D01*
X012978Y011754D02*
X012022Y011754D01*
X011930Y011912D02*
X013070Y011912D01*
X013930Y011912D02*
X023070Y011912D01*
X022978Y011754D02*
X014022Y011754D01*
X014060Y011595D02*
X022940Y011595D01*
X022941Y011437D02*
X014059Y011437D01*
X013993Y011278D02*
X023007Y011278D01*
X023139Y011120D02*
X013861Y011120D01*
X013881Y010961D02*
X023119Y010961D01*
X022998Y010803D02*
X014002Y010803D01*
X014060Y010644D02*
X022940Y010644D01*
X022940Y010486D02*
X014060Y010486D01*
X014014Y010327D02*
X022986Y010327D01*
X023090Y010169D02*
X013910Y010169D01*
X013660Y010010D02*
X023340Y010010D01*
X023660Y010010D02*
X025340Y010010D01*
X025090Y010169D02*
X023910Y010169D01*
X024014Y010327D02*
X024986Y010327D01*
X024940Y010486D02*
X024060Y010486D01*
X024060Y010644D02*
X024940Y010644D01*
X024998Y010803D02*
X024002Y010803D01*
X023881Y010961D02*
X025119Y010961D01*
X025139Y011120D02*
X023861Y011120D01*
X023993Y011278D02*
X025007Y011278D01*
X024941Y011437D02*
X024059Y011437D01*
X024060Y011595D02*
X024940Y011595D01*
X024978Y011754D02*
X024022Y011754D01*
X023930Y011912D02*
X025070Y011912D01*
X025930Y011912D02*
X035070Y011912D01*
X034978Y011754D02*
X026022Y011754D01*
X026060Y011595D02*
X034940Y011595D01*
X034941Y011437D02*
X026059Y011437D01*
X025993Y011278D02*
X035007Y011278D01*
X035139Y011120D02*
X025861Y011120D01*
X025881Y010961D02*
X035119Y010961D01*
X034998Y010803D02*
X026002Y010803D01*
X026060Y010644D02*
X034940Y010644D01*
X034940Y010486D02*
X026060Y010486D01*
X026014Y010327D02*
X034986Y010327D01*
X035090Y010169D02*
X025910Y010169D01*
X025660Y010010D02*
X035340Y010010D01*
X035660Y010010D02*
X037340Y010010D01*
X037090Y010169D02*
X035910Y010169D01*
X036014Y010327D02*
X036986Y010327D01*
X036940Y010486D02*
X036060Y010486D01*
X036060Y010644D02*
X036940Y010644D01*
X036998Y010803D02*
X036002Y010803D01*
X035881Y010961D02*
X037119Y010961D01*
X037139Y011120D02*
X035861Y011120D01*
X035993Y011278D02*
X037007Y011278D01*
X036941Y011437D02*
X036059Y011437D01*
X036060Y011595D02*
X036940Y011595D01*
X036978Y011754D02*
X036022Y011754D01*
X035930Y011912D02*
X037070Y011912D01*
X037930Y011912D02*
X040648Y011912D01*
X040694Y011958D02*
X040542Y011806D01*
X040460Y011607D01*
X040460Y011393D01*
X040542Y011194D01*
X040694Y011042D01*
X040796Y011000D01*
X040694Y010958D01*
X040542Y010806D01*
X040460Y010607D01*
X040460Y010393D01*
X040542Y010194D01*
X040694Y010042D01*
X040893Y009960D01*
X041107Y009960D01*
X041306Y010042D01*
X041458Y010194D01*
X041500Y010296D01*
X041542Y010194D01*
X041694Y010042D01*
X041893Y009960D01*
X042107Y009960D01*
X042306Y010042D01*
X042458Y010194D01*
X042540Y010393D01*
X042540Y010607D01*
X042458Y010806D01*
X042306Y010958D01*
X042204Y011000D01*
X042306Y011042D01*
X042458Y011194D01*
X042540Y011393D01*
X042540Y011607D01*
X042458Y011806D01*
X042306Y011958D01*
X042107Y012040D01*
X041893Y012040D01*
X041694Y011958D01*
X041542Y011806D01*
X041500Y011704D01*
X041458Y011806D01*
X041306Y011958D01*
X041107Y012040D01*
X040893Y012040D01*
X040694Y011958D01*
X040521Y011754D02*
X038022Y011754D01*
X038060Y011595D02*
X040460Y011595D01*
X040460Y011437D02*
X038059Y011437D01*
X037993Y011278D02*
X040507Y011278D01*
X040617Y011120D02*
X037861Y011120D01*
X037881Y010961D02*
X040702Y010961D01*
X040541Y010803D02*
X038002Y010803D01*
X038060Y010644D02*
X040475Y010644D01*
X040460Y010486D02*
X038060Y010486D01*
X038014Y010327D02*
X040487Y010327D01*
X040568Y010169D02*
X037910Y010169D01*
X037660Y010010D02*
X040772Y010010D01*
X041228Y010010D02*
X041772Y010010D01*
X041568Y010169D02*
X041432Y010169D01*
X042228Y010010D02*
X047500Y010010D01*
X047500Y009852D02*
X031852Y009852D01*
X031782Y009922D02*
X031599Y009998D01*
X031401Y009998D01*
X031218Y009922D01*
X031078Y009782D01*
X031002Y009599D01*
X031002Y009401D01*
X031078Y009218D01*
X031218Y009078D01*
X031401Y009002D01*
X031599Y009002D01*
X031782Y009078D01*
X031922Y009218D01*
X031998Y009401D01*
X031998Y009599D01*
X031922Y009782D01*
X031782Y009922D01*
X031959Y009693D02*
X047500Y009693D01*
X047500Y009535D02*
X031998Y009535D01*
X031987Y009376D02*
X047500Y009376D01*
X047500Y009218D02*
X036903Y009218D01*
X037012Y009154D02*
X036778Y009290D01*
X036516Y009360D01*
X036244Y009360D01*
X035982Y009290D01*
X035748Y009154D01*
X035556Y008962D01*
X035420Y008728D01*
X035350Y008466D01*
X035350Y008194D01*
X035420Y007932D01*
X035556Y007698D01*
X035748Y007506D01*
X035982Y007370D01*
X036244Y007300D01*
X036516Y007300D01*
X036778Y007370D01*
X037012Y007506D01*
X037204Y007698D01*
X037340Y007932D01*
X037410Y008194D01*
X037410Y008466D01*
X037340Y008728D01*
X037204Y008962D01*
X037012Y009154D01*
X037108Y009059D02*
X047500Y009059D01*
X047500Y008901D02*
X037240Y008901D01*
X037331Y008742D02*
X046006Y008742D01*
X046025Y008761D02*
X045829Y008566D01*
X045724Y008311D01*
X045724Y008035D01*
X045829Y007780D01*
X046025Y007585D01*
X046279Y007480D01*
X046555Y007480D01*
X046810Y007585D01*
X047005Y007780D01*
X047111Y008035D01*
X047111Y008311D01*
X047005Y008566D01*
X046810Y008761D01*
X046555Y008867D01*
X046279Y008867D01*
X046025Y008761D01*
X045847Y008584D02*
X037378Y008584D01*
X037410Y008425D02*
X045771Y008425D01*
X045724Y008267D02*
X037410Y008267D01*
X037387Y008108D02*
X045724Y008108D01*
X045759Y007950D02*
X037344Y007950D01*
X037258Y007791D02*
X045825Y007791D01*
X045977Y007633D02*
X037139Y007633D01*
X036957Y007474D02*
X047500Y007474D01*
X047500Y007316D02*
X036573Y007316D01*
X036187Y007316D02*
X030888Y007316D01*
X030922Y007282D02*
X030782Y007422D01*
X030599Y007498D01*
X030401Y007498D01*
X030218Y007422D01*
X030078Y007282D01*
X030002Y007099D01*
X030002Y006901D01*
X030078Y006718D01*
X030218Y006578D01*
X030401Y006502D01*
X030599Y006502D01*
X030782Y006578D01*
X030922Y006718D01*
X030998Y006901D01*
X030998Y007099D01*
X030922Y007282D01*
X030974Y007157D02*
X047500Y007157D01*
X047500Y006999D02*
X030998Y006999D01*
X030973Y006840D02*
X047464Y006840D01*
X047389Y006682D02*
X030885Y006682D01*
X030649Y006523D02*
X047347Y006523D01*
X047331Y006365D02*
X031839Y006365D01*
X031782Y006422D02*
X031599Y006498D01*
X031401Y006498D01*
X031218Y006422D01*
X031078Y006282D01*
X031002Y006099D01*
X031002Y005901D01*
X031078Y005718D01*
X031218Y005578D01*
X031401Y005502D01*
X031599Y005502D01*
X031782Y005578D01*
X031922Y005718D01*
X031998Y005901D01*
X031998Y006099D01*
X031922Y006282D01*
X031782Y006422D01*
X031953Y006206D02*
X047331Y006206D01*
X047367Y006048D02*
X031998Y006048D01*
X031993Y005889D02*
X047416Y005889D01*
X047500Y005731D02*
X031927Y005731D01*
X031768Y005572D02*
X047500Y005572D01*
X047500Y005414D02*
X031790Y005414D01*
X031782Y005422D02*
X031599Y005498D01*
X031401Y005498D01*
X031218Y005422D01*
X031078Y005282D01*
X031002Y005099D01*
X031002Y004901D01*
X031078Y004718D01*
X031218Y004578D01*
X031401Y004502D01*
X031599Y004502D01*
X031782Y004578D01*
X031922Y004718D01*
X031998Y004901D01*
X031998Y005099D01*
X031922Y005282D01*
X031782Y005422D01*
X031933Y005255D02*
X047500Y005255D01*
X047500Y005097D02*
X031998Y005097D01*
X031998Y004938D02*
X047500Y004938D01*
X047500Y004780D02*
X031947Y004780D01*
X031825Y004621D02*
X047500Y004621D01*
X047500Y004463D02*
X001005Y004463D01*
X001005Y004621D02*
X017175Y004621D01*
X017218Y004578D02*
X017401Y004502D01*
X017599Y004502D01*
X017782Y004578D01*
X017922Y004718D01*
X017998Y004901D01*
X017998Y005099D01*
X017922Y005282D01*
X017782Y005422D01*
X017599Y005498D01*
X017401Y005498D01*
X017218Y005422D01*
X017078Y005282D01*
X017002Y005099D01*
X017002Y004901D01*
X017078Y004718D01*
X017218Y004578D01*
X017053Y004780D02*
X001005Y004780D01*
X001005Y004938D02*
X017002Y004938D01*
X017002Y005097D02*
X001005Y005097D01*
X001005Y005255D02*
X017067Y005255D01*
X017210Y005414D02*
X001005Y005414D01*
X001005Y005572D02*
X017232Y005572D01*
X017218Y005578D02*
X017401Y005502D01*
X017599Y005502D01*
X017782Y005578D01*
X017922Y005718D01*
X017998Y005901D01*
X017998Y006099D01*
X017922Y006282D01*
X017782Y006422D01*
X017599Y006498D01*
X017401Y006498D01*
X017218Y006422D01*
X017078Y006282D01*
X017002Y006099D01*
X017002Y005901D01*
X017078Y005718D01*
X017218Y005578D01*
X017073Y005731D02*
X001005Y005731D01*
X001005Y005889D02*
X017007Y005889D01*
X017002Y006048D02*
X001005Y006048D01*
X001005Y006206D02*
X017047Y006206D01*
X017161Y006365D02*
X001005Y006365D01*
X001005Y006523D02*
X018351Y006523D01*
X018401Y006502D02*
X018599Y006502D01*
X018782Y006578D01*
X018922Y006718D01*
X018998Y006901D01*
X018998Y007099D01*
X018922Y007282D01*
X018782Y007422D01*
X018599Y007498D01*
X018401Y007498D01*
X018218Y007422D01*
X018078Y007282D01*
X018002Y007099D01*
X018002Y006901D01*
X018078Y006718D01*
X018218Y006578D01*
X018401Y006502D01*
X018649Y006523D02*
X030351Y006523D01*
X030115Y006682D02*
X018885Y006682D01*
X018973Y006840D02*
X030027Y006840D01*
X030002Y006999D02*
X018998Y006999D01*
X018974Y007157D02*
X030026Y007157D01*
X030112Y007316D02*
X024813Y007316D01*
X024756Y007300D02*
X025018Y007370D01*
X025252Y007506D01*
X025444Y007698D01*
X025580Y007932D01*
X025650Y008194D01*
X025650Y008466D01*
X025580Y008728D01*
X025444Y008962D01*
X025252Y009154D01*
X025018Y009290D01*
X024756Y009360D01*
X024484Y009360D01*
X024222Y009290D01*
X023988Y009154D01*
X023796Y008962D01*
X023660Y008728D01*
X023590Y008466D01*
X023590Y008194D01*
X023660Y007932D01*
X023796Y007698D01*
X023988Y007506D01*
X024222Y007370D01*
X024484Y007300D01*
X024756Y007300D01*
X024427Y007316D02*
X018888Y007316D01*
X018656Y007474D02*
X024043Y007474D01*
X023861Y007633D02*
X013139Y007633D01*
X013204Y007698D02*
X013340Y007932D01*
X013410Y008194D01*
X013410Y008466D01*
X013340Y008728D01*
X013204Y008962D01*
X013012Y009154D01*
X012778Y009290D01*
X012516Y009360D01*
X012244Y009360D01*
X011982Y009290D01*
X011748Y009154D01*
X011556Y008962D01*
X011420Y008728D01*
X011350Y008466D01*
X011350Y008194D01*
X011420Y007932D01*
X011556Y007698D01*
X011748Y007506D01*
X011982Y007370D01*
X012244Y007300D01*
X012516Y007300D01*
X012778Y007370D01*
X013012Y007506D01*
X013204Y007698D01*
X013258Y007791D02*
X023742Y007791D01*
X023656Y007950D02*
X013344Y007950D01*
X013387Y008108D02*
X023613Y008108D01*
X023590Y008267D02*
X013410Y008267D01*
X013410Y008425D02*
X023590Y008425D01*
X023622Y008584D02*
X013378Y008584D01*
X013331Y008742D02*
X023669Y008742D01*
X023760Y008901D02*
X013240Y008901D01*
X013108Y009059D02*
X023892Y009059D01*
X024097Y009218D02*
X012903Y009218D01*
X011857Y009218D02*
X001005Y009218D01*
X001005Y009376D02*
X031013Y009376D01*
X031002Y009535D02*
X001005Y009535D01*
X001005Y009693D02*
X031041Y009693D01*
X031148Y009852D02*
X001005Y009852D01*
X001005Y009059D02*
X011652Y009059D01*
X011520Y008901D02*
X001005Y008901D01*
X001005Y008742D02*
X011429Y008742D01*
X011382Y008584D02*
X001005Y008584D01*
X001005Y008425D02*
X011350Y008425D01*
X011350Y008267D02*
X001005Y008267D01*
X001005Y008108D02*
X011373Y008108D01*
X011416Y007950D02*
X001005Y007950D01*
X001005Y007791D02*
X011502Y007791D01*
X011621Y007633D02*
X001005Y007633D01*
X001005Y007474D02*
X011803Y007474D01*
X012187Y007316D02*
X001005Y007316D01*
X001005Y007157D02*
X018026Y007157D01*
X018002Y006999D02*
X001005Y006999D01*
X001005Y006840D02*
X018027Y006840D01*
X018115Y006682D02*
X001005Y006682D01*
X001005Y004304D02*
X047500Y004304D01*
X047500Y004146D02*
X001005Y004146D01*
X001005Y013360D02*
X001005Y048000D01*
X041000Y048000D01*
X041000Y041580D01*
X040885Y041580D01*
X040671Y041492D01*
X040508Y041329D01*
X040500Y041309D01*
X040492Y041329D01*
X040329Y041492D01*
X040115Y041580D01*
X039885Y041580D01*
X039671Y041492D01*
X039508Y041329D01*
X039420Y041115D01*
X039420Y040885D01*
X039508Y040671D01*
X039671Y040508D01*
X039691Y040500D01*
X039671Y040492D01*
X039508Y040329D01*
X039420Y040115D01*
X039420Y039885D01*
X039508Y039671D01*
X039671Y039508D01*
X039691Y039500D01*
X039671Y039492D01*
X039508Y039329D01*
X039420Y039115D01*
X039420Y038885D01*
X039508Y038671D01*
X039671Y038508D01*
X039691Y038500D01*
X039671Y038492D01*
X039508Y038329D01*
X039420Y038115D01*
X039420Y037885D01*
X039508Y037671D01*
X039671Y037508D01*
X039691Y037500D01*
X039671Y037492D01*
X039508Y037329D01*
X039420Y037115D01*
X039420Y036885D01*
X039508Y036671D01*
X039671Y036508D01*
X039691Y036500D01*
X039671Y036492D01*
X039508Y036329D01*
X039420Y036115D01*
X039420Y035885D01*
X039508Y035671D01*
X039671Y035508D01*
X039691Y035500D01*
X039671Y035492D01*
X039508Y035329D01*
X039420Y035115D01*
X039420Y034885D01*
X039430Y034860D01*
X039428Y034860D01*
X039296Y034805D01*
X038695Y034204D01*
X038640Y034072D01*
X038640Y032199D01*
X038060Y031619D01*
X038060Y031661D01*
X037975Y031867D01*
X037817Y032025D01*
X037756Y032050D01*
X037817Y032075D01*
X037975Y032233D01*
X038060Y032439D01*
X038060Y032661D01*
X037975Y032867D01*
X037817Y033025D01*
X037756Y033050D01*
X037817Y033075D01*
X037975Y033233D01*
X038060Y033439D01*
X038060Y033661D01*
X037975Y033867D01*
X037817Y034025D01*
X037756Y034050D01*
X037817Y034075D01*
X037975Y034233D01*
X038060Y034439D01*
X038060Y034661D01*
X037975Y034867D01*
X037817Y035025D01*
X037756Y035050D01*
X037817Y035075D01*
X037975Y035233D01*
X038060Y035439D01*
X038060Y035661D01*
X037975Y035867D01*
X037817Y036025D01*
X037756Y036050D01*
X037817Y036075D01*
X037975Y036233D01*
X038060Y036439D01*
X038060Y036661D01*
X037975Y036867D01*
X037817Y037025D01*
X037756Y037050D01*
X037817Y037075D01*
X037975Y037233D01*
X038060Y037439D01*
X038060Y037661D01*
X037975Y037867D01*
X037817Y038025D01*
X037756Y038050D01*
X037817Y038075D01*
X037975Y038233D01*
X038060Y038439D01*
X038060Y038661D01*
X037975Y038867D01*
X037817Y039025D01*
X037756Y039050D01*
X037817Y039075D01*
X037975Y039233D01*
X038060Y039439D01*
X038060Y039661D01*
X037975Y039867D01*
X037817Y040025D01*
X037756Y040050D01*
X037817Y040075D01*
X037975Y040233D01*
X038060Y040439D01*
X038060Y040661D01*
X037975Y040867D01*
X037817Y041025D01*
X037611Y041110D01*
X037389Y041110D01*
X037183Y041025D01*
X037025Y040867D01*
X036940Y040661D01*
X036940Y040439D01*
X037025Y040233D01*
X037183Y040075D01*
X037244Y040050D01*
X037183Y040025D01*
X037025Y039867D01*
X036940Y039661D01*
X036940Y039439D01*
X037025Y039233D01*
X037183Y039075D01*
X037244Y039050D01*
X037183Y039025D01*
X037025Y038867D01*
X036940Y038661D01*
X036940Y038439D01*
X037025Y038233D01*
X037183Y038075D01*
X037244Y038050D01*
X037183Y038025D01*
X037025Y037867D01*
X036940Y037661D01*
X036940Y037439D01*
X037025Y037233D01*
X037183Y037075D01*
X037244Y037050D01*
X037183Y037025D01*
X037025Y036867D01*
X036940Y036661D01*
X036940Y036439D01*
X037025Y036233D01*
X037183Y036075D01*
X037244Y036050D01*
X037183Y036025D01*
X037025Y035867D01*
X036940Y035661D01*
X036940Y035439D01*
X037025Y035233D01*
X037183Y035075D01*
X037244Y035050D01*
X037183Y035025D01*
X037025Y034867D01*
X036940Y034661D01*
X036940Y034439D01*
X037025Y034233D01*
X037183Y034075D01*
X037244Y034050D01*
X037183Y034025D01*
X037025Y033867D01*
X036940Y033661D01*
X036940Y033439D01*
X037025Y033233D01*
X037183Y033075D01*
X037244Y033050D01*
X037183Y033025D01*
X037025Y032867D01*
X036940Y032661D01*
X036940Y032439D01*
X037025Y032233D01*
X037183Y032075D01*
X037244Y032050D01*
X037183Y032025D01*
X037025Y031867D01*
X036940Y031661D01*
X036940Y031439D01*
X037025Y031233D01*
X037183Y031075D01*
X037244Y031050D01*
X037183Y031025D01*
X037025Y030867D01*
X036940Y030661D01*
X036940Y030439D01*
X037025Y030233D01*
X037183Y030075D01*
X037244Y030050D01*
X037183Y030025D01*
X037025Y029867D01*
X036940Y029661D01*
X036940Y029439D01*
X037025Y029233D01*
X037183Y029075D01*
X037244Y029050D01*
X037183Y029025D01*
X037025Y028867D01*
X036940Y028661D01*
X036940Y028569D01*
X036654Y028855D01*
X036522Y028910D01*
X035932Y028910D01*
X035817Y029025D01*
X035756Y029050D01*
X035817Y029075D01*
X035975Y029233D01*
X036060Y029439D01*
X036060Y029661D01*
X035975Y029867D01*
X035817Y030025D01*
X035756Y030050D01*
X035817Y030075D01*
X035975Y030233D01*
X036060Y030439D01*
X036060Y030661D01*
X035975Y030867D01*
X035817Y031025D01*
X035756Y031050D01*
X035817Y031075D01*
X035975Y031233D01*
X036060Y031439D01*
X036060Y031661D01*
X035975Y031867D01*
X035817Y032025D01*
X035756Y032050D01*
X035817Y032075D01*
X035975Y032233D01*
X036060Y032439D01*
X036060Y032661D01*
X035975Y032867D01*
X035817Y033025D01*
X035756Y033050D01*
X035817Y033075D01*
X035975Y033233D01*
X036060Y033439D01*
X036060Y033661D01*
X035975Y033867D01*
X035817Y034025D01*
X035756Y034050D01*
X035817Y034075D01*
X035975Y034233D01*
X036060Y034439D01*
X036060Y034661D01*
X035975Y034867D01*
X035817Y035025D01*
X035756Y035050D01*
X035817Y035075D01*
X035975Y035233D01*
X036060Y035439D01*
X036060Y035661D01*
X035975Y035867D01*
X035817Y036025D01*
X035756Y036050D01*
X035817Y036075D01*
X035975Y036233D01*
X036060Y036439D01*
X036060Y036661D01*
X035975Y036867D01*
X035817Y037025D01*
X035756Y037050D01*
X035817Y037075D01*
X035975Y037233D01*
X036060Y037439D01*
X036060Y037661D01*
X035975Y037867D01*
X035817Y038025D01*
X035756Y038050D01*
X035817Y038075D01*
X035975Y038233D01*
X036060Y038439D01*
X036060Y038661D01*
X035975Y038867D01*
X035817Y039025D01*
X035756Y039050D01*
X035817Y039075D01*
X035975Y039233D01*
X036060Y039439D01*
X036060Y039661D01*
X035975Y039867D01*
X035817Y040025D01*
X035756Y040050D01*
X035817Y040075D01*
X035975Y040233D01*
X036060Y040439D01*
X036060Y040661D01*
X035975Y040867D01*
X035817Y041025D01*
X035611Y041110D01*
X035389Y041110D01*
X035183Y041025D01*
X035025Y040867D01*
X034940Y040661D01*
X034940Y040439D01*
X035025Y040233D01*
X035183Y040075D01*
X035244Y040050D01*
X035183Y040025D01*
X035025Y039867D01*
X034940Y039661D01*
X034940Y039439D01*
X035025Y039233D01*
X035183Y039075D01*
X035244Y039050D01*
X035183Y039025D01*
X035025Y038867D01*
X034940Y038661D01*
X034940Y038439D01*
X035025Y038233D01*
X035183Y038075D01*
X035244Y038050D01*
X035183Y038025D01*
X035025Y037867D01*
X034940Y037661D01*
X034940Y037439D01*
X035025Y037233D01*
X035183Y037075D01*
X035244Y037050D01*
X035183Y037025D01*
X035025Y036867D01*
X034940Y036661D01*
X034940Y036439D01*
X035025Y036233D01*
X035183Y036075D01*
X035244Y036050D01*
X035183Y036025D01*
X035025Y035867D01*
X034940Y035661D01*
X034940Y035439D01*
X035025Y035233D01*
X035183Y035075D01*
X035244Y035050D01*
X035183Y035025D01*
X035025Y034867D01*
X034940Y034661D01*
X034940Y034439D01*
X035025Y034233D01*
X035183Y034075D01*
X035244Y034050D01*
X035183Y034025D01*
X035025Y033867D01*
X034940Y033661D01*
X034940Y033439D01*
X035025Y033233D01*
X035183Y033075D01*
X035244Y033050D01*
X035183Y033025D01*
X035025Y032867D01*
X034940Y032661D01*
X034940Y032439D01*
X035025Y032233D01*
X035183Y032075D01*
X035244Y032050D01*
X035183Y032025D01*
X035025Y031867D01*
X034940Y031661D01*
X034940Y031439D01*
X035025Y031233D01*
X035183Y031075D01*
X035244Y031050D01*
X035183Y031025D01*
X035025Y030867D01*
X034940Y030661D01*
X034940Y030439D01*
X035025Y030233D01*
X035183Y030075D01*
X035244Y030050D01*
X035183Y030025D01*
X035025Y029867D01*
X034940Y029661D01*
X034940Y029439D01*
X035025Y029233D01*
X035183Y029075D01*
X035244Y029050D01*
X035183Y029025D01*
X035025Y028867D01*
X034940Y028661D01*
X034940Y028439D01*
X035025Y028233D01*
X035183Y028075D01*
X035244Y028050D01*
X035183Y028025D01*
X035025Y027867D01*
X034940Y027661D01*
X034940Y027439D01*
X035025Y027233D01*
X035183Y027075D01*
X035244Y027050D01*
X035183Y027025D01*
X035025Y026867D01*
X034940Y026661D01*
X034940Y026569D01*
X034860Y026649D01*
X034860Y029572D01*
X034805Y029704D01*
X034305Y030204D01*
X034204Y030305D01*
X034072Y030360D01*
X026027Y030360D01*
X026060Y030439D01*
X026060Y030661D01*
X025975Y030867D01*
X025817Y031025D01*
X025756Y031050D01*
X025817Y031075D01*
X025975Y031233D01*
X026060Y031439D01*
X026060Y031661D01*
X025975Y031867D01*
X025817Y032025D01*
X025756Y032050D01*
X025817Y032075D01*
X025975Y032233D01*
X026060Y032439D01*
X026060Y032661D01*
X025975Y032867D01*
X025817Y033025D01*
X025756Y033050D01*
X025817Y033075D01*
X025975Y033233D01*
X026060Y033439D01*
X026060Y033661D01*
X025975Y033867D01*
X025817Y034025D01*
X025756Y034050D01*
X025817Y034075D01*
X025975Y034233D01*
X026060Y034439D01*
X026060Y034661D01*
X025975Y034867D01*
X025817Y035025D01*
X025756Y035050D01*
X025817Y035075D01*
X025975Y035233D01*
X026060Y035439D01*
X026060Y035661D01*
X025975Y035867D01*
X025817Y036025D01*
X025756Y036050D01*
X025817Y036075D01*
X025975Y036233D01*
X026060Y036439D01*
X026060Y036661D01*
X025975Y036867D01*
X025817Y037025D01*
X025756Y037050D01*
X025817Y037075D01*
X025975Y037233D01*
X026060Y037439D01*
X026060Y037661D01*
X025975Y037867D01*
X025817Y038025D01*
X025756Y038050D01*
X025817Y038075D01*
X025975Y038233D01*
X026060Y038439D01*
X026060Y038661D01*
X025975Y038867D01*
X025817Y039025D01*
X025756Y039050D01*
X025817Y039075D01*
X025975Y039233D01*
X026060Y039439D01*
X026060Y039661D01*
X025975Y039867D01*
X025817Y040025D01*
X025756Y040050D01*
X025817Y040075D01*
X025975Y040233D01*
X026060Y040439D01*
X026060Y040661D01*
X025975Y040867D01*
X025817Y041025D01*
X025611Y041110D01*
X025389Y041110D01*
X025183Y041025D01*
X025025Y040867D01*
X024940Y040661D01*
X024940Y040439D01*
X025025Y040233D01*
X025183Y040075D01*
X025244Y040050D01*
X025183Y040025D01*
X025025Y039867D01*
X024940Y039661D01*
X024940Y039439D01*
X025025Y039233D01*
X025183Y039075D01*
X025244Y039050D01*
X025183Y039025D01*
X025025Y038867D01*
X024940Y038661D01*
X024940Y038439D01*
X025025Y038233D01*
X025183Y038075D01*
X025244Y038050D01*
X025183Y038025D01*
X025025Y037867D01*
X024940Y037661D01*
X024940Y037439D01*
X025025Y037233D01*
X025183Y037075D01*
X025244Y037050D01*
X025183Y037025D01*
X025025Y036867D01*
X024940Y036661D01*
X024940Y036439D01*
X025025Y036233D01*
X025183Y036075D01*
X025244Y036050D01*
X025183Y036025D01*
X025025Y035867D01*
X024940Y035661D01*
X024940Y035439D01*
X025025Y035233D01*
X025183Y035075D01*
X025244Y035050D01*
X025183Y035025D01*
X025025Y034867D01*
X024940Y034661D01*
X024940Y034439D01*
X025025Y034233D01*
X025183Y034075D01*
X025244Y034050D01*
X025183Y034025D01*
X025025Y033867D01*
X024940Y033661D01*
X024940Y033439D01*
X025025Y033233D01*
X025183Y033075D01*
X025244Y033050D01*
X025183Y033025D01*
X025025Y032867D01*
X024940Y032661D01*
X024940Y032439D01*
X025025Y032233D01*
X025183Y032075D01*
X025244Y032050D01*
X025183Y032025D01*
X025025Y031867D01*
X024940Y031661D01*
X024940Y031439D01*
X025025Y031233D01*
X025183Y031075D01*
X025244Y031050D01*
X025183Y031025D01*
X025025Y030867D01*
X024940Y030661D01*
X024940Y030569D01*
X024805Y030704D01*
X024704Y030805D01*
X024572Y030860D01*
X023978Y030860D01*
X023975Y030867D01*
X023817Y031025D01*
X023756Y031050D01*
X023817Y031075D01*
X023975Y031233D01*
X024060Y031439D01*
X024060Y031661D01*
X023975Y031867D01*
X023817Y032025D01*
X023756Y032050D01*
X023817Y032075D01*
X023975Y032233D01*
X024060Y032439D01*
X024060Y032661D01*
X023975Y032867D01*
X023817Y033025D01*
X023756Y033050D01*
X023817Y033075D01*
X023975Y033233D01*
X024060Y033439D01*
X024060Y033661D01*
X023975Y033867D01*
X023817Y034025D01*
X023756Y034050D01*
X023817Y034075D01*
X023975Y034233D01*
X024060Y034439D01*
X024060Y034661D01*
X023975Y034867D01*
X023817Y035025D01*
X023756Y035050D01*
X023817Y035075D01*
X023975Y035233D01*
X024060Y035439D01*
X024060Y035661D01*
X023975Y035867D01*
X023817Y036025D01*
X023756Y036050D01*
X023817Y036075D01*
X023975Y036233D01*
X024060Y036439D01*
X024060Y036661D01*
X023975Y036867D01*
X023817Y037025D01*
X023756Y037050D01*
X023817Y037075D01*
X023975Y037233D01*
X024060Y037439D01*
X024060Y037661D01*
X023975Y037867D01*
X023817Y038025D01*
X023756Y038050D01*
X023817Y038075D01*
X023975Y038233D01*
X024060Y038439D01*
X024060Y038661D01*
X023975Y038867D01*
X023817Y039025D01*
X023756Y039050D01*
X023817Y039075D01*
X023975Y039233D01*
X024060Y039439D01*
X024060Y039661D01*
X023975Y039867D01*
X023817Y040025D01*
X023756Y040050D01*
X023817Y040075D01*
X023975Y040233D01*
X024060Y040439D01*
X024060Y040661D01*
X023975Y040867D01*
X023817Y041025D01*
X023611Y041110D01*
X023389Y041110D01*
X023183Y041025D01*
X023025Y040867D01*
X022940Y040661D01*
X022940Y040439D01*
X023025Y040233D01*
X023183Y040075D01*
X023244Y040050D01*
X023183Y040025D01*
X023025Y039867D01*
X022940Y039661D01*
X022940Y039439D01*
X023025Y039233D01*
X023183Y039075D01*
X023244Y039050D01*
X023183Y039025D01*
X023025Y038867D01*
X022940Y038661D01*
X022940Y038439D01*
X023025Y038233D01*
X023183Y038075D01*
X023244Y038050D01*
X023183Y038025D01*
X023025Y037867D01*
X022940Y037661D01*
X022940Y037439D01*
X023025Y037233D01*
X023183Y037075D01*
X023244Y037050D01*
X023183Y037025D01*
X023025Y036867D01*
X022940Y036661D01*
X022940Y036439D01*
X023025Y036233D01*
X023183Y036075D01*
X023244Y036050D01*
X023183Y036025D01*
X023025Y035867D01*
X022940Y035661D01*
X022940Y035439D01*
X023025Y035233D01*
X023183Y035075D01*
X023244Y035050D01*
X023183Y035025D01*
X023025Y034867D01*
X022940Y034661D01*
X022940Y034439D01*
X023025Y034233D01*
X023183Y034075D01*
X023244Y034050D01*
X023183Y034025D01*
X023025Y033867D01*
X022940Y033661D01*
X022940Y033439D01*
X023025Y033233D01*
X023183Y033075D01*
X023244Y033050D01*
X023183Y033025D01*
X023025Y032867D01*
X022940Y032661D01*
X022940Y032439D01*
X023025Y032233D01*
X023183Y032075D01*
X023244Y032050D01*
X023183Y032025D01*
X023025Y031867D01*
X022940Y031661D01*
X022940Y031439D01*
X023025Y031233D01*
X023183Y031075D01*
X023244Y031050D01*
X023183Y031025D01*
X023025Y030867D01*
X022940Y030661D01*
X022940Y030439D01*
X023025Y030233D01*
X023183Y030075D01*
X023244Y030050D01*
X023183Y030025D01*
X023025Y029867D01*
X022940Y029661D01*
X022940Y029439D01*
X023025Y029233D01*
X023183Y029075D01*
X023244Y029050D01*
X023183Y029025D01*
X023025Y028867D01*
X022940Y028661D01*
X022940Y028439D01*
X023025Y028233D01*
X023183Y028075D01*
X023244Y028050D01*
X023183Y028025D01*
X023025Y027867D01*
X022940Y027661D01*
X022940Y027439D01*
X022973Y027360D01*
X018649Y027360D01*
X015305Y030704D01*
X015204Y030805D01*
X015072Y030860D01*
X013978Y030860D01*
X013975Y030867D01*
X013817Y031025D01*
X013756Y031050D01*
X013817Y031075D01*
X013975Y031233D01*
X014060Y031439D01*
X014060Y031661D01*
X013975Y031867D01*
X013817Y032025D01*
X013756Y032050D01*
X013817Y032075D01*
X013975Y032233D01*
X014060Y032439D01*
X014060Y032661D01*
X013975Y032867D01*
X013817Y033025D01*
X013756Y033050D01*
X013817Y033075D01*
X013975Y033233D01*
X014060Y033439D01*
X014060Y033661D01*
X013975Y033867D01*
X013817Y034025D01*
X013756Y034050D01*
X013817Y034075D01*
X013975Y034233D01*
X014060Y034439D01*
X014060Y034661D01*
X013975Y034867D01*
X013817Y035025D01*
X013756Y035050D01*
X013817Y035075D01*
X013975Y035233D01*
X014060Y035439D01*
X014060Y035661D01*
X013975Y035867D01*
X013817Y036025D01*
X013756Y036050D01*
X013817Y036075D01*
X013975Y036233D01*
X014060Y036439D01*
X014060Y036661D01*
X013975Y036867D01*
X013817Y037025D01*
X013756Y037050D01*
X013817Y037075D01*
X013975Y037233D01*
X014060Y037439D01*
X014060Y037661D01*
X013975Y037867D01*
X013817Y038025D01*
X013756Y038050D01*
X013817Y038075D01*
X013975Y038233D01*
X014060Y038439D01*
X014060Y038661D01*
X013975Y038867D01*
X013817Y039025D01*
X013756Y039050D01*
X013817Y039075D01*
X013975Y039233D01*
X014060Y039439D01*
X014060Y039661D01*
X013975Y039867D01*
X013817Y040025D01*
X013756Y040050D01*
X013817Y040075D01*
X013975Y040233D01*
X014060Y040439D01*
X014060Y040661D01*
X013975Y040867D01*
X013817Y041025D01*
X013611Y041110D01*
X013389Y041110D01*
X013183Y041025D01*
X013025Y040867D01*
X012940Y040661D01*
X012940Y040439D01*
X013025Y040233D01*
X013183Y040075D01*
X013244Y040050D01*
X013183Y040025D01*
X013025Y039867D01*
X012940Y039661D01*
X012940Y039439D01*
X013025Y039233D01*
X013183Y039075D01*
X013244Y039050D01*
X013183Y039025D01*
X013025Y038867D01*
X012940Y038661D01*
X012940Y038439D01*
X013025Y038233D01*
X013183Y038075D01*
X013244Y038050D01*
X013183Y038025D01*
X013025Y037867D01*
X012940Y037661D01*
X012940Y037439D01*
X013025Y037233D01*
X013183Y037075D01*
X013244Y037050D01*
X013183Y037025D01*
X013025Y036867D01*
X012940Y036661D01*
X012940Y036439D01*
X013025Y036233D01*
X013183Y036075D01*
X013244Y036050D01*
X013183Y036025D01*
X013025Y035867D01*
X012940Y035661D01*
X012940Y035439D01*
X013025Y035233D01*
X013183Y035075D01*
X013244Y035050D01*
X013183Y035025D01*
X013025Y034867D01*
X012940Y034661D01*
X012940Y034439D01*
X013025Y034233D01*
X013183Y034075D01*
X013244Y034050D01*
X013183Y034025D01*
X013025Y033867D01*
X012940Y033661D01*
X012940Y033439D01*
X013025Y033233D01*
X013183Y033075D01*
X013244Y033050D01*
X013183Y033025D01*
X013025Y032867D01*
X012940Y032661D01*
X012940Y032439D01*
X013025Y032233D01*
X013183Y032075D01*
X013244Y032050D01*
X013183Y032025D01*
X013025Y031867D01*
X012940Y031661D01*
X012940Y031439D01*
X013025Y031233D01*
X013183Y031075D01*
X013244Y031050D01*
X013183Y031025D01*
X013025Y030867D01*
X012940Y030661D01*
X012940Y030439D01*
X013025Y030233D01*
X013183Y030075D01*
X013244Y030050D01*
X013183Y030025D01*
X013025Y029867D01*
X012940Y029661D01*
X012940Y029439D01*
X013025Y029233D01*
X013183Y029075D01*
X013244Y029050D01*
X013183Y029025D01*
X013025Y028867D01*
X012940Y028661D01*
X012940Y028439D01*
X013025Y028233D01*
X013183Y028075D01*
X013244Y028050D01*
X013183Y028025D01*
X013025Y027867D01*
X012940Y027661D01*
X012940Y027439D01*
X013025Y027233D01*
X013183Y027075D01*
X013244Y027050D01*
X013183Y027025D01*
X013025Y026867D01*
X012940Y026661D01*
X012940Y026439D01*
X013025Y026233D01*
X013183Y026075D01*
X013244Y026050D01*
X013183Y026025D01*
X013025Y025867D01*
X012940Y025661D01*
X012940Y025439D01*
X013025Y025233D01*
X013183Y025075D01*
X013244Y025050D01*
X013183Y025025D01*
X013025Y024867D01*
X012940Y024661D01*
X012940Y024439D01*
X013025Y024233D01*
X013183Y024075D01*
X013244Y024050D01*
X013183Y024025D01*
X013025Y023867D01*
X012940Y023661D01*
X012940Y023439D01*
X013025Y023233D01*
X013183Y023075D01*
X013244Y023050D01*
X013183Y023025D01*
X013025Y022867D01*
X012940Y022661D01*
X012940Y022439D01*
X013025Y022233D01*
X013183Y022075D01*
X013244Y022050D01*
X013183Y022025D01*
X013025Y021867D01*
X012940Y021661D01*
X012940Y021439D01*
X013025Y021233D01*
X013183Y021075D01*
X013244Y021050D01*
X013183Y021025D01*
X013025Y020867D01*
X012940Y020661D01*
X012940Y020439D01*
X013025Y020233D01*
X013183Y020075D01*
X013244Y020050D01*
X013183Y020025D01*
X013025Y019867D01*
X012940Y019661D01*
X012940Y019439D01*
X013025Y019233D01*
X013183Y019075D01*
X013244Y019050D01*
X013183Y019025D01*
X013025Y018867D01*
X012940Y018661D01*
X012940Y018439D01*
X013025Y018233D01*
X013183Y018075D01*
X013389Y017990D01*
X013611Y017990D01*
X013817Y018075D01*
X013975Y018233D01*
X014060Y018439D01*
X014060Y018661D01*
X013975Y018867D01*
X013817Y019025D01*
X013756Y019050D01*
X013817Y019075D01*
X013975Y019233D01*
X014060Y019439D01*
X014060Y019661D01*
X013975Y019867D01*
X013817Y020025D01*
X013756Y020050D01*
X013817Y020075D01*
X013975Y020233D01*
X014060Y020439D01*
X014060Y020661D01*
X013975Y020867D01*
X013817Y021025D01*
X013756Y021050D01*
X013817Y021075D01*
X013975Y021233D01*
X014060Y021439D01*
X014060Y021661D01*
X013975Y021867D01*
X013817Y022025D01*
X013756Y022050D01*
X013817Y022075D01*
X013975Y022233D01*
X014060Y022439D01*
X014060Y022661D01*
X013975Y022867D01*
X013817Y023025D01*
X013756Y023050D01*
X013817Y023075D01*
X013975Y023233D01*
X014060Y023439D01*
X014060Y023661D01*
X013975Y023867D01*
X013817Y024025D01*
X013756Y024050D01*
X013817Y024075D01*
X013975Y024233D01*
X014060Y024439D01*
X014060Y024661D01*
X013975Y024867D01*
X013817Y025025D01*
X013756Y025050D01*
X013817Y025075D01*
X013975Y025233D01*
X014060Y025439D01*
X014060Y025661D01*
X013975Y025867D01*
X013817Y026025D01*
X013756Y026050D01*
X013817Y026075D01*
X013975Y026233D01*
X014060Y026439D01*
X014060Y026661D01*
X013975Y026867D01*
X013817Y027025D01*
X013756Y027050D01*
X013817Y027075D01*
X013975Y027233D01*
X014060Y027439D01*
X014060Y027661D01*
X013975Y027867D01*
X013817Y028025D01*
X013756Y028050D01*
X013817Y028075D01*
X013975Y028233D01*
X014060Y028439D01*
X014060Y028661D01*
X013975Y028867D01*
X013817Y029025D01*
X013756Y029050D01*
X013817Y029075D01*
X013975Y029233D01*
X014060Y029439D01*
X014060Y029661D01*
X013975Y029867D01*
X013817Y030025D01*
X013756Y030050D01*
X013817Y030075D01*
X013882Y030140D01*
X014851Y030140D01*
X018296Y026695D01*
X018428Y026640D01*
X022940Y026640D01*
X022940Y026439D01*
X023025Y026233D01*
X023183Y026075D01*
X023244Y026050D01*
X023183Y026025D01*
X023025Y025867D01*
X022940Y025661D01*
X022940Y025439D01*
X023025Y025233D01*
X023183Y025075D01*
X023244Y025050D01*
X023183Y025025D01*
X023025Y024867D01*
X022940Y024661D01*
X022940Y024439D01*
X023025Y024233D01*
X023183Y024075D01*
X023244Y024050D01*
X023183Y024025D01*
X023025Y023867D01*
X022940Y023661D01*
X022940Y023439D01*
X023025Y023233D01*
X023183Y023075D01*
X023244Y023050D01*
X023183Y023025D01*
X023025Y022867D01*
X022940Y022661D01*
X022940Y022439D01*
X023025Y022233D01*
X023183Y022075D01*
X023244Y022050D01*
X023183Y022025D01*
X023025Y021867D01*
X022940Y021661D01*
X022940Y021439D01*
X023025Y021233D01*
X023183Y021075D01*
X023244Y021050D01*
X023183Y021025D01*
X023025Y020867D01*
X022940Y020661D01*
X022940Y020439D01*
X023025Y020233D01*
X023183Y020075D01*
X023244Y020050D01*
X023183Y020025D01*
X023025Y019867D01*
X022940Y019661D01*
X022940Y019439D01*
X023025Y019233D01*
X023183Y019075D01*
X023244Y019050D01*
X023183Y019025D01*
X023025Y018867D01*
X022940Y018661D01*
X022940Y018439D01*
X023025Y018233D01*
X023183Y018075D01*
X023389Y017990D01*
X023611Y017990D01*
X023817Y018075D01*
X023975Y018233D01*
X024060Y018439D01*
X024060Y018661D01*
X023975Y018867D01*
X023817Y019025D01*
X023756Y019050D01*
X023817Y019075D01*
X023975Y019233D01*
X024060Y019439D01*
X024060Y019661D01*
X023975Y019867D01*
X023817Y020025D01*
X023756Y020050D01*
X023817Y020075D01*
X023975Y020233D01*
X024060Y020439D01*
X024060Y020661D01*
X023975Y020867D01*
X023817Y021025D01*
X023756Y021050D01*
X023817Y021075D01*
X023975Y021233D01*
X024060Y021439D01*
X024060Y021661D01*
X023975Y021867D01*
X023817Y022025D01*
X023756Y022050D01*
X023817Y022075D01*
X023975Y022233D01*
X024060Y022439D01*
X024060Y022661D01*
X023975Y022867D01*
X023817Y023025D01*
X023756Y023050D01*
X023817Y023075D01*
X023975Y023233D01*
X024060Y023439D01*
X024060Y023661D01*
X023975Y023867D01*
X023817Y024025D01*
X023756Y024050D01*
X023817Y024075D01*
X023975Y024233D01*
X024060Y024439D01*
X024060Y024661D01*
X023975Y024867D01*
X023817Y025025D01*
X023756Y025050D01*
X023817Y025075D01*
X023975Y025233D01*
X024060Y025439D01*
X024060Y025661D01*
X023975Y025867D01*
X023817Y026025D01*
X023756Y026050D01*
X023817Y026075D01*
X023975Y026233D01*
X024060Y026439D01*
X024060Y026640D01*
X024940Y026640D01*
X024940Y026439D01*
X025025Y026233D01*
X025183Y026075D01*
X025244Y026050D01*
X025183Y026025D01*
X025025Y025867D01*
X024940Y025661D01*
X024940Y025439D01*
X025025Y025233D01*
X025183Y025075D01*
X025244Y025050D01*
X025183Y025025D01*
X025025Y024867D01*
X024940Y024661D01*
X024940Y024439D01*
X025025Y024233D01*
X025183Y024075D01*
X025244Y024050D01*
X025183Y024025D01*
X025025Y023867D01*
X024940Y023661D01*
X024940Y023439D01*
X025025Y023233D01*
X025183Y023075D01*
X025244Y023050D01*
X025183Y023025D01*
X025025Y022867D01*
X024940Y022661D01*
X024940Y022439D01*
X025025Y022233D01*
X025183Y022075D01*
X025244Y022050D01*
X025183Y022025D01*
X025025Y021867D01*
X024940Y021661D01*
X024940Y021439D01*
X025025Y021233D01*
X025183Y021075D01*
X025244Y021050D01*
X025183Y021025D01*
X025025Y020867D01*
X024940Y020661D01*
X024940Y020439D01*
X025025Y020233D01*
X025183Y020075D01*
X025244Y020050D01*
X025183Y020025D01*
X025025Y019867D01*
X024940Y019661D01*
X024940Y019439D01*
X025025Y019233D01*
X025183Y019075D01*
X025244Y019050D01*
X025183Y019025D01*
X025025Y018867D01*
X024940Y018661D01*
X024940Y018439D01*
X025025Y018233D01*
X025183Y018075D01*
X025389Y017990D01*
X025611Y017990D01*
X025817Y018075D01*
X025975Y018233D01*
X026060Y018439D01*
X026060Y018661D01*
X025975Y018867D01*
X025817Y019025D01*
X025756Y019050D01*
X025817Y019075D01*
X025975Y019233D01*
X026060Y019439D01*
X026060Y019661D01*
X025975Y019867D01*
X025817Y020025D01*
X025756Y020050D01*
X025817Y020075D01*
X025975Y020233D01*
X026060Y020439D01*
X026060Y020661D01*
X025975Y020867D01*
X025817Y021025D01*
X025756Y021050D01*
X025817Y021075D01*
X025975Y021233D01*
X026060Y021439D01*
X026060Y021661D01*
X025975Y021867D01*
X025817Y022025D01*
X025756Y022050D01*
X025817Y022075D01*
X025975Y022233D01*
X026060Y022439D01*
X026060Y022661D01*
X025975Y022867D01*
X025817Y023025D01*
X025756Y023050D01*
X025817Y023075D01*
X025975Y023233D01*
X026060Y023439D01*
X026060Y023661D01*
X025975Y023867D01*
X025817Y024025D01*
X025756Y024050D01*
X025817Y024075D01*
X025975Y024233D01*
X026060Y024439D01*
X026060Y024661D01*
X025975Y024867D01*
X025817Y025025D01*
X025756Y025050D01*
X025817Y025075D01*
X025975Y025233D01*
X026060Y025439D01*
X026060Y025661D01*
X025975Y025867D01*
X025817Y026025D01*
X025756Y026050D01*
X025817Y026075D01*
X025975Y026233D01*
X026060Y026439D01*
X026060Y026640D01*
X032851Y026640D01*
X034796Y024695D01*
X034928Y024640D01*
X034940Y024640D01*
X034940Y024439D01*
X034973Y024360D01*
X033928Y024360D01*
X033796Y024305D01*
X033695Y024204D01*
X033640Y024072D01*
X033640Y023928D01*
X033695Y023796D01*
X033796Y023695D01*
X033928Y023640D01*
X034940Y023640D01*
X034940Y023439D01*
X034973Y023360D01*
X033928Y023360D01*
X033796Y023305D01*
X033695Y023204D01*
X033640Y023072D01*
X033640Y022928D01*
X033695Y022796D01*
X033796Y022695D01*
X033928Y022640D01*
X034940Y022640D01*
X034940Y022439D01*
X034973Y022360D01*
X033928Y022360D01*
X033796Y022305D01*
X033695Y022204D01*
X033640Y022072D01*
X033640Y021928D01*
X033695Y021796D01*
X033796Y021695D01*
X033928Y021640D01*
X034940Y021640D01*
X034940Y021439D01*
X034973Y021360D01*
X033928Y021360D01*
X033796Y021305D01*
X033695Y021204D01*
X033640Y021072D01*
X033640Y020928D01*
X033695Y020796D01*
X033796Y020695D01*
X033928Y020640D01*
X034940Y020640D01*
X034940Y020439D01*
X034973Y020360D01*
X033928Y020360D01*
X033796Y020305D01*
X033695Y020204D01*
X033640Y020072D01*
X033640Y019928D01*
X033695Y019796D01*
X033796Y019695D01*
X033928Y019640D01*
X034940Y019640D01*
X034940Y019439D01*
X035025Y019233D01*
X035183Y019075D01*
X035244Y019050D01*
X035183Y019025D01*
X035025Y018867D01*
X034940Y018661D01*
X034940Y018439D01*
X035025Y018233D01*
X035183Y018075D01*
X035389Y017990D01*
X035611Y017990D01*
X035817Y018075D01*
X035975Y018233D01*
X036060Y018439D01*
X036060Y018661D01*
X035975Y018867D01*
X035817Y019025D01*
X035756Y019050D01*
X035817Y019075D01*
X035975Y019233D01*
X036060Y019439D01*
X036060Y019640D01*
X036940Y019640D01*
X036940Y019439D01*
X037025Y019233D01*
X037183Y019075D01*
X037244Y019050D01*
X037183Y019025D01*
X037025Y018867D01*
X036940Y018661D01*
X036940Y018439D01*
X037025Y018233D01*
X037183Y018075D01*
X037389Y017990D01*
X037611Y017990D01*
X037817Y018075D01*
X037975Y018233D01*
X038060Y018439D01*
X038060Y018661D01*
X037975Y018867D01*
X037817Y019025D01*
X037756Y019050D01*
X037817Y019075D01*
X037975Y019233D01*
X038060Y019439D01*
X038060Y019640D01*
X038072Y019640D01*
X038204Y019695D01*
X041000Y022491D01*
X041000Y015000D01*
X042640Y013360D01*
X038027Y013360D01*
X038060Y013439D01*
X038060Y013661D01*
X037975Y013867D01*
X037817Y014025D01*
X037756Y014050D01*
X037817Y014075D01*
X037975Y014233D01*
X038060Y014439D01*
X038060Y014661D01*
X037975Y014867D01*
X037817Y015025D01*
X037756Y015050D01*
X037817Y015075D01*
X037975Y015233D01*
X038060Y015439D01*
X038060Y015661D01*
X037975Y015867D01*
X037817Y016025D01*
X037756Y016050D01*
X037817Y016075D01*
X037975Y016233D01*
X038060Y016439D01*
X038060Y016661D01*
X037975Y016867D01*
X037817Y017025D01*
X037611Y017110D01*
X037389Y017110D01*
X037183Y017025D01*
X037025Y016867D01*
X036940Y016661D01*
X036940Y016439D01*
X037025Y016233D01*
X037183Y016075D01*
X037244Y016050D01*
X037183Y016025D01*
X037025Y015867D01*
X036940Y015661D01*
X036940Y015439D01*
X037025Y015233D01*
X037183Y015075D01*
X037244Y015050D01*
X037183Y015025D01*
X037025Y014867D01*
X036940Y014661D01*
X036940Y014439D01*
X037025Y014233D01*
X037183Y014075D01*
X037244Y014050D01*
X037183Y014025D01*
X037025Y013867D01*
X036940Y013661D01*
X036940Y013439D01*
X036973Y013360D01*
X036027Y013360D01*
X036060Y013439D01*
X036060Y013661D01*
X035975Y013867D01*
X035817Y014025D01*
X035756Y014050D01*
X035817Y014075D01*
X035975Y014233D01*
X036060Y014439D01*
X036060Y014661D01*
X035975Y014867D01*
X035817Y015025D01*
X035756Y015050D01*
X035817Y015075D01*
X035975Y015233D01*
X036060Y015439D01*
X036060Y015661D01*
X035975Y015867D01*
X035817Y016025D01*
X035756Y016050D01*
X035817Y016075D01*
X035975Y016233D01*
X036060Y016439D01*
X036060Y016661D01*
X035975Y016867D01*
X035817Y017025D01*
X035611Y017110D01*
X035389Y017110D01*
X035183Y017025D01*
X035025Y016867D01*
X034940Y016661D01*
X034940Y016439D01*
X035025Y016233D01*
X035183Y016075D01*
X035244Y016050D01*
X035183Y016025D01*
X035025Y015867D01*
X034940Y015661D01*
X034940Y015439D01*
X035025Y015233D01*
X035183Y015075D01*
X035244Y015050D01*
X035183Y015025D01*
X035025Y014867D01*
X034940Y014661D01*
X034940Y014439D01*
X035025Y014233D01*
X035183Y014075D01*
X035244Y014050D01*
X035183Y014025D01*
X035025Y013867D01*
X034940Y013661D01*
X034940Y013439D01*
X034973Y013360D01*
X026027Y013360D01*
X026060Y013439D01*
X026060Y013661D01*
X025975Y013867D01*
X025817Y014025D01*
X025756Y014050D01*
X025817Y014075D01*
X025975Y014233D01*
X026060Y014439D01*
X026060Y014661D01*
X025975Y014867D01*
X025817Y015025D01*
X025756Y015050D01*
X025817Y015075D01*
X025975Y015233D01*
X026060Y015439D01*
X026060Y015661D01*
X025975Y015867D01*
X025817Y016025D01*
X025756Y016050D01*
X025817Y016075D01*
X025975Y016233D01*
X026060Y016439D01*
X026060Y016661D01*
X025975Y016867D01*
X025817Y017025D01*
X025611Y017110D01*
X025389Y017110D01*
X025183Y017025D01*
X025025Y016867D01*
X024940Y016661D01*
X024940Y016439D01*
X025025Y016233D01*
X025183Y016075D01*
X025244Y016050D01*
X025183Y016025D01*
X025025Y015867D01*
X024940Y015661D01*
X024940Y015439D01*
X025025Y015233D01*
X025183Y015075D01*
X025244Y015050D01*
X025183Y015025D01*
X025025Y014867D01*
X024940Y014661D01*
X024940Y014439D01*
X025025Y014233D01*
X025183Y014075D01*
X025244Y014050D01*
X025183Y014025D01*
X025025Y013867D01*
X024940Y013661D01*
X024940Y013439D01*
X024973Y013360D01*
X024027Y013360D01*
X024060Y013439D01*
X024060Y013661D01*
X023975Y013867D01*
X023817Y014025D01*
X023756Y014050D01*
X023817Y014075D01*
X023975Y014233D01*
X024060Y014439D01*
X024060Y014661D01*
X023975Y014867D01*
X023817Y015025D01*
X023756Y015050D01*
X023817Y015075D01*
X023975Y015233D01*
X024060Y015439D01*
X024060Y015661D01*
X023975Y015867D01*
X023817Y016025D01*
X023756Y016050D01*
X023817Y016075D01*
X023975Y016233D01*
X024060Y016439D01*
X024060Y016661D01*
X023975Y016867D01*
X023817Y017025D01*
X023611Y017110D01*
X023389Y017110D01*
X023183Y017025D01*
X023025Y016867D01*
X022940Y016661D01*
X022940Y016439D01*
X023025Y016233D01*
X023183Y016075D01*
X023244Y016050D01*
X023183Y016025D01*
X023025Y015867D01*
X022940Y015661D01*
X022940Y015439D01*
X023025Y015233D01*
X023183Y015075D01*
X023244Y015050D01*
X023183Y015025D01*
X023025Y014867D01*
X022940Y014661D01*
X022940Y014439D01*
X023025Y014233D01*
X023183Y014075D01*
X023244Y014050D01*
X023183Y014025D01*
X023025Y013867D01*
X022940Y013661D01*
X022940Y013439D01*
X022973Y013360D01*
X014027Y013360D01*
X014060Y013439D01*
X014060Y013661D01*
X013975Y013867D01*
X013817Y014025D01*
X013756Y014050D01*
X013817Y014075D01*
X013975Y014233D01*
X014060Y014439D01*
X014060Y014661D01*
X013975Y014867D01*
X013817Y015025D01*
X013756Y015050D01*
X013817Y015075D01*
X013975Y015233D01*
X014060Y015439D01*
X014060Y015661D01*
X013975Y015867D01*
X013817Y016025D01*
X013756Y016050D01*
X013817Y016075D01*
X013975Y016233D01*
X014060Y016439D01*
X014060Y016661D01*
X013975Y016867D01*
X013817Y017025D01*
X013611Y017110D01*
X013389Y017110D01*
X013183Y017025D01*
X013025Y016867D01*
X012940Y016661D01*
X012940Y016439D01*
X013025Y016233D01*
X013183Y016075D01*
X013244Y016050D01*
X013183Y016025D01*
X013025Y015867D01*
X012940Y015661D01*
X012940Y015439D01*
X013025Y015233D01*
X013183Y015075D01*
X013244Y015050D01*
X013183Y015025D01*
X013025Y014867D01*
X012940Y014661D01*
X012940Y014439D01*
X013025Y014233D01*
X013183Y014075D01*
X013244Y014050D01*
X013183Y014025D01*
X013025Y013867D01*
X012940Y013661D01*
X012940Y013439D01*
X012973Y013360D01*
X012027Y013360D01*
X012060Y013439D01*
X012060Y013661D01*
X011975Y013867D01*
X011817Y014025D01*
X011756Y014050D01*
X011817Y014075D01*
X011975Y014233D01*
X012060Y014439D01*
X012060Y014661D01*
X011975Y014867D01*
X011817Y015025D01*
X011756Y015050D01*
X011817Y015075D01*
X011975Y015233D01*
X012060Y015439D01*
X012060Y015661D01*
X011975Y015867D01*
X011817Y016025D01*
X011756Y016050D01*
X011817Y016075D01*
X011975Y016233D01*
X012060Y016439D01*
X012060Y016661D01*
X011975Y016867D01*
X011817Y017025D01*
X011611Y017110D01*
X011389Y017110D01*
X011183Y017025D01*
X011025Y016867D01*
X010940Y016661D01*
X010940Y016439D01*
X011025Y016233D01*
X011183Y016075D01*
X011244Y016050D01*
X011183Y016025D01*
X011025Y015867D01*
X010940Y015661D01*
X010940Y015439D01*
X011025Y015233D01*
X011183Y015075D01*
X011244Y015050D01*
X011183Y015025D01*
X011025Y014867D01*
X010940Y014661D01*
X010940Y014439D01*
X011025Y014233D01*
X011183Y014075D01*
X011244Y014050D01*
X011183Y014025D01*
X011025Y013867D01*
X010940Y013661D01*
X010940Y013439D01*
X010973Y013360D01*
X001005Y013360D01*
X001005Y013497D02*
X010940Y013497D01*
X010940Y013656D02*
X001005Y013656D01*
X001005Y013814D02*
X011003Y013814D01*
X011131Y013973D02*
X001005Y013973D01*
X001005Y014131D02*
X011127Y014131D01*
X011002Y014290D02*
X001005Y014290D01*
X001005Y014448D02*
X010940Y014448D01*
X010940Y014607D02*
X001005Y014607D01*
X001005Y014765D02*
X010983Y014765D01*
X011082Y014924D02*
X001005Y014924D01*
X001005Y015082D02*
X011176Y015082D01*
X011022Y015241D02*
X001005Y015241D01*
X001005Y015399D02*
X010956Y015399D01*
X010940Y015558D02*
X001005Y015558D01*
X001005Y015716D02*
X010963Y015716D01*
X011033Y015875D02*
X001005Y015875D01*
X001005Y016033D02*
X011203Y016033D01*
X011067Y016192D02*
X001005Y016192D01*
X001005Y016350D02*
X010977Y016350D01*
X010940Y016509D02*
X001005Y016509D01*
X001005Y016667D02*
X010942Y016667D01*
X011008Y016826D02*
X001005Y016826D01*
X001005Y016984D02*
X011142Y016984D01*
X011858Y016984D02*
X013142Y016984D01*
X013008Y016826D02*
X011992Y016826D01*
X012058Y016667D02*
X012942Y016667D01*
X012940Y016509D02*
X012060Y016509D01*
X012023Y016350D02*
X012977Y016350D01*
X013067Y016192D02*
X011933Y016192D01*
X011797Y016033D02*
X013203Y016033D01*
X013033Y015875D02*
X011967Y015875D01*
X012037Y015716D02*
X012963Y015716D01*
X012940Y015558D02*
X012060Y015558D01*
X012044Y015399D02*
X012956Y015399D01*
X013022Y015241D02*
X011978Y015241D01*
X011824Y015082D02*
X013176Y015082D01*
X013082Y014924D02*
X011918Y014924D01*
X012017Y014765D02*
X012983Y014765D01*
X012940Y014607D02*
X012060Y014607D01*
X012060Y014448D02*
X012940Y014448D01*
X013002Y014290D02*
X011998Y014290D01*
X011873Y014131D02*
X013127Y014131D01*
X013131Y013973D02*
X011869Y013973D01*
X011997Y013814D02*
X013003Y013814D01*
X012940Y013656D02*
X012060Y013656D01*
X012060Y013497D02*
X012940Y013497D01*
X013869Y013973D02*
X023131Y013973D01*
X023127Y014131D02*
X013873Y014131D01*
X013998Y014290D02*
X023002Y014290D01*
X022940Y014448D02*
X014060Y014448D01*
X014060Y014607D02*
X022940Y014607D01*
X022983Y014765D02*
X014017Y014765D01*
X013918Y014924D02*
X023082Y014924D01*
X023176Y015082D02*
X013824Y015082D01*
X013978Y015241D02*
X023022Y015241D01*
X022956Y015399D02*
X014044Y015399D01*
X014060Y015558D02*
X022940Y015558D01*
X022963Y015716D02*
X014037Y015716D01*
X013967Y015875D02*
X023033Y015875D01*
X023203Y016033D02*
X013797Y016033D01*
X013933Y016192D02*
X023067Y016192D01*
X022977Y016350D02*
X014023Y016350D01*
X014060Y016509D02*
X022940Y016509D01*
X022942Y016667D02*
X014058Y016667D01*
X013992Y016826D02*
X023008Y016826D01*
X023142Y016984D02*
X013858Y016984D01*
X013835Y018094D02*
X023165Y018094D01*
X023017Y018252D02*
X013983Y018252D01*
X014048Y018411D02*
X022952Y018411D01*
X022940Y018569D02*
X014060Y018569D01*
X014033Y018728D02*
X022967Y018728D01*
X023044Y018886D02*
X013956Y018886D01*
X013769Y019045D02*
X023231Y019045D01*
X023055Y019203D02*
X013945Y019203D01*
X014028Y019362D02*
X022972Y019362D01*
X022940Y019520D02*
X014060Y019520D01*
X014053Y019679D02*
X022947Y019679D01*
X023013Y019837D02*
X013987Y019837D01*
X013846Y019996D02*
X023154Y019996D01*
X023104Y020154D02*
X013896Y020154D01*
X014008Y020313D02*
X022992Y020313D01*
X022940Y020471D02*
X014060Y020471D01*
X014060Y020630D02*
X022940Y020630D01*
X022992Y020788D02*
X014008Y020788D01*
X013895Y020947D02*
X023105Y020947D01*
X023153Y021105D02*
X013847Y021105D01*
X013987Y021264D02*
X023013Y021264D01*
X022947Y021422D02*
X014053Y021422D01*
X014060Y021581D02*
X022940Y021581D01*
X022972Y021739D02*
X014028Y021739D01*
X013944Y021898D02*
X023056Y021898D01*
X023229Y022056D02*
X013771Y022056D01*
X013956Y022215D02*
X023044Y022215D01*
X022967Y022373D02*
X014033Y022373D01*
X014060Y022532D02*
X022940Y022532D01*
X022952Y022690D02*
X014048Y022690D01*
X013982Y022849D02*
X023018Y022849D01*
X023165Y023007D02*
X013835Y023007D01*
X013907Y023166D02*
X023093Y023166D01*
X022987Y023324D02*
X014013Y023324D01*
X014060Y023483D02*
X022940Y023483D01*
X022940Y023641D02*
X014060Y023641D01*
X014003Y023800D02*
X022997Y023800D01*
X023116Y023958D02*
X013884Y023958D01*
X013858Y024117D02*
X023142Y024117D01*
X023008Y024275D02*
X013992Y024275D01*
X014058Y024434D02*
X022942Y024434D01*
X022940Y024592D02*
X014060Y024592D01*
X014023Y024751D02*
X022977Y024751D01*
X023067Y024909D02*
X013933Y024909D01*
X013799Y025068D02*
X023201Y025068D01*
X023032Y025226D02*
X013968Y025226D01*
X014038Y025385D02*
X022962Y025385D01*
X022940Y025543D02*
X014060Y025543D01*
X014043Y025702D02*
X022957Y025702D01*
X023022Y025860D02*
X013978Y025860D01*
X013823Y026019D02*
X023177Y026019D01*
X023081Y026177D02*
X013919Y026177D01*
X014017Y026336D02*
X022983Y026336D01*
X022940Y026494D02*
X014060Y026494D01*
X014060Y026653D02*
X018398Y026653D01*
X018180Y026811D02*
X013998Y026811D01*
X013872Y026970D02*
X018021Y026970D01*
X017863Y027128D02*
X013870Y027128D01*
X013997Y027287D02*
X017704Y027287D01*
X017546Y027445D02*
X014060Y027445D01*
X014060Y027604D02*
X017387Y027604D01*
X017229Y027762D02*
X014018Y027762D01*
X013921Y027921D02*
X017070Y027921D01*
X016912Y028079D02*
X013821Y028079D01*
X013977Y028238D02*
X016753Y028238D01*
X016595Y028396D02*
X014042Y028396D01*
X014060Y028555D02*
X016436Y028555D01*
X016278Y028713D02*
X014039Y028713D01*
X013970Y028872D02*
X016119Y028872D01*
X015961Y029030D02*
X013804Y029030D01*
X013931Y029189D02*
X015802Y029189D01*
X015644Y029347D02*
X014022Y029347D01*
X014060Y029506D02*
X015485Y029506D01*
X015327Y029664D02*
X014059Y029664D01*
X013993Y029823D02*
X015168Y029823D01*
X015010Y029981D02*
X013861Y029981D01*
X013882Y030140D02*
X014851Y030140D01*
X015000Y030500D02*
X013550Y030500D01*
X013500Y030550D01*
X012986Y030774D02*
X012014Y030774D01*
X011975Y030867D02*
X011817Y031025D01*
X011756Y031050D01*
X011817Y031075D01*
X011975Y031233D01*
X012060Y031439D01*
X012060Y031661D01*
X011975Y031867D01*
X011817Y032025D01*
X011756Y032050D01*
X011817Y032075D01*
X011975Y032233D01*
X012060Y032439D01*
X012060Y032661D01*
X011975Y032867D01*
X011817Y033025D01*
X011756Y033050D01*
X011817Y033075D01*
X011975Y033233D01*
X012060Y033439D01*
X012060Y033661D01*
X011975Y033867D01*
X011817Y034025D01*
X011756Y034050D01*
X011817Y034075D01*
X011975Y034233D01*
X012060Y034439D01*
X012060Y034661D01*
X011975Y034867D01*
X011817Y035025D01*
X011756Y035050D01*
X011817Y035075D01*
X011975Y035233D01*
X012060Y035439D01*
X012060Y035661D01*
X011975Y035867D01*
X011817Y036025D01*
X011756Y036050D01*
X011817Y036075D01*
X011975Y036233D01*
X012060Y036439D01*
X012060Y036661D01*
X011975Y036867D01*
X011817Y037025D01*
X011756Y037050D01*
X011817Y037075D01*
X011975Y037233D01*
X012060Y037439D01*
X012060Y037661D01*
X011975Y037867D01*
X011817Y038025D01*
X011756Y038050D01*
X011817Y038075D01*
X011975Y038233D01*
X012060Y038439D01*
X012060Y038661D01*
X011975Y038867D01*
X011817Y039025D01*
X011756Y039050D01*
X011817Y039075D01*
X011975Y039233D01*
X012060Y039439D01*
X012060Y039661D01*
X011975Y039867D01*
X011817Y040025D01*
X011756Y040050D01*
X011817Y040075D01*
X011975Y040233D01*
X012060Y040439D01*
X012060Y040661D01*
X011975Y040867D01*
X011817Y041025D01*
X011611Y041110D01*
X011389Y041110D01*
X011183Y041025D01*
X011025Y040867D01*
X010940Y040661D01*
X010940Y040439D01*
X011025Y040233D01*
X011183Y040075D01*
X011244Y040050D01*
X011183Y040025D01*
X011025Y039867D01*
X010940Y039661D01*
X010940Y039439D01*
X011025Y039233D01*
X011183Y039075D01*
X011244Y039050D01*
X011183Y039025D01*
X011025Y038867D01*
X010940Y038661D01*
X010940Y038439D01*
X011025Y038233D01*
X011183Y038075D01*
X011244Y038050D01*
X011183Y038025D01*
X011025Y037867D01*
X010940Y037661D01*
X010940Y037439D01*
X011025Y037233D01*
X011183Y037075D01*
X011244Y037050D01*
X011183Y037025D01*
X011025Y036867D01*
X010940Y036661D01*
X010940Y036439D01*
X011025Y036233D01*
X011183Y036075D01*
X011244Y036050D01*
X011183Y036025D01*
X011025Y035867D01*
X010940Y035661D01*
X010940Y035439D01*
X011025Y035233D01*
X011183Y035075D01*
X011244Y035050D01*
X011183Y035025D01*
X011025Y034867D01*
X010940Y034661D01*
X010940Y034439D01*
X011025Y034233D01*
X011183Y034075D01*
X011244Y034050D01*
X011183Y034025D01*
X011025Y033867D01*
X010940Y033661D01*
X010940Y033439D01*
X011025Y033233D01*
X011183Y033075D01*
X011244Y033050D01*
X011183Y033025D01*
X011025Y032867D01*
X010940Y032661D01*
X010940Y032439D01*
X011025Y032233D01*
X011183Y032075D01*
X011244Y032050D01*
X011183Y032025D01*
X011025Y031867D01*
X010940Y031661D01*
X010940Y031439D01*
X011025Y031233D01*
X011183Y031075D01*
X011244Y031050D01*
X011183Y031025D01*
X011025Y030867D01*
X010940Y030661D01*
X010940Y030439D01*
X011025Y030233D01*
X011183Y030075D01*
X011244Y030050D01*
X011183Y030025D01*
X011025Y029867D01*
X010940Y029661D01*
X010940Y029439D01*
X011025Y029233D01*
X011183Y029075D01*
X011244Y029050D01*
X011183Y029025D01*
X011025Y028867D01*
X010940Y028661D01*
X010940Y028439D01*
X011025Y028233D01*
X011183Y028075D01*
X011244Y028050D01*
X011183Y028025D01*
X011025Y027867D01*
X010940Y027661D01*
X010940Y027439D01*
X011025Y027233D01*
X011183Y027075D01*
X011244Y027050D01*
X011183Y027025D01*
X011025Y026867D01*
X010940Y026661D01*
X010940Y026439D01*
X011025Y026233D01*
X011183Y026075D01*
X011244Y026050D01*
X011183Y026025D01*
X011025Y025867D01*
X010940Y025661D01*
X010940Y025439D01*
X011025Y025233D01*
X011183Y025075D01*
X011244Y025050D01*
X011183Y025025D01*
X011025Y024867D01*
X010940Y024661D01*
X010940Y024439D01*
X011025Y024233D01*
X011183Y024075D01*
X011244Y024050D01*
X011183Y024025D01*
X011025Y023867D01*
X010940Y023661D01*
X010940Y023439D01*
X011025Y023233D01*
X011183Y023075D01*
X011244Y023050D01*
X011183Y023025D01*
X011025Y022867D01*
X010940Y022661D01*
X010940Y022439D01*
X011025Y022233D01*
X011183Y022075D01*
X011244Y022050D01*
X011183Y022025D01*
X011025Y021867D01*
X010940Y021661D01*
X010940Y021439D01*
X011025Y021233D01*
X011183Y021075D01*
X011244Y021050D01*
X011183Y021025D01*
X011025Y020867D01*
X010940Y020661D01*
X010940Y020439D01*
X011025Y020233D01*
X011183Y020075D01*
X011244Y020050D01*
X011183Y020025D01*
X011025Y019867D01*
X010940Y019661D01*
X010940Y019439D01*
X011025Y019233D01*
X011183Y019075D01*
X011244Y019050D01*
X011183Y019025D01*
X011025Y018867D01*
X010940Y018661D01*
X010940Y018439D01*
X011025Y018233D01*
X011183Y018075D01*
X011389Y017990D01*
X011611Y017990D01*
X011817Y018075D01*
X011975Y018233D01*
X012060Y018439D01*
X012060Y018661D01*
X011975Y018867D01*
X011817Y019025D01*
X011756Y019050D01*
X011817Y019075D01*
X011975Y019233D01*
X012060Y019439D01*
X012060Y019661D01*
X011975Y019867D01*
X011817Y020025D01*
X011756Y020050D01*
X011817Y020075D01*
X011975Y020233D01*
X012060Y020439D01*
X012060Y020661D01*
X011975Y020867D01*
X011817Y021025D01*
X011756Y021050D01*
X011817Y021075D01*
X011975Y021233D01*
X012060Y021439D01*
X012060Y021661D01*
X011975Y021867D01*
X011817Y022025D01*
X011756Y022050D01*
X011817Y022075D01*
X011975Y022233D01*
X012060Y022439D01*
X012060Y022661D01*
X011975Y022867D01*
X011817Y023025D01*
X011756Y023050D01*
X011817Y023075D01*
X011975Y023233D01*
X012060Y023439D01*
X012060Y023661D01*
X011975Y023867D01*
X011817Y024025D01*
X011756Y024050D01*
X011817Y024075D01*
X011975Y024233D01*
X012060Y024439D01*
X012060Y024661D01*
X011975Y024867D01*
X011817Y025025D01*
X011756Y025050D01*
X011817Y025075D01*
X011975Y025233D01*
X012060Y025439D01*
X012060Y025661D01*
X011975Y025867D01*
X011817Y026025D01*
X011756Y026050D01*
X011817Y026075D01*
X011975Y026233D01*
X012060Y026439D01*
X012060Y026661D01*
X011975Y026867D01*
X011817Y027025D01*
X011756Y027050D01*
X011817Y027075D01*
X011975Y027233D01*
X012060Y027439D01*
X012060Y027661D01*
X011975Y027867D01*
X011817Y028025D01*
X011756Y028050D01*
X011817Y028075D01*
X011975Y028233D01*
X012060Y028439D01*
X012060Y028661D01*
X011975Y028867D01*
X011817Y029025D01*
X011756Y029050D01*
X011817Y029075D01*
X011975Y029233D01*
X012060Y029439D01*
X012060Y029661D01*
X011975Y029867D01*
X011817Y030025D01*
X011756Y030050D01*
X011817Y030075D01*
X011975Y030233D01*
X012060Y030439D01*
X012060Y030661D01*
X011975Y030867D01*
X011910Y030932D02*
X013090Y030932D01*
X013167Y031091D02*
X011833Y031091D01*
X011981Y031249D02*
X013019Y031249D01*
X012953Y031408D02*
X012047Y031408D01*
X012060Y031566D02*
X012940Y031566D01*
X012966Y031725D02*
X012034Y031725D01*
X011959Y031883D02*
X013041Y031883D01*
X013223Y032042D02*
X011777Y032042D01*
X011942Y032200D02*
X013058Y032200D01*
X012973Y032359D02*
X012027Y032359D01*
X012060Y032517D02*
X012940Y032517D01*
X012946Y032676D02*
X012054Y032676D01*
X011988Y032834D02*
X013012Y032834D01*
X013151Y032993D02*
X011849Y032993D01*
X011893Y033151D02*
X013107Y033151D01*
X012993Y033310D02*
X012007Y033310D01*
X012060Y033468D02*
X012940Y033468D01*
X012940Y033627D02*
X012060Y033627D01*
X012009Y033785D02*
X012991Y033785D01*
X013102Y033944D02*
X011898Y033944D01*
X011844Y034102D02*
X013156Y034102D01*
X013014Y034261D02*
X011986Y034261D01*
X012052Y034419D02*
X012948Y034419D01*
X012940Y034578D02*
X012060Y034578D01*
X012029Y034736D02*
X012971Y034736D01*
X013053Y034895D02*
X011947Y034895D01*
X011764Y035053D02*
X013236Y035053D01*
X013046Y035212D02*
X011954Y035212D01*
X012032Y035370D02*
X012968Y035370D01*
X012940Y035529D02*
X012060Y035529D01*
X012049Y035687D02*
X012951Y035687D01*
X013016Y035846D02*
X011984Y035846D01*
X011838Y036004D02*
X013162Y036004D01*
X013095Y036163D02*
X011905Y036163D01*
X012011Y036321D02*
X012989Y036321D01*
X012940Y036480D02*
X012060Y036480D01*
X012060Y036638D02*
X012940Y036638D01*
X012996Y036797D02*
X012004Y036797D01*
X011887Y036955D02*
X013113Y036955D01*
X013144Y037114D02*
X011856Y037114D01*
X011991Y037272D02*
X013009Y037272D01*
X012943Y037431D02*
X012057Y037431D01*
X012060Y037589D02*
X012940Y037589D01*
X012976Y037748D02*
X012024Y037748D01*
X011936Y037906D02*
X013064Y037906D01*
X013209Y038065D02*
X011791Y038065D01*
X011965Y038223D02*
X013035Y038223D01*
X012964Y038382D02*
X012036Y038382D01*
X012060Y038540D02*
X012940Y038540D01*
X012955Y038699D02*
X012045Y038699D01*
X011979Y038857D02*
X013021Y038857D01*
X013174Y039016D02*
X011826Y039016D01*
X011916Y039174D02*
X013084Y039174D01*
X012984Y039333D02*
X012016Y039333D01*
X012060Y039491D02*
X012940Y039491D01*
X012940Y039650D02*
X012060Y039650D01*
X011999Y039808D02*
X013001Y039808D01*
X013125Y039967D02*
X011875Y039967D01*
X011867Y040125D02*
X013133Y040125D01*
X013004Y040284D02*
X011996Y040284D01*
X012060Y040442D02*
X012940Y040442D01*
X012940Y040601D02*
X012060Y040601D01*
X012020Y040759D02*
X012980Y040759D01*
X013076Y040918D02*
X011924Y040918D01*
X011693Y041076D02*
X013307Y041076D01*
X013693Y041076D02*
X023307Y041076D01*
X023076Y040918D02*
X013924Y040918D01*
X014020Y040759D02*
X022980Y040759D01*
X022940Y040601D02*
X014060Y040601D01*
X014060Y040442D02*
X022940Y040442D01*
X023004Y040284D02*
X013996Y040284D01*
X013867Y040125D02*
X023133Y040125D01*
X023125Y039967D02*
X013875Y039967D01*
X013999Y039808D02*
X023001Y039808D01*
X022940Y039650D02*
X014060Y039650D01*
X014060Y039491D02*
X022940Y039491D01*
X022984Y039333D02*
X014016Y039333D01*
X013916Y039174D02*
X023084Y039174D01*
X023174Y039016D02*
X013826Y039016D01*
X013979Y038857D02*
X023021Y038857D01*
X022955Y038699D02*
X014045Y038699D01*
X014060Y038540D02*
X022940Y038540D01*
X022964Y038382D02*
X014036Y038382D01*
X013965Y038223D02*
X023035Y038223D01*
X023209Y038065D02*
X013791Y038065D01*
X013936Y037906D02*
X023064Y037906D01*
X022976Y037748D02*
X014024Y037748D01*
X014060Y037589D02*
X022940Y037589D01*
X022943Y037431D02*
X014057Y037431D01*
X013991Y037272D02*
X023009Y037272D01*
X023144Y037114D02*
X013856Y037114D01*
X013887Y036955D02*
X023113Y036955D01*
X022996Y036797D02*
X014004Y036797D01*
X014060Y036638D02*
X022940Y036638D01*
X022940Y036480D02*
X014060Y036480D01*
X014011Y036321D02*
X022989Y036321D01*
X023095Y036163D02*
X013905Y036163D01*
X013838Y036004D02*
X023162Y036004D01*
X023016Y035846D02*
X013984Y035846D01*
X014049Y035687D02*
X022951Y035687D01*
X022940Y035529D02*
X014060Y035529D01*
X014032Y035370D02*
X022968Y035370D01*
X023046Y035212D02*
X013954Y035212D01*
X013764Y035053D02*
X023236Y035053D01*
X023053Y034895D02*
X013947Y034895D01*
X014029Y034736D02*
X022971Y034736D01*
X022940Y034578D02*
X014060Y034578D01*
X014052Y034419D02*
X022948Y034419D01*
X023014Y034261D02*
X013986Y034261D01*
X013844Y034102D02*
X023156Y034102D01*
X023102Y033944D02*
X013898Y033944D01*
X014009Y033785D02*
X022991Y033785D01*
X022940Y033627D02*
X014060Y033627D01*
X014060Y033468D02*
X022940Y033468D01*
X022993Y033310D02*
X014007Y033310D01*
X013893Y033151D02*
X023107Y033151D01*
X023151Y032993D02*
X013849Y032993D01*
X013988Y032834D02*
X023012Y032834D01*
X022946Y032676D02*
X014054Y032676D01*
X014060Y032517D02*
X022940Y032517D01*
X022973Y032359D02*
X014027Y032359D01*
X013942Y032200D02*
X023058Y032200D01*
X023223Y032042D02*
X013777Y032042D01*
X013959Y031883D02*
X023041Y031883D01*
X022966Y031725D02*
X014034Y031725D01*
X014060Y031566D02*
X022940Y031566D01*
X022953Y031408D02*
X014047Y031408D01*
X013981Y031249D02*
X023019Y031249D01*
X023167Y031091D02*
X013833Y031091D01*
X013910Y030932D02*
X023090Y030932D01*
X022986Y030774D02*
X015236Y030774D01*
X015394Y030615D02*
X022940Y030615D01*
X022940Y030457D02*
X015553Y030457D01*
X015711Y030298D02*
X022998Y030298D01*
X023118Y030140D02*
X015870Y030140D01*
X016028Y029981D02*
X023139Y029981D01*
X023007Y029823D02*
X016187Y029823D01*
X016345Y029664D02*
X022941Y029664D01*
X022940Y029506D02*
X016504Y029506D01*
X016662Y029347D02*
X022978Y029347D01*
X023069Y029189D02*
X016821Y029189D01*
X016979Y029030D02*
X023196Y029030D01*
X023030Y028872D02*
X017138Y028872D01*
X017296Y028713D02*
X022961Y028713D01*
X022940Y028555D02*
X017455Y028555D01*
X017613Y028396D02*
X022958Y028396D01*
X023023Y028238D02*
X017772Y028238D01*
X017930Y028079D02*
X023179Y028079D01*
X023079Y027921D02*
X018089Y027921D01*
X018247Y027762D02*
X022982Y027762D01*
X022940Y027604D02*
X018406Y027604D01*
X018564Y027445D02*
X022940Y027445D01*
X024060Y026494D02*
X024940Y026494D01*
X024983Y026336D02*
X024017Y026336D01*
X023919Y026177D02*
X025081Y026177D01*
X025177Y026019D02*
X023823Y026019D01*
X023978Y025860D02*
X025022Y025860D01*
X024957Y025702D02*
X024043Y025702D01*
X024060Y025543D02*
X024940Y025543D01*
X024962Y025385D02*
X024038Y025385D01*
X023968Y025226D02*
X025032Y025226D01*
X025201Y025068D02*
X023799Y025068D01*
X023933Y024909D02*
X025067Y024909D01*
X024977Y024751D02*
X024023Y024751D01*
X024060Y024592D02*
X024940Y024592D01*
X024942Y024434D02*
X024058Y024434D01*
X023992Y024275D02*
X025008Y024275D01*
X025142Y024117D02*
X023858Y024117D01*
X023884Y023958D02*
X025116Y023958D01*
X024997Y023800D02*
X024003Y023800D01*
X024060Y023641D02*
X024940Y023641D01*
X024940Y023483D02*
X024060Y023483D01*
X024013Y023324D02*
X024987Y023324D01*
X025093Y023166D02*
X023907Y023166D01*
X023835Y023007D02*
X025165Y023007D01*
X025018Y022849D02*
X023982Y022849D01*
X024048Y022690D02*
X024952Y022690D01*
X024940Y022532D02*
X024060Y022532D01*
X024033Y022373D02*
X024967Y022373D01*
X025044Y022215D02*
X023956Y022215D01*
X023771Y022056D02*
X025229Y022056D01*
X025056Y021898D02*
X023944Y021898D01*
X024028Y021739D02*
X024972Y021739D01*
X024940Y021581D02*
X024060Y021581D01*
X024053Y021422D02*
X024947Y021422D01*
X025013Y021264D02*
X023987Y021264D01*
X023847Y021105D02*
X025153Y021105D01*
X025105Y020947D02*
X023895Y020947D01*
X024008Y020788D02*
X024992Y020788D01*
X024940Y020630D02*
X024060Y020630D01*
X024060Y020471D02*
X024940Y020471D01*
X024992Y020313D02*
X024008Y020313D01*
X023896Y020154D02*
X025104Y020154D01*
X025154Y019996D02*
X023846Y019996D01*
X023987Y019837D02*
X025013Y019837D01*
X024947Y019679D02*
X024053Y019679D01*
X024060Y019520D02*
X024940Y019520D01*
X024972Y019362D02*
X024028Y019362D01*
X023945Y019203D02*
X025055Y019203D01*
X025231Y019045D02*
X023769Y019045D01*
X023956Y018886D02*
X025044Y018886D01*
X024967Y018728D02*
X024033Y018728D01*
X024060Y018569D02*
X024940Y018569D01*
X024952Y018411D02*
X024048Y018411D01*
X023983Y018252D02*
X025017Y018252D01*
X025165Y018094D02*
X023835Y018094D01*
X023858Y016984D02*
X025142Y016984D01*
X025008Y016826D02*
X023992Y016826D01*
X024058Y016667D02*
X024942Y016667D01*
X024940Y016509D02*
X024060Y016509D01*
X024023Y016350D02*
X024977Y016350D01*
X025067Y016192D02*
X023933Y016192D01*
X023797Y016033D02*
X025203Y016033D01*
X025033Y015875D02*
X023967Y015875D01*
X024037Y015716D02*
X024963Y015716D01*
X024940Y015558D02*
X024060Y015558D01*
X024044Y015399D02*
X024956Y015399D01*
X025022Y015241D02*
X023978Y015241D01*
X023824Y015082D02*
X025176Y015082D01*
X025082Y014924D02*
X023918Y014924D01*
X024017Y014765D02*
X024983Y014765D01*
X024940Y014607D02*
X024060Y014607D01*
X024060Y014448D02*
X024940Y014448D01*
X025002Y014290D02*
X023998Y014290D01*
X023873Y014131D02*
X025127Y014131D01*
X025131Y013973D02*
X023869Y013973D01*
X023997Y013814D02*
X025003Y013814D01*
X024940Y013656D02*
X024060Y013656D01*
X024060Y013497D02*
X024940Y013497D01*
X025869Y013973D02*
X035131Y013973D01*
X035127Y014131D02*
X025873Y014131D01*
X025998Y014290D02*
X035002Y014290D01*
X034940Y014448D02*
X026060Y014448D01*
X026060Y014607D02*
X034940Y014607D01*
X034983Y014765D02*
X026017Y014765D01*
X025918Y014924D02*
X035082Y014924D01*
X035176Y015082D02*
X025824Y015082D01*
X025978Y015241D02*
X035022Y015241D01*
X034956Y015399D02*
X026044Y015399D01*
X026060Y015558D02*
X034940Y015558D01*
X034963Y015716D02*
X026037Y015716D01*
X025967Y015875D02*
X035033Y015875D01*
X035203Y016033D02*
X025797Y016033D01*
X025933Y016192D02*
X035067Y016192D01*
X034977Y016350D02*
X026023Y016350D01*
X026060Y016509D02*
X034940Y016509D01*
X034942Y016667D02*
X026058Y016667D01*
X025992Y016826D02*
X035008Y016826D01*
X035142Y016984D02*
X025858Y016984D01*
X025835Y018094D02*
X035165Y018094D01*
X035017Y018252D02*
X025983Y018252D01*
X026048Y018411D02*
X034952Y018411D01*
X034940Y018569D02*
X026060Y018569D01*
X026033Y018728D02*
X034967Y018728D01*
X035044Y018886D02*
X025956Y018886D01*
X025769Y019045D02*
X035231Y019045D01*
X035055Y019203D02*
X025945Y019203D01*
X026028Y019362D02*
X034972Y019362D01*
X034940Y019520D02*
X026060Y019520D01*
X026053Y019679D02*
X033835Y019679D01*
X033678Y019837D02*
X025987Y019837D01*
X025846Y019996D02*
X033640Y019996D01*
X033674Y020154D02*
X025896Y020154D01*
X026008Y020313D02*
X033814Y020313D01*
X034000Y020000D02*
X038000Y020000D01*
X042500Y024500D01*
X046000Y024500D01*
X046500Y025000D01*
X046500Y027000D01*
X047500Y028000D01*
X047500Y030500D01*
X047000Y031000D01*
X047399Y031408D02*
X049601Y031408D01*
X049677Y031483D02*
X049517Y031323D01*
X049430Y031113D01*
X049430Y030887D01*
X049517Y030677D01*
X049677Y030517D01*
X049718Y030500D01*
X049677Y030483D01*
X049517Y030323D01*
X049430Y030113D01*
X049430Y029887D01*
X049517Y029677D01*
X049677Y029517D01*
X049718Y029500D01*
X049677Y029483D01*
X049517Y029323D01*
X049500Y029282D01*
X049483Y029323D01*
X049323Y029483D01*
X049113Y029570D01*
X048887Y029570D01*
X048677Y029483D01*
X048517Y029323D01*
X048500Y029282D01*
X048483Y029323D01*
X048323Y029483D01*
X048113Y029570D01*
X047887Y029570D01*
X047860Y029559D01*
X047860Y030572D01*
X047805Y030704D01*
X047570Y030939D01*
X047570Y031113D01*
X047483Y031323D01*
X047323Y031483D01*
X047282Y031500D01*
X047323Y031517D01*
X047483Y031677D01*
X047570Y031887D01*
X047570Y032113D01*
X047483Y032323D01*
X047323Y032483D01*
X047282Y032500D01*
X047323Y032517D01*
X049677Y032517D01*
X049718Y032500D01*
X049677Y032483D01*
X049517Y032323D01*
X049430Y032113D01*
X049430Y031887D01*
X049517Y031677D01*
X049677Y031517D01*
X049718Y031500D01*
X049677Y031483D01*
X049628Y031566D02*
X047372Y031566D01*
X047503Y031725D02*
X049497Y031725D01*
X049431Y031883D02*
X047569Y031883D01*
X047570Y032042D02*
X049430Y032042D01*
X049466Y032200D02*
X047534Y032200D01*
X047448Y032359D02*
X049552Y032359D01*
X049677Y032517D02*
X049517Y032677D01*
X049430Y032887D01*
X049430Y033113D01*
X049517Y033323D01*
X049677Y033483D01*
X049718Y033500D01*
X049677Y033517D01*
X049517Y033677D01*
X049430Y033887D01*
X049430Y034113D01*
X049517Y034323D01*
X049677Y034483D01*
X049718Y034500D01*
X049677Y034517D01*
X049517Y034677D01*
X049430Y034887D01*
X049430Y035113D01*
X049517Y035323D01*
X049677Y035483D01*
X049718Y035500D01*
X049677Y035517D01*
X049517Y035677D01*
X049430Y035887D01*
X049430Y036113D01*
X049517Y036323D01*
X049677Y036483D01*
X049718Y036500D01*
X049677Y036517D01*
X049517Y036677D01*
X049430Y036887D01*
X049430Y037113D01*
X049517Y037323D01*
X049677Y037483D01*
X049718Y037500D01*
X049677Y037517D01*
X049517Y037677D01*
X049430Y037887D01*
X049430Y038113D01*
X049517Y038323D01*
X049677Y038483D01*
X049718Y038500D01*
X049677Y038517D01*
X049517Y038677D01*
X049430Y038887D01*
X049430Y039113D01*
X049517Y039323D01*
X049677Y039483D01*
X049718Y039500D01*
X049677Y039517D01*
X049517Y039677D01*
X049430Y039887D01*
X049430Y040113D01*
X049517Y040323D01*
X049677Y040483D01*
X049718Y040500D01*
X049677Y040517D01*
X049517Y040677D01*
X049430Y040887D01*
X049430Y041113D01*
X049517Y041323D01*
X049677Y041483D01*
X049850Y041555D01*
X049820Y041564D01*
X049754Y041598D01*
X049694Y041642D01*
X049642Y041694D01*
X049598Y041754D01*
X049564Y041820D01*
X049542Y041890D01*
X049530Y041963D01*
X049530Y041985D01*
X049985Y041985D01*
X049985Y042015D01*
X049985Y042470D01*
X049963Y042470D01*
X049890Y042458D01*
X049820Y042436D01*
X049754Y042402D01*
X049694Y042358D01*
X049642Y042306D01*
X049598Y042246D01*
X049564Y042180D01*
X049542Y042110D01*
X049530Y042037D01*
X049530Y042015D01*
X049985Y042015D01*
X050015Y042015D01*
X050015Y042470D01*
X050037Y042470D01*
X050110Y042458D01*
X050180Y042436D01*
X050246Y042402D01*
X050306Y042358D01*
X050358Y042306D01*
X050402Y042246D01*
X050436Y042180D01*
X050458Y042110D01*
X050470Y042037D01*
X050470Y042015D01*
X050015Y042015D01*
X050015Y041985D01*
X050470Y041985D01*
X050470Y041963D01*
X050458Y041890D01*
X050436Y041820D01*
X050402Y041754D01*
X050358Y041694D01*
X050306Y041642D01*
X050246Y041598D01*
X050180Y041564D01*
X050150Y041555D01*
X050323Y041483D01*
X050483Y041323D01*
X050570Y041113D01*
X050570Y040887D01*
X050483Y040677D01*
X050323Y040517D01*
X050282Y040500D01*
X050323Y040483D01*
X050483Y040323D01*
X050570Y040113D01*
X050570Y039887D01*
X050483Y039677D01*
X050323Y039517D01*
X050282Y039500D01*
X050323Y039483D01*
X050483Y039323D01*
X050570Y039113D01*
X050570Y038887D01*
X050483Y038677D01*
X050323Y038517D01*
X050282Y038500D01*
X050323Y038483D01*
X050483Y038323D01*
X050570Y038113D01*
X050570Y037887D01*
X050483Y037677D01*
X050323Y037517D01*
X050282Y037500D01*
X050323Y037483D01*
X050483Y037323D01*
X050570Y037113D01*
X050570Y036887D01*
X050483Y036677D01*
X050323Y036517D01*
X050282Y036500D01*
X050323Y036483D01*
X050483Y036323D01*
X050570Y036113D01*
X050570Y035887D01*
X050483Y035677D01*
X050323Y035517D01*
X050282Y035500D01*
X050323Y035483D01*
X050483Y035323D01*
X050570Y035113D01*
X050570Y034887D01*
X050483Y034677D01*
X050323Y034517D01*
X050282Y034500D01*
X050323Y034483D01*
X050483Y034323D01*
X050570Y034113D01*
X050570Y033887D01*
X050483Y033677D01*
X050323Y033517D01*
X050282Y033500D01*
X050323Y033483D01*
X050483Y033323D01*
X050570Y033113D01*
X050570Y032887D01*
X050483Y032677D01*
X050323Y032517D01*
X052995Y032517D01*
X052995Y032359D02*
X050448Y032359D01*
X050483Y032323D02*
X050323Y032483D01*
X050282Y032500D01*
X050323Y032517D01*
X050482Y032676D02*
X052995Y032676D01*
X052995Y032834D02*
X050548Y032834D01*
X050570Y032993D02*
X052995Y032993D01*
X052995Y033151D02*
X050554Y033151D01*
X050489Y033310D02*
X052995Y033310D01*
X052995Y033468D02*
X050338Y033468D01*
X050433Y033627D02*
X052995Y033627D01*
X052995Y033785D02*
X050528Y033785D01*
X050570Y033944D02*
X052995Y033944D01*
X052995Y034102D02*
X050570Y034102D01*
X050509Y034261D02*
X052995Y034261D01*
X052995Y034419D02*
X050387Y034419D01*
X050384Y034578D02*
X052995Y034578D01*
X052995Y034736D02*
X050508Y034736D01*
X050570Y034895D02*
X052995Y034895D01*
X052995Y035053D02*
X050570Y035053D01*
X050529Y035212D02*
X052995Y035212D01*
X052995Y035370D02*
X050436Y035370D01*
X050335Y035529D02*
X052995Y035529D01*
X052995Y035687D02*
X050487Y035687D01*
X050553Y035846D02*
X052995Y035846D01*
X052995Y036004D02*
X050570Y036004D01*
X050550Y036163D02*
X052995Y036163D01*
X052995Y036321D02*
X050484Y036321D01*
X050327Y036480D02*
X052995Y036480D01*
X052995Y036638D02*
X050444Y036638D01*
X050533Y036797D02*
X052995Y036797D01*
X052995Y036955D02*
X050570Y036955D01*
X050570Y037114D02*
X052995Y037114D01*
X052995Y037272D02*
X050504Y037272D01*
X050376Y037431D02*
X052995Y037431D01*
X052995Y037589D02*
X050395Y037589D01*
X050512Y037748D02*
X052995Y037748D01*
X052995Y037906D02*
X050570Y037906D01*
X050570Y038065D02*
X052995Y038065D01*
X052995Y038223D02*
X050525Y038223D01*
X050425Y038382D02*
X052995Y038382D01*
X052995Y038540D02*
X050346Y038540D01*
X050492Y038699D02*
X052995Y038699D01*
X052995Y038857D02*
X050558Y038857D01*
X050570Y039016D02*
X052995Y039016D01*
X052995Y039174D02*
X050545Y039174D01*
X050474Y039333D02*
X052995Y039333D01*
X052995Y039491D02*
X050304Y039491D01*
X050456Y039650D02*
X052995Y039650D01*
X052995Y039808D02*
X050537Y039808D01*
X050570Y039967D02*
X052995Y039967D01*
X052995Y040125D02*
X050565Y040125D01*
X050500Y040284D02*
X052995Y040284D01*
X052995Y040442D02*
X050364Y040442D01*
X050407Y040601D02*
X052995Y040601D01*
X052995Y040759D02*
X050517Y040759D01*
X050570Y040918D02*
X052995Y040918D01*
X052995Y041076D02*
X050570Y041076D01*
X050520Y041235D02*
X052995Y041235D01*
X052995Y041393D02*
X050413Y041393D01*
X050158Y041552D02*
X052995Y041552D01*
X052995Y041710D02*
X050370Y041710D01*
X050451Y041869D02*
X052995Y041869D01*
X052995Y042027D02*
X050470Y042027D01*
X050433Y042186D02*
X052995Y042186D01*
X052995Y042344D02*
X050321Y042344D01*
X050015Y042344D02*
X049985Y042344D01*
X049985Y042186D02*
X050015Y042186D01*
X050015Y042027D02*
X049985Y042027D01*
X049679Y042344D02*
X044462Y042344D01*
X044483Y042323D02*
X044323Y042483D01*
X044113Y042570D01*
X043887Y042570D01*
X043677Y042483D01*
X043517Y042323D01*
X043430Y042113D01*
X043430Y041887D01*
X043517Y041677D01*
X043677Y041517D01*
X043718Y041500D01*
X043677Y041483D01*
X043517Y041323D01*
X043430Y041113D01*
X043430Y040887D01*
X043517Y040677D01*
X043677Y040517D01*
X043718Y040500D01*
X043677Y040483D01*
X043517Y040323D01*
X043430Y040113D01*
X043430Y039887D01*
X043517Y039677D01*
X043677Y039517D01*
X043718Y039500D01*
X043677Y039483D01*
X043517Y039323D01*
X043430Y039113D01*
X043430Y038887D01*
X043517Y038677D01*
X043677Y038517D01*
X043718Y038500D01*
X043677Y038483D01*
X043517Y038323D01*
X043430Y038113D01*
X043430Y037887D01*
X043517Y037677D01*
X043677Y037517D01*
X043718Y037500D01*
X043677Y037483D01*
X043517Y037323D01*
X043430Y037113D01*
X043430Y036887D01*
X043517Y036677D01*
X043677Y036517D01*
X043718Y036500D01*
X043677Y036483D01*
X043517Y036323D01*
X043430Y036113D01*
X043430Y035887D01*
X043441Y035860D01*
X042428Y035860D01*
X042296Y035805D01*
X041580Y035089D01*
X041580Y035115D01*
X041500Y035309D01*
X041500Y035691D01*
X041580Y035885D01*
X041580Y036115D01*
X041500Y036309D01*
X041500Y036691D01*
X041580Y036885D01*
X041580Y037115D01*
X041500Y037309D01*
X041500Y037691D01*
X041580Y037885D01*
X041580Y038115D01*
X041500Y038309D01*
X041500Y038691D01*
X041580Y038885D01*
X041580Y039115D01*
X041500Y039309D01*
X041500Y039691D01*
X041580Y039885D01*
X041580Y040115D01*
X041500Y040309D01*
X041500Y040691D01*
X041580Y040885D01*
X041580Y041115D01*
X041500Y041309D01*
X041500Y048000D01*
X052995Y048000D01*
X052995Y011500D01*
X049500Y011500D01*
X049500Y013500D01*
X043500Y013500D01*
X041500Y015500D01*
X041500Y022991D01*
X042649Y024140D01*
X046072Y024140D01*
X046204Y024195D01*
X046704Y024695D01*
X046805Y024796D01*
X046860Y024928D01*
X046860Y024930D01*
X046885Y024920D01*
X047115Y024920D01*
X047329Y025008D01*
X047492Y025171D01*
X047500Y025191D01*
X047508Y025171D01*
X047671Y025008D01*
X047885Y024920D01*
X048115Y024920D01*
X048329Y025008D01*
X048492Y025171D01*
X048500Y025191D01*
X048508Y025171D01*
X048671Y025008D01*
X048885Y024920D01*
X049115Y024920D01*
X049329Y025008D01*
X049492Y025171D01*
X049580Y025385D01*
X049580Y025615D01*
X049492Y025829D01*
X049329Y025992D01*
X049115Y026080D01*
X048885Y026080D01*
X048671Y025992D01*
X048508Y025829D01*
X048500Y025809D01*
X048492Y025829D01*
X048329Y025992D01*
X048115Y026080D01*
X047885Y026080D01*
X047671Y025992D01*
X047508Y025829D01*
X047500Y025809D01*
X047492Y025829D01*
X047329Y025992D01*
X047115Y026080D01*
X046885Y026080D01*
X046860Y026070D01*
X046860Y026851D01*
X047704Y027695D01*
X047805Y027796D01*
X047860Y027928D01*
X047860Y028441D01*
X047887Y028430D01*
X048113Y028430D01*
X048323Y028517D01*
X048483Y028677D01*
X048500Y028718D01*
X048517Y028677D01*
X048677Y028517D01*
X048887Y028430D01*
X049113Y028430D01*
X049323Y028517D01*
X049483Y028677D01*
X049500Y028718D01*
X049517Y028677D01*
X049677Y028517D01*
X049887Y028430D01*
X050113Y028430D01*
X050323Y028517D01*
X050483Y028677D01*
X050570Y028887D01*
X050570Y029113D01*
X050483Y029323D01*
X050323Y029483D01*
X050282Y029500D01*
X050323Y029517D01*
X050483Y029677D01*
X050570Y029887D01*
X050570Y030113D01*
X050483Y030323D01*
X050323Y030483D01*
X050282Y030500D01*
X050323Y030517D01*
X050483Y030677D01*
X050570Y030887D01*
X050570Y031113D01*
X050483Y031323D01*
X050323Y031483D01*
X050282Y031500D01*
X050323Y031517D01*
X050483Y031677D01*
X050570Y031887D01*
X050570Y032113D01*
X050483Y032323D01*
X050534Y032200D02*
X052995Y032200D01*
X052995Y032042D02*
X050570Y032042D01*
X050569Y031883D02*
X052995Y031883D01*
X052995Y031725D02*
X050503Y031725D01*
X050372Y031566D02*
X052995Y031566D01*
X052995Y031408D02*
X050399Y031408D01*
X050514Y031249D02*
X052995Y031249D01*
X052995Y031091D02*
X050570Y031091D01*
X050570Y030932D02*
X052995Y030932D01*
X052995Y030774D02*
X050523Y030774D01*
X050421Y030615D02*
X052995Y030615D01*
X052995Y030457D02*
X050350Y030457D01*
X050494Y030298D02*
X052995Y030298D01*
X052995Y030140D02*
X050559Y030140D01*
X050570Y029981D02*
X052995Y029981D01*
X052995Y029823D02*
X050543Y029823D01*
X050470Y029664D02*
X052995Y029664D01*
X052995Y029506D02*
X050296Y029506D01*
X050459Y029347D02*
X052995Y029347D01*
X052995Y029189D02*
X050539Y029189D01*
X050570Y029030D02*
X052995Y029030D01*
X052995Y028872D02*
X050564Y028872D01*
X050498Y028713D02*
X052995Y028713D01*
X052995Y028555D02*
X050361Y028555D01*
X049639Y028555D02*
X049361Y028555D01*
X049498Y028713D02*
X049502Y028713D01*
X049459Y029347D02*
X049541Y029347D01*
X049704Y029506D02*
X049269Y029506D01*
X049530Y029664D02*
X047860Y029664D01*
X047860Y029823D02*
X049457Y029823D01*
X049430Y029981D02*
X047860Y029981D01*
X047860Y030140D02*
X049441Y030140D01*
X049506Y030298D02*
X047860Y030298D01*
X047860Y030457D02*
X049650Y030457D01*
X049579Y030615D02*
X047842Y030615D01*
X047736Y030774D02*
X049477Y030774D01*
X049430Y030932D02*
X047577Y030932D01*
X047570Y031091D02*
X049430Y031091D01*
X049486Y031249D02*
X047514Y031249D01*
X047323Y032517D02*
X047483Y032677D01*
X047570Y032887D01*
X047570Y033113D01*
X047483Y033323D01*
X047323Y033483D01*
X047282Y033500D01*
X047323Y033517D01*
X047483Y033677D01*
X047570Y033887D01*
X047570Y034113D01*
X047483Y034323D01*
X047323Y034483D01*
X047150Y034555D01*
X047180Y034564D01*
X047246Y034598D01*
X047306Y034642D01*
X047358Y034694D01*
X047402Y034754D01*
X047436Y034820D01*
X047458Y034890D01*
X047470Y034963D01*
X047470Y034985D01*
X047015Y034985D01*
X047015Y035015D01*
X047470Y035015D01*
X047470Y035037D01*
X047458Y035110D01*
X047436Y035180D01*
X047402Y035246D01*
X047358Y035306D01*
X047306Y035358D01*
X047246Y035402D01*
X047180Y035436D01*
X047150Y035445D01*
X047323Y035517D01*
X047483Y035677D01*
X047570Y035887D01*
X047570Y036113D01*
X047483Y036323D01*
X047323Y036483D01*
X047113Y036570D01*
X046887Y036570D01*
X046677Y036483D01*
X046517Y036323D01*
X046500Y036282D01*
X046483Y036323D01*
X046323Y036483D01*
X046113Y036570D01*
X045887Y036570D01*
X045677Y036483D01*
X045517Y036323D01*
X045430Y036113D01*
X045430Y035887D01*
X045517Y035677D01*
X045677Y035517D01*
X045718Y035500D01*
X045677Y035483D01*
X045517Y035323D01*
X045430Y035113D01*
X045430Y035079D01*
X044805Y035704D01*
X044704Y035805D01*
X044572Y035860D01*
X044559Y035860D01*
X044570Y035887D01*
X044570Y036113D01*
X044483Y036323D01*
X044323Y036483D01*
X044282Y036500D01*
X044323Y036517D01*
X044483Y036677D01*
X044500Y036718D01*
X044517Y036677D01*
X044677Y036517D01*
X044887Y036430D01*
X045113Y036430D01*
X045323Y036517D01*
X045483Y036677D01*
X045570Y036887D01*
X045570Y037113D01*
X045483Y037323D01*
X045323Y037483D01*
X045282Y037500D01*
X045323Y037517D01*
X045483Y037677D01*
X045570Y037887D01*
X045570Y038113D01*
X045483Y038323D01*
X045323Y038483D01*
X045282Y038500D01*
X045323Y038517D01*
X045483Y038677D01*
X045570Y038887D01*
X045570Y039113D01*
X045483Y039323D01*
X045323Y039483D01*
X045113Y039570D01*
X044887Y039570D01*
X044677Y039483D01*
X044517Y039323D01*
X044500Y039282D01*
X044483Y039323D01*
X044323Y039483D01*
X044282Y039500D01*
X044323Y039517D01*
X044483Y039677D01*
X044570Y039887D01*
X044570Y040113D01*
X044483Y040323D01*
X044323Y040483D01*
X044282Y040500D01*
X044323Y040517D01*
X044483Y040677D01*
X044500Y040718D01*
X044517Y040677D01*
X044677Y040517D01*
X044887Y040430D01*
X045113Y040430D01*
X045323Y040517D01*
X045483Y040677D01*
X045570Y040887D01*
X045570Y041113D01*
X045483Y041323D01*
X045323Y041483D01*
X045113Y041570D01*
X044887Y041570D01*
X044677Y041483D01*
X044517Y041323D01*
X044500Y041282D01*
X044483Y041323D01*
X044323Y041483D01*
X044282Y041500D01*
X044323Y041517D01*
X044483Y041677D01*
X044570Y041887D01*
X044570Y042113D01*
X044483Y042323D01*
X044540Y042186D02*
X049567Y042186D01*
X049530Y042027D02*
X044570Y042027D01*
X044563Y041869D02*
X049549Y041869D01*
X049630Y041710D02*
X044497Y041710D01*
X044358Y041552D02*
X044842Y041552D01*
X044587Y041393D02*
X044413Y041393D01*
X043642Y041552D02*
X041500Y041552D01*
X041500Y041710D02*
X043503Y041710D01*
X043437Y041869D02*
X041500Y041869D01*
X041500Y042027D02*
X043430Y042027D01*
X043460Y042186D02*
X041500Y042186D01*
X041500Y042344D02*
X043538Y042344D01*
X043724Y042503D02*
X041500Y042503D01*
X041500Y042661D02*
X052995Y042661D01*
X052995Y042503D02*
X044276Y042503D01*
X045158Y041552D02*
X049842Y041552D01*
X049587Y041393D02*
X045413Y041393D01*
X045520Y041235D02*
X049480Y041235D01*
X049430Y041076D02*
X045570Y041076D01*
X045570Y040918D02*
X049430Y040918D01*
X049483Y040759D02*
X045517Y040759D01*
X045407Y040601D02*
X049593Y040601D01*
X049636Y040442D02*
X045143Y040442D01*
X044857Y040442D02*
X044364Y040442D01*
X044407Y040601D02*
X044593Y040601D01*
X044500Y040284D02*
X049500Y040284D01*
X049435Y040125D02*
X044565Y040125D01*
X044570Y039967D02*
X049430Y039967D01*
X049463Y039808D02*
X044537Y039808D01*
X044456Y039650D02*
X049544Y039650D01*
X049696Y039491D02*
X045304Y039491D01*
X045474Y039333D02*
X049526Y039333D01*
X049455Y039174D02*
X045545Y039174D01*
X045570Y039016D02*
X049430Y039016D01*
X049442Y038857D02*
X045558Y038857D01*
X045492Y038699D02*
X049508Y038699D01*
X049654Y038540D02*
X045346Y038540D01*
X045425Y038382D02*
X049575Y038382D01*
X049475Y038223D02*
X045525Y038223D01*
X045570Y038065D02*
X049430Y038065D01*
X049430Y037906D02*
X045570Y037906D01*
X045512Y037748D02*
X049488Y037748D01*
X049605Y037589D02*
X045395Y037589D01*
X045376Y037431D02*
X049624Y037431D01*
X049496Y037272D02*
X045504Y037272D01*
X045570Y037114D02*
X049430Y037114D01*
X049430Y036955D02*
X045570Y036955D01*
X045533Y036797D02*
X049467Y036797D01*
X049556Y036638D02*
X045444Y036638D01*
X045233Y036480D02*
X045673Y036480D01*
X045516Y036321D02*
X044484Y036321D01*
X044550Y036163D02*
X045450Y036163D01*
X045430Y036004D02*
X044570Y036004D01*
X044606Y035846D02*
X045447Y035846D01*
X045513Y035687D02*
X044822Y035687D01*
X044981Y035529D02*
X045665Y035529D01*
X045564Y035370D02*
X045139Y035370D01*
X045298Y035212D02*
X045471Y035212D01*
X044500Y035500D02*
X042500Y035500D01*
X041500Y034500D01*
X039500Y034500D01*
X039000Y034000D01*
X039000Y032050D01*
X037500Y030550D01*
X036986Y030774D02*
X036014Y030774D01*
X036060Y030615D02*
X036940Y030615D01*
X036940Y030457D02*
X036060Y030457D01*
X036002Y030298D02*
X036998Y030298D01*
X037118Y030140D02*
X035882Y030140D01*
X035861Y029981D02*
X037139Y029981D01*
X037007Y029823D02*
X035993Y029823D01*
X036059Y029664D02*
X036941Y029664D01*
X036940Y029506D02*
X036060Y029506D01*
X036022Y029347D02*
X036978Y029347D01*
X037069Y029189D02*
X035931Y029189D01*
X035804Y029030D02*
X037196Y029030D01*
X037030Y028872D02*
X036614Y028872D01*
X036796Y028713D02*
X036961Y028713D01*
X036450Y028550D02*
X037000Y028000D01*
X039500Y028000D01*
X040000Y028500D01*
X040000Y030500D01*
X043500Y034000D01*
X044000Y034000D01*
X044000Y035000D02*
X043500Y035000D01*
X039500Y031000D01*
X039500Y029000D01*
X039000Y028500D01*
X037500Y028500D01*
X037500Y028550D01*
X036450Y028550D02*
X035500Y028550D01*
X034940Y028555D02*
X034860Y028555D01*
X034860Y028713D02*
X034961Y028713D01*
X035030Y028872D02*
X034860Y028872D01*
X034860Y029030D02*
X035196Y029030D01*
X035069Y029189D02*
X034860Y029189D01*
X034860Y029347D02*
X034978Y029347D01*
X034940Y029506D02*
X034860Y029506D01*
X034822Y029664D02*
X034941Y029664D01*
X035007Y029823D02*
X034687Y029823D01*
X034528Y029981D02*
X035139Y029981D01*
X035118Y030140D02*
X034370Y030140D01*
X034211Y030298D02*
X034998Y030298D01*
X034940Y030457D02*
X026060Y030457D01*
X026060Y030615D02*
X034940Y030615D01*
X034986Y030774D02*
X026014Y030774D01*
X025910Y030932D02*
X035090Y030932D01*
X035167Y031091D02*
X025833Y031091D01*
X025981Y031249D02*
X035019Y031249D01*
X034953Y031408D02*
X026047Y031408D01*
X026060Y031566D02*
X034940Y031566D01*
X034966Y031725D02*
X026034Y031725D01*
X025959Y031883D02*
X035041Y031883D01*
X035223Y032042D02*
X025777Y032042D01*
X025942Y032200D02*
X035058Y032200D01*
X034973Y032359D02*
X026027Y032359D01*
X026060Y032517D02*
X034940Y032517D01*
X034946Y032676D02*
X026054Y032676D01*
X025988Y032834D02*
X035012Y032834D01*
X035151Y032993D02*
X025849Y032993D01*
X025893Y033151D02*
X035107Y033151D01*
X034993Y033310D02*
X026007Y033310D01*
X026060Y033468D02*
X034940Y033468D01*
X034940Y033627D02*
X026060Y033627D01*
X026009Y033785D02*
X034991Y033785D01*
X035102Y033944D02*
X025898Y033944D01*
X025844Y034102D02*
X035156Y034102D01*
X035014Y034261D02*
X025986Y034261D01*
X026052Y034419D02*
X034948Y034419D01*
X034940Y034578D02*
X026060Y034578D01*
X026029Y034736D02*
X034971Y034736D01*
X035053Y034895D02*
X025947Y034895D01*
X025764Y035053D02*
X035236Y035053D01*
X035046Y035212D02*
X025954Y035212D01*
X026032Y035370D02*
X034968Y035370D01*
X034940Y035529D02*
X026060Y035529D01*
X026049Y035687D02*
X034951Y035687D01*
X035016Y035846D02*
X025984Y035846D01*
X025838Y036004D02*
X035162Y036004D01*
X035095Y036163D02*
X025905Y036163D01*
X026011Y036321D02*
X034989Y036321D01*
X034940Y036480D02*
X026060Y036480D01*
X026060Y036638D02*
X034940Y036638D01*
X034996Y036797D02*
X026004Y036797D01*
X025887Y036955D02*
X035113Y036955D01*
X035144Y037114D02*
X025856Y037114D01*
X025991Y037272D02*
X035009Y037272D01*
X034943Y037431D02*
X026057Y037431D01*
X026060Y037589D02*
X034940Y037589D01*
X034976Y037748D02*
X026024Y037748D01*
X025936Y037906D02*
X035064Y037906D01*
X035209Y038065D02*
X025791Y038065D01*
X025965Y038223D02*
X035035Y038223D01*
X034964Y038382D02*
X026036Y038382D01*
X026060Y038540D02*
X034940Y038540D01*
X034955Y038699D02*
X026045Y038699D01*
X025979Y038857D02*
X035021Y038857D01*
X035174Y039016D02*
X025826Y039016D01*
X025916Y039174D02*
X035084Y039174D01*
X034984Y039333D02*
X026016Y039333D01*
X026060Y039491D02*
X034940Y039491D01*
X034940Y039650D02*
X026060Y039650D01*
X025999Y039808D02*
X035001Y039808D01*
X035125Y039967D02*
X025875Y039967D01*
X025867Y040125D02*
X035133Y040125D01*
X035004Y040284D02*
X025996Y040284D01*
X026060Y040442D02*
X034940Y040442D01*
X034940Y040601D02*
X026060Y040601D01*
X026020Y040759D02*
X034980Y040759D01*
X035076Y040918D02*
X025924Y040918D01*
X025693Y041076D02*
X035307Y041076D01*
X035693Y041076D02*
X037307Y041076D01*
X037076Y040918D02*
X035924Y040918D01*
X036020Y040759D02*
X036980Y040759D01*
X036940Y040601D02*
X036060Y040601D01*
X036060Y040442D02*
X036940Y040442D01*
X037004Y040284D02*
X035996Y040284D01*
X035867Y040125D02*
X037133Y040125D01*
X037125Y039967D02*
X035875Y039967D01*
X035999Y039808D02*
X037001Y039808D01*
X036940Y039650D02*
X036060Y039650D01*
X036060Y039491D02*
X036940Y039491D01*
X036984Y039333D02*
X036016Y039333D01*
X035916Y039174D02*
X037084Y039174D01*
X037174Y039016D02*
X035826Y039016D01*
X035979Y038857D02*
X037021Y038857D01*
X036955Y038699D02*
X036045Y038699D01*
X036060Y038540D02*
X036940Y038540D01*
X036964Y038382D02*
X036036Y038382D01*
X035965Y038223D02*
X037035Y038223D01*
X037209Y038065D02*
X035791Y038065D01*
X035936Y037906D02*
X037064Y037906D01*
X036976Y037748D02*
X036024Y037748D01*
X036060Y037589D02*
X036940Y037589D01*
X036943Y037431D02*
X036057Y037431D01*
X035991Y037272D02*
X037009Y037272D01*
X037144Y037114D02*
X035856Y037114D01*
X035887Y036955D02*
X037113Y036955D01*
X036996Y036797D02*
X036004Y036797D01*
X036060Y036638D02*
X036940Y036638D01*
X036940Y036480D02*
X036060Y036480D01*
X036011Y036321D02*
X036989Y036321D01*
X037095Y036163D02*
X035905Y036163D01*
X035838Y036004D02*
X037162Y036004D01*
X037016Y035846D02*
X035984Y035846D01*
X036049Y035687D02*
X036951Y035687D01*
X036940Y035529D02*
X036060Y035529D01*
X036032Y035370D02*
X036968Y035370D01*
X037046Y035212D02*
X035954Y035212D01*
X035764Y035053D02*
X037236Y035053D01*
X037053Y034895D02*
X035947Y034895D01*
X036029Y034736D02*
X036971Y034736D01*
X036940Y034578D02*
X036060Y034578D01*
X036052Y034419D02*
X036948Y034419D01*
X037014Y034261D02*
X035986Y034261D01*
X035844Y034102D02*
X037156Y034102D01*
X037102Y033944D02*
X035898Y033944D01*
X036009Y033785D02*
X036991Y033785D01*
X036940Y033627D02*
X036060Y033627D01*
X036060Y033468D02*
X036940Y033468D01*
X036993Y033310D02*
X036007Y033310D01*
X035893Y033151D02*
X037107Y033151D01*
X037151Y032993D02*
X035849Y032993D01*
X035988Y032834D02*
X037012Y032834D01*
X036946Y032676D02*
X036054Y032676D01*
X036060Y032517D02*
X036940Y032517D01*
X036973Y032359D02*
X036027Y032359D01*
X035942Y032200D02*
X037058Y032200D01*
X037223Y032042D02*
X035777Y032042D01*
X035959Y031883D02*
X037041Y031883D01*
X036966Y031725D02*
X036034Y031725D01*
X036060Y031566D02*
X036940Y031566D01*
X036953Y031408D02*
X036047Y031408D01*
X035981Y031249D02*
X037019Y031249D01*
X037167Y031091D02*
X035833Y031091D01*
X035910Y030932D02*
X037090Y030932D01*
X038034Y031725D02*
X038165Y031725D01*
X038324Y031883D02*
X037959Y031883D01*
X037777Y032042D02*
X038482Y032042D01*
X038640Y032200D02*
X037942Y032200D01*
X038027Y032359D02*
X038640Y032359D01*
X038640Y032517D02*
X038060Y032517D01*
X038054Y032676D02*
X038640Y032676D01*
X038640Y032834D02*
X037988Y032834D01*
X037849Y032993D02*
X038640Y032993D01*
X038640Y033151D02*
X037893Y033151D01*
X038007Y033310D02*
X038640Y033310D01*
X038640Y033468D02*
X038060Y033468D01*
X038060Y033627D02*
X038640Y033627D01*
X038640Y033785D02*
X038009Y033785D01*
X037898Y033944D02*
X038640Y033944D01*
X038653Y034102D02*
X037844Y034102D01*
X037986Y034261D02*
X038751Y034261D01*
X038910Y034419D02*
X038052Y034419D01*
X038060Y034578D02*
X039068Y034578D01*
X039227Y034736D02*
X038029Y034736D01*
X037947Y034895D02*
X039420Y034895D01*
X039420Y035053D02*
X037764Y035053D01*
X037954Y035212D02*
X039460Y035212D01*
X039550Y035370D02*
X038032Y035370D01*
X038060Y035529D02*
X039651Y035529D01*
X039502Y035687D02*
X038049Y035687D01*
X037984Y035846D02*
X039436Y035846D01*
X039420Y036004D02*
X037838Y036004D01*
X037905Y036163D02*
X039440Y036163D01*
X039505Y036321D02*
X038011Y036321D01*
X038060Y036480D02*
X039659Y036480D01*
X039542Y036638D02*
X038060Y036638D01*
X038004Y036797D02*
X039456Y036797D01*
X039420Y036955D02*
X037887Y036955D01*
X037856Y037114D02*
X039420Y037114D01*
X039485Y037272D02*
X037991Y037272D01*
X038057Y037431D02*
X039610Y037431D01*
X039591Y037589D02*
X038060Y037589D01*
X038024Y037748D02*
X039477Y037748D01*
X039420Y037906D02*
X037936Y037906D01*
X037791Y038065D02*
X039420Y038065D01*
X039465Y038223D02*
X037965Y038223D01*
X038036Y038382D02*
X039561Y038382D01*
X039640Y038540D02*
X038060Y038540D01*
X038045Y038699D02*
X039497Y038699D01*
X039431Y038857D02*
X037979Y038857D01*
X037826Y039016D02*
X039420Y039016D01*
X039444Y039174D02*
X037916Y039174D01*
X038016Y039333D02*
X039512Y039333D01*
X039671Y039491D02*
X038060Y039491D01*
X038060Y039650D02*
X039530Y039650D01*
X039452Y039808D02*
X037999Y039808D01*
X037875Y039967D02*
X039420Y039967D01*
X039424Y040125D02*
X037867Y040125D01*
X037996Y040284D02*
X039490Y040284D01*
X039622Y040442D02*
X038060Y040442D01*
X038060Y040601D02*
X039579Y040601D01*
X039472Y040759D02*
X038020Y040759D01*
X037924Y040918D02*
X039420Y040918D01*
X039420Y041076D02*
X037693Y041076D01*
X039469Y041235D02*
X001005Y041235D01*
X001005Y041393D02*
X039573Y041393D01*
X039816Y041552D02*
X001005Y041552D01*
X001005Y041710D02*
X041000Y041710D01*
X041000Y041869D02*
X001005Y041869D01*
X001005Y042027D02*
X041000Y042027D01*
X041000Y042186D02*
X001005Y042186D01*
X001005Y042344D02*
X041000Y042344D01*
X041000Y042503D02*
X001005Y042503D01*
X001005Y042661D02*
X041000Y042661D01*
X041000Y042820D02*
X036794Y042820D01*
X036778Y042810D02*
X037012Y042946D01*
X037204Y043138D01*
X037340Y043372D01*
X037410Y043634D01*
X037410Y043906D01*
X037340Y044168D01*
X037204Y044402D01*
X037012Y044594D01*
X036778Y044730D01*
X036516Y044800D01*
X036244Y044800D01*
X035982Y044730D01*
X035748Y044594D01*
X035556Y044402D01*
X035420Y044168D01*
X035350Y043906D01*
X035350Y043634D01*
X035420Y043372D01*
X035556Y043138D01*
X035748Y042946D01*
X035982Y042810D01*
X036244Y042740D01*
X036516Y042740D01*
X036778Y042810D01*
X037045Y042978D02*
X041000Y042978D01*
X041000Y043137D02*
X037203Y043137D01*
X037295Y043295D02*
X041000Y043295D01*
X041000Y043454D02*
X037362Y043454D01*
X037404Y043612D02*
X041000Y043612D01*
X041000Y043771D02*
X037410Y043771D01*
X037404Y043929D02*
X041000Y043929D01*
X041000Y044088D02*
X037361Y044088D01*
X037294Y044246D02*
X041000Y044246D01*
X041000Y044405D02*
X037202Y044405D01*
X037044Y044563D02*
X041000Y044563D01*
X041000Y044722D02*
X036792Y044722D01*
X035968Y044722D02*
X025032Y044722D01*
X025018Y044730D02*
X024756Y044800D01*
X024484Y044800D01*
X024222Y044730D01*
X023988Y044594D01*
X023796Y044402D01*
X023660Y044168D01*
X023590Y043906D01*
X023590Y043634D01*
X023660Y043372D01*
X023796Y043138D01*
X023988Y042946D01*
X024222Y042810D01*
X024484Y042740D01*
X024756Y042740D01*
X025018Y042810D01*
X025252Y042946D01*
X025444Y043138D01*
X025580Y043372D01*
X025650Y043634D01*
X025650Y043906D01*
X025580Y044168D01*
X025444Y044402D01*
X025252Y044594D01*
X025018Y044730D01*
X025284Y044563D02*
X035716Y044563D01*
X035558Y044405D02*
X025442Y044405D01*
X025534Y044246D02*
X035466Y044246D01*
X035399Y044088D02*
X025601Y044088D01*
X025644Y043929D02*
X035356Y043929D01*
X035350Y043771D02*
X025650Y043771D01*
X025644Y043612D02*
X035356Y043612D01*
X035398Y043454D02*
X025602Y043454D01*
X025535Y043295D02*
X035465Y043295D01*
X035557Y043137D02*
X025443Y043137D01*
X025285Y042978D02*
X035715Y042978D01*
X035966Y042820D02*
X025034Y042820D01*
X024206Y042820D02*
X012794Y042820D01*
X012778Y042810D02*
X013012Y042946D01*
X013204Y043138D01*
X013340Y043372D01*
X013410Y043634D01*
X013410Y043906D01*
X013340Y044168D01*
X013204Y044402D01*
X013012Y044594D01*
X012778Y044730D01*
X012516Y044800D01*
X012244Y044800D01*
X011982Y044730D01*
X011748Y044594D01*
X011556Y044402D01*
X011420Y044168D01*
X011350Y043906D01*
X011350Y043634D01*
X011420Y043372D01*
X011556Y043138D01*
X011748Y042946D01*
X011982Y042810D01*
X012244Y042740D01*
X012516Y042740D01*
X012778Y042810D01*
X013045Y042978D02*
X023955Y042978D01*
X023797Y043137D02*
X013203Y043137D01*
X013295Y043295D02*
X023705Y043295D01*
X023638Y043454D02*
X013362Y043454D01*
X013404Y043612D02*
X023596Y043612D01*
X023590Y043771D02*
X013410Y043771D01*
X013404Y043929D02*
X023596Y043929D01*
X023639Y044088D02*
X013361Y044088D01*
X013294Y044246D02*
X023706Y044246D01*
X023798Y044405D02*
X013202Y044405D01*
X013044Y044563D02*
X023956Y044563D01*
X024208Y044722D02*
X012792Y044722D01*
X011968Y044722D02*
X001005Y044722D01*
X001005Y044880D02*
X041000Y044880D01*
X041000Y045039D02*
X001005Y045039D01*
X001005Y045197D02*
X041000Y045197D01*
X041000Y045356D02*
X001005Y045356D01*
X001005Y045514D02*
X041000Y045514D01*
X041000Y045673D02*
X001005Y045673D01*
X001005Y045831D02*
X041000Y045831D01*
X041000Y045990D02*
X001005Y045990D01*
X001005Y046148D02*
X041000Y046148D01*
X041000Y046307D02*
X001005Y046307D01*
X001005Y046465D02*
X041000Y046465D01*
X041000Y046624D02*
X001005Y046624D01*
X001005Y046782D02*
X041000Y046782D01*
X041000Y046941D02*
X001005Y046941D01*
X001005Y047099D02*
X041000Y047099D01*
X041000Y047258D02*
X001005Y047258D01*
X001005Y047416D02*
X041000Y047416D01*
X041000Y047575D02*
X001005Y047575D01*
X001005Y047733D02*
X041000Y047733D01*
X041000Y047892D02*
X001005Y047892D01*
X001005Y044563D02*
X011716Y044563D01*
X011558Y044405D02*
X001005Y044405D01*
X001005Y044246D02*
X011466Y044246D01*
X011399Y044088D02*
X001005Y044088D01*
X001005Y043929D02*
X011356Y043929D01*
X011350Y043771D02*
X001005Y043771D01*
X001005Y043612D02*
X011356Y043612D01*
X011398Y043454D02*
X001005Y043454D01*
X001005Y043295D02*
X011465Y043295D01*
X011557Y043137D02*
X001005Y043137D01*
X001005Y042978D02*
X011715Y042978D01*
X011966Y042820D02*
X001005Y042820D01*
X001005Y041076D02*
X011307Y041076D01*
X011076Y040918D02*
X001005Y040918D01*
X001005Y040759D02*
X010980Y040759D01*
X010940Y040601D02*
X001005Y040601D01*
X001005Y040442D02*
X010940Y040442D01*
X011004Y040284D02*
X001005Y040284D01*
X001005Y040125D02*
X011133Y040125D01*
X011125Y039967D02*
X001005Y039967D01*
X001005Y039808D02*
X011001Y039808D01*
X010940Y039650D02*
X001005Y039650D01*
X001005Y039491D02*
X010940Y039491D01*
X010984Y039333D02*
X001005Y039333D01*
X001005Y039174D02*
X011084Y039174D01*
X011174Y039016D02*
X001005Y039016D01*
X001005Y038857D02*
X011021Y038857D01*
X010955Y038699D02*
X001005Y038699D01*
X001005Y038540D02*
X010940Y038540D01*
X010964Y038382D02*
X001005Y038382D01*
X001005Y038223D02*
X011035Y038223D01*
X011209Y038065D02*
X001005Y038065D01*
X001005Y037906D02*
X011064Y037906D01*
X010976Y037748D02*
X001005Y037748D01*
X001005Y037589D02*
X010940Y037589D01*
X010943Y037431D02*
X001005Y037431D01*
X001005Y037272D02*
X011009Y037272D01*
X011144Y037114D02*
X001005Y037114D01*
X001005Y036955D02*
X011113Y036955D01*
X010996Y036797D02*
X001005Y036797D01*
X001005Y036638D02*
X010940Y036638D01*
X010940Y036480D02*
X001005Y036480D01*
X001005Y036321D02*
X010989Y036321D01*
X011095Y036163D02*
X001005Y036163D01*
X001005Y036004D02*
X011162Y036004D01*
X011016Y035846D02*
X001005Y035846D01*
X001005Y035687D02*
X010951Y035687D01*
X010940Y035529D02*
X001005Y035529D01*
X001005Y035370D02*
X010968Y035370D01*
X011046Y035212D02*
X001005Y035212D01*
X001005Y035053D02*
X011236Y035053D01*
X011053Y034895D02*
X001005Y034895D01*
X001005Y034736D02*
X010971Y034736D01*
X010940Y034578D02*
X001005Y034578D01*
X001005Y034419D02*
X010948Y034419D01*
X011014Y034261D02*
X001005Y034261D01*
X001005Y034102D02*
X011156Y034102D01*
X011102Y033944D02*
X001005Y033944D01*
X001005Y033785D02*
X010991Y033785D01*
X010940Y033627D02*
X001005Y033627D01*
X001005Y033468D02*
X010940Y033468D01*
X010993Y033310D02*
X001005Y033310D01*
X001005Y033151D02*
X011107Y033151D01*
X011151Y032993D02*
X001005Y032993D01*
X001005Y032834D02*
X011012Y032834D01*
X010946Y032676D02*
X001005Y032676D01*
X001005Y032517D02*
X010940Y032517D01*
X010973Y032359D02*
X001005Y032359D01*
X001005Y032200D02*
X011058Y032200D01*
X011223Y032042D02*
X001005Y032042D01*
X001005Y031883D02*
X011041Y031883D01*
X010966Y031725D02*
X001005Y031725D01*
X001005Y031566D02*
X010940Y031566D01*
X010953Y031408D02*
X001005Y031408D01*
X001005Y031249D02*
X011019Y031249D01*
X011167Y031091D02*
X001005Y031091D01*
X001005Y030932D02*
X011090Y030932D01*
X010986Y030774D02*
X001005Y030774D01*
X001005Y030615D02*
X010940Y030615D01*
X010940Y030457D02*
X001005Y030457D01*
X001005Y030298D02*
X010998Y030298D01*
X011118Y030140D02*
X001005Y030140D01*
X001005Y029981D02*
X011139Y029981D01*
X011007Y029823D02*
X001005Y029823D01*
X001005Y029664D02*
X010941Y029664D01*
X010940Y029506D02*
X001005Y029506D01*
X001005Y029347D02*
X010978Y029347D01*
X011069Y029189D02*
X001005Y029189D01*
X001005Y029030D02*
X011196Y029030D01*
X011030Y028872D02*
X001005Y028872D01*
X001005Y028713D02*
X010961Y028713D01*
X010940Y028555D02*
X001005Y028555D01*
X001005Y028396D02*
X010958Y028396D01*
X011023Y028238D02*
X001005Y028238D01*
X001005Y028079D02*
X011179Y028079D01*
X011079Y027921D02*
X001005Y027921D01*
X001005Y027762D02*
X010982Y027762D01*
X010940Y027604D02*
X001005Y027604D01*
X001005Y027445D02*
X010940Y027445D01*
X011003Y027287D02*
X001005Y027287D01*
X001005Y027128D02*
X011130Y027128D01*
X011128Y026970D02*
X001005Y026970D01*
X001005Y026811D02*
X011002Y026811D01*
X010940Y026653D02*
X001005Y026653D01*
X001005Y026494D02*
X010940Y026494D01*
X010983Y026336D02*
X001005Y026336D01*
X001005Y026177D02*
X011081Y026177D01*
X011177Y026019D02*
X001005Y026019D01*
X001005Y025860D02*
X011022Y025860D01*
X010957Y025702D02*
X001005Y025702D01*
X001005Y025543D02*
X010940Y025543D01*
X010962Y025385D02*
X001005Y025385D01*
X001005Y025226D02*
X011032Y025226D01*
X011201Y025068D02*
X001005Y025068D01*
X001005Y024909D02*
X011067Y024909D01*
X010977Y024751D02*
X001005Y024751D01*
X001005Y024592D02*
X010940Y024592D01*
X010942Y024434D02*
X001005Y024434D01*
X001005Y024275D02*
X011008Y024275D01*
X011142Y024117D02*
X001005Y024117D01*
X001005Y023958D02*
X011116Y023958D01*
X010997Y023800D02*
X001005Y023800D01*
X001005Y023641D02*
X010940Y023641D01*
X010940Y023483D02*
X001005Y023483D01*
X001005Y023324D02*
X010987Y023324D01*
X011093Y023166D02*
X001005Y023166D01*
X001005Y023007D02*
X011165Y023007D01*
X011018Y022849D02*
X001005Y022849D01*
X001005Y022690D02*
X010952Y022690D01*
X010940Y022532D02*
X001005Y022532D01*
X001005Y022373D02*
X010967Y022373D01*
X011044Y022215D02*
X001005Y022215D01*
X001005Y022056D02*
X011229Y022056D01*
X011056Y021898D02*
X001005Y021898D01*
X001005Y021739D02*
X010972Y021739D01*
X010940Y021581D02*
X001005Y021581D01*
X001005Y021422D02*
X010947Y021422D01*
X011013Y021264D02*
X001005Y021264D01*
X001005Y021105D02*
X011153Y021105D01*
X011105Y020947D02*
X001005Y020947D01*
X001005Y020788D02*
X010992Y020788D01*
X010940Y020630D02*
X001005Y020630D01*
X001005Y020471D02*
X010940Y020471D01*
X010992Y020313D02*
X001005Y020313D01*
X001005Y020154D02*
X011104Y020154D01*
X011154Y019996D02*
X001005Y019996D01*
X001005Y019837D02*
X011013Y019837D01*
X010947Y019679D02*
X001005Y019679D01*
X001005Y019520D02*
X010940Y019520D01*
X010972Y019362D02*
X001005Y019362D01*
X001005Y019203D02*
X011055Y019203D01*
X011231Y019045D02*
X001005Y019045D01*
X001005Y018886D02*
X011044Y018886D01*
X010967Y018728D02*
X001005Y018728D01*
X001005Y018569D02*
X010940Y018569D01*
X010952Y018411D02*
X001005Y018411D01*
X001005Y018252D02*
X011017Y018252D01*
X011165Y018094D02*
X001005Y018094D01*
X001005Y017935D02*
X041000Y017935D01*
X041000Y017777D02*
X001005Y017777D01*
X001005Y017618D02*
X041000Y017618D01*
X041000Y017460D02*
X001005Y017460D01*
X001005Y017301D02*
X041000Y017301D01*
X041000Y017143D02*
X001005Y017143D01*
X011769Y019045D02*
X013231Y019045D01*
X013055Y019203D02*
X011945Y019203D01*
X012028Y019362D02*
X012972Y019362D01*
X012940Y019520D02*
X012060Y019520D01*
X012053Y019679D02*
X012947Y019679D01*
X013013Y019837D02*
X011987Y019837D01*
X011846Y019996D02*
X013154Y019996D01*
X013104Y020154D02*
X011896Y020154D01*
X012008Y020313D02*
X012992Y020313D01*
X012940Y020471D02*
X012060Y020471D01*
X012060Y020630D02*
X012940Y020630D01*
X012992Y020788D02*
X012008Y020788D01*
X011895Y020947D02*
X013105Y020947D01*
X013153Y021105D02*
X011847Y021105D01*
X011987Y021264D02*
X013013Y021264D01*
X012947Y021422D02*
X012053Y021422D01*
X012060Y021581D02*
X012940Y021581D01*
X012972Y021739D02*
X012028Y021739D01*
X011944Y021898D02*
X013056Y021898D01*
X013229Y022056D02*
X011771Y022056D01*
X011956Y022215D02*
X013044Y022215D01*
X012967Y022373D02*
X012033Y022373D01*
X012060Y022532D02*
X012940Y022532D01*
X012952Y022690D02*
X012048Y022690D01*
X011982Y022849D02*
X013018Y022849D01*
X013165Y023007D02*
X011835Y023007D01*
X011907Y023166D02*
X013093Y023166D01*
X012987Y023324D02*
X012013Y023324D01*
X012060Y023483D02*
X012940Y023483D01*
X012940Y023641D02*
X012060Y023641D01*
X012003Y023800D02*
X012997Y023800D01*
X013116Y023958D02*
X011884Y023958D01*
X011858Y024117D02*
X013142Y024117D01*
X013008Y024275D02*
X011992Y024275D01*
X012058Y024434D02*
X012942Y024434D01*
X012940Y024592D02*
X012060Y024592D01*
X012023Y024751D02*
X012977Y024751D01*
X013067Y024909D02*
X011933Y024909D01*
X011799Y025068D02*
X013201Y025068D01*
X013032Y025226D02*
X011968Y025226D01*
X012038Y025385D02*
X012962Y025385D01*
X012940Y025543D02*
X012060Y025543D01*
X012043Y025702D02*
X012957Y025702D01*
X013022Y025860D02*
X011978Y025860D01*
X011823Y026019D02*
X013177Y026019D01*
X013081Y026177D02*
X011919Y026177D01*
X012017Y026336D02*
X012983Y026336D01*
X012940Y026494D02*
X012060Y026494D01*
X012060Y026653D02*
X012940Y026653D01*
X013002Y026811D02*
X011998Y026811D01*
X011872Y026970D02*
X013128Y026970D01*
X013130Y027128D02*
X011870Y027128D01*
X011997Y027287D02*
X013003Y027287D01*
X012940Y027445D02*
X012060Y027445D01*
X012060Y027604D02*
X012940Y027604D01*
X012982Y027762D02*
X012018Y027762D01*
X011921Y027921D02*
X013079Y027921D01*
X013179Y028079D02*
X011821Y028079D01*
X011977Y028238D02*
X013023Y028238D01*
X012958Y028396D02*
X012042Y028396D01*
X012060Y028555D02*
X012940Y028555D01*
X012961Y028713D02*
X012039Y028713D01*
X011970Y028872D02*
X013030Y028872D01*
X013196Y029030D02*
X011804Y029030D01*
X011931Y029189D02*
X013069Y029189D01*
X012978Y029347D02*
X012022Y029347D01*
X012060Y029506D02*
X012940Y029506D01*
X012941Y029664D02*
X012059Y029664D01*
X011993Y029823D02*
X013007Y029823D01*
X013139Y029981D02*
X011861Y029981D01*
X011882Y030140D02*
X013118Y030140D01*
X012998Y030298D02*
X012002Y030298D01*
X012060Y030457D02*
X012940Y030457D01*
X012940Y030615D02*
X012060Y030615D01*
X015000Y030500D02*
X018500Y027000D01*
X033000Y027000D01*
X035000Y025000D01*
X038000Y025000D01*
X041500Y028500D01*
X041500Y030000D01*
X043000Y031500D01*
X044500Y031500D01*
X046000Y033000D01*
X045500Y033500D02*
X044500Y032500D01*
X043000Y032500D01*
X041000Y030500D01*
X041000Y029000D01*
X038000Y026000D01*
X035000Y026000D01*
X034500Y026500D01*
X034500Y029500D01*
X034000Y030000D01*
X025000Y030000D01*
X024500Y030500D01*
X023550Y030500D01*
X023500Y030550D01*
X023910Y030932D02*
X025090Y030932D01*
X025167Y031091D02*
X023833Y031091D01*
X023981Y031249D02*
X025019Y031249D01*
X024953Y031408D02*
X024047Y031408D01*
X024060Y031566D02*
X024940Y031566D01*
X024966Y031725D02*
X024034Y031725D01*
X023959Y031883D02*
X025041Y031883D01*
X025223Y032042D02*
X023777Y032042D01*
X023942Y032200D02*
X025058Y032200D01*
X024973Y032359D02*
X024027Y032359D01*
X024060Y032517D02*
X024940Y032517D01*
X024946Y032676D02*
X024054Y032676D01*
X023988Y032834D02*
X025012Y032834D01*
X025151Y032993D02*
X023849Y032993D01*
X023893Y033151D02*
X025107Y033151D01*
X024993Y033310D02*
X024007Y033310D01*
X024060Y033468D02*
X024940Y033468D01*
X024940Y033627D02*
X024060Y033627D01*
X024009Y033785D02*
X024991Y033785D01*
X025102Y033944D02*
X023898Y033944D01*
X023844Y034102D02*
X025156Y034102D01*
X025014Y034261D02*
X023986Y034261D01*
X024052Y034419D02*
X024948Y034419D01*
X024940Y034578D02*
X024060Y034578D01*
X024029Y034736D02*
X024971Y034736D01*
X025053Y034895D02*
X023947Y034895D01*
X023764Y035053D02*
X025236Y035053D01*
X025046Y035212D02*
X023954Y035212D01*
X024032Y035370D02*
X024968Y035370D01*
X024940Y035529D02*
X024060Y035529D01*
X024049Y035687D02*
X024951Y035687D01*
X025016Y035846D02*
X023984Y035846D01*
X023838Y036004D02*
X025162Y036004D01*
X025095Y036163D02*
X023905Y036163D01*
X024011Y036321D02*
X024989Y036321D01*
X024940Y036480D02*
X024060Y036480D01*
X024060Y036638D02*
X024940Y036638D01*
X024996Y036797D02*
X024004Y036797D01*
X023887Y036955D02*
X025113Y036955D01*
X025144Y037114D02*
X023856Y037114D01*
X023991Y037272D02*
X025009Y037272D01*
X024943Y037431D02*
X024057Y037431D01*
X024060Y037589D02*
X024940Y037589D01*
X024976Y037748D02*
X024024Y037748D01*
X023936Y037906D02*
X025064Y037906D01*
X025209Y038065D02*
X023791Y038065D01*
X023965Y038223D02*
X025035Y038223D01*
X024964Y038382D02*
X024036Y038382D01*
X024060Y038540D02*
X024940Y038540D01*
X024955Y038699D02*
X024045Y038699D01*
X023979Y038857D02*
X025021Y038857D01*
X025174Y039016D02*
X023826Y039016D01*
X023916Y039174D02*
X025084Y039174D01*
X024984Y039333D02*
X024016Y039333D01*
X024060Y039491D02*
X024940Y039491D01*
X024940Y039650D02*
X024060Y039650D01*
X023999Y039808D02*
X025001Y039808D01*
X025125Y039967D02*
X023875Y039967D01*
X023867Y040125D02*
X025133Y040125D01*
X025004Y040284D02*
X023996Y040284D01*
X024060Y040442D02*
X024940Y040442D01*
X024940Y040601D02*
X024060Y040601D01*
X024020Y040759D02*
X024980Y040759D01*
X025076Y040918D02*
X023924Y040918D01*
X023693Y041076D02*
X025307Y041076D01*
X035500Y041500D02*
X035500Y041550D01*
X040184Y041552D02*
X040816Y041552D01*
X040573Y041393D02*
X040427Y041393D01*
X041500Y041393D02*
X043587Y041393D01*
X043480Y041235D02*
X041531Y041235D01*
X041580Y041076D02*
X043430Y041076D01*
X043430Y040918D02*
X041580Y040918D01*
X041528Y040759D02*
X043483Y040759D01*
X043593Y040601D02*
X041500Y040601D01*
X041500Y040442D02*
X043636Y040442D01*
X043500Y040284D02*
X041510Y040284D01*
X041576Y040125D02*
X043435Y040125D01*
X043430Y039967D02*
X041580Y039967D01*
X041548Y039808D02*
X043463Y039808D01*
X043544Y039650D02*
X041500Y039650D01*
X041500Y039491D02*
X043696Y039491D01*
X043526Y039333D02*
X041500Y039333D01*
X041556Y039174D02*
X043455Y039174D01*
X043430Y039016D02*
X041580Y039016D01*
X041569Y038857D02*
X043442Y038857D01*
X043508Y038699D02*
X041503Y038699D01*
X041500Y038540D02*
X043654Y038540D01*
X043575Y038382D02*
X041500Y038382D01*
X041535Y038223D02*
X043475Y038223D01*
X043430Y038065D02*
X041580Y038065D01*
X041580Y037906D02*
X043430Y037906D01*
X043488Y037748D02*
X041523Y037748D01*
X041500Y037589D02*
X043605Y037589D01*
X043624Y037431D02*
X041500Y037431D01*
X041515Y037272D02*
X043496Y037272D01*
X043430Y037114D02*
X041580Y037114D01*
X041580Y036955D02*
X043430Y036955D01*
X043467Y036797D02*
X041544Y036797D01*
X041500Y036638D02*
X043556Y036638D01*
X043673Y036480D02*
X041500Y036480D01*
X041500Y036321D02*
X043516Y036321D01*
X043450Y036163D02*
X041560Y036163D01*
X041580Y036004D02*
X043430Y036004D01*
X042394Y035846D02*
X041564Y035846D01*
X041500Y035687D02*
X042178Y035687D01*
X042019Y035529D02*
X041500Y035529D01*
X041500Y035370D02*
X041861Y035370D01*
X041702Y035212D02*
X041540Y035212D01*
X044500Y035500D02*
X046000Y034000D01*
X046500Y033500D02*
X045500Y033500D01*
X046500Y033500D02*
X047000Y033000D01*
X047570Y032993D02*
X049430Y032993D01*
X049446Y033151D02*
X047554Y033151D01*
X047489Y033310D02*
X049511Y033310D01*
X049662Y033468D02*
X047338Y033468D01*
X047433Y033627D02*
X049567Y033627D01*
X049472Y033785D02*
X047528Y033785D01*
X047570Y033944D02*
X049430Y033944D01*
X049430Y034102D02*
X047570Y034102D01*
X047509Y034261D02*
X049491Y034261D01*
X049613Y034419D02*
X047387Y034419D01*
X047206Y034578D02*
X049616Y034578D01*
X049492Y034736D02*
X047389Y034736D01*
X047459Y034895D02*
X049430Y034895D01*
X049430Y035053D02*
X047467Y035053D01*
X047420Y035212D02*
X049471Y035212D01*
X049564Y035370D02*
X047290Y035370D01*
X047335Y035529D02*
X049665Y035529D01*
X049513Y035687D02*
X047487Y035687D01*
X047553Y035846D02*
X049447Y035846D01*
X049430Y036004D02*
X047570Y036004D01*
X047550Y036163D02*
X049450Y036163D01*
X049516Y036321D02*
X047484Y036321D01*
X047327Y036480D02*
X049673Y036480D01*
X046673Y036480D02*
X046327Y036480D01*
X046484Y036321D02*
X046516Y036321D01*
X044767Y036480D02*
X044327Y036480D01*
X044444Y036638D02*
X044556Y036638D01*
X044526Y039333D02*
X044474Y039333D01*
X044304Y039491D02*
X044696Y039491D01*
X041500Y042820D02*
X052995Y042820D01*
X052995Y042978D02*
X041500Y042978D01*
X041500Y043137D02*
X052995Y043137D01*
X052995Y043295D02*
X041500Y043295D01*
X041500Y043454D02*
X052995Y043454D01*
X052995Y043612D02*
X041500Y043612D01*
X041500Y043771D02*
X052995Y043771D01*
X052995Y043929D02*
X041500Y043929D01*
X041500Y044088D02*
X052995Y044088D01*
X052995Y044246D02*
X041500Y044246D01*
X041500Y044405D02*
X052995Y044405D01*
X052995Y044563D02*
X041500Y044563D01*
X041500Y044722D02*
X052995Y044722D01*
X052995Y044880D02*
X041500Y044880D01*
X041500Y045039D02*
X052995Y045039D01*
X052995Y045197D02*
X041500Y045197D01*
X041500Y045356D02*
X052995Y045356D01*
X052995Y045514D02*
X041500Y045514D01*
X041500Y045673D02*
X052995Y045673D01*
X052995Y045831D02*
X041500Y045831D01*
X041500Y045990D02*
X052995Y045990D01*
X052995Y046148D02*
X041500Y046148D01*
X041500Y046307D02*
X052995Y046307D01*
X052995Y046465D02*
X041500Y046465D01*
X041500Y046624D02*
X052995Y046624D01*
X052995Y046782D02*
X041500Y046782D01*
X041500Y046941D02*
X052995Y046941D01*
X052995Y047099D02*
X048303Y047099D01*
X048282Y047078D02*
X048422Y047218D01*
X048498Y047401D01*
X048498Y047599D01*
X048422Y047782D01*
X048282Y047922D01*
X048099Y047998D01*
X047901Y047998D01*
X047718Y047922D01*
X047578Y047782D01*
X047502Y047599D01*
X047502Y047401D01*
X047578Y047218D01*
X047718Y047078D01*
X047901Y047002D01*
X048099Y047002D01*
X048282Y047078D01*
X048438Y047258D02*
X052995Y047258D01*
X052995Y047416D02*
X048498Y047416D01*
X048498Y047575D02*
X052995Y047575D01*
X052995Y047733D02*
X048442Y047733D01*
X048312Y047892D02*
X052995Y047892D01*
X047688Y047892D02*
X041500Y047892D01*
X041500Y047733D02*
X047558Y047733D01*
X047502Y047575D02*
X041500Y047575D01*
X041500Y047416D02*
X047502Y047416D01*
X047562Y047258D02*
X041500Y047258D01*
X041500Y047099D02*
X047697Y047099D01*
X037500Y036550D02*
X037500Y036500D01*
X037500Y035550D02*
X037500Y035500D01*
X043000Y030500D02*
X042000Y029500D01*
X042000Y028000D01*
X038000Y024000D01*
X034000Y024000D01*
X033659Y024117D02*
X025858Y024117D01*
X025884Y023958D02*
X033640Y023958D01*
X033693Y023800D02*
X026003Y023800D01*
X026060Y023641D02*
X033926Y023641D01*
X033842Y023324D02*
X026013Y023324D01*
X026060Y023483D02*
X034940Y023483D01*
X034942Y024434D02*
X026058Y024434D01*
X026060Y024592D02*
X034940Y024592D01*
X034740Y024751D02*
X026023Y024751D01*
X025933Y024909D02*
X034582Y024909D01*
X034423Y025068D02*
X025799Y025068D01*
X025968Y025226D02*
X034265Y025226D01*
X034106Y025385D02*
X026038Y025385D01*
X026060Y025543D02*
X033948Y025543D01*
X033789Y025702D02*
X026043Y025702D01*
X025978Y025860D02*
X033631Y025860D01*
X033472Y026019D02*
X025823Y026019D01*
X025919Y026177D02*
X033314Y026177D01*
X033155Y026336D02*
X026017Y026336D01*
X026060Y026494D02*
X032997Y026494D01*
X034860Y026653D02*
X034940Y026653D01*
X035002Y026811D02*
X034860Y026811D01*
X034860Y026970D02*
X035128Y026970D01*
X035130Y027128D02*
X034860Y027128D01*
X034860Y027287D02*
X035003Y027287D01*
X034940Y027445D02*
X034860Y027445D01*
X034860Y027604D02*
X034940Y027604D01*
X034982Y027762D02*
X034860Y027762D01*
X034860Y027921D02*
X035079Y027921D01*
X035179Y028079D02*
X034860Y028079D01*
X034860Y028238D02*
X035023Y028238D01*
X034958Y028396D02*
X034860Y028396D01*
X033766Y024275D02*
X025992Y024275D01*
X025907Y023166D02*
X033679Y023166D01*
X033640Y023007D02*
X025835Y023007D01*
X025982Y022849D02*
X033673Y022849D01*
X033808Y022690D02*
X026048Y022690D01*
X026060Y022532D02*
X034940Y022532D01*
X034967Y022373D02*
X026033Y022373D01*
X025956Y022215D02*
X033705Y022215D01*
X033640Y022056D02*
X025771Y022056D01*
X025944Y021898D02*
X033653Y021898D01*
X033752Y021739D02*
X026028Y021739D01*
X026060Y021581D02*
X034940Y021581D01*
X034947Y021422D02*
X026053Y021422D01*
X025987Y021264D02*
X033754Y021264D01*
X033654Y021105D02*
X025847Y021105D01*
X025895Y020947D02*
X033640Y020947D01*
X033703Y020788D02*
X026008Y020788D01*
X026060Y020630D02*
X034940Y020630D01*
X034940Y020471D02*
X026060Y020471D01*
X025997Y013814D02*
X035003Y013814D01*
X034940Y013656D02*
X026060Y013656D01*
X026060Y013497D02*
X034940Y013497D01*
X035869Y013973D02*
X037131Y013973D01*
X037127Y014131D02*
X035873Y014131D01*
X035998Y014290D02*
X037002Y014290D01*
X036940Y014448D02*
X036060Y014448D01*
X036060Y014607D02*
X036940Y014607D01*
X036983Y014765D02*
X036017Y014765D01*
X035918Y014924D02*
X037082Y014924D01*
X037176Y015082D02*
X035824Y015082D01*
X035978Y015241D02*
X037022Y015241D01*
X036956Y015399D02*
X036044Y015399D01*
X036060Y015558D02*
X036940Y015558D01*
X036963Y015716D02*
X036037Y015716D01*
X035967Y015875D02*
X037033Y015875D01*
X037203Y016033D02*
X035797Y016033D01*
X035933Y016192D02*
X037067Y016192D01*
X036977Y016350D02*
X036023Y016350D01*
X036060Y016509D02*
X036940Y016509D01*
X036942Y016667D02*
X036058Y016667D01*
X035992Y016826D02*
X037008Y016826D01*
X037142Y016984D02*
X035858Y016984D01*
X035835Y018094D02*
X037165Y018094D01*
X037017Y018252D02*
X035983Y018252D01*
X036048Y018411D02*
X036952Y018411D01*
X036940Y018569D02*
X036060Y018569D01*
X036033Y018728D02*
X036967Y018728D01*
X037044Y018886D02*
X035956Y018886D01*
X035769Y019045D02*
X037231Y019045D01*
X037055Y019203D02*
X035945Y019203D01*
X036028Y019362D02*
X036972Y019362D01*
X036940Y019520D02*
X036060Y019520D01*
X037769Y019045D02*
X041000Y019045D01*
X041000Y019203D02*
X037945Y019203D01*
X038028Y019362D02*
X041000Y019362D01*
X041000Y019520D02*
X038060Y019520D01*
X038165Y019679D02*
X041000Y019679D01*
X041000Y019837D02*
X038346Y019837D01*
X038505Y019996D02*
X041000Y019996D01*
X041000Y020154D02*
X038663Y020154D01*
X038822Y020313D02*
X041000Y020313D01*
X041000Y020471D02*
X038980Y020471D01*
X039139Y020630D02*
X041000Y020630D01*
X041000Y020788D02*
X039297Y020788D01*
X039456Y020947D02*
X041000Y020947D01*
X041000Y021105D02*
X039614Y021105D01*
X039773Y021264D02*
X041000Y021264D01*
X041000Y021422D02*
X039931Y021422D01*
X040090Y021581D02*
X041000Y021581D01*
X041000Y021739D02*
X040248Y021739D01*
X040407Y021898D02*
X041000Y021898D01*
X041000Y022056D02*
X040565Y022056D01*
X040724Y022215D02*
X041000Y022215D01*
X041000Y022373D02*
X040882Y022373D01*
X041500Y022373D02*
X052995Y022373D01*
X052995Y022215D02*
X041500Y022215D01*
X041500Y022056D02*
X052995Y022056D01*
X052995Y021898D02*
X041500Y021898D01*
X041500Y021739D02*
X052995Y021739D01*
X052995Y021581D02*
X041500Y021581D01*
X041500Y021422D02*
X052995Y021422D01*
X052995Y021264D02*
X041500Y021264D01*
X041500Y021105D02*
X052995Y021105D01*
X052995Y020947D02*
X041500Y020947D01*
X041500Y020788D02*
X052995Y020788D01*
X052995Y020630D02*
X041500Y020630D01*
X041500Y020471D02*
X052995Y020471D01*
X052995Y020313D02*
X041500Y020313D01*
X041500Y020154D02*
X052995Y020154D01*
X052995Y019996D02*
X041500Y019996D01*
X041500Y019837D02*
X052995Y019837D01*
X052995Y019679D02*
X041500Y019679D01*
X041500Y019520D02*
X052995Y019520D01*
X052995Y019362D02*
X041500Y019362D01*
X041500Y019203D02*
X052995Y019203D01*
X052995Y019045D02*
X041500Y019045D01*
X041500Y018886D02*
X052995Y018886D01*
X052995Y018728D02*
X041500Y018728D01*
X041500Y018569D02*
X052995Y018569D01*
X052995Y018411D02*
X041500Y018411D01*
X041500Y018252D02*
X052995Y018252D01*
X052995Y018094D02*
X041500Y018094D01*
X041500Y017935D02*
X043796Y017935D01*
X043816Y017945D02*
X043748Y017911D01*
X043687Y017866D01*
X043634Y017813D01*
X043589Y017752D01*
X043555Y017684D01*
X043532Y017612D01*
X043520Y017538D01*
X043520Y017520D01*
X043980Y017520D01*
X043980Y017980D01*
X043962Y017980D01*
X043888Y017968D01*
X043816Y017945D01*
X043980Y017935D02*
X044020Y017935D01*
X044020Y017980D02*
X044020Y017520D01*
X043980Y017520D01*
X043980Y017480D01*
X043520Y017480D01*
X043520Y017462D01*
X043532Y017388D01*
X043555Y017316D01*
X043589Y017248D01*
X043634Y017187D01*
X043687Y017134D01*
X043748Y017089D01*
X043816Y017055D01*
X043888Y017032D01*
X043962Y017020D01*
X043980Y017020D01*
X043980Y017480D01*
X044020Y017480D01*
X044020Y017020D01*
X044038Y017020D01*
X044112Y017032D01*
X044184Y017055D01*
X044252Y017089D01*
X044313Y017134D01*
X044366Y017187D01*
X044411Y017248D01*
X044445Y017316D01*
X044446Y017321D01*
X044508Y017171D01*
X044671Y017008D01*
X044885Y016920D01*
X045115Y016920D01*
X045329Y017008D01*
X045492Y017171D01*
X045500Y017191D01*
X045508Y017171D01*
X045671Y017008D01*
X045885Y016920D01*
X046115Y016920D01*
X046329Y017008D01*
X046492Y017171D01*
X046500Y017191D01*
X046508Y017171D01*
X046671Y017008D01*
X046885Y016920D01*
X047115Y016920D01*
X047329Y017008D01*
X047492Y017171D01*
X047500Y017191D01*
X047508Y017171D01*
X047671Y017008D01*
X047885Y016920D01*
X048115Y016920D01*
X048329Y017008D01*
X048492Y017171D01*
X048500Y017191D01*
X048508Y017171D01*
X048671Y017008D01*
X048885Y016920D01*
X049115Y016920D01*
X049329Y017008D01*
X049492Y017171D01*
X049580Y017385D01*
X049580Y017615D01*
X049492Y017829D01*
X049329Y017992D01*
X049115Y018080D01*
X048885Y018080D01*
X048671Y017992D01*
X048508Y017829D01*
X048500Y017809D01*
X048492Y017829D01*
X048329Y017992D01*
X048115Y018080D01*
X047885Y018080D01*
X047671Y017992D01*
X047508Y017829D01*
X047500Y017809D01*
X047492Y017829D01*
X047329Y017992D01*
X047115Y018080D01*
X046885Y018080D01*
X046671Y017992D01*
X046508Y017829D01*
X046500Y017809D01*
X046492Y017829D01*
X046329Y017992D01*
X046115Y018080D01*
X045885Y018080D01*
X045671Y017992D01*
X045508Y017829D01*
X045500Y017809D01*
X045492Y017829D01*
X045329Y017992D01*
X045115Y018080D01*
X044885Y018080D01*
X044671Y017992D01*
X044508Y017829D01*
X044446Y017679D01*
X044445Y017684D01*
X044411Y017752D01*
X044366Y017813D01*
X044313Y017866D01*
X044252Y017911D01*
X044184Y017945D01*
X044112Y017968D01*
X044038Y017980D01*
X044020Y017980D01*
X044204Y017935D02*
X044615Y017935D01*
X044487Y017777D02*
X044392Y017777D01*
X044020Y017777D02*
X043980Y017777D01*
X043980Y017618D02*
X044020Y017618D01*
X044020Y017460D02*
X043980Y017460D01*
X043980Y017301D02*
X044020Y017301D01*
X044020Y017143D02*
X043980Y017143D01*
X043679Y017143D02*
X041500Y017143D01*
X041500Y017301D02*
X043563Y017301D01*
X043520Y017460D02*
X041500Y017460D01*
X041500Y017618D02*
X043534Y017618D01*
X043608Y017777D02*
X041500Y017777D01*
X041000Y018094D02*
X037835Y018094D01*
X037983Y018252D02*
X041000Y018252D01*
X041000Y018411D02*
X038048Y018411D01*
X038060Y018569D02*
X041000Y018569D01*
X041000Y018728D02*
X038033Y018728D01*
X037956Y018886D02*
X041000Y018886D01*
X041000Y016984D02*
X037858Y016984D01*
X037992Y016826D02*
X041000Y016826D01*
X041000Y016667D02*
X038058Y016667D01*
X038060Y016509D02*
X041000Y016509D01*
X041000Y016350D02*
X038023Y016350D01*
X037933Y016192D02*
X041000Y016192D01*
X041000Y016033D02*
X037797Y016033D01*
X037967Y015875D02*
X041000Y015875D01*
X041000Y015716D02*
X038037Y015716D01*
X038060Y015558D02*
X041000Y015558D01*
X041000Y015399D02*
X038044Y015399D01*
X037978Y015241D02*
X041000Y015241D01*
X041000Y015082D02*
X037824Y015082D01*
X037918Y014924D02*
X041076Y014924D01*
X041235Y014765D02*
X038017Y014765D01*
X038060Y014607D02*
X041393Y014607D01*
X041552Y014448D02*
X038060Y014448D01*
X037998Y014290D02*
X041710Y014290D01*
X041869Y014131D02*
X037873Y014131D01*
X037869Y013973D02*
X042027Y013973D01*
X042186Y013814D02*
X037997Y013814D01*
X038060Y013656D02*
X042344Y013656D01*
X042503Y013497D02*
X038060Y013497D01*
X037003Y013814D02*
X035997Y013814D01*
X036060Y013656D02*
X036940Y013656D01*
X036940Y013497D02*
X036060Y013497D01*
X035857Y009218D02*
X031922Y009218D01*
X031736Y009059D02*
X035652Y009059D01*
X035520Y008901D02*
X025480Y008901D01*
X025571Y008742D02*
X035429Y008742D01*
X035382Y008584D02*
X025618Y008584D01*
X025650Y008425D02*
X035350Y008425D01*
X035350Y008267D02*
X025650Y008267D01*
X025627Y008108D02*
X035373Y008108D01*
X035416Y007950D02*
X025584Y007950D01*
X025498Y007791D02*
X035502Y007791D01*
X035621Y007633D02*
X025379Y007633D01*
X025197Y007474D02*
X030344Y007474D01*
X030656Y007474D02*
X035803Y007474D01*
X031161Y006365D02*
X029839Y006365D01*
X029782Y006422D02*
X029599Y006498D01*
X029401Y006498D01*
X029218Y006422D01*
X029078Y006282D01*
X029002Y006099D01*
X029002Y005901D01*
X029078Y005718D01*
X029218Y005578D01*
X029401Y005502D01*
X029599Y005502D01*
X029782Y005578D01*
X029922Y005718D01*
X029998Y005901D01*
X029998Y006099D01*
X029922Y006282D01*
X029782Y006422D01*
X029953Y006206D02*
X031047Y006206D01*
X031002Y006048D02*
X029998Y006048D01*
X029993Y005889D02*
X031007Y005889D01*
X031073Y005731D02*
X029927Y005731D01*
X029768Y005572D02*
X031232Y005572D01*
X031210Y005414D02*
X029790Y005414D01*
X029782Y005422D02*
X029599Y005498D01*
X029401Y005498D01*
X029218Y005422D01*
X029078Y005282D01*
X029002Y005099D01*
X029002Y004901D01*
X029078Y004718D01*
X029218Y004578D01*
X029401Y004502D01*
X029599Y004502D01*
X029782Y004578D01*
X029922Y004718D01*
X029998Y004901D01*
X029998Y005099D01*
X029922Y005282D01*
X029782Y005422D01*
X029933Y005255D02*
X031067Y005255D01*
X031002Y005097D02*
X029998Y005097D01*
X029998Y004938D02*
X031002Y004938D01*
X031053Y004780D02*
X029947Y004780D01*
X029825Y004621D02*
X031175Y004621D01*
X029175Y004621D02*
X019825Y004621D01*
X019782Y004578D02*
X019922Y004718D01*
X019998Y004901D01*
X019998Y005099D01*
X019922Y005282D01*
X019782Y005422D01*
X019599Y005498D01*
X019401Y005498D01*
X019218Y005422D01*
X019078Y005282D01*
X019002Y005099D01*
X019002Y004901D01*
X019078Y004718D01*
X019218Y004578D01*
X019401Y004502D01*
X019599Y004502D01*
X019782Y004578D01*
X019947Y004780D02*
X029053Y004780D01*
X029002Y004938D02*
X019998Y004938D01*
X019998Y005097D02*
X029002Y005097D01*
X029067Y005255D02*
X019933Y005255D01*
X019790Y005414D02*
X029210Y005414D01*
X029232Y005572D02*
X019768Y005572D01*
X019782Y005578D02*
X019922Y005718D01*
X019998Y005901D01*
X019998Y006099D01*
X019922Y006282D01*
X019782Y006422D01*
X019599Y006498D01*
X019401Y006498D01*
X019218Y006422D01*
X019078Y006282D01*
X019002Y006099D01*
X019002Y005901D01*
X019078Y005718D01*
X019218Y005578D01*
X019401Y005502D01*
X019599Y005502D01*
X019782Y005578D01*
X019927Y005731D02*
X029073Y005731D01*
X029007Y005889D02*
X019993Y005889D01*
X019998Y006048D02*
X029002Y006048D01*
X029047Y006206D02*
X019953Y006206D01*
X019839Y006365D02*
X029161Y006365D01*
X031264Y009059D02*
X025348Y009059D01*
X025143Y009218D02*
X031078Y009218D01*
X022940Y013497D02*
X014060Y013497D01*
X014060Y013656D02*
X022940Y013656D01*
X023003Y013814D02*
X013997Y013814D01*
X013165Y018094D02*
X011835Y018094D01*
X011983Y018252D02*
X013017Y018252D01*
X012952Y018411D02*
X012048Y018411D01*
X012060Y018569D02*
X012940Y018569D01*
X012967Y018728D02*
X012033Y018728D01*
X011956Y018886D02*
X013044Y018886D01*
X012957Y007474D02*
X018344Y007474D01*
X018112Y007316D02*
X012573Y007316D01*
X017839Y006365D02*
X019161Y006365D01*
X019047Y006206D02*
X017953Y006206D01*
X017998Y006048D02*
X019002Y006048D01*
X019007Y005889D02*
X017993Y005889D01*
X017927Y005731D02*
X019073Y005731D01*
X019232Y005572D02*
X017768Y005572D01*
X017790Y005414D02*
X019210Y005414D01*
X019067Y005255D02*
X017933Y005255D01*
X017998Y005097D02*
X019002Y005097D01*
X019002Y004938D02*
X017998Y004938D01*
X017947Y004780D02*
X019053Y004780D01*
X019175Y004621D02*
X017825Y004621D01*
X034000Y021000D02*
X038000Y021000D01*
X044000Y027000D01*
X045000Y027000D01*
X046500Y028500D01*
X046500Y029500D01*
X047000Y030000D01*
X047015Y028985D02*
X047015Y028530D01*
X047037Y028530D01*
X047110Y028542D01*
X047140Y028551D01*
X047140Y028149D01*
X046195Y027204D01*
X046140Y027072D01*
X046140Y026070D01*
X046115Y026080D01*
X045885Y026080D01*
X045671Y025992D01*
X045508Y025829D01*
X045446Y025679D01*
X045445Y025684D01*
X045411Y025752D01*
X045366Y025813D01*
X045313Y025866D01*
X045252Y025911D01*
X045184Y025945D01*
X045112Y025968D01*
X045038Y025980D01*
X045020Y025980D01*
X045020Y025520D01*
X044980Y025520D01*
X044980Y025980D01*
X044962Y025980D01*
X044888Y025968D01*
X044816Y025945D01*
X044748Y025911D01*
X044687Y025866D01*
X044634Y025813D01*
X044589Y025752D01*
X044555Y025684D01*
X044532Y025612D01*
X044520Y025538D01*
X044520Y025520D01*
X044980Y025520D01*
X044980Y025480D01*
X044520Y025480D01*
X044520Y025462D01*
X044532Y025388D01*
X044555Y025316D01*
X044589Y025248D01*
X044634Y025187D01*
X044687Y025134D01*
X044748Y025089D01*
X044816Y025055D01*
X044888Y025032D01*
X044962Y025020D01*
X044980Y025020D01*
X044980Y025480D01*
X045020Y025480D01*
X045020Y025020D01*
X045038Y025020D01*
X045112Y025032D01*
X045184Y025055D01*
X045252Y025089D01*
X045313Y025134D01*
X045366Y025187D01*
X045411Y025248D01*
X045445Y025316D01*
X045446Y025321D01*
X045508Y025171D01*
X045671Y025008D01*
X045885Y024920D01*
X045911Y024920D01*
X045851Y024860D01*
X042428Y024860D01*
X042327Y024818D01*
X044149Y026640D01*
X045072Y026640D01*
X045204Y026695D01*
X046805Y028296D01*
X046860Y028428D01*
X046860Y028551D01*
X046890Y028542D01*
X046963Y028530D01*
X046985Y028530D01*
X046985Y028985D01*
X047015Y028985D01*
X047015Y028872D02*
X046985Y028872D01*
X046985Y028713D02*
X047015Y028713D01*
X047015Y028555D02*
X046985Y028555D01*
X046847Y028396D02*
X047140Y028396D01*
X047140Y028238D02*
X046747Y028238D01*
X046588Y028079D02*
X047070Y028079D01*
X046911Y027921D02*
X046430Y027921D01*
X046271Y027762D02*
X046753Y027762D01*
X046594Y027604D02*
X046113Y027604D01*
X045954Y027445D02*
X046436Y027445D01*
X046277Y027287D02*
X045796Y027287D01*
X045637Y027128D02*
X046163Y027128D01*
X046140Y026970D02*
X045479Y026970D01*
X045320Y026811D02*
X046140Y026811D01*
X046140Y026653D02*
X045102Y026653D01*
X045736Y026019D02*
X043528Y026019D01*
X043681Y025860D02*
X043369Y025860D01*
X043211Y025702D02*
X043564Y025702D01*
X043555Y025684D02*
X043532Y025612D01*
X043520Y025538D01*
X043520Y025520D01*
X043980Y025520D01*
X043980Y025980D01*
X043962Y025980D01*
X043888Y025968D01*
X043816Y025945D01*
X043748Y025911D01*
X043687Y025866D01*
X043634Y025813D01*
X043589Y025752D01*
X043555Y025684D01*
X043521Y025543D02*
X043052Y025543D01*
X042894Y025385D02*
X043533Y025385D01*
X043532Y025388D02*
X043555Y025316D01*
X043589Y025248D01*
X043634Y025187D01*
X043687Y025134D01*
X043748Y025089D01*
X043816Y025055D01*
X043888Y025032D01*
X043962Y025020D01*
X043980Y025020D01*
X043980Y025480D01*
X043520Y025480D01*
X043520Y025462D01*
X043532Y025388D01*
X043606Y025226D02*
X042735Y025226D01*
X042577Y025068D02*
X043791Y025068D01*
X043980Y025068D02*
X044020Y025068D01*
X044020Y025020D02*
X044038Y025020D01*
X044112Y025032D01*
X044184Y025055D01*
X044252Y025089D01*
X044313Y025134D01*
X044366Y025187D01*
X044411Y025248D01*
X044445Y025316D01*
X044468Y025388D01*
X044480Y025462D01*
X044480Y025480D01*
X044020Y025480D01*
X044020Y025520D01*
X043980Y025520D01*
X043980Y025480D01*
X044020Y025480D01*
X044020Y025020D01*
X044209Y025068D02*
X044791Y025068D01*
X044980Y025068D02*
X045020Y025068D01*
X045020Y025226D02*
X044980Y025226D01*
X044980Y025385D02*
X045020Y025385D01*
X045020Y025543D02*
X044980Y025543D01*
X044980Y025702D02*
X045020Y025702D01*
X045020Y025860D02*
X044980Y025860D01*
X044681Y025860D02*
X044319Y025860D01*
X044313Y025866D02*
X044366Y025813D01*
X044411Y025752D01*
X044445Y025684D01*
X044468Y025612D01*
X044480Y025538D01*
X044480Y025520D01*
X044020Y025520D01*
X044020Y025980D01*
X044038Y025980D01*
X044112Y025968D01*
X044184Y025945D01*
X044252Y025911D01*
X044313Y025866D01*
X044436Y025702D02*
X044564Y025702D01*
X044521Y025543D02*
X044479Y025543D01*
X044467Y025385D02*
X044533Y025385D01*
X044606Y025226D02*
X044394Y025226D01*
X044020Y025226D02*
X043980Y025226D01*
X043980Y025385D02*
X044020Y025385D01*
X044020Y025543D02*
X043980Y025543D01*
X043980Y025702D02*
X044020Y025702D01*
X044020Y025860D02*
X043980Y025860D01*
X043686Y026177D02*
X046140Y026177D01*
X046140Y026336D02*
X043845Y026336D01*
X044003Y026494D02*
X046140Y026494D01*
X046860Y026494D02*
X052995Y026494D01*
X052995Y026336D02*
X046860Y026336D01*
X046860Y026177D02*
X052995Y026177D01*
X052995Y026019D02*
X049264Y026019D01*
X049460Y025860D02*
X052995Y025860D01*
X052995Y025702D02*
X049544Y025702D01*
X049580Y025543D02*
X052995Y025543D01*
X052995Y025385D02*
X049580Y025385D01*
X049514Y025226D02*
X052995Y025226D01*
X052995Y025068D02*
X049388Y025068D01*
X048612Y025068D02*
X048388Y025068D01*
X048460Y025860D02*
X048540Y025860D01*
X048736Y026019D02*
X048264Y026019D01*
X047736Y026019D02*
X047264Y026019D01*
X047460Y025860D02*
X047540Y025860D01*
X047612Y025068D02*
X047388Y025068D01*
X046852Y024909D02*
X052995Y024909D01*
X052995Y024751D02*
X046760Y024751D01*
X046601Y024592D02*
X052995Y024592D01*
X052995Y024434D02*
X046443Y024434D01*
X046284Y024275D02*
X052995Y024275D01*
X052995Y024117D02*
X042626Y024117D01*
X042467Y023958D02*
X052995Y023958D01*
X052995Y023800D02*
X042309Y023800D01*
X042150Y023641D02*
X052995Y023641D01*
X052995Y023483D02*
X041992Y023483D01*
X041833Y023324D02*
X052995Y023324D01*
X052995Y023166D02*
X041675Y023166D01*
X041516Y023007D02*
X052995Y023007D01*
X052995Y022849D02*
X041500Y022849D01*
X041500Y022690D02*
X052995Y022690D01*
X052995Y022532D02*
X041500Y022532D01*
X042418Y024909D02*
X045900Y024909D01*
X045612Y025068D02*
X045209Y025068D01*
X045394Y025226D02*
X045486Y025226D01*
X045456Y025702D02*
X045436Y025702D01*
X045540Y025860D02*
X045319Y025860D01*
X046860Y026653D02*
X052995Y026653D01*
X052995Y026811D02*
X046860Y026811D01*
X046979Y026970D02*
X052995Y026970D01*
X052995Y027128D02*
X047137Y027128D01*
X047296Y027287D02*
X052995Y027287D01*
X052995Y027445D02*
X047454Y027445D01*
X047613Y027604D02*
X052995Y027604D01*
X052995Y027762D02*
X047771Y027762D01*
X047857Y027921D02*
X052995Y027921D01*
X052995Y028079D02*
X047860Y028079D01*
X047860Y028238D02*
X052995Y028238D01*
X052995Y028396D02*
X047860Y028396D01*
X048361Y028555D02*
X048639Y028555D01*
X048502Y028713D02*
X048498Y028713D01*
X048459Y029347D02*
X048541Y029347D01*
X048731Y029506D02*
X048269Y029506D01*
X046000Y030000D02*
X045500Y029500D01*
X045500Y028500D01*
X044500Y027500D01*
X043500Y027500D01*
X038000Y022000D01*
X034000Y022000D01*
X034000Y023000D02*
X038000Y023000D01*
X042500Y027500D01*
X042500Y028500D01*
X043500Y029500D01*
X044500Y029500D01*
X046000Y031000D01*
X046000Y032000D02*
X044500Y030500D01*
X043000Y030500D01*
X047482Y032676D02*
X049518Y032676D01*
X049452Y032834D02*
X047548Y032834D01*
X047385Y017935D02*
X047615Y017935D01*
X047537Y017143D02*
X047463Y017143D01*
X047270Y016984D02*
X047730Y016984D01*
X048270Y016984D02*
X048730Y016984D01*
X048537Y017143D02*
X048463Y017143D01*
X048385Y017935D02*
X048615Y017935D01*
X049385Y017935D02*
X052995Y017935D01*
X052995Y017777D02*
X049513Y017777D01*
X049579Y017618D02*
X052995Y017618D01*
X052995Y017460D02*
X049580Y017460D01*
X049545Y017301D02*
X052995Y017301D01*
X052995Y017143D02*
X049463Y017143D01*
X049270Y016984D02*
X052995Y016984D01*
X052995Y016826D02*
X041500Y016826D01*
X041500Y016984D02*
X044730Y016984D01*
X044537Y017143D02*
X044321Y017143D01*
X044437Y017301D02*
X044455Y017301D01*
X045270Y016984D02*
X045730Y016984D01*
X045537Y017143D02*
X045463Y017143D01*
X045385Y017935D02*
X045615Y017935D01*
X046385Y017935D02*
X046615Y017935D01*
X046537Y017143D02*
X046463Y017143D01*
X046270Y016984D02*
X046730Y016984D01*
X049500Y013497D02*
X052995Y013497D01*
X052995Y013339D02*
X049500Y013339D01*
X049500Y013180D02*
X052995Y013180D01*
X052995Y013022D02*
X049500Y013022D01*
X049500Y012863D02*
X052995Y012863D01*
X052995Y012705D02*
X049500Y012705D01*
X049500Y012546D02*
X052995Y012546D01*
X052995Y012388D02*
X049500Y012388D01*
X049500Y012229D02*
X052995Y012229D01*
X052995Y012071D02*
X049500Y012071D01*
X049500Y011912D02*
X052995Y011912D01*
X052995Y011754D02*
X049500Y011754D01*
X049500Y011595D02*
X052995Y011595D01*
X052995Y011000D02*
X052995Y004000D01*
X047860Y004000D01*
X047860Y005399D01*
X047988Y005325D01*
X048261Y005252D01*
X048543Y005252D01*
X048815Y005325D01*
X049059Y005466D01*
X049258Y005666D01*
X049399Y005910D01*
X049472Y006182D01*
X049472Y006464D01*
X049399Y006736D01*
X049258Y006980D01*
X049059Y007179D01*
X048815Y007320D01*
X048543Y007393D01*
X048261Y007393D01*
X047988Y007320D01*
X047860Y007246D01*
X047860Y010754D01*
X047988Y010680D01*
X048261Y010607D01*
X048543Y010607D01*
X048815Y010680D01*
X049059Y010821D01*
X049238Y011000D01*
X052995Y011000D01*
X052995Y010961D02*
X049199Y010961D01*
X049028Y010803D02*
X052995Y010803D01*
X052995Y010644D02*
X048682Y010644D01*
X048121Y010644D02*
X047860Y010644D01*
X047860Y010486D02*
X052995Y010486D01*
X052995Y010327D02*
X047860Y010327D01*
X047860Y010169D02*
X052995Y010169D01*
X052995Y010010D02*
X047860Y010010D01*
X047860Y009852D02*
X052995Y009852D01*
X052995Y009693D02*
X047860Y009693D01*
X047860Y009535D02*
X052995Y009535D01*
X052995Y009376D02*
X047860Y009376D01*
X047860Y009218D02*
X052995Y009218D01*
X052995Y009059D02*
X047860Y009059D01*
X047860Y008901D02*
X052995Y008901D01*
X052995Y008742D02*
X047860Y008742D01*
X047860Y008584D02*
X052995Y008584D01*
X052995Y008425D02*
X047860Y008425D01*
X047860Y008267D02*
X052995Y008267D01*
X052995Y008108D02*
X047860Y008108D01*
X047860Y007950D02*
X052995Y007950D01*
X052995Y007791D02*
X047860Y007791D01*
X047860Y007633D02*
X052995Y007633D01*
X052995Y007474D02*
X047860Y007474D01*
X047860Y007316D02*
X047980Y007316D01*
X047500Y007633D02*
X046857Y007633D01*
X047010Y007791D02*
X047500Y007791D01*
X047500Y007950D02*
X047075Y007950D01*
X047111Y008108D02*
X047500Y008108D01*
X047500Y008267D02*
X047111Y008267D01*
X047064Y008425D02*
X047500Y008425D01*
X047500Y008584D02*
X046988Y008584D01*
X046829Y008742D02*
X047500Y008742D01*
X047500Y010169D02*
X042432Y010169D01*
X042513Y010327D02*
X047500Y010327D01*
X047500Y010486D02*
X042540Y010486D01*
X042525Y010644D02*
X047500Y010644D01*
X047500Y010803D02*
X042459Y010803D01*
X042298Y010961D02*
X047500Y010961D01*
X047487Y011120D02*
X042383Y011120D01*
X042493Y011278D02*
X047400Y011278D01*
X047358Y011437D02*
X042540Y011437D01*
X042540Y011595D02*
X047331Y011595D01*
X047331Y011754D02*
X042479Y011754D01*
X042352Y011912D02*
X047356Y011912D01*
X043344Y013656D02*
X051640Y013656D01*
X051578Y013718D02*
X051718Y013578D01*
X051901Y013502D01*
X052099Y013502D01*
X052282Y013578D01*
X052422Y013718D01*
X052498Y013901D01*
X052498Y014099D01*
X052422Y014282D01*
X052282Y014422D01*
X052099Y014498D01*
X051901Y014498D01*
X051718Y014422D01*
X051578Y014282D01*
X051502Y014099D01*
X051502Y013901D01*
X051578Y013718D01*
X051538Y013814D02*
X043186Y013814D01*
X043027Y013973D02*
X051502Y013973D01*
X051515Y014131D02*
X042869Y014131D01*
X042710Y014290D02*
X051586Y014290D01*
X051781Y014448D02*
X042552Y014448D01*
X042393Y014607D02*
X052995Y014607D01*
X052995Y014765D02*
X042235Y014765D01*
X042076Y014924D02*
X052995Y014924D01*
X052995Y015082D02*
X041918Y015082D01*
X041759Y015241D02*
X052995Y015241D01*
X052995Y015399D02*
X041601Y015399D01*
X041500Y015558D02*
X052995Y015558D01*
X052995Y015716D02*
X041500Y015716D01*
X041500Y015875D02*
X052995Y015875D01*
X052995Y016033D02*
X041500Y016033D01*
X041500Y016192D02*
X052995Y016192D01*
X052995Y016350D02*
X041500Y016350D01*
X041500Y016509D02*
X052995Y016509D01*
X052995Y016667D02*
X041500Y016667D01*
X041352Y011912D02*
X041648Y011912D01*
X041521Y011754D02*
X041479Y011754D01*
X047860Y005255D02*
X048250Y005255D01*
X048553Y005255D02*
X052995Y005255D01*
X052995Y005097D02*
X047860Y005097D01*
X047860Y004938D02*
X052995Y004938D01*
X052995Y004780D02*
X047860Y004780D01*
X047860Y004621D02*
X052995Y004621D01*
X052995Y004463D02*
X047860Y004463D01*
X047860Y004304D02*
X052995Y004304D01*
X052995Y004146D02*
X047860Y004146D01*
X048968Y005414D02*
X052995Y005414D01*
X052995Y005572D02*
X049165Y005572D01*
X049296Y005731D02*
X052995Y005731D01*
X052995Y005889D02*
X049387Y005889D01*
X049436Y006048D02*
X052995Y006048D01*
X052995Y006206D02*
X049472Y006206D01*
X049472Y006365D02*
X052995Y006365D01*
X052995Y006523D02*
X049456Y006523D01*
X049414Y006682D02*
X052995Y006682D01*
X052995Y006840D02*
X049339Y006840D01*
X049240Y006999D02*
X052995Y006999D01*
X052995Y007157D02*
X049081Y007157D01*
X048823Y007316D02*
X052995Y007316D01*
X052995Y013656D02*
X052360Y013656D01*
X052462Y013814D02*
X052995Y013814D01*
X052995Y013973D02*
X052498Y013973D01*
X052485Y014131D02*
X052995Y014131D01*
X052995Y014290D02*
X052414Y014290D01*
X052219Y014448D02*
X052995Y014448D01*
X024940Y030615D02*
X024894Y030615D01*
X024986Y030774D02*
X024736Y030774D01*
D16*
X032500Y041000D03*
X028500Y041500D03*
X027500Y043500D03*
X020500Y044500D03*
X019000Y042000D03*
X016000Y044500D03*
X017500Y046500D03*
X019000Y047500D03*
X014000Y047000D03*
X012000Y046000D03*
X009500Y047000D03*
X007500Y046000D03*
X008000Y043000D03*
X004500Y044500D03*
X002500Y042500D03*
X002500Y046500D03*
X015500Y042500D03*
X035000Y046500D03*
X038000Y046000D03*
X039500Y044500D03*
X040000Y046500D03*
X042500Y042500D03*
X039500Y042000D03*
X046000Y037500D03*
X047000Y039500D03*
X049000Y042000D03*
X048900Y043200D03*
X050000Y045000D03*
X049500Y046500D03*
X048000Y047500D03*
X052000Y047000D03*
X047000Y043000D03*
X049000Y024000D03*
X047500Y023500D03*
X045500Y023000D03*
X043500Y023000D03*
X043000Y022000D03*
X045000Y020500D03*
X044000Y019000D03*
X042500Y017500D03*
X043500Y016000D03*
X043500Y014500D03*
X040000Y015000D03*
X039000Y014000D03*
X039000Y017500D03*
X033500Y017500D03*
X032500Y017500D03*
X031000Y017500D03*
X029000Y017500D03*
X028000Y017500D03*
X026500Y017500D03*
X024500Y017500D03*
X022000Y017500D03*
X020000Y017500D03*
X018500Y017500D03*
X017000Y017500D03*
X015000Y017500D03*
X012500Y017500D03*
X010000Y017500D03*
X008000Y017500D03*
X006500Y017500D03*
X005000Y017500D03*
X003500Y017500D03*
X001500Y017500D03*
X017500Y006000D03*
X017500Y005000D03*
X019500Y005000D03*
X019500Y006000D03*
X018500Y007000D03*
X019500Y009500D03*
X029500Y006000D03*
X029500Y005000D03*
X031500Y005000D03*
X031500Y006000D03*
X030500Y007000D03*
X031500Y009500D03*
X048500Y005000D03*
X049500Y005500D03*
X050000Y007000D03*
X051000Y006500D03*
X052000Y008000D03*
X052000Y009500D03*
X052000Y010500D03*
X052500Y012000D03*
X052000Y014000D03*
X049500Y015000D03*
X050000Y019500D03*
X052500Y005000D03*
M02*
